<?xml version="1.0" encoding="UTF-8"?><svg id="Layer_1" xmlns="http://www.w3.org/2000/svg" width="36" height="36" viewBox="0 0 36 36"><path d="M25,30.04h8.02V14.44c0-5.77-4.19-10.46-9.97-10.46V1.46C23.06,.65,22.39,0,21.55,0h-2.97c-.86,0-1.54,.66-1.54,1.49V3.98c-5.53,0-10.01,4.48-10.01,10.01v4.03h12.93c2.78,0,5.05,2.25,5.05,5.02v7ZM19.04,1.98h1.98V3.98h-1.98V1.98Zm-5.02,12l1-5h10l1,5H14.02ZM0,23v11c0,1.13,.91,2.04,2.04,2.04H20.03c1.09,0,1.97-.88,1.97-1.97v-11.08c0-1.07-.87-1.94-1.94-1.94H1.96c-1.08,0-1.96,.88-1.96,1.96Zm7.51,2.05s.01,0,.02,0,.01,0,.02,0c.96,0,1.74,.78,1.74,1.75s-.78,1.75-1.74,1.75c0,0-.01,0-.02,0,0,0-.01,0-.02,0-.96,0-1.74-.78-1.74-1.75s.78-1.75,1.74-1.75Zm3.52,7.01H4.04c0-1.53,1.28-2.74,2.81-2.66l.69,.04,1.56-.08c1.06-.06,1.93,.77,1.93,1.83v.88Zm5.99,0h-3.95v-1.88h3.95v1.88Zm1.02-4.01h-4.98v-1.88h4.98v1.88Zm17.96,4.99v3h-11.37c.19-.44,.32-.9,.37-1.39v-1.61h11Z"/></svg>