<?xml version="1.0" encoding="UTF-8"?><svg id="Layer_1" xmlns="http://www.w3.org/2000/svg" width="36" height="36" viewBox="0 0 36 36"><path d="M15.89,3.48C15.89,1.55,17.46-.02,19.39-.02s3.5,1.57,3.5,3.5-1.57,3.5-3.5,3.5-3.5-1.57-3.5-3.5Zm-5.75,32.52H4l-1-13.02v-2H13l-.87,13.17c-.07,1.04-.94,1.85-1.99,1.85Zm12,0h-6.15l-1-13.02v-4h8c1.1,0,2,.9,2,2l-.86,13.17c-.08,1.04-.95,1.85-1.99,1.85Zm11.99,0h-6.14l-1-13.02v-4h8c1.1,0,2,.9,2,2l-.86,13.16c-.08,1.05-.96,1.86-2.01,1.86h.01ZM2.73,20.93l-1.73-1,4-6.93c.55-.96,1.78-1.28,2.73-.73L2.73,20.93ZM24.98,11.88c0-1.59-1.3-2.88-2.89-2.88h-6.1c-1.41,0-2.6,.64-3.25,1.92l-3.75,8.08h3.18l2.82-5.67v3.67h10l-.02-5.12h.01Z"/></svg>