<?xml version="1.0" encoding="UTF-8"?><svg id="Layer_1" xmlns="http://www.w3.org/2000/svg" width="48" height="48" viewBox="0 0 48 48"><path d="M10.7,39.02c-.83,0-1.5,.67-1.5,1.5s.67,1.5,1.5,1.5,1.5-.67,1.5-1.5-.67-1.5-1.5-1.5Z"/><path d="M21.89,19.05v3.95h9v-4.7c-.12-1.77-1.44-3.35-3.14-3.3h-5.34c-1.26-.04-3.6,1.26-3.6,4.35,0,1.8-1.64,2.31-1.8,2.39-.13,.06-1.24,.45-1.24,.45l.92,2.82s1.07-.36,1.1-.37c1.38-.37,4-1.96,4.01-5.25l.09-.33h0Z"/><path d="M15.07,17.87l-1.4,1.4c-.4-.4-1.05-.4-1.45,0l-4.92,4.92c-.4,.4-.4,1.05,0,1.45h-.02l1.41,1.41,7.76-7.8-1.38-1.38Z"/><path d="M25.39,13c1.93,0,3.5-1.57,3.5-3.5s-1.57-3.5-3.5-3.5-3.5,1.57-3.5,3.5,1.57,3.5,3.5,3.5Z"/><path d="M9.1,37.97c.69-.44,1.57-.62,2.5-.33,.88,.27,1.6,.97,1.91,1.83,.34,.94,.18,1.82-.23,2.53h1.97c.78,0,1.43-.6,1.5-1.38l1.06-12.62H8.82l.28,9.97Z"/><path d="M34.67,39.02c-.83,0-1.5,.67-1.5,1.5s.67,1.5,1.5,1.5,1.5-.67,1.5-1.5-.67-1.5-1.5-1.5Z"/><path d="M41.91,27c0-.55-.46-1-1.02-1h-6.96c-.56,0-1.02,.45-1.02,1v2l.28,8.96c.7-.44,1.58-.62,2.51-.33,.88,.27,1.6,.97,1.91,1.83,.34,.95,.18,1.82-.23,2.54h1.96c.78,0,1.43-.6,1.5-1.38l1.06-11.62h1v-2h-.99Z"/><path d="M22.74,39.02c-.83,0-1.5,.67-1.5,1.5s.67,1.5,1.5,1.5,1.5-.67,1.5-1.5-.67-1.5-1.5-1.5Z"/><path d="M28.89,26h-6.96c-.56,0-1.02,.45-1.02,1v2l.28,8.96c.7-.44,1.58-.62,2.51-.33,.88,.27,1.6,.97,1.91,1.83,.34,.95,.18,1.82-.23,2.54h1.96c.78,0,1.43-.6,1.5-1.38l1.06-11.62h1v-2h-.98c0-.55-.46-1-1.02-1h-.01Z"/></svg>