<?xml version="1.0" encoding="UTF-8"?><svg id="Layer_1" xmlns="http://www.w3.org/2000/svg" width="36" height="36" viewBox="0 0 36 36"><path d="m11.16,11.1c.03.17.06.33.1.49,1.11,5.28,6.77,12.27,6.77,12.27,0,0,5.66-6.98,6.77-12.27.04-.16.07-.32.1-.49,0-.06.02-.12.03-.18.04-.32.08-.64.08-.96,0-3.83-3.13-6.95-6.97-6.95s-6.97,3.12-6.97,6.95c0,.33.03.65.08.96,0,.06.02.12.03.18Zm6.87-4.15c1.66,0,3,1.34,3,2.99s-1.34,2.99-3,2.99-3-1.34-3-2.99,1.34-2.99,3-2.99Zm17.41,12.48l-5.17,12.94c-.15.38-.52.63-.93.63H1.5c-.71,0-1.19-.72-.93-1.37l5.19-12.94c.15-.38.52-.63.93-.63h5.07c2.05,3.73,4.55,6.85,4.71,7.05l.78.96c.4.49,1.15.49,1.55,0l.78-.96c.16-.2,2.66-3.32,4.71-7.05h10.21c.71,0,1.19.71.93,1.37Z"/></svg>