<?xml version="1.0" encoding="UTF-8"?><svg id="Layer_1" xmlns="http://www.w3.org/2000/svg" width="36" height="36" viewBox="0 0 36 36"><path d="M22.94,33h-2.94v-10h2.77c1.14-2.16,3.01-3.81,5.23-4.71V3h-5V0h-2V6h-2V3l-10-.02V0h-2l-.02,6h-1.98V3L0,2.98-.02,31.49c0,2.48,2.02,4.51,4.51,4.51l19.02,.04c.63,0,1.23-.13,1.77-.37-.91-.75-1.71-1.64-2.33-2.68h-.01Zm-13.94-5.99H5v-2h4v2Zm0-7H5v-2h4v2Zm0-7H5v-2h4v2Zm10-2h4v2h-4v-2Zm-7,0h4v2h-4v-2Zm0,7h4v2h-4v-2Zm1.58,11.5l-2.83-2.83,1.42-1.41,1.42,1.41,3.19-3.19,1.41,1.41-4.61,4.61Zm5.42-11.5h4v2h-4v-2Zm16.92,16.85c-1.23,.73-2.65,1.15-4.18,1.15-3.39,0-6.31-2.06-7.57-5h-2.16v-2h1.6c-.06-.4-.1-.82-.1-1.24,0-.26,.02-.51,.04-.76h-1.54v-2h2.07c1.14-3.18,4.18-5.47,7.75-5.47,1.3,0,2.52,.31,3.62,.85l-.83,1.82c-.84-.42-1.79-.67-2.79-.67-2.45,0-4.56,1.42-5.58,3.47h7.1l-.91,2h-6.79c-.03,.25-.05,.5-.05,.76,0,.42,.04,.84,.12,1.24h5.73l-.91,2h-4.11c1.1,1.8,3.07,3,5.32,3,.98,0,1.91-.24,2.74-.64l1.44,1.49h-.01Z"/></svg>