<?xml version="1.0" encoding="UTF-8"?><svg id="Layer_1" xmlns="http://www.w3.org/2000/svg" width="48" height="48" viewBox="0 0 48 48"><path d="M10,31.97h9v9l-9-9Zm21,2v8l3-2.67,3,2.67v-8h-6Zm3-11c-2.76,0-5,2.24-5,5s2.24,5,5,5,5-2.24,5-5-2.24-5-5-5Zm-13,19v-10c0-1.11-.9-2-2-2H9V7.95c0-1.09,.88-1.98,1.98-1.98h22.05c1.11,0,2.02,.9,2.02,2.02l-.03,13.07c-.33-.05-.67-.08-1.02-.08-3.86,0-7,3.14-7,7,0,1.9,.76,3.63,2,4.89v9.13l-8-.02h0Zm8-25.01H15v2h14v-2Zm-14.01-5v2h14.01v-1.95l-14.01-.05Zm8.01,12v-2H15v2h8Z"/></svg>