<?xml version="1.0" encoding="UTF-8"?><svg id="Layer_1" xmlns="http://www.w3.org/2000/svg" width="36" height="36" viewBox="0 0 36 36"><path d="m4,25.98h9v8.99l-9-8.99Zm24-8.99c-2.76,0-5,2.24-5,5s2.24,5,5,5,5-2.24,5-5-2.24-5-5-5Zm-7,5c0,1.9.76,3.62,2,4.89v9.13l-8-.02v-9.99c0-1.11-.9-2-2-2H3V1.97c0-1.09.88-1.97,1.98-1.97h22.05c1.11,0,2.02.9,2.02,2.02l-.03,13.06c-.33-.05-.67-.08-1.02-.08-3.86,0-7,3.14-7,7Zm3-10.02c0-.54-.44-.98-.98-.98h-14.02c-.55,0-1,.45-1,1h0c0,.55.45,1,1,1h14.02c.54,0,.98-.44.98-.98v-.05ZM7.99,7c0,.55.45.99,1,.99h14.03c.54,0,.98-.44.98-.98s-.44-.97-.97-.98l-14.03-.04c-.56,0-1.01.45-1,1.01Zm9.01,9.98c0-.55-.45-1-1-1h-7c-.55,0-1,.45-1,1h0c0,.55.45,1,1,1h7c.55,0,1-.45,1-1Zm8,11.31v7.14c0,.43.51.66.83.37l2.17-1.93,2.17,1.93c.32.29.83.06.83-.37v-7.14c-.91.43-1.92.68-3,.68s-2.09-.25-3-.68Z"/></svg>