<?xml version="1.0" encoding="UTF-8"?><svg id="Layer_1" xmlns="http://www.w3.org/2000/svg" width="36" height="36" viewBox="0 0 36 36"><path d="m34.98,21h-9.94c-.55,0-.99.44-1,.99l-.05,5.94c0,.55.44,1.01.99,1.01l9.98.05c.55,0,1-.45,1-1v-5.99c0-.55-.45-1-1-1Zm-7,6c-1.1,0-2-.9-2-2s.89-2,2-2,2,.9,2,2-.89,2-2,2ZM9.99,4C9.99,1.79,11.78,0,13.99,0s4,1.79,4,4-1.79,4-4,4-4-1.79-4-4Zm7.06,8c0-2.21,1.79-4,4-4s4,1.79,4,4c0,0,0,.01,0,.02h-7.99s0-.01,0-.02Zm4.93,16v-6c0-1.66,1.34-3,3-3h7.94s.04,0,.06,0v-3.01c0-1.1-.9-2-2-2H1.99c-1.1,0-1.99.9-1.99,2v18c0,1.11.9,2,2,2h28.98c1.1,0,2-.9,2-2.01v-2.99h-7.99c-1.66,0-3-1.34-3-3Zm-8.99-6c.55,0,1,.45,1,1s-.45,1-1,1h-3.6c-.05.32-.08.66-.08,1s.03.68.08,1h3.6c.55,0,1,.45,1,1s-.45,1-1,1h-2.9c.69,1.21,1.78,2,3.02,2,.79,0,1.55-.32,2.19-.93.4-.38,1.04-.36,1.41.04.38.4.36,1.04-.04,1.41-1.02.96-2.26,1.47-3.56,1.47-2.31,0-4.3-1.64-5.23-4h-.89c-.55,0-1-.45-1-1s.45-1,1-1h.38c-.04-.33-.07-.66-.07-1s.03-.67.07-1h-.38c-.55,0-1-.45-1-1s.45-1,1-1h.89c.93-2.36,2.92-4,5.23-4,1.31,0,2.54.51,3.56,1.47.4.38.42,1.01.04,1.41-.38.4-1.01.42-1.41.04-.65-.61-1.41-.93-2.19-.93-1.24,0-2.33.79-3.02,2h2.9ZM36,4h0c0,.55-.45,1-1,1h-2v2c0,.55-.45,1-1,1h0c-.55,0-1-.45-1-1v-2h-2c-.55,0-1-.45-1-1h0c0-.55.45-1,1-1h2V1C31,.45,31.45,0,32,0h0C32.55,0,33,.45,33,1v2h2c.55,0,1,.45,1,1Z"/></svg>