<?xml version="1.0" encoding="UTF-8"?><svg id="Layer_1" xmlns="http://www.w3.org/2000/svg" width="36" height="36" viewBox="0 0 36 36"><path d="M33.7,1.17c-4.74,2.45-8.1,2.77-11.66,3.12-3.37,.33-6.86,.66-11.55,2.75-3.82,1.7-6.61,4.69-7.84,8.41-1.38,4.15-.74,8.78,1.85,13.38l.05,.08c-1.56,2.07-3.08,4.41-4.55,7.09H3.45c1.15-1.97,2.33-3.74,3.54-5.34,2.84,1.64,5.85,2.36,8.75,2.36,4.05,0,7.85-1.39,10.59-3.57,7.56-6.04,9.56-20.27,9.56-26.96V.04l-2.19,1.13Zm-11.76,6.14c.13-.01,.26-.03,.38-.04,2.29-.22,4.63-.45,7.33-1.24-2.44,2.65-5.03,4.82-7.72,6.91V7.31Zm-9,1.96c2.24-.88,4.17-1.33,6-1.6v7.57c-1.99,1.52-4,3.06-6,4.78V9.27ZM6.6,26.35c-1.72-3.5-2.11-6.93-1.11-9.96,.76-2.3,2.32-4.25,4.44-5.63v12.02c-1.12,1.1-2.24,2.28-3.34,3.57Zm17.85,.77c-3.77,3.01-10.02,4.15-15.56,1.19,.99-1.16,2-2.24,3.02-3.24h14.59c-.62,.77-1.3,1.46-2.05,2.06Zm3.97-4.99c-.14-.04-.28-.07-.42-.07H15.18c1.67-1.42,3.35-2.73,5.01-4,.08,.01,.16,.03,.25,.03h9.77c-.5,1.41-1.1,2.77-1.79,4.04Zm2.71-7.04h-7.07c2.9-2.27,5.8-4.74,8.52-7.82-.26,2.34-.72,5.08-1.45,7.82Z"/></svg>