<?xml version="1.0" encoding="UTF-8"?><svg id="Layer_1" xmlns="http://www.w3.org/2000/svg" width="36" height="36" viewBox="0 0 36 36"><path d="m24.02,36h8.01c.55,0,1-.45,1-1v-9c0-.55-.45-1-1-1h-8.01c-.55,0-1,.45-1,1v9c0,.55.45,1,1,1ZM13.01,11h14.01v4c0,.55.45,1,1,1h0c.55,0,1,.45,1,1s-.45,1-1,1c-.38,0-.72-.22-.89-.54s-.5-.46-.84-.46h0c-.74,0-1.26.78-.91,1.43.59,1.09,1.83,1.77,3.2,1.52,1.18-.21,2.15-1.17,2.38-2.35.3-1.56-.61-2.94-1.94-3.42v-3.18h5.97c.74,0,1.23-.78.9-1.45l-2-2c-.17-.34-.52-.55-.9-.55h-5.97L12.19.07c-.12-.05-.24-.07-.37-.07h-3.48c-.22,0-.43.07-.6.2L.4,6.7c-.25.19-.4.49-.4.8v2.5c0,.55.45,1,1,1h6.01v23H1c-.55,0-1,.45-1,1h0c0,.55.45,1,1,1h18.02c.55,0,1-.45,1-1h0c0-.55-.45-1-1-1h-6.01V11Zm8.88-4h-8.97l-.46-4.69,9.43,4.69ZM9.78,2h.47l.5,5h-1.47l.5-5Zm-2.3.85l-.39,4.15h-3.87L7.47,2.85Zm3.54,28.37v2.77h-2v-6.59l2,2v1.81Zm0-8.64v4l-2-2v-6l2,2v2Zm0-10.56v5.73l-2-2v-4.76h2v1.03Z"/></svg>