<?xml version="1.0" encoding="UTF-8"?><svg id="Layer_1" xmlns="http://www.w3.org/2000/svg" width="36" height="36" viewBox="0 0 36 36"><path d="M29,16.18v-4.18h7l-3-6h-6L12,0h-4L0,6v6H7v22H0v2H20v-2h-7V12h14v6h1c.55,0,1,.45,1,1s-.45,1-1,1-1-.45-1-1h-2c0,1.65,1.35,3,3,3s3-1.35,3-3c0-1.3-.84-2.4-2-2.82Zm-7.29-10.18H12.75l-.46-3.69,9.42,3.69ZM9.77,2h.47l.5,4h-1.47l.5-4Zm-2.12,.85l-.39,3.15H3.4L7.66,2.85h0Zm1.36,26.37v-2.9l2,2v2.9l-2-2Zm0-8.64l2,2v2.9l-2-2v-2.9Zm2-.83l-2-2v-2.9l2,2v2.9Zm-2,12.29l1.95,1.95h-1.95v-1.95Zm2-18.02l-2-2v-.03h2v2.03Zm-4-4.03H2v-2H31.8l1,2H7.01Z"/><path d="M33.32,27.74v-2.98h-2.67v1.12l-2.65-1.87-8,5.7,1.58,2.09,1.07-.77v4.98h10.66v-5.04l1.07,.77,1.61-2.11-2.68-1.87v-.02Zm-3.55,4.8h-3.55v-2.6h3.55v2.6Z"/></svg>