<?xml version="1.0" encoding="UTF-8"?><svg id="Layer_1" xmlns="http://www.w3.org/2000/svg" width="36" height="36" viewBox="0 0 36 36"><path d="m28.51,17.99c-3.86,0-6.99,3.14-6.99,7s3.13,7,6.99,7,6.99-3.14,6.99-7-3.13-7-6.99-7Zm-.72,3.28c.18-.19.43-.28.72-.28s.54.09.72.28c.18.19.28.43.28.72s-.09.53-.28.72c-.18.19-.43.28-.72.28s-.54-.09-.72-.28c-.18-.19-.28-.43-.28-.72s.09-.53.28-.72Zm.73,7.76h0c-.55,0-1-.45-1-1v-3c0-.55.45-1,1-1h0c.55,0,1,.45,1,1v3c0,.55-.45,1-1,1Zm-8.95-3.26c.08.95.31,1.87.67,2.71l-1.59,2.58c-.55.9-1.73,1.18-2.62.63L1.42,22.7c-.9-.56-1.18-1.74-.63-2.64L10.73,4.02h-2.31l-4.83,7.7h-1.59c-.83,0-1.5-.68-1.5-1.51V3.51c.01-.83.68-1.51,1.51-1.51h30.99c.83,0,1.5.66,1.5,1.49v6.7c-.01.83-.68,1.52-1.51,1.52h-2.4l-2.66,4.3c-.95.06-1.85.26-2.7.6l4.88-7.88-7.66-4.64h-9.42s-3.58,5.85-3.58,5.85l1.71,1.05c.47.29.61.9.33,1.37h0c-.29.47-.9.62-1.37.33l-1.72-1.05-5.87,9.4,14.45,8.91,2.58-4.17Zm-1.56-6.9c.47.29.62.9.33,1.37l-3.13,5.14c-.29.47-.9.62-1.36.33l-.04-.02c-.47-.29-.62-.9-.33-1.37l3.13-5.14c.29-.47.9-.62,1.36-.33l.04.02Zm-.42-4.16l-.19.31c-.3.47-.91.61-1.38.31-.47-.3-.6-.91-.31-1.38l.2-.31c-.12-.12-.24-.22-.35-.35-.78-.96-1.13-2.14-.99-3.32.14-1.12.71-2.11,1.6-2.79.44-.33,1.07-.24,1.4.2.33.44.24,1.07-.2,1.4-.46.35-.75.86-.82,1.43-.07.59.1,1.18.46,1.68l1.37-2.17c.3-.47.91-.61,1.38-.31s.6.91.31,1.38l-1.37,2.17c.65.12,1.33,0,1.87-.41.41-.31.69-.76.79-1.26.11-.54.64-.89,1.18-.78.54.11.89.64.78,1.18-.1.49-.29.95-.55,1.36-.26.42-.6.78-1,1.08-1.21.91-2.79,1.07-4.18.56Z"/></svg>