<?xml version="1.0" encoding="UTF-8"?><svg id="Layer_1" xmlns="http://www.w3.org/2000/svg" width="36" height="36" viewBox="0 0 36 36"><path d="M35,27c0,3.87-3.13,7-7,7s-7-3.13-7-7,3.13-7,7-7,7,3.13,7,7Zm-6-1h-2v5h2v-5Zm0-2.04c0-.29-.09-.53-.28-.72-.19-.19-.43-.28-.72-.28s-.54,.09-.72,.28c-.19,.19-.28,.43-.28,.72s.09,.53,.28,.72c.19,.19,.43,.28,.72,.28s.54-.09,.72-.28c.19-.19,.28-.43,.28-.72Zm-10.99,3.07c0-4.05,2.41-7.52,5.86-9.1l2.45-3.98-8.11-4.95h-6.44l-3.79,6.05,2.61,1.44-1.56,2.56-2.61-1.44L1.01,26.98l13,7,4.02-6.54c0-.13-.02-.27-.02-.4h0Zm-5.77,4.14l-2.56-1.56,4.17-6.83,2.56,1.56-4.17,6.83Zm4.75-12.38l-.7,1.14-1.06-.64,.56-.92c-.12-.05-.29-.14-.45-.24-.19-.12-.3-.2-.42-.29l-.56,.92-1.04-.64,.69-1.13c-1.33-1.6-1.3-3.72-.32-5.33,.51-.84,1.1-1.4,1.8-1.71l.78,1.23c-.53,.22-.98,.66-1.33,1.24-.56,.92-.67,2.06-.01,3.07l2.01-3.3,.74,1.14-1.87,3.07c.27,.21,.56,.38,.87,.53l1.65-2.71,.76,1.14-1.18,1.93h.23c1.04,0,1.89-.57,2.42-1.44,.41-.67,.58-1.38,.44-2.02l1.44-.04c.14,.86-.03,1.88-.61,2.84-.83,1.36-2.26,2.26-3.88,2.26-.31,0-.63-.03-.96-.1Zm-14.46-2.8h1.46l1.48-2.43,.35-.57h-1.82V7H32v6h-1.58l-1.53,2.51-.3,.49h4.88c.84,0,1.53-.68,1.53-1.53V5.53c0-.84-.68-1.53-1.53-1.53H2.53c-.84,0-1.53,.68-1.53,1.53V14.48c0,.84,.68,1.53,1.53,1.53h0Z"/></svg>