<?xml version="1.0" encoding="UTF-8"?><svg id="Layer_1" xmlns="http://www.w3.org/2000/svg" width="36" height="36" viewBox="0 0 36 36"><path d="M4,27.01v-7h4.96v-3c-.2-1.73-1.37-3.16-2.96-3.72V3.01H3V13.29C1.41,13.86,.24,15.28,.05,17.01l-.05,19H9l-.02-9H4Z"/><path d="M33.01,13.96c0-5.5-4.46-9.97-9.97-9.97V1.47C23.04,.66,22.37,0,21.53,0h-2.97c-.86,0-1.54,.66-1.54,1.49V3.99c-3.98,0-7.4,2.33-9.02,5.69v2.37c1.63,1.04,2.71,2.75,2.94,4.74v.22s.04,13.01,.04,13.01h22.02V13.96h.01Zm-19.01,.05c-1.1,0-2-.9-2-2s.9-2,2-2,2,.9,2,2-.9,2-2,2ZM19.02,1.99h1.98V3.99h-1.98V1.99Zm.98,12.02c-1.1,0-2-.9-2-2s.9-2,2-2,2,.9,2,2-.9,2-2,2Zm6,0c-1.1,0-2-.9-2-2s.9-2,2-2,2,.9,2,2-.9,2-2,2Z"/><rect x="11" y="32.01" width="25.01" height="2" transform="translate(-.09 .06) rotate(-.15)"/></svg>