<?xml version="1.0" encoding="UTF-8"?><svg id="Layer_1" xmlns="http://www.w3.org/2000/svg" width="36" height="36" viewBox="0 0 36 36"><path d="m24.5,4v-1c0-.55-.45-1-1-1h-3c0-1.11-.9-2-2-2H4.46c-1.08,0-1.96.88-1.96,1.96v.04h-1c-.55,0-1,.45-1,1v1c0,.55.45,1,1,1h22c.55,0,1-.45,1-1Z"/><path d="m31.48,3.98c-.01-.54-.45-.98-.99-.98h-1.98c-.55-.01-1,.44-1,.99v1.02l4-.03-.02-1Z"/><circle cx="5.5" cy="31.02" r="3"/><path d="m28.5,21.99v12.03h3.99c1.66,0,3-1.34,3-3v-6.13c0-.61-.24-1.2-.7-1.69-.17-.18-.16-.47.01-.64.45-.45.7-1.04.7-1.68s-.25-1.23-.7-1.67c-.09-.09-.14-.2-.14-.33s.05-.24.14-.32c.45-.45.7-1.04.7-1.68s-.25-1.23-.7-1.67c-.09-.09-.14-.2-.14-.33s.05-.24.14-.32c.39-.39.63-.89.68-1.44.03-.17.02-.34-.03-.5,0-.02-.01-.04-.02-.06-.06-.48-.27-.93-.58-1.28-1.45-1.88-3.34-4.28-3.34-4.28h-4s-1.89,2.53-3.33,4.27c-.32.35-.53.8-.6,1.28-.05.13-.08.27-.08.42.02.61.27,1.17.69,1.59.09.09.14.2.14.33s-.05.24-.14.32c-.45.45-.7,1.04-.7,1.68,0,.41.11.8.31,1.15h1.61c.72.01,1.38.4,1.73,1.02l1.1,1.94c.17.3.26.64.26.98Z"/><path d="m17.6,18.01h1.51s1.38-11.01,1.38-11.01H2.5v20.01s.05-.02.07-.03c.83-.6,1.84-.97,2.94-.97,2.76,0,5,2.24,5,5,0,1.13-.39,2.16-1.02,3h5.03s0-.05,0-.07v-12.11c0-.36.1-.72.28-1.03l1.1-1.83c.36-.6,1.01-.97,1.72-.97h0Z"/><polygon points="17.6 20.01 16.5 21.84 16.5 33.95 17.6 35.97 25.4 36 26.5 33.88 26.5 21.99 25.4 20.05 17.6 20.01"/></svg>