<?xml version="1.0" encoding="UTF-8"?><svg id="Layer_1" xmlns="http://www.w3.org/2000/svg" width="36" height="36" viewBox="0 0 36 36"><path d="M12,17.98v.03h3c1.66,0,3.08,.76,3.99,2.15,.7,1.06,1.07,2.43,1.07,3.97v.06l-.06,1.88-.06,1.94h-2.93v3h16.01V14.01c0-5.67-4.54-9.97-10.04-9.97l.08-2.52c0-.83-.67-1.5-1.51-1.5h-2.97c-.86,0-1.54,.68-1.54,1.53l-.03,1.46v1c-5.53,0-10,4.31-10,10v3.97h4.99ZM19,2.01h2v2h-2V2.01Zm-3.98,7h9.99l1,5H14.02s1-5,1-5Zm20.99,24v2H17.03v-2h18.98ZM4.01,20.01h2.17c.41,1.12,1.51,1.93,2.81,1.93s2.4-.81,2.81-1.93h3.18c2.11,0,3.05,1.84,3.05,3.87l-.05,1.77h-3l.04,10.35H3v-10.35H0v-1.79c0-2.02,1.91-3.86,4.01-3.86"/></svg>