<?xml version="1.0" encoding="UTF-8"?><svg id="Layer_1" xmlns="http://www.w3.org/2000/svg" width="36" height="36" viewBox="0 0 36 36"><path d="M32.44,10.55c-2.33,1.2-3.98,1.36-5.73,1.53-1.58,.15-3.37,.33-5.67,1.35-1.88,.84-3.24,2.3-3.84,4.12-.44,1.33-.67,3.48,.73,6.19l.09,.17-2.02,3.18h2.62l1.16-1.83,.08,.04c1.19,.58,2.45,.87,3.75,.87,1.91,0,3.81-.64,5.2-1.75,3.71-2.96,4.69-9.94,4.69-13.22v-1.2l-1.06,.55Z"/><path d="M20.59,27.63l-.28,.44-.59,.93h-7.36l1.95-3.07,1.42-2.24c-1.24-2.93-.94-5.31-.43-6.85,.78-2.36,2.53-4.25,4.93-5.32,2.11-.94,3.85-1.24,5.31-1.41l.46-4.1h2v-2H1c-.55,0-1,.45-1,1s.45,1,1,1H5l1.5,22.25c.48-.15,.97-.25,1.5-.25,2.76,0,5,2.24,5,5,0,1.13-.39,2.16-1.02,3h8.02c1.47,0,2.79-1.54,3-3l.55-4.93c-1.01,0-2-.15-2.96-.44Z"/><path d="M26.02,1.98H5.02c0-1.09,1.35-1.98,3-1.98h15c1.65,0,3,.89,3,1.98ZM8,30c-1.66,0-3,1.34-3,3s1.34,3,3,3,3-1.34,3-3-1.34-3-3-3Z"/></svg>