<?xml version="1.0" encoding="UTF-8"?><svg id="Layer_1" xmlns="http://www.w3.org/2000/svg" width="36" height="36" viewBox="0 0 36 36"><g><polygon points="16.38 32.01 17.21 34.01 36.23 34.01 36.23 32.01 16.38 32.01"/><path d="M11.73,16.03c.74,0,1.23,.77,.91,1.44l-1.04,2.19c1,.54,1.87,1.21,1.87,1.21l.16,.13,.13,.16,2.04,2.63,.42,.54v5.68h17.01V13.97c0-5.51-4.47-9.97-9.97-9.97V1.48c0-.81-.67-1.46-1.51-1.46h-2.97c-.85,0-1.54,.66-1.54,1.49V4c-5.53,0-10.01,4.48-10.01,10.01v2.02h4.5ZM19.25,1.99h1.98V3.99h-1.98V1.99Zm-4.02,7h10l1,5H14.23l1-5Z"/></g><path d="M9.94,18l-1.39,2.94h.73c.52,0,2.28,1.09,2.68,1.43l2.04,2.63v7l1.65,4H0l1-2,.09-6.95c.34-2.8,2.24-5.17,4.91-6.11h.68l-1.68-2.94h4.94"/></svg>