<?xml version="1.0" encoding="UTF-8"?><svg id="Layer_1" xmlns="http://www.w3.org/2000/svg" width="36" height="36" viewBox="0 0 36 36"><path d="M23.72,1s-.79,1.48-1.02,1.9c-.11,.2-.17,.35-.2,.46-.03,.11-.02,.15,0,.19,.01,.02,.03,.03,.05,.05,.04,.03,.12,.03,.13,.02h0l.47-.05c.21-.03,.43,0,.62,.1,.27,.14,.44,.4,.5,.69,.07,.29,.02,.61-.13,.91-.16,.3-.41,.51-.68,.62-.27,.11-.58,.1-.85-.04-.19-.1-.33-.26-.42-.45l-.23-.43h0s0-.02-.02-.04c-.02-.02-.04-.05-.07-.06-.02,0-.04-.02-.07-.02-.04,0-.09,.02-.16,.1-.07,.08-.16,.22-.27,.42l-1.05,1.95,1.87,1c.21,.11,.36,.21,.47,.3,.11,.1,.18,.21,.18,.34,0,.07-.01,.14-.04,.19-.07,.13-.19,.19-.2,.2l-.43,.23h0c-.14,.07-.26,.18-.34,.32-.11,.2-.11,.43-.03,.65,.08,.22,.26,.42,.5,.55,.25,.13,.51,.16,.74,.11,.23-.05,.42-.18,.52-.38,.07-.14,.1-.29,.08-.45h0v-.02h0l-.05-.48s-.02-.14,.05-.27c.03-.05,.07-.1,.13-.14,.11-.07,.24-.07,.38-.04,.14,.04,.3,.11,.51,.22l1.87,1,1-1.87c.22-.41,.28-.63,.19-.77-.09-.15-.3-.13-.3-.13l-.49,.05h0c-.18,.03-.37,0-.54-.09-.47-.25-.61-.89-.32-1.43,.29-.54,.9-.78,1.36-.53,.17,.09,.3,.23,.37,.4h0l.23,.43s.1,.18,.27,.18c.17,0,.32-.17,.54-.59,.22-.41,1.12-1.94,1.12-1.94l-6.28-3.36h0Z"/><path d="M27.68,10.65l-.25,.46-.47,.88-.88-.47-1.44-.77c-.03,.19-.09,.37-.18,.54-.24,.45-.66,.76-1.18,.88-.14,.03-.29,.05-.44,.05-.34,0-.69-.09-1-.26-.44-.24-.78-.62-.96-1.08-.19-.5-.16-1.02,.08-1.47,.09-.17,.21-.33,.35-.46l-1.44-.77-.88-.47,.47-.88,1.02-1.91c-.98-.27-2.01-.42-3.07-.42-6.44,0-11.66,5.22-11.66,11.66,0,.03,0,.05,0,.08l-2.28,5.09c-.29,.64,0,1.4,.64,1.69l2.2,.98v3.42c0,1.12,.92,2.04,2.04,2.04h4.02v4.98c0,.85,2.85,1.53,6.38,1.53s6.38-.69,6.38-1.53v-9.56c2.41-2.14,3.94-5.25,3.94-8.73,0-2-.5-3.88-1.39-5.53Zm-17.86,5.39c-.71,0-1.28-.57-1.28-1.28s.57-1.28,1.28-1.28,1.28,.57,1.28,1.28-.57,1.28-1.28,1.28Zm15.29,1.94c-.05,.27-.19,.5-.37,.64-.18,.15-.4,.21-.62,.17-.16-.03-.3-.11-.41-.22h0l-.35-.35s-.09-.1-.25-.13c-.06-.01-.13,0-.19,.02-.12,.04-.21,.14-.26,.27-.06,.13-.1,.31-.15,.54l-.38,2.09-2.18-.4c-.23-.04-.38-.08-.48-.13-.1-.05-.13-.08-.15-.13,0-.02,0-.04,0-.07,0-.03,.02-.06,.04-.09,0-.01,.02-.02,.02-.02h0l.34-.35c.15-.14,.26-.33,.3-.54,.05-.3-.04-.59-.22-.82-.18-.23-.46-.4-.79-.46-.33-.06-.65,0-.9,.15-.26,.15-.45,.39-.5,.69-.04,.22,0,.43,.09,.62l.19,.44h0s.03,.08,.02,.13c0,.02-.01,.04-.03,.06-.03,.03-.07,.06-.18,.07-.11,0-.27-.01-.5-.05-.46-.08-2.12-.39-2.12-.39l1.29-7s1.73,.39,2.19,.48c.46,.08,.66,.17,.72,.33,.06,.17-.09,.31-.09,.31l-.35,.35h0c-.14,.12-.23,.29-.27,.48-.1,.52,.31,1.03,.92,1.14,.6,.11,1.17-.22,1.26-.74,.03-.19,0-.37-.08-.54h0l-.2-.45s-.08-.19,.03-.32c.11-.13,.33-.14,.79-.05l2.09,.38-.38,2.09c-.04,.24-.06,.41-.05,.56,0,.14,.05,.27,.15,.35,.05,.05,.12,.07,.18,.08,.15,.03,.27-.03,.28-.03l.44-.19h.01c.14-.08,.3-.1,.45-.07,.22,.04,.4,.18,.52,.38,.12,.2,.17,.46,.12,.74Z"/></svg>