<?xml version="1.0" encoding="UTF-8"?><svg id="Layer_1" xmlns="http://www.w3.org/2000/svg" width="36" height="36" viewBox="0 0 36 36"><path d="M10.42,17.19c.29,1.16,.74,2.26,1.32,3.28l1.65-.25,.67-.1,.65,.2,6.14,1.85c3.06,.87,4.47,2.94,5,4.54,2.01-.45,3.86-1.36,5.4-2.62l-.06-.02c2.92-2.37,4.8-5.98,4.8-10.04,0-7.15-5.8-12.96-12.96-12.96S10.07,6.87,10.07,14.03c0,1.1,.15,2.16,.41,3.18l-.05-.02ZM22.28,4.26l-.29,.07c-1.04,.57-1.1,2.16-.65,3.25,.08,.19,.42,.39,.64,.38,1.51-.06,3.02-.13,4.52-.28,.7-.07,1.25,.08,1.7,.62,.27,.32,.5,.7,.82,.97,1.01,.85,1.02,1.81,.59,3.02-.64,1.81-.94,2.13-2.78,2.14-1.42,0-2.34,1.26-1.99,2.73,.2,.84,.08,1.58-.48,2.24-.38,.45-.76,.91-1.1,1.39-.07,.1-.14,.16-.2,.22l-1.26-.42c-.33-.3-.68-.58-1.02-.86-.6-.49-.99-1.12-.89-1.93,.23-1.81-.35-3.37-1.22-4.87-.11-.2-.2-.41-.29-.62-.2-.47-.08-.77,.43-.88,.58-.13,1.34-.98,1.27-1.52-.11-.8-.8-.51-1.26-.63-.32-.08-.69,0-.97-.15-.45-.23-1.4-1-1.99-1.55-.02,.02-.03,.04-.05,.06h-.23c1.64-1.94,4.03-3.22,6.72-3.4ZM13.84,23.19l6.16,1.86c2.88,.81,3.1,3.03,3.1,3.03h-3.18l-3.94-1.01-.78,2.24,4.76,1.21,10-.93c4.1,0,4.1,2.4,4.1,2.4l-14.1,3.08-11.96-3v-8l5.84-.88m-8.84,9.89H0v-10H5v10Z"/></svg>