<?xml version="1.0" encoding="UTF-8"?><svg id="Layer_1" xmlns="http://www.w3.org/2000/svg" width="36" height="36" viewBox="0 0 36 36"><path d="m25,7.75v.5c0,.41-.39.75-.88.75h-1.35c.14-.55.23-1.11.23-1.64v-.36h1.12c.48,0,.88.34.88.75Zm3,11.25h-11.25s-3.88,3.82-3.88,3.82c-.1.09-.22.14-.35.14-.06,0-.13-.01-.19-.04-.19-.08-.31-.26-.31-.46l-.03-3.47h-4c-1.1,0-2-.89-2-2V2c0-1.1.89-2,2-2h20c1.11,0,2,.9,2,2v15c0,1.1-.89,2-2,2Zm-1-11.25c0-1.52-1.29-2.75-2.88-2.75h-1.12c0-.55-.45-1-1-1h-10c-.55,0-1,.45-1,1v2.36c0,2.04,1.12,4.36,2.78,5.64h-2.78c-.55,0-1,.45-1,1s.45,1,1,1h12c.55,0,1-.45,1-1s-.45-1-1-1h-2.78c.68-.53,1.26-1.23,1.72-2.01.02,0,.04.01.06.01h2.12c1.58,0,2.88-1.23,2.88-2.75v-.5Zm6.04,23.29h-7.08c-1.65,0-2.96,1.25-2.96,2.8v1.16c0,.55.45,1,1,1h11c.55,0,1-.45,1-1v-1.44c-.15-1.41-1.41-2.52-2.96-2.52Zm-7.04-5.54c0,1.94,1.57,3.51,3.51,3.51s3.51-1.57,3.51-3.51-1.57-3.51-3.51-3.51-3.51,1.57-3.51,3.51Zm-15.96,5.54H2.96c-1.65,0-2.96,1.25-2.96,2.8v1.16c0,.55.45,1,1,1h11c.55,0,1-.45,1-1v-1.44c-.15-1.41-1.41-2.52-2.96-2.52Zm-3.54-2.03c1.94,0,3.51-1.57,3.51-3.51s-1.57-3.51-3.51-3.51-3.51,1.57-3.51,3.51,1.57,3.51,3.51,3.51Z"/></svg>