<?xml version="1.0" encoding="UTF-8"?><svg id="Layer_1" xmlns="http://www.w3.org/2000/svg" width="36" height="36" viewBox="0 0 36 36"><circle cx="30.5" cy="25.5" r="3.5"/><circle cx="7.5" cy="21.5" r="3.5"/><path d="M9.04,26H2.95c-1.65,0-2.95,1.25-2.95,2.8v7.2H12v-7.48c-.15-1.41-1.41-2.52-2.96-2.52Z"/><path d="M33.04,31h-6.08c-1.65,0-2.95,1.25-2.95,2.8v2.2h12v-2.48c-.15-1.41-1.41-2.52-2.96-2.52Z"/><g><circle cx="27.22" cy="8.5" r=".5"/><path d="M31.84,3H13.18c-1.2,0-2.18,.95-2.18,2.12V14.69c0,1.17,.98,2.12,2.18,2.12l7.82,.19,4,4v-4l6.82-.19c1.2,0,2.18-.95,2.18-2.12V5.09c0-1.16-.97-2.09-2.16-2.09Zm-4.62,6.75c-.32,0-.6-.13-.83-.33-.37,1.06-.93,1.95-1.6,2.58h1.65v1h-8v-1h1.65c-1.15-1.07-1.95-2.89-2.1-5h8.9c0,.11-.02,.22-.03,.32,.12-.04,.23-.07,.36-.07,.69,0,1.25,.56,1.25,1.25s-.56,1.25-1.25,1.25Z"/></g></svg>