<?xml version="1.0" encoding="UTF-8"?><svg id="Layer_1" xmlns="http://www.w3.org/2000/svg" width="48" height="48" viewBox="0 0 48 48"><path d="M42,20.99h-2.91v.34c0,.97-.1,1.92-.26,2.85l2.84,.76c.53,.14,.85,.69,.71,1.22-.12,.45-.52,.74-.96,.74-.09,0-.17-.01-.26-.03l-2.77-.74c-.25,.83-.57,1.63-.94,2.4l2.43,1.4c.48,.28,.64,.89,.37,1.37-.18,.32-.52,.5-.87,.5-.17,0-.34-.04-.5-.13l-2.4-1.38c-.47,.74-1.01,1.44-1.59,2.1l2.07,2.07c.39,.39,.39,1.02,0,1.41-.2,.2-.45,.29-.71,.29s-.51-.1-.71-.29l-2.06-2.06c-.67,.6-1.39,1.14-2.15,1.62l1.4,2.43c.28,.48,.11,1.09-.37,1.37-.16,.09-.33,.13-.5,.13-.35,0-.68-.18-.87-.5l-1.42-2.46c-.77,.37-1.57,.68-2.39,.93l.75,2.81c.14,.53-.17,1.08-.71,1.22-.09,.02-.17,.03-.26,.03-.44,0-.85-.3-.96-.74l-.77-2.88c-.91,.15-1.84,.25-2.79,.25h-.43v3c0,.55-.45,1-1,1s-1-.45-1-1v-3h-3v2.97c0,.55-.45,1-1,1s-1-.45-1-1v-3.1c-.37-.09-.71-.24-1.03-.42l-2.69,2.69c-.2,.2-.45,.29-.71,.29s-.51-.1-.71-.29c-.39-.39-.39-1.02,0-1.41l2.68-2.68c-.2-.33-.35-.69-.45-1.07h-3.13c-.55,0-1-.45-1-1s.45-1,1-1h3.15c.1-.37,.24-.71,.44-1.03l-2.65-2.65c-.39-.39-.39-1.02,0-1.41s1.02-.39,1.41,0l2.66,2.66c.31-.18,.65-.32,1.01-.41v-3.11c0-.55,.45-1,1-1s1,.45,1,1v2.98h3v-3c0-.55,.45-1,1-1s1,.45,1,1v3h.43c2.03,0,3.89-.71,5.37-1.88l-2.48-2.48c-.39-.39-.39-1.02,0-1.41s1.02-.39,1.41,0l2.47,2.47c1.17-1.47,1.87-3.33,1.87-5.36v-.37h-3.09c-.55,0-1-.45-1-1s.45-1,1-1h3.07l-.02-3h-3.03c-.55,0-1-.45-1-1s.45-1,1-1h3.17c.09-.36,.24-.69,.42-1.01l-2.71-2.71c-.39-.39-.39-1.02,0-1.41s1.02-.39,1.41,0l2.71,2.71c.31-.18,.64-.32,.99-.42v-3.15c0-.55,.45-1,1-1s1,.45,1,1v3.14c.35,.09,.68,.23,.99,.4l2.74-2.74c.39-.39,1.02-.39,1.41,0s.39,1.02,0,1.41l-2.71,2.71c.2,.32,.35,.67,.45,1.05h3.07c.55,0,1,.45,1,1s-.45,1-1,1h-2.92l.02,3h2.93c.55,0,1,.45,1,1s-.45,1-1,1Zm-28.02-.96c-3.87,0-7-3.13-7-7s3.13-7,7-7,7,3.13,7,7-3.13,7-7,7m-1.01-6.02h2v-5h-2v5Zm0,2.02c0,.29,.09,.53,.28,.72,.19,.19,.43,.28,.72,.28s.54-.09,.72-.28c.19-.19,.28-.43,.28-.72s-.09-.53-.28-.72c-.19-.19-.43-.28-.72-.28s-.54,.09-.72,.28c-.19,.19-.28,.43-.28,.72Z"/></svg>