<?xml version="1.0" encoding="UTF-8"?><svg id="Layer_1" xmlns="http://www.w3.org/2000/svg" width="36" height="36" viewBox="0 0 36 36"><path d="m7.01,14.01c-3.87,0-7.01-3.14-7.01-7S3.14,0,7.01,0s7.01,3.14,7.01,7-3.14,7-7.01,7m0-6.03h0c.55,0,1-.45,1-1v-3c0-.55-.45-1-1-1h0c-.55,0-1,.45-1,1v3c0,.55.45,1,1,1Zm-1,2.03c0,.29.09.53.28.72.19.19.43.28.72.28s.54-.09.72-.28c.19-.19.28-.43.28-.72s-.09-.53-.28-.72c-.19-.19-.43-.28-.72-.28s-.54.09-.72.28c-.19.19-.28.43-.28.72Zm28.99,4.98h-2.95v.34c0,.97-.1,1.92-.26,2.85l2.84.76c.53.14.85.69.71,1.22-.12.45-.52.74-.97.74-.09,0-.17-.01-.26-.03l-2.77-.74c-.25.83-.57,1.63-.94,2.4l2.43,1.4c.48.28.64.89.37,1.37-.18.32-.52.5-.87.5-.17,0-.34-.04-.5-.13l-2.4-1.38c-.47.74-1.01,1.44-1.59,2.1l2.07,2.06c.39.39.39,1.02,0,1.41-.2.2-.45.29-.71.29s-.51-.1-.71-.29l-2.07-2.06c-.67.6-1.39,1.14-2.15,1.62l1.4,2.43c.28.48.11,1.09-.37,1.37-.16.09-.33.13-.5.13-.35,0-.68-.18-.87-.5l-1.42-2.46c-.77.37-1.57.68-2.4.93l.75,2.81c.14.53-.17,1.08-.71,1.22-.09.02-.17.03-.26.03-.44,0-.85-.3-.97-.74l-.77-2.88c-.91.15-1.84.25-2.79.25h-.37v3c0,.55-.45,1-1,1s-1-.45-1-1v-3h-3.01v3c0,.55-.45,1-1,1s-1-.45-1-1v-3.1c-.37-.09-.71-.24-1.03-.42l-2.7,2.69c-.2.2-.45.29-.71.29s-.51-.1-.71-.29c-.39-.39-.39-1.02,0-1.41l2.69-2.69c-.2-.33-.35-.69-.45-1.07H1.97c-.55,0-1-.45-1-1s.45-1,1-1h3.15c.1-.37.24-.72.44-1.04l-2.65-2.68c-.39-.4-.39-1.04,0-1.43s1.03-.4,1.42,0l2.67,2.7c.31-.18.65-.32,1.01-.42v-3.15c0-.56.45-1.01,1-1.01s1,.45,1,1.01v3.01h3.01v-3.01c0-.55.45-1,1-1s1,.45,1,1v3.01h.43c2.01,0,3.86-.71,5.32-1.88l-2.46-2.48c-.39-.39-.39-1.02,0-1.41s1.02-.39,1.4,0l2.46,2.48c1.16-1.48,1.86-3.34,1.86-5.36v-.35h-3.09c-.55,0-1-.45-1-1s.45-1,1-1h3.09l-.02-3h-2.99c-.55,0-1-.45-1-1s.45-1,1-1h3.18c.1-.36.24-.69.42-1.01l-2.71-2.71c-.39-.39-.39-1.02,0-1.41s1.03-.39,1.42,0l2.72,2.72c.31-.18.64-.32,1-.42V1.99c0-.55.45-1,1-1s1,.45,1,1v3.14c.35.09.68.23.98.4l2.72-2.74c.39-.39,1.02-.39,1.4,0s.39,1.02,0,1.41l-2.69,2.71c.2.32.35.68.44,1.05h3.05c.55,0,.99.45.99,1s-.44,1-.99,1h-2.9l.02,3h2.93c.55,0,1,.45,1,1s-.45,1-1,1Zm-4.95.34l-.04-6.37c0-1.09-.9-1.98-1.99-1.98h0c-1.1,0-1.99.89-1.98,1.99l.04,6.37c0,5.88-4.74,10.66-10.57,10.66h-6.31c-.88,0-1.73.52-1.99,1.35-.43,1.38.58,2.65,1.89,2.65h6.42c8.02,0,14.54-6.58,14.54-14.67Z"/></svg>