<?xml version="1.0" encoding="UTF-8"?><svg id="Layer_1" xmlns="http://www.w3.org/2000/svg" width="36" height="36" viewBox="0 0 36 36"><path d="M36.02,10.89v-1.67c0-.63-.51-1.14-1.14-1.14h-1.61l-1.59-4.91C31.08,1.35,29.37,.12,27.42,.11H8.69C6.75,.11,5.04,1.35,4.44,3.17l-1.65,4.91H1.14c-.63,0-1.14,.51-1.14,1.14v1.67c0,.63,.51,1.14,1.14,1.14h.32L.45,15.03c-.11,.25-.19,.51-.26,.78l-.13,.39h.04c-.05,.29-.09,.57-.09,.86v13.35c0,.89,.72,1.61,1.61,1.61h2.79c.89,0,1.61-.72,1.61-1.61v-3.39H30.02v3.39c0,.89,.72,1.61,1.61,1.61h2.79c.89,0,1.61-.72,1.61-1.61v-13.32c0-.76-.18-1.5-.52-2.18l-.93-2.88h.32c.63,0,1.14-.51,1.14-1.14h-.02ZM7.28,4.11c.2-.6,.77-1,1.42-1.01H27.41c.65,0,1.22,.41,1.42,1l2.6,8.02c-.14-.01-.28-.04-.42-.04l-25.99-.02c-.14,0-.27,.03-.41,.04l2.68-7.99h-.01Zm-.78,17.93c-1.38,0-2.5-1.1-2.5-2.46s1.12-2.46,2.5-2.46,2.5,1.1,2.5,2.46-1.12,2.46-2.5,2.46Zm16.5-.05H13v-2.95h10v2.95Zm6.43,0c-1.38,0-2.5-1.1-2.5-2.46s1.12-2.46,2.5-2.46,2.5,1.1,2.5,2.46-1.12,2.46-2.5,2.46Zm-3.41,10.01v1h-6v3l-10-3v-1h6v-3l10,3Z"/></svg>