<?xml version="1.0" encoding="UTF-8"?><svg id="Layer_1" xmlns="http://www.w3.org/2000/svg" width="36" height="36" viewBox="0 0 36 36"><path d="M14,8c-2.21,0-4-1.79-4-4S11.79,0,14,0s4,1.79,4,4-1.79,4-4,4Zm11.07,4.02v-.02c0-2.21-1.79-4-4-4s-4,1.79-4,4v.02h8Zm-1.07,18.99h9v2.98c0,1.1-.9,2-2,2H2C.89,35.99,0,35.1,0,33.99V16C0,14.9,.89,14,2,14H31c1.1,0,2,.89,2,1.99v3.01h-9c-1,.01-2,1.01-2,2.01v8c0,1.1,.9,2,2,2ZM33,3V0h-2V3h-3v2h3v3h2v-3h3V3h-3Zm3,18v8l-12-.06,.07-7.94h11.93Zm-6,4c0-1.1-.9-2-2-2s-2,.9-2,2,.9,2,2,2,2-.9,2-2h0Zm-13.92-1.98h-3.85l2.33-4h-4.56l-2.04,7h2.79l-1.94,5h2.05l5.21-8h.01Z"/></svg>