<?xml version="1.0" encoding="UTF-8"?><svg id="Layer_1" xmlns="http://www.w3.org/2000/svg" width="36" height="36" viewBox="0 0 36 36"><path d="m35.92,6.77l-4.45,6.77c-.19.28-.5.45-.85.45h-.05c-.71,0-1.2-.71-.94-1.36l1.43-3.64h-2.14c-.34,0-.58-.32-.48-.64l1.66-5.64c.13-.43.52-.72.97-.72h2.96c.39,0,.63.42.44.75l-1.91,3.25h2.95c.4,0,.64.44.42.77Zm-17.99,11.23c2.23,0,4.03-1.79,4.03-4s-1.81-4-4.03-4-4.03,1.79-4.03,4,1.81,4,4.03,4Zm3.26,3.56c2.67.78,4,2.52,4.55,3.94,1.98-.25,3.52-1.91,3.52-3.95,0-2.21-1.81-4-4.03-4s-4.03,1.79-4.03,4c0,0,0,0,0,0Zm-16.15.52H1.01c-.56,0-1.01.45-1.01,1v7.95c0,.55.45,1,1.01,1h4.03c.56,0,1.01-.45,1.01-1v-7.95c0-.55-.45-1-1.01-1Zm25.63,6.3s-10.47.66-10.47.66l-2.89-.91c-.49-.15-.76-.67-.6-1.16h0c.16-.48.67-.75,1.16-.6l2.82.88,3.57-.3c-.01-.1-.32-2.6-3.51-3.49l-5.89-1.76c-.29-.09-.59-.11-.89-.06l-5.05.76c-.49.07-.86.49-.86.99v7.58l11.91,2.99c.15.04.3.04.46,0l13.62-2.83c.79-.16,1.1-1.16.5-1.69-.62-.56-1.77-1.08-3.87-1.08Z"/></svg>