<?xml version="1.0" encoding="UTF-8"?><svg id="Layer_1" xmlns="http://www.w3.org/2000/svg" width="36" height="36" viewBox="0 0 36 36"><path d="M4.53,22.51L0,15.56H3.02c.53-3.79,2.47-7.25,5.47-9.64C14.95,.75,24.39,1.79,29.56,8.26l-2.52,1.63c-1.93-2.31-4.67-3.81-7.66-4.2-6.41-.83-12.27,3.56-13.36,9.87h2.97l-4.47,6.95h.01Zm31.46-2.95h-2.96c-.52,3.76-2.44,7.19-5.4,9.59-6.44,5.22-15.88,4.22-21.1-2.21l2.53-1.63c1.92,2.24,4.59,3.69,7.51,4.08,6.41,.86,12.3-3.51,13.4-9.83h-2.99l4.48-6.93,4.52,6.93h0Zm-14-4h-3.84l2.5-5h-4.66l-2,8h2.8l-2,6h2.17l5.03-9Z"/></svg>