<?xml version="1.0" encoding="UTF-8"?><svg id="Layer_1" xmlns="http://www.w3.org/2000/svg" width="36" height="36" viewBox="0 0 36 36"><path d="M26.97,13.05v-3.97C26.97,4.08,22.93,0,17.97,0S8.97,4.07,8.97,9.08v.92h3v-.92c0-3.35,2.69-6.08,6-6.08s6,2.73,6,6.08v3.92H9.52c-2.51,0-4.55,2.04-4.55,4.55v13.95c0,2.49,2.01,4.5,4.5,4.5H26.47c2.49,0,4.5-2.01,4.5-4.5v-14c0-2.31-1.76-4.2-4-4.45Zm-8.93,4.99c1.66,.01,2.99,1.36,2.98,3.02s-1.36,2.99-3.02,2.98c-1.65,0-2.99-1.36-2.98-3.01,0,0,0,0,0,0,0-1.65,1.36-2.99,3.01-2.98,0,0,0,0,0,0Zm4.93,12.96H12.97v-2.25c0-1.54,1.31-2.75,2.89-2.75h4.29c1.58,0,2.82,1.21,2.82,2.75v2.25Z"/></svg>