<?xml version="1.0" encoding="UTF-8"?><svg id="Layer_1" xmlns="http://www.w3.org/2000/svg" width="36" height="36" viewBox="0 0 36 36"><path d="m30.99,7v-.03c0-.81-.32-1.57-.89-2.14-.57-.57-1.33-.88-2.13-.88h-.01l-19.91.07h0s-.02,0-.03,0c-.56,0-1.02-.46-1.02-1.02s.46-1.02,1.02-1.02c.01,0,.02,0,.03,0h0s19.91-.01,19.91-.01c-.16-.94-.96-1.97-2.9-1.97H8c-1.66,0-3,1.35-3,3.01l.04,29.99c0,1.66,1.35,3,3,3h19.98c1.65,0,2.98-1.34,2.98-2.98V7h-.01Zm-6.99,12h-12c-.55,0-1-.45-1-1v-6c0-.55.45-1,1-1h12c.55,0,1,.45,1,1v6c0,.55-.45,1-1,1Z"/></svg>