<?xml version="1.0" encoding="UTF-8"?><svg id="Layer_1" xmlns="http://www.w3.org/2000/svg" width="36" height="36" viewBox="0 0 36 36"><path d="M36,18.33c0,6.94-3.06,12.5-3.19,12.73l-2.62-1.46s2.81-5.14,2.81-11.27-2.78-11.22-2.81-11.27l2.62-1.46c.13,.23,3.19,5.79,3.19,12.73ZM7,12.33H3c-1.66,0-3,1.34-3,3v6c0,1.66,1.34,3,3,3H7V12.33Zm3,0v12l8.03,7h2.97V5.33h-2.97l-8.03,7Zm15.69,.73s1.31,2.42,1.31,5.27-1.3,5.25-1.31,5.27l2.62,1.46c.07-.12,1.69-3.07,1.69-6.73s-1.62-6.61-1.69-6.73c0,0-2.62,1.46-2.62,1.46Z"/></svg>