<?xml version="1.0" encoding="UTF-8"?><svg id="Layer_1" xmlns="http://www.w3.org/2000/svg" width="36" height="36" viewBox="0 0 36 36"><circle cx="31.01" cy="9" r="3"/><circle cx="17.91" cy="3" r="3"/><path d="m35.01,20v-3.46c0-1.67-1.28-2.97-2.94-3.01h-3.31c-1.36.09-2.44,1.02-2.75,2.29,3.13.96,7.1,2.4,9,4.18Z"/><circle cx="5.01" cy="9" r="3"/><path d="m10.01,15.82c-.3-1.27-1.39-2.2-2.75-2.28h-3.31c-1.66.03-2.94,1.33-2.94,3v3.46c1.9-1.78,5.87-3.22,9-4.18Z"/><circle cx="18.01" cy="25.05" r="3"/><circle cx="31.01" cy="24" r="3"/><circle cx="5" cy="24" r="3"/><path d="m20.06,7.48h-4.22c-1.61.1-2.84,1.38-2.84,3.01v4.41c.34-.05.66-.07,1.01-.12l2.1-4.23c.25-.49.85-.69,1.34-.45.49.25.69.85.45,1.34l-1.57,3.13c.55-.03,1.1-.07,1.67-.07,1.74,0,3.4.14,5,.39v-4.41c0-1.67-1.28-2.97-2.94-3.01Z"/><path d="m26.08,35.37c3.79-.6,7.18-1.62,9.93-2.93v-.95c0-1.67-1.28-2.97-2.94-3.01h-4.22c-1.61.1-2.84,1.38-2.84,3.01v3.51c0,.13.03.26.08.37Z"/><path d="m18.01,36c1.71,0,3.38-.08,5-.23v-3.22c0-1.67-1.28-2.97-2.94-3.01h-4.22c-1.61.1-2.84,1.38-2.84,3.01v3.22c1.62.15,3.29.23,5,.23Z"/><path d="m10,35.39v-3.89c0-1.67-1.28-2.97-2.94-3.01H2.84c-1.61.1-2.84,1.38-2.84,3.01v.95c2.77,1.32,6.19,2.34,10,2.95Z"/></svg>