<?xml version="1.0" encoding="UTF-8"?><svg id="Layer_1" xmlns="http://www.w3.org/2000/svg" width="36" height="36" viewBox="0 0 36 36"><path d="m30,12c0-1.66-1.34-3-3-3h-5.93c-1.66,0-3,1.35-3,3.01,0-1.66-1.34-3.01-3-3.01h-6.06c-1.66,0-3,1.35-3,3.01l.03,10c0,.55.45,1,1,1h1.97v12c0,.55.45,1,1,1h5v-8h-1c-.55,0-1-.45-1-1v-4.98c0-1.12.91-2.02,2.02-2.02h5.91c1.14,0,2.06.92,2.06,2.06v4.94c0,.55-.45,1-1,1h-1v8h4.99c.55,0,1-.45,1-1.01l-.07-11.99h2.08c.55,0,1-.45,1-1v-10Zm-12,7c-1.66,0-3-1.34-3-3s1.34-3,3-3,3,1.34,3,3-1.34,3-3,3ZM9,3.5c0-1.93,1.57-3.5,3.5-3.5s3.5,1.57,3.5,3.5-1.57,3.5-3.5,3.5-3.5-1.57-3.5-3.5Zm11,0c0-1.93,1.57-3.5,3.5-3.5s3.5,1.57,3.5,3.5-1.57,3.5-3.5,3.5-3.5-1.57-3.5-3.5Z"/></svg>