<?xml version="1.0" encoding="UTF-8"?><svg id="Layer_1" xmlns="http://www.w3.org/2000/svg" width="36" height="36" viewBox="0 0 36 36"><path d="M32.9,32.83c-.74,0-1.45-.27-1.94-.71L15,15.88V6L7.52,0,0,6v7h0v23H3v-16H12v16h3v-15.84l13.88,14.12c1.1,1,2.53,1.55,4.02,1.55h3.1v-3h-3.1ZM7.5,13c-1.66,0-3-1.34-3-3s1.34-3,3-3,3,1.34,3,3-1.34,3-3,3Z"/><circle cx="24" cy="10" r="3"/><path d="M25.48,14.38h-1.61c-1.61,.1-2.84,1.37-2.84,3.01l-.02,1.61,5.96,6v-8.42c3.09-.67,4.98-3.41,4.98-7.08v-.5h-2.99v.5c0,3.1-1.83,4.88-5.02,4.88h1.54Z"/></svg>