<?xml version="1.0" encoding="UTF-8"?><svg id="Layer_1" xmlns="http://www.w3.org/2000/svg" width="36" height="36" viewBox="0 0 36 36"><path d="m23.98,9.03h3.77c.64,0,1.11-.59.97-1.22l-1.58-7.03c-.1-.46-.51-.78-.97-.78h-6.37c-.47,0-.87.33-.97.78l-1.55,7.03c-.14.62.34,1.22.97,1.22h3.75v24.97h-3c-.55,0-1,.45-1,1h0c0,.55.45,1,1,1h7.98c.55,0,1-.45,1-1h0c0-.55-.45-1-1-1h-2.99V9.03ZM2.73,19.12l-.14-2.14c-.11-1.65,1.13-3.08,2.78-3.19l6.97-.47-1.85,3.62c-.35.69.18,1.51.96,1.45l1.31-.09-1.67,3.12c-.37.69.16,1.53.95,1.47h.09c.35-.03.66-.24.82-.55l2.43-4.71c.35-.69-.18-1.51-.96-1.45l-1.31.09,1.68-3.12,5.19-.35v11.03l-13.87.94-.13-2c-.13-1.85-1.5-3.32-3.25-3.65Zm17.25,11.72l-17.38,1.18c-1.1.07-2.05-.76-2.13-1.86L0,23.17c-.08-1.21.94-2.25,2.19-2.13.99.1,1.73.97,1.79,1.97l.13,1.88.13,2,15.73-1.07v5.01Zm16.01-3.11c.07,1.1-.76,2.06-1.86,2.13l-1.99.14.07,1c.04.55-.38,1.03-.93,1.07-.55.04-1.03-.38-1.06-.93l-.07-1-4.19.37v-5.13l5.84-.36-.13-2-.13-1.88c-.07-.99.55-1.96,1.51-2.19,1.23-.29,2.38.6,2.46,1.81l.47,6.98Zm-10.02-15.36l2.97-.2c1.65-.11,3.08,1.14,3.19,2.79l.14,2.14c-1.68.56-2.85,2.2-2.73,4.05l.13,2-3.71.25v-11.03Z"/></svg>