<?xml version="1.0" encoding="UTF-8"?><svg id="Layer_1" xmlns="http://www.w3.org/2000/svg" width="36" height="36" viewBox="0 0 36 36"><path d="M4,26.03h14.99v5H6v2H3v-1.99c-1.65,0-3-1.34-3-2.97v-4.84c0-.86,.5-1.69,1.32-1.97,1.05-.37,2.2,.18,2.57,1.23,.08,.21,.11,.44,.11,.66v2.89h0Zm9.97-7.01h-3.05l.04,2.1c-.21,.12-.23,0-.41,0l-1.99-4.1,3.47-.04-.82-2.96H5.98c-1.63,0-2.97,1.34-2.97,2.97v2.25c1.72,.46,3,2.03,3,3.91v.87h12.99V14.03h-6l.98,5h0Zm14.02,5h2v-.98c0-1.84,1.28-3.38,3-3.82v-2.23c0-1.63-1.34-2.97-2.97-2.97h-2.03s0,10,0,10Zm6.68-2.77c-1.05-.37-2.2,.18-2.57,1.23-.08,.21-.11,.44-.11,.66v2.89h-4v5h2v2h3v-1.99c1.65,0,3-1.34,3-2.97v-4.84c0-.86-.5-1.69-1.32-1.97h0ZM27.96,0h-8.97l-2,9.03h5v27h3V9.03h5S27.96,0,27.96,0Z"/></svg>