<?xml version="1.0" encoding="UTF-8"?><svg id="Layer_1" xmlns="http://www.w3.org/2000/svg" width="36" height="36" viewBox="0 0 36 36"><path d="M31.1,29.47c0,1.38-1.12,2.5-2.5,2.5s-2.5-1.12-2.5-2.5,1.12-2.5,2.5-2.5,2.5,1.12,2.5,2.5Zm-22.56-2.46c-1.38,0-2.5,1.12-2.5,2.5s1.12,2.5,2.5,2.5,2.5-1.12,2.5-2.5-1.12-2.5-2.5-2.5Zm27.56-10l-.03,8.96c0,1-1,2-2,2h-1.28c-.62-1.74-2.27-3-4.22-3s-3.6,1.26-4.22,3H12.76c-.62-1.74-2.27-3-4.22-3s-3.6,1.26-4.22,3h-.72c-.83,0-1.5-.67-1.5-1.5v-3.15c.29,.15,.61,.22,.92,.22,.2,0,.39-.03,.59-.09,.51-.16,.93-.51,1.18-.98l5.55-10.47h2.69c2,0,3.75-1.44,4.06-3.34,.15-.93-.04-1.86-.5-2.66h11.51v5h4c.67,0,1.33,.67,2,2l2,4h0Zm-1.96,.01l-2-4h-4l-.04,4h6.04ZM9.15,10.01h3.92c.87,0,1.72-.51,1.98-1.35,.44-1.38-.58-2.65-1.9-2.65H7.15L0,19.93l3.04,1.62,6.11-11.54Z"/></svg>