<?xml version="1.0" encoding="UTF-8"?><svg id="Layer_1" xmlns="http://www.w3.org/2000/svg" width="36" height="36" viewBox="0 0 36 36"><path d="M35.74,7.34c.39-.39,.39-1.02,0-1.41-.39-.39-1.02-.39-1.41,0l-6.56,6.56-1.41-1.41,6.56-6.56c.39-.39,.39-1.02,0-1.41-.39-.39-1.02-.39-1.41,0l-6.56,6.56-1.41-1.41L30.1,1.7c.39-.39,.39-1.02,0-1.41s-1.02-.39-1.41,0l-8.06,8.06c-.13,.13-.22,.27-.27,.4-.96,1.37-1.15,3.11-.58,4.63L.29,32.85c-.39,.39-.39,1.02,0,1.41l1.45,1.45c.39,.39,1.02,.39,1.42,0L22.62,16.25c1.57,.62,3.38,.39,4.79-.65,.09-.05,.19-.1,.28-.2l.16-.16s.09-.06,.13-.1h-.01l7.78-7.79h-.01Zm-.09,25.41l-13.37-13.37-2.83,2.83,13.37,13.37c.39,.39,1.02,.39,1.41,0l1.41-1.41c.39-.39,.39-1.02,0-1.41h0ZM16.6,13.7L2.92,.02C.19,2.75,.19,7.19,2.92,9.92l8.73,8.73,4.95-4.95Z"/></svg>