<?xml version="1.0" encoding="UTF-8"?><svg id="Layer_1" xmlns="http://www.w3.org/2000/svg" width="36" height="36" viewBox="0 0 36 36"><path d="m1,26.98h9v8.99h-.06L1,27.02v-.03Zm11,8.99v-9.08c0-1.06-.86-1.91-1.92-1.91H1V1.97c0-1.09.88-1.97,1.97-1.97h24.05c1.09,0,1.97.88,1.97,1.97v14.02h-4.99c-1.66,0-3,1.35-3,3,0,1.97,0,4.2.01,4.33h0c.13,3.16,2.14,5.91,4.98,7.07v1.59h-.1c-2.22,0-4.03,1.79-4.03,4h-9.88Zm2.34-16.68l7.11-7.1c.38-.38.38-1,0-1.38l-.02-.02c-.38-.38-1-.38-1.38,0l-6.41,6.41-3.56-3.54c-.38-.38-1-.38-1.38,0h0c-.39.38-.39,1,0,1.38l4.26,4.26c.38.38,1,.38,1.38,0Zm15.66,9.59v5.09h2.02c1.1,0,2,.89,2,2l-10.11.02c0-1.13.92-2.02,2.05-2.02h2.04v-5.09c-2.76-.46-4.87-2.8-4.99-5.65,0-.02,0-2.74-.01-4.25,0-.55.45-1,1-1h10c.55,0,1,.44,1,1,0,1.52,0,4.24-.01,4.26-.12,2.85-2.23,5.18-4.99,5.65Zm2.97-8.9h-7.95c0,.98,0,2.15,0,3h7.94c0-.85,0-2.01,0-3Z"/></svg>