<?xml version="1.0" encoding="UTF-8"?><svg id="Layer_1" xmlns="http://www.w3.org/2000/svg" width="36" height="36" viewBox="0 0 36 36"><path d="M.95,28h7.05v7L.95,28Zm30.05,1.01v3.99h2.02c1.09,0,1.98,.89,1.98,1.98v1.02h-11v-.98c0-1.12,.91-2.02,2.02-2.02h1.98v-4c-2.71-.64-4.78-2.97-5-5.82v-6.18h13v6.18c-.22,2.85-2.3,5.18-5,5.83Zm2.01-7.01h-7l-.03,.98c0,1.94,1.57,3.51,3.51,3.51s3.51-1.57,3.51-3.51v-.98h0Zm-12.01,12.2v1.8l-10-.02v-8.94c0-1.12-.91-2.03-2.03-2.03H0V2.02C0,.9,.9,0,2.02,0H23.97c1.12,0,2.03,.91,2.03,2.03V14h-6l.02,9.8c.2,2.74,1.68,5.14,3.87,6.54,0,0-2.9,.46-2.9,3.86h.01ZM12.56,18.01l8.49-8.49-2.12-2.11-6.36,6.36-3.2-3.18-2.13,2.12,5.31,5.31h.01Z"/></svg>