<?xml version="1.0" encoding="UTF-8"?><svg id="Layer_1" xmlns="http://www.w3.org/2000/svg" width="36" height="36" viewBox="0 0 36 36"><path d="m30,12.26v-4.27c0-.55-.44-.99-.99-.98h0c-.54,0-.98.44-.98.98v2.54L18.67,2.24c-.37-.32-.92-.32-1.29,0L3.35,14.57c-.42.36-.47.99-.1,1.41h0c.36.41.99.45,1.41.09l1.39-1.21-.02,16.14c0,.55.45,1,1,1h22.04c.55,0,.99-.44.99-.99l-.03-16.11,1.35,1.17c.41.35,1.03.31,1.39-.1l.02-.02c.36-.41.31-1.04-.1-1.39l-2.65-2.3Zm-8.96,11.74h-6.03c-.55,0-1-.45-1-.99v-4.01c0-.55.45-.99,1-.99h6.03c.54,0,.99.44.99.98v4.03c0,.54-.44.98-.99.98Z"/></svg>