<?xml version="1.0" encoding="UTF-8"?><svg id="Layer_1" xmlns="http://www.w3.org/2000/svg" width="48" height="48" viewBox="0 0 48 48"><circle cx="11.02" cy="21.01" r="3"/><path d="M15.99,20.01v.5c0,3.1-1.83,4.88-5.02,4.88h-2.11c-1.61,.1-2.84,1.37-2.84,3.01l-.02,5.61,2.04-.03v8.04h5.96v-14c3.09-1.09,4.98-3.84,4.98-7.5v-.5h-2.99Z"/><path d="M38.67,6.01h-14.33c-1.84-.01-3.33,1.5-3.33,3.37v24.56c0,.59,.47,1.07,1.07,1.07h1.87c.59,0,1.07-.48,1.07-1.07v-1.93h13v1.93c0,.59,.48,1.07,1.07,1.07h1.86c.59,0,1.07-.48,1.07-1.07V9.4c0-1.87-1.49-3.38-3.33-3.39Zm-12.67,2h11v2h-11v-2Zm-2,4h15v9h-15V12.01Zm1.67,16.25c-.92,0-1.67-.73-1.67-1.64s.75-1.64,1.67-1.64,1.67,.73,1.67,1.64-.75,1.64-1.67,1.64Zm11.7-.03c-.92,0-1.67-.73-1.67-1.64s.75-1.64,1.67-1.64,1.67,.73,1.67,1.64-.75,1.64-1.67,1.64Z"/></svg>