<?xml version="1.0" encoding="UTF-8"?><svg id="Layer_1" xmlns="http://www.w3.org/2000/svg" width="36" height="36" viewBox="0 0 36 36"><path d="m28.99,9.03H8.95c-1.63,0-2.95,1.34-2.95,3l.03,9.99c0,.55.45,1,1,1h1.97v11.99c0,.55.45,1,1,1h6.96c.55,0,1-.45,1-1V13.02c0-.55.45-1,1-1h0c.55,0,1,.45,1,1v21.98c0,.55.45,1,1,1h7.01c.55,0,1-.45,1-1v-12h2c.56.01,1.01-.43,1.01-.99v-9.98c0-1.66-1.35-3-3.01-3Zm-.35,4.98l-.16.17-.76.8c-.39.41-1.06.41-1.45,0l-.76-.8-.16-.17c-.33-.35-.46-.88-.25-1.31.35-.71,1.2-.81,1.7-.29l.2.21.2-.21c.49-.51,1.34-.42,1.7.29.21.43.09.96-.25,1.31Zm-7.16-10.47c0-1.93,1.57-3.5,3.51-3.5s3.51,1.57,3.51,3.5-1.57,3.5-3.51,3.5-3.51-1.57-3.51-3.5Zm-12.02-.04c0-1.93,1.57-3.5,3.51-3.5s3.51,1.57,3.51,3.5-1.57,3.5-3.51,3.5-3.51-1.57-3.51-3.5Z"/></svg>