<?xml version="1.0" encoding="UTF-8"?><svg id="Layer_1" xmlns="http://www.w3.org/2000/svg" width="36" height="36" viewBox="0 0 36 36"><path d="M22.61,16l-10.36,.02c-2.68,.15-4.73,2.26-4.73,4.96l.02,12.02h2.98v3h13.99v-3h3l.02-12.02c0-2.77-2.14-4.92-4.9-4.98Zm.37,5.86l-.24,.26h0l-2.23,2.35-2.23-2.35h0l-.24-.26c-.5-.53-.69-1.32-.37-1.97,.53-1.07,1.8-1.21,2.54-.44l.3,.32,.3-.32c.73-.77,2.01-.62,2.54,.44,.32,.65,.13,1.44-.37,1.97ZM10.69,5.37l.12,.03c.56,.13,1.12,.2,1.65,.2,2.06,0,4.08-.86,5.53-2.36l1.6-1.58,1.37,1.36c.84,.94,1.87,1.64,3.06,2.09l.22,.08-.07-.23c-.89-2.92-3.64-4.96-6.69-4.96s-5.97,2.16-6.77,5.25l-.03,.11Zm-.18,2.06v.16c.31,3.6,3.37,6.41,6.98,6.41s6.75-2.89,6.97-6.58v-.1s-.65-.13-.65-.13c-1.61-.54-3.04-1.5-4.14-2.77l-.09-.1-.09,.1c-1.79,2.06-4.35,3.24-7.03,3.24-.58,0-1.19-.07-1.8-.19l-.15-.03Z"/></svg>