<?xml version="1.0" encoding="UTF-8"?><svg id="Layer_1" xmlns="http://www.w3.org/2000/svg" width="36" height="36" viewBox="0 0 36 36"><path d="m32.67.01h-14.33c-1.84-.01-3.33,1.5-3.33,3.37v24.55c0,.59.47,1.07,1.07,1.07h1.86c.59,0,1.07-.48,1.07-1.07v-1.93h13v1.93c0,.59.48,1.07,1.07,1.07h1.86c.59,0,1.07-.48,1.07-1.07V3.4C36,1.53,34.51.01,32.67.01Zm-12.67,2h11v2h-11v-2Zm-1.5,19.99c-.83,0-1.5-.67-1.5-1.5s.67-1.5,1.5-1.5,1.5.67,1.5,1.5-.67,1.5-1.5,1.5Zm14.01-.08c-.82,0-1.49-.66-1.49-1.46s.67-1.46,1.49-1.46,1.49.66,1.49,1.46-.67,1.46-1.49,1.46Zm1.49-6.92h-17V6.01h17v9ZM1.85,13.84c0-1.64,1.35-2.99,2.99-2.99s2.99,1.35,2.99,2.99-1.35,2.99-2.99,2.99-2.99-1.35-2.99-2.99Zm8.16,7.27v5.89c0,.55-.46,1-1.01,1h-1v7c0,.55-.45,1-1,1H3c-.55,0-1-.45-1-1v-7h-1c-.55,0-1-.45-1-1v-5.89c0-1.69,1.23-3,2.84-3.09h4.23c1.66.03,2.94,1.37,2.94,3.09Z"/></svg>