<?xml version="1.0" encoding="UTF-8"?><svg id="Layer_1" xmlns="http://www.w3.org/2000/svg" width="36" height="36" viewBox="0 0 36 36"><path d="M26.91,3.5c0-1.93,1.57-3.5,3.5-3.5s3.5,1.57,3.5,3.5-1.57,3.5-3.5,3.5-3.5-1.57-3.5-3.5Zm-6.5,3.5c1.93,0,3.5-1.57,3.5-3.5s-1.57-3.5-3.5-3.5-3.5,1.57-3.5,3.5,1.57,3.5,3.5,3.5Zm-5.51,14.15V11c-.01-1.66,1.33-2,2.99-2h4.45c1.66,0,3,1.34,3,3,0-1.66,1.34-3,3-3h4.57c1.66,0,3,1.34,3,3v11h-2v5c-.82-.25-1.79-.41-2.94-.41h-.28l-.78,.08v-5.61c0-1.14-.92-2.06-2.06-2.06h-4.98c-1.1,0-1.99,.89-1.99,1.99v.89l-5.17-1.56-.65-.2-.16,.02h0Zm7.51-5.14c0,1.66,1.34,3,3,3s3-1.34,3-3-1.34-3-3-3-3,1.34-3,3Zm-7.57,8.19l-5.84,.88v8l11.96,3,14.1-3.08s0-2.4-4.1-2.4l-10,.93-4.76-1.21,.78-2.24,3.94,1.01h3.18s-.22-2.22-3.1-3.03l-6.16-1.86m-8.84-.11H0v10H6v-10Z"/></svg>