<?xml version="1.0" encoding="UTF-8"?><svg id="Layer_1" xmlns="http://www.w3.org/2000/svg" width="36" height="36" viewBox="0 0 36 36"><path d="m18,3.97h0c-.55,0-1-.45-1-1V1c0-.55.45-1,1-1h0c.55,0,1,.45,1,1v1.97c0,.55-.45,1-1,1Zm16,11.96h0c0,.55-.45,1-1,1h-1.98c-.55,0-1-.45-1-1h0c0-.55.45-1,1-1h1.98c.55,0,1,.45,1,1Zm-31-1h1.98c.55,0,1,.45,1,1h0c0,.55-.45,1-1,1h-1.98c-.55,0-1-.45-1-1h0c0-.55.45-1,1-1Zm6.46-7.48c-.39.39-1.03.39-1.42,0l-1.4-1.4c-.39-.39-.39-1.02,0-1.41h0c.39-.39,1.03-.39,1.42,0l1.4,1.4c.39.39.39,1.02,0,1.41h0Zm19.81-2.89h0c.39.39.39,1.02,0,1.41l-1.4,1.4c-.39.39-1.03.39-1.42,0h0c-.39-.39-.39-1.02,0-1.41l1.4-1.4c.39-.39,1.03-.39,1.42,0Zm-11.25,2.42h0c-4.96,0-8.99,4.02-9,8.95,0,2.09.74,4.13,2.08,5.74.21.25.41.48.61.69.81.9,1.29,1.43,1.29,2.6v1.02h10.04v-.96c0-1.2.53-1.8,1.33-2.7.18-.21.38-.42.57-.66,1.34-1.6,2.08-3.64,2.08-5.72,0-4.94-4.03-8.97-8.99-8.97Zm-3.87,21.01h-1.17v2.94c0,1.4.99,2.69,2.31,3l.55.13.17.53c.27.84,1.04,1.4,1.91,1.4s1.6-.54,1.9-1.33l.2-.54.56-.11c1.39-.26,2.44-1.56,2.44-3.02v-3h-8.88Z"/></svg>