<?xml version="1.0" encoding="UTF-8"?><svg id="Layer_1" xmlns="http://www.w3.org/2000/svg" width="36" height="36" viewBox="0 0 36 36"><path d="M17.67,4.03c-.51,0-1.01,.04-1.5,.11V-.08h3V4.14c-.49-.06-.98-.11-1.49-.11h-.01Z" style="fill:#161616;"/><path d="M1.67,14.79v3.09H5.74c-.06-.51-.1-1.02-.1-1.54,0-.53,.04-1.04,.11-1.55H1.67Z" style="fill:#161616;"/><path d="M10.28,6.63l-2.93-3.01-2.12,2.18,2.93,3.02c.62-.82,1.33-1.55,2.12-2.19Z" style="fill:#161616;"/><path d="M29.58,14.79c.06,.51,.11,1.02,.11,1.55,0,.52-.04,1.03-.1,1.54h4.08v-3.09h-4.08Z" style="fill:#161616;"/><path d="M27.17,8.82l2.93-3.02-2.12-2.18-2.93,3.01c.79,.64,1.5,1.37,2.12,2.19Z" style="fill:#161616;"/><g><path d="M11.39,22.97c.81,.92,1.28,1.47,1.28,2.68v1.05h10v-.99c0-1.24,.53-1.85,1.32-2.78,.18-.21,.37-.44,.57-.68,1.34-1.65,2.07-3.74,2.07-5.89,0-5.09-4.01-9.23-8.95-9.24h0c-4.94,0-8.96,4.14-8.96,9.22,0,2.15,.73,4.25,2.07,5.91,.21,.26,.41,.49,.6,.71Z" style="fill:#161616;"/><path d="M12.67,29.79v.92c0,1.44,.99,2.77,2.3,3.09l.55,.13,.17,.55c.27,.86,1.04,1.44,1.91,1.44s1.6-.55,1.89-1.37l.19-.55,.56-.11c1.39-.27,2.43-1.61,2.43-3.11v-.98H12.67Z" style="fill:#161616;"/></g></svg>