<?xml version="1.0" encoding="UTF-8"?><svg id="Layer_1" xmlns="http://www.w3.org/2000/svg" width="36" height="36" viewBox="0 0 36 36"><path d="m4.05,7.78c.56,0,1.01-.44,1.01-.97V.73c0-.4-.34-.73-.76-.73s-.76.33-.76.73v2.19h-1.26C1.02,2.92,0,4.14,0,5.35s1.02,2.43,2.27,2.43h1.77Zm12.33,28.21l1.28-5.56,7.57-7.3.06-2.7c0-3.89-4.05-3.89-4.04-3.9h-12.71c-2.38,0-3.47-2.83-3.47-4.86v-.97c0-.54-.46-.97-1.02-.97h-2.02c-.56,0-1.01.44-1.01.98v.96c0,4.15,2.94,8.76,7.52,8.76h.57v14.6c0,.54.45.97,1.01.97h6.26Zm6.71-1.12l-3.56-3.42-.99,3.77c-.09.35.24.68.61.59l3.93-.93Zm12.62-13.58l-2.14-2.06c-.4-.38-1.04-.38-1.43,0l-11.13,10.73,3.56,3.43,11.14-10.72c.39-.38.39-1,0-1.38ZM8.92,5.54c.69-3.16,3.56-5.54,7-5.54,2.01,0,3.83.81,5.13,2.12-.02.72-.2,1.25-.54,1.6-.91.94-3.13.88-5.27.83-2.31-.06-4.69-.11-6.31.98Zm13.62-1.18c.34.82.53,1.71.53,2.65,0,3.87-3.21,7-7.16,7-3.19,0-5.9-2.04-6.82-4.87-.14-.74.06-1.2.43-1.61.94-1.04,3.42-1.03,5.65-.97,2.59.06,5.27.13,6.81-1.46.22-.22.4-.48.56-.75Z"/></svg>