<?xml version="1.0" encoding="UTF-8"?><svg id="Layer_1" xmlns="http://www.w3.org/2000/svg" width="36" height="36" viewBox="0 0 36 36"><path d="M9.03,35.99v-15.56h-.61C3.9,20.43,1,15.82,1,11.67v-1.9l4,.06v1.84c0,2.03,1.07,4.87,3.43,4.87h12.56c1.62,0,3.52,1.02,3.92,2.92l-10.43,10.03-1.34,4.93c-.12,.52-.11,1.03,0,1.54l-4.11,.02h0ZM5,7.79V.73c0-.4-.34-.73-.75-.73s-.75,.33-.75,.73V2.92h-1.25c-1.24,0-2.25,1.23-2.25,2.43s1.01,2.43,2.25,2.43c0,0,2.75,0,2.75,0Zm11.73,24.57l-.62,2.73c-.09,.41,.17,.81,.59,.91,.11,.02,.23,.02,.34,0l2.82-.59-3.12-3.04h0Zm18.98-12.55c.39,.38,.39,.99,0,1.37l-13,12.66-1.41-1.37-.05-.04-1.4-1.36,.04,.03-1.4-1.36,13.09-12.77c.39-.38,.92-.27,1.31,.11l2.81,2.73h0ZM8.22,6.19l.12,.03c.56,.13,1.12,.19,1.66,.19,2.07,0,4.08-.84,5.53-2.3l1.6-1.54,1.37,1.32c.84,.91,1.89,1.61,3.07,2.03l.22,.08-.07-.22c-.89-2.84-3.65-4.83-6.68-4.83s-5.96,2.1-6.76,5.11l-.03,.11h0Zm-.18,2.01v.16c.31,3.5,3.38,6.24,6.97,6.24s6.75-2.81,6.97-6.4v-.1l-.65-.13c-1.6-.52-3.03-1.46-4.15-2.7l-.09-.1-.09,.1c-1.79,2-4.36,3.15-7.02,3.15-.59,0-1.19-.07-1.8-.18l-.15-.03h0Z"/></svg>