<?xml version="1.0" encoding="UTF-8"?><svg id="Layer_1" xmlns="http://www.w3.org/2000/svg" width="36" height="36" viewBox="0 0 36 36"><path d="M16.03,29.97c0,2.32,.89,4.43,2.33,6.03H3.04c-1.65,0-2.99-1.35-2.99-3l-.05-28.54C0,2,1.99,0,4.46,0H21.32c1.73,0,3.15,1.31,3.39,3H4.57c-.86,0-1.56,.7-1.56,1.56s.67,1.5,1.5,1.5l20.52-.05c1.64,0,2.98,1.31,3.01,2.95-.03,0-.04,1.19-.04,3.03h-3.51c-1.81,0-3.43,.51-4.81,1.47h-.13c-.69-.02-1.5-.29-1.5-1.46h-3c0,2.05,1.06,3.28,2.29,3.91-.86,1.35-1.32,2.92-1.32,4.52,0,.17,.02,.35,.03,.52v9.02h-.02Zm10.49-12.83c.59-.86,1.38-1.56,2.24-2.15h-4.37c.85,.59,1.55,1.29,2.14,2.15h-.01Zm1.52,11.87l-.02,2.9c0,2.25,1.83,4.07,4.08,4.07v.03h1.94v-9.11c-.99,1.11-2.92,2.1-5.03,2.1l-.97,.02h0Zm5.99-8.74v.4c-.09,2.95-2.53,5.33-5.53,5.33h-3.95c-2.88,0-5.25-2.19-5.52-4.98v-1.03c.11-1.33,.69-2.53,1.58-3.43,2.48,.51,4.43,2.8,4.43,5.43h2.99c0-2.65,1.88-4.96,4.39-5.44,.96,.96,1.56,2.27,1.61,3.71h0Zm-10.59,.16c0-.81-.66-1.47-1.47-1.47s-1.47,.66-1.47,1.47,.66,1.47,1.47,1.47,1.47-.66,1.47-1.47Zm9.03,0c0-.81-.66-1.47-1.47-1.47s-1.47,.66-1.47,1.47,.66,1.47,1.47,1.47,1.47-.66,1.47-1.47Zm-7.45,8.56c-2.09,0-4.51-1.1-5.99-2.08v1.58c.06,3.27,2.73,7.52,6.02,7.52h1.29c-.86-1.19-1.32-2.63-1.32-4.1v-2.92Z"/></svg>