<?xml version="1.0" encoding="UTF-8"?><svg id="Layer_1" xmlns="http://www.w3.org/2000/svg" width="36" height="36" viewBox="0 0 36 36"><path d="m9.73,13.27c6.25,0,11.96-3.69,14.55-9.4l.22-.49-.5-.2c-1.91-.77-3.91-1.18-5.99-1.18-6.25,0-11.96,3.69-14.55,9.4l-.22.49.5.2c1.91.77,3.92,1.18,5.99,1.18Z"/><path d="m32.55,13.27l.75.02-.26-.71c-1.15-3.21-3.26-5.91-6.08-7.82l-.62-.42-.17.74c-.11.48-.16.97-.16,1.48,0,3.61,2.93,6.62,6.54,6.71Z"/><path d="m33.85,15.75l-.07-.48-.66.05c-.13.01-.26.02-.39.02-3.86,0-7.24-2.48-8.38-6.18l-.28-.89-.61.71c-3.44,4.04-8.45,6.36-13.73,6.36-2.27,0-4.5-.42-6.61-1.27l-.56-.22-.13.59c-.27,1.2-.41,2.38-.41,3.54,0,8.83,7.18,16.02,16,16.02s16-7.19,16-16.02c0-.68-.05-1.39-.17-2.23h.02Zm-20.39,1.62c.82,0,1.5.67,1.5,1.51s-.67,1.51-1.5,1.51-1.5-.67-1.5-1.51.67-1.51,1.5-1.51Zm-.84,9.33c1.64-1.11,3.54-1.69,5.51-1.69s3.74.54,5.33,1.57c.46.3.6.92.3,1.39-.3.46-.92.6-1.39.3-2.58-1.67-6.09-1.63-8.64.09-.46.31-1.08.19-1.4-.27s-.19-1.09.27-1.4h.01Zm9.88-6.37c-.82,0-1.5-.67-1.5-1.51s.67-1.51,1.5-1.51,1.5.67,1.5,1.51-.67,1.51-1.5,1.51Z"/></svg>