<?xml version="1.0" encoding="UTF-8"?><svg id="Layer_1" xmlns="http://www.w3.org/2000/svg" width="36" height="36" viewBox="0 0 36 36"><path d="M24,34H0v2H24v-2Z"/><path d="M34,4V1c0-.55-.45-1-1-1s-1,.45-1,1v3h-2V1c0-.55-.45-1-1-1s-1,.45-1,1v3h-2v6c0,1.66,1.34,3,3,3h1v9.98c0,1.12-.93,2.02-2.06,2.02-1.07,0-1.94-.87-1.94-1.94v-3.04c0-2.22-1.8-4.02-4.02-4.02h-1.98V4c0-2.16-1.84-4-4-4H7.99c-2.21,0-3.99,1.79-3.99,4v28H20v-14h1.98c1.11,0,2.02,.91,2.02,2.02v3.04c0,2.17,1.78,3.94,3.98,3.94s4.02-1.81,4.02-4.02V13h1c1.66,0,3-1.34,3-3V4h-2ZM10.97,22h-2.17l2-6h-2.8l2-8h4.66l-2.5,5h3.84l-5.03,9h0Z"/></svg>