<?xml version="1.0" encoding="UTF-8"?><svg id="Layer_1" xmlns="http://www.w3.org/2000/svg" width="36" height="36" viewBox="0 0 36 36"><path d="m19.82,4.12C10.68,2.95,2.95,10.68,4.12,19.82c.79,6.23,5.83,11.27,12.06,12.06,9.14,1.16,16.87-6.56,15.71-15.71-.79-6.23-5.83-11.27-12.06-12.06Zm-.4,21.33c-.37.37-.85.56-1.44.56s-1.07-.19-1.44-.56c-.37-.37-.55-.85-.55-1.43s.18-1.06.55-1.43c.37-.37.85-.56,1.44-.56s1.07.19,1.44.56c.37.37.55.85.55,1.43s-.18,1.06-.55,1.43Zm-.44-5.41h-1.99c-.55,0-1-.45-1-1v-8.04c0-.55.45-1,1-1h1.98c.55,0,1,.45,1,1v8.04c0,.55-.45,1-1,1Z"/><path d="m17.98,0C8.05,0,0,8.06,0,18s8.05,18,17.98,18,18.02-8.06,18.02-18S27.94,0,17.98,0Zm.02,34c-8.82,0-16-7.18-16-16S9.18,2,18,2s16,7.18,16,16-7.18,16-16,16Z"/></svg>