<?xml version="1.0" encoding="UTF-8"?><svg id="Layer_1" xmlns="http://www.w3.org/2000/svg" width="48" height="48" viewBox="0 0 48 48"><path d="M24,10c-7.72,0-14,6.28-14,14s6.28,14,14,14,14-6.28,14-14-6.28-14-14-14Zm1.43,21.44c-.37,.37-.85,.56-1.44,.56s-1.07-.19-1.44-.56c-.37-.37-.55-.85-.55-1.43s.18-1.06,.55-1.43c.37-.37,.85-.56,1.44-.56s1.07,.19,1.44,.56c.37,.37,.55,.85,.55,1.43s-.18,1.06-.55,1.43Zm.55-5.41h-3.98V15.99h3.98v10.04Z"/><path d="M23.98,6C14.05,6,6,14.06,6,24s8.05,18,17.98,18,18.02-8.06,18.02-18S33.94,6,23.98,6Zm.02,34c-8.82,0-16-7.18-16-16S15.18,8,24,8s16,7.18,16,16-7.18,16-16,16Z"/></svg>