<?xml version="1.0" encoding="UTF-8"?><svg id="Layer_1" xmlns="http://www.w3.org/2000/svg" width="48" height="48" viewBox="0 0 48 48"><path d="M43,17v-2.03l-4.07-8.97H11.04L7,14.98v2.02c0,1.65,1.36,3,3.04,3h-.04v20h-3v2H43v-2h-3V20h-.05c1.68,0,3.05-1.35,3.05-3Zm-11-9l1.51,7v3h-2v-3l-1.51-7h2Zm-8,0h2v10h-2V8Zm-7.53,7l1.53-7h2l-1.53,7v3h-2v-3Zm-5.47,3h-.92c-.6,0-1.08-.48-1.08-1.08v-1.92l3-7h2l-3,7v3Zm27,22H12v-8h26v8Zm0-10H12v-10h26v10Zm3-13.08c0,.6-.48,1.08-1.08,1.08h-.92v-3l-3-7h2l3,7v1.92Z"/></svg>