<?xml version="1.0" encoding="UTF-8"?><svg id="Layer_1" xmlns="http://www.w3.org/2000/svg" width="36" height="36" viewBox="0 0 36 36"><path d="m8.02,28.62l-1.81.85.25,5.51c.03.56-.42,1.03-.98,1.03h0c-.52,0-.96-.41-.98-.93l-.34-6.73-1.73-1.16-.42.52v7.31c.01.54-.43.98-.97.98h-.04C.44,36,0,35.56,0,35.02v-8.02s1.43-1.78,1.43-1.78c.32-.41.9-.5,1.34-.21l.74.49.38-.76c.31-.61,1.12-.74,1.6-.26l.52.52.13,2.84,1.25-.59c.37-.18.82-.01,1,.36h0c.18.37.01.82-.36,1ZM36,2v12c0,1.1-.89,2-2,2h-2.98l-.03,3.47c0,.2-.12.38-.31.46-.06.03-.13.04-.19.04-.13,0-.26-.05-.35-.14l-3.89-3.82h-4.27c-1.1,0-2-.9-2-2.01V2c0-1.11.9-2,2-2h12c1.1,0,2,.89,2,2Zm-7,9.04c0-.55-.45-1-1-1s-1,.45-1,1,.45,1,1,1,1-.45,1-1Zm0-3.03v-3c0-.55-.45-1-1-1h0c-.55,0-1,.45-1,1v3c0,.55.45,1,1,1h0c.55,0,1-.45,1-1Zm7,26.5v1.5h-7v-1c0-.55-.45-1-1-1h-2.91l1.29-1.29c.39-.39.39-1.02,0-1.41l-.29-.29c-.39-.39-1.02-.39-1.41,0l-2.99,2.99h-6.69c-.55,0-1,.45-1,1v1h-5.35c0-4.34,2.22-6.62,3.98-7.54.07-.53.22-1.07.41-1.62l-6.97-5.93c-.52-.45-.45-1.28.14-1.62l.97-.57-.49-2,1.61-1.2c.4-.3.96-.26,1.31.1l6.78,6.82c.4-.26.81-.5,1.25-.69,1.15-.5,2.19-.75,3.22-.75s2.07.25,3.23.75c.19.08.46.22.71.34.65-.25,1.34-.37,2.02-.37,1.5,0,2.99.59,4.09,1.73,1.36,1.39,1.92,3.51,1.56,5.48,2.7,1.38,3.53,3.98,3.53,5.58Zm-20.09-9.71l-.94-.95-5.93-5.96.09.36.35,1.45-1.04.61,5.9,5.02.33.28c.38-.31.79-.58,1.24-.8Z"/></svg>