<?xml version="1.0" encoding="UTF-8"?><svg id="Layer_1" xmlns="http://www.w3.org/2000/svg" width="36" height="36" viewBox="0 0 36 36"><path d="M6.19,29.46l.3,6.53H-.01L.49,26.49l1.5-2,1.5,1,1-2,1.5,1.5,.13,2.84,1.93-.91,.64,1.36-2.49,1.17h-.01ZM21.99,12.49V1.49C21.99,.66,22.66-.01,23.49-.01h11.01c.83,0,1.5,.67,1.5,1.5V12.49c0,.83-.67,1.5-1.5,1.5h-1.5v3.95l-4.03-3.95h-5.46c-.83,0-1.5-.67-1.5-1.5h-.02Zm6-4.5h2V2.99h-2V7.99Zm.07,2.01c0,.29,.09,.53,.28,.72,.18,.19,.43,.28,.72,.28s.54-.09,.72-.28,.28-.43,.28-.72-.09-.53-.28-.72c-.18-.19-.43-.28-.72-.28s-.54,.09-.72,.28c-.19,.19-.28,.43-.28,.72Zm7.93,24.46v1.54h-7v-2h-3.91l2-2-1.7-1.7-3.7,3.7h-7.69v2H7.99c0-4.38,2.28-6.66,4.07-7.58,.07-.53,.23-1.07,.42-1.62L3.99,19.68l2.5-1-.5-2,2-1.5,7.92,7.22c.41-.26,.83-.5,1.28-.69,2.36-1,4.25-1,6.6,0,.2,.08,.47,.22,.73,.34,2.14-.8,4.61-.3,6.26,1.35,1.39,1.39,1.96,3.51,1.59,5.48,2.76,1.38,3.62,3.98,3.62,5.58Z"/></svg>