<?xml version="1.0" encoding="UTF-8"?><svg id="Layer_1" xmlns="http://www.w3.org/2000/svg" width="36" height="36" viewBox="0 0 36 36"><path d="M28.1,18c-3.31,0-6,2.69-6,6,0,.28,.03,.56,.06,.83,0,.05,.02,.1,.02,.16,.02,.14,.05,.28,.09,.42,.95,4.56,5.83,10.59,5.83,10.59,0,0,4.87-6.03,5.83-10.59l.09-.42s.02-.1,.02-.16c.04-.27,.06-.55,.06-.83,0-3.31-2.69-6-6-6Zm0,9c-1.66,0-3-1.34-3-3s1.34-3,3-3,3,1.34,3,3-1.34,3-3,3Zm-1-23.99C27.1,1.35,25.76,.01,24.1,.01H5.1C3.44,.01,2.1,1.35,2.1,3.01l.04,18.02c0,1.64,1.33,2.97,2.97,2.97h.99v6l6-6h6.99c0-4.61,3.53-8.41,8.01-8.94V3.01Zm-11.42,14.57c-.28,.28-.64,.42-1.08,.42s-.8-.14-1.08-.42-.42-.64-.42-1.08,.14-.8,.42-1.08,.64-.42,1.08-.42,.8,.14,1.08,.42,.42,.64,.42,1.08-.14,.8-.42,1.08Zm.42-4.58h-3V6h3v7Z"/></svg>