<?xml version="1.0" encoding="UTF-8"?><svg id="Layer_1" xmlns="http://www.w3.org/2000/svg" width="36" height="36" viewBox="0 0 36 36"><path d="M1.38,10.08l-1.38-1.38,2.3-2.3c.44,.49,.98,.9,1.59,1.17l-2.51,2.51Zm6.53-2.06h-1.96v3.95h1.95v-3.96h.01Zm3.61-1.66c-.44,.5-.97,.9-1.57,1.19l2.54,2.54,1.38-1.38s-2.35-2.35-2.35-2.35ZM.01,33H14.01v-11l1-2V5.5c0-1.38-1.12-2.5-2.5-2.5h-1.5c0,1.65-1.34,3-3,3h-2c-1.65,0-2.99-1.34-3-2.99V0H12.44c1.57,0,2.99,.67,4,1.73,1-1.06,2.42-1.73,4-1.73h9.56V3.01c0,1.65-1.34,2.99-2.99,2.99h-2.06c-1.65,0-3-1.35-3-3h-1.52c-1.38,0-2.5,1.12-2.5,2.5l.07,14.5,1,2v11h17v3H.01v-3ZM28.01,2h-4v1c0,.55,.45,1,1,1h2c.55,0,1-.45,1-1v-1Zm6.5,7.04h-11.03c-.83,0-1.5,.67-1.5,1.5l.03,10.97c0,.83,.67,1.5,1.5,1.5h5.5l4,4v-4l1.48,.02c.83,0,1.5-.74,1.5-1.57V10.54c0-.83-.66-1.5-1.49-1.5h.01Zm-4.72,10.72c-.19,.19-.43,.28-.72,.28s-.54-.09-.72-.28c-.19-.19-.28-.43-.28-.72s.09-.53,.28-.72c.19-.19,.43-.28,.72-.28s.54,.09,.72,.28c.19,.19,.28,.43,.28,.72s-.09,.53-.28,.72Zm.23-2.75h-2v-5h2v5Z"/></svg>