<?xml version="1.0" encoding="UTF-8"?><svg id="Layer_1" xmlns="http://www.w3.org/2000/svg" width="36" height="36" viewBox="0 0 36 36"><path d="m36,15c0,.55-.45,1-1,1h0c-.55,0-1-.45-1-1v-2h-15v2c0,.55-.45,1-1,1h0c-.55,0-1-.45-1-1v-6.06c0-.7.37-1.3.92-1.65l1.14-5.78c.22-.89,1.02-1.51,1.94-1.51h11c.92,0,1.72.62,1.94,1.51l1.13,5.8c.55.35.92.97.92,1.67v6.01Zm-16-8h13l-1-5h-11l-1,5Zm1,3c0-.55-.45-1-1-1s-1,.45-1,1,.45,1,1,1,1-.45,1-1Zm9-1h-7v2h7v-2Zm4,1c0-.55-.45-1-1-1s-1,.45-1,1,.45,1,1,1,1-.45,1-1Zm-10.68,18.46c-1.02-1.72-2.94-2.65-4.87-2.42l-1.85-5.73c-.13-.38-.38-.71-.72-.95-.33-.23-.73-.36-1.14-.36h-.75c-.55,0-1,.45-1,1h0c0,.55.45,1,1,1h.72s.66,2,.66,2h-7.79l-.18-1h.32c.53,0,.94-.49.94-1.01,0-.54-.45-.98-1-.98h-2.7c-.54,0-.98.43-.98.96s.45,1.03.99,1.03h.37l.4,1.92-1.74,6.82c-.12.49.11,1.03.59,1.21.12.04.24.07.36.07.45,0,.86-.3.97-.75l.71-2.76c.83.54,1.35,1.47,1.35,2.51,0,.03-.02.08-.02.11,0,.02,0,.03,0,.04-.08,1.58-1.38,2.85-2.98,2.85s-3-1.35-3-3c0-.93.42-1.79,1.15-2.36.44-.34.51-.97.17-1.4-.34-.44-.97-.51-1.4-.17C.7,28.01,0,29.45,0,31,0,33.76,2.24,36,5,36s5-2.24,5-5c0-.1-.02-.2-.02-.29l6.2-5.23,1.88,5.83c.13.42.53.69.95.69.15,0,.3-.03.44-.1.45-.21.65-.74.5-1.21l-.87-2.69c1.01.02,1.97.56,2.51,1.47.84,1.42.37,3.27-1.05,4.11-1.42.84-3.27.37-4.11-1.05-.47-.8-.55-1.76-.21-2.62.2-.51-.05-1.09-.57-1.3-.52-.2-1.09.05-1.3.57-.56,1.44-.44,3.04.35,4.37.93,1.58,2.6,2.45,4.31,2.45.87,0,1.74-.22,2.54-.7,2.37-1.4,3.16-4.48,1.75-6.85Zm-13.93.16c-.5-.91-1.28-1.65-2.24-2.11l.39-1.53,6.14.02-4.3,3.62Z"/></svg>