<?xml version="1.0" encoding="UTF-8"?><svg id="Layer_1" xmlns="http://www.w3.org/2000/svg" width="36" height="36" viewBox="0 0 36 36"><path d="M17.71,17.39c-.18-.24-.37-.46-.59-.65,.29-.03,.57-.09,.86-.18,2.18-.71,3.37-3.05,2.67-5.23-.57-1.76-2.2-2.87-3.95-2.87-.43,0-.86,.07-1.28,.2-.28,.09-.55,.21-.8,.36,.06-.28,.09-.57,.09-.87,0-2.29-1.86-4.15-4.15-4.15s-4.15,1.86-4.15,4.15c0,.3,.03,.59,.09,.87-.25-.14-.52-.27-.8-.36-.43-.14-.86-.2-1.28-.2-1.75,0-3.38,1.12-3.95,2.87-.71,2.18,.48,4.52,2.67,5.23,.28,.09,.57,.15,.86,.18-.21,.19-.41,.41-.59,.65-1.35,1.86-.94,4.45,.92,5.8,.74,.54,1.59,.79,2.44,.79,1.28,0,2.55-.59,3.36-1.71,.18-.24,.32-.5,.44-.76,.12,.26,.26,.52,.44,.76,.81,1.12,2.08,1.71,3.36,1.71,.85,0,1.7-.26,2.44-.79,1.86-1.35,2.27-3.94,.92-5.8Zm-7.14,.61c-1.92,0-3.47-1.55-3.47-3.47s1.55-3.47,3.47-3.47,3.47,1.55,3.47,3.47-1.55,3.47-3.47,3.47Zm25.5,17.98l-3.29-.02c-.51-1.09-1.14-2.14-1.86-3.12-1.39-1.97-3.15-3.64-5.22-4.9-2.25-1.37-4.69-2.14-7.18-2.34,0,0,.01,0,.02-.01,1.54-1.12,2.55-2.77,2.85-4.65,.06-.35,.08-.7,.08-1.05,2.22-.12,4.33-.02,6.54,.33v-3.25h-5.02l3.92-5.66h-2.61l3.48-5.66h-1.74L29.53,.01l3.48,5.66h-1.74l3.48,5.66h-2.61l3.92,5.66h-5.02v3.91c1.72,.45,3.4,1.03,5.05,1.77l-.03,3.17c-1.5-.67-3.86-1.56-5.53-2l-2.95-.64c-1.79-.29-3.83-.36-5.81-.29,1.92,.47,3.76,1.22,5.5,2.25,3.59,2.12,7.29,6.34,8.8,10.84ZM12.07,26.57l.06,9.43-3-.03c-5.08-.43-9.13-4.74-9.13-9.93,4.05,0,7.54,2.45,9.07,5.94v-5.43c.52-.18,1.02-.4,1.49-.69,.47,.3,.98,.52,1.51,.7Z"/></svg>