<?xml version="1.0" encoding="UTF-8"?><svg id="Layer_1" xmlns="http://www.w3.org/2000/svg" width="36" height="36" viewBox="0 0 36 36"><path d="M19.41.49c-.4-.32-.9-.49-1.41-.49s-1.01.18-1.41.49l-2.2,1.76h7.2l-2.2-1.76Z" style="stroke-width:0px;"/><path d="M14.68,21.94l.37-.3h.01s.8-.58.8-.58c.63-.46,1.38-.69,2.13-.69s1.56.25,2.2.74l1.9,1.41,9.42-6.76V4.5H4.5v11.23l9.43,6.77.75-.56ZM9,7.84h18c.62,0,1.13.5,1.13,1.13h0c0,.62-.5,1.13-1.13,1.13H9c-.62,0-1.13-.5-1.13-1.13h0c0-.62.5-1.13,1.13-1.13ZM9,12.35h18c.62,0,1.13.5,1.13,1.13h0c0,.62-.5,1.13-1.13,1.13H9c-.62,0-1.13-.5-1.13-1.13h0c0-.62.5-1.13,1.13-1.13ZM10.16,16.85h6.7c.62,0,1.13.5,1.13,1.13h0c0,.62-.5,1.13-1.13,1.13h-3.96l-2.74-2.25Z" style="stroke-width:0px;"/><polygon points="33.75 11.98 33.75 14.48 35.43 13.32 33.75 11.98" style="stroke-width:0px;"/><polygon points="2.25 11.98 .57 13.32 2.25 14.48 2.25 11.98" style="stroke-width:0px;"/><polygon points="0 15.66 0 33.81 12.09 24.04 0 15.66" style="stroke-width:0px;"/><path d="M20.74,24.33l-1.93-1.43c-.23-.18-.53-.28-.83-.28-.2,0-.51.04-.78.24l-1.14.85L.93,35.96c.07.01.13.04.2.04h32.67l-12.26-11.08-.79-.58Z" style="stroke-width:0px;"/><path d="M23.92,24.04l12.07,10.91s.01-.05.01-.07V15.66l-12.08,8.37Z" style="stroke-width:0px;"/></svg>
