<?xml version="1.0" encoding="UTF-8"?><svg id="Layer_1" xmlns="http://www.w3.org/2000/svg" width="48" height="48" viewBox="0 0 48 48"><path d="M25.99,15.35c.07-.43,.12-.87,.12-1.32,0-4.97-4.52-8.89-9.67-7.87-3.08,.61-5.56,3.06-6.21,6.13-.85,4.08,1.38,7.76,4.8,9.16v-6.37c-1.08-.48-1.77-1.7-1.39-3.02,.23-.8,.89-1.45,1.7-1.66,1.67-.45,3.18,.8,3.18,2.4,0,1.02-.61,1.89-1.49,2.28l.03,10.77-8.05,7.16,1.34,1.59,.66-.59,.06,8h14l-.03-7.98,.69,.57,1.31-1.57-8-7.11v-3.9c1.31-.16,2.59-.66,3.62-1.38l2.54,1.57,1.61-.65,1.22,.89v1.52l2.08,1.36,1.64-.65,1.22,.89v1.53l2.21,1.36,3.79-1.62v-2.82l-12.97-8.65Zm-5.89,18.71l.02,2.94h-4v-2.94h3.98Z"/></svg>