<?xml version="1.0" encoding="UTF-8"?><svg id="Layer_1" xmlns="http://www.w3.org/2000/svg" width="36" height="36" viewBox="0 0 36 36"><path d="M35.03,25.73l-.99,1.02v1.02h-2.02v-1.02l-.99-1.02-.99,1.02v6.01h1.99v-2h2.02v2h1.99v-6.01l-.99-1.02h-.02Zm-8.01-15.39s.02,.01,.03,.02c.18,.95,1.1,1.57,2.05,1.39,.55-.11,1.01-.47,1.25-.97,.36,.54,.97,.91,1.67,.91,1.1,0,1.99-.89,1.99-1.99,0-.15-.02-.3-.05-.44,.64-.53,1.05-1.32,1.05-2.22,0-1.38-.97-2.53-2.26-2.82-.42-.87-1.3-1.42-2.27-1.42-.78,0-1.47,.36-1.93,.92h-.03c-.24,0-.48,.02-.71,.07-2.14,.34-3.79,2.19-3.79,4.43v3.58h3v-1.46Zm2.93,11.44l-1.94,2.39-.98-1.03v9.63H13.03v-9.58l-1.1,.95-1.97-2.37,10-8,4.06,2.96v-1.91h3v4.35s2.93,2.61,2.93,2.61Zm-12.93,4.99h6v-4.03l-6,.03v4Zm-10.92-5.34l3.92,4.89v6.41h-2.98v-3.05l-3.01-1.63,1-1.73,2.01,1.05v-2.74c-.48,.11-1.08,.17-1.85,.17-1.97,0-3.57-1.7-3.57-3.79,0-.6,.14-1.16,.38-1.66-1.21-.88-2-2.35-2-4.02,0-2.69,2.06-4.87,4.59-4.87h.03c.23-.8,.65-1.5,1.29-2,.63-.49,1.37-.72,2.14-.72,1.38,0,2.85,.76,3.88,2.13,.47-.16,.95-.24,1.42-.24,1.18,0,2.26,.5,2.94,1.47,.32,.46,.51,.99,.59,1.54L6.1,21.41v.02Z"/></svg>