<?xml version="1.0" encoding="UTF-8"?><svg id="Layer_1" xmlns="http://www.w3.org/2000/svg" width="36" height="36" viewBox="0 0 36 36"><path d="m7.99,22h-2.26c-2.48-.15-4.37-2.17-4.23-4.54.02-.25.05-.5.11-.74-1.91-1.51-2.17-4.22-.58-6.04.3-.34.64-.63,1.03-.87-1.22-2.06-.45-5.67,1.71-6.84.69-.37,1.45-.54,2.21-.54.68-.87,1.76-1.44,2.99-1.44s2.31.57,3,1.45c1.24,0,2.47.47,3.35,1.41,1.28,1.37,1.51,3.36.57,4.96,1.52.93,2.25,3.58,2.02,5.17l-7.94,6.28v-.92h0v-2.32l2.41-2.44c.39-.39.39-1.03,0-1.41-.39-.39-1.02-.39-1.41,0l-1,1.01v-2.19c0-.55-.45-1-1-1s-1,.45-1,1v4.91l-.99-1c-.39-.39-1.02-.4-1.41,0-.39.39-.39,1.02,0,1.41l2.41,2.44v2.25s.01.05.01.07c0,0-.01.02-.02.03v-.1Zm.28,3.62l-.05-.06c-.09-.11-.16-.23-.24-.35v6.79c0,.55.45,1,1,1s1-.45,1-1v-5.36c-.67-.13-1.27-.49-1.71-1.02Zm17.51-10.89l.35.35c.39.39,1.02.39,1.41,0,.39-.39.39-1.02,0-1.41l-.35-.35c-.39-.39-.39-1.02,0-1.41,1.17-1.17,1.17-3.07,0-4.24l-.35-.35c-.39-.39-1.02-.39-1.41,0-.39.39-.39,1.02,0,1.41l.35.35c.39.39.39,1.02,0,1.41-1.17,1.17-1.17,3.07,0,4.24Zm7.22,12.27h0c-.55,0-1,.44-1,.99v1h-2.03v-1c0-.55-.45-.99-1-.99s-1,.44-1,.99v4c0,.55.45.99,1,.99s1-.44,1-.99v-1.01h2.03v1.01c0,.55.45.99,1,.99h0c.55,0,1-.44,1-.99v-4c0-.55-.45-.99-1-.99Zm-5.21-2.86h0c-.37.46-1.06.48-1.46.06l-.36-.29v8.06c0,.55-.45,1-1,1l-12.06.02c-.55,0-1-.45-1-1v-7.9s-.33.34-.33.34c-.41.36-1.04.31-1.39-.11l-.05-.06c-.35-.42-.28-1.05.15-1.39l7.99-6.31c.36-.28.86-.29,1.22-.02l4.49,3.24v-1.48c0-.54.44-.98.98-.98h.05c.54,0,.98.44.98.98v2.87c0,.15.07.29.18.39l1.53,1.24c.39.35.43.94.11,1.34Zm-6.82,1.86c0-.55-.45-1-1-1h-2c-.55,0-1,.45-1,1v1c0,.55.45,1,1,1h2c.55,0,1-.45,1-1v-1Z"/></svg>