<?xml version="1.0" encoding="UTF-8"?><svg id="Layer_1" xmlns="http://www.w3.org/2000/svg" width="36" height="36" viewBox="0 0 36 36"><path d="M14,24.05h-2V14.86c0-1.55,1.31-2.81,2.98-2.81h6.04c1.56,0,2.83,1.11,2.99,2.53v9.47h-2v3.95c-1.23,.09-2.55,.15-3.99,.15s-2.77-.05-4.01-.14v-3.95Zm12.01-3.05v3c4.86,.82,6.67,2.07,6.67,3.2,0,1.47-4.85,3.85-14.68,3.85s-14.81-2.27-14.81-3.87c0-1.17,2.13-2.33,6.76-3.13v-2.99C3.8,22.15,0,24.38,0,27.19c0,4.48,9.1,6.82,18,6.82s17.98-2.34,17.98-6.82c0-2.87-3.6-5.13-9.97-6.2Zm-8.01-11c1.93,0,3.5-1.57,3.5-3.5s-1.57-3.5-3.5-3.5-3.5,1.57-3.5,3.5,1.57,3.5,3.5,3.5Z"/></svg>