<?xml version="1.0" encoding="UTF-8"?><svg id="Layer_1" xmlns="http://www.w3.org/2000/svg" width="36" height="36" viewBox="0 0 36 36"><path d="m19.92,17.86c1.54-2.3.83-5.36-1.58-6.83,1.09-1.84.82-4.14-.65-5.72-1.02-1.09-2.44-1.63-3.87-1.63-.79-1.01-2.04-1.67-3.46-1.67s-2.66.66-3.45,1.66c-.87,0-1.75.2-2.55.62-2.5,1.34-3.38,4.36-1.98,6.74-.45.27-.85.61-1.19,1-1.83,2.1-1.53,5.22.67,6.97-.07.28-.11.57-.13.86-.17,2.73,2.01,5.07,4.87,5.23h.3s2.09,0,2.09,0v8.91c0,.55.45,1,1,1s1-.45,1-1v-8.91h2.83c.4,0,.81-.05,1.2-.13,2.79-.63,4.51-3.3,3.84-5.96.41-.33.76-.71,1.05-1.14Zm-6.5-2.36l-2.42,2.44v5.09c0,.55-.45,1-1,1s-1-.45-1-1v-2.37l-2.42-2.44c-.39-.39-.39-1.03,0-1.41.39-.39,1.03-.39,1.41,0l1,1v-6.66c0-.55.45-1,1-1s1,.45,1,1v3.94l1-1c.39-.39,1.02-.4,1.41,0,.39.39.39,1.02,0,1.41Zm7.51-6.52c-.3-.44-.2-1.05.23-1.37l6.69-4.97c.35-.26.84-.26,1.19,0l2.88,2.15v-1.76c0-.55.45-1,1-1h0c.55,0,1,.45,1,1v3.26l1,.75c.31.24.48.37.57.5.27.18.46.47.46.82,0,.55-.45.99-.99.99-.06,0-.11-.02-.17-.04-.06,0-.12,0-.17-.04-.03-.01-.05-.02-.08-.04,0,0,0,0,0,0h0c-.11-.06-.21-.13-.3-.22l-.3-.23v5.25c0,.55-.45,1-1,1-.05,0-.09-.02-.13-.03h-8.73s-.09.03-.13.03c-.55,0-1-.45-1-1v-5.24l-.57.42c-.45.34-1.1.23-1.42-.24h0Zm14.07,29.03c-.37,0-.71-.21-.88-.54-3.9-7.51-9.88-10.99-14.6-13.08.17-.22.33-.44.48-.68.22-.35.39-.72.54-1.1,5.1,2.11,11.4,6.42,15.34,13.94.35.67-.13,1.47-.88,1.47Zm-12.57-20.8c2.59.36,8.26,1.39,12.95,3.83.33.17.54.52.54.89h0c0,.75-.79,1.24-1.45.89-5.27-2.75-9.98-3.69-12.88-3.85.37-.56.65-1.15.85-1.77Z"/></svg>