<?xml version="1.0" encoding="UTF-8"?><svg id="Layer_1" xmlns="http://www.w3.org/2000/svg" width="36" height="36" viewBox="0 0 36 36"><path d="M14,7C14,3.14,10.87,0,7,0S0,3.14,0,7s3.13,7,7,7,7-3.13,7-7Zm-6.28,3.72c-.19,.19-.43,.28-.72,.28s-.54-.09-.72-.28c-.19-.19-.28-.43-.28-.72s.09-.53,.28-.72c.19-.19,.43-.28,.72-.28s.54,.09,.72,.28c.19,.19,.28,.43,.28,.72s-.09,.53-.28,.72Zm.21-2.72h-2V3h2v5Zm24.21,22.07L25.6,5.01h-6.35l-6.54,25.07c-2.12,.35-3.75,2.19-3.75,4.43v1.49h26.97v-1.51c0-2.24-1.65-4.08-3.8-4.42ZM21.56,8.01h1.72l2.09,8.01h-5.9l2.09-8.01Zm-4.95,18.99l1.37-5.27h8.87l1.37,5.27h-11.62Z"/></svg>