<?xml version="1.0" encoding="UTF-8"?><svg id="Layer_1" xmlns="http://www.w3.org/2000/svg" width="36" height="36" viewBox="0 0 36 36"><path d="m17,14.89c0-.36-.19-.71-.51-.88-4.35-2.4-9.63-2.4-13.98,0-.32.17-.51.52-.51.88v12.11h15v-12.11Zm-5,7.11c0,.55-.45,1-1,1h-3c-.55,0-1-.45-1-1h0c0-.55.45-1,1-1h3c.55,0,1,.45,1,1h0Zm2-3.99c0,.55-.45,1-1,1h-7c-.55,0-1-.45-1-1h0c0-.55.45-1,1-1h7c.55,0,1,.45,1,1h0Zm22,2.91h0c0,.72-.73,1.18-1.39.9-4.57-1.92-9.45-2.82-14.4-2.82-.4,0-.81,0-1.21.02v-2s0,0,0,0c3.1-.09,6.11.17,9,.74v-2.75h-1.18c-1.65-.11-2.92-1.63-2.82-3.4.01-.19.04-.37.08-.56-1.27-1.14-1.45-3.16-.39-4.53.2-.25.43-.47.69-.65-.81-1.55-.3-3.51,1.14-4.38.46-.28.97-.41,1.48-.41.46-.65,1.18-1.08,2-1.08s1.54.43,2,1.09c.82,0,1.65.35,2.24,1.06.85,1.02,1.01,2.52.38,3.72,1.4.96,1.81,2.94.91,4.44-.17.28-.37.53-.61.74.38,1.73-.61,3.46-2.22,3.87-.23.06-.46.09-.7.09h-1v3.2c1.85.47,3.65,1.06,5.39,1.8.37.16.61.52.61.92Zm-17,10.08v1H0v-1c0-1.1.9-2,2-2h15c1.1,0,2,.9,2,2Zm16.39,3.58c.31.66-.17,1.42-.9,1.42h-.05c-.38,0-.73-.23-.89-.57-1.96-4.16-5.2-7.72-9.27-10.1-1.66-.97-3.44-1.71-5.28-2.22v-2.1c2.17.55,4.28,1.41,6.28,2.58,4.41,2.58,7.96,6.43,10.1,11Z" style="fill:#1d1d1b;"/></svg>