<?xml version="1.0" encoding="UTF-8"?><svg id="Layer_1" xmlns="http://www.w3.org/2000/svg" width="36" height="36" viewBox="0 0 36 36"><path d="M8.99,25.08l.03,7.89-1.99-.02C3.08,32.62-.08,29.29-.08,25.29c3.16,0,5.87,1.89,7.06,4.59v-4.79c.35-.14,.69-.3,1-.51,.31,.21,.65,.37,1,.51h.01Zm27,.62v1.26H13.99v-1.25c0-.71,.28-1.34,.71-1.85,.06-.06,.11-.13,.17-.19,.32-.31,.7-.56,1.13-.72v-4.22c1.65-1.32,2.41-3.57,1.72-5.7-.33-1-.94-1.85-1.72-2.47V6.46c0-.83,.67-1.5,1.5-1.5h1.91c1.54-1.25,3.5-2,5.64-2s4.1,.75,5.64,2h1.81c.83,0,1.5,.67,1.5,1.5V22.97c1.09,.44,2,1.49,2,2.74h0Zm-8-10.74h-6v2h6v-2Zm1-4h-8v2h8v-2ZM7.97,7.97c-1.78,0-3.23,1.44-3.23,3.23,0,.23,.03,.46,.07,.68-.49-.29-1.05-.44-1.62-.44-1.36,0-2.62,.87-3.07,2.23-.55,1.7,.38,3.51,2.08,4.06,.21,.07,.44,.12,.66,.14-1.33,1.19-1.45,3.23-.26,4.56,.15,.17,.32,.32,.51,.46,1.43,1.05,3.44,.74,4.49-.69,.14-.19,.26-.4,.35-.61,.52,1.17,1.67,1.92,2.95,1.92,.66,0,1.32-.2,1.89-.62,1.44-1.05,1.76-3.07,.71-4.51-.13-.18-.29-.36-.46-.51,1.77-.18,3.06-1.77,2.88-3.54-.02-.22-.07-.45-.14-.66-.55-1.69-2.37-2.62-4.07-2.07-.22,.07-.43,.17-.62,.28,.05-.22,.07-.45,.07-.68,0-1.78-1.44-3.23-3.23-3.23m0,10.89c-1.49,0-2.7-1.21-2.7-2.7s1.21-2.7,2.7-2.7,2.7,1.21,2.7,2.7-1.21,2.7-2.7,2.7"/></svg>