<?xml version="1.0" encoding="UTF-8"?><svg id="Layer_1" xmlns="http://www.w3.org/2000/svg" width="36" height="36" viewBox="0 0 36 36"><path d="m1,30h13v2H1c-.55,0-1-.45-1-1s.45-1,1-1Zm9-2H3V11c0-.55.45-1,1-1h6s0,18,0,18Zm-2-10c0-.55-.45-1-1-1h-1c-.55,0-1,.45-1,1h0c0,.55.45,1,1,1h1c.55,0,1-.45,1-1h0Zm0-4c0-.55-.45-1-1-1h-1c-.55,0-1,.45-1,1h0c0,.55.45,1,1,1h1c.55,0,1-.45,1-1h0Zm28,5.6v16.4h-9v-16.41c0-.27.11-.53.3-.71l3.58-2.7c.35-.27.84-.27,1.2,0l3.62,2.71c.19.19.3.45.3.72Zm-3,10.4c0-.55-.45-1-1-1h-1c-.55,0-1,.45-1,1h0c0,.55.45,1,1,1h1c.55,0,1-.45,1-1h0Zm0-4c0-.55-.45-1-1-1h-1c-.55,0-1,.45-1,1h0c0,.55.45,1,1,1h1c.55,0,1-.45,1-1h0Zm0-4c0-.55-.45-1-1-1h-1c-.55,0-1,.45-1,1h0c0,.55.45,1,1,1h1c.55,0,1-.45,1-1h0Zm-8.3-3.12c.19.19.3.45.3.72v16.4h-9v-16.41c0-.27.11-.53.3-.71l3.58-2.7c.36-.27.85-.27,1.2,0l3.62,2.71Zm-2.7,11.12c0-.55-.45-1-1-1h-1c-.55,0-1,.45-1,1h0c0,.55.45,1,1,1h1c.55,0,1-.45,1-1h0Zm0-4c0-.55-.45-1-1-1h-1c-.55,0-1,.45-1,1h0c0,.55.45,1,1,1h1c.55,0,1-.45,1-1h0Zm0-4c0-.55-.45-1-1-1h-1c-.55,0-1,.45-1,1h0c0,.55.45,1,1,1h1c.55,0,1-.45,1-1h0Zm5-5.4l-1,.76h0s-3.72-2.78-3.72-2.78c-.52-.39-1.15-.6-1.8-.6s-1.29.22-1.81.61l-3.58,2.7-.1.08-.09.09c-.47.46-.78,1.07-.87,1.72l-.03,8.83h-2V1c0-.55.45-1,1-1h13c.55,0,1,.45,1,1v15.6Zm-9-8.6c0-.55-.45-1-1-1h-1c-.55,0-1,.45-1,1h0c0,.55.45,1,1,1h1c.55,0,1-.45,1-1h0Zm0-4c0-.55-.45-1-1-1h-1c-.55,0-1,.45-1,1h0c0,.55.45,1,1,1h1c.55,0,1-.45,1-1h0Zm6,0c0-.55-.45-1-1-1h-1c-.55,0-1,.45-1,1h0c0,.55.45,1,1,1h1c.55,0,1-.45,1-1h0Z"/></svg>