<?xml version="1.0" encoding="UTF-8"?><svg id="Layer_1" xmlns="http://www.w3.org/2000/svg" width="48" height="48" viewBox="0 0 48 48"><path d="M26.01,18.01c0,2.21-1.54,4-3.43,4h-4.61V14.01h4.61c1.89,0,3.43,1.79,3.43,4Zm2.77,10.99h-2.77v7h-4v6h-2v-6H10.51c-2.48,0-4.5-2.02-4.5-4.5V10.5c0-2.48,2.02-4.5,4.5-4.5H31.51c2.48,0,4.5,2.02,4.5,4.5v13.21c-3.08,.56-5.76,2.5-7.23,5.29Zm-.77-10.99c0-3.3-2.48-5.98-5.52-5.98h-6.48V30h1.96v-6.01h4.52c3.04,0,5.52-2.68,5.52-5.98Zm12.56,21.35c-.83,.41-1.76,.64-2.74,.64-2.25,0-4.22-1.2-5.32-3h4.11l.91-2h-5.73c-.08-.4-.12-.81-.12-1.24,0-.26,.02-.51,.05-.76h6.79l.91-2h-7.1c1.02-2.05,3.14-3.47,5.58-3.47,1,0,1.95,.24,2.79,.67l.83-1.82c-1.09-.54-2.32-.85-3.62-.85-3.57,0-6.61,2.29-7.75,5.47h-2.07v2h1.54c-.02,.25-.04,.51-.04,.76,0,.42,.04,.83,.1,1.24h-1.6v2h2.16c1.26,2.94,4.18,5,7.57,5,1.53,0,2.95-.43,4.18-1.15l-1.44-1.49h.01Z"/></svg>