<?xml version="1.0" encoding="UTF-8"?><svg id="Layer_1" xmlns="http://www.w3.org/2000/svg" width="48" height="48" viewBox="0 0 48 48"><path d="M26,18.01c0,2.21-1.54,4-3.43,4h-4.61V14.01h4.61c1.89,0,3.43,1.79,3.43,4h0Zm5.54,7.99h2.96c.83,0,1.5,.65,1.5,1.47v1.54h4.5c.83,0,1.5,.67,1.5,1.5v10.01c0,.83-.67,1.5-1.5,1.5h-15.01c-.83,0-1.5-.67-1.5-1.5v-10.01c0-.83,.67-1.5,1.5-1.5h4.5v-1.51c0-.83,.68-1.5,1.54-1.5h.01Zm.46,3h2v-1h-2v1Zm-10,7v6h-2v-6H10.5c-2.48,0-4.5-2.02-4.5-4.5V10.5c0-2.48,2.02-4.5,4.5-4.5H31.5c2.48,0,4.5,2.02,4.5,4.5v13.85c-.46-.22-.96-.35-1.5-.35h-2.96c-1.78,0-3.26,1.3-3.5,3h-2.54c-1.93,0-3.5,1.57-3.5,3.5v5.5Zm.48-12.01c3.04,0,5.52-2.68,5.52-5.98s-2.48-5.98-5.52-5.98h-6.48V30h1.96v-6.01h4.52Z"/></svg>