<?xml version="1.0" encoding="UTF-8"?><svg id="Layer_1" xmlns="http://www.w3.org/2000/svg" width="36" height="36" viewBox="0 0 36 36"><path d="M21.96,10.49c1.33-1.96,1.49-4.38,.22-6.13-.92-1.26-2.4-1.9-4-1.9-.63,0-1.29,.1-1.93,.3-1.4-1.78-3.39-2.76-5.27-2.76-1.04,0-2.05,.3-2.91,.93-.87,.65-1.45,1.56-1.76,2.59-.02,0-.03,0-.05,0C2.8,3.52,0,6.34,0,9.81c0,2.16,1.08,4.06,2.72,5.19-.32,.65-.51,1.38-.51,2.15,0,2.7,2.18,4.89,4.86,4.89h.22c.89,0,2.17,0,2.93-.08l-.11,2.92-2.75-1.59-1,1.73,3.66,2.11-.34,8.9h3.96l-.59-14.09c.96,.08,2.56,.09,3.63,.09,3.85,0,6.96-3.14,6.96-7.01,0-1.74-.63-3.32-1.67-4.54Zm-2.66,25.55h2.13l1.45-4h8.24l1.45,4h2.13l-1.45-4h2.75v-2h-3.48l-1.09-3h2.57v-2h-14v2h2.57l-1.09,3h-3.48v2h2.75l-1.45,4Zm5.4-9h4.6l1.09,3h-6.78l1.09-3Z"/></svg>