<?xml version="1.0" encoding="UTF-8"?><svg id="Layer_1" xmlns="http://www.w3.org/2000/svg" width="36" height="36" viewBox="0 0 36 36"><path d="m33.99,22h-2.99v-1.92c0-.57-.2-1.06-.6-1.46-.4-.41-.89-.61-1.45-.61h-3.89c-.57,0-1.05.2-1.45.61-.4.41-.6.9-.6,1.46v1.92h-3.01c-.55,0-1.02.2-1.41.59-.39.39-.58.87-.58,1.43v9.94c0,.56.19,1.04.58,1.44.39.4.86.6,1.41.6h14c.55,0,1.02-.2,1.42-.6.4-.4.59-.88.59-1.44v-9.94c0-.56-.2-1.03-.59-1.43-.39-.39-.87-.59-1.42-.59Zm-4.99,0h-4v-2h4v2ZM25.5,0H4.5C2.02,0,0,2.02,0,4.5v21C0,27.98,2.02,30,4.5,30h11.5v-5.98c0-1.08.4-2.06,1.16-2.83.77-.78,1.74-1.19,2.83-1.19h1.01c.02-1.06.42-2.03,1.17-2.79.78-.79,1.77-1.21,2.88-1.21h3.89c.32,0,.63.05.94.12l.12-.12V4.5C30,2.02,27.98,0,25.5,0Zm-9.02,17.99h-4.52v5.03c0,.54-.44.98-.98.98s-.98-.44-.98-.98V7.01c0-.54.44-.98.98-.98h5.5c3.04,0,5.52,2.68,5.52,5.98s-2.48,5.98-5.52,5.98Zm.09-9.98h-4.61v8h4.61c1.89,0,3.43-1.79,3.43-4s-1.54-4-3.43-4Z"/></svg>