<?xml version="1.0" encoding="UTF-8"?><svg id="Layer_1" xmlns="http://www.w3.org/2000/svg" width="36" height="36" viewBox="0 0 36 36"><path d="M16.57,8.01h-4.61v8h4.61c1.89,0,3.43-1.79,3.43-4s-1.54-4-3.43-4Z"/><path d="M29,20c.34,0,.67,.02,.99,.06V4.5c0-2.48-2.01-4.5-4.49-4.5H4.5C2.02,0,0,2.02,0,4.5V25.5c0,2.48,2.02,4.5,4.5,4.5h15.56c-.04-.33-.06-.66-.06-1,0-4.97,4.03-9,9-9Zm-17.04-2.02v6.01h-1.96V6.02h6.48c3.04,0,5.52,2.68,5.52,5.98s-2.48,5.98-5.52,5.98h-4.52Z"/><path d="M29.02,22.03c-3.86,0-6.98,3.13-6.98,6.98s3.13,6.98,6.98,6.98,6.98-3.13,6.98-6.98-3.13-6.98-6.98-6.98Zm.54,11.3c-1.69,0-3.28-.95-3.88-2.68h0s-1.19,0-1.19,0v-1.1h.96c-.01-.11-.02-.29-.02-.45,0-.2,.01-.33,.02-.45h-.96v-1.09h0s1.18,0,1.18,0c.6-1.75,2.22-2.71,3.9-2.71,.88,0,1.58,.19,2.14,.57h0l-.58,1.16c-.41-.3-.95-.44-1.56-.44-.96,0-1.88,.45-2.34,1.41h3.44l-.53,1.09h-3.2c-.01,.1-.03,.24-.03,.44,0,.23,.01,.38,.03,.46h2.83l-.51,1.1h-2.01c.46,.91,1.34,1.35,2.31,1.35,.7,0,1.31-.2,1.74-.6h0l.7,1.08c-.59,.5-1.44,.85-2.44,.85Z"/></svg>