<?xml version="1.0" encoding="UTF-8"?><svg id="Layer_1" xmlns="http://www.w3.org/2000/svg" width="36" height="36" viewBox="0 0 36 36"><path d="m9,18.99v-3.99s2.28,0,2.28,0c.95,0,1.72.9,1.72,2s-.77,2-1.72,2h-2.28Zm-1,6.01h0c.55,0,1-.45,1-1v-3h2.3c2.04,0,3.7-1.79,3.7-4s-1.66-4-3.7-4h-3.3c-.55,0-1,.45-1,1v10c0,.55.45,1,1,1Zm28-15.01v16.01c0,2.21-1.79,4-4,4H3.98c-2.2,0-3.98-1.78-3.98-3.98V9.99c0-2.21,1.79-3.99,3.99-3.99h13.01v3c0,.55.45,1,1,1h0c.55,0,1-.45,1-1v-3h13.01c2.2,0,3.99,1.79,3.99,3.99Zm-9,13.01h-5c-.55,0-1,.45-1,1h0c0,.55.45,1,1,1h5c.55,0,1-.45,1-1h0c0-.55-.45-1-1-1Zm2-5h-7c-.55,0-1,.45-1,1h0c0,.55.45,1,1,1h7c.55,0,1-.45,1-1h0c0-.55-.45-1-1-1Zm0-5h-7c-.55,0-1,.45-1,1h0c0,.55.45,1,1,1h7c.55,0,1-.45,1-1h0c0-.55-.45-1-1-1Z"/></svg>