<?xml version="1.0" encoding="UTF-8"?><svg id="Layer_1" xmlns="http://www.w3.org/2000/svg" width="36" height="36" viewBox="0 0 36 36"><path d="m10,17.01v11.99c0,.55-.45,1-1,1H3c-.55,0-1-.45-1-1v-11.99c0-.55.45-1,1-1h6c.55,0,1,.45,1,1Zm24,.08c0-1.15-.94-2.09-2.09-2.09h-8.91c-.55,0-1-.45-1-1.01h0c0-.55.45-1,1-1h2v-2.12c-.02-1.89-.02-2.96-.35-4.67-.55-2.85-1.74-3.21-2.4-3.21-.94,0-1.5.85-1.5,1.68v.38c0,6.47-3.44,11.82-8.74,11.95v11.99s.23,0,.23,0c1.49,0,2.5.03,3.65.54l.37.16c1.41.63,3.06,1.3,5.74,1.3h7c.37,0,.53-.03.6-.12.81-.29,1.39-1.06,1.39-1.96,0-.8-.46-1.5-1.13-1.85h.04c1.15,0,2.09-.94,2.09-2.09,0-.8-.46-1.5-1.13-1.85h.04c1.15,0,2.09-.94,2.09-2.09,0-.8-.46-1.5-1.13-1.85h.04c1.15,0,2.09-.94,2.09-2.09Z"/></svg>