<?xml version="1.0" encoding="UTF-8"?><svg id="Layer_1" xmlns="http://www.w3.org/2000/svg" width="36" height="36" viewBox="0 0 36 36"><path d="M2.04,16.53v-.16l.14,.03c.61,.13,1.22,.19,1.8,.19,2.68,0,5.24-1.18,7.03-3.24l.09-.1,.09,.1c1.11,1.28,2.54,2.23,4.15,2.77l.65,.13v.1c-.23,3.69-3.29,6.58-6.98,6.58s-6.67-2.82-6.97-6.41h0Zm1.94-1.98c2.07,0,4.08-.86,5.53-2.36l1.6-1.58,1.37,1.36c.84,.94,1.89,1.65,3.07,2.09l.22,.08-.07-.23c-.89-2.92-3.65-4.96-6.69-4.96s-5.97,2.16-6.77,5.25l-.03,.11,.12,.03c.56,.13,1.12,.2,1.66,.2h-.01Zm16.02,15.43c0-2.77-2.23-5.01-5-5.01H5c-2.81,0-5,2.2-5,5.03l.02,5.97H7v-6h13ZM36,2.1V20.89c0,1.13-.92,2.05-2.05,2.05H16.14c1.84-1.87,2.87-4.38,2.86-7,0-5.52-4.48-10-10-10-1.04,0-2.05,.16-3,.46V1.94C6,.84,6.9-.06,8-.06h25.86c1.18,0,2.14,.96,2.14,2.14v.02Zm-9,8.86l-7-4,.02,8.14,6.98-4.14ZM10,35.96l12,.04v-3.04H10v3Z"/></svg>