<?xml version="1.0" encoding="UTF-8"?><svg id="Layer_1" xmlns="http://www.w3.org/2000/svg" width="36" height="36" viewBox="0 0 36 36"><path d="M33.41,17.43c-.32,.43-.36,1.06-.11,1.54,.19,.35,.26,.77,.21,1.22-.07,.62-.35,1.1-.57,1.39-.32,.42-.36,1.06-.11,1.54,.19,.35,.26,.77,.21,1.22-.07,.62-.34,1.1-.56,1.39-.32,.43-.36,1.06-.11,1.54,.19,.35,.26,.78,.21,1.22-.14,1.25-1.27,1.51-2.34,1.51h-8.24c-2.68,0-4.33-.68-5.74-1.31l-.37-.16c-1.15-.5-2.16-.54-3.65-.54h-.24v-11.99c5.32-.12,8.75-5.48,8.75-11.95v-.37c0-.83,.56-1.68,1.5-1.68,.66,0,1.86,.36,2.4,3.21,.33,1.7,.33,2.78,.34,4.67v1.12h-1.99v3h9.55c.42,.01,.82,.24,1.11,.62,.27,.37,.39,.87,.32,1.43-.07,.62-.35,1.1-.56,1.39h0Zm-24.41-1.45H2v12h7V15.99Z"/></svg>