<?xml version="1.0" encoding="UTF-8"?><svg id="Layer_1" xmlns="http://www.w3.org/2000/svg" width="36" height="36" viewBox="0 0 36 36"><path d="m11.99,24h-6.78l2.58,8.3c.13.42.52.7.96.7h4.85c.68,0,1.16-.67.95-1.31l-2.55-7.69Z"/><path d="m16,10H3c-.55,0-1,.45-1,1v2h-1c-.55,0-1,.45-1,1v4c0,.55.45,1,1,1h1v2c0,.55.45,1,1,1h13l12.78,6.88c.15.08.31.12.47.12h.75c.55,0,1-.45,1-1V4c0-.55-.45-1-1-1h-.74c-.17,0-.33.04-.47.12l-12.79,6.88Zm0,10H4v-8h12v8Z"/><path d="m33,12v7.72c1.72-.45,3-2,3-3.86s-1.28-3.41-3-3.86Z"/></svg>