<?xml version="1.0" encoding="UTF-8"?><svg id="Layer_1" xmlns="http://www.w3.org/2000/svg" width="36" height="36" viewBox="0 0 36 36"><path d="m31.67,3.59c-1.32,2.49-7.37,4.98-13.78,6.1-.27.78-1.01,1.34-1.88,1.34-1.24,0-2.21-1.12-1.96-2.4.15-.75.76-1.38,1.52-1.55.78-.17,1.49.12,1.94.64,7.03-1.22,11.7-3.77,12.39-5.07.05-.1.13-.29.09-.39-.02-.04-.13-.14-.4-.21-1.03-.27-3.57.15-5.98,1.08-.36.14-.76.07-1.04-.19h0c-.54-.5-.37-1.39.31-1.66C25.6.25,28.54-.26,30.08.14c1.02.27,1.49.83,1.7,1.26.23.47.4,1.23-.11,2.2Zm-3.65,8.45v20.96s0,1.5,0,1.5v.5c0,.55-.45,1-1,1H5c-.55,0-1-.45-1-1V10.53c0-.42.18-.83.49-1.11L13.99.84c1.14-1.03,2.88-1.03,4.03,0l3.77,3.85c-1.07.32-2.46.66-3.76.91-.61-.36-1.31-.56-2.03-.56-.29,0-.58.03-.87.09-1.53.33-2.76,1.59-3.05,3.12-.23,1.19.07,2.4.84,3.32.76.92,1.89,1.45,3.09,1.45s2.4-.59,3.15-1.54c2.63-.51,5.5-1.31,8.01-2.36l.59.55c.17.19.26.47.26.72v1.65Zm-13.91,7.99c.7-1.21,1.79-2,3.02-2,.79,0,1.55.32,2.2.93.4.38,1.04.36,1.41-.04.38-.4.36-1.03-.04-1.41-1.03-.96-2.26-1.47-3.57-1.47-2.31,0-4.3,1.64-5.24,4h-.89c-.55,0-1,.45-1,1s.45,1,1,1h.38c-.04.33-.07.66-.07,1s.03.67.07,1h-.38c-.55,0-1,.45-1,1s.45,1,1,1h.89c.93,2.36,2.93,4,5.24,4,1.31,0,2.54-.51,3.57-1.47.4-.38.42-1.01.04-1.41-.38-.4-1.01-.42-1.41-.04-.65.61-1.41.93-2.2.93-1.24,0-2.33-.79-3.02-2h2.9c.55,0,1-.45,1-1s-.45-1-1-1h-3.61c-.05-.32-.08-.66-.08-1s.03-.68.08-1h3.61c.55,0,1-.45,1-1s-.45-1-1-1h-2.9Z"/></svg>