<?xml version="1.0" encoding="UTF-8"?><svg id="Layer_1" xmlns="http://www.w3.org/2000/svg" width="36" height="36" viewBox="0 0 36 36"><path d="m36,9.99v16.01c0,2.21-1.79,4-4,4H3.98c-2.2,0-3.98-1.78-3.98-3.98V9.99c0-2.21,1.79-3.99,3.99-3.99h13.01v3c0,.55.45,1,1,1h0c.55,0,1-.45,1-1v-3h13.01c2.2,0,3.99,1.79,3.99,3.99Zm-8,14.01c0-.55-.45-1-1-1h-5c-.55,0-1,.45-1,1h0c0,.55.45,1,1,1h5c.55,0,1-.45,1-1h0Zm2-5c0-.55-.45-1-1-1h-7c-.55,0-1,.45-1,1h0c0,.55.45,1,1,1h7c.55,0,1-.45,1-1h0Zm-1-6h-7c-.55,0-1,.45-1,1h0c0,.55.45,1,1,1h7c.55,0,1-.45,1-1h0c0-.55-.45-1-1-1Zm-12.07,5.52l-1.3-3.86c-.23-.71-.89-1.19-1.64-1.19h-5.95c-.74,0-1.39.47-1.64,1.18l-1.32,3.85c-.05.15-.08.32-.08.48v5c0,.54.44.98.98.98.01,0,.02,0,.03,0,.55,0,.99-.44.99-.98v-.98l8-.04v1.05c0,.54.44.98.98.98h.03c.54,0,.98-.44.98-.98v-5.02c0-.16-.03-.32-.08-.48h0Zm-9.05-3.38c.03-.09.11-.2.24-.2h5.79c.12,0,.2.09.23.19l.95,2.81H6.93l.95-2.8Zm-.13,5.86c-.41,0-.75-.33-.75-.74s.33-.74.75-.74.75.33.75.74-.33.74-.75.74Zm7.02,0c-.41,0-.75-.33-.75-.74s.33-.74.75-.74.75.33.75.74-.33.74-.75.74Z"/></svg>