<?xml version="1.0" encoding="UTF-8"?><svg id="Layer_1" xmlns="http://www.w3.org/2000/svg" width="36" height="36" viewBox="0 0 36 36"><path d="M33.5,7.04c0,3.87-3.13,7-7,7s-7-3.13-7-7S22.64,.04,26.5,.04s7,3.13,7,7Zm-5.59,0l2.47-2.47-1.41-1.41-2.47,2.47-2.47-2.47-1.41,1.41,2.47,2.47-2.47,2.47,1.41,1.41,2.47-2.47,2.47,2.47,1.41-1.41-2.47-2.47ZM7.56,36.02H23.56v-3H7.56v3ZM26.5,17.04c-5.52,0-10-4.48-10-10,0-1.24,.24-2.42,.65-3.52-1.01-1.46-2.3-2.73-3.94-3.52,.23,3.8,.79,8.53-5.28,15.01,0-3.22-2.11-5.36-2.11-5.36,0,7.51-7.66,17.07,5.28,20.38-3.29-6.12-.12-7.43,1.25-12.72,.82,1.11,1.41,3.09,1.14,4.2,1.92-2.51,1.88-7.45,1.88-9.68,4.11,2.78,7.74,11.24,4.18,18.2,7-2.96,8.66-8.07,7.78-13.03-.27,.02-.55,.04-.82,.04Z"/></svg>