<?xml version="1.0" encoding="UTF-8"?><svg id="Layer_1" xmlns="http://www.w3.org/2000/svg" width="36" height="36" viewBox="0 0 36 36"><path d="M0,4.49C0,2,2.01,0,4.5,0s4.5,2.01,4.5,4.5-2.01,4.5-4.5,4.5S0,6.98,0,4.49ZM15.52,29.29c-1.41-.31-2.86-.1-4.15,.52-.95,.45-1.79,.97-2.9,.9-1.07-.06-1.85-.65-2.8-1.05-1.35-.56-2.82-.67-4.23-.27C.93,29.53,.47,29.75,0,29.99v3.08c1.56-.61,2.86-1.53,4.74-.76,.85,.35,1.58,.84,2.5,1.06,1.33,.32,2.7,.17,3.95-.35,.88-.37,1.61-.91,2.59-1.03,1.05-.13,1.95,.27,2.85,.75,.06,.03,.13,.06,.19,.09l-.75-3.38c-.18-.06-.36-.13-.55-.18v.02Zm19.33,.03c-.92,.22-1.64,.71-2.5,1.06-1.77,.73-3.03-.04-4.47-.65-1.14-.51-2.35-.64-3.54-.46l.61,2.76c.6-.05,1.21,.02,1.82,.26,.29,.11,.57,.24,.84,.37v.04c.46,.24,.93,.45,1.44,.6,1.41,.4,2.87,.29,4.23-.27,.93-.39,1.7-.95,2.73-1.03v-2.84c-.39,.02-.78,.06-1.16,.15h0Zm-15.19-7.02l3.04,13.71h-2.05l-2.94-13.27-15.02,3.33-.65-2.91c.47-1.93,1.22-3.76,2.3-5.45,1.26-1.97,2.85-3.66,4.75-5,1.61-1.15,3.39-1.99,5.28-2.55-.02-.05-.05-.08-.06-.13-.12-.54,.22-1.07,.76-1.19,0,0,0,0,0,0,.54-.12,1.07,.22,1.19,.76,0,0,0,0,0,0v.11c2.16-.4,4.35-.42,6.51-.03,2.29,.42,4.45,1.27,6.42,2.53,1.74,1.11,3.23,2.49,4.49,4.09l.61,2.77-14.64,3.24h0Zm1.28-9.94c1.94,1.05,3.77,2.79,4.43,5.33l.06,.21,2.94-.65-.11-.37c-.23-.89-.57-1.71-.99-2.46-1.93-1.16-4.09-1.86-6.33-2.06Zm-9.11,2.14c-.3,.19-.61,.37-.9,.58-1.38,.98-2.56,2.19-3.53,3.57-.09,1.1-.03,2.18,.21,3.18v.03l2.94-.65v-.06c-.49-2,0-4.47,1.29-6.65h-.01Zm7.5,4.75l-1.66-6.81c-.43,.06-.87,.12-1.3,.22-.55,.12-1.09,.28-1.63,.46l1.66,6.78s2.93-.65,2.93-.65Z"/></svg>