<?xml version="1.0" encoding="UTF-8"?><svg id="Layer_1" xmlns="http://www.w3.org/2000/svg" width="36" height="36" viewBox="0 0 36 36"><path d="M19.59,6.01h-3v4h3V6.01ZM19.59,.03h-3V3.94h3V.03ZM3.19,21.04L10.8,.05h-3.19L0,21.04H3.19ZM25.18,.05l7.61,20.99h3.19L28.37,.05h-3.19Zm.63,22.91l3.47-3.47-2.12-2.12-5.59,5.59h-1.97v-2.04l5.56-5.56-2.12-2.12-3.44,3.44v-3.7h-3v3.7l-3.53-3.53-2.12,2.12,5.66,5.66v2.04h-2.05l-5.65-5.65-2.12,2.12,3.53,3.53h-3.82v3h3.82l-3.56,3.56,2.12,2.12,5.68-5.68h2.05v2.01l-5.7,5.7,2.12,2.12,3.57-3.57v3.78h3v-3.78l3.48,3.48,2.12-2.12-5.6-5.6v-2.01h1.97l5.62,5.62,2.12-2.12-3.5-3.5h3.7v-3h-3.7Z"/></svg>