<?xml version="1.0" encoding="UTF-8"?><svg id="Layer_1" xmlns="http://www.w3.org/2000/svg" width="36" height="36" viewBox="0 0 36 36"><path d="m17,2V1c0-.55.45-1,1-1h0c.55,0,1,.45,1,1v1c0,.55-.45,1-1,1h0c-.55,0-1-.45-1-1Zm1,7h0c.55,0,1-.45,1-1v-1c0-.55-.45-1-1-1h0c-.55,0-1,.45-1,1v1c0,.55.45,1,1,1ZM9.51,0h-.03c-.43,0-.81.26-.96.65L.07,22.64c-.25.65.24,1.35.96,1.35h.03c.43,0,.81-.26.96-.65L10.47,1.35c.25-.65-.24-1.35-.96-1.35Zm16.98,0c-.72,0-1.21.7-.96,1.35l8.46,21.99c.15.39.53.65.96.65h.03c.72,0,1.21-.7.96-1.35L27.48.65c-.15-.39-.53-.65-.96-.65h-.03Zm2.51,23h-5.05l3.95-3.95c.39-.39.39-1.02,0-1.41h0c-.39-.39-1.02-.39-1.41,0l-5.36,5.36h-2.12v-2.12l5.36-5.36c.39-.39.39-1.02,0-1.41h0c-.39-.39-1.02-.39-1.41,0l-3.95,3.95v-5.05c0-.55-.45-1-1-1h0c-.55,0-1,.45-1,1v5.05l-3.95-3.95c-.39-.39-1.02-.39-1.41,0h0c-.39.39-.39,1.02,0,1.41l5.36,5.36v2.12h-2.12l-5.36-5.36c-.39-.39-1.02-.39-1.41,0h0c-.39.39-.39,1.02,0,1.41l3.95,3.95h-5.05c-.55,0-1,.45-1,1h0c0,.55.45,1,1,1h5.05l-3.95,3.95c-.39.39-.39,1.02,0,1.41h0c.39.39,1.02.39,1.41,0l5.36-5.36h2.12v2.12l-5.36,5.36c-.39.39-.39,1.02,0,1.41h0c.39.39,1.02.39,1.41,0l3.95-3.95v5.05c0,.55.45,1,1,1h0c.55,0,1-.45,1-1v-5.05l3.95,3.95c.39.39,1.02.39,1.41,0h0c.39-.39.39-1.02,0-1.41l-5.36-5.36v-2.12h2.12l5.36,5.36c.39.39,1.02.39,1.41,0h0c.39-.39.39-1.02,0-1.41l-3.95-3.95h5.05c.55,0,1-.45,1-1h0c0-.55-.45-1-1-1Z"/></svg>