<?xml version="1.0" encoding="UTF-8"?><svg id="Layer_1" xmlns="http://www.w3.org/2000/svg" width="36" height="36" viewBox="0 0 36 36"><path d="M2.03,9.98c0-1.61,1.31-2.92,2.92-2.92s2.92,1.31,2.92,2.92-1.31,2.92-2.92,2.92-2.92-1.31-2.92-2.92Zm28.92,2.92c1.61,0,2.92-1.31,2.92-2.92s-1.31-2.92-2.92-2.92-2.92,1.31-2.92,2.92,1.31,2.92,2.92,2.92Zm-21.58,2.08c-.47-.59-1.18-.99-1.96-.99H2.53c-1.34,0-2.53,1.17-2.53,2.5v5.5H5.98l.04-.99c0-2.58,1.32-4.79,3.35-6.02Zm26.63,14.02c0,3.87-3.13,7-7,7s-7-3.13-7-7,3.13-7,7-7,7,3.13,7,7Zm-4.01,3.47l-.7-1.08c-.43,.4-1.04,.6-1.74,.6-.98,0-1.85-.44-2.32-1.35h2.02l.51-1.1h-2.83c0-.09-.03-.24-.03-.46,0-.2,0-.34,.03-.44h3.21l.53-1.09h-3.45c.46-.96,1.38-1.42,2.34-1.42,.61,0,1.15,.14,1.57,.44l.58-1.17c-.56-.39-1.27-.58-2.14-.58-1.68,0-3.31,.96-3.91,2.72h-1.18v1.09h.96c-.01,.13-.03,.25-.03,.45,0,.16,.01,.34,.03,.45h-.96v1.1h1.19c.6,1.73,2.19,2.68,3.88,2.68,1,0,1.85-.35,2.44-.85h0ZM11.22,5.37l.12,.03c.56,.13,1.12,.2,1.66,.2,2.07,0,4.08-.86,5.53-2.36l1.6-1.58,1.37,1.36c.84,.94,1.89,1.65,3.07,2.09l.22,.08-.07-.23c-.89-2.92-3.65-4.96-6.69-4.96s-5.97,2.16-6.77,5.25l-.03,.11h-.01Zm-.18,2.07v.16c.31,3.6,3.38,6.41,6.98,6.41s6.76-2.89,6.98-6.58v-.1l-.65-.13c-1.6-.54-3.04-1.5-4.15-2.77l-.09-.1-.09,.1c-1.79,2.06-4.36,3.24-7.03,3.24-.59,0-1.19-.07-1.8-.19l-.15-.03h0Zm18.65,11.39c.11,.36,.19,.79,.27,1.22,2.37,.25,4.55,1.44,6.04,3.3v-6.87c0-1.32-1.19-2.48-2.51-2.48h-4.85c-.77,0-1.47,.39-1.94,.98,1.43,.86,2.49,2.23,3,3.86h-.01Zm-6.34,17.15c-2.12-1.71-3.35-4.28-3.35-7,0-4.58,3.42-8.35,7.84-8.92-.12-.37-.25-.75-.41-1.12-.75-1.73-2.45-2.92-4.47-2.97l-10.3,.02c-2.66,.15-4.66,2.27-4.66,4.99v12h3v3s12.35,0,12.35,0Z"/></svg>