<?xml version="1.0" encoding="UTF-8"?><svg id="Layer_1" xmlns="http://www.w3.org/2000/svg" width="36" height="36" viewBox="0 0 36 36"><path d="M3.21,14.37l.12,.03c.56,.13,1.12,.2,1.66,.2,2.07,0,4.08-.86,5.53-2.36l1.6-1.58,1.37,1.36c.84,.94,1.87,1.64,3.07,2.09l.22,.08-.07-.23c-.89-2.92-3.65-4.96-6.69-4.96s-5.97,2.16-6.77,5.25l-.03,.11h-.01Zm-.18,2.07v.16c.31,3.6,3.38,6.41,6.98,6.41s6.76-2.89,6.98-6.58v-.1l-.65-.13c-1.61-.54-3.04-1.5-4.15-2.77l-.09-.1-.09,.1c-1.79,2.06-4.36,3.24-7.03,3.24-.59,0-1.19-.07-1.8-.19l-.15-.03h0ZM36,2V12c0,1.1-.9,2-2,2h-5l-4.01,4v-4h-.99c-1.1,0-2-.9-2-2V2c0-1.1,.9-2,2-2h10c1.1,0,2,.9,2,2ZM15,25H5c-3,0-5,2-5,5v6H20v-6c0-3-2-5-5-5Zm17.65-14.9l-.64-.99c-.39,.37-.95,.55-1.59,.55-.9,0-1.69-.4-2.12-1.23h1.85l.47-1.01h-2.59c0-.08-.03-.22-.03-.42,0-.18,0-.31,.03-.4h2.93l.48-1h-3.15c.42-.88,1.26-1.3,2.14-1.3,.56,0,1.05,.13,1.44,.4l.53-1.07c-.51-.36-1.16-.53-1.96-.53-1.54,0-3.03,.88-3.57,2.49h-1.08v1h.88c0,.12-.03,.23-.03,.41,0,.15,0,.31,.03,.41h-.88v1.01h1.09c.55,1.58,2,2.45,3.55,2.45,.91,0,1.69-.32,2.23-.78h0Z"/></svg>