<?xml version="1.0" encoding="UTF-8"?><svg id="Layer_1" xmlns="http://www.w3.org/2000/svg" width="36" height="36" viewBox="0 0 36 36"><path d="M9.92,13.15l-.02,5.85h-1.97v8H1.95v-8H0s-.03,0-.04,0v-5.86c0-1.72,1.22-3.05,2.82-3.15H6.99c1.65,.03,2.93,1.39,2.93,3.15Zm-5.02-4.13c1.64,0,2.99-1.35,2.99-3s-1.35-3-2.99-3-2.99,1.35-2.99,3,1.35,3,2.99,3ZM29.84,0h-8.93c-3.3,0-6,2.71-6,6.02V23c0,2.76,2.23,5,4.99,5h10.96c2.76,0,4.99-2.24,4.99-5.01V6.02C35.84,2.7,33.16,0,29.84,0Zm-4.44,23.97c-1.11,0-2.01-.9-2.01-2.02s.9-2.02,2.01-2.02,2.01,.9,2.01,2.02-.9,2.02-2.01,2.02Zm5.43-8.97h-10.96l-1.99-8h14.95l-1.99,8Zm-8.96,16h-3.53l-3.43,5h3.53l3.43-5Zm10.55,5h3.53l-3.43-5h-3.53l3.43,5Z"/></svg>