<?xml version="1.0" encoding="UTF-8"?><svg id="Layer_1" xmlns="http://www.w3.org/2000/svg" width="36" height="36" viewBox="0 0 36 36"><path d="M10.02,25.04c0,2.21-1.79,4-4,4s-4-1.79-4-4,1.79-4,4-4,4,1.79,4,4Zm26.04-11.97v20h-10v-7.67l.98,1.04,1.94-2.4-2.92-2.62v-4.36h-3v1.91l-5.08-4.12-6.7,5.56c-1.31-1.51-3.21-2.37-5.21-2.38l.02-3.89L0,8.07H15.99l4.08,3.86V6.95L24.59,0l4.48,6.95v6.11h6.99Zm-10.05-4.42c0-.83-.67-1.5-1.5-1.5s-1.5,.67-1.5,1.5,.67,1.5,1.5,1.5,1.5-.67,1.5-1.5ZM9.07,31.07H3.03c-1.67,0-2.98,1.28-2.98,2.85v2.15H12.05v-2.43c-.15-1.44-1.42-2.57-2.99-2.57h0Zm5.99-2h6v-5h-6v5Z"/></svg>