<?xml version="1.0" encoding="UTF-8"?><svg id="Layer_1" xmlns="http://www.w3.org/2000/svg" width="36" height="36" viewBox="0 0 36 36"><path d="M33.87,9.85l2.13-2.13L28.21-.08l-2.13,2.13,2.11,2.11-3.5,3.5-.79-.79s-.03-.03-.04-.04c-.54-.52-1.24-.8-1.99-.8h0c-.77,0-1.49,.3-2.03,.85-11.4,11.4-13.67,13.71-14.16,14.24h0c-1.32,1.32-.88,3.46,1.15,5.85L.36,33.42c-.59,.59-.59,1.54,0,2.13s1.54,.59,2.13,0l6.47-6.47c1.36,1.11,2.85,1.92,4.13,1.92,.66,0,1.26-.21,1.75-.71l14.17-14.19s.03-.02,.04-.04c1.12-1.13,1.11-2.95-.02-4.07l-.8-.8,3.49-3.49,2.13,2.13Zm-12.83,10.19H11.12c.85-.86,1.82-1.83,2.86-2.87l2.22,2.22,2.13-2.13-2.22-2.22c.61-.61,1.22-1.22,1.83-1.84l2.5,2.5,2.13-2.13-2.5-2.5c.62-.62,1.22-1.22,1.79-1.79l4.97,4.96-5.8,5.8Z"/></svg>