<?xml version="1.0" encoding="UTF-8"?><svg id="Layer_1" xmlns="http://www.w3.org/2000/svg" width="36" height="36" viewBox="0 0 36 36"><path d="M29,13.07V6.95L24.52,0l-4.52,6.95v4.98l-4.08-3.86H-.1l6.1,6.14-.02,4.86h7.01l4.92-4.13,5.09,4.17v-2.04h3v4.36l2.93,2.62-1.94,2.4-.98-1.04v7.67h10V13.07h-7Zm-4.62-2.94c-.83,0-1.5-.67-1.5-1.5s.67-1.5,1.5-1.5,1.5,.67,1.5,1.5-.67,1.5-1.5,1.5Z"/><path d="M-.04,28.67c0,3.43,2.21,5.7,6.02,7.38,3.81-1.68,6.02-4.07,6.02-7.5l.04-6.48H0l-.04,6.61Zm2.83-1.69l2.11,2.1,4.2-4.2,1.4,1.4-5.6,5.6-3.5-3.5,1.41-1.4Z"/><rect x="15" y="24.07" width="6" height="5"/></svg>