<?xml version="1.0" encoding="UTF-8"?><svg id="Layer_1" xmlns="http://www.w3.org/2000/svg" width="36" height="36" viewBox="0 0 36 36"><path d="m29.04,17.05h-7.08c-1.65,0-2.96,1.25-2.96,2.8v1.16c0,.55.45,1,1,1h11c.55,0,1-.45,1-1v-1.44c-.15-1.41-1.41-2.52-2.96-2.52Zm-7.04-5.53c0,1.94,1.57,3.5,3.51,3.5s3.51-1.57,3.51-3.5-1.57-3.5-3.51-3.5-3.51,1.57-3.51,3.5Zm-7.96,5.53h-7.08c-1.65,0-2.96,1.25-2.96,2.8v1.16c0,.55.45,1,1,1h11c.55,0,1-.45,1-1v-1.44c-.15-1.41-1.41-2.52-2.96-2.52Zm-3.54-2.03c1.94,0,3.51-1.57,3.51-3.5s-1.57-3.5-3.51-3.5-3.51,1.57-3.51,3.5,1.57,3.5,3.51,3.5Zm16.5,18.98H9c0-1.1.9-2,2-2h3v-3h8v3h3c1.1,0,2,.9,2,2ZM33,2H3c-1.66,0-3,1.34-3,3v19.01c0,1.66,1.34,3,3,3h30c1.66,0,3-1.34,3-3V5c0-1.66-1.34-3-3-3Zm1,22.01c0,.55-.45,1-1,1H3c-.55,0-1-.45-1-1V5.01c0-.55.45-1,1-1h30c.55,0,1,.45,1,1v19Z"/></svg>