<?xml version="1.0" encoding="UTF-8"?><svg id="Layer_1" xmlns="http://www.w3.org/2000/svg" width="48" height="48" viewBox="0 0 48 48"><path d="M24.07,9c0-2.21,1.79-4,4-4s4,1.79,4,4-1.79,4-4,4-4-1.79-4-4Zm.93,8.02v-.02c0-2.21-1.79-4-4-4s-4,1.79-4,4v.02h8Zm6,18.99h9v2.98c0,1.1-.9,2-2,2H9c-1.11,0-2-.89-2-2V21c0-1.1,.89-2,2-2h29c1.1,0,2,.89,2,1.99v3.01h-9c-1,.01-2,1.01-2,2.01v8c0,1.1,.9,2,2,2Zm-6.38-1.21l-.99-1.52c-.6,.57-1.47,.85-2.46,.85-1.38,0-2.62-.62-3.27-1.91h2.85l.73-1.56h-4c-.02-.12-.04-.34-.04-.65,0-.28,.02-.48,.04-.62h4.53l.74-1.54h-4.87c.65-1.36,1.95-2,3.31-2,.87,0,1.63,.19,2.21,.62l.81-1.65c-.8-.55-1.79-.81-3.03-.81-1.57,0-4.67,1.36-5.52,3.84h-1.66v1.54h1.36c-.02,.18-.04,.35-.04,.64,0,.23,.02,.48,.04,.64h-1.36v1.56h1.68c.85,2.44,3.1,3.79,5.49,3.79,1.42,0,2.62-.5,3.45-1.2v-.02Zm18.38-8.8v8l-12-.06,.07-7.94h11.93Zm-6,4c0-1.1-.9-2-2-2s-2,.9-2,2,.9,2,2,2,2-.9,2-2Z"/></svg>