<?xml version="1.0" encoding="UTF-8"?><svg id="Layer_1" xmlns="http://www.w3.org/2000/svg" width="36" height="36" viewBox="0 0 36 36"><path id="b" d="M14.94,5.17c0-1.65,1.35-3,3-3s3,1.35,3,3-1.35,3-3,3-3-1.35-3-3ZM3.94,17.13c1.66,0,3-1.34,3-3s-1.34-3-3-3-3,1.34-3,3,1.34,3,3,3Zm28.03,0c1.66,0,3-1.34,3-3s-1.34-3-3-3-3,1.34-3,3,1.34,3,3,3Zm-.09,10.89c.36,.92,.25,1.97-.31,2.79s-1.49,1.31-2.48,1.31h-5.06v-1c0-1.67-1.28-2.97-2.94-3.01h-6.22c-1.61,.1-2.84,1.38-2.84,3.01v1H7.08c-1.66,0-3-1.35-3-3.01,0-.37,.07-.74,.2-1.08l5.05-9.93c.45-1.15,1.56-1.91,2.79-1.91h11.86c1.23,0,2.34,.75,2.79,1.9l5.1,9.93h.01Zm-10.38-5.43c0-1.91-1.56-3.47-3.47-3.47s-3.47,1.56-3.47,3.47,1.56,3.47,3.47,3.47,3.47-1.56,3.47-3.47ZM4.54,18.52h-1.5C1.38,18.52,.04,19.86,.04,21.52l.02,4.45c0,.92,.43,1.72,1.08,2.26,.07-.44,.18-.88,.34-1.31l.05-.14,.07-.13,4.03-7.92c-.34-.14-.71-.22-1.1-.22h0Zm18.5-5.33v-.53c0-1.67-1.28-2.97-2.94-3.01h-4.22c-1.61,.1-2.84,1.38-2.84,3.01v.53h10Zm9.97,5.34h-1.5c-.37,0-.72,.07-1.04,.2l4.07,7.93,.07,.13,.05,.14c.16,.41,.27,.83,.33,1.25,.6-.54,.98-1.32,.99-2.19l.02-4.45c0-1.66-1.34-3-3-3h0Z"/></svg>