<?xml version="1.0" encoding="UTF-8"?><svg id="Layer_1" xmlns="http://www.w3.org/2000/svg" width="48" height="48" viewBox="0 0 48 48"><path d="M34.48,37.89c1.38,0,2.5-1.11,2.5-2.49s-1.12-2.49-2.5-2.49-2.5,1.11-2.5,2.49,1.12,2.49,2.5,2.49Z"/><path d="M13.48,37.89c1.38,0,2.5-1.11,2.5-2.49s-1.12-2.49-2.5-2.49-2.5,1.11-2.5,2.49,1.12,2.49,2.5,2.49Z"/><path d="M40.01,19.96c-.67-1.33-1.33-1.99-2-1.99h-4l-.03-5.96H6.02v20.41c0,.83,.67,1.49,1.5,1.49h1.74c.62-1.73,2.27-2.99,4.22-2.99s3.6,1.25,4.22,2.99h12.55c.62-1.73,2.27-2.99,4.22-2.99s3.6,1.25,4.22,2.99h1.28c1,0,2-1,2-1.99l.03-7.98-2-3.98h.01Zm-21.03,4.99v1.99h-6v-1.99h2v-3.21c-1.16-.41-2-1.5-2-2.8v-2.98h6v2.98c0,1.29-.84,2.39-2,2.8v3.21h2Zm7-2.99v4.98h-2v-4.98h-2l3-5.99,3,5.99h-2Zm7.99,1.98l.04-3.98h3.79l2,3.98h-5.83Z"/></svg>