<?xml version="1.0" encoding="UTF-8"?><svg id="Layer_1" xmlns="http://www.w3.org/2000/svg" width="36" height="36" viewBox="0 0 36 36"><path d="M9.03,25.78c.77,1.07,2.02,1.71,3.33,1.71,.44,0,.88-.07,1.31-.21l1.25-.42c.72,.4,1.07,1.26,.81,2.07-.3,.92-1.29,1.42-2.21,1.11l-2.68-.88v.26c-.02,.78-.55,1.45-1.3,1.65-.15,.04-.3,.06-.45,.06-.6,0-1.17-.31-1.49-.84l-2.83-4.64c-.5-.82-.24-1.9,.58-2.4,.83-.5,1.9-.24,2.4,.58,0,0,.83,1.41,.87,1.4,.11,.23,.25,.33,.41,.54ZM35.56,8.92l-14.08,14.08c-.22,.22-.5,.37-.8,.43l-9.14,1.89s-.1,.01-.15,.01c-.46,0-.83-.42-.74-.9l1.92-9.12c.06-.29,.2-.55,.41-.75L27.07,.44c.29-.29,.68-.44,1.07-.44s.77,.15,1.07,.44l6.36,6.36c.59,.59,.59,1.54,0,2.12Zm-15.4,12.57h0l-5.66-5.65v.02s-.93,4.14-.93,4.14l2.43,2.43,4.16-.93ZM29.64,3.47l-1.41-1.41L15.82,14.46l1.41,1.41L29.64,3.47ZM2.02,24.68c-.35-5.37,3.53-9.89,8.63-10.58l2.1-2.1H0v24H24v-12.68l-2.12,2.12c-.73,5.06-5.24,8.9-10.59,8.54-4.91-.34-8.95-4.38-9.27-9.3Z"/></svg>