<?xml version="1.0" encoding="UTF-8"?><svg id="Layer_1" xmlns="http://www.w3.org/2000/svg" width="36" height="36" viewBox="0 0 36 36"><path d="M29.37,17h.25c2.42,0,4.37-1.96,4.37-4.37V4.37c0-2.42-1.96-4.37-4.37-4.37h-.25c-2.42,0-4.37,1.96-4.37,4.37V12.63c0,2.42,1.96,4.37,4.37,4.37Zm.13-14c.83,0,1.5,.67,1.5,1.5s-.67,1.5-1.5,1.5-1.5-.67-1.5-1.5,.67-1.5,1.5-1.5Zm0,4c.83,0,1.5,.67,1.5,1.5s-.67,1.5-1.5,1.5-1.5-.67-1.5-1.5,.67-1.5,1.5-1.5Zm0,4c.83,0,1.5,.67,1.5,1.5s-.67,1.5-1.5,1.5-1.5-.67-1.5-1.5,.67-1.5,1.5-1.5Zm6.5,23v2H0v-2H27v-5h5v5h4Zm-5.07-15l.04,3h-2.97v-3h2.93Zm-2.93,5h3c.56,0,1.01,.45,1.01,1.01v1.99h-5v-2c0-.55,.45-1,1-1Z"/></svg>

