<?xml version="1.0" encoding="UTF-8"?><svg id="Layer_1" xmlns="http://www.w3.org/2000/svg" width="36" height="36" viewBox="0 0 36 36"><path d="m35.04,24.09l-3.84-3.84c-1.28-1.28-3.36-1.28-4.64,0l-.31.31c-1.28,1.28-1.28,3.36,0,4.64l3.84,3.84c1.28,1.28,3.36,1.28,4.64,0l.31-.31c1.28-1.28,1.28-3.36,0-4.64Zm-1.41,3.23l-.31.31c-.5.5-1.31.5-1.81,0l-1.92-1.92,2.12-2.12,1.92,1.92c.5.5.5,1.31,0,1.81Zm-12.72-1.07c-1.28-1.28-3.36-1.28-4.64,0l-.31.31c-1.28,1.28-1.28,3.36,0,4.64l3.84,3.84c1.28,1.28,3.36,1.28,4.64,0l.31-.31c1.28-1.28,1.28-3.36,0-4.64l-3.84-3.84Zm-1.61,5.46l-1.92-1.92c-.5-.5-.5-1.31,0-1.81l.31-.31c.5-.5,1.31-.5,1.81,0l1.92,1.92-2.12,2.12Zm-1.74-14.66c1.28,1.28,3.36,1.28,4.64,0l3.84-3.84c1.28-1.28,1.28-3.36,0-4.64l-.31-.31c-1.28-1.28-3.36-1.28-4.64,0l-3.84,3.84c-1.28,1.28-1.28,3.36,0,4.64l.31.31Zm4.95-7.38c.5-.5,1.31-.5,1.81,0l.31.31c.5.5.5,1.31,0,1.81l-1.92,1.92-2.12-2.12,1.92-1.92Zm-14.5,1.69V1c0-.55-.45-1-1-1h-2c-.55,0-1,.45-1,1v10.35c-2.33.82-4,3.04-4,5.65v18c0,.55.45,1,1,1h10c.55,0,1-.45,1-1v-18c0-2.61-1.67-4.83-4-5.65Zm2,22.65H2v-3h8v3Z"/></svg>