<?xml version="1.0" encoding="UTF-8"?><svg id="Layer_1" xmlns="http://www.w3.org/2000/svg" width="36" height="36" viewBox="0 0 36 36"><path d="M12,13.73c0-2.18-1.75-4.02-4.16-4.66V2.77c0-.37,.2-.68,.44-.68s.44-.3,.44-.68v-.23c0-.37-.2-.68-.44-.68s-.44-.11-.44-.25-.37-.25-.83-.25h-2.22c-.46,0-.83,.11-.83,.25s-.15,.25-.33,.25-.33,.3-.33,.68v.23c0,.37,.15,.68,.33,.68s.33,.3,.33,.68v6.37c-2.3,.68-3.95,2.48-3.95,4.6,0,.07,0,.14,.01,.21,0,.03-.01,.07-.01,.1v21.28c0,.37,.37,.68,.83,.68H11.17c.46,0,.83-.3,.83-.68V14.04s0-.07-.01-.1c0-.07,.01-.14,.01-.21Zm-3,6.27H3v-4h6v4Z"/><path d="M19.88,19.12l4.24-4.24c1.17-1.17,1.17-3.07,0-4.24s-3.07-1.17-4.24,0l-4.24,4.24c-1.17,1.17-1.17,3.07,0,4.24s3.07,1.17,4.24,0Zm-1.41-5.66l2.12-2.12c.78-.78,2.05-.78,2.83,0s.78,2.05,0,2.83l-2.12,2.12-2.83-2.83Z"/><path d="M23.27,30.88l-4.24-4.24c-1.17-1.17-3.07-1.17-4.24,0s-1.17,3.07,0,4.24l4.24,4.24c1.17,1.17,3.07,1.17,4.24,0s1.17-3.07,0-4.24Zm-5.66,1.41l-2.12-2.12c-.78-.78-.78-2.05,0-2.83s2.05-.78,2.83,0l2.12,2.12-2.83,2.83Z"/><path d="M31,21h-6c-1.65,0-3,1.35-3,3s1.35,3,3,3h6c1.65,0,3-1.35,3-3s-1.35-3-3-3Zm-3,5h-3c-1.1,0-2-.9-2-2s.9-2,2-2h3v4Z"/></svg>