<?xml version="1.0" encoding="UTF-8"?><svg id="Layer_1" xmlns="http://www.w3.org/2000/svg" width="36" height="36" viewBox="0 0 36 36"><path d="M17.79,10.66c-1.92,.01-3.76,1.13-4.57,3.01l-1.22,2.82v18.44l2.45,1.06,7.94-18.35c.82-1.88,.38-3.98-.93-5.39L26,1.77,22.33,.18l-4.54,10.48ZM0,16v20H10v-8H4v-9h6v-3c0-2.05-1.24-3.81-3-4.58V0H3V11.42c-1.76,.77-3,2.53-3,4.58Z"/><path d="M27,23.12h6c1.65,0,3-1.35,3-3s-1.35-3-3-3h-6c-1.65,0-3,1.35-3,3s1.35,3,3,3Zm3-5h3c1.1,0,2,.9,2,2s-.9,2-2,2h-3v-4Z"/><path d="M30.36,29.12l-4.24-4.24c-1.17-1.17-3.07-1.17-4.24,0s-1.17,3.07,0,4.24l4.24,4.24c1.17,1.17,3.07,1.17,4.24,0s1.17-3.07,0-4.24Zm-5.66,1.41l-2.12-2.12c-.78-.78-.78-2.05,0-2.83s2.05-.78,2.83,0l2.12,2.12-2.83,2.83Z"/></svg>