<?xml version="1.0" encoding="UTF-8"?><svg id="Layer_1" xmlns="http://www.w3.org/2000/svg" width="36" height="36" viewBox="0 0 36 36"><path d="m32,14c-1.86,0-3.41,1.28-3.86,3h-2.21c-.18-1.46-.76-2.8-1.61-3.9l2.53-2.53c.49.27,1.05.43,1.65.43,1.93,0,3.5-1.57,3.5-3.5s-1.57-3.5-3.5-3.5-3.5,1.57-3.5,3.5c0,.6.17,1.16.43,1.65l-2.53,2.53c-1.11-.86-2.44-1.44-3.9-1.62v-2.2c1.72-.45,3-2,3-3.86,0-2.21-1.79-4-4-4s-4,1.79-4,4c0,1.86,1.28,3.41,3,3.86v2.2c-1.46.18-2.8.76-3.91,1.62l-3.52-3.52c.27-.49.43-1.05.43-1.65,0-1.93-1.57-3.5-3.5-3.5s-3.5,1.57-3.5,3.5,1.57,3.5,3.5,3.5c.6,0,1.16-.17,1.65-.43l3.52,3.52c-.86,1.11-1.44,2.45-1.62,3.91h-2.2c-.45-1.72-2-3-3.86-3-2.21,0-4,1.79-4,4s1.79,4,4,4c1.86,0,3.41-1.28,3.86-3h2.2c.18,1.46.76,2.8,1.62,3.9l-3.4,3.4c-.39-.19-.82-.3-1.29-.3-1.66,0-3,1.34-3,3s1.34,3,3,3,3-1.34,3-3c0-.46-.11-.89-.3-1.29l3.4-3.4c1.11.86,2.44,1.43,3.9,1.61v2.21c-1.72.45-3,2-3,3.86,0,2.21,1.79,4,4,4s4-1.79,4-4c0-1.86-1.28-3.41-3-3.86v-2.21c1.46-.18,2.79-.76,3.9-1.62l1.67,1.67c-.35.59-.57,1.28-.57,2.02,0,2.21,1.79,4,4,4s4-1.79,4-4-1.79-4-4-4c-.74,0-1.43.21-2.02.57l-1.67-1.67c.86-1.11,1.43-2.44,1.62-3.9h2.21c.45,1.72,2,3,3.86,3,2.21,0,4-1.79,4-4s-1.79-4-4-4Zm-15,4v-3c0-.55.45-1,1-1s1,.45,1,1v3c0,.55-.45,1-1,1s-1-.45-1-1Zm1.79,3.72c-.19.19-.43.28-.72.28s-.54-.09-.72-.28c-.19-.19-.28-.43-.28-.72s.09-.53.28-.72c.19-.19.43-.28.72-.28s.54.09.72.28c.19.19.28.43.28.72s-.09.53-.28.72Z"/></svg>