<?xml version="1.0" encoding="UTF-8"?><svg id="Layer_1" xmlns="http://www.w3.org/2000/svg" width="48" height="48" viewBox="0 0 48 48"><path d="M38.98,20.98c-1.12,0-2.09,.62-2.6,1.54h-3.59c-.23-1.35-.76-2.6-1.52-3.67l1.93-1.93c.23,.06,.48,.1,.73,.1,1.66,0,3-1.34,3-3s-1.34-3-3-3-3,1.34-3,3c0,.28,.05,.55,.12,.81l-1.9,1.9c-1.07-.76-2.31-1.3-3.65-1.54v-1.41c1.48-.6,2.52-2.04,2.52-3.73,0-2.22-1.8-4.02-4.02-4.02s-4.02,1.8-4.02,4.02c0,1.69,1.04,3.13,2.52,3.73v1.39c-1.38,.22-2.66,.75-3.75,1.53l-2.8-2.8c.39-1.37-.24-2.87-1.57-3.52-1.49-.72-3.28-.1-4,1.39-.72,1.49-.1,3.28,1.39,4,.66,.32,1.37,.36,2.02,.2l2.84,2.84c-.78,1.08-1.32,2.34-1.55,3.71h-1.37c-.58-1.48-2.02-2.52-3.7-2.52-2.2,0-3.99,1.78-3.99,3.99s1.78,3.99,3.99,3.99c1.66,0,3.08-1.01,3.68-2.45h1.39c.23,1.38,.77,2.65,1.55,3.74l-2.61,2.61c-.08-.03-.14-.07-.22-.09-1.69-.53-3.49,.42-4.02,2.11-.53,1.69,.42,3.49,2.11,4.02,1.69,.53,3.49-.42,4.02-2.11,.17-.55,.17-1.1,.06-1.63l2.79-2.79c1.1,.78,2.38,1.31,3.76,1.54v4.04c-.41,.26-.75,.63-.98,1.1-.66,1.37-.09,3.01,1.28,3.67,1.37,.66,3.01,.09,3.67-1.28,.61-1.26,.16-2.74-.97-3.49v-4.07c1.35-.24,2.59-.78,3.66-1.54l1.14,1.14c-.78,1.92,.04,4.14,1.93,5.05,1.97,.95,4.34,.13,5.29-1.84,.95-1.97,.13-4.34-1.84-5.29-1.08-.52-2.26-.5-3.28-.06l-1.13-1.13c.77-1.08,1.3-2.34,1.52-3.71h3.63c.52,.87,1.47,1.46,2.56,1.46,1.66,0,3-1.34,3-3s-1.34-3-3-3Zm-15.99-.97h2v5h-2v-5Zm1.73,7.72c-.19,.19-.43,.28-.72,.28s-.54-.09-.72-.28c-.19-.19-.28-.43-.28-.72s.09-.53,.28-.72c.19-.19,.43-.28,.72-.28s.54,.09,.72,.28c.19,.19,.28,.43,.28,.72s-.09,.53-.28,.72Z"/></svg>