<?xml version="1.0" encoding="UTF-8"?><svg id="Layer_1" xmlns="http://www.w3.org/2000/svg" width="36" height="36" viewBox="0 0 36 36"><path d="m7.02,15.5c0-1.38,1.12-2.5,2.49-2.5s2.49,1.12,2.49,2.5-1.12,2.5-2.49,2.5-2.49-1.12-2.49-2.5Zm-1.69,18.35c-1.54-.39-2.79-1.64-3.18-3.18-.57-2.23.54-4.27,2.33-5.17.33-.17.52-.51.52-.88h0c0-.76-.8-1.25-1.47-.9-2.4,1.24-3.94,3.93-3.43,6.91.45,2.66,2.6,4.81,5.26,5.27,2.98.51,5.67-1.03,6.91-3.43.34-.67-.14-1.47-.89-1.47h0c-.37,0-.71.2-.88.52-.9,1.78-2.94,2.89-5.17,2.33Zm9.7-7.85h-3.03v-3.86c0-1.3-.93-2.49-2.22-2.63-1.49-.16-2.78,1.02-2.78,2.49v4.53c0,1.36,1.11,2.47,2.47,2.47h5.53v6c0,.55.45,1,1,1h1c.55,0,1-.45,1-1v-6.03c0-1.64-1.34-2.97-2.97-2.97Zm20.97-11c0,.55-.45,1-1,1h0c-.55,0-1-.45-1-1v-2h-15v2c0,.55-.45,1-1,1h0c-.55,0-1-.45-1-1v-6.06c0-.7.37-1.3.92-1.65l1.14-5.78c.22-.89,1.02-1.51,1.94-1.51h11c.92,0,1.72.62,1.94,1.51l1.13,5.8c.55.35.92.97.92,1.67v6.01Zm-16-8h13l-1-5h-11l-1,5Zm1,3c0-.55-.45-1-1-1s-1,.45-1,1,.45,1,1,1,1-.45,1-1Zm9-1h-7v2h7v-2Zm4,1c0-.55-.45-1-1-1s-1,.45-1,1,.45,1,1,1,1-.45,1-1Z"/></svg>