<?xml version="1.0" encoding="UTF-8"?><svg id="Layer_1" xmlns="http://www.w3.org/2000/svg" width="36" height="36" viewBox="0 0 36 36"><path d="M9.99,29h3v5c0,.55-.45,1-1,1h-1c-.55,0-1-.45-1-1v-5h0Z"/><path d="M21.99,29h3v5c0,.55-.45,1-1,1h-1c-.55,0-1-.45-1-1v-5h0Z"/><path d="M26.24,2.72c-.14-.99-.99-1.72-1.98-1.72H10.72c-1,0-1.84,.73-1.98,1.72l-.75,5.28,.9,17.1c.06,1.06,.93,1.9,2,1.9h13.2c1.06,0,1.94-.83,2-1.9l.9-17.1-.75-5.28Zm-2.25,4.88c0,1.33-.9,2.4-2,2.4H12.99c-1.1,0-2-1.07-2-2.4v-1.2c0-1.33,.9-2.4,2-2.4h9c1.1,0,2,1.07,2,2.4v1.2Z"/></svg>