<?xml version="1.0" encoding="UTF-8"?><svg id="Layer_1" xmlns="http://www.w3.org/2000/svg" width="36" height="36" viewBox="0 0 36 36"><path d="M0,26.02l6.24-7.82L0,16l6.41-2.07L1.81,5.2l8.24,3.53-.06-5.72,5.63,5.41,4.39-4.33v4.21l-4.68,4.62-1.8-2.3,.09,2.64-5.33-2.17,2.41,4.58-1.12,.37,2.06,.58-4.59,5.2,5.94-1.12v3.25s-2.98,2.99-2.98,2.99v-2.63S0,26.02,0,26.02ZM35.25,3.02h-8.27c-.43,.1-.54,.64-.2,.98l.9,.9-11.87,11.87,4.24,4.24-12,12h4.24l11.55-11.55h0s10.19-10.2,10.19-10.2l.99,.99c.34,.34,.87,.22,.96-.2V3.78c.1-.43-.32-.85-.75-.76Z"/></svg>