<?xml version="1.0" encoding="UTF-8"?><svg id="Layer_1" xmlns="http://www.w3.org/2000/svg" width="36" height="36" viewBox="0 0 36 36"><path d="M15.11,3.33C15.11,1.49,16.6,0,18.44,0s3.33,1.49,3.33,3.33-1.49,3.33-3.33,3.33-3.33-1.49-3.33-3.33Zm7.93,11.24s-4.08-5.72-4.14-5.78c-.56-.59-1.83-1.47-3.91-.74-1.11,.39-6.12,2.41-7.08,2.82-1.22,.51-2.01,1.7-2.02,3.03l-.02,5.15h3.38l-.04-5.06c1.11-.47,2.44-.95,3.49-1.38l-5.42,23.4h3.52l3.17-13.23,3.52,3.77v9.46h3.37v-9.45c.01-.79-.4-1.56-.91-2.17l-2.34-2.8h0c.13-.69,.83-4.17,1.37-6.84l1.13,1.61c.64,1.01,1.73,1.61,2.93,1.61h3.82l-2.77,18h2.33l3.29-21.35-6.67-.04Z"/></svg>