<?xml version="1.0" encoding="UTF-8"?><svg id="Layer_1" xmlns="http://www.w3.org/2000/svg" width="36" height="36" viewBox="0 0 36 36"><path d="m22.82,14.98s-4-5.63-4.06-5.69c-.55-.58-1.79-1.44-3.84-.73-1.09.38-6,2.37-6.94,2.77-1.2.5-1.97,1.67-1.98,2.98v3.7c0,.55.45,1,1,1h1c.55,0,1-.45,1-1v-4.03c1.45-.47,2.77-.95,3.82-1.38l-1.12,5.57c-.2.97.1,1.97.78,2.68l5.49,5.68v8.48c0,.55.45,1,1,1h1c.55,0,1-.45,1-1v-8.04c0-.79-.4-1.93-.91-2.54l-2.32-2.79c.13-.68.82-4.18,1.35-6.85l1.13,1.61c.64,1.01,1.73,1.61,2.92,1.61h3.81l-2.59,16.84c-.09.61.37,1.15.99,1.15h.74c.49,0,.91-.36.99-.85l2.92-18.99c.09-.6-.37-1.15-.98-1.15l-6.18-.03Z"/><path d="m18.54,6.66c1.84,0,3.32-1.49,3.32-3.33s-1.49-3.33-3.32-3.33-3.32,1.49-3.32,3.33,1.49,3.33,3.32,3.33Z"/><path d="m10.96,22.61l-2.69,12.17c-.14.62.34,1.22.97,1.22h1.19c.46,0,.86-.31.97-.76l2.37-9.72-2.8-2.9Z"/></svg>