<?xml version="1.0" encoding="UTF-8"?><svg id="Layer_1" xmlns="http://www.w3.org/2000/svg" width="36" height="36" viewBox="0 0 36 36"><path d="m21,20l14-2v12.95c0,1.68-1.36,3.05-3.05,3.05H4.05c-1.68,0-3.05-1.36-3.05-3.05v-12.95l14,2v2.22c0,.43.35.78.78.78h4.43c.43,0,.78-.35.78-.78v-2.22Zm15-12.07v6.58c0,.82-.66,1.48-1.48,1.48l-13.52,2v-1.22c0-.43-.35-.78-.78-.78h-4.43c-.43,0-.78.35-.78.78v1.22l-13.51-2c-.83,0-1.49-.67-1.49-1.49v-6.57c0-1.62,1.31-2.93,2.93-2.93h9.07V1.11c0-.61.5-1.11,1.11-1.11h9.78c.61,0,1.11.5,1.11,1.11v3.89h9.07c1.62,0,2.93,1.31,2.93,2.93Zm-14-5.93h-8v3h8v-3Zm-5,16v3h2v-3h-2Z"/></svg>