<?xml version="1.0" encoding="UTF-8"?><svg id="Layer_1" xmlns="http://www.w3.org/2000/svg" width="36" height="36" viewBox="0 0 36 36"><path d="M29,22.03c-3.86,0-6.98,3.13-6.98,6.98s3.13,6.98,6.98,6.98,6.98-3.13,6.98-6.98-3.13-6.98-6.98-6.98Zm.54,11.3c-1.69,0-3.28-.95-3.88-2.68h0s-1.19,0-1.19,0v-1.1h.96c-.01-.11-.02-.29-.02-.45,0-.2,.01-.33,.02-.45h-.96v-1.09h0s1.18,0,1.18,0c.6-1.75,2.23-2.71,3.9-2.71,.88,0,1.58,.19,2.14,.57h0s-.58,1.16-.58,1.16c-.41-.3-.95-.44-1.56-.44-.96,0-1.88,.45-2.34,1.41h3.44l-.53,1.09h-3.2c-.01,.1-.03,.24-.03,.44,0,.22,.01,.38,.03,.46h2.83l-.51,1.1h-2.01c.46,.91,1.34,1.35,2.31,1.35,.7,0,1.31-.2,1.74-.6h0l.7,1.08c-.59,.5-1.44,.85-2.44,.85Zm-9.5-3.33c-.04-.33-.06-.66-.06-1,0-4.63,3.5-8.44,7.99-8.94v-7.16s2.7,2.34,2.7,2.34l1.31-1.51-4.02-3.48V4.99h-1.97v3.53L15.99,0,0,13.72l1.32,1.51,2.7-2.37-.03,17.14H20.04Zm-8.05-14h8v6H11.99v-6Z"/></svg>