<?xml version="1.0" encoding="UTF-8"?><svg id="Layer_1" xmlns="http://www.w3.org/2000/svg" width="36" height="36" viewBox="0 0 36 36"><path d="M35.25,9.28c-.41-1.56-1.63-2.79-3.18-3.2-2.81-.76-14.07-.76-14.07-.76,0,0-11.26,0-14.06,.76-1.55,.42-2.77,1.64-3.18,3.2-.75,2.83-.75,8.72-.75,8.72,0,0,0,5.9,.75,8.72,.41,1.56,1.63,2.79,3.18,3.2,2.81,.76,14.06,.76,14.06,.76,0,0,11.26,0,14.07-.76,1.55-.42,2.77-1.64,3.18-3.2,.75-2.83,.75-8.72,.75-8.72,0,0,0-5.9-.75-8.72ZM14.32,23.35V12.65l9.41,5.35-9.41,5.35Z"/></svg>