<?xml version="1.0" encoding="UTF-8"?><svg id="Layer_1" xmlns="http://www.w3.org/2000/svg" width="36" height="36" viewBox="0 0 36 36"><path d="M6.56,15.56c0-1.36,1.1-2.46,2.46-2.46s2.46,1.1,2.46,2.46-1.1,2.46-2.46,2.46-2.46-1.1-2.46-2.46Zm8.82,10.61h-3.92v-4.08c0-1.36-1.1-2.46-2.45-2.46s-2.45,1.1-2.45,2.46v4.89c0,1.35,1.11,2.46,2.46,2.46h5.71v6.54h3.27v-7.19c0-1.44-1.18-2.62-2.62-2.62ZM2.59,30.84c-.53-2.03,.62-3.86,2.33-4.48v-2.55c-3.74,.75-6.25,4.92-4.17,9.11,.5,1,1.32,1.82,2.32,2.32,4.19,2.08,8.35-.43,9.11-4.17h-2.55c-.61,1.73-2.49,2.88-4.53,2.32-1.21-.33-2.2-1.33-2.51-2.55Z"/><path d="M32.93,5.67V1.1h-3.15V3.11L25.51,0,15,8.4l2.07,2.49,1.15-1v10.06s14.71,0,14.71,0V9.84l1.03,1.09,2.04-2.51-3.07-2.74Zm-4.2,7.98h-6.3s0-4.19,0-4.19l6.3-.03v4.23Z"/></svg>