<?xml version="1.0" encoding="UTF-8"?><svg id="Layer_1" xmlns="http://www.w3.org/2000/svg" width="36" height="36" viewBox="0 0 36 36"><rect x="0" y="23.87" width="5.3" height="10.03"/><path d="M31.15,30.34l-11,.67-3.96-1.19,.59-1.75,3.88,1.15,3.75-.3c-.01-.1-.34-2.61-3.69-3.5l-6.64-1.9-6.68,.96v8.47l12.74,3.06,15.85-3.15s0-2.52-4.85-2.52Z"/><path d="M7.61,14.35l1.92-1.59,.04,9.55,4.16-.62c.24-.04,.49-.02,.72,.06l7.22,2.17c3.43,.95,4.5,3.18,4.69,4.63l4.38-.2V12.81l2.13,1.74,2.07-2.37h0l-4.24-3.6V3.81h-3.18v2.22L20.11,0,5.52,12.08h0l2.09,2.26Zm9.34-2.52h6.35v5.01h-6.35v-5.01Z"/></svg>