<?xml version="1.0" encoding="UTF-8"?><svg id="Layer_1" xmlns="http://www.w3.org/2000/svg" width="36" height="36" viewBox="0 0 36 36"><path d="M6.53,7.92c-1.24,0-2.25-1.26-2.25-2.5s1.01-2.5,2.25-2.5h1.25V.67c0-.41,.34-.75,.75-.75s.75,.34,.75,.75V7.92h-2.75Zm18.76,7.99H12.72c-2.36,0-3.43-1.91-3.43-4v-1.89l-4-.06v1.95c0,4.26,2.9,8,7.43,8h.61l.04,16.09,13.92-.08v-3h3v-12.01c0-2.81-2.19-5-5-5ZM13.5,5.29l.12,.03c.56,.13,1.12,.2,1.66,.2,2.07,0,4.08-.86,5.53-2.36l1.6-1.58,1.37,1.36c.84,.94,1.87,1.64,3.07,2.09l.22,.08-.07-.23C26.1,1.96,23.35-.08,20.3-.08s-5.97,2.16-6.77,5.25l-.03,.11Zm-.18,2.06v.16c.31,3.6,3.38,6.41,6.98,6.41s6.76-2.89,6.98-6.58v-.1l-.65-.13c-1.61-.54-3.04-1.5-4.15-2.77l-.09-.1-.09,.1c-1.79,2.06-4.36,3.24-7.03,3.24-.59,0-1.19-.07-1.8-.19l-.15-.03Z"/></svg>