<?xml version="1.0" encoding="UTF-8"?><svg id="Layer_1" xmlns="http://www.w3.org/2000/svg" width="36" height="36" viewBox="0 0 36 36"><path d="M28.48,15.99c-.23,0-.45,.01-.68,.03l-2.9-9.02c-.2-.59-.57-1.09-1.07-1.45-.5-.36-1.09-.55-1.71-.55h-2.12v3l2.05-.07,.98,3.03H11.35l-.25-1.02h.08c.79,0,1.43-.64,1.43-1.43,0-.83-.67-1.5-1.5-1.5H5.99v2.94h2.02l.62,2.57-.86,3.54c-.09,0-.19-.01-.28-.01-4.13,0-7.49,3.35-7.49,7.49s3.35,7.49,7.49,7.49c3.63,0,6.65-2.58,7.34-6.01h1.18c.5,0,.97-.24,1.25-.66l6.79-10.19,.86,2.74c-2.34,1.27-3.93,3.75-3.93,6.6,0,4.15,3.36,7.51,7.51,7.51s7.51-3.36,7.51-7.51-3.36-7.51-7.51-7.51h0ZM7.48,28.02c-2.47,0-4.49-2.01-4.49-4.49,0-2.32,1.77-4.21,4.03-4.44l-1,4.09c-.2,.8,.3,1.62,1.1,1.81,.12,.03,.24,.04,.36,.04,.68,0,1.29-.46,1.46-1.14l1-4.11c1.22,.8,2.03,2.18,2.03,3.74,0,2.47-2.01,4.49-4.49,4.49h0Zm7.71-5.99h-.38c-.48-2.33-2.04-4.25-4.13-5.25l.68-2.8h9.19l-5.36,8.04h0Zm13.28,6.01c-2.49,0-4.51-2.03-4.51-4.51,0-1.49,.74-2.81,1.86-3.63l1.27,4.07c.2,.64,.79,1.05,1.43,1.05,.15,0,.3-.02,.45-.07,.79-.25,1.23-1.09,.98-1.88l-1.26-4.03c2.39,.12,4.3,2.08,4.3,4.49s-2.03,4.51-4.51,4.51h-.01Z"/><path d="M28.48,13.99h1.24v-3h-1.24c-.83,0-1.5,.67-1.5,1.5s.67,1.5,1.5,1.5Z"/></svg>