<?xml version="1.0" encoding="UTF-8"?><svg id="Layer_1" xmlns="http://www.w3.org/2000/svg" width="36" height="36" viewBox="0 0 36 36"><path d="M29.15,9H7.1c-1.63,0-2.95,1.35-2.95,3.01l.04,10.99h2.96v13h9V13h4v23h9v-13.02l3,.02V12c0-1.66-1.34-3-3-3Zm-.35,4.98l-.16,.17-1.49,1.56-1.49-1.56-.16-.17c-.33-.35-.46-.88-.24-1.31,.35-.71,1.2-.81,1.69-.3l.2,.21,.2-.21c.49-.51,1.34-.42,1.69,.3,.21,.43,.09,.96-.24,1.31ZM21.15,3.5C21.15,1.57,22.72,0,24.65,0s3.5,1.57,3.5,3.5-1.57,3.5-3.5,3.5-3.5-1.57-3.5-3.5Zm-13-.04C8.15,1.53,9.72-.04,11.65-.04s3.5,1.57,3.5,3.5-1.57,3.5-3.5,3.5-3.5-1.57-3.5-3.5Z"/></svg>