<?xml version="1.0" encoding="UTF-8"?><svg id="Layer_1" xmlns="http://www.w3.org/2000/svg" width="36" height="36" viewBox="0 0 36 36"><path d="M0,0V18H3.01v-3.03c.01-1.64,1.24-2.91,2.85-3h2.11l.03,.02v-.03h10v3h-7v3.04h25V0H0ZM8,9.97c-1.65,0-3-1.35-3-3s1.35-3,3-3,3,1.35,3,3-1.35,3-3,3Zm-3.01,22.04c-1.65,0-3-1.35-3-3s1.35-3,3-3,3,1.35,3,3-1.35,3-3,3ZM0,36H0Zm10,0h0Zm0,0H0c0-1.66,1.35-3,3-3h4c1.66,0,3,1.34,3,3Zm3,0h0Zm10,0H13c0-1.66,1.35-3,3-3h3.99c1.66,0,3,1.34,3,3Zm0,0h0Zm-5.01-4c-1.65,0-3-1.35-3-3s1.35-3,3-3,3,1.35,3,3-1.35,3-3,3Zm8.01,4h0Zm1.99-7c0-1.65,1.35-3,3-3s3,1.35,3,3-1.35,3-3,3-3-1.35-3-3Zm8.01,7h0Zm0,0h-10c0-1.66,1.35-3,3-3h3.99c1.66,0,3,1.34,3,3ZM11,26c-1.66,0-3-1.34-3-3s1.34-3,3-3,3,1.34,3,3-1.34,3-3,3Zm14,0c-1.66,0-3-1.34-3-3s1.34-3,3-3,3,1.34,3,3-1.34,3-3,3Z"/></svg>