<?xml version="1.0" encoding="UTF-8"?><svg id="Layer_1" xmlns="http://www.w3.org/2000/svg" width="36" height="36" viewBox="0 0 36 36"><path d="M18,4c-7.72,0-14,6.28-14,14s6.28,14,14,14,14-6.28,14-14-6.28-14-14-14Zm1.43,21.44c-.37,.37-.85,.56-1.44,.56s-1.07-.19-1.44-.56c-.37-.37-.55-.85-.55-1.43s.18-1.06,.55-1.43c.37-.37,.85-.56,1.44-.56s1.07,.19,1.44,.56c.37,.37,.55,.85,.55,1.43s-.18,1.06-.55,1.43Zm.55-5.41h-3.98V9.99h3.98v10.04Z"/><path d="M17.98,0C8.05,0,0,8.06,0,18s8.05,18,17.98,18,18.02-8.06,18.02-18S27.94,0,17.98,0Zm.02,34c-8.82,0-16-7.18-16-16S9.18,2,18,2s16,7.18,16,16-7.18,16-16,16Z"/></svg>