<?xml version="1.0" encoding="UTF-8"?><svg id="Layer_1" xmlns="http://www.w3.org/2000/svg" width="35.98" height="36" viewBox="0 0 35.98 36"><path d="M11,36v-9.08c0-1.06-.86-1.92-1.92-1.92H0V1.97C0,.88,.88,0,1.97,0H26.02c1.09,0,1.97,.88,1.97,1.97V20.44l-.04-.03-1.27,1.06-7.82,6.5-1.6,1.35,1.17,1.52,1.82,2.38,.72,.81,.02,1.96H11Zm22-12.99h-3v1.67l-2.03-1.67-7.94,6.63,1.82,2.38,1.15-1.02v5.01h10v-5.03l1.16,1.04,1.82-2.38-2.98-2.58v-4.05Zm-7,9v-3h4v3h-4ZM0,27.03l8.94,8.97h.06v-9H0v.03ZM14,5c-3.31,0-6,2.69-6,6,0,.28,.03,.56,.06,.83,0,.05,.02,.1,.02,.16,.02,.14,.05,.28,.09,.42,.95,4.56,5.83,10.59,5.83,10.59,0,0,4.87-6.03,5.83-10.59l.09-.42c0-.05,.02-.1,.02-.16,.04-.27,.06-.55,.06-.83,0-3.31-2.69-6-6-6Zm0,9c-1.66,0-3-1.34-3-3s1.34-3,3-3,3,1.34,3,3-1.34,3-3,3Z"/></svg>