<?xml version="1.0" encoding="UTF-8"?><svg id="Layer_1" xmlns="http://www.w3.org/2000/svg" width="36" height="36" viewBox="0 0 36 36"><path d="M36.14,18l-6,15H0l6.02-15h5.77c2.06,3.74,4.58,6.88,4.74,7.08l1.56,1.92,1.56-1.92c.16-.2,2.68-3.33,4.74-7.08h11.75Zm-16.79-5.99c.95,0,1.72-.9,1.72-2s-.77-2-1.73-2h-2.27v4h2.28Zm-8.15-1.09c-.04-.32-.08-.64-.08-.96,0-3.83,3.13-6.95,6.98-6.95s6.98,3.12,6.98,6.95c0,.33-.03,.65-.07,.96,0,.06-.02,.12-.03,.18-.03,.17-.06,.33-.1,.49-1.11,5.28-6.77,12.27-6.77,12.27,0,0-5.67-6.98-6.77-12.27-.04-.16-.07-.32-.1-.49,0-.06-.02-.12-.03-.18h-.01Zm3.88,5.09h2v-2h2.25c2.04,0,3.7-1.79,3.7-4s-1.66-4-3.7-4h-4.25v10Z"/></svg>