<?xml version="1.0" encoding="UTF-8"?><svg id="Layer_1" xmlns="http://www.w3.org/2000/svg" width="36" height="36" viewBox="0 0 36 36"><path d="M33.47,19h-7.48v3h-2v-3h-7.96c-1.12,0-2.03,.91-2.03,2.03v12.42c0,1.4,1.14,2.54,2.54,2.54h16.93c1.4,0,2.53-1.13,2.53-2.53v-11.94c0-1.39-1.14-2.53-2.53-2.53h0Zm-11.96,5.08c.96,0,1.74,.78,1.74,1.75s-.78,1.75-1.74,1.75-1.74-.78-1.74-1.75,.78-1.75,1.74-1.75Zm3.49,6.93h-7v-.87c0-1.16,2.33-1.75,3.5-1.75s3.5,.59,3.5,1.75v.87Zm6,0h-4v-2h4v2Zm1-4h-5v-2h5v2ZM23,6.3v10.71h-6v-2h-1v-1h.94l.47-3h-.94l-.47-1-2.99,.32-.85,.91-.19,1.62,1.14,.22-.44,1.91-1.55,.83,.57-1.05s-.44-.89-.47-.95c-.03-.07,.08-.8,.08-.8l-1.41-.5-1.88,5v1.09l.92,.58-.92,1.03-1.38-.52-.46,1.03,1.84,2.55,1.38-2.26h1.84l.46,.75,.3,.11v5.14H6v2h5.99v5.31c.07,.61,.26,1.18,.56,1.69H2.04c-1.13,0-2.04-.91-2.04-2.04V7.01H.02V2.96C.02,1.33,1.34,0,2.97,0h15.02c1.3,0,2.39,.84,2.8,2H3c-.56,0-1,.44-1,1s.44,1,1,1H20.7c.61,0,1.19,.24,1.62,.67,.44,.43,.68,1.01,.68,1.63h0Z"/></svg>