<?xml version="1.0" encoding="UTF-8"?><svg id="Layer_1" xmlns="http://www.w3.org/2000/svg" width="36" height="36" viewBox="0 0 36 36"><path d="M21.81,23.22l-6.15,2.64c-1.39,.6-2.03,2.21-1.44,3.6,.6,1.39,2.21,2.03,3.6,1.44l6.15-2.64c1.39-.6,2.03-2.21,1.44-3.6-.6-1.39-2.21-2.03-3.6-1.44Zm1.94,4.6l-3.04,1.3-1.77-4.13,3.04-1.31c1.14-.49,2.46,.04,2.95,1.18,.49,1.14-.04,2.46-1.18,2.95Z"/><path d="M22.03,19.32l6.21,2.48c1.41,.56,3-.12,3.56-1.53s-.12-3-1.53-3.56l-6.21-2.48c-1.41-.56-3,.12-3.56,1.53-.56,1.41,.12,3,1.53,3.56Zm1.88-4.62l3.07,1.23-1.67,4.17-3.07-1.23c-1.15-.46-1.71-1.77-1.25-2.92,.46-1.15,1.77-1.71,2.92-1.25Z"/><path d="M12,13.73c0-2.18-1.75-4.02-4.16-4.66V2.77c0-.37,.2-.68,.44-.68s.44-.3,.44-.68v-.23c0-.37-.2-.68-.44-.68s-.44-.11-.44-.25-.37-.25-.83-.25h-2.22c-.46,0-.83,.11-.83,.25s-.15,.25-.33,.25-.33,.3-.33,.68v.23c0,.37,.15,.68,.33,.68s.33,.3,.33,.68v6.37c-2.3,.68-3.95,2.48-3.95,4.6,0,.07,0,.14,.01,.21,0,.03-.01,.07-.01,.1v21.28c0,.37,.37,.68,.83,.68H11.17c.46,0,.83-.3,.83-.68V14.04s0-.07-.01-.1c0-.07,.01-.14,.01-.21Z"/><path d="M32.41,33.57l2.48-6.21c.56-1.41-.12-3-1.53-3.56-1.41-.56-3,.12-3.56,1.53l-2.48,6.21c-.56,1.4,.12,3,1.53,3.56,1.41,.56,3-.12,3.56-1.53Zm-4.62-1.88l1.23-3.07,4.17,1.67-1.23,3.07c-.46,1.15-1.77,1.71-2.92,1.25-1.15-.46-1.71-1.77-1.25-2.92Z"/><rect x="3" y="16" width="6" height="4" style="fill:#fff;"/></svg>