<?xml version="1.0" encoding="UTF-8"?><svg id="Layer_1" xmlns="http://www.w3.org/2000/svg" width="36" height="36" viewBox="0 0 36 36"><path d="M9.66,27h3.15c-.73,3.22-3.88,5.54-7.43,4.94-2.65-.45-4.8-2.59-5.25-5.24-.6-3.53,1.68-6.66,4.87-7.43v3.17c-1.38,.67-2.26,2.22-1.88,3.92,.29,1.27,1.32,2.3,2.59,2.58,1.73,.39,3.3-.53,3.95-1.95Zm-.15-13.5c1.38,0,2.51-1.12,2.51-2.51s-1.12-2.51-2.51-2.51-2.51,1.12-2.51,2.51,1.12,2.51,2.51,2.51Zm5.82,8.5h-3.33v-4.18c0-1.17-.74-2.28-1.88-2.55-1.65-.4-3.12,.85-3.12,2.43v4.79c0,1.38,1.13,2.51,2.51,2.51h5.49v7h3v-7.33c0-1.47-1.2-2.67-2.67-2.67Zm17.67-2h3V10.09l-1.99-6.03c-.44-1.23-1.64-2.06-3-2.06h-8.96c-1.36,0-2.56,.83-3,2.08l-2.04,6.01v9.91h3v-3h13v3ZM21.74,5h9.47l1.23,4h-11.94l1.24-4Zm.26,8h-2v-2h2v2Zm11,0h-2v-2h2v2Z"/></svg>