<?xml version="1.0" encoding="UTF-8"?><svg id="Layer_1" xmlns="http://www.w3.org/2000/svg" width="36" height="36" viewBox="0 0 36 36"><path d="M21,22h14v9c0,1.66-1.34,3-3,3H4c-1.66,0-3-1.34-3-3v-9H15v1.02c0,1.09,.88,1.98,1.98,1.98h2.05c1.09,0,1.98-.88,1.98-1.98v-1.02h-.01Zm-2-3h-2v4h2v-4Zm17-9v6.04c0,1.54-1.19,2.8-2.71,2.96h-12.29v-.02c0-1.09-.88-1.98-1.98-1.98h-2.05c-1.09,0-1.98,.88-1.98,1.98v.02H2.69c-1.51-.16-2.69-1.41-2.69-2.96v-6c0-1.67,1.37-3.05,3.05-3.05H12v-1.97c0-1.6,1.28-2.93,2.9-3.03h6.1c1.72,.1,3,1.44,3,3.03v1.97h9c1.66,0,3,1.34,3,3h0Zm-15-4.93s-.04-.05-.1-.06h-5.9v2h6v-1.94Z"/></svg>