<svg xmlns="http://www.w3.org/2000/svg" width="3926" height="1420" viewBox="0 0 3926 1420"><g fill="none" fill-rule="evenodd"><g transform="translate(10 10)"><rect width="340" height="512" fill="#FFF"/><rect width="300" height="512" x="20" y="522" fill="#FFF"/><rect width="300" height="76" x="20" y="20" fill="#C00"/><rect width="300" height="483" x="20" y="106" fill="#2964A3"/><rect width="300" height="339" x="20" y="598" fill="#FC0"/><rect width="300" height="117" x="20" y="948" fill="#668547"/><rect width="300" height="543" x="20" y="522" fill="#FFF" fill-opacity=".57"/><rect width="340" height="512" stroke="#4D4D4D" stroke-width="20" rx="8"/></g><g transform="translate(641 10)"><rect width="1044" height="788" fill="#FFF"/><rect width="980" height="130" x="30" y="788" fill="#FFF"/><rect width="980" height="100" x="30" y="30" fill="#C00"/><rect width="640" height="678" x="370" y="151" fill="#2964A3"/><rect width="300" height="678" x="30" y="151" fill="#FC0"/><rect width="980" height="117" x="30" y="850" fill="#668547"/><rect width="980" height="170" x="30" y="797" fill="#FFF" fill-opacity=".57"/><rect width="788" height="1044" x="128" y="-128" stroke="#4D4D4D" stroke-width="20" rx="8" transform="rotate(-90 522 394)"/></g><g transform="translate(1976 10)"><line x1="1372" x2="572" y1="1390" y2="1390" stroke="#4D4D4D" stroke-linecap="round" stroke-width="40"/><line x1="971.5" x2="972" y1="1155.5" y2="1337" stroke="#4D4D4D" stroke-linecap="square" stroke-width="120"/><rect width="1940" height="1100" fill="#FFF"/><rect width="1940" height="1100" stroke="#4D4D4D" stroke-linejoin="round" stroke-width="20" rx="8"/><rect width="1332" height="678" x="504" y="210" fill="#2964A3"/><rect width="1732" height="120" x="104" y="50" fill="#C00"/><rect width="1732" height="122" x="104" y="928" fill="#668547"/><rect width="351" height="678" x="105" y="210" fill="#FC0"/></g></g></svg>