<svg width="10" height="10" viewBox="0 0 10 10" fill="none" xmlns="http://www.w3.org/2000/svg">
<path d="M0.572899 0.00327209C0.459691 0.00320032 0.349006 0.036716 0.254854 0.0995771C0.160701 0.162438 0.0873146 0.251818 0.0439819 0.356405C0.000649228 0.460992 -0.0106814 0.576084 0.0114242 0.687113C0.0335299 0.798142 0.0880779 0.900118 0.168164 0.980132L4.18928 5L0.168164 9.01987C0.0604905 9.12754 0 9.27358 0 9.42585C0 9.57812 0.0604905 9.72416 0.168164 9.83184C0.275838 9.93951 0.421875 10 0.574148 10C0.726422 10 0.872459 9.93951 0.980133 9.83184L5.00125 5.81197L9.02237 9.83184C9.13023 9.93836 9.2755 9.99844 9.4271 9.99923C9.5023 9.99958 9.57681 9.98497 9.6463 9.95623C9.71579 9.92749 9.77886 9.8852 9.83184 9.83184C9.93924 9.72402 9.99955 9.57804 9.99955 9.42585C9.99955 9.27367 9.93924 9.12768 9.83184 9.01987L5.81072 5L9.83184 0.980132C9.88515 0.926818 9.92744 0.863524 9.9563 0.793865C9.98515 0.724206 10 0.649547 10 0.574148C10 0.49875 9.98515 0.42409 9.9563 0.354431C9.92744 0.284772 9.88515 0.221479 9.83184 0.168164C9.77852 0.114849 9.71523 0.072558 9.64557 0.0437044C9.57591 0.0148507 9.50125 0 9.42585 0C9.35045 0 9.27579 0.0148507 9.20614 0.0437044C9.13648 0.072558 9.07318 0.114849 9.01987 0.168164L4.99813 4.19053L0.976385 0.170662C0.868901 0.0635642 0.723383 0.00338113 0.57165 0.00327209H0.572899Z" fill="#828EA2"/>
</svg>
