<svg xmlns="http://www.w3.org/2000/svg" viewBox="0 0 311.53 63.61"><g style="isolation:isolate"><path d="M148.31,17.77v9.69h17v6.8h-17V47.61h-8.47V11h27.68v6.8Z" transform="translate(-3)" style="fill:#3455db"/><path d="M200.34,19.45V47.61h-7.75V44.26A11.4,11.4,0,0,1,183.85,48c-7.07,0-12-4-12-12.66V19.45H180v14.7c0,4.72,2.09,6.81,5.7,6.81,3.77,0,6.49-2.41,6.49-7.59V19.45Z" transform="translate(-3)" style="fill:#3455db"/><path d="M205.2,45l2.72-5.86a19.28,19.28,0,0,0,9.79,2.72c3.77,0,5.18-1,5.18-2.57,0-4.6-17,.11-17-11.14,0-5.34,4.82-9.11,13-9.11,3.88,0,8.17.89,10.84,2.46L227,27.3a16.13,16.13,0,0,0-8.11-2.09c-3.66,0-5.23,1.15-5.23,2.61,0,4.82,17,.16,17,11.25,0,5.24-4.87,9-13.3,9C212.63,48,207.82,46.72,205.2,45Z" transform="translate(-3)" style="fill:#3455db"/><path d="M234.72,11c0-2.57,2-4.55,5.07-4.55s5.08,1.88,5.08,4.39c0,2.72-2,4.71-5.08,4.71S234.72,13.53,234.72,11Zm1,8.48h8.17V47.61h-8.17Z" transform="translate(-3)" style="fill:#3455db"/><path d="M249.37,33.53c0-8.48,6.54-14.5,15.49-14.5s15.44,6,15.44,14.5S273.81,48,264.86,48,249.37,42,249.37,33.53Zm22.66,0c0-4.87-3.09-7.8-7.17-7.8s-7.22,2.93-7.22,7.8,3.14,7.8,7.22,7.8S272,38.39,272,33.53Z" transform="translate(-3)" style="fill:#3455db"/><path d="M314.53,31.49V47.61h-8.17V32.74c0-4.55-2.09-6.65-5.7-6.65-3.93,0-6.75,2.41-6.75,7.59V47.61h-8.17V19.45h7.8v3.3A12.33,12.33,0,0,1,302.86,19C309.5,19,314.53,22.9,314.53,31.49Z" transform="translate(-3)" style="fill:#3455db"/></g><path d="M91.86,10.85C89.69,9,88,8.68,87,10L80.91,17.2l-4.09,4.87-6.34-5.3L81.86,3.21Q87.47-3.57,96.47,4l8.69,7.3L114.37,19c5.91,4.95,7,9.73,3.3,14.16l-8,9.57L102,51.88l-6.87,8.17c-3.82,4.52-8.69,4.35-14.6-.69l-9.22-7.74-8.69-7.3L53.7,36.84l5.21-6.25,9.74,8.08,7.91,6.78,8.26,6.95c2.17,1.83,3.82,2.18,4.87.87l6.08-7.21,4-4.78,4-4.78,6.08-7.22c1-1.21.44-2.78-1.74-4.69l-8.25-7Z" transform="translate(-3)" style="fill:#3455db"/><path d="M35.27,52.66c2.17,1.83,3.83,2.18,4.87.87l6.08-7.21,4.09-4.87,6.34,5.39L45.27,60.4q-5.61,6.78-14.61-.78L22,52.32l-9.21-7.74c-5.91-4.95-7-9.73-3.3-14.17l8-9.56,7.83-9,6.86-8.17C36-.88,40.83-.71,46.75,4.34L56,12.07l8.69,7.3,8.95,7.48-5.21,6.26L58.65,25l-8-6.78L42.4,11.29c-2.17-1.83-3.83-2.17-4.87-.87l-6.08,7.21-4,4.79-4,4.78-6.08,7.21c-1.05,1.22-.44,2.78,1.73,4.69l8.26,7Z" transform="translate(-3)" style="fill:#262a62"/><path d="M20.32,10.94a8.67,8.67,0,1,1-9.21-8.08A8.72,8.72,0,0,1,20.32,10.94Z" transform="translate(-3)" style="fill:#262a62"/><path d="M123,53a8.67,8.67,0,1,1-9.22-8.08A8.62,8.62,0,0,1,123,53Z" transform="translate(-3)" style="fill:#3455db"/></svg>