<svg width="78" height="13" viewBox="0 0 78 13" fill="none" xmlns="http://www.w3.org/2000/svg">
<path d="M5.48703 1.81738C8.08615 1.81738 10.0289 3.20915 10.659 5.48658H7.74485C7.29854 4.5756 6.45842 4.14542 5.46078 4.14542C3.83304 4.14542 2.70413 5.30944 2.70413 7.182C2.70413 9.05455 3.83304 10.2186 5.46078 10.2186C6.45842 10.2186 7.29854 9.76309 7.74485 8.87742H10.659C10.0289 11.1549 8.08615 12.5466 5.48703 12.5466C2.25782 12.5213 0 10.3198 0 7.15669C0 3.99359 2.25782 1.81738 5.48703 1.81738Z" fill="#293C5B"/>
<path d="M15.9612 12.5738C13.4146 12.5738 11.498 10.929 11.498 8.27203C11.498 5.61503 13.4671 3.97021 16.0137 3.97021C18.5603 3.97021 20.5293 5.61503 20.5293 8.27203C20.5293 10.929 18.5078 12.5738 15.9612 12.5738ZM15.9612 10.347C16.9063 10.347 17.7989 9.66379 17.7989 8.27203C17.7989 6.85496 16.9326 6.19704 15.9874 6.19704C15.016 6.19704 14.1759 6.85496 14.1759 8.27203C14.2022 9.66379 14.9898 10.347 15.9612 10.347Z" fill="#293C5B"/>
<path d="M25.8079 12.5738C23.2612 12.5738 21.3447 10.929 21.3447 8.27203C21.3447 5.61503 23.3138 3.97021 25.8604 3.97021C28.407 3.97021 30.376 5.61503 30.376 8.27203C30.376 10.929 28.3545 12.5738 25.8079 12.5738ZM25.8079 10.347C26.753 10.347 27.6456 9.66379 27.6456 8.27203C27.6456 6.85496 26.7792 6.19704 25.8341 6.19704C24.8627 6.19704 24.0226 6.85496 24.0226 8.27203C24.0226 9.66379 24.8365 10.347 25.8079 10.347Z" fill="#293C5B"/>
<path d="M31.3208 1.81738H33.9724V7.48566L36.5978 4.09481H39.8795L36.2828 8.2701L39.932 12.4454H36.6503L33.9987 8.92803V12.4454H31.3471V1.81738H31.3208Z" fill="#293C5B"/>
<path d="M40.5093 1.84342C40.5093 1.05898 41.1394 0.45166 42.0845 0.45166C43.0296 0.45166 43.6597 1.05898 43.6597 1.84342C43.6597 2.60257 43.0296 3.20988 42.0845 3.20988C41.1394 3.20988 40.5093 2.60257 40.5093 1.84342ZM40.7718 4.07025H43.4234V12.4208H40.7718V4.07025Z" fill="#293C5B"/>
<path d="M48.7784 12.5738C46.2318 12.5738 44.394 10.929 44.394 8.27203C44.394 5.61503 46.2055 3.97021 48.7784 3.97021C51.2988 3.97021 53.1103 5.58972 53.1103 8.14551C53.1103 8.37325 53.084 8.6516 53.0578 8.90465H47.0457C47.1507 9.99276 47.8333 10.4989 48.6997 10.4989C49.4348 10.4989 49.8548 10.1446 50.0911 9.68911H52.9265C52.4802 11.3086 50.9575 12.5738 48.7784 12.5738ZM47.0719 7.46228H50.4061C50.4061 6.5513 49.671 6.0199 48.7784 6.0199C47.8858 6.0199 47.2294 6.526 47.0719 7.46228Z" fill="#293C5B"/>
<path d="M65.3717 12.5738C62.8251 12.5738 60.9873 10.929 60.9873 8.27203C60.9873 5.61503 62.7988 3.97021 65.3717 3.97021C67.892 3.97021 69.7036 5.58972 69.7036 8.14551C69.7036 8.37325 69.6773 8.6516 69.6511 8.90465H63.6389C63.744 9.99276 64.4266 10.4989 65.2929 10.4989C66.028 10.4989 66.4481 10.1446 66.6844 9.68911H69.5198C69.0735 11.3086 67.5245 12.5738 65.3717 12.5738ZM63.6389 7.46228H66.9732C66.9732 6.5513 66.2381 6.0199 65.3454 6.0199C64.4791 6.0199 63.7965 6.526 63.6389 7.46228Z" fill="#293C5B"/>
<path d="M74.5077 12.5738C72.1973 12.5738 70.6484 11.3339 70.5171 9.71441H73.1425C73.195 10.2964 73.7463 10.676 74.4814 10.676C75.164 10.676 75.5316 10.3723 75.5316 9.99276C75.5316 8.6516 70.8059 9.61318 70.8059 6.5513C70.8059 5.13424 72.0661 3.97021 74.3239 3.97021C76.5554 3.97021 77.8156 5.15954 77.9731 6.80435H75.5053C75.4265 6.24765 74.9802 5.86807 74.2189 5.86807C73.5888 5.86807 73.2475 6.09582 73.2475 6.50069C73.2475 7.84185 77.9469 6.88027 77.9994 10.0181C78.0257 11.4604 76.6867 12.5738 74.5077 12.5738Z" fill="#293C5B"/>
<path d="M55.866 4.22412H53.1094L55.6297 8.72838H58.3864L55.866 4.22412Z" fill="#293C5B"/>
<path d="M55.5791 8.59956L55.6579 8.72609H58.4145L56.603 5.56299L55.5791 8.59956Z" fill="#293C5B"/>
<path d="M60.6202 0.426758L55.6582 8.72673H58.4148L63.3768 0.426758H60.6202Z" fill="#293C5B"/>
<path d="M55.6582 9.96436H58.3361V12.5707H55.6582V9.96436Z" fill="#293C5B"/>
</svg>
