<svg width="160" height="77" viewBox="0 0 160 77" fill="none" xmlns="http://www.w3.org/2000/svg">
<g clip-path="url(#clip0_900_7307)">
<path d="M11.1294 1H0V76.02H11.1294V1Z" fill="#FFCC00"/>
<path d="M108.205 58.879C109.812 58.0984 111.286 57.1517 112.575 56.0555C112.86 55.6569 113.178 55.3579 113.546 55.1586C116.041 52.634 117.598 49.362 117.598 45.3593C117.598 45.3593 117.598 42.5025 117.598 41.7883C117.498 41.8215 117.397 41.8381 117.28 41.8381C117.163 41.8381 117.046 41.8215 116.929 41.7883L116.661 43.2997C114.182 42.8347 114.45 40.3932 116.125 39.5627C117.079 39.081 117.381 38.7323 117.096 38.3669C117.012 38.2672 116.912 38.2174 116.795 38.2174C116.443 38.2174 115.924 38.5994 115.422 38.9648C115.204 39.1309 114.919 39.2139 114.618 39.2139C113.965 39.2139 113.262 38.7987 112.96 37.8188L112.089 38.3004C111.939 36.4568 113.094 35.5433 114.266 35.5433C114.819 35.5433 115.388 35.7426 115.823 36.1412C115.991 36.2907 116.158 36.3572 116.326 36.3572C116.862 36.3572 117.23 35.6928 116.51 35.3108C115.823 34.9454 115.17 33.816 115.807 33.1018L114.769 32.1385C115.237 31.8561 115.74 31.7232 116.209 31.7232C116.711 31.7232 117.196 31.8893 117.598 32.2215V19.2C117.28 19.1336 116.912 18.818 116.912 18.3696C116.912 17.8713 117.213 17.5723 117.598 17.4229V16.3433C116.811 16.5094 116.225 16.991 115.991 17.6554L114.886 17.672C114.836 16.8415 115.237 16.0941 116.091 15.8118V14.7322C115.371 14.8817 114.902 15.2305 114.618 15.546C114.534 15.6291 114.467 15.7287 114.383 15.8284L113.546 15.845C113.513 15.0478 113.915 14.3336 114.668 14.0844V13.5862H111.604H76.7761H73.7119V14.0844C74.4822 14.3336 74.884 15.0478 74.8338 15.845L73.9966 15.8284C73.9296 15.7287 73.8459 15.6457 73.7622 15.546C73.4775 15.2471 72.9919 14.8983 72.2887 14.7322V15.8118C73.1259 16.0941 73.5278 16.8415 73.4943 17.672L72.3892 17.6554C72.1547 16.991 71.5687 16.526 70.7817 16.3433V17.4229C71.1668 17.5723 71.4515 17.8713 71.4515 18.3696C71.4515 18.8014 71.0999 19.1336 70.7817 19.2V32.2049C71.1836 31.8727 71.6524 31.7232 72.1547 31.7232C72.6403 31.7232 73.1426 31.8727 73.5947 32.1385L72.5566 33.1018C73.1761 33.8326 72.5231 34.9454 71.8533 35.3108C71.1333 35.6928 71.5185 36.3572 72.0375 36.3572C72.205 36.3572 72.3724 36.2907 72.5399 36.1412C72.9752 35.7426 73.5445 35.5433 74.0971 35.5433C75.2691 35.5433 76.4245 36.4402 76.2738 38.3004L75.3696 37.8022C75.0682 38.7821 74.365 39.1973 73.7119 39.1973C73.4105 39.1973 73.1259 39.1143 72.9082 38.9482C72.4059 38.5828 71.8868 38.2008 71.5352 38.2008C71.418 38.2008 71.3008 38.2506 71.2338 38.3502C70.9659 38.7156 71.2506 39.081 72.205 39.5461C73.8961 40.3765 74.164 42.8181 71.6692 43.2831L71.4013 41.7717C71.284 41.8049 71.1668 41.8215 71.0496 41.8215C70.9492 41.8215 70.8487 41.8049 70.7482 41.7883V45.3593C70.7482 49.3786 72.3222 52.6506 74.8338 55.1752C75.1519 55.3579 75.4533 55.6403 75.7212 56.0056C77.0105 57.1351 78.5175 58.0818 80.1417 58.879H108.205Z" fill="white"/>
<path d="M118.285 2.30866C118.285 2.12596 118.268 1.95987 118.251 1.77717H115.723C115.706 3.20554 115.338 4.58409 114.702 5.66368C114.266 6.39448 113.747 6.94257 113.161 7.27476H113.345C116.075 7.29136 118.285 5.06575 118.285 2.30866ZM115.723 11.8256C115.522 11.7924 115.338 11.7758 115.137 11.7758C114.986 11.7758 114.836 11.7924 114.685 11.809C114.216 11.8588 113.747 12.0083 113.379 12.2741C112.96 12.573 112.659 13.0713 112.642 13.6028H113.429C113.781 13.3204 114.199 13.1211 114.651 13.0215V14.1011C113.881 14.3502 113.479 15.0644 113.529 15.8616L114.367 15.845C114.434 15.7454 114.517 15.6623 114.601 15.5627C114.886 15.2637 115.371 14.9149 116.075 14.7488V15.8284C115.237 16.1108 114.836 16.8582 114.869 17.6886L115.974 17.672C116.225 16.9744 116.845 16.4928 117.682 16.3433V17.4063C117.247 17.5391 116.895 17.8381 116.895 18.3862C116.895 18.8679 117.33 19.2167 117.682 19.2167L117.649 20.1301C117.649 20.1301 117.649 20.1301 117.665 20.1301C117.9 20.1301 118.101 20.0637 118.318 19.9641C119.005 19.5987 119.273 18.8014 119.256 18.0706L120.261 17.589C120.261 17.6222 120.277 17.6554 120.277 17.7052C120.361 18.3198 120.277 18.9177 120.076 19.4326L121.969 21.2097C122.337 20.3128 122.822 19.4658 123.409 18.6852C123.626 18.4194 123.844 18.1537 124.078 17.9211C123.258 17.3066 122.253 16.5426 121.918 16.2935C120.863 15.5128 119.892 14.6492 118.888 13.8021C118.268 13.2872 117.632 12.7723 116.962 12.3239C116.577 12.0748 116.158 11.9087 115.723 11.8256ZM133.288 44.7946C133.438 44.8776 133.589 44.9108 133.74 44.9108C134.108 44.9108 134.46 44.7115 134.661 44.3959C134.627 44.2132 134.56 44.0139 134.51 43.8312C134.342 43.333 134.091 42.8513 133.74 42.3863C133.288 41.7883 132.685 41.2402 131.881 40.7918C131.764 40.7253 131.63 40.6423 131.479 40.5593C132.015 41.207 132.333 41.6721 132.534 42.0707C132.752 42.4693 132.852 42.7849 133.003 43.0838C132.953 43.1337 132.919 43.1835 132.886 43.2333C132.517 43.7814 132.735 44.5122 133.288 44.7946ZM55.8125 42.0541C56.0134 41.6721 56.3315 41.1904 56.8674 40.5426C56.7334 40.6257 56.5827 40.7087 56.4655 40.7752C55.6618 41.2236 55.059 41.7717 54.6069 42.3696C54.2553 42.8347 54.0209 43.333 53.8367 43.8146C53.7697 43.9973 53.7195 44.1966 53.686 44.3793C53.8869 44.6949 54.2385 44.8942 54.6069 44.8942C54.7576 44.8942 54.9083 44.861 55.059 44.778C55.6115 44.4956 55.8292 43.7648 55.4441 43.2001C55.4106 43.1503 55.3771 43.1004 55.3269 43.0506C55.4943 42.7683 55.5948 42.4527 55.8125 42.0541ZM125.183 12.5896C125.384 12.5896 125.602 12.573 125.82 12.5564C125.167 12.3239 124.648 11.9419 124.313 11.4104C123.844 10.6962 123.777 9.9322 123.961 9.25123C123.928 9.25123 123.894 9.26784 123.861 9.26784C123.074 9.43393 122.672 10.0319 122.822 10.8291C123.04 12.0249 123.794 12.5896 125.183 12.5896ZM134.744 46.1565C134.761 45.9904 134.778 45.8243 134.778 45.6416C134.46 45.8243 134.091 45.924 133.723 45.924C133.388 45.924 133.087 45.8409 132.785 45.6914C132.199 45.3925 131.797 44.8444 131.68 44.1966C131.596 43.7814 131.647 43.3496 131.814 42.9676C131.814 42.9676 131.814 42.951 131.797 42.951C131.345 42.8679 130.843 42.8015 130.29 42.735C129.369 42.6354 128.532 42.5856 127.762 42.5856C120.562 42.5856 119.976 46.5053 119.976 46.5053C118.854 50.6742 122.22 52.551 122.22 52.551C122.22 52.551 122.99 56.3545 121.282 57.7994L119.507 57.2015L118.62 56.9025L118.117 56.7365C117.314 55.607 116.008 54.8098 114.769 54.8098C113.563 54.8098 112.408 55.5738 111.838 57.5503L113.094 57.2846C113.094 58.5634 113.513 58.8956 114.166 58.8956C114.3 58.8956 114.45 58.879 114.601 58.8624C114.785 58.8292 114.969 58.796 115.17 58.7628C115.79 58.6465 116.242 58.5136 116.56 58.5136C116.862 58.5136 117.062 58.6299 117.18 58.9455C117.347 59.4271 116.878 59.7261 116.276 59.8756C114.802 60.2077 113.965 61.2375 114.233 62.6161C114.3 62.9316 114.4 63.2472 114.584 63.596C114.651 63.7455 114.735 63.8783 114.836 64.0278C114.836 64.0278 114.852 64.0278 114.852 64.0444L116.309 63.1642C116.527 63.3801 116.778 63.4631 117.029 63.4631C117.582 63.4631 118.117 63.0645 118.318 62.7157C118.335 62.6825 118.352 62.6493 118.369 62.6161C118.536 62.2839 118.553 61.9019 118.553 61.5531C118.553 61.3538 118.536 61.1545 118.536 60.9718C118.536 60.7558 118.536 60.5731 118.586 60.4403C118.67 60.1745 118.888 59.9918 119.122 59.8922C119.206 59.859 119.306 59.8423 119.39 59.8423C119.541 59.8423 119.691 59.8922 119.825 59.9918C120.177 60.241 120.177 60.623 120.127 61.005C120.076 61.4036 120.009 61.769 120.227 62.1012C120.244 62.1344 120.261 62.151 120.277 62.1842C120.361 62.2839 120.462 62.3835 120.562 62.4666C120.629 62.5164 120.93 62.7323 120.93 62.8154L120.78 64.5759C121.717 64.5095 122.755 64.3102 123.258 63.4631C123.358 63.297 123.442 63.0811 123.492 62.8652C123.676 62.2174 123.76 61.4202 123.861 60.3074C124.279 60.1413 124.648 59.9254 124.966 59.643C125.368 59.2942 125.686 58.8624 125.87 58.3143C126.372 56.8195 126.808 53.8299 126.138 50.6742C126.138 50.6742 132.886 49.8437 134.342 49.1129C134.476 48.0998 134.61 47.0866 134.744 46.1565ZM128.8 7.62355C128.8 7.62355 127.879 8.17164 128.063 9.03531C128.365 9.66646 128.75 10.3142 129.235 10.8789L130.173 9.94881C131.278 8.93566 132.249 8.57026 133.053 8.57026C134.108 8.57026 134.845 9.23462 135.146 9.99864C135.615 11.1613 135.565 12.0914 135.397 12.6893C135.263 13.1377 134.895 13.5031 134.058 13.5696C133.907 13.5862 133.74 13.5862 133.572 13.5862C131.848 13.5862 129.587 12.9717 129.587 12.9717C129.235 14.8319 129.018 15.1973 131.697 15.1973C132.316 15.1973 133.087 15.1807 134.041 15.1474L131.362 16.3599C131.061 16.3433 130.776 16.3267 130.491 16.3267C128.515 16.3267 126.942 16.908 125.702 17.8547C125.418 18.0706 125.15 18.3032 124.899 18.5523C123.944 19.5156 123.258 20.7115 122.772 21.9738C122.638 22.3391 122.521 22.7045 122.421 23.0699C121.902 24.9966 121.835 27.0063 122.102 28.6174C122.303 28.3682 122.504 28.1357 122.739 27.9032L122.856 27.7869C123.66 27.0063 125.016 25.661 126.64 24.8305C127.243 24.299 127.812 23.7675 128.365 23.1862C129.554 21.9405 130.608 20.562 131.395 19.0007C130.91 20.6782 130.089 22.2893 129.118 23.7675C128.733 24.3488 128.331 24.9135 127.913 25.4616C127.544 25.6111 127.209 25.7772 126.875 25.9765C125.451 26.7738 124.246 28.0028 123.542 28.7004C123.124 29.099 122.789 29.5475 122.471 30.0125C122.22 30.3779 122.002 30.7433 121.768 31.1253C121.6 31.4077 121.416 31.7066 121.249 31.989C120.495 33.2015 119.49 34.3973 118.921 34.3973C118.72 34.3973 118.569 34.2478 118.502 33.9156C118.201 32.4042 117.247 31.7399 116.209 31.7399C115.723 31.7399 115.221 31.8893 114.769 32.1551L115.807 33.1184C115.187 33.8492 115.84 34.962 116.51 35.3274C117.23 35.7094 116.845 36.3738 116.326 36.3738C116.158 36.3738 115.991 36.3073 115.823 36.1579C115.388 35.7592 114.819 35.5599 114.266 35.5599C113.094 35.5599 111.939 36.4568 112.089 38.317L112.994 37.8188C113.295 38.7987 113.998 39.2139 114.651 39.2139C114.953 39.2139 115.237 39.1309 115.455 38.9648C115.957 38.5994 116.476 38.2174 116.828 38.2174C116.945 38.2174 117.062 38.2672 117.129 38.3669C117.397 38.7323 117.113 39.0977 116.158 39.5627C114.467 40.3932 114.199 42.8347 116.694 43.2997L116.962 41.7883C117.079 41.8215 117.196 41.8382 117.314 41.8382C118.034 41.8382 118.536 41.207 118.62 40.742C118.737 40.061 118.703 39.6458 118.737 39.2139C118.754 38.8319 119.005 38.6658 119.256 38.6658C119.557 38.6658 119.859 38.8817 119.892 39.2638C119.942 39.9779 119.926 40.908 121.198 41.124L121.6 42.4029C122.806 41.9876 124.011 40.6091 121.818 38.2838C121.784 37.1046 123.04 36.4236 124.798 35.4437C125.1 35.2776 125.418 35.0949 125.736 34.9122C125.903 34.8125 126.071 34.7129 126.238 34.6132C126.59 34.3973 127.946 33.4174 129.135 32.4042L130.173 32.9523C129.955 33.135 129.721 33.3343 129.453 33.5669C128.382 34.4471 127.226 35.3108 126.791 35.5599C126.707 35.6098 126.623 35.6596 126.54 35.7094C127.678 36.7558 128.901 37.6693 130.006 38.4001C130.458 38.699 130.893 38.9814 131.295 39.2305C131.697 39.4797 132.082 39.6956 132.4 39.8783C133.288 40.3766 133.991 40.9911 134.527 41.6887C134.878 42.1371 135.146 42.6188 135.347 43.1004C135.548 43.5655 135.682 44.0472 135.749 44.5288C135.782 44.6949 135.799 44.8444 135.816 45.0105C135.849 45.4589 135.833 45.8908 135.782 46.306C135.715 46.7544 135.665 47.2029 135.598 47.6513C135.515 48.3323 135.448 48.9966 135.397 49.6776C135.33 50.4748 135.297 51.2555 135.297 52.0361C135.297 54.4278 135.665 56.1385 137.34 57.7662C138.545 58.9455 140.236 59.2278 141.877 59.3441C142.731 59.3939 145.126 59.7427 146.75 59.9918C147.688 60.1247 148.391 60.9053 148.441 61.852C148.508 63.1309 148.491 64.8084 148.039 65.3731L145.829 65.0742C145.31 64.3102 144.071 63.7122 142.865 63.7122C141.928 63.7122 141.007 64.0776 140.488 65.041C140.337 65.3233 140.203 65.6555 140.136 66.0541C140.119 66.1704 140.102 66.2866 140.086 66.4195L140.789 66.1372L141.191 65.9711C141.208 66.0707 141.224 66.1538 141.241 66.2368C141.475 67.2001 141.978 67.5489 142.581 67.5489C142.865 67.5489 143.167 67.4659 143.485 67.3496C143.518 67.333 143.552 67.3164 143.602 67.2998C144.171 67.0673 144.573 66.8846 144.874 66.8846C145.075 66.8846 145.226 66.9676 145.36 67.2001C145.544 67.5157 145.36 67.7815 145.042 67.9974C144.941 68.0638 144.807 68.1303 144.69 68.1801C142.999 68.8777 142.514 70.5053 144.071 72.1995L145.243 71.1697C145.427 71.286 145.611 71.3358 145.779 71.3358C146.348 71.3358 146.867 70.8209 147.001 70.4389C147.219 69.8576 146.984 69.1932 146.901 68.7116C146.884 68.5787 146.867 68.4458 146.884 68.3462C146.917 68.0804 147.101 67.8645 147.319 67.7482C147.42 67.6984 147.52 67.6652 147.637 67.6652C147.738 67.6652 147.838 67.6818 147.939 67.7316C148.039 67.7815 148.123 67.8479 148.19 67.9309C148.341 68.1136 148.374 68.3628 148.374 68.6119C148.374 68.7448 148.374 68.8943 148.391 69.0271C148.424 69.2597 148.491 69.4756 148.692 69.6583C148.793 69.7413 148.893 69.8078 148.994 69.8742C149.061 69.9074 149.379 70.0569 149.395 70.1233L149.546 71.751C150.718 71.4687 152.007 70.904 151.689 69.0936C151.639 68.7946 151.539 68.4458 151.371 68.0638C151.321 67.931 151.254 67.7815 151.17 67.632C152.192 67.1337 152.861 66.187 153.029 65.0742C153.18 64.061 153.012 60.4569 152.895 58.3974C152.845 57.5669 152.208 56.8859 151.388 56.7697C150.45 56.6368 149.245 56.4541 148.357 56.2714C146.951 55.9724 145.594 55.3579 145.276 54.3614C145.008 53.4977 145.159 53.398 145.243 52.5178C145.31 51.8368 145.394 51.1392 145.444 50.4582C145.444 50.3586 145.461 50.2423 145.461 50.1427C145.477 49.7441 145.461 49.3288 145.41 48.9302C145.494 48.98 145.578 49.0299 145.661 49.0797C145.929 49.2292 146.214 49.3288 146.499 49.4119C146.817 49.4949 147.135 49.5281 147.47 49.5281C148.173 49.5281 148.86 49.3454 149.479 48.9634C150.601 48.2825 151.254 47.1032 151.221 45.8077C151.17 43.4991 149.847 41.8714 148.575 40.2935C147.972 39.5461 147.336 38.7655 146.867 37.935C145.377 35.2776 145.025 32.3876 145.829 29.3482C146.181 28.0194 146.984 26.8236 147.838 25.5447C148.156 25.063 148.458 24.6146 148.759 24.1163C148.759 24.1163 149.429 24.4153 149.864 24.3156C149.981 24.2824 150.099 24.2326 150.233 24.1495C151.254 23.5184 152.342 20.944 152.292 17.8547C152.259 15.3966 151.673 13.3537 150.517 11.6762C150.768 12.3737 150.986 13.1045 151.12 13.8353C151.271 14.6326 151.321 15.463 151.271 16.2602C151.221 17.0741 151.053 17.8547 150.785 18.5855C150.902 17.8049 150.902 17.0243 150.802 16.2602C150.701 15.4962 150.501 14.7654 150.216 14.0679C149.965 13.4533 149.663 12.8554 149.312 12.2907C149.546 13.7191 149.546 15.164 149.161 16.9578C148.927 18.0706 148.441 19.1336 148.022 20.0637C147.637 20.9108 147.353 21.5917 147.235 22.1565C147.101 22.771 147.185 23.236 147.604 23.618C147.537 23.7343 147.453 23.8506 147.386 23.9668C147.202 24.2492 147.001 24.5482 146.8 24.8471C145.929 26.1592 145.025 27.5046 144.623 29.0326C143.753 32.3544 144.154 35.643 145.779 38.5496C146.298 39.4797 146.967 40.2935 147.604 41.0907C148.793 42.569 149.931 43.9641 149.981 45.8575C149.998 46.7212 149.58 47.4686 148.843 47.9171C148.073 48.3821 147.152 48.4153 146.365 48.0333C146.348 48.0167 146.314 48.0167 146.298 48.0001C145.695 47.6845 145.159 47.0866 144.841 46.389C144.824 46.3558 144.824 46.3226 144.808 46.2894C144.422 45.1766 143.954 44.0804 143.418 43.034C141.844 39.9115 139.885 36.9883 138.646 33.6997C137.574 30.8762 138.06 27.4381 138.06 27.4381C139.148 27.87 140.739 27.9198 140.739 27.9198C140.688 24.3987 148.307 16.227 143.669 6.2616C143.351 6.77648 142.932 7.30797 142.346 7.85607L141.928 8.25469V6.8097C144.355 4.31835 143.234 1.94326 142.329 1.14602C141.643 1.39516 140.856 2.14256 140.27 3.05606L139.248 2.72388C139.5 2.30866 139.784 1.91004 140.102 1.54464C140.002 1.4782 139.901 1.42838 139.784 1.41177C139.734 1.41177 139.667 1.39516 139.583 1.39516C138.06 1.39516 132.333 2.70727 131.764 3.00623L131.312 4.53427C129.755 4.94949 128.315 5.77994 127.293 6.32804C127.377 6.75988 127.846 7.73981 128.8 7.62355ZM140.169 17.373C140.588 16.227 140.923 15.0478 141.191 13.8519C141.057 15.081 140.873 16.2935 140.588 17.5059C140.303 18.7184 139.918 19.8976 139.466 21.0603C139.014 22.2229 138.495 23.3523 137.959 24.4651C137.524 25.3454 137.072 26.2091 136.62 27.0727C136.201 26.9399 135.699 26.7239 135.146 26.4084C136.435 24.5648 137.675 22.6879 138.713 20.7115C139.265 19.6319 139.768 18.5191 140.169 17.373ZM135.766 19.1834C135.498 19.9807 135.23 20.7945 134.895 21.5917C134.56 22.389 134.141 23.1696 133.706 23.9004C133.438 24.3488 133.17 24.7973 132.902 25.2457C132.333 25.0464 131.764 24.9302 131.211 24.8969C131.697 24.3322 132.199 23.7509 132.668 23.1862C133.204 22.5385 133.689 21.8907 134.142 21.2097C134.577 20.5122 134.979 19.7814 135.364 19.034C135.749 18.2865 136.117 17.5225 136.502 16.7751C136.268 17.5724 136.017 18.3862 135.766 19.1834ZM135.431 4.81662C134.259 5.96264 133.874 6.66022 133.874 6.66022C132.316 6.72666 131.982 5.74673 131.982 4.7834C133.505 5.19863 135.431 4.81662 135.431 4.81662ZM114.668 8.33773H73.7454V10.7627C74.298 10.8125 75.0012 10.9952 75.6208 11.427C76.324 11.9419 76.7594 12.7391 76.7761 13.553V13.5862H111.587V13.553C111.604 12.7391 112.039 11.9419 112.743 11.427C113.379 10.962 114.116 10.7959 114.668 10.746V8.33773ZM82.3184 12.7059L78.9529 11.045L82.3184 9.3841L85.684 11.045L82.3184 12.7059ZM94.19 12.5232C92.5491 12.5232 91.2096 11.8588 91.2096 11.045C91.2096 10.2312 92.5491 9.5668 94.19 9.5668C95.8309 9.5668 97.1705 10.2312 97.1705 11.045C97.1705 11.8588 95.8309 12.5232 94.19 12.5232ZM106.062 12.7059L102.696 11.045L106.062 9.3841L109.427 11.045L106.062 12.7059ZM71.1166 58.9455C71.2338 58.6299 71.4347 58.5136 71.7361 58.5136C72.0543 58.5136 72.5064 58.6299 73.1259 58.7628C73.3268 58.796 73.511 58.8292 73.6952 58.8624C73.8459 58.879 73.9966 58.8956 74.1305 58.8956C74.7836 58.8956 75.2022 58.5801 75.2022 57.2846L76.458 57.5503C75.8887 55.5738 74.7333 54.8098 73.5278 54.8098C72.2887 54.8098 70.9827 55.6236 70.1789 56.7365L69.6766 56.9025L68.8227 57.2347L67.0478 57.8327C65.3231 56.3877 66.1101 52.5842 66.1101 52.5842C66.1101 52.5842 69.4757 50.7074 68.3538 46.5385C68.3538 46.5385 67.7678 42.6188 60.5678 42.6188C59.7976 42.6188 58.9604 42.6686 58.0394 42.7683C57.4869 42.8347 56.9846 42.9011 56.5325 42.9842C56.5325 42.9842 56.5325 43.0008 56.5157 43.0008C56.6832 43.3828 56.7334 43.8146 56.6497 44.2299C56.5325 44.8776 56.1306 45.4257 55.5446 45.7247C55.2599 45.8741 54.9418 45.9572 54.6069 45.9572C54.2385 45.9572 53.8869 45.8575 53.552 45.6748C53.552 45.8575 53.5688 46.0236 53.5855 46.1897C53.7195 47.1198 53.8534 48.1164 53.9371 49.1627C55.3939 49.8935 62.1418 50.724 62.1418 50.724C61.4887 53.8797 61.9073 56.8693 62.4097 58.3641C62.5938 58.9122 62.912 59.3441 63.3138 59.6929C63.632 59.9752 64.0004 60.1911 64.419 60.3572C64.5027 61.4534 64.5864 62.2673 64.7873 62.915C64.8376 63.1475 64.9213 63.3469 65.0217 63.5129C65.5241 64.36 66.5622 64.5593 67.4999 64.6257L67.3492 62.8652C67.3492 62.7821 67.6673 62.5662 67.7175 62.5164C67.818 62.4334 67.9185 62.3337 68.0022 62.234C68.0189 62.2008 68.0357 62.1842 68.0524 62.151C68.2701 61.8022 68.2031 61.4368 68.1529 61.0548C68.1027 60.6728 68.1027 60.2908 68.4543 60.0417C68.5882 59.942 68.7389 59.8922 68.8896 59.8922C68.9901 59.8922 69.0738 59.9088 69.1575 59.942C69.392 60.025 69.6096 60.2244 69.6934 60.4901C69.7436 60.623 69.7436 60.8057 69.7436 61.0216C69.7436 61.2043 69.7268 61.4036 69.7268 61.6029C69.7268 61.9517 69.7603 62.3337 69.911 62.6659C69.9278 62.6991 69.9445 62.7323 69.9613 62.7655C70.1622 63.0977 70.698 63.5129 71.2506 63.5129C71.5017 63.5129 71.7529 63.4299 71.9706 63.214L73.4273 64.0943C73.4273 64.0943 73.444 64.0943 73.444 64.0776C73.5445 63.9282 73.6115 63.7787 73.6952 63.6458C73.8626 63.297 73.9799 62.9815 74.0468 62.6659C74.3147 61.2707 73.4775 60.2576 72.004 59.9254C71.4347 59.7427 70.9492 59.4437 71.1166 58.9455ZM125.937 66.6354C125.535 66.0209 125.049 65.5891 124.597 65.2569C124.43 65.1572 124.262 65.0742 124.078 64.9745L123.609 64.742C122.806 65.423 121.717 65.5891 120.914 65.6389L119.691 65.7219L119.792 64.5095L119.892 63.2472C119.758 63.1309 119.624 62.9981 119.49 62.832C119.49 62.8154 119.474 62.8154 119.474 62.7988C119.423 62.9482 119.356 63.0977 119.273 63.2306C118.904 63.8617 118.034 64.4929 117.079 64.4929C116.828 64.4929 116.594 64.443 116.359 64.36L115.807 64.6922C115.84 64.7254 115.89 64.7586 115.924 64.7918C117.716 66.4361 119.055 66.6188 121.332 67.1337C122.873 67.4825 124.313 68.3628 124.798 69.9406C125.083 70.8541 125.033 71.8507 124.982 72.7974C124.982 72.7974 128.13 71.0202 126.456 67.5157C126.322 67.2666 126.138 66.951 125.937 66.6354ZM104.454 65.423C103.466 64.4264 102.411 63.5794 101.356 63.0811C100.486 62.6659 99.6151 62.3835 98.7946 62.2008C98.2588 62.0846 97.7398 62.0015 97.2542 61.9517C96.9695 61.9185 96.7016 61.9019 96.4337 61.8853C95.7305 61.9185 94.977 61.9351 94.19 61.9351C93.403 61.9351 92.6495 61.9185 91.9463 61.8853C91.6784 61.9019 91.4105 61.9185 91.1091 61.9517C90.6235 62.0015 90.1044 62.0846 89.5686 62.2008C88.7482 62.3835 87.8775 62.6659 87.0068 63.0811C85.9519 63.596 84.897 64.4264 83.9091 65.423C83.8421 65.4894 83.7919 65.5392 83.7417 65.6057C81.5984 67.9143 82.1677 70.1732 82.1677 70.1732C82.1677 70.1732 84.9138 66.5524 89.0161 66.5524C90.9751 66.5524 92.6663 67.2001 93.537 67.632L94.1733 67.9642L94.8095 67.632C95.6802 67.2168 97.3714 66.5524 99.3305 66.5524C103.433 66.5524 106.179 70.1732 106.179 70.1732C106.179 70.1732 106.765 67.9143 104.605 65.6057C104.571 65.5559 104.521 65.4894 104.454 65.423ZM83.1556 64.6922C84.7798 63.0645 86.5714 62.0347 88.1956 61.4866C86.7221 61.2541 85.4663 60.9552 84.3445 60.6064C84.2273 60.6064 84.11 60.5898 83.9928 60.5898C83.6412 60.5898 83.2896 60.6064 82.9715 60.6396C82.0338 60.7558 81.1463 60.9219 80.2924 60.9219C78.0654 60.9219 76.1064 60.5898 74.5157 60.1579C74.6831 60.3738 74.8338 60.6064 74.9343 60.8721C75.1854 61.4866 75.2357 62.1842 75.085 62.8984C75.1519 62.915 75.2022 62.9316 75.2691 62.9482C75.5705 63.0147 75.8552 63.0811 76.0896 63.1143C76.5417 63.1974 76.8096 63.214 76.8096 63.214C76.8096 63.214 76.4077 63.4299 75.8384 63.8119C75.1519 64.277 74.231 64.9745 73.444 65.8216C69.7436 69.8576 73.8292 72.9137 73.8292 72.9137C73.8292 72.9137 72.925 68.9441 74.8505 67.6818C77.9315 65.6887 79.5724 67.3995 83.0217 64.7918C83.0719 64.7918 83.1054 64.742 83.1556 64.6922ZM72.5566 64.7254L72.004 64.3932C71.7864 64.4763 71.5352 64.5261 71.284 64.5261C70.3129 64.5261 69.4422 63.8949 69.0906 63.2638C69.0068 63.1143 68.9399 62.9815 68.8896 62.832C68.8896 62.8486 68.8729 62.8486 68.8729 62.8652C68.7389 63.0313 68.605 63.1642 68.471 63.2804L68.5715 64.5427L68.672 65.7552L67.4496 65.6721C66.6459 65.6223 65.5743 65.4562 64.7538 64.7752L64.285 65.0078C64.1008 65.1074 63.9334 65.1905 63.7659 65.2901C63.2971 65.6223 62.8283 66.0541 62.4264 66.6687C62.2087 66.9842 62.0413 67.2832 61.9073 67.5822C60.2329 71.0867 63.3808 72.8638 63.3808 72.8638C63.3306 71.9171 63.2971 70.9206 63.565 70.0071C64.0506 68.4292 65.4906 67.5655 67.031 67.2001C69.325 66.6687 70.6478 66.5026 72.4394 64.8583C72.4896 64.7918 72.5231 64.7586 72.5566 64.7254ZM112.525 63.8451C111.956 63.4631 111.554 63.2472 111.554 63.2472C111.554 63.2472 111.838 63.214 112.274 63.1475C112.508 63.1143 112.793 63.0479 113.094 62.9815C113.144 62.9648 113.211 62.9482 113.278 62.9316C113.128 62.2174 113.178 61.5199 113.429 60.9053C113.529 60.6562 113.68 60.4071 113.848 60.1911C112.257 60.623 110.298 60.9552 108.071 60.9552C107.217 60.9552 106.329 60.7725 105.392 60.6728C105.074 60.6396 104.722 60.623 104.37 60.623C104.253 60.623 104.153 60.623 104.036 60.623C102.914 60.9718 101.641 61.2707 100.184 61.5033C101.809 62.0513 103.6 63.0645 105.224 64.7088C105.275 64.7586 105.308 64.7918 105.342 64.8417C108.791 67.4493 110.432 65.7386 113.513 67.7316C115.438 68.9773 114.534 72.9635 114.534 72.9635C114.534 72.9635 118.603 69.9074 114.919 65.8714C114.132 65.0078 113.195 64.2936 112.525 63.8451ZM152.727 69.0105C152.845 69.7247 152.778 70.3559 152.51 70.9206C151.94 72.1164 150.685 72.5483 149.797 72.7808L148.608 73.0797L148.491 71.8673L148.374 70.7379C148.274 70.6714 148.156 70.5884 148.056 70.5053C148.039 70.605 148.006 70.7047 147.972 70.8043C147.688 71.5849 146.783 72.3822 145.762 72.3822C145.661 72.3822 145.561 72.3822 145.461 72.3656L144.741 72.9967L143.97 73.6777L143.267 72.9137C142.279 71.8507 141.877 70.6548 142.128 69.5586C142.212 69.2098 142.346 68.8777 142.547 68.5787C141.928 68.5787 141.375 68.3462 140.956 67.9143C140.806 67.7482 140.655 67.5655 140.554 67.3496L140.488 67.3662L138.863 68.0306L139.048 66.3033C139.048 66.2368 139.064 66.187 139.064 66.1206C138.344 66.2368 137.474 66.5026 136.368 66.9178C136.218 67.0008 136.05 67.0673 135.9 67.1171C135.816 67.1503 135.749 67.1835 135.665 67.2001C136.017 67.3995 136.368 67.5988 136.687 67.7981C138.277 68.8112 139.366 69.9074 139.935 71.0534C140.287 71.4188 140.672 71.8175 141.09 72.2659C142.815 74.0929 145.142 74.94 147.537 74.94C151.639 74.94 155.875 72.432 157.366 68.014C157.349 68.0306 155.323 68.7116 152.727 69.0105ZM136.034 68.6451C133.907 67.3164 131.563 66.569 131.563 66.569C131.982 66.6022 132.367 66.6188 132.735 66.6188C133.656 66.6188 134.409 66.5026 135.029 66.3199C135.381 66.2202 135.699 66.0873 135.967 65.9545C137.926 64.9579 137.993 63.1808 137.993 63.1808C136.435 64.2271 135.062 64.5925 133.79 64.5925C132.149 64.5925 130.659 64.0112 129.135 63.5794C128.683 63.4465 128.231 63.3967 127.795 63.3967C126.54 63.3967 125.451 63.8617 124.832 64.1939C125.619 64.6756 126.288 65.2901 126.808 66.0707C127.008 66.3863 127.193 66.7019 127.343 67.0008C127.846 67.6818 128.164 68.2797 128.666 68.6783C129.822 69.6417 131.429 69.841 132.886 69.9406C137.306 70.2728 139.114 74.2258 139.114 74.2258C139.483 73.3123 139.416 72.4486 139.064 71.668C138.512 70.4721 137.323 69.459 136.034 68.6451ZM63.5148 64.1939C62.8952 63.8617 61.8236 63.3967 60.5511 63.3967C60.1157 63.3967 59.6804 63.4465 59.2115 63.5794C57.6711 64.0112 56.1976 64.5925 54.5567 64.5925C53.2841 64.5925 51.9111 64.2437 50.3539 63.1808C50.3539 63.1808 50.4376 64.9579 52.3799 65.9545C52.6478 66.0873 52.966 66.2202 53.3176 66.3199C53.9371 66.5026 54.7074 66.6188 55.6115 66.6188C55.9799 66.6188 56.365 66.6022 56.7836 66.569C56.7836 66.569 54.4395 67.3164 52.313 68.6451C51.0237 69.459 49.8348 70.4721 49.299 71.668C48.9474 72.4486 48.8804 73.2957 49.2488 74.2258C49.2488 74.2258 51.0404 70.2728 55.4776 69.9406C56.9343 69.8244 58.525 69.6251 59.6971 68.6783C60.1994 68.2631 60.5176 67.6652 61.0199 67.0008C61.1706 66.6853 61.3548 66.3863 61.5557 66.0707C62.058 65.2901 62.7278 64.659 63.5148 64.1939ZM37.193 67.6486C37.126 67.7981 37.0591 67.9476 36.9921 68.0804C36.8414 68.4624 36.7242 68.7946 36.6739 69.1102C36.3391 70.9206 37.6451 71.4853 38.8172 71.7676L38.9679 70.1399C38.9846 70.0735 39.3028 69.924 39.3697 69.8908C39.4702 69.8244 39.5874 69.7579 39.6711 69.6749C39.8721 69.4922 39.939 69.2763 39.9725 69.0438C39.9893 68.9109 39.9893 68.778 39.9893 68.6285C40.006 68.3794 40.0395 68.1303 40.1735 67.9476C40.2404 67.8645 40.3074 67.7981 40.4246 67.7482C40.5251 67.6984 40.6256 67.6818 40.726 67.6818C40.8432 67.6818 40.9437 67.715 41.0442 67.7649C41.2618 67.8811 41.446 68.097 41.4795 68.3628C41.4962 68.4624 41.4795 68.5953 41.4628 68.7282C41.379 69.2098 41.1446 69.8742 41.3623 70.4555C41.4962 70.8375 42.0153 71.3524 42.5846 71.3524C42.7688 71.3524 42.9362 71.3026 43.1204 71.1863L44.2925 72.2161C45.8497 70.522 45.3641 68.8943 43.673 68.1967C43.539 68.1469 43.4218 68.0804 43.3214 68.014C43.0032 67.7981 42.819 67.5157 43.0032 67.2168C43.1372 66.9842 43.2879 66.9012 43.4888 66.9012C43.7902 66.9012 44.1753 67.0839 44.7614 67.3164C44.7948 67.333 44.8283 67.3496 44.8786 67.3662C45.1967 67.4825 45.4981 67.5655 45.7827 67.5655C46.3855 67.5655 46.8711 67.2168 47.1223 66.2534C47.139 66.1704 47.1558 66.0707 47.1725 65.9877L47.5744 66.1538L48.2776 66.4361C48.2609 66.3199 48.2441 66.187 48.2274 66.0707C48.1604 65.6721 48.0265 65.3399 47.8758 65.0576C47.3567 64.1109 46.4358 63.7289 45.4981 63.7289C44.2925 63.7289 43.0535 64.3268 42.5344 65.0908L40.3242 65.3898C39.8721 64.8251 39.8553 63.1642 39.9223 61.8686C39.9725 60.9219 40.6758 60.1579 41.6135 60.0084C43.2209 59.7759 45.632 59.4271 46.486 59.3607C48.1102 59.2444 49.8013 58.9621 51.0237 57.7828C52.6981 56.1385 53.0664 54.4278 53.0664 52.0527C53.0664 51.2721 53.0329 50.4915 52.966 49.6942C52.9157 49.0133 52.832 48.3323 52.765 47.6679C52.7148 47.2195 52.6478 46.771 52.5809 46.3226C52.5139 45.9074 52.5139 45.4589 52.5474 45.0271C52.5641 44.861 52.5809 44.7115 52.6143 44.5454C52.6981 44.0638 52.832 43.5987 53.0162 43.117C53.2171 42.6188 53.5018 42.1537 53.8367 41.7053C54.3725 41.0077 55.0757 40.3932 55.9632 39.8949C56.2813 39.7122 56.6664 39.4963 57.0683 39.2471C57.4701 38.998 57.9055 38.7323 58.3576 38.4167C59.4627 37.6859 60.685 36.7724 61.8236 35.726C61.7399 35.6762 61.6562 35.6264 61.5725 35.5765C61.1538 35.3274 59.9985 34.4804 58.9101 33.5835C58.6422 33.3675 58.4078 33.1682 58.1901 32.9689L59.2283 32.4208C60.4339 33.434 61.7734 34.4305 62.125 34.6298C62.2925 34.7295 62.4599 34.8291 62.6273 34.9288C62.9455 35.1115 63.2636 35.2942 63.565 35.4603C65.3231 36.4568 66.5789 37.1378 66.5455 38.3004C64.3687 40.6257 65.5576 42.0042 66.7631 42.4195L67.165 41.1406C68.4375 40.9247 68.4208 39.9945 68.471 39.2804C68.5045 38.8984 68.8059 38.6824 69.1073 38.6824C69.3585 38.6824 69.6096 38.8485 69.6264 39.2305C69.6599 39.6458 69.6264 40.0776 69.7436 40.7586C69.8273 41.2236 70.3296 41.8548 71.0496 41.8548C71.1668 41.8548 71.284 41.8382 71.4013 41.8049L71.6692 43.3164C74.1473 42.8513 73.8794 40.4098 72.205 39.5793C71.2506 39.0977 70.9492 38.7489 71.2338 38.3835C71.3175 38.2672 71.418 38.234 71.5352 38.234C71.8868 38.234 72.4059 38.616 72.9082 38.9814C73.1259 39.1475 73.4105 39.2305 73.7119 39.2305C74.365 39.2305 75.0682 38.8153 75.3696 37.8354L76.2738 38.3336C76.4245 36.49 75.2691 35.5765 74.0971 35.5765C73.5445 35.5765 72.9752 35.7759 72.5399 36.1745C72.3724 36.324 72.205 36.3904 72.0375 36.3904C71.5017 36.3904 71.1333 35.726 71.8533 35.344C72.5399 34.9786 73.1929 33.8492 72.5566 33.135L73.5947 32.1717C73.1259 31.8893 72.6236 31.7565 72.1547 31.7565C71.1166 31.7565 70.1622 32.4208 69.8608 33.9323C69.7938 34.281 69.6431 34.4139 69.4422 34.4139C68.8729 34.4139 67.8682 33.2015 67.1148 32.0056C66.9306 31.7233 66.7631 31.4243 66.5957 31.1419C66.378 30.7599 66.1436 30.3945 65.8924 30.0291C65.5743 29.5641 65.2394 29.1156 64.8208 28.717C64.1176 28.0194 62.8952 26.807 61.4887 25.9931C61.1539 25.8104 60.8022 25.6277 60.4506 25.4783C60.032 24.9302 59.6134 24.3655 59.245 23.7841C58.2571 22.2893 57.4367 20.6949 56.9678 19.0173C57.738 20.5952 58.8097 21.9738 59.9985 23.2028C60.5511 23.7841 61.1204 24.3156 61.7232 24.8471C63.3473 25.6776 64.7036 27.0229 65.5073 27.8035L65.6245 27.9198C65.859 28.1523 66.0766 28.3848 66.2608 28.634C66.5287 27.0063 66.4617 24.9966 65.9427 23.0866C65.8422 22.7212 65.725 22.3391 65.591 21.9904C65.1055 20.7115 64.419 19.5156 63.4645 18.5689C63.2134 18.3198 62.9455 18.0872 62.6608 17.8713C61.4218 16.9246 59.8478 16.3433 57.872 16.3433C57.5874 16.3433 57.3027 16.3599 57.0013 16.3765L54.3222 15.164C55.2767 15.1807 56.0469 15.2139 56.6664 15.2139C59.3455 15.2139 59.1278 14.8485 58.7762 12.9883C58.7762 12.9883 56.5157 13.6028 54.7911 13.6028C54.6236 13.6028 54.4562 13.6028 54.3055 13.5862C53.4683 13.5198 53.0999 13.1544 52.966 12.7059C52.7985 12.108 52.7483 11.1779 53.2171 10.0152C53.5185 9.25123 54.2553 8.58687 55.3102 8.58687C56.1139 8.58687 57.085 8.96888 58.1901 9.96542L59.1278 10.8955C59.6134 10.3308 59.9985 9.68307 60.2999 9.05192C60.5008 8.18825 59.5632 7.64015 59.5632 7.64015C60.5176 7.75642 60.9864 6.77648 61.1371 6.32804C60.1157 5.77994 58.659 4.94949 57.1185 4.53427L56.6664 3.00623C56.0804 2.70727 50.3539 1.39516 48.8469 1.39516C48.7632 1.39516 48.713 1.39516 48.646 1.41177C48.5288 1.42838 48.4116 1.4782 48.3278 1.54464C48.646 1.89343 48.9306 2.29205 49.1818 2.72388L48.1604 3.05606C47.5911 2.14256 46.8041 1.37855 46.1009 1.14602C45.18 1.94326 44.0748 4.31835 46.5027 6.8097V8.25469L46.0841 7.85607C45.4981 7.30797 45.0795 6.77648 44.7614 6.2616C40.1232 16.227 47.7418 24.3987 47.6916 27.9198C47.6916 27.9198 49.2823 27.87 50.3706 27.4381C50.3706 27.4381 50.8562 30.8762 49.7846 33.6997C48.5455 36.9883 46.5865 39.9115 45.0125 43.034C44.4767 44.097 44.0079 45.1766 43.6228 46.2894C43.606 46.3226 43.606 46.3558 43.5893 46.389C43.2711 47.07 42.7353 47.6679 42.1325 48.0001C42.1158 48.0167 42.0823 48.0167 42.0655 48.0333C41.2786 48.4319 40.3576 48.3821 39.5874 47.9171C38.8339 47.4686 38.4321 46.7046 38.4488 45.8575C38.499 43.9641 39.6209 42.569 40.8265 41.0907C41.4628 40.2935 42.1325 39.4797 42.6516 38.5496C44.2758 35.643 44.6776 32.3544 43.8069 29.0326C43.4051 27.5046 42.5009 26.1592 41.6302 24.8471C41.4293 24.5482 41.2451 24.2658 41.0442 23.9668C40.9604 23.8506 40.8935 23.7343 40.8265 23.618C41.2451 23.236 41.3288 22.771 41.1949 22.1565C41.0776 21.5917 40.7762 20.9108 40.4079 20.0637C39.9893 19.1336 39.5037 18.0706 39.2693 16.9578C38.8842 15.164 38.8842 13.7191 39.1186 12.2907C38.767 12.8554 38.4656 13.4533 38.2144 14.0679C37.9297 14.7654 37.7288 15.4962 37.6284 16.2602C37.5279 17.0243 37.5279 17.8049 37.6451 18.5855C37.3772 17.8547 37.2098 17.0575 37.1595 16.2602C37.1093 15.4464 37.1595 14.6326 37.3102 13.8353C37.4442 13.1045 37.6451 12.3737 37.913 11.6762C36.7577 13.3537 36.1716 15.3966 36.1381 17.8547C36.1046 20.944 37.1763 23.535 38.1977 24.1495C38.3316 24.2326 38.4488 24.2824 38.566 24.3156C39.0014 24.4153 39.6711 24.1163 39.6711 24.1163C39.9725 24.6146 40.2739 25.063 40.5921 25.5447C41.446 26.8236 42.2497 28.036 42.6014 29.3482C43.3883 32.3876 43.0535 35.2776 41.5632 37.935C41.0944 38.7655 40.4749 39.5461 39.8553 40.2935C38.5828 41.8714 37.26 43.4991 37.2097 45.8077C37.1763 47.1032 37.8293 48.2825 38.9511 48.9634C39.5539 49.3288 40.2572 49.5281 40.9604 49.5281C41.2786 49.5281 41.6135 49.4783 41.9316 49.4119C42.2162 49.3288 42.5009 49.2292 42.7688 49.0797C42.8525 49.0299 42.9362 48.98 43.02 48.9302C42.9697 49.3288 42.953 49.7441 42.9697 50.1427C42.9697 50.2423 42.9865 50.3586 42.9865 50.4582C43.0367 51.1392 43.1372 51.8368 43.1874 52.5178C43.2711 53.398 43.4218 53.4977 43.1539 54.3614C42.8358 55.3579 41.4795 55.9558 40.073 56.2714C39.1856 56.4707 37.98 56.6534 37.0423 56.7697C36.2051 56.8859 35.5856 57.5669 35.5353 58.3974C35.4181 60.4403 35.2507 64.061 35.4014 65.0742C35.5018 66.2036 36.1716 67.1503 37.193 67.6486ZM56.3818 4.7834C56.3818 5.73012 56.0301 6.72666 54.4897 6.66022C54.4897 6.66022 54.0878 5.96264 52.9325 4.81662C52.9157 4.81662 54.8413 5.19863 56.3818 4.7834ZM52.9827 19.034C53.3678 19.7814 53.7697 20.5122 54.205 21.2097C54.6571 21.9073 55.1427 22.5551 55.6785 23.1862C56.1474 23.7509 56.6497 24.3322 57.1353 24.8969C56.5827 24.9302 56.0301 25.0464 55.4441 25.2457C55.1762 24.7973 54.9083 24.3488 54.6404 23.9004C54.205 23.1696 53.8032 22.389 53.4516 21.5917C53.1167 20.7945 52.832 19.9973 52.5809 19.1834C52.313 18.3862 52.0785 17.5724 51.8441 16.7585C52.2292 17.5225 52.5976 18.2865 52.9827 19.034ZM50.4041 24.4651C49.8516 23.3523 49.3325 22.2229 48.8972 21.0603C48.4451 19.8976 48.0767 18.7018 47.7753 17.5059C47.4906 16.2935 47.2897 15.081 47.1725 13.8519C47.4404 15.0478 47.7753 16.227 48.1939 17.373C48.6125 18.5191 49.1148 19.6319 49.6674 20.7115C50.7055 22.6879 51.9446 24.5648 53.2339 26.4084C52.6813 26.7239 52.179 26.9399 51.7604 27.0727C51.2916 26.2091 50.8395 25.3454 50.4041 24.4651ZM82.0673 4.91627H83.2226C83.524 5.8796 84.0096 6.69344 84.6124 7.29137H86.9565C86.3705 6.95918 85.8347 6.41109 85.4161 5.68029C84.7798 4.6007 84.4114 3.22215 84.3947 1.79378H81.0794C81.0626 3.22215 80.6942 4.6007 80.058 5.68029C79.6226 6.41109 79.1036 6.95918 78.5175 7.29137H80.711C81.2803 6.69344 81.7659 5.8796 82.0673 4.91627ZM75.3026 7.29137H75.5538C74.9678 6.95918 74.4319 6.41109 74.0133 5.68029C73.3771 4.6007 73.0087 3.22215 72.9919 1.79378H70.3966C70.3799 1.94326 70.3799 2.09274 70.3799 2.25883C70.3464 4.98271 72.6236 7.29137 75.3026 7.29137ZM93.6207 4.91627H94.7761C95.0775 5.8796 95.563 6.69344 96.1658 7.29137H98.6607C98.0746 6.95918 97.5556 6.41109 97.1202 5.68029C96.484 4.6007 96.1156 3.22215 96.0988 1.79378H92.4821C92.4654 3.22215 92.097 4.6007 91.4607 5.68029C91.0254 6.41109 90.5063 6.95918 89.9203 7.29137H92.2644C92.8337 6.69344 93.3193 5.8796 93.6207 4.91627ZM51.6767 67.8147C51.9948 67.6154 52.3297 67.4161 52.6981 67.2168C52.6143 67.1835 52.5474 67.1503 52.4636 67.1337C52.2962 67.0673 52.1455 67.0008 51.9948 66.9344C50.8897 66.5026 50.019 66.2534 49.299 66.1372C49.299 66.2036 49.3158 66.2534 49.3158 66.3199L49.4999 68.0472L47.8758 67.3828L47.8088 67.3662C47.6916 67.5822 47.5576 67.7649 47.4069 67.9309C46.9883 68.3628 46.4358 68.5953 45.8162 68.5953C46.0172 68.8943 46.1511 69.2265 46.2348 69.5752C46.486 70.6714 46.0674 71.8673 45.0962 72.9303L44.393 73.6943L43.6228 73.0133L42.9028 72.3822C42.8023 72.3988 42.7018 72.3988 42.6014 72.3988C41.58 72.3988 40.6758 71.6015 40.3911 70.8209C40.3576 70.7213 40.3242 70.6216 40.3074 70.522C40.2069 70.605 40.0897 70.688 39.9893 70.7545L39.8721 71.8839L39.7549 73.0964L38.566 72.7974C37.6786 72.5815 36.4228 72.133 35.8535 70.9372C35.5856 70.3725 35.5186 69.7413 35.6358 69.0271C33.0405 68.7282 30.9977 68.0472 30.9977 68.0472C32.4879 72.4818 36.7242 74.9732 40.8265 74.9732C43.2209 74.9732 45.5651 74.1261 47.273 72.2991C47.6916 71.8673 48.0599 71.4521 48.4283 71.0867C48.9976 69.924 50.086 68.8278 51.6767 67.8147ZM105.358 4.91627H106.514C106.815 5.8796 107.301 6.69344 107.903 7.29137H110.197C109.611 6.95918 109.076 6.41109 108.657 5.68029C108.021 4.6007 107.652 3.22215 107.636 1.79378H104.203C104.186 3.22215 103.818 4.6007 103.182 5.68029C102.746 6.41109 102.227 6.94258 101.641 7.29137H103.985C104.571 6.69344 105.057 5.8796 105.358 4.91627ZM64.9548 18.6686C65.5408 19.4326 66.0264 20.2962 66.3948 21.1931L68.2868 19.3993C68.0859 18.8845 68.0189 18.2865 68.0859 17.672C68.0859 17.6388 68.1027 17.6056 68.1027 17.5557L69.1073 18.0374C69.0738 18.7848 69.3585 19.5654 70.045 19.9308C70.2627 20.0471 70.4468 20.0969 70.698 20.0969C70.698 20.0969 70.698 20.0969 70.7147 20.0969L70.6813 19.1834C71.0161 19.1834 71.4682 18.8346 71.4682 18.353C71.4682 17.8049 71.1166 17.5059 70.6813 17.373V16.3101C71.5185 16.4596 72.138 16.9578 72.3892 17.6388L73.4943 17.6554C73.5445 16.825 73.1426 16.0775 72.2887 15.7952V14.7156C73.0087 14.8651 73.4775 15.2139 73.7622 15.5294C73.8459 15.6125 73.9129 15.7121 73.9966 15.8118L74.8338 15.8284C74.8673 15.0312 74.4654 14.317 73.7119 14.0679V12.9883C74.1808 13.0879 74.5826 13.2706 74.9343 13.5696H75.7212C75.7045 13.0547 75.4031 12.5564 74.9845 12.2409C74.6329 11.9917 74.1808 11.8422 73.7287 11.7758C73.5612 11.7592 73.3771 11.7426 73.2096 11.7426C73.0254 11.7426 72.858 11.7592 72.6738 11.7924C72.2217 11.8588 71.7696 12.0415 71.3845 12.2907C70.7147 12.7391 70.0785 13.254 69.4589 13.7689C68.4543 14.5993 67.4831 15.4796 66.4282 16.2602C66.0934 16.5094 65.072 17.2734 64.2683 17.8879C64.5194 18.1537 64.7371 18.4028 64.9548 18.6686ZM65.5408 10.8291C65.6915 10.0319 65.2896 9.45054 64.5027 9.26784C64.4692 9.26784 64.4357 9.25123 64.4022 9.25123C64.5864 9.9322 64.5027 10.6796 64.0506 11.4104C63.7157 11.9253 63.1966 12.3239 62.5436 12.5564C62.7613 12.5896 62.979 12.5896 63.1799 12.5896C64.5697 12.5896 65.3231 12.0249 65.5408 10.8291Z" fill="white"/>
<path d="M94.19 12.5232C95.8361 12.5232 97.1705 11.8614 97.1705 11.045C97.1705 10.2286 95.8361 9.5668 94.19 9.5668C92.544 9.5668 91.2096 10.2286 91.2096 11.045C91.2096 11.8614 92.544 12.5232 94.19 12.5232Z" fill="#CC0000"/>
<path d="M85.6673 11.045L82.3184 9.36749L78.9529 11.045L82.3184 12.7059L85.6673 11.045Z" fill="#CC0000"/>
<path d="M109.427 11.045L106.062 9.36749L102.713 11.045L106.062 12.7059L109.427 11.045Z" fill="#CC0000"/>
<path d="M157.031 67.0507C156.997 67.0673 155.038 67.6984 152.56 67.9808C153.364 67.2998 153.9 66.3365 154.067 65.2403C154.184 64.4098 154.151 62.0846 153.933 58.3641C153.866 57.0354 152.845 55.9392 151.522 55.7731C150.283 55.607 149.261 55.441 148.575 55.2915C147.152 54.9759 146.381 54.461 146.281 54.0956C146.147 53.697 146.164 53.6472 146.214 53.2818C146.231 53.1157 146.264 52.9164 146.298 52.6506C146.331 52.3517 146.348 52.0693 146.398 51.7537C146.448 51.3717 146.482 50.9731 146.515 50.5745C146.515 50.5579 146.515 50.5247 146.515 50.5081C146.834 50.5745 147.168 50.6077 147.487 50.6077C148.374 50.6077 149.261 50.3752 150.032 49.8935C151.472 49.0133 152.309 47.5018 152.275 45.8243C152.208 43.1669 150.718 41.3067 149.395 39.679C148.793 38.9316 148.207 38.2174 147.788 37.47C146.432 35.0451 146.114 32.4208 146.85 29.6471C147.152 28.5011 147.905 27.3551 148.709 26.1592C148.876 25.9101 149.044 25.6443 149.211 25.3952C149.328 25.4118 149.446 25.4284 149.563 25.4284C150.065 25.4284 150.484 25.2623 150.785 25.0796C152.711 23.9004 153.381 20.0471 153.347 17.8879C153.297 13.3703 151.505 10.1149 147.905 7.93912L146.666 7.19171L147.135 8.55365C148.223 11.6928 148.809 13.636 148.123 16.7917C147.905 17.8049 147.47 18.7682 147.051 19.6983C146.398 21.1599 145.762 22.5717 146.314 23.7177C146.181 23.917 146.047 24.1329 145.913 24.3322C144.992 25.7108 144.037 27.1392 143.602 28.8333C142.664 32.4208 143.1 35.9752 144.858 39.1143C145.41 40.1108 146.114 40.9745 146.783 41.8049C147.905 43.2001 148.893 44.3959 148.927 45.9406C148.943 46.5883 148.525 46.9371 148.29 47.0866C147.821 47.369 147.269 47.3856 146.783 47.1364C146.398 46.9371 146.03 46.5385 145.795 46.0735C145.427 44.9939 144.958 43.8645 144.322 42.6188C143.753 41.4894 143.133 40.3766 142.53 39.297C141.425 37.3039 140.37 35.4271 139.6 33.3842C139.014 31.8063 138.947 29.9959 138.981 28.8333C139.818 28.9828 140.555 29.016 140.688 29.016L141.777 29.0492L141.76 27.9696C141.743 27.1558 142.396 25.744 143.133 24.0997C145.159 19.6485 148.223 12.9384 144.288 5.24845C144.255 5.19863 144.238 5.13219 144.205 5.08236C144.372 4.55088 144.422 4.06921 144.406 3.6706C144.389 2.19239 143.652 1.02976 142.982 0.431835L142.514 0.016609L141.928 0.215917C141.542 0.34879 141.174 0.581316 140.806 0.86367C140.555 0.631143 140.236 0.465053 139.868 0.415226C139.768 0.398617 139.667 0.398617 139.533 0.398617C137.909 0.398617 131.998 1.72734 131.228 2.12596L130.826 2.32526L130.692 2.7571L130.408 3.73703C129.102 4.16887 127.913 4.81662 127.025 5.29828C126.908 5.36472 126.791 5.43115 126.674 5.48098L126.004 5.84638L126.155 6.59379C126.171 6.71005 126.757 9.63324 128.465 11.6097L128.549 11.6928C128.13 11.726 127.762 11.7592 127.427 11.7592C126.406 11.7592 125.602 11.4602 125.217 10.8623C124.614 9.9322 125.049 8.93566 125.753 8.42078C125.368 8.25469 124.999 8.15504 124.547 8.15504C124.279 8.15504 123.978 8.18825 123.643 8.2713C122.303 8.57026 121.55 9.68307 121.801 11.0284C122.086 12.6395 123.224 13.636 125.2 13.636C125.602 13.636 126.021 13.6028 126.489 13.5198C127.159 13.4035 127.846 13.2042 128.532 12.9883C128.532 13.0215 128.515 13.0381 128.515 13.0713C128.348 14.0014 128.197 14.7986 128.716 15.4464C127.276 15.7121 125.97 16.3101 124.865 17.207C123.961 16.526 122.739 15.6125 122.555 15.463C121.835 14.9315 121.165 14.3502 120.445 13.7523C120.16 13.5031 119.859 13.254 119.557 13.0049C118.938 12.49 118.268 11.9585 117.548 11.4602C117.012 11.0948 116.393 10.8623 115.723 10.7793V7.83946C117.849 6.90936 119.34 4.76679 119.34 2.32526C119.34 1.77717 119.273 1.26229 119.122 0.764016H114.618C114.651 1.06298 114.668 1.36194 114.668 1.67751C114.668 4.33496 113.329 6.67683 111.671 6.67683C110.013 6.67683 108.674 4.33496 108.674 1.67751C108.674 1.36194 108.69 1.06298 108.724 0.764016H103.081C103.115 1.06298 103.131 1.36194 103.131 1.67751C103.131 4.33496 101.792 6.67683 100.134 6.67683C98.4765 6.67683 97.137 4.33496 97.137 1.67751C97.137 1.36194 97.1537 1.06298 97.1872 0.764016H91.3603C91.3938 1.06298 91.4105 1.36194 91.4105 1.67751C91.4105 4.33496 90.071 6.67683 88.4133 6.67683C86.7556 6.67683 85.4161 4.33496 85.4161 1.67751C85.4161 1.36194 85.4328 1.06298 85.4663 0.764016H79.9575C79.991 1.06298 80.0078 1.36194 80.0078 1.67751C80.0078 4.33496 78.6682 6.67683 77.0106 6.67683C75.3529 6.67683 74.0134 4.33496 74.0134 1.67751C74.0134 1.36194 74.0301 1.06298 74.0636 0.764016H69.4924C69.3585 1.24568 69.2915 1.74395 69.2915 2.25883C69.2915 4.61731 70.6813 6.72666 72.6738 7.7232V10.7793C72.0041 10.8623 71.351 11.0948 70.7985 11.4768C70.0785 11.9585 69.4087 12.5066 68.7892 13.0215C68.4878 13.2706 68.2031 13.5198 67.9017 13.7689C67.1818 14.3668 66.512 14.9481 65.792 15.4796C65.6078 15.6125 64.3855 16.526 63.4813 17.2236C62.3762 16.3267 61.0869 15.7288 59.6301 15.463C60.1492 14.7986 59.9985 14.0014 59.8311 13.0879C59.8311 13.0713 59.8143 13.0381 59.8143 13.0049C60.5008 13.2374 61.1874 13.4201 61.8571 13.5364C62.326 13.6194 62.7446 13.6526 63.1464 13.6526C65.1222 13.6526 66.2608 12.6561 66.5455 11.045C66.7966 9.69967 66.0432 8.58687 64.7036 8.28791C64.3687 8.22147 64.0673 8.17164 63.7994 8.17164C63.3473 8.17164 62.979 8.2713 62.5939 8.43739C63.2971 8.95227 63.7325 9.94881 63.1297 10.8789C62.7446 11.4935 61.9241 11.7758 60.9194 11.7758C60.5678 11.7758 60.1995 11.7426 59.8311 11.6762L59.9148 11.5931C61.6227 9.61663 62.2087 6.71005 62.2255 6.57718L62.3762 5.82977L61.7064 5.46437C61.5892 5.39794 61.472 5.34811 61.3548 5.28167C60.4506 4.80001 59.2785 4.15226 57.9725 3.72042L57.6878 2.74049L57.5539 2.30866L57.152 2.10935C56.3818 1.71073 50.4711 0.382008 48.8469 0.382008C48.7297 0.382008 48.6125 0.382008 48.512 0.398617C48.1437 0.448444 47.8255 0.614534 47.5744 0.847061C47.206 0.548098 46.8209 0.332181 46.4525 0.199308L45.8665 0L45.3809 0.382008C44.7111 0.979933 43.9744 2.14257 43.9576 3.62077C43.9576 4.01939 44.0079 4.50105 44.1586 5.03254C44.1251 5.09897 44.0916 5.1488 44.0749 5.19863C40.14 12.8886 43.2042 19.5987 45.2302 24.0499C45.9669 25.6776 46.62 27.0893 46.6032 27.9198L46.5865 28.9994L47.6748 28.9662C47.7921 28.9662 48.5288 28.9329 49.3827 28.7835C49.4162 29.9461 49.366 31.7731 48.7632 33.3343C47.993 35.3772 46.9381 37.2541 45.833 39.2471C45.2302 40.3267 44.6107 41.4395 44.0414 42.569C43.4218 43.8146 42.9363 44.944 42.5679 46.0236C42.3335 46.4887 41.9818 46.8873 41.58 47.0866C41.0944 47.3357 40.5418 47.3191 40.073 47.0368C39.8218 46.8873 39.42 46.5385 39.4367 45.8908C39.4702 44.3627 40.4414 43.1503 41.58 41.7551C42.2497 40.9247 42.9363 40.0776 43.5056 39.0644C45.2637 35.9253 45.699 32.371 44.7614 28.7835C44.326 27.0893 43.3716 25.661 42.4507 24.2824C42.3167 24.0831 42.1828 23.8672 42.0488 23.6679C42.6014 22.5219 41.9818 21.1101 41.3121 19.6485C40.8935 18.7184 40.4581 17.7551 40.2405 16.7419C39.5539 13.5696 40.14 11.6429 41.2284 8.50383L41.6972 7.14188L40.4581 7.88929C36.8581 10.0651 35.0665 13.3204 35.0163 17.8381C34.9828 19.9973 35.6693 23.8672 37.5781 25.0298C37.8795 25.2125 38.2814 25.3786 38.8005 25.3786C38.9177 25.3786 39.0181 25.362 39.1521 25.3454C39.3195 25.5945 39.487 25.8603 39.6544 26.1094C40.4581 27.3053 41.2116 28.4513 41.513 29.5973C42.233 32.371 41.9149 35.0118 40.5753 37.4202C40.1567 38.1676 39.5874 38.8817 38.9679 39.6292C37.6451 41.2568 36.1549 43.1004 36.0879 45.7745C36.0544 47.4354 36.8916 48.9634 38.3316 49.8437C39.1019 50.3254 39.9893 50.5579 40.8767 50.5579C41.2116 50.5579 41.5297 50.5247 41.8479 50.4582C41.8479 50.4748 41.8479 50.5081 41.8479 50.5247C41.8814 50.9233 41.9149 51.3219 41.9651 51.7039C41.9986 52.0195 42.0321 52.3018 42.0656 52.6008C42.0823 52.8666 42.1158 53.0659 42.1493 53.232C42.1995 53.5807 42.2163 53.6472 42.0823 54.0458C41.9651 54.4112 41.2116 54.9261 39.7884 55.2416C39.1019 55.3911 38.0805 55.5572 36.8414 55.7233C35.5186 55.906 34.4972 57.0022 34.4302 58.3143C34.2293 62.0347 34.1791 64.36 34.2963 65.1905C34.4637 66.2867 34.9995 67.25 35.8033 67.9309C33.3251 67.6486 31.3493 67.0008 31.3326 67.0008L29.34 66.3365L30.0098 68.313C30.7968 70.6382 32.287 72.5981 34.3465 73.9766C36.2554 75.2555 38.5493 75.9531 40.8265 75.9531C43.606 75.9531 46.1344 74.9234 47.9595 73.0465C47.9762 73.5614 48.0767 74.0597 48.2776 74.5746L49.1986 76.85L50.22 74.6244C50.2869 74.4915 51.8441 71.2361 55.5613 70.9538C57.152 70.8375 58.9604 70.605 60.3669 69.4424C60.3669 69.4424 60.3669 69.4424 60.3836 69.4424C60.3836 69.8244 60.4171 70.1898 60.5176 70.5552C61.0199 72.6147 62.8115 73.6611 62.8785 73.6943L64.5362 74.641L64.4357 72.7476C64.4022 71.9337 64.352 71.0036 64.5864 70.2396C65.005 68.8611 66.4618 68.3462 67.2822 68.1469C67.4831 68.097 67.6841 68.0472 67.8683 68.014C69.2245 67.715 70.3296 67.4659 71.4682 66.8015C70.9827 67.7483 70.7817 68.7116 70.8822 69.6915C71.1166 72.133 73.1259 73.6611 73.2096 73.7275L75.5036 75.4382L74.8673 72.6645C74.6329 71.6015 74.4487 69.1766 75.4366 68.5455C76.6589 67.7482 77.5799 67.6486 78.6515 67.5323C79.5389 67.4327 80.4933 67.3164 81.6152 66.8348C80.7445 68.7448 81.1129 70.306 81.1464 70.3891L81.6822 72.4984L83.005 70.7545C83.0217 70.7213 85.4998 67.5489 89.0161 67.5489C91.5612 67.5489 93.6207 68.7946 93.6375 68.8112L94.19 69.1434L94.7426 68.8112C94.7593 68.7946 96.8189 67.5489 99.364 67.5489C102.88 67.5489 105.358 70.7379 105.375 70.7545L106.698 72.4984L107.234 70.3891C107.25 70.306 107.636 68.7448 106.765 66.8348C107.887 67.3164 108.841 67.4327 109.729 67.5323C110.8 67.6486 111.738 67.7649 112.943 68.5455C113.931 69.1932 113.764 71.6015 113.513 72.6645L112.876 75.4382L115.17 73.7275C115.254 73.6611 117.263 72.133 117.498 69.6915C117.598 68.7116 117.397 67.7483 116.912 66.8015C118.05 67.4493 119.156 67.6984 120.512 68.014C120.696 68.0638 120.897 68.097 121.098 68.1469C121.918 68.3296 123.375 68.8611 123.794 70.2396C124.028 71.0036 123.978 71.9337 123.944 72.7476L123.844 74.641L125.502 73.6943C125.585 73.6445 127.377 72.6147 127.862 70.5552C127.946 70.1898 127.996 69.8078 127.996 69.4424C127.996 69.4424 127.996 69.4424 128.013 69.4424C129.42 70.605 131.228 70.8209 132.819 70.9538C136.536 71.2361 138.093 74.4915 138.16 74.6244L139.181 76.85L140.102 74.5746C140.303 74.0597 140.421 73.5448 140.421 73.0465C142.246 74.9234 144.774 75.9531 147.554 75.9531C149.831 75.9531 152.125 75.2555 154.034 73.9766C156.093 72.5981 157.6 70.6382 158.37 68.313L159.04 66.3365L157.031 67.0507ZM125.183 12.5896C123.777 12.5896 123.04 12.0249 122.822 10.8291C122.672 10.0319 123.074 9.45054 123.861 9.26784C123.894 9.26784 123.928 9.25123 123.961 9.25123C123.777 9.9322 123.861 10.6796 124.313 11.4104C124.648 11.9253 125.167 12.3239 125.82 12.5564C125.602 12.573 125.384 12.5896 125.183 12.5896ZM64.0339 11.4104C64.5027 10.6962 64.5697 9.9322 64.3855 9.25123C64.419 9.25123 64.4525 9.26784 64.4859 9.26784C65.2729 9.43393 65.6748 10.0319 65.5241 10.8291C65.3064 12.0249 64.5529 12.5896 63.1632 12.5896C62.9622 12.5896 62.7446 12.573 62.5269 12.5564C63.1799 12.3239 63.699 11.9419 64.0339 11.4104ZM124.916 18.5357C125.167 18.2865 125.435 18.054 125.719 17.8381C126.958 16.8914 128.532 16.3101 130.508 16.3101C130.793 16.3101 131.077 16.3267 131.379 16.3433L134.058 15.1308C133.103 15.1474 132.333 15.1807 131.714 15.1807C129.035 15.1807 129.252 14.8153 129.604 12.955C129.604 12.955 131.864 13.5696 133.589 13.5696C133.756 13.5696 133.924 13.5696 134.075 13.553C134.912 13.4865 135.28 13.1211 135.414 12.6727C135.582 12.0748 135.632 11.1447 135.163 9.98203C134.862 9.21801 134.125 8.55365 133.07 8.55365C132.266 8.55365 131.295 8.93566 130.19 9.9322L129.252 10.8623C128.767 10.2976 128.382 9.64985 128.08 9.0187C127.879 8.15504 128.817 7.60694 128.817 7.60694C127.862 7.7232 127.394 6.74327 127.243 6.29482C128.264 5.74673 129.721 4.91627 131.262 4.50105L131.714 2.97302C132.3 2.67405 138.026 1.36194 139.533 1.36194C139.617 1.36194 139.667 1.36194 139.734 1.37855C139.851 1.39516 139.968 1.44499 140.052 1.51142C139.734 1.86021 139.449 2.25883 139.198 2.69066L140.22 3.02284C140.789 2.10935 141.576 1.34533 142.279 1.11281C143.2 1.91004 144.305 4.28513 141.877 6.77649V8.22147L142.296 7.82285C142.882 7.27476 143.301 6.74327 143.619 6.22839C148.257 16.1938 140.638 24.3655 140.688 27.8866C140.688 27.8866 139.098 27.8367 138.009 27.4049C138.009 27.4049 137.524 30.843 138.595 33.6665C139.835 36.9551 141.794 39.8783 143.368 43.0008C143.903 44.0638 144.372 45.1434 144.757 46.2562C144.774 46.2894 144.774 46.3226 144.791 46.3558C145.109 47.0368 145.645 47.6347 146.248 47.9669C146.264 47.9835 146.298 47.9835 146.314 48.0001C147.101 48.3987 148.022 48.3489 148.793 47.8838C149.546 47.4354 149.948 46.6714 149.931 45.8243C149.881 43.9309 148.759 42.5357 147.554 41.0575C146.917 40.2603 146.248 39.4465 145.728 38.5163C144.104 35.6098 143.702 32.3212 144.573 28.9994C144.975 27.4713 145.879 26.126 146.75 24.8139C146.951 24.5149 147.135 24.2326 147.336 23.9336C147.42 23.8174 147.487 23.7011 147.554 23.5848C147.135 23.2028 147.051 22.7378 147.185 22.1232C147.302 21.5585 147.604 20.8776 147.972 20.0305C148.391 19.1004 148.876 18.0374 149.111 16.9246C149.496 15.1308 149.496 13.6858 149.261 12.2575C149.613 12.8222 149.914 13.4201 150.166 14.0346C150.45 14.7322 150.651 15.463 150.752 16.227C150.852 16.991 150.852 17.7717 150.735 18.5523C151.003 17.8215 151.17 17.0243 151.221 16.227C151.271 15.4132 151.221 14.5993 151.07 13.8021C150.936 13.0713 150.735 12.3405 150.467 11.6429C151.622 13.3204 152.208 15.3634 152.242 17.8215C152.275 20.9108 151.204 23.5018 150.182 24.1163C150.048 24.1994 149.931 24.2492 149.814 24.2824C149.379 24.3821 148.709 24.0831 148.709 24.0831C148.408 24.5814 148.106 25.0298 147.788 25.5115C146.934 26.7904 146.13 28.0028 145.779 29.3149C144.992 32.3544 145.327 35.2444 146.817 37.9018C147.286 38.7323 147.905 39.5129 148.525 40.2603C149.797 41.8382 151.12 43.4658 151.17 45.7745C151.204 47.07 150.551 48.2492 149.429 48.9302C148.826 49.2956 148.123 49.4949 147.42 49.4949C147.101 49.4949 146.767 49.4451 146.448 49.3787C146.164 49.2956 145.879 49.196 145.611 49.0465C145.528 48.9967 145.444 48.9468 145.36 48.897C145.41 49.2956 145.427 49.7108 145.41 50.1095C145.41 50.2091 145.394 50.3254 145.394 50.425C145.343 51.106 145.243 51.8036 145.193 52.4845C145.109 53.3648 144.958 53.4645 145.226 54.3282C145.544 55.3247 146.901 55.9226 148.307 56.2382C149.194 56.4375 150.4 56.6202 151.338 56.7365C152.175 56.8527 152.794 57.5337 152.845 58.3641C152.962 60.4071 153.129 64.0278 152.979 65.041C152.811 66.1538 152.158 67.1005 151.12 67.5988C151.187 67.7483 151.254 67.8977 151.321 68.0306C151.472 68.4126 151.589 68.7448 151.639 69.0604C151.974 70.8708 150.668 71.4354 149.496 71.7178L149.345 70.0901C149.328 70.0237 149.01 69.8742 148.943 69.841C148.843 69.7746 148.726 69.7081 148.642 69.6251C148.441 69.4424 148.374 69.2265 148.341 68.9939C148.324 68.8611 148.324 68.7282 148.324 68.5787C148.307 68.3296 148.274 68.0804 148.14 67.8977C148.073 67.8147 148.006 67.7483 147.888 67.6984C147.788 67.6486 147.688 67.632 147.587 67.632C147.47 67.632 147.369 67.6652 147.269 67.715C147.051 67.8313 146.867 68.0472 146.834 68.313C146.817 68.4126 146.834 68.5455 146.85 68.6784C146.934 69.16 147.168 69.8244 146.951 70.4057C146.817 70.7877 146.298 71.3026 145.728 71.3026C145.544 71.3026 145.377 71.2528 145.193 71.1365L144.021 72.1663C142.463 70.4721 142.949 68.8444 144.64 68.1469C144.774 68.097 144.891 68.0306 144.992 67.9642C145.31 67.7482 145.494 67.4659 145.31 67.1669C145.176 66.9344 145.025 66.8514 144.824 66.8514C144.523 66.8514 144.138 67.0341 143.552 67.2666C143.518 67.2832 143.485 67.2998 143.435 67.3164C143.116 67.4327 142.815 67.5157 142.53 67.5157C141.928 67.5157 141.442 67.1669 141.191 66.2036C141.174 66.1206 141.157 66.0209 141.141 65.9379L140.739 66.104L140.035 66.3863C140.052 66.27 140.069 66.1372 140.086 66.0209C140.153 65.6223 140.287 65.2901 140.437 65.0078C140.956 64.061 141.877 63.679 142.815 63.679C144.021 63.679 145.26 64.277 145.779 65.041L147.989 65.3399C148.441 64.7752 148.458 63.1143 148.391 61.8188C148.341 60.8721 147.637 60.1081 146.7 59.9586C145.092 59.7261 142.681 59.3773 141.827 59.3109C140.203 59.1946 138.512 58.9122 137.289 57.733C135.615 56.0887 135.247 54.378 135.247 52.0029C135.247 51.2223 135.28 50.4416 135.347 49.6444C135.397 48.9634 135.481 48.2825 135.548 47.6181C135.598 47.1697 135.665 46.7212 135.732 46.2728C135.799 45.8575 135.799 45.4091 135.766 44.9773C135.749 44.8112 135.732 44.6617 135.699 44.4956C135.615 44.0139 135.481 43.5489 135.297 43.0672C135.096 42.569 134.811 42.1039 134.476 41.6555C133.941 40.9579 133.237 40.3433 132.35 39.8451C132.032 39.6624 131.647 39.4465 131.245 39.1973C130.843 38.9482 130.408 38.6824 129.955 38.3669C128.85 37.6361 127.628 36.7226 126.489 35.6762C126.573 35.6264 126.657 35.5765 126.741 35.5267C127.159 35.2776 128.315 34.4305 129.403 33.5336C129.671 33.3177 129.905 33.1184 130.123 32.9191L129.085 32.371C127.879 33.3842 126.54 34.3807 126.188 34.58C126.021 34.6797 125.853 34.7793 125.686 34.879C125.368 35.0617 125.049 35.2444 124.748 35.4105C122.99 36.407 121.734 37.088 121.768 38.2506C123.944 40.5759 122.756 41.9544 121.55 42.3696L121.148 41.0907C119.876 40.8748 119.892 39.9447 119.842 39.2305C119.809 38.8485 119.507 38.6326 119.206 38.6326C118.955 38.6326 118.703 38.7987 118.687 39.1807C118.653 39.5959 118.687 40.0278 118.569 40.7087C118.486 41.1738 117.983 41.8049 117.263 41.8049C117.146 41.8049 117.029 41.7883 116.912 41.7551L116.644 43.2665C114.166 42.8015 114.434 40.36 116.108 39.5295C117.062 39.0478 117.364 38.699 117.079 38.3336C116.996 38.234 116.895 38.1842 116.778 38.1842C116.426 38.1842 115.907 38.5662 115.405 38.9316C115.187 39.0977 114.903 39.1807 114.601 39.1807C113.948 39.1807 113.245 38.7655 112.943 37.7855L112.089 38.3004C111.939 36.4568 113.094 35.5433 114.266 35.5433C114.819 35.5433 115.388 35.7426 115.823 36.1413C115.991 36.2907 116.158 36.3572 116.326 36.3572C116.862 36.3572 117.23 35.6928 116.51 35.3108C115.823 34.9454 115.17 33.816 115.807 33.1018L114.769 32.1385C115.237 31.8561 115.74 31.7233 116.209 31.7233C117.247 31.7233 118.201 32.3876 118.502 33.899C118.569 34.2478 118.72 34.3807 118.921 34.3807C119.49 34.3807 120.495 33.1682 121.249 31.9724C121.433 31.69 121.6 31.3911 121.768 31.1087C121.985 30.7267 122.22 30.3613 122.471 29.9959C122.789 29.5309 123.124 29.0824 123.542 28.6838C124.246 27.9862 125.468 26.7738 126.875 25.9599C127.209 25.7772 127.561 25.5945 127.913 25.445C128.331 24.8969 128.75 24.3322 129.118 23.7509C130.106 22.2561 130.927 20.6616 131.395 18.9841C130.625 20.562 129.554 21.9405 128.365 23.1696C127.812 23.7509 127.243 24.2824 126.64 24.8139C125.016 25.6443 123.66 26.9897 122.856 27.7703L122.739 27.8866C122.504 28.1191 122.287 28.3516 122.102 28.6008C121.835 26.9731 121.902 24.9634 122.421 23.0533C122.521 22.6879 122.638 22.3059 122.772 21.9571C123.258 20.6949 123.961 19.499 124.916 18.5357ZM131.178 11.9419C131.814 11.726 132.45 11.5599 133.053 11.5599C133.555 11.5599 134.024 11.6761 134.46 11.9253C134.443 12.1246 134.409 12.2907 134.393 12.3737C134.393 12.3903 134.393 12.3903 134.393 12.3903C134.393 12.3903 134.309 12.4734 133.974 12.5066C133.857 12.5232 133.723 12.5232 133.572 12.5232C132.919 12.5232 132.182 12.4236 131.529 12.3073C130.876 12.2076 129.889 11.9917 129.889 11.9917C129.788 11.4602 129.872 10.8955 130.073 10.9121C130.307 10.962 130.475 11.5267 131.178 11.9419ZM130.491 11.1114L130.893 10.6962C131.898 9.79933 132.618 9.60002 133.036 9.60002C133.79 9.60002 134.091 10.1813 134.158 10.364C134.225 10.5301 134.275 10.6962 134.326 10.8457C133.924 10.663 133.488 10.5966 133.036 10.5966C132.233 10.5966 131.379 10.8457 130.491 11.1114ZM137.423 62.3171C136.184 63.1475 135.029 63.5462 133.807 63.5462C132.668 63.5462 131.563 63.214 130.391 62.8486C130.073 62.7489 129.755 62.6493 129.42 62.5662C128.901 62.4167 128.348 62.3503 127.795 62.3503C126.456 62.3503 125.301 62.7822 124.547 63.1642C124.631 62.8818 124.899 61.8188 124.899 61.005C125.887 60.4569 126.573 59.6763 126.908 58.6631C127.41 57.1517 127.812 54.4776 127.41 51.5877C128.197 51.488 129.319 51.3219 130.441 51.1392C131.663 50.9399 132.668 50.7406 133.405 50.5579C133.756 50.4749 134.041 50.3918 134.292 50.3088C134.259 50.8901 134.242 51.4714 134.242 52.0527C134.242 53.4977 134.376 54.5773 134.677 55.524C135.046 56.6534 135.665 57.6333 136.586 58.5302C138.06 59.9752 140.035 60.2908 141.777 60.4071C142.396 60.4569 144.104 60.6728 146.566 61.0382C147.001 61.1046 147.353 61.47 147.369 61.9185C147.436 63.1143 147.386 63.8285 147.319 64.2271L146.348 64.0943C145.544 63.2306 144.171 62.6659 142.832 62.6659C141.141 62.6659 139.868 63.5462 139.299 65.041C138.997 65.0742 138.662 65.124 138.328 65.2071C138.964 64.2437 139.014 63.3469 139.031 63.2306L139.115 61.1545L137.423 62.3171ZM120.596 62.4998C120.495 62.4167 120.395 62.3171 120.311 62.2174C120.294 62.1842 120.277 62.1676 120.261 62.1344C120.043 61.7856 120.11 61.4202 120.16 61.0382C120.21 60.6562 120.21 60.2742 119.859 60.0251C119.725 59.9254 119.574 59.8756 119.423 59.8756C119.323 59.8756 119.239 59.8922 119.156 59.9254C118.921 60.0084 118.703 60.2077 118.62 60.4735C118.569 60.6064 118.569 60.7891 118.569 61.005C118.569 61.1877 118.586 61.387 118.586 61.5863C118.586 61.9351 118.553 62.3171 118.402 62.6493C118.385 62.6825 118.369 62.7157 118.352 62.7489C118.151 63.0811 117.615 63.4963 117.062 63.4963C116.811 63.4963 116.56 63.4133 116.343 63.1974L114.886 64.0777C114.886 64.0777 114.869 64.0777 114.869 64.0611C114.769 63.9116 114.702 63.7621 114.618 63.6292C114.45 63.2804 114.333 62.9648 114.266 62.6493C113.998 61.2541 114.836 60.241 116.309 59.9088C116.912 59.7759 117.397 59.4603 117.213 58.9787C117.096 58.6631 116.895 58.5468 116.594 58.5468C116.276 58.5468 115.823 58.6631 115.204 58.796C115.003 58.8292 114.819 58.8624 114.635 58.8956C114.484 58.9122 114.333 58.9289 114.199 58.9289C113.546 58.9289 113.128 58.6133 113.128 57.3178L111.872 57.5835C112.441 55.607 113.596 54.843 114.802 54.843C116.041 54.843 117.347 55.6569 118.151 56.7697L118.653 56.9358L119.541 57.2347L121.316 57.8327C123.04 56.3877 122.253 52.5842 122.253 52.5842C122.253 52.5842 118.888 50.7074 120.009 46.5385C120.009 46.5385 120.596 42.6188 127.795 42.6188C128.566 42.6188 129.403 42.6686 130.324 42.7683C130.876 42.8347 131.379 42.9011 131.831 42.9842C131.831 42.9842 131.831 43.0008 131.848 43.0008C131.68 43.3828 131.63 43.8146 131.714 44.2299C131.831 44.8776 132.233 45.4257 132.819 45.7247C133.103 45.8742 133.422 45.9572 133.756 45.9572C134.125 45.9572 134.476 45.8575 134.811 45.6748C134.811 45.8575 134.795 46.0236 134.778 46.1897C134.644 47.1198 134.51 48.1164 134.426 49.1627C132.969 49.8935 126.222 50.724 126.222 50.724C126.875 53.8797 126.456 56.8693 125.954 58.3641C125.769 58.9122 125.451 59.3441 125.049 59.6929C124.731 59.9752 124.363 60.1911 123.944 60.3572C123.861 61.4534 123.777 62.2673 123.576 62.915C123.526 63.1475 123.442 63.3469 123.342 63.5129C122.839 64.36 121.801 64.5593 120.863 64.6257L121.014 62.8652C120.964 62.7655 120.662 62.5496 120.596 62.4998ZM122.99 37.9849C123.275 37.5364 124.229 37.0215 125.217 36.4568C125.334 36.3904 125.468 36.324 125.602 36.2409C125.786 36.407 125.97 36.5731 126.155 36.7392C126.607 37.1378 127.075 37.5198 127.544 37.8852L127.561 37.9018L129.872 40.2935C130.475 40.9247 130.893 41.4063 131.178 41.8049L127.812 41.5724C126.155 41.5724 124.815 41.7717 123.727 42.0873C123.877 41.8548 123.995 41.589 124.062 41.3233C124.329 40.061 123.71 38.8817 122.99 37.9849ZM132.551 42.0541C132.35 41.6721 132.032 41.1904 131.496 40.5426C131.63 40.6257 131.781 40.7087 131.898 40.7752C132.702 41.2236 133.304 41.7717 133.756 42.3696C134.108 42.8347 134.342 43.333 134.527 43.8146C134.594 43.9973 134.644 44.1966 134.677 44.3793C134.476 44.6949 134.125 44.8942 133.756 44.8942C133.606 44.8942 133.455 44.861 133.304 44.778C132.752 44.4956 132.534 43.7648 132.919 43.2001C132.953 43.1503 132.986 43.1004 133.036 43.0506C132.869 42.7683 132.752 42.4527 132.551 42.0541ZM116.945 12.3239C117.615 12.7723 118.251 13.2872 118.871 13.8021C119.876 14.6326 120.847 15.5128 121.902 16.2935C122.236 16.5426 123.258 17.3066 124.062 17.9211C123.827 18.1703 123.609 18.4194 123.392 18.6852C122.806 19.4492 122.32 20.3128 121.952 21.2097L120.06 19.4326C120.261 18.9177 120.328 18.3198 120.261 17.7052C120.261 17.672 120.244 17.6388 120.244 17.589L119.239 18.0706C119.273 18.818 118.988 19.5987 118.302 19.9641C118.084 20.0803 117.9 20.1301 117.649 20.1301C117.649 20.1301 117.649 20.1301 117.632 20.1301L117.665 19.2167C117.33 19.2167 116.878 18.8679 116.878 18.3862C116.878 17.8381 117.23 17.5391 117.665 17.4063V16.3433C116.828 16.4928 116.209 16.991 115.957 17.672L114.852 17.6886C114.802 16.8582 115.204 16.1108 116.058 15.8284V14.7488C115.338 14.8983 114.869 15.2471 114.584 15.5627C114.501 15.6457 114.434 15.7454 114.35 15.845L113.513 15.8616C113.479 15.0644 113.881 14.3502 114.635 14.1011V13.0215C114.166 13.1211 113.764 13.3038 113.412 13.6028H112.625C112.642 13.0879 112.943 12.5896 113.362 12.2741C113.73 12.0083 114.199 11.8588 114.668 11.809C114.819 11.7924 114.969 11.7758 115.12 11.7758C115.321 11.7758 115.522 11.7924 115.706 11.8256C116.158 11.9087 116.577 12.0748 116.945 12.3239ZM114.702 5.68029C115.338 4.6007 115.706 3.22215 115.723 1.79378H118.251C118.268 1.97648 118.285 2.14257 118.285 2.32526C118.285 5.06575 116.075 7.29137 113.345 7.29137H113.161C113.747 6.94258 114.266 6.41109 114.702 5.68029ZM103.165 5.68029C103.801 4.6007 104.17 3.22215 104.186 1.79378H107.619C107.636 3.22215 108.004 4.6007 108.64 5.68029C109.076 6.41109 109.595 6.95919 110.181 7.29137H107.887C107.301 6.69344 106.815 5.8796 106.497 4.91627H105.342C105.04 5.8796 104.555 6.69344 103.952 7.29137H101.608C102.21 6.94258 102.746 6.41109 103.165 5.68029ZM91.4607 5.68029C92.097 4.6007 92.4654 3.22215 92.4821 1.79378H96.0989C96.1156 3.22215 96.484 4.6007 97.1203 5.68029C97.5556 6.41109 98.0747 6.94258 98.6607 7.29137H96.1658C95.5798 6.69344 95.0942 5.8796 94.7761 4.91627H93.6207C93.3193 5.8796 92.8337 6.69344 92.231 7.29137H89.8868C90.4896 6.94258 91.0254 6.41109 91.4607 5.68029ZM80.0412 5.68029C80.6775 4.6007 81.0459 3.22215 81.0626 1.79378H84.378C84.3947 3.22215 84.7631 4.6007 85.3994 5.68029C85.8347 6.41109 86.3538 6.95919 86.9398 7.29137H84.5956C84.0096 6.69344 83.524 5.8796 83.2059 4.91627H82.0505C81.7491 5.8796 81.2636 6.69344 80.6608 7.29137H78.4673C79.0868 6.94258 79.6226 6.41109 80.0412 5.68029ZM70.3464 2.24222C70.3464 2.09274 70.3464 1.94326 70.3631 1.77717H72.9585C72.9752 3.20554 73.3436 4.58409 73.9799 5.66368C74.4152 6.39448 74.9343 6.94258 75.5203 7.27476H75.2692C72.6236 7.29137 70.3464 4.98271 70.3464 2.24222ZM66.445 16.2769C67.4999 15.4962 68.4711 14.6326 69.4757 13.7855C70.0952 13.2706 70.7315 12.7557 71.4013 12.3073C71.7864 12.0415 72.2217 11.8755 72.6906 11.809C72.858 11.7758 73.0422 11.7592 73.2264 11.7592C73.3938 11.7592 73.5613 11.7758 73.7454 11.7924C74.1975 11.8588 74.6496 11.9917 75.0013 12.2575C75.4199 12.5564 75.7213 13.0547 75.738 13.5862H74.951C74.5994 13.3038 74.1808 13.1045 73.7287 13.0049V14.0845C74.4989 14.3336 74.9008 15.0478 74.8506 15.845L74.0134 15.8284C73.9464 15.7288 73.8627 15.6457 73.7789 15.5461C73.4943 15.2471 73.0087 14.8983 72.3055 14.7322V15.8118C73.1427 16.0942 73.5445 16.8416 73.511 17.672L72.4059 17.6554C72.1548 16.9578 71.5352 16.4762 70.698 16.3267V17.3897C71.1334 17.5225 71.485 17.8215 71.485 18.3696C71.485 18.8513 71.0496 19.2 70.698 19.2L70.7315 20.1135C70.7315 20.1135 70.7315 20.1135 70.7148 20.1135C70.4803 20.1135 70.2794 20.0471 70.0617 19.9474C69.3752 19.5821 69.1073 18.7848 69.1241 18.054L68.1194 17.5724C68.1194 17.6056 68.1027 17.6388 68.1027 17.6886C68.019 18.3032 68.1027 18.9011 68.3036 19.416L66.4115 21.2097C66.0431 20.3128 65.5576 19.4658 64.9715 18.6852C64.7539 18.4194 64.5362 18.1537 64.3018 17.9211C65.0887 17.29 66.1101 16.526 66.445 16.2769ZM35.3344 65.0908C35.1837 64.0777 35.3512 60.4735 35.4684 58.414C35.5186 57.5835 36.1549 56.9026 36.9753 56.7863C37.913 56.6534 39.1186 56.4707 40.006 56.288C41.4125 55.9891 42.7688 55.3745 43.087 54.378C43.3549 53.5143 43.2042 53.4146 43.1204 52.5344C43.0535 51.8534 42.9697 51.1558 42.9195 50.4748C42.9195 50.3752 42.9028 50.2589 42.9028 50.1593C42.886 49.7607 42.9028 49.3454 42.953 48.9468C42.8693 48.9966 42.7856 49.0465 42.7018 49.0963C42.4339 49.2458 42.1493 49.3454 41.8646 49.4285C41.5465 49.5115 41.2284 49.5447 40.8935 49.5447C40.1902 49.5447 39.5037 49.362 38.8842 48.98C37.7623 48.2991 37.1093 47.1198 37.1428 45.8243C37.193 43.5157 38.5158 41.888 39.7884 40.3101C40.3912 39.5627 41.0274 38.7821 41.4963 37.9516C42.9865 35.2942 43.3381 32.4042 42.5344 29.3648C42.1828 28.036 41.3791 26.8402 40.5251 25.5613C40.207 25.0796 39.9056 24.6312 39.6042 24.1329C39.6042 24.1329 38.9344 24.4319 38.4991 24.3322C38.3819 24.299 38.2646 24.2492 38.1307 24.1661C37.1093 23.535 36.0209 20.9606 36.0712 17.8713C36.1047 15.4132 36.6907 13.3703 37.846 11.6928C37.5949 12.3903 37.3772 13.1211 37.2433 13.8519C37.0926 14.6492 37.0423 15.4796 37.0926 16.2769C37.1428 17.0907 37.3102 17.8713 37.5781 18.6021C37.4609 17.8215 37.4609 17.0409 37.5614 16.2769C37.6619 15.5128 37.8628 14.782 38.1474 14.0845C38.3986 13.4699 38.7 12.872 39.0516 12.3073C38.8172 13.7357 38.8172 15.1807 39.2023 16.9744C39.4367 18.0872 39.9223 19.1502 40.3409 20.0803C40.726 20.9274 41.0107 21.6084 41.1279 22.1731C41.2618 22.7876 41.1781 23.2526 40.7595 23.6347C40.8265 23.7509 40.9102 23.8672 40.9772 23.9834C41.1614 24.2658 41.3623 24.5648 41.5632 24.8637C42.4339 26.1758 43.3381 27.5212 43.74 29.0492C44.6107 32.371 44.2088 35.6596 42.5846 38.5662C42.0656 39.4963 41.3958 40.3101 40.7595 41.1074C39.5707 42.5856 38.4321 43.9807 38.3819 45.8741C38.3651 46.7378 38.7837 47.4852 39.5205 47.9337C40.2907 48.3987 41.2116 48.4319 41.9986 48.0499C42.0153 48.0333 42.0488 48.0333 42.0656 48.0167C42.6684 47.7011 43.2042 47.1032 43.5223 46.4056C43.539 46.3724 43.539 46.3392 43.5558 46.306C43.9409 45.1932 44.4097 44.097 44.9455 43.0506C46.5195 39.9281 48.4786 37.0049 49.7176 33.7163C50.7893 30.8928 50.3037 27.4547 50.3037 27.4547C49.2153 27.8866 47.6246 27.9364 47.6246 27.9364C47.6748 24.4153 40.0563 16.2436 44.6944 6.27821C45.0125 6.79309 45.4311 7.32458 46.0172 7.87268L46.4358 8.2713V6.82631C44.0079 4.33496 45.1297 1.95987 46.0339 1.16263C46.7204 1.41177 47.5074 2.15917 48.0934 3.07267L49.1148 2.74049C48.8637 2.32526 48.579 1.92665 48.2609 1.56125C48.3614 1.49481 48.4618 1.44499 48.579 1.42838C48.6293 1.42838 48.6962 1.41177 48.78 1.41177C50.3037 1.41177 56.0302 2.72388 56.5995 3.02284L57.1018 4.53427C58.659 4.94949 60.099 5.77994 61.1204 6.32804C60.9529 6.75988 60.4841 7.73981 59.5464 7.64016C59.5464 7.64016 60.4674 8.18825 60.2832 9.05192C59.9818 9.68307 59.5967 10.3308 59.1111 10.8955L58.1734 9.96542C57.0683 8.95227 56.0971 8.58687 55.2934 8.58687C54.2385 8.58687 53.5018 9.25123 53.2004 10.0152C52.7316 11.1779 52.7818 12.108 52.9492 12.7059C53.0832 13.1544 53.4516 13.5198 54.2888 13.5862C54.4395 13.6028 54.6069 13.6028 54.7744 13.6028C56.499 13.6028 58.7595 12.9883 58.7595 12.9883C59.1111 14.8485 59.3288 15.2139 56.6497 15.2139C56.0302 15.2139 55.2599 15.1973 54.3055 15.164L56.9846 16.3765C57.286 16.3599 57.5706 16.3433 57.8553 16.3433C59.8311 16.3433 61.405 16.9246 62.6441 17.8713C62.9287 18.0872 63.1967 18.3198 63.4478 18.5689C64.4022 19.5322 65.0887 20.7281 65.5743 21.9904C65.7083 22.3558 65.8255 22.7212 65.9259 23.0866C66.445 25.0132 66.512 27.0229 66.2441 28.634C66.0432 28.3848 65.8422 28.1523 65.6078 27.9198L65.4906 27.8035C64.6869 27.0229 63.3306 25.6776 61.7064 24.8471C61.1036 24.3156 60.5343 23.7841 59.9818 23.2028C58.7929 21.9571 57.7381 20.5786 56.9511 19.0173C57.4367 20.6949 58.2571 22.3059 59.2283 23.7841C59.6134 24.3655 60.0153 24.9302 60.4339 25.4783C60.8022 25.6277 61.1371 25.7938 61.472 25.9931C62.8953 26.7904 64.1008 28.0194 64.8041 28.717C65.2227 29.1156 65.5576 29.5641 65.8757 30.0291C66.1269 30.3945 66.3445 30.7599 66.579 31.1419C66.7464 31.4243 66.9306 31.7233 67.098 32.0056C67.8515 33.2181 68.8562 34.4139 69.4255 34.4139C69.6264 34.4139 69.7771 34.2644 69.8441 33.9323C70.1455 32.4208 71.0999 31.7565 72.138 31.7565C72.6236 31.7565 73.1259 31.906 73.578 32.1717L72.5399 33.135C73.1594 33.8658 72.5064 34.9786 71.8366 35.344C71.1166 35.726 71.5017 36.3904 72.0208 36.3904C72.1882 36.3904 72.3557 36.324 72.5231 36.1745C72.9585 35.7759 73.5278 35.5765 74.0803 35.5765C75.2524 35.5765 76.4078 36.4734 76.2571 38.3336L75.3529 37.8354C75.0515 38.8153 74.3482 39.2305 73.6952 39.2305C73.3938 39.2305 73.1092 39.1475 72.8915 38.9814C72.3892 38.616 71.8701 38.234 71.5185 38.234C71.4013 38.234 71.2841 38.2838 71.2171 38.3835C70.9492 38.7489 71.2338 39.1143 72.1882 39.5793C73.8794 40.4098 74.1473 42.8513 71.6524 43.3164L71.3845 41.8049C71.2673 41.8382 71.1501 41.8548 71.0329 41.8548C70.3129 41.8548 69.8106 41.2236 69.7269 40.7586C69.6096 40.0776 69.6431 39.6624 69.6097 39.2305C69.5929 38.8485 69.3417 38.6824 69.0906 38.6824C68.7892 38.6824 68.4878 38.8984 68.4543 39.2804C68.4041 39.9946 68.4208 40.9247 67.1483 41.1406L66.7464 42.4195C65.5408 42.0042 64.3353 40.6257 66.5287 38.3004C66.5622 37.1212 65.3064 36.4402 63.5483 35.4603C63.2469 35.2942 62.9287 35.1115 62.6106 34.9288C62.4432 34.8291 62.2757 34.7295 62.1083 34.6298C61.7566 34.4139 60.4004 33.434 59.2115 32.4208L58.1734 32.9689C58.3911 33.1516 58.6255 33.3509 58.8934 33.5835C59.965 34.4637 61.1204 35.3274 61.5557 35.5765C61.6394 35.6264 61.7232 35.6762 61.8069 35.726C60.6683 36.7724 59.446 37.6859 58.3408 38.4167C57.8888 38.7157 57.4534 38.998 57.0516 39.2471C56.6497 39.4963 56.2646 39.7122 55.9464 39.8949C55.059 40.3932 54.3558 41.0077 53.8199 41.7053C53.4683 42.1537 53.2004 42.6354 52.9995 43.1171C52.7985 43.5821 52.6646 44.0638 52.5976 44.5454C52.5641 44.7115 52.5474 44.861 52.5306 45.0271C52.4972 45.4755 52.5139 45.9074 52.5641 46.3226C52.6311 46.771 52.6813 47.2195 52.7483 47.6679C52.832 48.3489 52.899 49.0133 52.9492 49.6942C53.0162 50.4915 53.0497 51.2721 53.0497 52.0527C53.0497 54.4444 52.6813 56.1551 51.0069 57.7828C49.8013 58.9621 48.1102 59.2444 46.4693 59.3607C45.6153 59.4105 43.2209 59.7593 41.5967 60.0084C40.6591 60.1413 39.9558 60.9219 39.9056 61.8686C39.8386 63.1475 39.8553 64.8251 40.3074 65.3898L42.5177 65.0908C43.0367 64.3268 44.2758 63.7289 45.4814 63.7289C46.419 63.7289 47.34 64.0943 47.859 65.0576C48.0097 65.3399 48.1437 65.6721 48.2107 66.0707C48.2274 66.187 48.2441 66.3033 48.2609 66.4361L47.5576 66.1538L47.1558 65.9877C47.139 66.0873 47.1223 66.1704 47.1055 66.2534C46.8711 67.2168 46.3688 67.5656 45.766 67.5656C45.4814 67.5656 45.18 67.4825 44.8618 67.3662C44.8283 67.3496 44.7949 67.333 44.7446 67.3164C44.1753 67.0839 43.7735 66.9012 43.4721 66.9012C43.2711 66.9012 43.1204 66.9842 42.9865 67.2168C42.8023 67.5323 42.9865 67.7981 43.3046 68.014C43.4051 68.0804 43.539 68.1469 43.6563 68.1967C45.3474 68.8943 45.833 70.522 44.2758 72.2161L43.1037 71.1863C42.9195 71.3026 42.7353 71.3524 42.5679 71.3524C41.9986 71.3524 41.4795 70.8375 41.3456 70.4555C41.1279 69.8742 41.3623 69.2098 41.446 68.7282C41.4628 68.5953 41.4795 68.4624 41.4628 68.3628C41.4293 68.097 41.2451 67.8811 41.0274 67.7649C40.927 67.715 40.8265 67.6818 40.7093 67.6818C40.6088 67.6818 40.5084 67.6984 40.4079 67.7482C40.3074 67.7981 40.2237 67.8645 40.1567 67.9476C40.006 68.1303 39.9725 68.3794 39.9725 68.6285C39.9725 68.7614 39.9725 68.9109 39.9558 69.0438C39.9223 69.2763 39.8553 69.4922 39.6544 69.6749C39.5539 69.7579 39.4535 69.8244 39.353 69.8908C39.286 69.924 38.9679 70.0735 38.9512 70.14L38.8005 71.7676C37.6284 71.4853 36.3391 70.9206 36.6572 69.1102C36.7074 68.8112 36.8079 68.4624 36.9753 68.0804C37.0256 67.9476 37.0926 67.7981 37.1763 67.6486C36.1716 67.1503 35.5019 66.2036 35.3344 65.0908ZM55.3102 11.5599C55.913 11.5599 56.5325 11.7094 57.1855 11.9419C57.8888 11.5101 58.0395 10.962 58.3074 10.9287C58.5083 10.9121 58.592 11.4768 58.4915 12.0083C58.4915 12.0083 57.5036 12.2242 56.8506 12.3239C56.1976 12.4402 55.4609 12.5398 54.8078 12.5398C54.6571 12.5398 54.5232 12.5398 54.406 12.5232C54.0878 12.49 53.9874 12.4236 53.9874 12.4069C53.9874 12.4069 53.9874 12.4069 53.9874 12.3903C53.9539 12.2907 53.9204 12.1412 53.9204 11.9419C54.339 11.6762 54.8078 11.5599 55.3102 11.5599ZM54.0209 10.8457C54.0544 10.6962 54.1213 10.5301 54.1883 10.364C54.2553 10.1813 54.5567 9.60002 55.3102 9.60002C55.7455 9.60002 56.4655 9.78272 57.4534 10.6962L57.8553 11.1114C56.9678 10.8291 56.0971 10.5966 55.2934 10.5966C54.8581 10.5966 54.4395 10.6796 54.0209 10.8457ZM67.0311 57.8327L68.8227 57.2347L69.7101 56.9358L70.2124 56.7697C71.0162 55.6403 72.3222 54.843 73.5613 54.843C74.7668 54.843 75.9222 55.607 76.4915 57.5835L75.2357 57.3178C75.2357 58.5967 74.8171 58.9289 74.1641 58.9289C74.0301 58.9289 73.8794 58.9122 73.7287 58.8956C73.5445 58.8624 73.3603 58.8292 73.1594 58.796C72.5399 58.6797 72.0878 58.5468 71.7696 58.5468C71.4682 58.5468 71.2673 58.6631 71.1501 58.9787C70.9827 59.4603 71.4515 59.7593 72.0543 59.9088C73.5278 60.241 74.365 61.2707 74.0971 62.6493C74.0301 62.9648 73.9296 63.2804 73.7454 63.6292C73.6785 63.7787 73.5948 63.9116 73.4943 64.0611C73.4943 64.0611 73.4775 64.061 73.4775 64.0777L72.0208 63.1974C71.8031 63.4133 71.552 63.4963 71.3008 63.4963C70.7482 63.4963 70.2124 63.0977 70.0115 62.7489C69.9948 62.7157 69.978 62.6825 69.9613 62.6493C69.7938 62.3171 69.7771 61.9351 69.7771 61.5863C69.7771 61.387 69.7938 61.1877 69.7938 61.005C69.7938 60.7891 69.7938 60.6064 69.7436 60.4735C69.6599 60.2077 69.4422 60.0251 69.2078 59.9254C69.1241 59.8922 69.0236 59.8756 68.9399 59.8756C68.7892 59.8756 68.6385 59.9254 68.5045 60.0251C68.1529 60.2742 68.1529 60.6562 68.2031 61.0382C68.2534 61.4368 68.3204 61.8022 68.1027 62.1344C68.0859 62.1676 68.0692 62.1842 68.0524 62.2174C67.9687 62.3171 67.8683 62.4167 67.7678 62.4998C67.7008 62.5496 67.3994 62.7655 67.3994 62.8486L67.5501 64.6091C66.6124 64.5427 65.5743 64.3434 65.072 63.4963C64.9715 63.3302 64.8878 63.1143 64.8376 62.8984C64.6534 62.2507 64.5697 61.4534 64.4692 60.3406C64.0506 60.1745 63.6822 59.9586 63.3641 59.6763C62.9622 59.3275 62.6441 58.8956 62.4599 58.3475C61.9576 56.8527 61.5222 53.8631 62.192 50.7074C62.192 50.7074 55.4441 49.8769 53.9874 49.1461C53.8869 48.0998 53.7697 47.0866 53.6358 46.1731C53.619 46.007 53.6023 45.8409 53.6023 45.6582C53.9204 45.8409 54.2888 45.9406 54.6571 45.9406C54.992 45.9406 55.2934 45.8575 55.5948 45.7081C56.1809 45.4091 56.5827 44.861 56.6999 44.2132C56.7836 43.798 56.7334 43.3662 56.566 42.9842C56.566 42.9842 56.566 42.9676 56.5827 42.9676C57.0348 42.8845 57.5371 42.8181 58.0897 42.7517C59.0106 42.652 59.8478 42.6022 60.6181 42.6022C67.818 42.6022 68.4041 46.5219 68.4041 46.5219C69.5259 50.6908 66.1604 52.5676 66.1604 52.5676C66.1604 52.5676 65.3232 56.3877 67.0311 57.8327ZM49.299 63.2306C49.299 63.3469 49.366 64.2437 50.0023 65.2071C49.6506 65.124 49.3325 65.0742 49.0311 65.041C48.4618 63.5462 47.1893 62.6659 45.4981 62.6659C44.1586 62.6659 42.7856 63.2306 41.9818 64.0943L41.0107 64.2271C40.9437 63.8119 40.8935 63.0977 40.9604 61.9185C40.9772 61.47 41.3288 61.1046 41.7642 61.0382C44.2256 60.6728 45.9335 60.4403 46.553 60.4071C48.2944 60.2908 50.2702 59.9752 51.7437 58.5302C52.6646 57.6333 53.3009 56.6368 53.6525 55.524C53.9539 54.5773 54.0878 53.5143 54.0878 52.0527C54.0878 51.4714 54.0711 50.8901 54.0376 50.3088C54.2888 50.3918 54.5902 50.4749 54.9251 50.5579C55.6618 50.7406 56.6664 50.9399 57.8888 51.1392C59.0106 51.3219 60.1325 51.488 60.9194 51.5877C60.5176 54.4942 60.9027 57.1517 61.4218 58.6631C61.7566 59.6597 62.4432 60.4569 63.4311 61.005C63.4311 62.068 63.7659 63.1309 63.7659 63.1642C63.0125 62.7822 61.8571 62.3503 60.5176 62.3503C59.965 62.3503 59.4125 62.4334 58.8934 62.5662C58.5585 62.6659 58.2404 62.7655 57.9222 62.8486C56.7502 63.1974 55.6618 63.5462 54.5064 63.5462C53.2841 63.5462 52.1288 63.1642 50.8897 62.3171L49.1651 61.1545L49.299 63.2306ZM55.4609 43.2167C55.8292 43.7814 55.6283 44.5122 55.0758 44.7946C54.9251 44.8776 54.7744 44.9108 54.6237 44.9108C54.2553 44.9108 53.9037 44.7115 53.7027 44.3959C53.7362 44.2132 53.8032 44.0139 53.8534 43.8312C54.0209 43.333 54.272 42.8513 54.6237 42.3863C55.0757 41.7883 55.6785 41.2402 56.4823 40.7918C56.5995 40.7253 56.7334 40.6423 56.8841 40.5593C56.3483 41.207 56.0302 41.6721 55.8292 42.0707C55.6116 42.4693 55.5111 42.7849 55.3604 43.0838C55.3771 43.1171 55.4274 43.1669 55.4609 43.2167ZM62.2087 36.7558C62.3929 36.5897 62.5771 36.4236 62.7613 36.2575C62.8953 36.324 63.0125 36.407 63.1464 36.4734C64.1343 37.0215 65.072 37.553 65.3734 38.0015C64.6534 38.8817 64.0171 40.0776 64.3353 41.3233C64.4022 41.589 64.5194 41.8548 64.6701 42.0873C63.5818 41.7717 62.2422 41.5724 60.5846 41.5724L57.219 41.8049C57.5036 41.4063 57.9055 40.9247 58.525 40.2935L60.8357 37.9018L60.8525 37.8852C61.2878 37.5364 61.7567 37.1544 62.2087 36.7558ZM47.273 72.2825C45.5483 74.1095 43.2209 74.9566 40.8265 74.9566C36.7242 74.9566 32.4879 72.4486 30.9977 68.0306C30.9977 68.0306 33.0237 68.7116 35.6358 69.0105C35.5186 69.7247 35.5856 70.3559 35.8535 70.9206C36.4228 72.1164 37.6786 72.5483 38.566 72.7808L39.7549 73.0798L39.8721 71.8673L39.9893 70.7379C40.0898 70.6714 40.207 70.5884 40.3074 70.5053C40.3242 70.605 40.3577 70.7047 40.3911 70.8043C40.6758 71.5849 41.58 72.3822 42.6014 72.3822C42.7018 72.3822 42.8023 72.3822 42.9028 72.3656L43.6228 72.9967L44.393 73.6777L45.0962 72.9137C46.0841 71.8507 46.486 70.6548 46.2348 69.5586C46.1511 69.2098 46.0172 68.8777 45.8162 68.5787C46.4358 68.5787 46.9883 68.3462 47.4069 67.9143C47.5576 67.7483 47.7083 67.5656 47.8088 67.3496L47.8758 67.3662L49.5 68.0306L49.3158 66.3033C49.3158 66.2368 49.299 66.187 49.299 66.1206C50.019 66.2368 50.8897 66.5026 51.9948 66.9178C52.1455 67.0008 52.313 67.0673 52.4637 67.1171C52.5474 67.1503 52.6144 67.1835 52.6981 67.2002C52.3465 67.3995 51.9948 67.5988 51.6767 67.7981C50.086 68.8112 48.9976 69.9074 48.4283 71.0535C48.0767 71.4521 47.6916 71.8507 47.273 72.2825ZM59.6804 68.6784C58.525 69.6417 56.9176 69.841 55.4609 69.9406C51.0404 70.2728 49.232 74.2258 49.232 74.2258C48.8637 73.3123 48.9307 72.4486 49.2823 71.668C49.8181 70.4721 51.0237 69.4424 52.2962 68.6451C54.4227 67.3164 56.7669 66.569 56.7669 66.569C56.3483 66.6022 55.9632 66.6188 55.5948 66.6188C54.6739 66.6188 53.9204 66.5026 53.3009 66.3199C52.9492 66.2202 52.6311 66.0873 52.3632 65.9545C50.4041 64.9579 50.3372 63.1808 50.3372 63.1808C51.8944 64.2271 53.2674 64.5925 54.5399 64.5925C56.1809 64.5925 57.6711 64.0112 59.1948 63.5794C59.6469 63.4465 60.099 63.3967 60.5343 63.3967C61.7901 63.3967 62.8785 63.8617 63.498 64.1939C62.7111 64.6756 62.0413 65.2901 61.5222 66.0707C61.3213 66.3863 61.1371 66.7019 60.9864 67.0008C60.5008 67.6818 60.1827 68.2797 59.6804 68.6784ZM67.0311 67.1669C65.4906 67.5157 64.0506 68.396 63.565 69.9739C63.2804 70.8874 63.3306 71.8839 63.3808 72.8306C63.3808 72.8306 60.2329 71.0535 61.9073 67.5489C62.0413 67.2666 62.2255 66.951 62.4264 66.6354C62.8283 66.0209 63.3139 65.5891 63.7659 65.2569C63.9334 65.1572 64.1008 65.0742 64.285 64.9745L64.7539 64.742C65.5576 65.423 66.6459 65.5891 67.4497 65.6389L68.672 65.722L68.5715 64.5095L68.4711 63.2472C68.605 63.1309 68.739 62.9981 68.8729 62.832C68.8729 62.8154 68.8897 62.8154 68.8897 62.7988C68.9399 62.9482 69.0069 63.0977 69.0906 63.2306C69.459 63.8617 70.3297 64.4929 71.2841 64.4929C71.5352 64.4929 71.7696 64.443 72.0041 64.36L72.5566 64.6922C72.5231 64.7254 72.4729 64.7586 72.4394 64.7918C70.6478 66.4694 69.325 66.6521 67.0311 67.1669ZM114.534 72.9469C114.534 72.9469 115.438 68.9773 113.513 67.715C110.432 65.7219 108.791 67.4327 105.342 64.8251C105.308 64.7752 105.258 64.742 105.224 64.6922C103.6 63.0645 101.809 62.0347 100.184 61.4866C99.0626 61.6693 97.8235 61.8022 96.4505 61.8686C96.7184 61.8853 96.9863 61.9019 97.2709 61.9351C97.7565 61.9849 98.2756 62.068 98.8114 62.1842C99.6319 62.3669 100.503 62.6493 101.373 63.0645C102.428 63.5794 103.483 64.4098 104.471 65.4064C104.538 65.4728 104.588 65.5226 104.638 65.5891C106.782 67.8977 106.212 70.1566 106.212 70.1566C106.212 70.1566 103.466 66.5358 99.364 66.5358C97.4049 66.5358 95.7138 67.1835 94.8431 67.6154L94.2068 67.9476L93.5705 67.6154C92.6998 67.2002 91.0086 66.5358 89.0496 66.5358C84.9473 66.5358 82.2012 70.1566 82.2012 70.1566C82.2012 70.1566 81.6152 67.8977 83.7752 65.5891C83.8254 65.5226 83.8924 65.4728 83.9426 65.4064C84.9305 64.4098 85.9854 63.5628 87.0403 63.0645C87.911 62.6493 88.7817 62.3669 89.6021 62.1842C90.1379 62.068 90.657 61.9849 91.1426 61.9351C91.4272 61.9019 91.7119 61.8853 91.9798 61.8686C90.6068 61.8022 89.3677 61.6693 88.2291 61.4866C86.6049 62.0347 84.8133 63.0479 83.1891 64.6922C83.1389 64.742 83.1054 64.7752 83.0719 64.8251C79.6226 67.4327 77.9817 65.7219 74.9008 67.715C72.9752 68.9607 73.8794 72.9469 73.8794 72.9469C73.8794 72.9469 69.8106 69.8908 73.4943 65.8548C74.2645 65.0078 75.2022 64.3102 75.8887 63.8451C76.458 63.4631 76.8599 63.2472 76.8599 63.2472C76.8599 63.2472 76.525 63.214 76.0896 63.1309C75.8552 63.0977 75.5706 63.0313 75.2692 62.9648C75.2189 62.9482 75.152 62.9316 75.085 62.915C75.2357 62.2008 75.1854 61.5033 74.9343 60.8887C74.8338 60.6396 74.6831 60.3904 74.5157 60.1745C76.1064 60.6064 78.0654 60.9385 80.2924 60.9385C81.1464 60.9385 82.0338 60.7558 82.9715 60.6562C83.2896 60.623 83.6412 60.6064 83.9929 60.6064C84.1101 60.6064 84.2273 60.6064 84.3445 60.623C83.4738 60.3572 82.7036 60.0583 82.0003 59.7593C81.431 59.8424 80.8617 59.9254 80.2924 59.9254C78.5343 59.9254 76.9603 59.7095 75.604 59.3939C75.8552 59.1448 76.0059 58.8624 76.1064 58.5468L76.2571 58.5801L77.965 58.9455L77.4794 57.268C76.5752 54.1122 74.432 53.7801 73.5445 53.7801C72.1213 53.7801 70.5808 54.5939 69.5594 55.8728L67.3827 56.6036C66.8971 55.7233 66.9306 54.1621 67.0645 53.1821C67.4497 52.8998 68.0022 52.4181 68.5045 51.7039C69.2748 50.6243 70.045 48.8139 69.3752 46.2894C69.3083 45.9572 68.9566 44.6783 67.5836 43.5489L67.8348 42.735L68.0524 42.0209C68.3873 41.888 68.6552 41.6887 68.8562 41.4728C69.1576 42.0873 69.7436 42.652 70.4803 42.8347L70.5975 43.4658L70.7817 44.562L71.8701 44.3627C73.3771 44.0804 74.3817 43.1503 74.5659 41.888C74.6496 41.3233 74.5492 40.742 74.298 40.2105C74.8673 40.0776 75.3864 39.762 75.7715 39.2804L77.1947 40.0776L77.3287 38.3835C77.4459 36.9053 76.9101 35.9752 76.4413 35.4769C75.8385 34.8291 74.9678 34.4637 74.0636 34.4637C73.9631 34.4637 73.8794 34.4637 73.7789 34.4804C73.7957 34.3973 73.8292 34.3143 73.8459 34.2312C73.8961 33.9489 73.8961 33.6665 73.8459 33.3842L74.3315 32.9357L75.4031 31.9392L74.1473 31.1918C73.511 30.8098 72.8245 30.6104 72.138 30.6104C70.9994 30.6104 69.6934 31.1918 69.0404 32.753C68.7724 32.4374 68.4208 31.989 68.0357 31.3745C67.885 31.1253 67.7343 30.8762 67.5836 30.6271C67.4162 30.3447 67.232 30.0457 67.0478 29.7634V29.7468C67.6004 27.6873 67.5836 24.8637 66.7631 22.2395L68.8227 20.2962C69.0236 20.5288 69.2748 20.7115 69.5427 20.8443C69.9278 21.0436 70.2794 21.1433 70.6813 21.1433H70.698L71.7864 21.1267V19.798C71.8199 19.7647 71.8701 19.7315 71.9036 19.6983C72.205 19.416 72.3892 19.0672 72.4562 18.6686L73.4608 18.6852L74.4654 18.7018L74.5157 17.7052C74.5324 17.4063 74.4989 17.1239 74.4487 16.8416H74.8171L75.8217 16.8582L75.872 15.8616C75.8887 15.4132 75.8217 14.9813 75.671 14.5993H75.7045H76.7761L76.7426 13.5364C76.7259 12.7059 76.2906 11.9087 75.5873 11.4104C74.9678 10.962 74.2645 10.7959 73.712 10.746V8.32113H114.635V10.7294C114.082 10.7793 113.345 10.9454 112.709 11.4104C112.006 11.9253 111.57 12.7225 111.554 13.5364L111.52 14.5993H112.592H112.625C112.475 14.9813 112.391 15.4132 112.424 15.8616L112.475 16.8582L113.479 16.8416H113.848C113.781 17.1073 113.764 17.4063 113.781 17.7052L113.831 18.7018L114.836 18.6852L115.84 18.6686C115.907 19.0506 116.091 19.416 116.393 19.6983C116.426 19.7315 116.476 19.7647 116.51 19.798V21.1267L117.598 21.1433H117.615C118.017 21.1433 118.369 21.0436 118.754 20.8443C119.022 20.6949 119.273 20.5122 119.474 20.2962L121.533 22.2395C120.713 24.8637 120.679 27.6873 121.249 29.7468V29.7634C121.064 30.0457 120.88 30.3447 120.713 30.6271C120.562 30.8762 120.411 31.1253 120.261 31.3745C119.892 31.9724 119.524 32.4541 119.256 32.7696C118.603 31.2084 117.297 30.6271 116.158 30.6271C115.472 30.6271 114.785 30.8264 114.149 31.2084L112.893 31.9558L113.965 32.9523L114.45 33.4008C114.4 33.6665 114.4 33.9489 114.45 34.2478C114.467 34.3309 114.484 34.4139 114.517 34.497C114.417 34.497 114.333 34.4804 114.233 34.4804C113.312 34.4804 112.441 34.8458 111.855 35.4935C111.386 36.0084 110.85 36.9219 110.968 38.4001L111.102 40.0942L112.525 39.297C112.91 39.762 113.429 40.0776 113.998 40.2271C113.747 40.7586 113.647 41.3233 113.73 41.9046C113.915 43.1835 114.919 44.1136 116.426 44.3793L117.515 44.5786L117.699 43.4824L117.816 42.8513C118.569 42.652 119.156 42.1039 119.44 41.4894C119.641 41.7053 119.909 41.888 120.244 42.0375L120.428 42.6354L120.462 42.7517L120.713 43.5655C119.34 44.7115 118.988 45.9738 118.921 46.306C118.251 48.8306 119.022 50.6409 119.792 51.7205C120.294 52.4347 120.847 52.9164 121.232 53.1987C121.366 54.1787 121.399 55.7399 120.914 56.6202L118.737 55.8894C117.699 54.6105 116.175 53.7967 114.752 53.7967C113.864 53.7967 111.721 54.1288 110.817 57.2846L110.331 58.9621L112.039 58.5967L112.19 58.5635C112.29 58.8624 112.441 59.1614 112.692 59.4105C111.336 59.7095 109.762 59.942 108.004 59.942C107.435 59.942 106.865 59.859 106.296 59.7759C105.593 60.0749 104.823 60.3738 103.952 60.6396C104.069 60.6396 104.17 60.6396 104.287 60.6396C104.638 60.6396 104.99 60.6562 105.308 60.6894C106.246 60.8057 107.133 60.9718 107.987 60.9718C110.214 60.9718 112.173 60.6396 113.764 60.2077C113.596 60.4237 113.446 60.6562 113.345 60.9219C113.094 61.5365 113.044 62.2341 113.195 62.9482C113.128 62.9648 113.077 62.9815 113.01 62.9981C112.709 63.0645 112.424 63.1309 112.19 63.1642C111.738 63.2472 111.47 63.2638 111.47 63.2638C111.47 63.2638 111.872 63.4797 112.441 63.8617C113.128 64.3268 114.049 65.0244 114.836 65.8714C118.603 69.8908 114.534 72.9469 114.534 72.9469ZM124.982 72.8306C125.033 71.8839 125.066 70.8874 124.798 69.9739C124.313 68.396 122.873 67.5323 121.332 67.1669C119.038 66.6354 117.716 66.4694 115.924 64.8251C115.89 64.7918 115.84 64.7586 115.807 64.7254L116.359 64.3932C116.577 64.4763 116.828 64.5261 117.079 64.5261C118.05 64.5261 118.921 63.895 119.273 63.2638C119.356 63.1143 119.423 62.9815 119.474 62.832C119.474 62.8486 119.49 62.8486 119.49 62.8652C119.624 63.0313 119.758 63.1642 119.892 63.2804L119.792 64.5427L119.691 65.7552L120.914 65.6721C121.717 65.6223 122.789 65.4562 123.609 64.7752L124.078 65.0078C124.262 65.1074 124.43 65.1905 124.597 65.2901C125.066 65.6223 125.535 66.0541 125.937 66.6687C126.155 66.9842 126.322 67.2832 126.456 67.5822C128.13 71.0535 124.982 72.8306 124.982 72.8306ZM139.098 74.2424C139.098 74.2424 137.306 70.2894 132.869 69.9573C131.412 69.841 129.822 69.6417 128.649 68.695C128.147 68.2797 127.829 67.6818 127.327 67.0175C127.176 66.7019 126.992 66.4029 126.791 66.0873C126.272 65.3067 125.619 64.6756 124.815 64.2105C125.435 63.8783 126.506 63.4133 127.779 63.4133C128.214 63.4133 128.649 63.4631 129.118 63.596C130.659 64.0278 132.132 64.6091 133.773 64.6091C135.046 64.6091 136.419 64.2604 137.976 63.1974C137.976 63.1974 137.892 64.9745 135.95 65.9711C135.682 66.104 135.364 66.2368 135.012 66.3365C134.393 66.5192 133.622 66.6354 132.718 66.6354C132.35 66.6354 131.965 66.6188 131.546 66.5856C131.546 66.5856 133.89 67.333 136.017 68.6617C137.306 69.4756 138.495 70.4887 139.031 71.6846C139.399 72.4652 139.483 73.3123 139.098 74.2424ZM147.537 74.9566C145.142 74.9566 142.798 74.1095 141.09 72.2825C140.672 71.8507 140.303 71.4355 139.935 71.0701C139.366 69.9074 138.277 68.8278 136.687 67.8147C136.368 67.6154 136.034 67.4161 135.665 67.2168C135.749 67.1835 135.816 67.1503 135.9 67.1337C136.067 67.0673 136.218 67.0008 136.368 66.9344C137.474 66.5026 138.344 66.2534 139.064 66.1372C139.064 66.2036 139.048 66.2534 139.048 66.3199L138.863 68.0472L140.488 67.3829L140.555 67.3662C140.672 67.5822 140.806 67.7649 140.956 67.9309C141.375 68.3628 141.928 68.5953 142.547 68.5953C142.346 68.8943 142.212 69.2265 142.128 69.5752C141.877 70.6714 142.296 71.8673 143.267 72.9303L143.97 73.6943L144.741 73.0133L145.461 72.3822C145.561 72.3988 145.661 72.3988 145.762 72.3988C146.783 72.3988 147.688 71.6015 147.972 70.8209C148.006 70.7213 148.039 70.6216 148.056 70.522C148.173 70.605 148.274 70.688 148.374 70.7545L148.491 71.8839L148.608 73.0964L149.797 72.7974C150.685 72.5815 151.941 72.133 152.51 70.9372C152.778 70.3725 152.845 69.7413 152.727 69.0271C155.323 68.7282 157.366 68.0472 157.366 68.0472C155.859 72.4652 151.622 74.9566 147.537 74.9566ZM56.3818 4.7834C54.8581 5.19863 52.9325 4.80001 52.9325 4.80001C54.1046 5.94603 54.4897 6.64361 54.4897 6.64361C56.0302 6.72666 56.3818 5.73012 56.3818 4.7834ZM131.982 4.7834C131.982 5.73012 132.333 6.72666 133.874 6.66022C133.874 6.66022 134.275 5.96264 135.431 4.81662C135.431 4.81662 133.505 5.19863 131.982 4.7834ZM132.902 25.2457C133.17 24.7973 133.438 24.3488 133.706 23.9004C134.142 23.1696 134.543 22.389 134.895 21.5917C135.23 20.7945 135.515 19.9973 135.766 19.1834C136.034 18.3862 136.268 17.5724 136.502 16.7585C136.134 17.5225 135.766 18.2699 135.364 19.0173C134.979 19.7647 134.577 20.4955 134.142 21.1931C133.689 21.8907 133.204 22.5385 132.668 23.1696C132.199 23.7343 131.697 24.3156 131.211 24.8803C131.764 24.9468 132.333 25.0464 132.902 25.2457ZM53.4683 21.5917C53.8032 22.389 54.2218 23.1696 54.6571 23.9004C54.9251 24.3488 55.193 24.7973 55.4609 25.2457C56.0302 25.0464 56.5995 24.9302 57.152 24.8969C56.6664 24.3322 56.1641 23.7509 55.6953 23.1862C55.1595 22.5385 54.6739 21.8907 54.2218 21.2097C53.7864 20.5122 53.3846 19.7814 52.9995 19.034C52.6144 18.2865 52.246 17.5225 51.8609 16.7751C52.0953 17.589 52.3465 18.3862 52.5976 19.2C52.8488 19.9973 53.1334 20.7945 53.4683 21.5917ZM53.2172 26.4084C51.9279 24.5648 50.6888 22.6879 49.6507 20.7115C49.0814 19.6319 48.579 18.5191 48.1772 17.373C47.7586 16.227 47.4237 15.0478 47.1558 13.8519C47.2897 15.081 47.4739 16.2935 47.7586 17.5059C48.0432 18.7184 48.4283 19.8976 48.8804 21.0603C49.3325 22.2229 49.8516 23.3523 50.3874 24.4651C50.8227 25.3454 51.2748 26.2091 51.7269 27.0727C52.1623 26.9399 52.6646 26.7239 53.2172 26.4084ZM136.603 27.0727C137.072 26.2091 137.524 25.3454 137.942 24.4651C138.495 23.3523 139.014 22.2229 139.449 21.0603C139.901 19.8976 140.27 18.7018 140.571 17.5059C140.856 16.2935 141.057 15.081 141.174 13.8519C140.906 15.0478 140.571 16.227 140.153 17.373C139.734 18.5191 139.232 19.6319 138.679 20.7115C137.641 22.6879 136.402 24.5648 135.113 26.4084C135.699 26.7239 136.184 26.9399 136.603 27.0727Z" fill="#CC0000"/>
<path d="M111.805 13.5862H111.587H76.7761H76.6254L76.1398 14.5993H112.073L111.805 13.5862ZM116.56 19.7315V31.7399C116.929 31.8063 117.28 31.9558 117.582 32.2049V19.9308L116.56 19.7315ZM116.929 41.7883L116.661 43.2997C116.627 43.2997 116.594 43.2831 116.56 43.2831V45.3759C116.56 48.1828 115.723 50.7406 114.099 52.9496C113.697 53.4811 113.262 53.996 112.776 54.4942L72.9417 14.9481C72.7575 14.8651 72.5399 14.782 72.2887 14.7322V15.8118C73.1259 16.0941 73.5278 16.8416 73.4943 17.672L72.3892 17.6554C72.1547 16.991 71.5687 16.526 70.7817 16.3433V17.4229C71.1668 17.5724 71.4515 17.8713 71.4515 18.3696C71.4515 18.8014 71.0999 19.1336 70.7817 19.2V32.1219C71.1836 31.7897 71.6692 31.6734 72.1715 31.6734C72.6571 31.6734 73.1426 31.8561 73.5947 32.1219L72.5566 33.0852C73.1761 33.816 72.5231 34.9288 71.8533 35.2942C71.1333 35.6762 71.5185 36.3406 72.0375 36.3406C72.205 36.3406 72.3724 36.2741 72.5399 36.1246C72.9752 35.726 73.5445 35.5267 74.0971 35.5267C75.2691 35.5267 76.4245 36.4236 76.2738 38.2838L75.3696 37.7855C75.0682 38.7655 74.365 39.1807 73.7119 39.1807C73.4105 39.1807 73.1259 39.0977 72.9082 38.9316C72.4059 38.5662 71.8868 38.1842 71.5352 38.1842C71.418 38.1842 71.3008 38.234 71.2338 38.3336C70.9659 38.699 71.2506 39.0644 72.205 39.5295C73.8124 40.3267 74.1305 42.6188 72.0208 43.2333L71.6692 43.2665L71.4013 41.7551C71.284 41.7883 71.1668 41.8049 71.0496 41.8049C70.9492 41.8049 70.8487 41.7883 70.7482 41.7717V45.3426C70.7482 48.8804 71.9706 51.8368 73.9631 54.2119C73.9798 54.2285 73.9966 54.2451 73.9966 54.2617C74.0636 54.3447 74.1473 54.4278 74.2143 54.5108C74.231 54.5275 74.2478 54.5441 74.2645 54.5607C74.3482 54.6603 74.4319 54.7434 74.5157 54.843C74.5157 54.843 74.5157 54.8596 74.5324 54.8596C74.6161 54.9593 74.7166 55.0423 74.8003 55.142L74.8171 55.1586C74.9343 55.225 75.0347 55.3081 75.1352 55.3911C75.3361 55.5572 75.5371 55.7565 75.7045 55.989C76.9938 57.1185 78.5008 58.0652 80.1249 58.8624C80.3091 58.9621 80.4933 59.0617 80.6942 59.1448C83.3733 60.4735 87.2914 61.9185 94.1398 61.9185C100.988 61.9185 104.906 60.4735 107.585 59.1448C107.786 59.0451 107.97 58.9455 108.155 58.8624C109.762 58.0818 111.236 57.1351 112.525 56.0389C112.558 55.989 112.592 55.9392 112.625 55.8894C112.642 55.8728 112.659 55.8562 112.676 55.823C112.692 55.8063 112.709 55.7731 112.742 55.7565C112.759 55.7233 112.793 55.7067 112.809 55.6735C112.826 55.6569 112.826 55.6403 112.843 55.6403C112.876 55.607 112.91 55.5738 112.943 55.5406L112.96 55.524C112.994 55.4908 113.027 55.4576 113.061 55.4243C113.061 55.4243 113.061 55.4243 113.077 55.4077C113.111 55.3745 113.161 55.3413 113.195 55.3081C113.278 55.2416 113.362 55.1918 113.446 55.142C113.462 55.1254 113.479 55.1254 113.496 55.1088C115.991 52.5842 117.548 49.3122 117.548 45.3094V41.7883C117.448 41.8215 117.347 41.8381 117.23 41.8381C117.163 41.8381 117.046 41.8215 116.929 41.7883Z" fill="#CC0000"/>
</g>
<defs>
<clipPath id="clip0_900_7307">
<rect width="160" height="77" fill="white"/>
</clipPath>
</defs>
</svg>
