<?xml version="1.0" encoding="UTF-8"?><svg id="Layer_1" xmlns="http://www.w3.org/2000/svg" width="36" height="36" viewBox="0 0 36 36"><path d="m17.98,0C8.05,0,0,8.06,0,18s8.05,18,17.98,18,18.02-8.06,18.02-18S27.94,0,17.98,0Zm.02,34c-8.82,0-16-7.18-16-16S9.18,2,18,2s16,7.18,16,16-7.18,16-16,16Z"/><path d="m18,4c-7.72,0-14,6.28-14,14s6.28,14,14,14,14-6.28,14-14-6.28-14-14-14Zm9,19.49c-.27.48-.88.66-1.36.39l-8.13-4.51c-.32-.18-.51-.51-.51-.87V7.49c0-.55.45-1,1-1h0c.55,0,1,.45,1,1v10.41l7.61,4.23c.48.27.66.88.39,1.36Z"/></svg>