<?xml version="1.0" encoding="UTF-8"?><svg id="Layer_1" xmlns="http://www.w3.org/2000/svg" width="36" height="36" viewBox="0 0 36 36"><path d="m32,4v5H4V3.98c0-.55.45-1,1-1h4v2.03c0,.55.44.99.99.99h0c.54,0,.99-.44.99-.99l.02-4.02c0-.55.45-1,1-1h0c.55,0,1,.45,1,1v1.98l9,.02v2.01c0,.55.44.99.99.99h.02c.55,0,.99-.44.99-.99V1c0-.55.45-1,1-1h0c.55,0,1,.45,1,1v2s5,0,5,0c.55,0,1,.45,1,1ZM4,11h28v20c0,3.21-1.79,5-4,5H8c-2.21,0-4-1.79-4-4V11Zm12,19.5c0-.83-.67-1.5-1.5-1.5s-1.5.67-1.5,1.5.67,1.5,1.5,1.5,1.5-.67,1.5-1.5Zm7.01-11.5h-9.99l-.02,8.97c.69-.44,1.57-.62,2.5-.33.88.27,1.6.97,1.91,1.83.34.94.18,1.82-.23,2.53h2.98c.78,0,1.43-.6,1.49-1.38l1.36-11.62Zm-11.01-3c0,.55.45,1,1,1l11.02-.02c.54,0,.98-.44.98-.99s-.44-.99-.99-.99h-.95c0-.55-.45-1-1-1h-8.03c-.56,0-1.03.44-1.03,1h0c-.55,0-1,.45-1,1h0Z"/></svg>