<?xml version="1.0" encoding="UTF-8"?><svg id="Layer_1" xmlns="http://www.w3.org/2000/svg" width="36" height="36" viewBox="0 0 36 36"><path d="m20.53,22H1.47c-.81,0-1.47.66-1.47,1.47v11.06c0,.81.66,1.47,1.47,1.47h18.52c1.11,0,2-.9,2-2v-10.53c0-.81-.66-1.47-1.47-1.47Zm-13.02,3.07c.96,0,1.74.78,1.74,1.75s-.78,1.75-1.74,1.75-1.74-.78-1.74-1.75.78-1.75,1.74-1.75Zm2.49,6.93h-5c-.53,0-.95-.41-.99-.93.08-1.12,2.34-1.69,3.49-1.69s3.41.57,3.49,1.69c-.04.52-.46.93-.99.93Zm7-1c0,.55-.45,1-1,1h-2c-.55,0-1-.45-1-1h0c0-.55.45-1,1-1h2c.55,0,1,.45,1,1h0Zm1-4c0,.55-.45,1-1,1h-3c-.55,0-1-.45-1-1h0c0-.55.45-1,1-1h3c.55,0,1,.45,1,1h0Zm9-18h-11v-2h11v2Zm9,22h0c0,.55-.45,1-1,1h-11v-2h11c.55,0,1,.45,1,1ZM22,1c0-.55.45-1,1-1h6c.55,0,1,.45,1,1s-.45,1-1,1h-2v3h-2v-3h-2c-.55,0-1-.45-1-1Zm5,15h-11v-5h11v5Zm-3,7c0-1.66-1.34-3-3-3h-11v-11c0-1.1.9-2,2-2h2v10c0,.55.45,1,1,1h13c.55,0,1-.45,1-1V7h2c1.1,0,2,.9,2,2v19h-9v-5Z"/></svg>