<?xml version="1.0" encoding="UTF-8"?><svg id="Layer_1" xmlns="http://www.w3.org/2000/svg" width="36" height="36" viewBox="0 0 36 36"><path d="m35.29,12h-1.51l-2.11-5.93c-.6-1.83-2.31-3.06-4.26-3.07H8.7c-1.94.11-3.65,1.34-4.25,3.15l-2.16,5.85s-.02,0-.03,0H.71C.32,12,0,12.42,0,12.94v1.06C0,14.55.45,15,1,15h.18S0,17.21,0,18.01v14.39C0,33.28.72,34,1.61,34h2.79c.89,0,1.61-.72,1.61-1.61v-3.39h24v3.39c0,.89.72,1.61,1.61,1.61h2.79c.89,0,1.61-.72,1.61-1.61v-14.39c0-.78-1.15-3.01-1.15-3.01h.14c.55,0,1-.45,1-1v-1.06c0-.52-.32-.94-.71-.94ZM6.5,25c-1.38,0-2.5-1.11-2.5-2.47s1.12-2.47,2.5-2.47,2.5,1.11,2.5,2.47-1.12,2.47-2.5,2.47Zm15.51-1.01h-8.01c-.55,0-.99-.45-.99-.99h0c0-.55.45-.99.99-.99h8.01c.55,0,.99.45.99.99h0c0,.55-.45.99-.99.99Zm7.49.94c-1.37,0-2.49-1.1-2.49-2.46s1.12-2.46,2.49-2.46,2.49,1.1,2.49,2.46-1.12,2.46-2.49,2.46ZM3.31,15l3.01-8.15v-.03s.02-.03.02-.03c.33-.99,1.3-1.71,2.42-1.78h18.64c1.08,0,2.04.69,2.38,1.74l2.94,8.26H3.31Z"/></svg>