<?xml version="1.0" encoding="UTF-8"?><svg id="Layer_1" xmlns="http://www.w3.org/2000/svg" width="36" height="36" viewBox="0 0 36 36"><path d="m34.44,33.23c-1.92,1.29-4.29.93-5.89-.89-.35-.4-.62-.86-.86-1.34h4.3c.55,0,1-.45,1-1s-.45-1-1-1h-4.92c-.09-.66-.1-1.34,0-2h4.93c.55,0,1-.45,1-1s-.45-1-1-1h-4.31c.22-.44.47-.87.79-1.26,1.58-1.88,4.03-2.28,5.96-.98.46.31,1.08.19,1.39-.27.31-.46.19-1.08-.27-1.39-2.81-1.89-6.35-1.34-8.61,1.35-.63.75-1.11,1.62-1.43,2.54h-1.52c-.55,0-1,.45-1,1s.45,1,1,1h1.08c-.07.66-.07,1.34,0,2h-1.07c-.55,0-1,.45-1,1s.45,1,1,1h1.52c.34.97.85,1.88,1.53,2.66,1.35,1.54,3.14,2.35,4.96,2.35,1.22,0,2.45-.36,3.56-1.11.46-.31.58-.93.27-1.39-.31-.46-.93-.58-1.39-.27Z"/><path d="m26.98,3h-4.98V.99C22.01.44,21.57,0,21.02,0h-.03C20.45,0,20.01.44,20,.99v4.01c0,.55-.45,1-1,1h0c-.55,0-1-.45-1-1v-1.99l-10-.02V.99C8.01.44,7.56,0,7.02,0h0C6.47,0,6.03.44,6.03.99l-.02,4.02c0,.55-.45.99-1,.99h0c-.55,0-1-.45-1-1v-2H1.02C.47,3,.02,3.45.02,4v6s27.96,0,27.96,0V4c0-.55-.45-1-1-1Z"/><path d="m24.21,32.99h-.21c-1.65,0-2.99-1.33-3-2.98h-1c-.55,0-1-.45-1-1h0c0-.55.45-1,1-1h.99s0-1.25,0-2.02.29-1.45.76-1.98h-1.76c-.55,0-1-.45-1-1h0c0-.55.45-1,1-1h2c.55,0,1,.45,1,1v-.02c.31-.11,1.2,0,1.2,0,.34-.66.74-1.27,1.21-1.83.62-.74,1.32-1.34,2.08-1.83l.49-.86v-6.48S.01,12,.01,12v19.99c-.02,1.18,1.77,4,3.97,4h20c.18,0,.37-.02.54-.06.71-.15,1.02-1.01.59-1.59-.35-.47-.73-1-.91-1.35Zm-4.2-16.97h2c.55,0,1,.45,1,1h0c0,.55-.45,1-1,1h-2c-.55,0-1-.45-1-1h0c0-.55.45-1,1-1Zm-7,0h2c.55,0,1,.45,1,1h0c0,.55-.45,1-1,1h-2c-.55,0-1-.45-1-1h0c0-.55.45-1,1-1Zm0,6h2c.55,0,1,.45,1,1h0c0,.55-.45,1-1,1h-2c-.55,0-1-.45-1-1h0c0-.55.45-1,1-1Zm-4,7c0,.55-.45,1-1,1h-2c-.55,0-1-.45-1-1h0c0-.55.45-1,1-1h2c.55,0,1,.45,1,1h0Zm0-6c0,.55-.45,1-1,1h-2c-.55,0-1-.45-1-1h0c0-.55.45-1,1-1h2c.55,0,1,.45,1,1h0Zm0-6c0,.55-.45,1-1,1h-2c-.55,0-1-.45-1-1h0c0-.55.45-1,1-1h2c.55,0,1,.45,1,1h0Zm3.71,14.46l-1.39-1.19c-.43-.37-.45-1.02-.05-1.41h0c.38-.37.98-.37,1.36,0l.74.74,2.5-2.5c.38-.38,1-.38,1.38,0h0c.39.39.38,1.03-.03,1.41l-3.23,2.95c-.36.33-.91.34-1.28.02Z"/></svg>