<?xml version="1.0" encoding="UTF-8"?>
<svg id="Layer_1" xmlns="http://www.w3.org/2000/svg" width="36" height="36" viewBox="0 0 36 36">
  <path d="M7.8,4.14c4.13,3.11,8.57,9.41,10.2,12.79v8.93c0-.19-.07.02-.23.49-.85,2.51-4.17,12.29-11.77,4.47-4-4.12-2.15-8.23,5.13-9.48-4.17.71-8.85-.46-10.13-5.07-.37-1.33-1-9.49-1-10.59C0,.16,4.83,1.9,7.8,4.14ZM28.2,4.14c-4.13,3.11-8.57,9.41-10.2,12.79v8.93c0-.19.07.02.23.49.85,2.51,4.17,12.29,11.77,4.47,4-4.12,2.15-8.23-5.13-9.48,4.17.71,8.85-.46,10.13-5.07.37-1.33,1-9.49,1-10.59,0-5.52-4.83-3.79-7.8-1.54Z"/>
</svg>