<?xml version="1.0" encoding="UTF-8"?>
<svg id="a" data-name="Layer 1" xmlns="http://www.w3.org/2000/svg" width="20" height="20" viewBox="0 0 20 20">
  <path d="M10.01,20.06h-6c-.55,0-1-.45-1-1s.45-1,1-1h6c.55,0,1,.45,1,1s-.45,1-1,1Z"/>
  <path d="M7.01,20.06c-.55,0-1-.45-1-1v-11H1.01c-.4,0-.77-.24-.92-.62-.15-.37-.07-.8.22-1.09L6.31.36c.29-.29.72-.37,1.09-.22.37.15.62.52.62.92v5h11c.55,0,1,.45,1,1s-.45,1-1,1h-11v11c0,.55-.45,1-1,1ZM3.43,6.06h2.59v-2.59l-2.59,2.59Z"/>
  <path d="M17.01,8.06c-.17,0-.35-.05-.51-.14L6.5,1.92c-.47-.28-.63-.9-.34-1.37.28-.47.9-.63,1.37-.34l10,6c.47.28.63.9.34,1.37-.19.31-.52.49-.86.49Z"/>
  <path d="M15.01,16.06c-1.65,0-3-1.35-3-3,0-.55.45-1,1-1s1,.45,1,1,.45,1,1,1,1-.45,1-1-.45-1-1-1-1-.45-1-1v-4c0-.55.45-1,1-1s1,.45,1,1v3.17c1.16.41,2,1.52,2,2.83,0,1.65-1.35,3-3,3Z"/>
</svg>