<?xml version="1.0" encoding="UTF-8"?>
<svg id="a" data-name="Layer 1" xmlns="http://www.w3.org/2000/svg" width="36" height="36" viewBox="0 0 36 36">
  <path d="M26.49,16.17l-.76.8c-.39.41-1.06.41-1.45,0l-.76-.8-.16-.17c-.33-.35-.46-.88-.24-1.31.35-.71,1.2-.81,1.69-.3l.2.21.2-.21c.49-.51,1.34-.42,1.69.3.21.43.09.96-.24,1.31l-.16.17ZM19.13,5.74c-.91-3.43,2.14-6.48,5.57-5.57,1.51.4,2.72,1.62,3.12,3.12.91,3.43-2.14,6.48-5.57,5.57-1.51-.4-2.72-1.62-3.12-3.12ZM21.04,3.89c-.45,1.86,1.19,3.51,3.06,3.06.88-.21,1.6-.93,1.81-1.81.45-1.86-1.19-3.51-3.06-3.06-.88.21-1.6.93-1.81,1.81ZM8.16,5.74C7.25,2.31,10.31-.74,13.73.17c1.51.4,2.72,1.62,3.12,3.12.91,3.43-2.14,6.48-5.57,5.57-1.51-.4-2.72-1.62-3.12-3.12ZM10.07,3.89c-.45,1.86,1.19,3.51,3.06,3.06.88-.21,1.6-.93,1.81-1.81.45-1.86-1.19-3.51-3.06-3.06-.88.21-1.6.93-1.81,1.81ZM27,10.02H9c-2.21,0-4,1.8-4,4.01l.03,9c0,1.1.89,1.98,1.99,1.98h.97v10c0,.55.45,1,1,1h0c.55,0,1-.45,1-1v-11.99h-3l-.03-9c0-1.1.9-2,2-2h18.04c1.1,0,2,.89,2,2v9h-3v11.99c0,.55.45,1,1,1h0c.55,0,1-.45,1-1v-10h1c1.11,0,2-.9,2-2v-8.99c0-2.21-1.79-4-4-4ZM19,35v-18.99c0-.55-.45-1-1-1s-1,.45-1,1v18.99c0,.55.45,1,1,1s1-.45,1-1Z"/>
</svg>