<?xml version="1.0" encoding="UTF-8"?><svg id="Layer_1" xmlns="http://www.w3.org/2000/svg" width="14" height="14" xmlns:xlink="http://www.w3.org/1999/xlink" viewBox="0 0 14 14"><defs><clipPath id="clippath"><rect y="0" width="14" height="14" style="fill:none; stroke-width:0px;"/></clipPath></defs><g style="clip-path:url(#clippath);"><path d="m13.71,1.71c.39-.39.39-1.02,0-1.41-.39-.39-1.02-.39-1.41,0l-5.29,5.29L1.71.29C1.32-.1.68-.1.29.29-.1.68-.1,1.32.29,1.71l5.29,5.29L.29,12.29c-.39.39-.39,1.02,0,1.41.39.39,1.02.39,1.41,0l5.29-5.29,5.29,5.29c.39.39,1.02.39,1.41,0,.39-.39.39-1.02,0-1.41l-5.29-5.29L13.71,1.71Z" style="fill-rule:evenodd; stroke-width:0px;"/></g></svg>