<?xml version="1.0" encoding="UTF-8"?>
<svg id="a" data-name="Layer 1" xmlns="http://www.w3.org/2000/svg" width="20" height="20" viewBox="0 0 20 20">
  <path d="M16.81,9.5h-1.25c0-1.23-.99-2.22-2.22-2.22H3.33c-1.23,0-2.22.99-2.22,2.22v2.64c0,1.78.75,3.7,1.96,5.14h-1.96c-.61,0-1.11.5-1.11,1.11s.5,1.11,1.11,1.11h14.44c.61,0,1.11-.5,1.11-1.11s-.5-1.11-1.11-1.11h-1.89c.29-.35.56-.72.8-1.12.02,0,.04.01.05.01h2.29c1.76,0,3.19-1.37,3.19-3.06v-.56c0-1.69-1.43-3.06-3.19-3.06ZM13.33,12.14c0,2.26-1.89,5.14-4.02,5.14h-1.95c-2.13,0-4.02-2.87-4.02-5.14v-2.64h10v2.64ZM17.78,13.11c0,.46-.44.83-.97.83h-1.49c.16-.6.24-1.21.24-1.8v-.42h1.25c.54,0,.97.37.97.83v.56Z"/>
  <path d="M6.03,6.49c-.2,0-.41-.06-.59-.19-.91-.65-1.44-1.71-1.42-2.83-.02-1.08.51-2.13,1.42-2.79.45-.33,1.08-.22,1.4.23.32.45.22,1.08-.23,1.4-.37.27-.59.7-.58,1.16,0,.5.21.93.58,1.2.45.32.55.95.23,1.4-.2.27-.5.42-.82.42Z"/>
  <path d="M10.03,6.47c-.2,0-.41-.06-.59-.19-.91-.65-1.44-1.71-1.42-2.83-.02-1.08.51-2.13,1.42-2.79.45-.33,1.08-.22,1.4.23.32.45.22,1.08-.23,1.4-.37.27-.59.7-.58,1.16,0,.5.21.93.58,1.2.45.32.55.95.23,1.4-.2.27-.5.42-.82.42Z"/>
</svg>