<?xml version="1.0" encoding="UTF-8"?><svg id="Layer_1" xmlns="http://www.w3.org/2000/svg" width="36" height="36" viewBox="0 0 36 36"><path d="m15.87,35.18c-.21.51-.65.82-1.16.82H1.25c-.51,0-.95-.31-1.16-.82-.18-.44-.08-.94.16-1.35.9-1.48,1.4-2.62,1.49-3.39.08-.76.14-.69.19-1.38.13-1.7.25-4.34.74-5.47.47-1.08,4.19-3,4.19-3l-1.86-3.85c-.31-.47.49-.93,1.16-.66l.94.37c.63.25,1.35.38,2.08.38h.82c.6,0,.99.41.72.77l-1.25,3s3.32,1.89,3.81,3c.5,1.13.61,3.77.74,5.47.05.69.11.62.19,1.38.09.77.59,1.9,1.49,3.39.25.4.34.91.16,1.35Zm11.13-23.18h-11v7h11v-7Zm-14.44,4.3c.35.7.32,1.52-.05,2.2l-.53,1.27c1.37.9,2.68,1.98,3.14,3.01.51,1.17.68,2.97.84,5.21h17.05V9c0-1.1-.9-2-2-2h-2v13c0,.55-.45,1-1,1h-13c-.55,0-1-.45-1-1V7h-2c-1.1,0-2,.9-2,2v5.82c1.13,0,2.11.57,2.56,1.48Zm22.44,14.7h-18.54c.17.4.46.98.95,1.79.04.07.06.14.1.21h17.49c.55,0,1-.45,1-1h0c0-.55-.45-1-1-1ZM23,2h2v3h2v-3h2c.55,0,1-.45,1-1s-.45-1-1-1h-6c-.55,0-1,.45-1,1s.45,1,1,1Zm4,5h-11v3h11v-3Z"/></svg>