<?xml version="1.0" encoding="UTF-8"?><svg id="Layer_1" xmlns="http://www.w3.org/2000/svg" width="36" height="36" viewBox="0 0 36 36"><rect x="23.02" y="32.03" width="18.98" height="2"/><path d="m.53,32.01h3.7v3.5l-3.7-3.5Zm13.23-14H3.7c-.58,0-1.06.45-1.06,1v.5h10.58s0,14,0,14h.54c.58,0,1.04-.44,1.04-.99v-13.52c0-.55-.47-1-1.06-1Zm-2.12,4v13.02c0,.54-.47.98-1.04.98l-4.78-.03v-4.49c0-.55-.47-1-1.05-1H0v-8.49c0-.55.47-1,1.06-1h9.52c.58,0,1.06.45,1.06,1Zm-4.76,5.5H2.12v1h4.76v-1Zm2.65-2H2.12v1h7.41v-1Zm0-2H2.12v1h7.41v-1Z"/><path d="m22.66,4.11h0V1.51C22.66.67,21.96,0,21.1,0h-3.07c-.88,0-1.59.68-1.59,1.54v2.57h0c-5.71,0-10.34,4.63-10.34,10.34v1.39h7.89c1.65,0,3,1.32,3,2.94v11.14h15.95v-15.01c0-5.96-4.33-10.79-10.29-10.79Zm-4.15-2.07h2.05v2.07h-2.05v-2.07Zm-5.52,11.97v-5h13v5h-13Z"/></svg>