<?xml version="1.0" encoding="UTF-8"?><svg id="Layer_1" xmlns="http://www.w3.org/2000/svg" width="36" height="36" viewBox="0 0 36 36"><path d="m4,28v-6c0-.55.45-1,1-1h3.96v-2c-.2-1.73-1.36-3.16-2.96-3.72V6c0-.55-.45-1-1-1h-1c-.55,0-1,.45-1,1v9.28c-1.59.57-2.81,1.99-3,3.72v16c0,.55.45,1,1,1h7c.55,0,1-.45,1-1l-.02-6h-3.98c-.55,0-1-.45-1-1ZM23,1c0-.55.45-1,1-1h6c.55,0,1,.45,1,1s-.45,1-1,1h-2v3h-2v-3h-2c-.55,0-1-.45-1-1Zm-12,26h23V9c0-1.1-.9-2-2-2H12c-1.1,0-2,.9-2,2v6.69c.63.95,1,2.09,1,3.31v8Zm17-15c1.1,0,2,.9,2,2s-.9,2-2,2-2-.9-2-2,.9-2,2-2Zm-6,0c1.1,0,2,.9,2,2s-.9,2-2,2-2-.9-2-2,.9-2,2-2Zm-6,0c1.1,0,2,.9,2,2s-.9,2-2,2-2-.9-2-2,.9-2,2-2Zm20,19h0c0,.55-.45,1-1,1H11v-2h24c.55,0,1,.45,1,1Z"/></svg>