<?xml version="1.0" encoding="UTF-8"?><svg id="Layer_1" xmlns="http://www.w3.org/2000/svg" width="36" height="36" viewBox="0 0 36 36"><path d="m23.1,26l-10.36.02c-2.68.15-4.73,2.26-4.73,4.96l-.02,5.02h20.02v-5.02c0-2.77-2.14-4.92-4.9-4.98Zm-11.91-10.63l.12.03c.56.13,1.12.2,1.65.2,2.06,0,4.08-.86,5.53-2.36l1.6-1.58,1.37,1.36c.84.94,1.87,1.64,3.06,2.09l.22.08-.07-.23c-.89-2.92-3.64-4.96-6.69-4.96s-5.97,2.16-6.77,5.25l-.03.11Zm-.18,2.06v.16c.31,3.6,3.37,6.41,6.98,6.41s6.75-2.89,6.97-6.58v-.1s-.65-.13-.65-.13c-1.61-.54-3.04-1.5-4.14-2.77l-.09-.1-.09.1c-1.79,2.06-4.35,3.24-7.03,3.24-.58,0-1.19-.07-1.8-.19l-.15-.03Z"/><path d="m36,8.03h0c0,.7-.95,1.17-1.78.88L18,2.91,1.78,8.91c-.83.3-1.78-.17-1.78-.88h0c0-.38.29-.72.73-.88L16.84,1.2c.74-.26,1.58-.26,2.32,0l16.11,5.96c.45.16.73.5.73.88Z"/></svg>