<?xml version="1.0" encoding="UTF-8"?><svg id="Layer_1" xmlns="http://www.w3.org/2000/svg" width="36" height="36" viewBox="0 0 36 36">
  <path class="cls-1" d="M21.62,28.92v-11.61c0-2.14,1.74-3.88,3.88-3.88h4.3v-1.39c0-1.65-1.33-2.98-2.98-2.98H5.97c-1.65,0-2.98,1.33-2.98,2.98v13.9c0,1.47,1.41,2.87,2.82,2.98h1.97v-3.28c0-1.46,1.05-2.58,2.44-2.67h3.64c1.43.03,2.53,1.18,2.53,2.67v2.53s0,.72,0,.72l5.23.03ZM12.08,20.96c-1.42,0-2.58-1.15-2.58-2.58s1.15-2.58,2.58-2.58,2.58,1.16,2.58,2.58-1.16,2.58-2.58,2.58Z"/>
  <path class="cls-1" d="M29.62,28.36c-.14,0-.29-.03-.43-.1-.49-.24-.7-.83-.46-1.33l.64-1.33h-2.28s2.13-4.28,2.13-4.28c.24-.49.84-.69,1.33-.45.49.24.69.84.45,1.33l-.7,1.41h2.24s-2.02,4.18-2.02,4.18c-.17.35-.53.56-.89.56Z"/>
  <path class="cls-1" d="M34.11,15.41h-8.6c-1.05,0-1.89.85-1.89,1.89v13.32H5.96s-4.96,2.05-4.97,2.05c-.58.21-.99.76-.99,1.41v1.5h24.34c.32.25.72.41,1.17.41h8.6c1.05,0,1.89-.85,1.89-1.89v-16.8c0-1.05-.85-1.89-1.89-1.89ZM29.8,34.74c-.62,0-1.11-.5-1.11-1.11s.5-1.11,1.11-1.11,1.11.5,1.11,1.11-.5,1.11-1.11,1.11ZM34.01,31.39h-8.42v-14h8.42v14Z"/>
  <path class="cls-1" d="M18.65,8.7c-.17,0-.33-.04-.49-.11-.57-.27-.8-.95-.53-1.52l.73-1.52h-2.62s2.45-4.91,2.45-4.91c.28-.57.96-.79,1.53-.51.56.28.79.96.51,1.53l-.8,1.62h2.57s-2.32,4.79-2.32,4.79c-.2.41-.6.64-1.03.64Z"/>
  <path class="cls-1" d="M13.95,7.65c-.34,0-.68-.15-.91-.45l-1.01-1.32c-.38-.5-.29-1.21.21-1.6.5-.38,1.21-.29,1.6.21l1.01,1.32c.38.5.29,1.21-.21,1.6-.21.16-.45.23-.69.23Z"/>
</svg>