<?xml version="1.0" encoding="UTF-8"?><svg id="Layer_1" xmlns="http://www.w3.org/2000/svg" width="36" height="36" viewBox="0 0 36 36"><path d="m4,27h9v9h-.06l-8.94-8.97v-.03ZM30,0H9.97c-1.09,0-1.97.88-1.97,1.97v.03h18c2.21,0,4,1.79,4,4v26h.02c1.09,0,1.98-.89,1.98-1.98V2c0-1.1-.9-2-2-2Zm-2,5.97v28.04c0,1.1-.89,1.99-1.99,1.99h-11.01v-9.08c0-1.06-.86-1.92-1.92-1.92H4V5.97c0-1.09.88-1.97,1.97-1.97h20.05c1.09,0,1.97.88,1.97,1.97Zm-10,13.03c0-.55-.45-1-1-1h-8c-.55,0-1,.45-1,1s.45,1,1,1h8c.55,0,1-.45,1-1Zm6-4.04c0-.55-.45-1-1-1l-14.01.04c-.55,0-1,.45-1,1v.04c0,.55.45,1,1,1l14.01-.04c.55,0,1-.45,1-1v-.04Zm0-3.96c0-.55-.45-1-1-1h-14.01c-.55,0-1,.45-1,1s.45,1,1,1h14.01c.55,0,1-.45,1-1Z"/></svg>