<?xml version="1.0" encoding="UTF-8"?><svg id="Layer_1" xmlns="http://www.w3.org/2000/svg" width="36" height="36" viewBox="0 0 36 36"><path d="m33,34.99h-6v-13.09h7v12.09c0,.56-.45,1.01-1,1.01Zm-8,0h-14v-13.09h14v13.09Zm-16,0H3c-.55,0-1-.45-1-1v-12.09h7v13.09Zm27-16.11c0,.56-.45,1.01-1,1.01h-6.5l-.16-.15c-.86-.8-5.33-4.88-7.99-10.43l-1.1-2.51,1.99,1.86c3.03,2.83,8.45,7.05,14.37,9.04l.39.13v1.05Zm-10.75,1.01h-14.43l.85-1.02c1.6-1.91,4.32-5.38,5.81-8.87l.51-1.18.51,1.18c1.5,3.47,4.29,6.95,5.89,8.87l.85,1.02Zm-17.76,0H1c-.55,0-1-.45-1-1.01v-1.05l.39-.13c5.92-1.99,11.27-6.2,14.29-9.02l1.98-1.85-1.08,2.49c-2.57,5.53-7.72,10.23-7.92,10.42l-.16.14ZM19.24,1.03c-.63-.16-1.24.32-1.24.98v1.65c0,.77.75,1.31,1.47,1.07l3.44-1.06c1.02-.24,1.03-1.15.01-1.41l-3.68-1.22Z"/></svg>