<?xml version="1.0" encoding="UTF-8"?><svg id="Layer_1" xmlns="http://www.w3.org/2000/svg" width="36" height="36" viewBox="0 0 36 36"><path d="m29,14.44c-.25,0-.49.03-.73.06l-1.87-7.38c-.26-.8-.83-2.67-2.92-2.68h-.49c-.55,0-1,.45-1,1,0,.55.45,1,1,1h.48c.24-.01.59,0,.99,1.22l.24.94-11.6,1.52-.9-1.68h.78c.55,0,1-.45,1-1s-.45-1-1-1h-4.05c-.55,0-1,.45-1,1s.45,1,1,1h.98l1.39,2.6-5.21,9.94c-.16.31-.15.68.03.98.18.3.51.48.86.48h4.9c-.68,3.31-4.63,5.43-8.31,2.83-.2-.14-.38-.32-.51-.52-2.57-3.8-.21-7.92,3.41-8.29.55-.06.95-.55.89-1.1s-.54-.94-1.1-.89c-5.07.51-8.38,6.3-4.76,11.63.18.27.42.51.69.7,5.31,3.76,11,.49,11.7-4.36h4.06c.34,0,.66-.17.84-.46l6.64-10.41,2.56,10.12c.11.45.52.75.97.75.08,0,.17,0,.25-.03.54-.14.86-.68.72-1.21l-1.2-4.75h0c3.95-.18,6.96,4.25,4.1,8.35-.13.19-.31.37-.5.5-4.99,3.48-10.46-1.71-7.56-6.72.09-.16.24-.27.38-.39.47-.4.47-1.11.02-1.51-.41-.37-1.04-.33-1.41.08-2.36,2.62-2.56,6.81.41,9.95.17.18.37.34.58.47,5.49,3.38,11.22-.52,11.22-5.74,0-3.86-3.14-7-7-7Zm-15.97,6.01s-.02,0-.03,0-.02,0-.03,0h-4.32l3.81-7.27,3.87,7.27h-3.31Zm5.04-.99l-3.97-7.44,9.51-1.25-5.54,8.69Z"/></svg>