<?xml version="1.0" encoding="UTF-8"?><svg id="Layer_1" xmlns="http://www.w3.org/2000/svg" width="36" height="36" viewBox="0 0 36 36"><path d="m35,17.02c.55,0,1-.45,1-1v-6.95h0v-1.04c0-.55-.45-1-1-1h-3.01l-1.69-2.55c-.18-.28-.5-.45-.83-.45l-22.93-.04c-.34,0-.65.17-.84.45l-1.72,2.59H1c-.55,0-1,.45-1,1s.45,1,1,1h1v20.97h-1c-.55,0-1,.45-1,1s.45,1,1,1h34c.55,0,1-.45,1-1s-.45-1-1-1h-1v-12.98h1Zm-9-2v12.98h5c.55,0,1,.45,1,1s-.45,1-1,1H5c-.55,0-1-.45-1-1s.45-1,1-1h10v-7.99c0-.55.45-1,1-1h4c.55,0,1,.45,1,1v7.99h3V8.97h0c0-.55.45-1,1-1s1,.45,1,1l1,.06h7v5.99h-8Zm-14-2v1c0,.55-.45,1-1,1h-2c-.55,0-1-.45-1-1v-1c0-.55.45-1,1-1h2c.55,0,1,.45,1,1Zm8,0v1c0,.55-.45,1-1,1h-2c-.55,0-1-.45-1-1v-1c0-.55.45-1,1-1h2c.55,0,1,.45,1,1Zm-8,7.99v1c0,.55-.45,1-1,1h-2c-.55,0-1-.45-1-1v-1c0-.55.45-1,1-1h2c.55,0,1,.45,1,1Z"/></svg>