<?xml version="1.0" encoding="UTF-8"?><svg id="Layer_1" xmlns="http://www.w3.org/2000/svg" width="36" height="36" viewBox="0 0 36 36"><path d="m4.05,8c-.36.03-.7-.14-.91-.44L.49,3.71c-.29-.42-.24-1,.11-1.36l1.69-1.74c.35-.36.91-.41,1.32-.12l3.79,2.73c.28.2.44.53.44.88l-.02,2.3,6.37,6.63-1.45,1.5-6.51-6.68-2.17.15Zm29.88,21.67c1.41,1.45,1.41,3.79,0,5.24-.7.72-1.63,1.09-2.55,1.09s-1.85-.36-2.55-1.09l-11.32-11.63,5.1-5.24,11.32,11.63Zm-1.45,1.54l-9.81-10.08-2.19,2.25,9.81,10.08c.29.3.68.47,1.09.47s.8-.17,1.09-.47c.6-.62.6-1.63,0-2.24Zm-2.62-14.67l-4.35-4.47L4.23,33.7c-.71.73-1.77.81-2.48.08l-1.22-1.25c-.71-.73-.71-1.9,0-2.63L21.77,8.22l-4.28-4.43c-.4-.41-.4-1.08,0-1.5l1.89-1.94c.19-.2.45-.31.72-.31L25.02,0c.28,0,.54.11.74.31l9.94,10.24c.4.41.4,1.08,0,1.5l-4.37,4.49c-.4.41-1.05.41-1.46,0Zm.8-2.18l2.85-3.07L24.6,2.11l-4.05.05-.82.92,10.94,11.27Z"/></svg>