<?xml version="1.0" encoding="UTF-8"?><svg id="Layer_1" xmlns="http://www.w3.org/2000/svg" width="36" height="36" viewBox="0 0 36 36"><path d="m33.18,12.97c-1.25-3.74-3.84-6.87-7.2-8.81,0,.22-.02.44-.03.66.01.07.04.13.04.2,0,4.14,3.16,7.55,7.2,7.96Z"/><path d="m14.28,13.01c6.3,0,9.7-4.64,9.7-9v-.84c-1.85-.75-3.88-1.17-6-1.17-7.5,0-13.8,5.19-15.53,12.16.99-.72,2.2-1.15,3.52-1.15h8.31Z"/><path d="m33.71,14.99c-4.02-.11-7.45-2.59-8.94-6.09-1.77,3.43-5.43,6.11-10.49,6.11H5.97c-2.09,0-3.8,1.62-3.97,3.67.36,8.51,7.38,15.32,15.98,15.32s16.02-7.18,16.02-16c0-1.03-.11-2.03-.29-3.01Zm-20.26,2.4c.82,0,1.49.67,1.49,1.5s-.67,1.5-1.49,1.5-1.49-.67-1.49-1.5.67-1.5,1.49-1.5Zm9.99,9.43c-1.63,1.1-3.53,1.68-5.5,1.68s-3.73-.54-5.32-1.56c-.46-.3-.6-.92-.3-1.38.3-.46.92-.6,1.38-.3,2.57,1.66,6.07,1.62,8.61-.09.46-.31,1.08-.19,1.39.27.31.46.19,1.08-.27,1.39Zm-.98-6.48c-.82,0-1.49-.67-1.49-1.5s.67-1.5,1.49-1.5,1.49.67,1.49,1.5-.67,1.5-1.49,1.5Z"/></svg>