<?xml version="1.0" encoding="UTF-8"?><svg id="Layer_1" xmlns="http://www.w3.org/2000/svg" width="36" height="36" viewBox="0 0 36 36"><path d="m32.9,33.98c-.74,0-1.45-.28-1.94-.72l-15.96-16.54V6.25c0-.31-.14-.59-.37-.79L8.15.22c-.36-.3-.88-.3-1.25,0L.38,5.46C.14,5.65,0,5.94,0,6.25v28.74c0,.56.45,1.01,1,1.01h0c.55,0,1-.45,1-1.01v-15.12h11v15.12c0,.56.45,1.01,1,1.01h0c.55,0,1-.45,1-1.01v-14.96l13.88,14.4c1.1,1.01,2.53,1.56,4.02,1.56h2.1c.55,0,1-.45,1-1.01h0c0-.56-.45-1.01-1-1.01h-2.1ZM7.5,12.82c-1.66,0-3-1.35-3-3.02s1.34-3.02,3-3.02,3,1.35,3,3.02-1.34,3.02-3,3.02Zm13.5-3.02c0-1.66,1.35-3.02,3-3.02s3,1.36,3,3.02-1.35,3.02-3,3.02-3-1.36-3-3.02Zm10-1.01v.46c0,3.34-1.21,5.99-4,6.6l-.02,9.07-5.66-5.75c-.19-.19-.29-.45-.29-.72v-1.21c.01-1.65,1.24-2.93,2.85-3.02h.07c3.19,0,5.02-1.8,5.02-4.92v-.5h.04c0-.56.45-1.01,1-1.01s1,.45,1,1.01h0Z"/></svg>