<?xml version="1.0" encoding="UTF-8"?><svg id="Layer_1" xmlns="http://www.w3.org/2000/svg" width="36.04" height="35.89" viewBox="0 0 36.04 35.89"><path d="m12,36h-7c-.55,0-1-.45-1-1v-7c0-.55.45-1,1-1h7v9Zm10,0h-8v-19c0-.55.45-1,1-1h6c.55,0,1,.45,1,1v19Zm9,0h-7v-14h7c.55,0,1,.45,1,1v12c0,.55-.45,1-1,1ZM22,0h4c.55,0,1,.45,1,1v4c0,.55-.45,1-1,1h0c-.55,0-1-.45-1-1v-1.59l-5.07,5.07c-.39.39-1.02.39-1.41,0l-2.83-2.83-7.07,7.07c-.39.39-1.02.39-1.41,0h0c-.39-.39-.39-1.02,0-1.41l7.74-7.74c.39-.39,1.01-.39,1.4-.01l2.82,2.73,4.41-4.3h-1.57c-.55,0-1-.45-1-1h0c0-.55.45-1,1-1Z"/></svg>