<?xml version="1.0" encoding="UTF-8"?>
<svg id="a" data-name="Layer 1" xmlns="http://www.w3.org/2000/svg" width="20" height="20" viewBox="0 0 20 20">
  <path d="M10,11h-3C3.14,11,0,7.86,0,4v-2c0-.55.45-1,1-1h3c3.86,0,7,3.14,7,7,0,.54-.43.98-.97,1,.54.02.97.46.97,1s-.45,1-1,1ZM2,3v1c0,2.76,2.24,5,5,5h2.96c-.53-.02-.96-.46-.96-1,0-2.76-2.24-5-5-5h-2Z"/>
  <path d="M13,14h-3c-.55,0-1-.45-1-1,0-.18.05-.35.13-.5-.08-.15-.13-.32-.13-.5,0-3.86,3.14-7,7-7h3c.55,0,1,.45,1,1v1c0,3.86-3.14,7-7,7ZM11,12h2c2.76,0,5-2.24,5-5h-2c-2.76,0-5,2.24-5,5Z"/>
  <path d="M10,19c-.55,0-1-.45-1-1V8c0-.55.45-1,1-1s1,.45,1,1v10c0,.55-.45,1-1,1Z"/>
</svg>