<?xml version="1.0" encoding="UTF-8"?><svg id="Layer_1" xmlns="http://www.w3.org/2000/svg" width="36" height="36" viewBox="0 0 36 36"><path d="m9.12,9h3.91c.87,0,1.71-.51,1.98-1.35.44-1.38-.58-2.65-1.89-2.65,0,0,0,0,0,0h-4.76c-.75,0-1.43.42-1.78,1.09L0,18.92l3.03,1.62,6.09-11.54Z"/><path d="m34,12q-1-2-2-2h-3.99v-3c0-1.1-.89-2-2-2h-9.49c.46.8.65,1.73.5,2.66-.31,1.91-2.05,3.34-4.05,3.34h-2.69l-5.54,10.47c-.25.47-.67.82-1.18.98-.19.06-.39.09-.59.09-.32,0-.63-.08-.91-.22v2.19c0,.83.67,1.5,1.5,1.5h1.51c-.02.17-.05.33-.05.5,0,2.48,2.02,4.5,4.49,4.5s4.49-2.02,4.49-4.5c0-.17-.03-.33-.05-.5h10.09c-.02.17-.05.33-.05.5,0,2.48,2.02,4.5,4.49,4.5s4.49-2.02,4.49-4.5c0-.17-.03-.33-.05-.5h1.05c1.1,0,2-.9,2-2v-7.76c0-.16-.04-.31-.11-.45l-1.89-3.79ZM9.56,29c-1.38,0-2.49-1.12-2.49-2.5s1.12-2.5,2.49-2.5,2.49,1.12,2.49,2.5-1.12,2.5-2.49,2.5Zm18.95,0c-1.38,0-2.49-1.12-2.49-2.5s1.12-2.5,2.49-2.5,2.49,1.12,2.49,2.5-1.12,2.5-2.49,2.5Zm5.49-12h-5.99v-5h4.03l1.96,4v1Z"/></svg>