<?xml version="1.0" encoding="UTF-8"?><svg id="Layer_1" xmlns="http://www.w3.org/2000/svg" width="18" height="14" xmlns:xlink="http://www.w3.org/1999/xlink" viewBox="0 0 18 14"><defs><clipPath id="clippath"><rect width="18" height="14" style="fill:none; stroke-width:0px;"/></clipPath></defs><g style="clip-path:url(#clippath);"><path d="m0,1C0,.45.45,0,1,0h16c.55,0,1,.45,1,1s-.45,1-1,1H1c-.55,0-1-.45-1-1Zm0,6c0-.55.45-1,1-1h16c.55,0,1,.45,1,1s-.45,1-1,1H1c-.55,0-1-.45-1-1Zm0,6c0-.55.45-1,1-1h16c.55,0,1,.45,1,1s-.45,1-1,1H1c-.55,0-1-.45-1-1Z" style="fill-rule:evenodd; stroke-width:0px;"/></g></svg>