<?xml version="1.0" encoding="UTF-8"?><svg id="Layer_1" xmlns="http://www.w3.org/2000/svg" width="36" height="36" viewBox="0 0 36 36"><rect x="-2" y="35" width="36" height="2" rx="1" ry="1"/><path d="m21,21h-1l-.97-17.49c-.02-.31-.18-.6-.44-.78l-2.03-1.56c-.34-.23-.78-.23-1.11,0l-2.03,1.56c-.26.17-.42.46-.44.78l-.97,17.49h-1c-.55,0-1,.45-1,1v2h12v-2c0-.55-.45-1-1-1Z"/><path d="m30,14l-1-1h-3v-6c0-.55-.45-1-1-1s-1,.45-1,1v19H7c-.55,0-1,.45-1,1v4H2c-.55,0-1,.45-1,1h0c0,.55.45,1,1,1h28c.55,0,1-.45,1-1h0c0-.55-.45-1-1-1h-4v-10h1.88l1.02,1,4.1-.02c.55,0,1-.45,1-1v-5.98c0-.55-.45-1-1-1h-3Zm-10,17h-8v-3h8v3Zm12-11h-2.29s-1.02-1-1.02-1h-2.7v-4h2.17l1,1h2.83v4Z"/></svg>