<?xml version="1.0" encoding="UTF-8"?><svg id="Layer_1" xmlns="http://www.w3.org/2000/svg" width="36" height="36" viewBox="0 0 36 36"><path d="m9.29,4.3c.19-.19.46-.31.76-.31.39,0,.76.22.95.56l3.28,5.97c.23.42.13.9-.17,1.19-.18.18-.42.29-.71.29h-2.73s2.49,4.52,2.49,4.52c.23.42.13.9-.17,1.19-.18.18-.42.29-.71.29h-.14c-.39,0-.76-.22-.95-.56l-3.28-5.97c-.23-.42-.13-.9.17-1.19.18-.18.42-.29.71-.29h2.73s-2.42-4.39-2.42-4.39c-.25-.45-.14-.97.19-1.29"/><path d="m32.66,19.55l-2.65-2.3v-4.27c0-.55-.44-.99-.99-.99-.54,0-.98.44-.98.99v2.54l-1.45-1.28-.1.17c-.54.98-1.57,1.59-2.69,1.6-.82,0-1.6-.31-2.18-.89-.99-.98-1.2-2.46-.53-3.67l.77-1.4-3.18-2.82c-.37-.32-.92-.32-1.29,0l-1.77,1.55.43.78c.65,1.18.44,2.62-.52,3.57-.42.41-.93.69-1.5.81l.89,1.62c.65,1.18.44,2.62-.52,3.57-.57.56-1.32.87-2.12.87h-.14c-1.12,0-2.15-.62-2.69-1.6l-1.55-2.83-4.54,3.99c-.42.36-.47.99-.1,1.41h0c.36.41.99.46,1.41.09l1.39-1.21-.02,15.15c0,.55.45,1,1,1h22.04c.54,0,.99-.44.99-.99l-.03-15.11,1.34,1.17c.41.35,1.03.31,1.39-.1l.02-.02c.36-.41.31-1.04-.1-1.39Zm-10.63,8.46c0,.54-.44.99-.99.99h-6.03c-.55,0-1-.45-1-1v-4.01c0-.55.45-1,1-1h6.03c.54,0,.99.44.99.99v4.03Z"/><path d="m22.52,8.01h2.73s-2.42,4.39-2.42,4.39c-.25.45-.14.97.19,1.29.19.19.46.31.76.31.39,0,.76-.22.95-.56l3.28-5.97c.23-.42.13-.9-.17-1.19-.18-.18-.42-.29-.71-.29h-2.73s2.49-4.52,2.49-4.52c.23-.42.13-.9-.17-1.19C26.54.11,26.29,0,26.01,0h-.14c-.39,0-.76.22-.95.56l-3.28,5.97c-.23.42-.13.9.17,1.19.18.18.42.29.71.29Z"/></svg>