<?xml version="1.0" encoding="UTF-8"?><svg id="Layer_1" xmlns="http://www.w3.org/2000/svg" width="36" height="36" viewBox="0 0 36 36"><path d="m9.98,29.06c0,2.76-2.23,5-4.99,5S0,31.83,0,29.06s2.23-5,4.99-5,4.99,2.24,4.99,5Zm25.02,4.93h-3.99l-3.01-23.87c-.54-3.25-2.83-5.87-5.97-6.84-1.03-.32-10.1-2.87-11-3.09C10.02-.05,9.09,0,9.05,0,5.39,0,2.41,2.72,2.41,6.39s2.98,6.66,6.64,6.66l8.98-.03c1.1,0,1.99.9,1.99,2,0,.59-.7,1.52-.7,1.52l-2.44,3.45c-1.76-1.24-3.8-2-5.84-2H3.06c-1.69,0-3.06,1.38-3.06,3.07v3.03c1.28-1.29,3.05-2.09,5-2.09,3.89,0,7.04,3.16,7.04,7.06,0,1.5-.47,2.89-1.27,4.04h7.27c2.22,0,4.01-1.8,4.01-4.02,0-2.85-1.47-5.7-3.64-7.8l2.29-3.28c.66-.83,1.31-1.83,1.31-2.97,0-2.2-1.79-4-3.99-4l-8.98.03c-2.56,0-4.64-2.09-4.64-4.65s2.08-4.38,4.71-4.38c0,0,.73-.04,1.44.13.63.15,6.85,1.8,10.88,3.06,2.42.74,4.18,2.76,4.58,5.18l2.98,23.61h-3.98c-.55,0-1,.45-1,1s.45,1,1,1h9.98c.55,0,1-.45,1-1s-.45-1-1-1Z"/></svg>