<?xml version="1.0" encoding="UTF-8"?><svg id="Layer_1" xmlns="http://www.w3.org/2000/svg" width="36" height="36" viewBox="0 0 36 36"><path d="m17.98,0C8.05,0,0,8.06,0,18s8.05,18,17.98,18,18.02-8.06,18.02-18S27.94,0,17.98,0Zm.02,34c-8.82,0-16-7.18-16-16S9.18,2,18,2s16,7.18,16,16-7.18,16-16,16Z"/><path d="m18,4c-7.72,0-14,6.28-14,14s6.28,14,14,14,14-6.28,14-14-6.28-14-14-14Zm-1.58,4.92c.28-.28.64-.42,1.08-.42s.8.14,1.08.42.42.64.42,1.07-.14.79-.42,1.07c-.28.28-.64.42-1.08.42s-.8-.14-1.08-.42c-.28-.28-.42-.64-.42-1.07s.14-.79.42-1.07Zm4.58,18.58h-6c-.55,0-1-.45-1-1s.45-1,1-1h2v-10h-2c-.55,0-1-.45-1-1s.45-1,1-1h2.02c1.09,0,1.98.89,1.98,1.98v10.02h2c.55,0,1,.45,1,1s-.45,1-1,1Z"/></svg>