<?xml version="1.0" encoding="UTF-8"?><svg id="Layer_1" xmlns="http://www.w3.org/2000/svg" width="36" height="36" viewBox="0 0 36 36"><path d="M17.97,3.24c4.81,0,5.38,.03,7.26,.09,1.75,.09,2.69,.36,3.33,.61,.85,.33,1.45,.73,2.06,1.33,.64,.64,1.03,1.24,1.33,2.06,.24,.64,.54,1.57,.61,3.33,.09,1.91,.09,2.45,.09,7.27s-.03,5.39-.09,7.27c-.09,1.76-.36,2.69-.61,3.33-.33,.85-.73,1.45-1.33,2.06-.64,.64-1.24,1.03-2.06,1.33-.64,.24-1.57,.54-3.33,.61-1.91,.09-2.45,.09-7.26,.09s-5.38-.03-7.26-.09c-1.75-.09-2.69-.36-3.33-.61-.85-.33-1.45-.73-2.06-1.33-.64-.64-1.03-1.24-1.33-2.06-.24-.64-.54-1.57-.61-3.33-.09-1.91-.09-2.45-.09-7.27s.03-5.39,.09-7.27c.09-1.76,.36-2.69,.61-3.33,.27-.79,.67-1.39,1.3-2.03,.64-.64,1.24-1.03,2.06-1.33,.64-.24,1.57-.54,3.33-.61,1.91-.12,2.48-.12,7.29-.12Zm0-3.24c-4.87,0-5.51,.03-7.41,.12-1.91,.06-3.24,.36-4.36,.82-1.18,.45-2.21,1.06-3.21,2.06-1,1-1.6,2.03-2.06,3.21C.48,7.33,.18,8.66,.09,10.57c-.09,1.91-.09,2.54-.09,7.42s.03,5.51,.12,7.42c.09,1.91,.39,3.21,.85,4.36,.45,1.18,1.09,2.18,2.09,3.18s2,1.6,3.18,2.09c1.15,.45,2.45,.76,4.36,.85,1.91,.09,2.54,.12,7.41,.12s5.51-.03,7.41-.12c1.91-.09,3.21-.39,4.36-.85,1.18-.45,2.18-1.09,3.18-2.09,1-1,1.6-2,2.09-3.18,.45-1.15,.76-2.45,.85-4.36,.09-1.91,.12-2.54,.12-7.42s-.03-5.51-.12-7.42c-.09-1.91-.39-3.21-.85-4.36-.45-1.18-1.09-2.18-2.09-3.18-1-1-2-1.6-3.18-2.09-1.15-.45-2.45-.76-4.36-.85-1.94-.09-2.57-.09-7.44-.09Z"/><path d="M18.67,9.33c-5.17,0-9.33,4.19-9.33,9.33s4.19,9.33,9.33,9.33,9.33-4.19,9.33-9.33-4.16-9.33-9.33-9.33Zm0,15.39c-3.34,0-6.06-2.72-6.06-6.06s2.72-6.06,6.06-6.06,6.06,2.72,6.06,6.06-2.72,6.06-6.06,6.06Z"/><circle cx="28" cy="8" r="2.67"/></svg>