<?xml version="1.0" encoding="UTF-8"?><svg id="Layer_1" xmlns="http://www.w3.org/2000/svg" width="36" height="36" viewBox="0 0 36 36"><path d="m4,32c0,1.18,1.78,4,3.99,4h20.01c2.21,0,4-2.82,4-4.01V11s-27.98,0-27.98,0v21Zm20-15.02c0-.53.43-.96.96-.96h2.04c.55,0,1,.45,1,1h0c0,.55-.45,1-1,1h-2.04c-.53,0-.96-.43-.96-.96v-.07Zm0,6c0-.53.43-.96.96-.96h2.04c.55,0,1,.45,1,1h0c0,.55-.45,1-1,1h-2.04c-.53,0-.96-.43-.96-.96v-.07Zm0,6c0-.53.43-.96.96-.96h2.04c.55,0,1,.45,1,1h0c0,.55-.45,1-1,1h-2.04c-.53,0-.96-.43-.96-.96v-.07Zm-7.98-12c0-.53.43-.96.96-.96h2.04c.55,0,1,.45,1,1h0c0,.55-.45,1-1,1h-2.04c-.53,0-.96-.43-.96-.96v-.07Zm0,6c0-.53.43-.96.96-.96h2.04c.55,0,1,.45,1,1h0c0,.55-.45,1-1,1h-2.04c-.53,0-.96-.43-.96-.96v-.07Zm-.74,5.9h0c.38-.37.98-.37,1.36,0l.74.74,2.51-2.51c.38-.38.99-.38,1.36,0l.02.02c.39.39.37,1.02-.03,1.39l-3.24,2.95c-.36.33-.91.34-1.28.02l-1.39-1.19c-.43-.37-.45-1.02-.05-1.41Zm-7.29-11.9c0-.53.43-.96.96-.96h2.04c.55,0,1,.45,1,1h0c0,.55-.45,1-1,1h-2.04c-.53,0-.96-.43-.96-.96v-.07Zm0,6c0-.53.43-.96.96-.96h2.04c.55,0,1,.45,1,1h0c0,.55-.45,1-1,1h-2.04c-.53,0-.96-.43-.96-.96v-.07Zm0,6c0-.53.43-.96.96-.96h2.04c.55,0,1,.45,1,1h0c0,.55-.45,1-1,1h-2.04c-.53,0-.96-.43-.96-.96v-.07Z"/><path d="m26.02,3V.99c0-.55-.44-.99-.99-.99h-.03c-.55,0-.99.44-.99.99v4.02c0,.55-.45.99-.99.99h-.02c-.55,0-.99-.44-.99-.99v-1.99l-10.01-.02V.99c0-.55-.44-.99-.99-.99s-.99.44-.99.99l-.02,4.03c0,.54-.44.99-.99.99h-.02c-.55,0-.99-.44-.99-.99v-2.01h-2.99c-.55,0-1,.45-1,1v5s27.98,0,27.98,0v-5c0-.55-.45-1-1-1h-4.98Z"/></svg>