<?xml version="1.0" encoding="UTF-8"?><svg id="Layer_1" xmlns="http://www.w3.org/2000/svg" width="36" height="36" viewBox="0 0 36 36"><path d="m28,19h-2c0-2.76-2.24-5-5-5-.53,0-1.03-.1-1.51-.26-.92.98-1.49,2.3-1.49,3.76,0,3.03,2.47,5.5,5.5,5.5h7c3.03,0,5.5-2.47,5.5-5.5,0-1.45-.57-2.77-1.49-3.76-.48.15-.98.26-1.51.26-2.76,0-5,2.24-5,5Zm-5.5,0c-.83,0-1.5-.67-1.5-1.5s.67-1.5,1.5-1.5,1.5.67,1.5,1.5-.67,1.5-1.5,1.5Zm9-3c.83,0,1.5.67,1.5,1.5s-.67,1.5-1.5,1.5-1.5-.67-1.5-1.5.67-1.5,1.5-1.5Zm-8-4h7c.4,0,.8.05,1.18.13-1.98.38-3.67,1.61-4.68,3.28-1.01-1.68-2.69-2.9-4.68-3.28.38-.08.77-.13,1.18-.13Zm-5.79.74c-1.07,1.3-1.71,2.96-1.71,4.76v10.49c0,1.83.52,3.53,1.42,5.01H2.04c-1.13,0-2.04-.91-2.04-2.04L.02,2.95C.02,1.32,1.34,0,2.96,0h15.24c1.3,0,2.39.84,2.8,2H3c-.56,0-1,.44-1,1s.44,1,1,1c.04,0,18.48,0,18.48,0h.22c.61,0,1.19.24,1.62.67.37.37.59.84.65,1.34h.03v3.99h-.5c-1.61,0-3.09.51-4.31,1.37-.72-.55-1.19-1.4-1.19-2.37h-2c0,1.49.67,2.82,1.71,3.74Zm12.79,12.26c2.17,0,4.13-.94,5.5-2.42v13.42h-2.03c-3.29,0-5.97-2.68-5.97-5.97v-5.03h2.5Zm-1.79,11h-2.23c-4.68,0-8.48-3.59-8.48-8.01v-5.41c1.37,1.48,3.33,2.42,5.5,2.42h2.5v5.03c0,2.38,1.05,4.51,2.71,5.97Z"/></svg>