<?xml version="1.0" encoding="UTF-8"?><svg id="Layer_1" xmlns="http://www.w3.org/2000/svg" width="36" height="36" viewBox="0 0 36 36"><path d="m7.07,29.02c-.11-.22-2.17-4.31-4.49-9.8-1.15-2.74-.38-4.69.46-5.86,1.24-1.7,3.41-2.75,5.68-2.75,1.71,0,3.39.21,4.81.47-2.61,1.01-5.04,2.89-5.04,6.12,0,3.97,3.12,9.67,4.38,11.82h-5.8Zm9.93,0h-2.05l.25-.14c-.05-.07-4.61-7.34-4.61-11.68,0-3.54,4.36-4.67,6.41-5.01v16.83Zm2.01,0V12.19c2.05.34,6.41,1.47,6.41,5.01,0,4.34-4.56,11.61-4.61,11.68l.25.14h-2.05Zm14.41-9.8c-2.31,5.49-4.37,9.58-4.48,9.8h-5.8c1.26-2.14,4.38-7.84,4.38-11.82,0-3.23-2.43-5.11-5.04-6.12,1.42-.26,3.09-.47,4.81-.47,2.27,0,4.44,1.06,5.68,2.75.85,1.16,1.61,3.12.46,5.86Zm-12.42-15.08h-1.99s0-2.15,0-2.15c0-.55-.45-.99-1.01-.99s-1.01.44-1.01.99v2.15h-2.01c-.56.02-1,.46-1,1.01h0c0,.55.46.99,1.01.98h1.99s0,3.07,0,3.07c0,.55.46,1,1.02.99h0c.55,0,.99-.45.99-.99v-3.07h2.01c.56-.02,1-.46,1-1.01h0c0-.55-.46-.99-1.01-.98Zm9.07,27.86h0c0-.55-.45-1-1-1H6.93c-.55,0-1,.45-1,1h0c0,.55.45,1,1,1h22.14c.55,0,1-.45,1-1Z"/></svg>