<?xml version="1.0" encoding="UTF-8"?><svg id="Layer_1" xmlns="http://www.w3.org/2000/svg" width="36" height="36" viewBox="0 0 36 36"><path d="m1,34h22c.55,0,1,.45,1,1h0c0,.55-.45,1-1,1H1c-.55,0-1-.45-1-1h0c0-.55.45-1,1-1ZM35,4c.55,0,1,.45,1,1v5c0,1.66-1.34,3-3,3h-1v9.8c0,2.09-1.52,3.96-3.59,4.18-2.38.25-4.41-1.6-4.41-3.91v-3.04c0-1.12-.9-2.02-2.02-2.02h-1.98v14H4V12c0-2.21,1.79-3.99,3.99-3.99h8.01c2.16,0,4,1.84,4,3.99v4h1.98c2.22,0,4.02,1.8,4.02,4.02v2.91c0,1.11.91,2.11,2.02,2.06,1.1-.04,1.98-.93,1.98-2.02v-9.98h-1c-1.66,0-3-1.34-3-3v-5c0-.55.45-1,1-1h1V1c0-.55.45-1,1-1s1,.45,1,1v3h2V1c0-.55.45-1,1-1s1,.45,1,1v3h1Zm-20.7,15h-2.14l1.78-3.55c.33-.66-.15-1.45-.89-1.45h-2.26c-.46,0-.86.31-.97.76l-1.5,6c-.16.63.32,1.24.97,1.24h1.52l-1.56,4.68c-.22.65.27,1.32.95,1.32h.2c.36,0,.7-.2.87-.51l3.91-7c.37-.67-.11-1.49-.87-1.49Z"/></svg>