<?xml version="1.0" encoding="UTF-8"?><svg id="Layer_1" xmlns="http://www.w3.org/2000/svg" width="20" height="20" xmlns:xlink="http://www.w3.org/1999/xlink" viewBox="0 0 20 20"><defs><clipPath id="clippath"><rect width="20" height="20" style="fill:none; stroke-width:0px;"/></clipPath></defs><g style="clip-path:url(#clippath);"><path d="m10,2.12c-.69,1.22-1.22,2.53-1.57,3.89h3.14c-.35-1.35-.88-2.66-1.57-3.89Zm1.95,5.89h-3.9c-.08.66-.13,1.33-.13,2s.04,1.34.13,2h3.9c.08-.66.13-1.33.13-2s-.04-1.34-.13-2Zm2.01,4c.07-.66.11-1.33.11-2s-.04-1.34-.11-2h3.78c.17.65.25,1.32.25,2s-.09,1.35-.25,2h-3.78Zm-2.4,2h-3.14c.35,1.35.88,2.66,1.57,3.88.69-1.23,1.22-2.53,1.57-3.88Zm.81,3.64c.55-1.17.97-2.39,1.25-3.64h3.3c-.35.6-.78,1.16-1.27,1.66-.74.74-1.62,1.33-2.6,1.74-.22.09-.45.17-.68.25Zm-2,2.35c.12.02.24,0,.35-.02,1.06-.08,2.11-.33,3.1-.74,1.21-.5,2.32-1.24,3.24-2.17.93-.93,1.67-2.03,2.17-3.24.5-1.21.76-2.51.76-3.83,0-2.65-1.05-5.2-2.93-7.07C15.37,1.23,13.11.2,10.73.03c-.11-.03-.23-.03-.35-.02-.13,0-.25,0-.38,0s-.25,0-.38,0c-.12-.02-.24,0-.35.02-2.39.18-4.64,1.2-6.34,2.9C1.05,4.8,0,7.35,0,10c0,1.31.26,2.61.76,3.83.5,1.21,1.24,2.32,2.17,3.24.93.93,2.03,1.67,3.24,2.17.99.41,2.03.66,3.1.74.11.03.23.03.35.02.13,0,.25,0,.38,0s.25,0,.38,0Zm2-17.63c1.23.38,2.36,1.06,3.28,1.98.5.5.92,1.06,1.27,1.66h-3.3c-.29-1.25-.7-2.47-1.25-3.64Zm-4.75,15.28c-.55-1.17-.97-2.39-1.25-3.64h-3.3c.35.6.78,1.16,1.27,1.66.74.74,1.62,1.33,2.6,1.74.22.09.45.17.69.25Zm-1.7-7.64c0-.67.04-1.34.11-2h-3.78c-.17.65-.25,1.32-.25,2s.09,1.35.25,2h3.78c-.07-.66-.11-1.33-.11-2Zm.45-4c.29-1.25.7-2.47,1.25-3.64-1.23.38-2.36,1.06-3.28,1.98-.5.5-.92,1.06-1.27,1.66h3.3Z" style="fill-rule:evenodd; stroke-width:0px;"/></g></svg>