<?xml version="1.0" encoding="UTF-8"?><svg id="Layer_1" xmlns="http://www.w3.org/2000/svg" width="36" height="36" viewBox="0 0 36 36"><path d="m11,25c-1.66,0-3-1.34-3-3s1.34-3,3-3,3,1.34,3,3-1.34,3-3,3Zm2,11s0,0,0,0h0Zm-5.01-7c0-1.65-1.35-3-3-3s-3,1.35-3,3,1.35,3,3,3,3-1.35,3-3Zm15.01,7h0s0,0,0,0c0,0,0,0,0,0ZM36,2v13c0,1.1-.9,2-2,2H11v-3h5.98c.56,0,1.02-.46,1.02-1.02h0c0-.56-.46-1.02-1.02-1.02H6.85c-1.61.1-2.84,1.37-2.84,3.01v2.03h-2.01c-1.1,0-2-.9-2-2V2C0,.9.9,0,2,0h32c1.1,0,2,.9,2,2ZM11,6.97c0-1.65-1.35-3-3-3s-3,1.35-3,3,1.35,3,3,3,3-1.35,3-3Zm-4,26.03h-4c-1.13,0-2.12.63-2.63,1.55-.36.65.15,1.45.9,1.45h7.46c.74,0,1.26-.8.9-1.45-.51-.92-1.5-1.55-2.63-1.55Zm-7,3s0,0,0,0h0Zm10,0h0s0,0,0,0c0,0,0,0,0,0Zm16,0s0,0,0,0h0Zm7-3h-3.99c-1.13,0-2.12.63-2.63,1.55-.36.65.15,1.45.9,1.45h7.46c.74,0,1.26-.8.9-1.45-.51-.92-1.5-1.55-2.63-1.55Zm3,3h0s0,0,0,0c0,0,0,0,0,0Zm-15.01-7c0-1.65-1.35-3-3-3s-3,1.35-3,3,1.35,3,3,3,3-1.35,3-3Zm-1,4h-3.99c-1.13,0-2.12.63-2.63,1.55-.36.65.15,1.45.9,1.45h7.46c.74,0,1.26-.8.9-1.45-.51-.92-1.5-1.55-2.63-1.55Zm11-1c1.65,0,3-1.35,3-3s-1.35-3-3-3-3,1.35-3,3,1.35,3,3,3Zm-2.99-10c0-1.66-1.34-3-3-3s-3,1.34-3,3,1.34,3,3,3,3-1.34,3-3Z"/></svg>