<?xml version="1.0" encoding="UTF-8"?><svg id="Layer_1" xmlns="http://www.w3.org/2000/svg" width="18" height="16" xmlns:xlink="http://www.w3.org/1999/xlink" viewBox="0 0 18 16"><defs><clipPath id="clippath"><rect y="0" width="18" height="16" style="fill:none; stroke-width:0px;"/></clipPath></defs><g style="clip-path:url(#clippath);"><path d="m4.18.28c.38-.38,1-.38,1.38,0,.38.38.38.99,0,1.37l-2.43,2.42c-.38.38-1,.38-1.38,0L.28,2.63C-.09,2.25-.09,1.63.28,1.25c.38-.38,1-.38,1.38,0l.77.77,1.74-1.74Zm3.12,2.14c0-.54.44-.97.97-.97h8.76c.54,0,.97.43.97.97s-.44.97-.97.97h-8.76c-.54,0-.97-.43-.97-.97Zm-1.74,3.68c.38.38.38.99,0,1.37l-2.43,2.42c-.38.38-1,.38-1.38,0l-1.46-1.45c-.38-.38-.38-.99,0-1.37.38-.38,1-.38,1.38,0l.77.77,1.74-1.74c.38-.38,1-.38,1.38,0Zm1.74,2.14c0-.54.44-.97.97-.97h8.76c.54,0,.97.43.97.97s-.44.97-.97.97h-8.76c-.54,0-.97-.43-.97-.97Zm-1.74,3.68c.38.38.38.99,0,1.37l-2.43,2.42c-.38.38-1,.38-1.38,0l-1.46-1.45c-.38-.38-.38-.99,0-1.37.38-.38,1-.38,1.38,0l.77.77,1.74-1.74c.38-.38,1-.38,1.38,0Zm1.74,2.14c0-.54.44-.97.97-.97h8.76c.54,0,.97.43.97.97s-.44.97-.97.97h-8.76c-.54,0-.97-.43-.97-.97Z" style="fill-rule:evenodd; stroke-width:0px;"/></g></svg>