<?xml version="1.0" encoding="UTF-8"?><svg id="Layer_1" xmlns="http://www.w3.org/2000/svg" width="18" height="18" xmlns:xlink="http://www.w3.org/1999/xlink" viewBox="0 0 18 18"><defs><clipPath id="clippath"><rect y="0" width="18" height="18" style="fill:none; stroke-width:0px;"/></clipPath></defs><g style="clip-path:url(#clippath);"><path d="m3.38.08c.37.15.62.52.62.92v6c0,.55-.45,1-1,1s-1-.45-1-1v-3.59l-.29.29c-.39.39-1.02.39-1.41,0-.39-.39-.39-1.02,0-1.41L2.29.29C2.58,0,3.01-.08,3.38.08Zm3.62,2.92c0-.55.45-1,1-1h9c.55,0,1,.45,1,1s-.45,1-1,1h-9c-.55,0-1-.45-1-1Zm0,6c0-.55.45-1,1-1h9c.55,0,1,.45,1,1s-.45,1-1,1h-9c-.55,0-1-.45-1-1ZM0,13C0,11.34,1.34,10,3,10s3,1.34,3,3c0,.6-.26,1.07-.53,1.4-.19.24-.44.48-.63.67-.05.05-.1.1-.14.14-.02.02-.04.04-.07.06l-.88.73h1.24c.55,0,1,.45,1,1s-.45,1-1,1H1c-.42,0-.8-.26-.94-.66-.14-.39-.02-.84.3-1.11l2.97-2.47c.05-.05.1-.1.15-.15h0c.06-.07.12-.12.17-.18.11-.11.19-.19.24-.27.06-.07.08-.12.09-.14,0-.02,0-.02,0-.02h0c0-.55-.45-1-1-1s-1,.45-1,1-.45,1-1,1S0,13.55,0,13Zm8,2c0-.55.45-1,1-1h8c.55,0,1,.45,1,1s-.45,1-1,1h-8c-.55,0-1-.45-1-1Z" style="fill-rule:evenodd; stroke-width:0px;"/></g></svg>