<?xml version="1.0" encoding="UTF-8"?><svg id="Layer_1" xmlns="http://www.w3.org/2000/svg" width="17" height="14" xmlns:xlink="http://www.w3.org/1999/xlink" viewBox="0 0 17 14"><defs><clipPath id="clippath"><rect width="17" height="14" style="fill:none; stroke-width:0px;"/></clipPath></defs><g style="clip-path:url(#clippath);"><path d="m4,1C4,.44,4.45,0,5,0h11c.55,0,1,.45,1,1s-.45,1-1,1H5c-.55,0-1-.45-1-1ZM1,0C1.55,0,2,.44,2,1h0c0,.56-.45,1.01-1,1.01s-1-.45-1-1h0C0,.44.45,0,1,0Zm0,6c.55,0,1,.45,1,1h0c0,.56-.45,1.01-1,1.01s-1-.45-1-1h0c0-.56.45-1.01,1-1.01Zm3,1c0-.55.45-1,1-1h11c.55,0,1,.45,1,1s-.45,1-1,1H5c-.55,0-1-.45-1-1Zm-3,5c.55,0,1,.45,1,1h0c0,.56-.45,1.01-1,1.01s-1-.45-1-1h0c0-.56.45-1.01,1-1.01Zm3,1c0-.55.45-1,1-1h11c.55,0,1,.45,1,1s-.45,1-1,1H5c-.55,0-1-.45-1-1Z" style="fill-rule:evenodd; stroke-width:0px;"/></g></svg>