<?xml version="1.0" encoding="UTF-8"?>
<svg id="a" data-name="Layer 1" xmlns="http://www.w3.org/2000/svg" width="20" height="20" viewBox="0 0 20 20">
  <path d="M17.08,18.02H3.08c-1.65,0-3-1.35-3-3V5.02C.08,3.36,1.42,2.02,3.08,2.02h14c1.65,0,3,1.35,3,3v10c0,1.65-1.35,3-3,3ZM3.08,4.02c-.55,0-1,.45-1,1v10c0,.55.45,1,1,1h14c.55,0,1-.45,1-1V5.02c0-.55-.45-1-1-1H3.08Z"/>
  <path d="M10.08,12.02c-.19,0-.39-.06-.55-.17L.52,5.85c-.46-.31-.58-.93-.28-1.39.31-.46.93-.58,1.39-.28l8.45,5.63,8.45-5.63c.46-.31,1.08-.18,1.39.28.31.46.18,1.08-.28,1.39l-9,6c-.17.11-.36.17-.55.17Z"/>
</svg>