<?xml version="1.0" encoding="UTF-8"?><svg id="Layer_1" xmlns="http://www.w3.org/2000/svg" width="36" height="36" viewBox="0 0 36 36"><polygon points="19.02 1 25.21 1 27.01 8.08 27.03 11 19.02 11 19.02 1"/><path d="m36,9.98l-.03-1.82c0-.13-.03-.26-.08-.38l-2.63-6.18c-.16-.37-.52-.61-.92-.61h-5.02s1.69,7.3,1.69,7.3v2.7s5.99,0,5.99,0c.56,0,1.02-.46,1.01-1.02Z"/><polygon points="17.02 1 10.84 1 9.04 8.08 9.02 11 17.02 11 17.02 1"/><path d="m1.02,11h6.01v-2.7l1.7-7.3H3.68c-.4,0-.76.24-.92.61L.11,7.78c-.05.12-.08.25-.08.38L0,9.96c0,.57.45,1.04,1.02,1.04Z"/><polygon points="5.03 31 5.03 25 31 25 31 31 33 31 33 13 31 13 31 23 5.03 23 5.03 13 3.03 13 3.03 31 5.03 31"/><rect x=".03" y="33" width="35.97" height="2" rx="1" ry="1"/></svg>