<?xml version="1.0" encoding="UTF-8"?>
<svg id="Layer_1" xmlns="http://www.w3.org/2000/svg" width="36" height="36" viewBox="0 0 36 36">
  <path d="M34.79,11.82c0-7.81-5.12-10.1-5.12-10.1C27.09.54,22.66.04,18.06,0h-.11c-4.6.04-9.03.54-11.61,1.72,0,0-5.12,2.29-5.12,10.1,0,1.79-.03,3.93.02,6.19.19,7.64,1.4,15.16,8.46,17.03,3.26.86,6.05,1.04,8.3.92,4.08-.23,6.37-1.46,6.37-1.46l-.13-2.96s-2.92.92-6.19.81c-3.25-.11-6.67-.35-7.2-4.34-.05-.35-.07-.72-.07-1.12,0,0,3.19.78,7.23.96,2.47.11,4.79-.14,7.14-.43,4.51-.54,8.44-3.32,8.93-5.86.78-4,.71-9.76.71-9.76ZM28.75,21.88h-3.75v-9.18c0-1.93-.81-2.92-2.44-2.92-1.8,0-2.7,1.16-2.7,3.47v5.02h-3.72v-5.02c0-2.3-.9-3.47-2.7-3.47-1.63,0-2.44.98-2.44,2.92v9.18h-3.75v-9.46c0-1.93.49-3.47,1.48-4.6,1.02-1.14,2.35-1.72,4.01-1.72,1.92,0,3.37.74,4.33,2.21l.93,1.56.93-1.56c.96-1.47,2.41-2.21,4.33-2.21,1.66,0,2.99.58,4.01,1.72.99,1.14,1.48,2.67,1.48,4.6v9.46Z"/>
</svg>