<?xml version="1.0" encoding="UTF-8"?><svg id="Layer_1" xmlns="http://www.w3.org/2000/svg" width="36" height="36" viewBox="0 0 36 36"><path d="m17.98,0C8.05,0,0,8.06,0,18s8.05,18,17.98,18,18.02-8.06,18.02-18S27.94,0,17.98,0Zm0,7.08c1.38,0,2.49,1.12,2.49,2.5s-1.12,2.5-2.49,2.5-2.49-1.12-2.49-2.5,1.12-2.5,2.49-2.5Zm8.19,7.84c-.21.1-1.92.91-5.17,1.11v4.42l.98,6.88c.14.82-.42,1.59-1.23,1.73-.08.01-.17.02-.25.02-.72,0-1.36-.52-1.48-1.25l-.82-5.74h-.4l-.82,5.75c-.12.73-.76,1.25-1.48,1.25-.08,0-.17,0-.25-.02-.82-.14-1.37-.91-1.23-1.73l.98-6.88v-4.42c-3.25-.2-4.96-1.01-5.17-1.11-.74-.37-1.04-1.27-.67-2.01.37-.74,1.26-1.04,2-.68.06.03,1.86.85,5.34.85,0,0,0,0,0,0h2.94s.04,0,.05,0c3.52,0,5.32-.84,5.34-.85.74-.35,1.64-.05,2,.69.36.74.07,1.63-.67,2Z"/></svg>