<?xml version="1.0" encoding="UTF-8"?><svg id="Layer_1" xmlns="http://www.w3.org/2000/svg" width="36" height="36" viewBox="0 0 36 36">
  <path class="cls-1" d="M16.28,21.46l-7.55,3.83,1.69,9.61c.12.64.66,1.11,1.3,1.11h5.94v-14.08l-1.38-.46Z"/>
  <path class="cls-1" d="M19.61,36h5.85c.64,0,1.19-.47,1.3-1.11l1.64-9.41-8.79-2.92v13.43Z"/>
  <path class="cls-1" d="M31.89,20.01c-.95-3.26-2.01-6.93-2.02-6.96-.49-1.51-1.17-5.17-4.96-5.34.09-.43.14-.87.14-1.33,0-3.52-2.8-6.38-6.24-6.38s-6.24,2.85-6.24,6.38c0,.45.05.89.13,1.31h-.22c-3.1,0-5.17,2.45-5.92,4.26l-2.44,8.66c-.59,2.08,1.46,3.92,3.41,3.06l.86-.44h0s14.18-7.19,14.18-7.19c1.46-.74,3.25-.4,4.35.84.36.41.33,1.04-.07,1.41-.4.37-1.02.34-1.38-.07-.52-.58-1.35-.74-2.04-.39l-4.65,2.36,9.97,3.31v-.06c1.96.44,3.72-1.42,3.14-3.43ZM14.19,16.14l-2.55,1.55c-.16.1-.33.14-.5.14-.33,0-.66-.17-.84-.49-.28-.47-.12-1.08.34-1.37l2.55-1.55c.46-.28,1.06-.13,1.34.35.28.47.12,1.08-.34,1.37ZM18.97,13.48c-1.91,0-3.56-1.13-4.35-2.76.61.19,1.24.3,1.91.3,1.54,0,2.96-.57,4.05-1.52.71-.61,1.68-.78,2.51-.35.2.1.41.19.63.26-.4,2.31-2.39,4.07-4.76,4.07Z"/>
</svg>