<?xml version="1.0" encoding="UTF-8"?><svg id="Layer_1" xmlns="http://www.w3.org/2000/svg" width="8" height="8" xmlns:xlink="http://www.w3.org/1999/xlink" viewBox="0 0 8 8"><defs><clipPath id="clippath"><rect width="8" height="8" style="fill:none; stroke-width:0px;"/></clipPath></defs><g style="clip-path:url(#clippath);"><path d="m4,8c-1.07,0-2.07-.42-2.83-1.17h0s0,0,0,0C.42,6.07,0,5.07,0,4S.42,1.93,1.17,1.17C1.93.42,2.93,0,4,0s2.07.42,2.83,1.17c.76.75,1.17,1.76,1.17,2.83s-.42,2.07-1.17,2.83c-.75.75-1.76,1.17-2.83,1.17Zm0-6c-.53,0-1.04.21-1.41.59-.38.38-.59.88-.59,1.41s.21,1.04.59,1.41t0,0c.75.76,2.07.76,2.83,0,.38-.38.59-.88.59-1.41s-.21-1.04-.59-1.41c-.38-.38-.88-.59-1.41-.59Z" style="stroke-width:0px;"/></g></svg>