<?xml version="1.0" encoding="UTF-8"?><svg id="Layer_1" xmlns="http://www.w3.org/2000/svg" width="36" height="36" viewBox="0 0 36 36"><path d="m20.76,15h-3.79v-5c0-1.1-.9-2-2-2H1c-.55,0-1,.45-1,1v21c0,.55.45,1,1,1h12.01c-.02.17-.05.33-.05.5,0,2.48,2.02,4.5,4.5,4.5s4.5-2.02,4.5-4.5c0-.17-.03-.33-.05-.5h1.05c1.1,0,2-.9,2-2v-7.53c0-.31-.07-.61-.21-.89l-2.21-4.47c-.34-.68-1.03-1.11-1.79-1.11Zm-3.29,19c-1.38,0-2.5-1.12-2.5-2.5s1.12-2.5,2.5-2.5,2.5,1.12,2.5,2.5-1.12,2.5-2.5,2.5Zm5.5-12h-6v-5h4l2,4v1ZM29,0c-3.86,0-7,3.14-7,7s3.14,7,7,7,7-3.14,7-7-3.14-7-7-7Zm-.57,9.64c-.4.4-1.04.4-1.44,0l-1.51-1.51c-.39-.39-.39-1.02,0-1.41h0c.39-.38,1.01-.38,1.4,0l.84.83,2.91-2.91c.39-.39,1.01-.39,1.4,0h0c.39.39.39,1.01,0,1.4l-3.6,3.6Z"/></svg>