<?xml version="1.0" encoding="UTF-8"?><svg id="Layer_1" xmlns="http://www.w3.org/2000/svg" width="36" height="36" viewBox="0 0 36 36"><path d="m36,24.49v.02c0,.69-.69,1.19-1.34.94-4.93-1.9-10.59-2.81-15.78-2.66.42-.62.75-1.3.96-2.02,2.72-.01,5.77.2,8.15.63v-2.43h-4.9c-.82,0-1.35-.81-.98-1.5l1.9-3.58c-.79,0-1.32-.76-1.01-1.44l1.58-2.38c-.88,0-1.4-.91-.92-1.59L27.99.61C28.19.2,28.59,0,29,0c.41,0,.81.2,1.01.61l4.31,7.86c.48.68-.04,1.59-.92,1.59l1.58,2.38c.32.68-.21,1.44-1.01,1.44l1.9,3.58c.38.68-.15,1.5-.98,1.5h-4.9v2.91c1.78.43,3.65.99,5.37,1.67.38.15.63.53.63.94Zm-10.33,2.67c-2.3-1.18-5.12-2.19-7.67-2.75-.35.4-.74.76-1.18,1.08-.3.22-.61.41-.94.57,2.99.47,6.22,1.52,8.86,2.88,3.32,1.7,6.15,4,8.32,6.69.19.23.47.37.77.37h.02c.84,0,1.31-.98.79-1.63-2.35-2.9-5.41-5.38-8.98-7.21Zm-9.38-3.96c-.74.54-1.59.79-2.44.79-1.28,0-2.55-.59-3.36-1.71-.18-.24-.32-.5-.44-.76-.12.26-.26.52-.44.76-.81,1.12-2.08,1.71-3.36,1.71-.85,0-1.7-.26-2.44-.79-1.85-1.35-2.27-3.94-.92-5.8.18-.24.37-.46.59-.65-.29-.03-.57-.09-.86-.18C.44,15.86-.75,13.52-.05,11.34c.57-1.75,2.2-2.87,3.95-2.87.42,0,.86.07,1.28.2.29.09.55.21.8.36-.06-.28-.09-.57-.09-.87,0-2.29,1.86-4.15,4.15-4.15s4.15,1.86,4.15,4.15c0,.3-.03.59-.09.87.25-.14.52-.27.8-.36.43-.14.86-.2,1.28-.2,1.75,0,3.38,1.12,3.95,2.87.71,2.18-.49,4.52-2.67,5.23-.28.09-.57.15-.86.18.21.19.41.41.59.65,1.35,1.86.94,4.45-.92,5.8Zm-3.72-8.7c0-1.38-1.12-2.5-2.5-2.5s-2.5,1.12-2.5,2.5,1.12,2.5,2.5,2.5,2.5-1.12,2.5-2.5Zm-2.53,9.5h-.01c-.56-.01-1.03.44-1.03,1v7.07c-1.37-3.15-4.33-5.44-7.85-5.87-.64-.08-1.19.48-1.12,1.12.56,4.64,4.36,8.34,9.03,8.73h.98c.56.02,1.02-.43,1.01-.99l-.04-10.07c0-.54-.43-.98-.97-1Z"/></svg>