<?xml version="1.0" encoding="UTF-8"?><svg id="Layer_1" xmlns="http://www.w3.org/2000/svg" width="35.98" height="36" viewBox="0 0 35.98 36"><path d="m16.99,10.99c0,1.66-1.34,3-3,3s-3-1.34-3-3,1.34-3,3-3,3,1.34,3,3ZM0,27.01l8.94,8.96h.06v-8.99H0v.03Zm35.79,2.8l-.17.22c-.34.44-.97.51-1.41.17l-1.23-1.06v5.87c0,.55-.45,1-1,1h-10c-.55,0-1-.45-1-1v-5.87s-1.28,1.06-1.28,1.06c-.45.33-1.08.24-1.4-.21l-.12-.16c-.33-.45-.23-1.07.22-1.4l8.01-5.96c.35-.26.83-.26,1.18,0l3.38,2.46v-.89c.02-.55.46-.99,1.01-.99h0c.55,0,1,.45,1,1v2.33s2.6,2,2.6,2c.46.33.55.98.2,1.43Zm-6.8.2c0-.55-.45-1-1-1h-2c-.55,0-1,.45-1,1v1c0,.55.45,1,1,1h2c.55,0,1-.45,1-1v-1Zm-10,4.99s0,.03,0,.05v.91h0s-8,0-8,0v-9.08c0-1.06-.86-1.91-1.91-1.91H0V1.97C0,.88.88,0,1.97,0h24.04c1.09,0,1.97.88,1.97,1.97v18.47c-.31-.11-.64-.17-.98-.17-.64,0-1.25.2-1.77.58l-8.02,5.97c-.63.46-1.06,1.16-1.18,1.95-.12.79.07,1.58.54,2.23l.12.16c.54.74,1.39,1.19,2.3,1.22v2.62Zm-4.19-13.07c1.42-1.93,4.31-6.13,5.02-9.53.03-.14.17-1.13.17-1.41,0-3.31-2.69-5.99-6-5.99s-6,2.69-6,5.99c0,.28.14,1.27.17,1.41.71,3.39,3.59,7.6,5.02,9.53.4.54,1.21.54,1.61,0Z"/></svg>