<?xml version="1.0" encoding="UTF-8"?><svg id="Layer_1" xmlns="http://www.w3.org/2000/svg" width="36" height="36" viewBox="0 0 36 36"><path d="m14.52,5.5c0-1.93,1.57-3.5,3.5-3.5s3.5,1.57,3.5,3.5-1.57,3.5-3.5,3.5-3.5-1.57-3.5-3.5Zm-.5,21.62c0,.53.41.97.94,1,.96.05,1.98.08,3.07.08s2.1-.03,3.06-.09c.53-.03.93-.47.93-1v-4.1h1c.55,0,1-.45,1-1v-8.42c-.15-1.42-1.42-2.54-2.99-2.54h-6.04c-1.67,0-2.98,1.26-2.98,2.81v8.15c0,.55.45,1,1,1h1v4.11Zm21.98.36c0-.24-.04-.47-.09-.7h0c-.61-2.33-4.18-3.99-8.75-4.92-.59-.12-1.16.32-1.16.93v.03c0,.46.33.85.78.93,4.39.85,6.84,2.31,6.85,3.74-.02,2.2-5.86,4.48-15.63,4.48s-15.71-2.3-15.75-4.48c.03-1.43,2.42-2.91,6.95-3.76.45-.09.79-.47.79-.94h0c0-.61-.56-1.05-1.16-.93C4.23,22.8.65,24.48.09,26.85c-.05.21-.09.42-.09.64,0,0,0,0,0,0s0,0,0,0c0,.22.04.43.09.64.9,3.81,9.65,5.86,17.92,5.86s16.9-2.03,17.89-5.8h0c.06-.23.09-.46.09-.7,0,0,0,0,0,0s0,0,0,0Z"/></svg>