<?xml version="1.0" encoding="UTF-8"?><svg id="Layer_1" xmlns="http://www.w3.org/2000/svg" width="36" height="36" viewBox="0 0 36 36"><path d="m19.66,5.23c.61-.31,1.34-.3,1.94.02l4.76,2.58c.88.48,1.91.61,2.89.39l5.52-1.26c.63-.14,1.23.33,1.23.97v7.56l-5.58,1.34c-.5.12-1.03.05-1.48-.19l-6.39-3.45c-.26-.14-.48-.34-.65-.58l-1.86-2.59c-.19-.27-.5-.42-.82-.42-.09,0-.18.01-.27.04l-6.15,1.73c-.87.23-1.8-.13-2.23-.81l-.26-.49,9.36-4.84ZM4.89,23.29s0,.03,0,.04v.26c0,.66-.55,1.2-1.22,1.2h-.56c-.67,0-1.22-.54-1.22-1.21v-3.31c0-.67.55-1.21,1.22-1.21h.56c.67,0,1.22.54,1.22,1.21v3.02Zm5.01,2.97c0,.33-.13.65-.37.89-.24.24-.56.37-.89.37h-.47s0,0,0,0c-.34,0-.65-.13-.89-.36-.24-.24-.37-.55-.37-.89v-2.66s0-.02,0-.03v-.27c0-.68.57-1.24,1.26-1.24h.47s0,0,0,0c.34,0,.65.13.89.36.24.24.37.55.37.89v2.94s0,0,0,0Zm4.63,4.09c-.25.25-.58.38-.92.38h-.39s0,0,0,0c-.35,0-.68-.13-.92-.38-.25-.24-.39-.57-.39-.91v-3.14s0,0,0,0c0-.34.13-.67.38-.91.25-.25.58-.38.92-.38h.39s0,0,0,0c.72,0,1.31.58,1.31,1.29v3.14c.01.35-.12.67-.37.92Zm19.21-6.44l-.02.03c-.57.91-1.82,1.2-2.77.65l-1.26-.74s-.02-.02-.04-.03l-6.02-3.5c-.48-.28-1.09-.12-1.37.35-.28.47-.12,1.08.36,1.36l1.3.76h0s4.76,2.77,4.76,2.77c.44.27.75.67.87,1.16.12.48.04.98-.23,1.41l-.02.03c-.58.89-1.81,1.17-2.75.63l-1.63-.95s-.08-.06-.12-.09c-.02-.01-.05-.01-.07-.02l-4.21-2.45c-.48-.28-1.09-.12-1.37.35-.28.47-.12,1.08.36,1.36l4.4,2.56c.39.27.67.65.78,1.09.12.48.04.98-.23,1.41l-.02.03c-.58.89-1.81,1.17-2.75.63l-4.82-2.81c.02-.16.05-.33.05-.49v-3.12c-.02-1.81-1.51-3.29-3.32-3.29h-.4c-.46,0-.9.1-1.3.27,0-.86-.35-1.66-.96-2.27-.62-.61-1.44-.94-2.31-.94h-.48c-.44,0-.87.09-1.25.25v-.06c0-1.77-1.44-3.2-3.21-3.2h-.57c-1.5,0-2.75,1.02-3.12,2.4V6.62c0-.71.72-1.19,1.39-.92l3.42,1.4c.51.22,1.07.33,1.63.33.13,0,.25,0,.38-.02l5.2-.48-3.54,1.83c-.24.12-.42.33-.49.59-.08.25-.05.53.07.76l.77,1.43c.92,1.47,2.76,2.19,4.5,1.74l5.49-1.55,1.45,2.02c.35.48.8.88,1.33,1.17l6.38,3.45c.18.1.36.18.55.24l-.04.07,4.56,2.66c.46.27.78.69.91,1.18.12.47.04.96-.21,1.38Z"/></svg>