<?xml version="1.0" encoding="UTF-8"?><svg id="Layer_1" xmlns="http://www.w3.org/2000/svg" width="36" height="36" viewBox="0 0 36 36"><path d="m31.7,29.04l-5.86-23.28c-.11-.44-.51-.76-.97-.76h-4.8c-.46,0-.86.31-.97.76l-5.85,23.27c-2.41.08-4.25,2.06-4.25,4.49v1.48c0,.55.45,1,1,1h24.99c.55,0,1-.45,1-1v-1.48c0-2.41-1.91-4.37-4.3-4.48Zm-7.59-22.03l1.5,5.99h-6.27l1.5-5.99h3.27Zm-8.28,19.99l1.5-6h10.29l1.51,6h-13.3Z"/><path d="m8.01,0C3.59,0,0,3.58,0,8s3.59,8,8.01,8,8.01-3.58,8.01-8S12.43,0,8.01,0Zm0,4h0c.55,0,1,.45,1,1v3c0,.55-.45,1-1,1h0c-.55,0-1-.45-1-1v-3c0-.55.45-1,1-1Zm.72,7.72c-.19.19-.43.28-.72.28s-.54-.09-.72-.28c-.19-.19-.28-.43-.28-.72s.09-.53.28-.72c.19-.19.43-.28.72-.28s.54.09.72.28c.19.19.28.43.28.72s-.09.53-.28.72Z"/></svg>