<?xml version="1.0" encoding="UTF-8"?><svg id="Layer_1" xmlns="http://www.w3.org/2000/svg" width="36" height="36" viewBox="0 0 36 36"><path d="m28,20c-4.41,0-8,3.59-8,8s3.59,8,8,8,8-3.59,8-8-3.59-8-8-8Zm1.59,11l-2.29-2.29c-.19-.19-.29-.44-.29-.71v-4.01c0-.55.45-1,1-1h0c.55,0,1,.45,1,1v3.59l2,2c.39.39.39,1.02,0,1.41h0c-.39.39-1.02.39-1.41,0Zm-11.59-3c0-5.52,4.48-10,10-10,.89,0,1.75.13,2.58.35l-.54-7.49c-.08-1.05-.95-1.86-1.99-1.86h-5.13s-.02,3.87-.02,3.87c.3.27.5.67.5,1.11,0,.83-.67,1.5-1.5,1.5s-1.5-.67-1.5-1.5c0-.44.2-.84.5-1.11v-5.95c-.01-1.89-.77-3.59-2-4.84,2.25.37,4,2,4,3.94v.62c0,.55.45,1,1,1h0c.55,0,1-.45,1-1v-.62c0-3.32-3.15-6.02-6.97-6.02-.7,0-1.39.09-2.04.27v-.02s-.04.01-.05.02c-.6-.17-1.22-.26-1.87-.26-3.9,0-7.08,3.11-7.08,6.92l-.02,2.07h-3.11c-1.05-.02-1.93.79-2,1.84L0,33.85c-.09,1.16.83,2.15,2,2.15h20.01c-2.43-1.82-4.02-4.72-4.02-8Zm-8.15-12.52c-.83,0-1.5-.67-1.5-1.5,0-.44.2-.84.5-1.11l.03-5.95c0-2.21,1.51-4.06,3.58-4.68-.97,1.04-1.57,2.35-1.57,3.78v.62c0,.55.45,1,1,1h0c.55,0,1-.45,1-1v-.62c0-1.58,1.21-3.01,2.95-3.66,1.8.72,3.05,2.47,3.05,4.56l-.02,2.06h-8s-.02,3.89-.02,3.89c.31.27.5.67.5,1.11,0,.83-.67,1.5-1.5,1.5Z"/></svg>