<?xml version="1.0" encoding="UTF-8"?><svg id="Layer_1" xmlns="http://www.w3.org/2000/svg" width="36" height="36" viewBox="0 0 36 36"><path d="m35.5,33c0,.55-.45,1-1,1h-16v-2h8v-3.36h-1.9c-2.21-.13-3.89-1.92-3.76-4,.01-.22.05-.44.1-.66-1.7-1.34-1.93-3.72-.51-5.32.26-.3.57-.56.92-.77-1.08-1.82-.4-4.13,1.52-5.15.62-.33,1.29-.48,1.97-.48.61-.77,1.57-1.27,2.66-1.27s2.06.51,2.67,1.28c1.1,0,2.19.41,2.98,1.25,1.14,1.21,1.34,2.96.5,4.37,1.86,1.12,2.41,3.46,1.22,5.22-.22.33-.49.62-.81.87.51,2.03-.82,4.07-2.97,4.55-.3.07-.62.1-.93.1h-1.67v3.36h6c.55,0,1,.45,1,1Zm-17.22-6.2h0c-.37.46-1.06.48-1.47.06l-.36-.29v8.41c0,.55-.45,1-1,1l-11.96.02c-.55,0-1-.45-1-1v-8.25s-.33.34-.33.34c-.41.36-1.04.31-1.39-.11l-.05-.06c-.35-.42-.28-1.05.15-1.39l7.99-6.31c.36-.28.86-.29,1.22-.02l4.38,3.24v-1.48c0-.54.44-.98.98-.98h.05c.54,0,.98.44.98.98v2.87c0,.15.07.29.18.39l1.53,1.24c.39.35.44.94.11,1.34Zm-6.78,2.2c0-.55-.45-1-1-1h-2c-.55,0-1,.45-1,1v1c0,.55.45,1,1,1h2c.55,0,1-.45,1-1v-1ZM29.5,0v9.38c-.63-.25-1.3-.38-2-.38-1.34,0-2.6.48-3.57,1.33-.71.1-1.38.32-2,.65-1.44.77-2.47,2.03-2.89,3.56-.26.91-.27,1.85-.07,2.75-.01.02-.03.03-.04.05-.48.55-.84,1.17-1.08,1.82-.54-.71-1.39-1.18-2.36-1.18-.35,0-.67.07-.98.18V0h15Zm-11.97,17h0,0s0,0,0,0Zm2.97-9c0-.55-.45-1-1-1h-1c-.55,0-1,.45-1,1h0c0,.55.45,1,1,1h1c.55,0,1-.45,1-1h0Zm0-4c0-.55-.45-1-1-1h-1c-.55,0-1,.45-1,1h0c0,.55.45,1,1,1h1c.55,0,1-.45,1-1h0Zm6,0c0-.55-.45-1-1-1h-1c-.55,0-1,.45-1,1h0c0,.55.45,1,1,1h1c.55,0,1-.45,1-1h0ZM3.5,6h9v12.5l-1.23-.91c-.51-.38-1.15-.59-1.79-.59h0c-.67,0-1.33.23-1.86.65l-4.12,3.26V6Zm3,4c0,.55.45,1,1,1h1c.55,0,1-.45,1-1h0c0-.55-.45-1-1-1h-1c-.55,0-1,.45-1,1h0Zm0,4c0,.55.45,1,1,1h1c.55,0,1-.45,1-1h0c0-.55-.45-1-1-1h-1c-.55,0-1,.45-1,1h0Zm23.8,6.57c-.39-.39-1.03-.39-1.41,0l-.39.39v-2.34c0-.55-.45-1-1-1s-1,.45-1,1v4.45l-.39-.39c-.39-.39-1.02-.39-1.41,0-.39.39-.39,1.02,0,1.41l1.81,1.83v1.08c0,.55.45,1,1,1s1-.45,1-1v-3.19l1.81-1.83c.39-.39.39-1.03,0-1.41Z"/></svg>