<?xml version="1.0" encoding="UTF-8"?><svg id="Layer_1" xmlns="http://www.w3.org/2000/svg" width="36" height="36" viewBox="0 0 36 36"><path d="m19.57,8.01h-4.61v8h4.61c1.89,0,3.43-1.79,3.43-4s-1.54-4-3.43-4Z"/><path d="m28.5,0H7.5C5.01,0,3,2.01,3,4.5v21c0,2.49,2.01,4.5,4.5,4.5h9.5v5.02c0,.54.44.98.98.98h.04c.54,0,.98-.44.98-.98v-5.02h9.5c2.49,0,4.5-2.01,4.5-4.5V4.5c0-2.49-2.01-4.5-4.5-4.5Zm-9.02,17.99h-4.52v5.03c0,.54-.44.98-.98.98s-.98-.44-.98-.98V7.02c0-.55.45-1,1-1h5.48c3.04,0,5.52,2.68,5.52,5.98s-2.48,5.98-5.52,5.98Z"/></svg>