<?xml version="1.0" encoding="UTF-8"?><svg id="Layer_1" xmlns="http://www.w3.org/2000/svg" width="36" height="36" viewBox="0 0 36 36"><path d="m36,31.01c0-.55-.45-1-1-1h-2.48l-1.09-3h1.57c.55,0,1-.45,1-1h0c0-.55-.45-1-1-1h-12c-.55,0-1,.45-1,1h0c0,.55.45,1,1,1h1.57l-1.09,3h-2.48c-.55,0-1,.45-1,1h0c0,.55.45,1,1,1h1.75l-.97,2.66c-.24.65.25,1.34.94,1.34.42,0,.8-.26.94-.66l1.22-3.34h8.24l1.22,3.34c.14.39.52.66.94.66.69,0,1.18-.69.94-1.34l-.97-2.66h2.75v-1Zm-12.39-1l1.09-3h4.6l1.09,3h-6.78Zm-3.69-14.17c1.54-2.3.83-5.36-1.58-6.82,1.09-1.84.82-4.14-.65-5.71-1.02-1.09-2.44-1.63-3.87-1.63-.79-1.01-2.04-1.67-3.46-1.67s-2.66.66-3.45,1.66c-.87,0-1.75.19-2.55.62-2.5,1.34-3.38,4.35-1.98,6.73-.45.27-.85.61-1.19,1-1.83,2.1-1.53,5.21.67,6.96-.07.28-.11.57-.13.86-.17,2.72,2.01,5.06,4.87,5.22h.3s2.09,0,2.09,0v11.89c0,.55.45,1,1,1s1-.45,1-1v-11.89h2.83c.4,0,.81-.05,1.2-.13,2.79-.63,4.51-3.3,3.84-5.95.41-.33.76-.71,1.05-1.14Zm-6.5-2.36l-2.42,2.43v5.09c0,.55-.45,1-1,1s-1-.45-1-1v-2.37l-2.42-2.43c-.39-.39-.39-1.02,0-1.41.39-.39,1.03-.39,1.41,0l1,1v-6.65c0-.55.45-1,1-1s1,.45,1,1v3.94l1-1c.39-.39,1.02-.39,1.41,0,.39.39.39,1.02,0,1.41Z"/></svg>