<?xml version="1.0" encoding="UTF-8"?><svg id="Layer_1" xmlns="http://www.w3.org/2000/svg" width="36" height="36" viewBox="0 0 36 36"><path d="m32,17.11v6.9c0,1.28-.61,2.41-1.54,2.89-.15.07-.3.11-.45.11-.36,0-.71-.2-.89-.55-.25-.49-.06-1.09.44-1.35.22-.11.45-.57.45-1.11v-10h2c.55,0,1-.45,1-1V3c0-1.66-1.34-3-3-3h-2c-1.66,0-3,1.34-3,3v10c0,.55.45,1,1,1h2v3h-1c-2.76,0-5,2.24-5,5,0,3.87,3.13,13,7,13s7-9.14,7-13c0-2.42-1.72-4.44-4-4.9Zm-5-5.1V3c0-.55.45-1,1-1h2c.55,0,1,.45,1,1v9h-4ZM2.79,16.21c.28.09.56.15.83.18-.21.19-.4.4-.57.63-1.31,1.8-.91,4.33.89,5.64.72.52,1.54.77,2.37.77,1.25,0,2.48-.58,3.27-1.66.17-.24.31-.48.42-.74.11.26.25.5.42.74.79,1.09,2.02,1.66,3.27,1.66.82,0,1.65-.25,2.37-.77,1.8-1.31,2.2-3.83.89-5.64-.17-.24-.36-.44-.57-.63.28-.03.56-.09.83-.18,2.12-.69,3.28-2.96,2.59-5.08-.56-1.71-2.14-2.79-3.84-2.79-.41,0-.83.06-1.25.2-.27.09-.54.21-.78.35.06-.27.09-.56.09-.85,0-2.23-1.81-4.03-4.03-4.03s-4.03,1.81-4.03,4.03c0,.29.03.57.09.85-.24-.14-.5-.26-.78-.35-.41-.13-.83-.2-1.25-.2-1.7,0-3.28,1.08-3.83,2.79-.69,2.12.47,4.39,2.59,5.08Zm7.22-5.34c1.86,0,3.37,1.51,3.37,3.37s-1.51,3.37-3.37,3.37-3.37-1.51-3.37-3.37,1.51-3.37,3.37-3.37Zm9.98,16.15c-.56,4.61-4.38,8.59-9.01,8.98h-1.94C4.41,35.61.57,31.63,0,27.01c-.08-.64.47-1.19,1.11-1.11,3.5.42,6.51,3.01,7.87,6.14v-7.03c0-.56.46-1.01,1.02-.99h.02c.56-.01,1.02.43,1.02.99v7.03c1.37-3.13,4.34-5.71,7.84-6.14.64-.08,1.2.48,1.12,1.12Z"/></svg>