<?xml version="1.0" encoding="UTF-8"?><svg id="Layer_1" xmlns="http://www.w3.org/2000/svg" width="20" height="17.83" xmlns:xlink="http://www.w3.org/1999/xlink" viewBox="0 0 20 17.83"><defs><clipPath id="clippath"><rect width="20" height="17.83" style="fill:none; stroke-width:0px;"/></clipPath></defs><g style="clip-path:url(#clippath);"><path d="m4.78,6.54l3.2-4.11v12.99l-3.2-4.11c-.19-.24-.48-.39-.79-.39h-1.99v-3.99h1.99c.31,0,.6-.14.79-.39ZM8.76.09c-.41-.14-.85-.12-1.25.04-.36.15-.67.41-.87.74l-3.15,4.05h-1.51c-.53,0-1.04.21-1.41.58-.37.38-.59.88-.59,1.41v3.99c0,.53.21,1.04.59,1.41.37.38.88.58,1.41.58h1.51l3.15,4.05c.2.33.5.6.87.74.4.16.84.18,1.25.04.41-.14.75-.41.97-.78.2-.34.29-.73.25-1.13V2c.04-.39-.04-.79-.25-1.13-.22-.37-.57-.64-.97-.78Zm6.13,1.21c.35-.43.98-.5,1.41-.15,1.16.93,2.09,2.12,2.73,3.46.64,1.34.97,2.81.97,4.3s-.33,2.96-.97,4.3c-.64,1.34-1.58,2.53-2.73,3.46-.43.35-1.06.28-1.41-.15-.35-.43-.28-1.06.15-1.41.93-.75,1.67-1.69,2.19-2.77.51-1.07.78-2.25.78-3.44s-.27-2.37-.78-3.44c-.51-1.07-1.26-2.02-2.19-2.77-.43-.35-.5-.98-.15-1.41Zm-2.72,3.02c.33-.44.96-.53,1.4-.2.74.56,1.35,1.28,1.76,2.11s.63,1.75.63,2.68-.22,1.85-.63,2.68-1.02,1.55-1.76,2.11c-.44.33-1.07.24-1.4-.2-.33-.44-.24-1.07.2-1.4.5-.37.9-.85,1.17-1.41.28-.55.42-1.16.42-1.78s-.14-1.23-.42-1.79c-.28-.55-.68-1.04-1.17-1.41-.44-.33-.53-.96-.2-1.4Z" style="fill-rule:evenodd; stroke-width:0px;"/></g></svg>