<?xml version="1.0" encoding="UTF-8"?>
<svg id="a" data-name="Layer 1" xmlns="http://www.w3.org/2000/svg" width="20" height="20" viewBox="0 0 20 20">
  <path d="M4.44,2.22c-1.23,0-2.22.99-2.22,2.22v11.76l2.55-2.55c.21-.21.49-.33.79-.33h10c1.23,0,2.22-.99,2.22-2.22v-6.67c0-1.23-.99-2.22-2.22-2.22H4.44ZM0,4.44C0,1.99,1.99,0,4.44,0h11.11c2.45,0,4.44,1.99,4.44,4.44v6.67c0,2.45-1.99,4.44-4.44,4.44H6.02l-4.12,4.12c-.32.32-.8.41-1.21.24C.27,19.74,0,19.34,0,18.89V4.44ZM10,3.33c.61,0,1.11.5,1.11,1.11v3.33c0,.61-.5,1.11-1.11,1.11s-1.11-.5-1.11-1.11v-3.33c0-.61.5-1.11,1.11-1.11ZM10,10c.61,0,1.11.5,1.11,1.11h0c0,.62-.5,1.12-1.11,1.12s-1.11-.5-1.11-1.11h0c0-.62.5-1.12,1.11-1.12Z" fill="#1d1d1b" fill-rule="evenodd"/>
</svg>