<?xml version="1.0" encoding="UTF-8"?><svg id="Layer_1" xmlns="http://www.w3.org/2000/svg" width="36" height="36" viewBox="0 0 36 36"><path d="m34.44,13.25c-1.92,1.29-4.29.94-5.89-.89-.35-.4-.62-.86-.86-1.34h4.3c.55,0,1-.45,1-1s-.45-1-1-1h-4.92c-.09-.66-.1-1.34,0-2h4.93c.55,0,1-.45,1-1s-.45-1-1-1h-4.31c.22-.44.47-.87.79-1.26,1.58-1.88,4.03-2.28,5.96-.98.46.31,1.08.19,1.39-.27.31-.46.19-1.08-.27-1.39-2.81-1.89-6.35-1.34-8.61,1.35-.63.75-1.11,1.62-1.43,2.54h-1.52c-.55,0-1,.45-1,1s.45,1,1,1h1.08c-.07.66-.07,1.34,0,2h-1.07c-.55,0-1,.45-1,1s.45,1,1,1h1.52c.34.97.85,1.88,1.53,2.66,1.35,1.54,3.14,2.35,4.96,2.35,1.22,0,2.45-.36,3.56-1.11.46-.31.58-.93.27-1.39-.31-.46-.93-.58-1.39-.27ZM2.2,36h11.6l-1.17-7.83c-.08-.52.13-1.04.51-1.28,1.6-1.05,2.66-2.87,2.84-4.89H.03c.18,2.02,1.23,3.84,2.84,4.89.38.25.59.77.51,1.28l-1.17,7.83Zm13.8-18v2H0v-2c0-.55.45-1,1-1h14c.55,0,1,.45,1,1Zm-1-12v7c0,.55-.45,1-1,1H2c-.55,0-1-.45-1-1v-7c0-.55.45-1,1-1h9v-1c0-.55.45-1,1-1s1,.45,1,1v1h1c.55,0,1,.45,1,1Z"/></svg>