<?xml version="1.0" encoding="UTF-8"?><svg id="Layer_1" xmlns="http://www.w3.org/2000/svg" width="35.98" height="36" viewBox="0 0 35.98 36"><path d="m20.62,28h0c1.15,0,1.85,1.23,1.31,2.25-1.74,3.25-5.42,5.31-9.48,4.62-3.7-.62-6.69-3.61-7.31-7.31-.68-4.06,1.38-7.74,4.62-9.48,1.01-.55,2.25.16,2.25,1.31h0c0,.56-.31,1.06-.81,1.32-2.23,1.18-3.63,3.72-3.07,6.52.46,2.32,2.34,4.19,4.65,4.65,2.79.56,5.33-.84,6.52-3.07.26-.49.77-.81,1.32-.81Zm-2.12-20c1.93,0,3.5-1.57,3.5-3.5s-1.57-3.5-3.5-3.5-3.5,1.57-3.5,3.5,1.57,3.5,3.5,3.5Zm8.5,13h-5v-7.3c0-1.9-1.42-3.59-3.31-3.69-2.02-.11-3.69,1.5-3.69,3.49l.05,8c.25,1.97,1.91,3.5,3.95,3.5h8v9c0,.55.45,1,1,1h2c.55,0,1-.45,1-1v-9c0-2.21-1.79-4-4-4Z"/></svg>