<?xml version="1.0" encoding="UTF-8"?><svg id="Layer_1" xmlns="http://www.w3.org/2000/svg" width="36" height="36" viewBox="0 0 36 36"><path d="m17,3.5c0-1.93,1.57-3.5,3.5-3.5s3.5,1.57,3.5,3.5-1.57,3.5-3.5,3.5-3.5-1.57-3.5-3.5Zm13.02,26.53c-1.65,0-2.98,1.34-2.98,2.98s1.33,2.98,2.98,2.98,2.98-1.33,2.98-2.98-1.33-2.98-2.98-2.98Zm-8.37-13.65c.64,1.01,1.73,1.61,2.92,1.61h4.43c.55,0,1-.45,1-1v-1c0-.55-.45-1-1-1h-4.45c0-.33-4.13-6.1-4.13-6.11-.71-.93-2.53-1.18-3.91-.74,0,0-5.94,2.41-6.9,2.81-.86.36-1.62,1.01-1.62,2.03v5c0,.55.45,1,1,1h.99c.56,0,1.01-.45,1-1l-.03-4.08s2.46-.99,3.59-1.44l-1.23,5.47c-.24,1.07.12,2.19.95,2.91l5.73,5.02v9.12c0,.55.45,1,1,1h1c.55,0,1-.45,1-1v-9.15c0-.95-.42-1.85-1.15-2.47l-3.01-2.83,1.48-6.22,1.32,2.05Zm-10.68,9.61h-6.97c-.55,0-1,.45-1,1v1c0,.55.45,1,1,1h7.96c.6,0,1.14-.36,1.38-.91l1.38-4.14-2.44-2.12-1.3,4.16Z"/></svg>