<?xml version="1.0" encoding="UTF-8"?>
<svg id="a" data-name="Layer 1" xmlns="http://www.w3.org/2000/svg" width="20" height="20" viewBox="0 0 20 20">
  <path d="M8.69,20h-4c-.55,0-1-.45-1-1s.45-1,1-1h4c.55,0,1,.45,1,1s-.45,1-1,1Z"/>
  <path d="M6.69,20c-.55,0-1-.45-1-1V1c0-.55.45-1,1-1s1,.45,1,1v18c0,.55-.45,1-1,1Z"/>
  <path d="M6.69,11c-.38,0-.75-.22-.91-.59-.22-.51,0-1.1.51-1.32l6.94-3.09-6.94-3.09c-.51-.23-.73-.82-.51-1.32.23-.5.82-.73,1.32-.51l9,4c.36.16.59.52.59.91s-.23.75-.59.91l-9,4c-.13.06-.27.09-.41.09Z"/>
</svg>