<?xml version="1.0" encoding="UTF-8"?><svg id="Layer_1" xmlns="http://www.w3.org/2000/svg" width="36" height="36" viewBox="0 0 36 36">
  <path class="cls-1" d="M6.02,21.04c0-1.8.65-3.41,1.73-4.64-.13-.02-.25-.04-.39-.04H2.62C1.17,16.36,0,17.53,0,18.97v4.37C0,23.89.45,24.34,1.01,24.34h5.01v-3.3Z"/>
  <path class="cls-1" d="M2.05,12.35c0-1.61,1.31-2.91,2.92-2.91s2.93,1.3,2.93,2.91-1.31,2.91-2.93,2.91-2.92-1.3-2.92-2.91Z"/>
  <path class="cls-1" d="M6.68,7.62c-.15,0-.29-.03-.43-.1-.5-.24-.71-.83-.47-1.33l.64-1.33h-2.3S6.27.55,6.27.55c.25-.49.85-.7,1.34-.45.5.24.7.84.45,1.34l-.71,1.42h2.26s-2.04,4.2-2.04,4.2c-.17.36-.53.56-.9.56Z"/>
  <path class="cls-1" d="M2.49,7.62c-.3,0-.6-.13-.8-.39l-.89-1.16c-.34-.44-.25-1.06.19-1.4.44-.33,1.07-.25,1.4.19l.89,1.16c.34.44.25,1.06-.19,1.4-.18.14-.4.21-.61.21Z"/>
  <path class="cls-1" d="M23.98,16.18c.32-.76.5-1.6.5-2.48,0-3.53-2.87-6.38-6.41-6.38s-6.41,2.86-6.41,6.38c0,.87.17,1.69.49,2.44-2.39.39-4.13,2.37-4.13,4.89v10.97c0,.55.45,1,1,1h2v1.99c-.01.55.44,1,.99,1h11.85c.56,0,1-.45,1-1v-1.99s1.99,0,1.99,0c.55,0,1-.45,1-1v-10.97c0-2.44-1.62-4.38-3.89-4.86ZM18.24,20.82c-1.96,0-3.65-1.13-4.46-2.76.62.19,1.27.3,1.96.3,1.58,0,3.04-.57,4.16-1.52.73-.62,1.72-.78,2.58-.35.21.1.42.19.65.26-.41,2.32-2.45,4.07-4.89,4.07Z"/>
  <path class="cls-1" d="M29.98,21.04c0-1.8-.65-3.41-1.73-4.64.13-.02.25-.04.39-.04h4.74c1.44,0,2.62,1.17,2.62,2.61v4.37c0,.56-.45,1.01-1.01,1.01h-5.01v-3.3Z"/>
  <path class="cls-1" d="M33.95,12.35c0-1.61-1.31-2.91-2.92-2.91s-2.93,1.3-2.93,2.91c0,1.61,1.31,2.91,2.93,2.91s2.92-1.3,2.92-2.91Z"/>
  <path class="cls-1" d="M29.32,7.62c.15,0,.29-.03.43-.1.5-.24.71-.83.47-1.33l-.64-1.33h2.3s-2.15-4.3-2.15-4.3c-.25-.49-.85-.7-1.34-.45-.5.24-.7.84-.45,1.34l.71,1.42h-2.26s2.04,4.2,2.04,4.2c.17.36.53.56.9.56Z"/>
  <path class="cls-1" d="M33.51,7.62c.3,0,.6-.13.8-.39l.89-1.16c.34-.44.25-1.06-.19-1.4-.44-.33-1.07-.25-1.4.19l-.89,1.16c-.34.44-.25,1.06.19,1.4.18.14.4.21.61.21Z"/>
</svg>