<?xml version="1.0" encoding="UTF-8"?><svg id="Layer_1" xmlns="http://www.w3.org/2000/svg" width="36" height="36" viewBox="0 0 36 36"><path d="m11.26,12.62c-1.43,2.26-2.76,5.45-2.23,9.07h0s.25,1.02.25,1.02l-4.29,1.05c-.56.14-1.12-.22-1.22-.79l-.03-.24c1.05-4.55,3.79-7.99,7.52-10.1Zm-.23,8.62v.08s.22.91.22.91l5.32-1.25-2.3-8.81c-1.46,1.77-3.69,5.19-3.24,9.06Zm12.86-2.04l-.28-1.06c-1.54-3.6-5.2-5.57-7.37-6.44l2.34,8.8,5.31-1.3Zm1.7-1.56l.26,1.08,4.32-1.06c.52-.13.85-.65.74-1.17l-.08-.4c-3.2-3.53-7.4-5.28-11.75-5.4,2.39,1.32,5.17,3.51,6.51,6.95ZM5.63,9c2.48,0,4.5-2.01,4.5-4.5S8.11,0,5.63,0,1.13,2.01,1.13,4.5s2.01,4.5,4.5,4.5Zm11.46,13.81l2.99,12.42c.11.45.51.77.97.77h0c.65,0,1.12-.61.97-1.23l-2.99-12.42-1.94.47Zm18.92,7.77c0-.55-.44-.99-.99-.99-.17,0-.33.06-.47.14-.78.24-1.45.66-2.21.97-1.77.73-3.03-.04-4.47-.65-.39-.18-.79-.3-1.19-.39-.06-.01-.11-.04-.16-.05-1.2-.26-2.43-.13-3.57.3l.49,1.99c.12-.06.25-.12.37-.17.65-.24,1.33-.31,2-.22.63.12,1.23.38,1.81.7.4.22.82.37,1.23.49h0c.07,0,.13.04.19.05,1.41.4,2.87.29,4.22-.27.69-.29,1.3-.68,1.99-.89.38-.12.64-.42.71-.8.02-.07.04-.14.04-.22Zm-19.21-.53s-.09-.04-.14-.06c-.09-.04-.17-.05-.26-.08-.28-.12-.57-.22-.89-.29-.31-.07-.62-.1-.94-.12,0,0,0,0,0,0-.25-.01-.5,0-.74.01-.13,0-.26,0-.39.02-.12.02-.24.05-.36.07-.21.04-.43.06-.64.12-.34.1-.66.23-.97.38-.03.02-.07.02-.11.04-.95.45-1.79.97-2.9.9-1.07-.06-1.85-.65-2.8-1.05-1.35-.56-2.81-.66-4.22-.27-.45.12-.7.23-.83.32-.36.15-.61.5-.61.91,0,.55.44.99.99.99.04,0,.08-.02.12-.02v.03c.05-.02.11-.04.15-.06.07-.02.14-.05.21-.09.65-.28,1.71-.66,3.26-.02.85.35,1.58.84,2.5,1.06,1.33.32,2.69.17,3.95-.35.27-.11.52-.24.77-.37.96-.42,1.89-.79,3-.57.06.01.12.02.17.04.1.02.2.06.3.1.4.14.79.32,1.18.53.26.14.52.24.78.34,0,0,0,0,0,0l-.61-2.5Z"/></svg>