<?xml version="1.0" encoding="UTF-8"?><svg id="Layer_1" xmlns="http://www.w3.org/2000/svg" width="36" height="36" viewBox="0 0 36 36"><path d="m19.02,29.29v.68H1.44c-.8-.04-1.44-.7-1.44-1.51,0-.65.41-1.21.99-1.42.02,0,5.03-2.01,5.03-2.01-1.48,0-3.01-1.48-3.01-3.02V6c0-1.65,1.34-3,3-3h20.98c1.66,0,3,1.34,3,3v12.72l-1.19-.87c-.24-.18-.51-.31-.79-.41V6.03c0-.55-.44-.99-.99-.99H6.06c-.57,0-1.02.46-1.02,1.02v15.96c0,.55.44.99.99.99h12.19l-.96.7c-.65.47-1.07,1.17-1.19,1.96-.12.79.07,1.58.54,2.23l.12.16c.54.74,1.39,1.19,2.3,1.22Zm16.77-2.62l-.17.22c-.34.44-.97.51-1.41.17l-1.19-.92v5.87c0,.55-.45,1-1,1h-9.99c-.55,0-1-.45-1-1v-5.87s-1.29.96-1.29.96c-.44.33-1.07.24-1.4-.21l-.12-.16c-.33-.45-.23-1.07.22-1.4l8.01-5.86c.35-.26.83-.26,1.18,0l3.38,2.46v-.91c0-.55.45-.99,1-.99h0c.55,0,1,.45,1,1v2.37l2.57,1.86c.46.33.55.98.2,1.42Zm-6.78.34c0-.55-.45-1-1-1h-2c-.55,0-1,.45-1,1v1c0,.55.45,1,1,1h2c.55,0,1-.45,1-1v-1Zm-14.03-12.05h0c.39-.39.39-1.02,0-1.41l-3.57-3.57h1.68c.55,0,1-.45,1-1h0c0-.55-.45-1-1-1h-4.11c-.55,0-1,.45-1,1v4.11c0,.55.45,1,1,1h0c.55,0,1-.45,1-1v-1.71s3.59,3.59,3.59,3.59c.39.39,1.02.39,1.41,0Z"/></svg>