<?xml version="1.0" encoding="UTF-8"?><svg id="Layer_1" xmlns="http://www.w3.org/2000/svg" width="36" height="36" viewBox="0 0 36 36"><path d="m16,32.56v2.44c0,.55-.45,1-1,1H4c-.55,0-1-.45-1-1v-2.16c0-1.55,1.3-2.8,2.95-2.8h7.08c1.55,0,2.81,1.11,2.96,2.52Zm-6.5-4.55c1.94,0,3.51-1.57,3.51-3.51s-1.57-3.51-3.51-3.51-3.51,1.57-3.51,3.51,1.57,3.51,3.51,3.51ZM33,2v16.03c0,1.1-.89,2-2,2h-8s-3.88,3.82-3.88,3.82c-.1.09-.22.14-.35.14-.06,0-.13-.01-.19-.04-.19-.08-.31-.26-.31-.46l-.03-3.47h-2.25c-1.1,0-2-.89-2-2V2c0-1.1.89-2,2-2h15c1.11,0,2,.9,2,2Zm-10.9,5c.69-1.21,1.78-2,3.02-2,.79,0,1.55.32,2.2.93.4.38,1.04.36,1.41-.04.38-.4.36-1.04-.04-1.41-1.02-.96-2.26-1.47-3.57-1.47-2.31,0-4.3,1.64-5.23,4h-.89c-.55,0-1,.45-1,1s.45,1,1,1h.38c-.04.33-.07.66-.07,1s.03.67.07,1h-.38c-.55,0-1,.45-1,1s.45,1,1,1h.89c.93,2.36,2.93,4,5.23,4,1.31,0,2.54-.51,3.56-1.47.4-.38.42-1.01.04-1.41-.38-.4-1.01-.42-1.41-.04-.65.61-1.41.93-2.2.93-1.24,0-2.33-.79-3.02-2h2.9c.55,0,1-.45,1-1s-.45-1-1-1h-3.6c-.05-.32-.08-.66-.08-1s.03-.68.08-1h3.6c.55,0,1-.45,1-1s-.45-1-1-1h-2.9Z"/></svg>