<?xml version="1.0" encoding="UTF-8"?><svg id="Layer_1" xmlns="http://www.w3.org/2000/svg" width="36" height="36" viewBox="0 0 36 36"><path d="m1.85,5.84c0-1.65,1.35-2.99,2.99-2.99s2.99,1.35,2.99,2.99-1.35,2.99-2.99,2.99-2.99-1.35-2.99-2.99Zm5.22,4.16H2.84c-1.61.1-2.84,1.42-2.84,3.11v5.89c0,.55.45,1,1,1h1v7c0,.55.45,1,1,1h4c.55,0,1-.45,1-1v-7h1c.55,0,1-.45,1-1v-5.9c0-1.72-1.27-3.07-2.93-3.11Zm11.99,20h0c-.36,0-.69.19-.87.5l-2.31,4c-.38.67.1,1.5.87,1.5h0c.36,0,.69-.19.87-.5l2.31-4c.38-.67-.1-1.5-.87-1.5Zm13.78.5c-.18-.31-.51-.5-.87-.5h0c-.77,0-1.25.83-.87,1.5l2.31,4c.18.31.51.5.87.5h0c.77,0,1.25-.83.87-1.5l-2.31-4Zm3.16-18.38l-.04,9.95c0,3.27-2.63,5.93-5.88,5.93h-9.78c-2.93,0-5.3-2.37-5.3-5.3v-10.58c0-3.15,1.01-4.61,2-5.16v-1.94c.03-2.46,2.52-5.01,4.98-5.01h7.06c2.73,0,4.94,2.2,4.96,4.93v2.06c.96.53,2,2.11,2,5.13Zm-15.02,8.4c0-.82-.67-1.48-1.5-1.48s-1.5.66-1.5,1.48.67,1.48,1.5,1.48,1.5-.66,1.5-1.48Zm6-9.04c0-.82-.67-1.48-1.5-1.48s-1.5.66-1.5,1.48.67,1.48,1.5,1.48,1.5-.66,1.5-1.48Zm2.02-5.49h1.02c.54-.02.98-.46.99-1v-.46c.01-.85-.68-1.53-1.52-1.52h-7.99c-.84.01-1.51.7-1.5,1.53v.48c.01.55.46.99,1.01.99m11.97,14.51c0-.82-.67-1.48-1.5-1.48s-1.5.66-1.5,1.48.67,1.48,1.5,1.48,1.5-.66,1.5-1.48Z"/></svg>