<?xml version="1.0" encoding="UTF-8"?><svg id="Layer_1" xmlns="http://www.w3.org/2000/svg" width="36" height="36" viewBox="0 0 36 36"><path d="M36,6.84c-1.33,.59-2.75,.99-4.24,1.16,1.53-.91,2.7-2.36,3.25-4.09-1.43,.85-3.01,1.46-4.69,1.79-1.35-1.44-3.27-2.33-5.39-2.33-4.08,0-7.39,3.31-7.39,7.39,0,.58,.06,1.14,.19,1.68-6.14-.31-11.58-3.25-15.22-7.72-.63,1.09-1,2.36-1,3.71,0,2.56,1.3,4.82,3.28,6.15-1.21-.04-2.35-.37-3.34-.92v.09c0,3.58,2.55,6.56,5.92,7.24-.62,.17-1.27,.26-1.95,.26-.47,0-.94-.05-1.39-.14,.94,2.93,3.67,5.07,6.9,5.13-2.53,1.98-5.71,3.16-9.17,3.16-.6,0-1.18-.03-1.76-.1,3.27,2.09,7.15,3.32,11.32,3.32,13.58,0,21.01-11.25,21.01-21.01,0-.32,0-.64-.02-.96,1.44-1.04,2.69-2.34,3.69-3.82Z"/></svg>