<?xml version="1.0" encoding="UTF-8"?><svg id="Layer_1" xmlns="http://www.w3.org/2000/svg" width="14" height="20" xmlns:xlink="http://www.w3.org/1999/xlink" viewBox="0 0 14 20"><defs><clipPath id="clippath"><rect width="14" height="20" style="fill:none; stroke-width:0px;"/></clipPath></defs><g style="clip-path:url(#clippath);"><path d="m7,0c-1.33,0-2.6.53-3.54,1.46-.94.94-1.46,2.21-1.46,3.54s.53,2.6,1.46,3.54c.94.94,2.21,1.46,3.54,1.46s2.6-.53,3.54-1.46c.94-.94,1.46-2.21,1.46-3.54s-.53-2.6-1.46-3.54c-.94-.94-2.21-1.46-3.54-1.46Zm-2.12,2.88c.56-.56,1.33-.88,2.12-.88s1.56.32,2.12.88c.56.56.88,1.33.88,2.12s-.32,1.56-.88,2.12c-.56.56-1.33.88-2.12.88s-1.56-.32-2.12-.88c-.56-.56-.88-1.33-.88-2.12s.32-1.56.88-2.12Zm-2,12c.56-.56,1.33-.88,2.12-.88h4c.8,0,1.56.32,2.12.88.56.56.88,1.33.88,2.12v2c0,.55.45,1,1,1s1-.45,1-1v-2c0-1.33-.53-2.6-1.46-3.54-.94-.94-2.21-1.46-3.54-1.46h-4c-1.33,0-2.6.53-3.54,1.46-.94.94-1.46,2.21-1.46,3.54v2c0,.55.45,1,1,1s1-.45,1-1v-2c0-.8.32-1.56.88-2.12Z" style="fill-rule:evenodd; stroke-width:0px;"/></g></svg>