<?xml version="1.0" encoding="UTF-8"?><svg id="Layer_1" xmlns="http://www.w3.org/2000/svg" width="36" height="36" viewBox="0 0 36 36"><path d="m9.06,22.02H-.97c-.55,0-1,.44-1,.99-.01,1.84-.03,5.61-.03,5.61,0,3.3,2.04,5.62,5.58,7.28.27.13.59.13.86,0,3.54-1.67,5.58-4.1,5.58-7.4,0,0,.02-3.66.03-5.48,0-.55-.44-1.01-1-1.01Zm-1.77,5.45l-3.66,3.66c-.39.39-1.02.39-1.41,0l-1.45-1.45c-.39-.39-.39-1.02,0-1.41h0c.39-.38,1.01-.38,1.4,0l.76.76,2.96-2.96c.39-.39,1.01-.39,1.39,0h0c.39.39.39,1.01,0,1.4Zm25.71-14.46h-5.99v-5.85c0-.17-.04-.34-.13-.49L23.37.46c-.39-.61-1.28-.61-1.68,0l-3.54,6.21c-.09.15-.13.32-.13.5v4.71l-3.79-3.59c-.19-.18-.43-.27-.69-.27H-.96c-.89,0-1.34,1.08-.71,1.71l5.71,4.37v5.93s5.59,0,5.59,0c2.15-1.79,5.75-4.78,5.75-4.78.37-.29.89-.28,1.25.02l5.4,4.28v-1.54c0-.54.44-.98.97-.98h.05c.54,0,.97.44.97.98v3.11l2.05,1.83c.64.61.11,1.34.11,1.34-.37.46-1.06.48-1.46.06l-.69-.73v9.41h5.97s3,0,3,0c.55,0,1-.45,1-1V14.01c0-.55-.45-1-1-1Zm-10.47-2.93c-.83,0-1.5-.67-1.5-1.5s.67-1.5,1.5-1.5,1.5.67,1.5,1.5-.67,1.5-1.5,1.5Zm-4.52,16.93v1c0,.55-.45,1-1,1h-2c-.55,0-1-.45-1-1v-1c0-.55.45-1,1-1h2c.55,0,1,.45,1,1Z"/></svg>