<?xml version="1.0" encoding="UTF-8"?><svg id="Layer_1" xmlns="http://www.w3.org/2000/svg" width="36" height="36" viewBox="0 0 36 36"><path d="m6,5c0-1.65,1.35-3,3-3s3,1.35,3,3-1.35,3-3,3-3-1.35-3-3Zm3.01,18.99c1.65,0,3-1.35,3-3s-1.35-3-3-3-3,1.35-3,3,1.35,3,3,3Zm2.16,1.56h-4.22c-1.66.03-2.94,1.33-2.94,3v2.6c2.5,1.41,6,2.43,10,2.85v-5.45c0-1.63-1.23-2.91-2.83-3Zm2.83-11.41v-1.65c0-1.67-1.28-2.97-2.94-3.01h-4.22c-1.61.1-2.84,1.37-2.84,3.01v4.5c2.5-1.41,6-2.44,10.01-2.85Zm12.99-6.14c-1.65,0-3-1.35-3-3,0-1.65,1.35-3,3-3s3,1.35,3,3c0,1.65-1.35,3-3,3Zm2.99,12.99c0-1.65-1.35-3-3-3s-3,1.35-3,3c0,1.65,1.35,3,3,3s3-1.35,3-3Zm-8,7.56v5.45c4.01-.42,7.51-1.44,10.01-2.85v-2.6c0-1.67-1.28-2.97-2.94-3.01h-4.22c-1.61.1-2.84,1.37-2.84,3.01Zm10.01-11.56v-4.5c0-1.63-1.23-2.91-2.84-3h-4.22c-1.66.03-2.94,1.33-2.94,3v1.65c4.01.42,7.51,1.44,10.01,2.85Z"/></svg>