<?xml version="1.0" encoding="UTF-8"?><svg id="Layer_1" xmlns="http://www.w3.org/2000/svg" width="36" height="36" viewBox="0 0 36 36"><path d="m6.97,13c0,1.1.9,2,2,2s2-.9,2-2v-1h-4v1Z"/><path d="m35.81,17.6l-2.07-4.44c-.33-.71-1.04-1.16-1.82-1.16h-3.94v-5c0-1.1-.9-2-2-2H2c-1.11,0-2,.9-2,2v19c0,1.1.9,2,2,2h1.01c-.02.17-.05.33-.05.5,0,2.48,2.02,4.5,4.5,4.5s4.5-2.02,4.5-4.5c0-.17-.03-.33-.05-.5h12.11c-.02.17-.05.33-.05.5,0,2.48,2.02,4.5,4.5,4.5s4.5-2.02,4.5-4.5c0-.17-.03-.33-.05-.5h1.05c1.1,0,2-.9,2-2v-7.56c0-.29-.06-.58-.19-.84ZM7.47,31c-1.38,0-2.5-1.12-2.5-2.5s1.12-2.5,2.5-2.5,2.5,1.12,2.5,2.5-1.12,2.5-2.5,2.5Zm5.51-18c0,1.86-1.28,3.41-3,3.86v2.14h2c.55,0,1,.45,1,1s-.45,1-1,1h-6.01c-.55,0-1-.45-1-1s.45-1,1-1h2v-2.14c-1.72-.45-3-2-3-3.86v-2c0-.55.45-1,1-1h6.01c.55,0,1,.45,1,1v2Zm9.64,1.89h0c-.39.39-1.02.39-1.42,0l-1.22-1.21v6.33c0,.55-.45,1-1,1h0c-.55,0-1-.45-1-1v-6.3l-1.19,1.19c-.39.39-1.02.39-1.42,0h0c-.39-.39-.39-1.02,0-1.41l2.91-2.91c.39-.39,1.02-.39,1.42,0l2.91,2.91c.39.39.39,1.02,0,1.41Zm5.88,16.11c-1.38,0-2.5-1.12-2.5-2.5s1.12-2.5,2.5-2.5,2.5,1.12,2.5,2.5-1.12,2.5-2.5,2.5Zm5.51-12h-6.01v-5h4l2,4v1Z"/></svg>