<?xml version="1.0" encoding="UTF-8"?><svg id="Layer_1" xmlns="http://www.w3.org/2000/svg" width="36" height="36" viewBox="0 0 36 36"><path d="m17.8,28h.39c3.76,0,6.8-3.06,6.8-6.84V6.84c0-3.78-3.05-6.84-6.8-6.84h-.39c-3.76,0-6.8,3.06-6.8,6.84v14.33c0,3.78,3.05,6.84,6.8,6.84Zm.2-23.31c1.08,0,1.95.88,1.95,1.96s-.88,1.96-1.95,1.96-1.95-.88-1.95-1.96.88-1.96,1.95-1.96Zm0,7.31c1.08,0,1.95.88,1.95,1.96s-.88,1.96-1.95,1.96-1.95-.88-1.95-1.96.88-1.96,1.95-1.96Zm0,7.31c1.08,0,1.95.88,1.95,1.96s-.88,1.96-1.95,1.96-1.95-.88-1.95-1.96.88-1.96,1.95-1.96Zm-1.98,12.69h3.98c.55,0,.99-.45.99-1h0c0-.55-.45-1-.99-1h-3.98c-.55,0-.99.45-.99,1h0c0,.55.45,1,.99,1Zm0,4h3.98c.55,0,.99-.45.99-1h0c0-.55-.45-1-.99-1h-3.98c-.55,0-.99.45-.99,1h0c0,.55.45,1,.99,1Z"/></svg>