<?xml version="1.0" encoding="UTF-8"?>
<svg id="a" data-name="Layer 1" xmlns="http://www.w3.org/2000/svg" width="20" height="20" viewBox="0 0 20 20">
  <path d="M18.89,19.39H1.11C.5,19.39,0,18.89,0,18.28s.5-1.11,1.11-1.11h17.78c.61,0,1.11.5,1.11,1.11s-.5,1.11-1.11,1.11Z"/>
  <path d="M12.89,8.28h-5.78c-.61,0-1.11-.5-1.11-1.11s.5-1.11,1.11-1.11h5.78c.61,0,1.11.5,1.11,1.11s-.5,1.11-1.11,1.11Z"/>
  <path d="M14.67,13.83H5.33c-.61,0-1.11-.5-1.11-1.11s.5-1.11,1.11-1.11h9.33c.61,0,1.11.5,1.11,1.11s-.5,1.11-1.11,1.11Z"/>
  <path d="M16.67,19.39c-.47,0-.9-.3-1.05-.76L10.31,2.72h-.62l-5.3,15.91c-.19.58-.82.89-1.41.7-.58-.19-.9-.82-.7-1.41L7.83,1.26c.15-.45.58-.76,1.05-.76h2.22c.48,0,.9.31,1.05.76l5.56,16.67c.19.58-.12,1.21-.7,1.41-.12.04-.24.06-.35.06Z"/>
</svg>