<?xml version="1.0" encoding="UTF-8"?><svg id="Layer_1" xmlns="http://www.w3.org/2000/svg" width="36" height="36" viewBox="0 0 36 36"><path d="m36,6.61h0c0,.66-.69,1.1-1.29.82L23,1.8l-11.71,5.64c-.6.28-1.29-.16-1.29-.82h0c0-.35.21-.68.53-.82L22.16.18c.53-.25,1.14-.25,1.68,0l11.63,5.61c.32.15.53.47.53.82Zm-18.5,8.39c1.93,0,3.5-1.57,3.5-3.5s-1.57-3.5-3.5-3.5-3.5,1.57-3.5,3.5,1.57,3.5,3.5,3.5Zm11,0c1.93,0,3.5-1.57,3.5-3.5s-1.57-3.5-3.5-3.5-3.5,1.57-3.5,3.5,1.57,3.5,3.5,3.5Zm5.5,17h-2v3c0,.55-.45,1-1,1h-2.99v-5.93c0-1.14-.93-2.06-2.07-2.06h-6.93v-.47c0-1.95-1.58-3.53-3.53-3.53h-1.47v-.54c0-1.68-1.39-3.15-3-3.46,0-.02,0-3,3-3h18c1.66,0,3,1.34,3,3v11c0,.55-.45,1-1,1Zm-7.99-9c0-1.66-1.34-3-3-3s-3,1.34-3,3,1.34,3,3,3,3-1.34,3-3Zm-9.01,4.53v6.97c0,.83-.67,1.5-1.5,1.5H1.5c-.83,0-1.5-.67-1.5-1.5v-7.01c0-.83.67-1.5,1.5-1.5h3.5v-2.51c0-.83.69-1.49,1.54-1.49h3.95c.84,0,1.51.65,1.51,1.46v2.54h3.47c.84,0,1.53.69,1.53,1.53Zm-7-3.53h-3v2h3v-2Z"/></svg>