<?xml version="1.0" encoding="UTF-8"?><svg id="Layer_1" xmlns="http://www.w3.org/2000/svg" width="36" height="36" viewBox="0 0 36 36"><path d="m31,26.26V4h-.05c.02-.16.05-.33.05-.5,0-1.93-1.57-3.5-3.5-3.5s-3.5,1.57-3.5,3.5c0,.17.03.34.05.5h-.05v22.26c-1.22,1.01-2,2.53-2,4.24,0,3.04,2.46,5.5,5.5,5.5s5.5-2.46,5.5-5.5c0-1.71-.78-3.23-2-4.24Zm-3.5,7.74c-1.93,0-3.5-1.57-3.5-3.5,0-1.39.82-2.59,2-3.15v-13.35c0-.83.67-1.5,1.5-1.5s1.5.67,1.5,1.5v13.35c1.18.56,2,1.76,2,3.15,0,1.93-1.57,3.5-3.5,3.5ZM11,0C6.58,0,3,3.58,3,8s3.58,8,8,8,8-3.58,8-8S15.42,0,11,0Zm-.07,4h0c.55,0,1,.45,1,1v3c0,.55-.45,1-1,1h0c-.55,0-1-.45-1-1v-3c0-.55.45-1,1-1Zm.79,7.72c-.19.19-.43.28-.72.28s-.54-.09-.72-.28c-.19-.19-.28-.43-.28-.72s.09-.53.28-.72c.19-.19.43-.28.72-.28s.54.09.72.28c.19.19.28.43.28.72s-.09.53-.28.72Z"/></svg>