<?xml version="1.0" encoding="UTF-8"?><svg id="Layer_1" xmlns="http://www.w3.org/2000/svg" width="36" height="36" viewBox="0 0 36 36">
  <path class="cls-1" d="M35.19,15.49c.19-.23.16-.58-.06-.8l-.14-.14c-.7-.73-1.58-1.62-3.34-.94l-4.88,2.94c-.52.32-1.16.33-1.69.03-.53-.29-.86-.83-.87-1.44-.02-.85-.13-2.47-.25-4.35v-.07c-.18-2.58-.37-5.51-.38-7.21,0-1.05-.87-1.91-1.92-1.91s-1.86.8-1.92,1.82l-.41,8.83c-.45.11-.93.23-1.41.37L14.54,1.47c-.28-1.03-1.35-1.66-2.38-1.41-1.05.26-1.68,1.29-1.44,2.35l3.12,11.66c-.21.09-.42.18-.64.28L7.29,5.92c-.58-.83-1.62-1.15-2.48-.77-.55.24-.95.71-1.11,1.29-.14.51-.07,1.04.2,1.51l5.33,8.48c-.25.15-.5.31-.76.47l-4.89-3.74c-.71-.65-1.75-.64-2.41.02-.64.64-.67,1.67-.06,2.36l4.78,4.74,7.2,10.06c.58.82.98,1.78,1.15,2.77l.48,2.9h14.23l-1.85-7.27c-.56-2.19.02-4.5,1.56-6.16l6.52-7.07ZM22.5,22.51c0,2.84-1.77,4.95-4.82,6.38-.23.11-.51.11-.74,0-3.06-1.43-4.82-3.43-4.82-6.28,0,0,.02-3.25.03-4.84,0-.47.39-.86.86-.86h8.66c.48,0,.87.39.86.87,0,1.57-.03,4.73-.03,4.73Z"/>
  <path class="cls-1" d="M20.58,21.37l-3.66,3.66c-.39.39-1.02.39-1.41,0l-1.45-1.45c-.39-.39-.39-1.02,0-1.41h0c.39-.38,1.01-.38,1.4,0l.76.76,2.96-2.96c.39-.39,1.01-.39,1.4,0h0c.39.39.39,1.01,0,1.4Z"/>
</svg>