<?xml version="1.0" encoding="UTF-8"?>
<svg id="a" data-name="Layer 1" xmlns="http://www.w3.org/2000/svg" width="35" height="36" viewBox="0 0 35 36">
  <path d="M34,29.93h-2.48l-1.09-3h1.57c.55,0,1-.45,1-1h0c0-.55-.45-1-1-1h-11c-.55,0-1,.45-1,1h0c0,.55.45,1,1,1h1.57l-1.09,3h-2.48c-.55,0-1,.45-1,1h0c0,.55.45,1,1,1h1.75l-.97,2.66c-.24.65.25,1.34.94,1.34h0c.42,0,.79-.26.94-.66l1.22-3.34h7.24l1.22,3.34c.14.39.52.66.94.66h0c.69,0,1.17-.69.94-1.34l-.97-2.66h1.75c.55,0,1-.45,1-1h0c0-.55-.45-1-1-1ZM23.61,29.93l1.09-3h3.6l1.09,3h-5.78ZM19.46,22.15c.72-1.17,1-2.52.82-3.86.29-.29.54-.61.77-.95.86-1.33,1.15-2.91.81-4.46-.28-1.26-.95-2.38-1.92-3.21.79-2.05.37-4.39-1.14-6.05-1.02-1.12-2.45-1.81-3.99-1.94-.98-1.08-2.35-1.68-3.82-1.68s-2.83.6-3.81,1.67c-.87.07-1.72.31-2.47.73-1.41.78-2.42,2.05-2.84,3.59-.34,1.23-.28,2.51.17,3.68-.24.2-.46.43-.66.67C.37,11.56-.12,13.1.02,14.67c.13,1.38.72,2.65,1.69,3.62-.02.14-.03.29-.04.43-.09,1.57.43,3.08,1.48,4.26,1.07,1.2,2.54,1.91,4.19,2.01h2.66v10.01c0,.55.45,1,1,1s1-.45,1-1v-10h2.33c.47,0,.93-.05,1.39-.16,1.57-.37,2.9-1.32,3.74-2.69ZM18.23,18.17c.24,1.01.08,2.05-.47,2.94-.56.91-1.44,1.54-2.5,1.79-.3.07-.62.11-.93.11h-2.33s0-5.59,0-5.59l2.71-2.71c.39-.39.39-1.02,0-1.41s-1.02-.39-1.41,0l-1.29,1.29v-4.59c0-.55-.45-1-1-1s-1,.45-1,1v7.58l-1.29-1.29c-.39-.39-1.02-.39-1.41,0-.39.39-.39,1.02,0,1.41l2.71,2.71v2.6h-2.3s-.26,0-.26,0c-1.08-.06-2.07-.54-2.78-1.34-.69-.78-1.04-1.78-.98-2.81.01-.23.05-.45.1-.68l.15-.61-.48-.4c-.82-.67-1.32-1.62-1.42-2.66-.09-1.04.23-2.06.91-2.86.26-.31.57-.58.92-.8l.81-.51-.47-.83c-.52-.91-.65-1.96-.37-2.96.28-1.02.96-1.86,1.89-2.38.58-.32,1.26-.5,1.96-.5h.51s.3-.4.3-.4c.61-.8,1.53-1.26,2.53-1.26s1.93.46,2.54,1.27l.3.4h.5c1.17,0,2.23.46,2.99,1.3,1.13,1.25,1.34,3.07.5,4.53l-.47.83.81.51c.9.57,1.52,1.45,1.75,2.48.22,1.02.03,2.06-.54,2.94h0c-.22.34-.49.65-.81.9l-.49.4.15.61Z"/>
</svg>