<?xml version="1.0" encoding="UTF-8"?>
<svg id="a" data-name="Layer 1" xmlns="http://www.w3.org/2000/svg" width="36" height="36" viewBox="0 0 36 36">
  <path d="M9.07,8.58c0-.55.45-1,1-1h6.54c1.91,0,3.62,1.06,4.48,2.76l3.9,7.79c.25.49.05,1.09-.45,1.34-.14.07-.3.11-.45.11-.37,0-.72-.2-.9-.55l-2.99-5.97-9.64,5.39c-.16.09-.33.13-.5.13-.35,0-.69-.18-.87-.5-.27-.48-.11-1.09.37-1.36l9.72-5.47c-.51-1.02-1.54-1.66-2.69-1.66h-6.54c-.55,0-1-.45-1-1ZM24.08,12.08c0-2.48,2.02-4.5,4.51-4.5s4.51,2.02,4.51,4.5-2.02,4.5-4.51,4.5-4.51-2.02-4.51-4.5ZM26.08,12.08c0,1.38,1.12,2.5,2.51,2.5s2.51-1.12,2.51-2.5-1.12-2.5-2.51-2.5-2.51,1.12-2.51,2.5ZM1.55,22.4c1.64-.9,3.83-.72,5.22.43,2.36,1.97,6.06,1.97,8.42,0,1.59-1.33,4.26-1.33,5.85,0,1.18.99,2.69,1.48,4.21,1.48s3.03-.49,4.21-1.48c1.35-1.13,3.52-1.33,5.14-.47.49.26,1.1.07,1.35-.42.26-.49.07-1.09-.42-1.35-2.36-1.24-5.38-.95-7.36.71-1.59,1.33-4.26,1.33-5.85,0-2.36-1.97-6.06-1.97-8.42,0-1.59,1.33-4.26,1.33-5.85,0-2.02-1.69-5.1-1.96-7.47-.65-.48.27-.66.88-.39,1.36.27.48.88.66,1.36.39ZM35.53,25.86c-2.36-1.24-5.38-.95-7.36.71-1.59,1.33-4.26,1.33-5.85,0-2.36-1.97-6.06-1.97-8.42,0-1.59,1.33-4.26,1.33-5.85,0-2.02-1.69-5.1-1.96-7.47-.65-.48.27-.66.88-.39,1.36.27.48.88.66,1.36.39,1.64-.9,3.83-.72,5.22.43,2.36,1.97,6.06,1.97,8.42,0,1.59-1.33,4.26-1.33,5.85,0,1.18.99,2.69,1.48,4.21,1.48s3.03-.49,4.21-1.48c1.35-1.13,3.52-1.33,5.14-.47.49.26,1.1.07,1.35-.42.26-.49.07-1.09-.42-1.35Z"/>
</svg>