<?xml version="1.0" encoding="UTF-8"?>
<svg id="a" data-name="Layer 1" xmlns="http://www.w3.org/2000/svg" width="36" height="36" viewBox="0 0 36 36">
  <path d="M23.5,14.02c1.93,0,3.5-1.57,3.5-3.5s-1.57-3.5-3.5-3.5-3.5,1.57-3.5,3.5,1.57,3.5,3.5,3.5ZM23.5,9.02c.83,0,1.5.67,1.5,1.5s-.67,1.5-1.5,1.5-1.5-.67-1.5-1.5.67-1.5,1.5-1.5ZM21,21.01h0c-.55,0-1-.45-1-1v-1c0-2.21,1.79-4,4-4h2c2.76,0,4-2.24,4-5,0-.55.45-1,1-1s1,.45,1,1c0,3.52-1.61,6.43-5,6.92v8.08c0,.55-.45,1-1,1h0c-.55,0-1-.45-1-1v-8h-1c-1.1,0-2,.9-2,2v1c0,.55-.45,1-1,1ZM35,34.01h-2.47c-.74,0-1.45-.32-1.94-.76l-15.59-15.82V6.92c0-.57-.24-1.11-.66-1.49L8.77.45c-.73-.59-1.77-.59-2.5,0L.67,5.43C.25,5.81,0,6.36,0,6.93v28.08c0,.55.45,1,1,1s1-.45,1-1v-14.99h11v14.99c0,.55.45,1,1,1s1-.45,1-1v-14.84l13.88,14.29c1.1,1,2.53,1.55,4.02,1.55h2.1c.55,0,1-.45,1-1h0c0-.55-.45-1-1-1ZM13,18.02H2s0-11.03,0-11.03L7.52,2.01l5.48,4.97v11.04ZM4,10.52c0,1.93,1.57,3.5,3.5,3.5s3.5-1.57,3.5-3.5-1.57-3.5-3.5-3.5-3.5,1.57-3.5,3.5ZM9,10.52c0,.83-.67,1.5-1.5,1.5s-1.5-.67-1.5-1.5.67-1.5,1.5-1.5,1.5.67,1.5,1.5Z"/>
</svg>