<?xml version="1.0" encoding="UTF-8"?><svg id="Layer_1" xmlns="http://www.w3.org/2000/svg" width="36" height="36" viewBox="0 0 36 36">
  <path d="M19.09,4.92H2.08C.93,4.92,0,6.09,0,7.54v12.05C0,21.05.94,22.24,2.11,22.24c0,0,6.36.02,6.36.04v3.37c0,1.18,1.13,1.78,1.8.95l3.49-4.34s5.26-.01,5.26-.01c1.19,0,2.15-1.21,2.15-2.71V7.54c0-1.45-.93-2.62-2.09-2.62ZM19.06,19.58h-5.91c-.28,0-.55.14-.75.39l-1.81,2.27v-1.3c0-.73-.47-1.33-1.06-1.33l-7.41-.02-.03-12h16.98v11.99Z"/>
  <path d="M25.41,30.99v-3.42h8.46c1.17,0,2.12-1.2,2.12-2.67v-11.96c0-1.48-.95-2.67-2.12-2.69-1.47,0-6.28,0-9.54,0-.58,0-1.05.6-1.05,1.33h0c0,.74.47,1.33,1.06,1.33h9.53v11.99h-9.53c-.58,0-1.06.6-1.06,1.33v1.33l-1.81-2.27c-.2-.25-.47-.39-.75-.39h-2.74l-1.1.02c-.57.01-1.02.59-1.02,1.31s.47,1.33,1.06,1.33h3.25s3.4,4.35,3.4,4.35c.66.85,1.81.26,1.81-.94Z"/>
</svg>