<?xml version="1.0" encoding="UTF-8"?>
<svg id="Layer_1" data-name="Layer 1" xmlns="http://www.w3.org/2000/svg" viewBox="0 0 36 36">
  <path d="M13.94,31v4c0,.55-.45,1-1,1s-1-.45-1-1v-4c0-.36-.6-1-.94-1H3c-.36,0-.6.18-.71.29-.11.11-.29.35-.29.71v4c0,.55-.45,1-1,1h0C.45,36,0,35.55,0,35v-4c0-1.66,1.34-3,3-3h8c1.46,0,2.94,1.55,2.94,3ZM18.97,13s-4.96,0-4.97,0l-3.3,3.26c-.63.62-1.7.18-1.7-.71v-2.53s-6.01-.03-6.01-.03c-1.1,0-1.99-.89-1.99-1.99V1.97c0-1.09.88-1.97,1.97-1.97h16.06c1.09,0,1.97.88,1.97,1.97v9c0,1.12-.91,2.03-2.03,2.03ZM19,11V2H2.97l.03,9.01h7c.55.01,1,.46,1,1.01v.98l1.71-1.71c.19-.19.44-.29.71-.29h5.59ZM2.49,22.51c0-2.49,2.02-4.51,4.51-4.51s4.51,2.02,4.51,4.51-2.02,4.51-4.51,4.51-4.51-2.02-4.51-4.51ZM4.49,22.51c0,1.38,1.13,2.51,2.51,2.51s2.51-1.13,2.51-2.51-1.13-2.51-2.51-2.51-2.51,1.13-2.51,2.51ZM33.06,30h-8.06c-1.66,0-3,1.34-3,3v2c0,.55.45,1,1,1h0c.55,0,1-.45,1-1v-2c0-.36.18-.6.29-.71.11-.11.35-.29.71-.29h8.06c.34,0,.94.63.94,1v2c0,.55.45,1,1,1s1-.45,1-1v-2c0-1.45-1.48-3-2.94-3ZM33.51,24.51c0,2.49-2.02,4.51-4.51,4.51s-4.51-2.02-4.51-4.51,2.02-4.51,4.51-4.51,4.51,2.02,4.51,4.51ZM31.51,24.51c0-1.38-1.13-2.51-2.51-2.51s-2.51,1.13-2.51,2.51,1.13,2.51,2.51,2.51,2.51-1.13,2.51-2.51ZM25,19.56v-2.56h7.99c1.11,0,2.01-.9,2.01-2.01V6.02c0-1.11-.89-2.01-2-2.02-1.39,0-5.93,0-9.01,0-.55,0-.99.45-.99,1h0c0,.55.45,1,1,1h9v9h-9c-.55,0-1,.45-1,1v1l-1.71-1.71c-.19-.19-.44-.29-.71-.29h-2.59l-1.04.02c-.54,0-.96.45-.96.98s.45,1,1,1h3.07s3.21,3.27,3.21,3.27c.63.64,1.71.19,1.71-.7ZM32.98,4s.01,0,.02,0c1.29,0,1.66,0-.02,0Z"/>
</svg>