<?xml version="1.0" encoding="UTF-8"?><svg id="Layer_1" xmlns="http://www.w3.org/2000/svg" width="36" height="36" viewBox="0 0 36 36"> <path d="M27.93,0h-15.98c-1.08,0-1.96.88-1.96,1.96v8.99c0,1.09.89,1.98,1.98,1.98,0,0,5.98,0,5.98.03v2.52c0,.89,1.06,1.33,1.69.71l3.28-3.24h4.94c1.11,0,2.02-.91,2.02-2.02V1.96c0-1.08-.88-1.96-1.96-1.96ZM27.9,10.94h-5.97l-1.99,1.99v-1.97h-7.96l-.03-8.97h15.95v8.95ZM15.96,17.9c-2.48,0-4.49,2.01-4.49,4.49s2.01,4.49,4.49,4.49,4.49-2.01,4.49-4.49-2.01-4.49-4.49-4.49ZM15.96,24.89c-1.37,0-2.5-1.12-2.5-2.5s1.12-2.5,2.5-2.5,2.5,1.12,2.5,2.5-1.12,2.5-2.5,2.5ZM22.87,30.84v3.98c0,.55-.45.99-.99.99s-.99-.45-.99-.99v-3.98c0-.36-.6-.99-.94-.99h-7.96c-.36,0-.6.18-.71.29-.11.11-.29.35-.29.71v3.98c0,.55-.45.99-.99.99s-.99-.45-.99-.99v-3.98c0-1.65,1.33-2.98,2.98-2.98h7.96c1.45,0,2.92,1.54,2.92,2.98Z"/>
</svg>