<?xml version="1.0" encoding="UTF-8"?>
<svg id="a" data-name="Layer 1" xmlns="http://www.w3.org/2000/svg" width="36" height="36" viewBox="0 0 36 36">
  <path d="M24.48,35c0,.55-.45,1-1,1s-1-.45-1-1,.45-1,1-1,1,.45,1,1ZM33.92,34c-.55,0-1,.45-1,1s.45,1,1,1,1-.45,1-1-.45-1-1-1ZM2.03,3.46C2.03,1.55,3.58,0,5.48,0s3.45,1.55,3.45,3.45c0,.92-.36,1.79-1.01,2.44-.65.65-1.52,1.01-2.44,1.01h0c-1.9,0-3.45-1.55-3.45-3.45ZM4.03,3.46c0,.8.65,1.45,1.45,1.45h0c.39,0,.75-.15,1.03-.43.27-.27.43-.64.43-1.03,0-.8-.65-1.46-1.45-1.46s-1.45.65-1.45,1.45ZM30.12,12.81c-.65-.65-1.01-1.52-1.01-2.44,0-1.9,1.55-3.45,3.45-3.45s3.45,1.55,3.45,3.45-1.55,3.45-3.45,3.45h0c-.92,0-1.79-.36-2.44-1.01ZM31.11,10.37c0,.39.15.75.43,1.03.28.27.64.43,1.03.43h0c.8,0,1.45-.65,1.45-1.45s-.65-1.45-1.45-1.45-1.45.65-1.45,1.46ZM34.95,31.01h-13.05c-.53,0-.96.45-.96,1s.43,1,.96,1h13.05c.53,0,.96-.45.96-1s-.43-1-.96-1ZM19.51,20.85c.17.1.35.16.53.16.33,0,.65-.16.84-.46l2.87-4.53h2.28l-3.43,4.93c-.61.84-.35,2.02.56,2.52l6.83,3.74v.81c0,.55.45,1,1,1s1-.45,1-1v-1.34c0-.34-.17-.65-.45-.83l-7.2-3.97s0,0,0,0l4.08-5.79s0-.02.02-.04c.26.04.5.19.66.41l.71.87-2.23,3.07c-.35.46-.24,1.13.25,1.45h0c.44.28,1.02.18,1.34-.24l1.83-2.58,1.01,1.57c.19.27.49.42.82.42h2.19c.55,0,1-.45,1-1s-.45-1-1-1h-1.67l-2.61-3.72c-.56-.8-1.48-1.28-2.46-1.28h-5.07c-.34,0-.66.18-.84.46l-3.17,5c-.3.47-.16,1.08.31,1.38ZM15.01,20.29s.47-1.18.47-1.31c0-.53-.43-.96-.95-.96-.37,0-.69.22-.84.53h0s-.02.04-.02.04c0,.01,0,.02-.01.03l-.67,1.7c-.05.27,0,.54.16.76l2.44,3.53c.19.28.51.43.82.43.2,0,.4-.06.57-.18.45-.31.57-.94.25-1.39l-2.2-3.19ZM23.65,28.71l1.01-1.49s.01-.02.02-.03l.03-.04h0c.17-.31.17-.69-.04-.99-.29-.43-.88-.54-1.31-.25-.11.07-.81,1.11-.81,1.11l-3.81-.02c-.54,0-.99.43-.99.98,0,.21.06.4.17.56.18.26.47.43.81.43l4.23.03c.27,0,.52-.1.71-.29ZM2.03,21.06c-1.1,0-1.99.89-1.99,1.99s.89,1.99,1.99,1.99,1.99-.89,1.99-1.99-.89-1.99-1.99-1.99ZM15.4,14.02l-3.41-5.01h2.29l2.87,4.53c.19.3.51.46.84.46.18,0,.37-.05.53-.16.47-.3.6-.91.31-1.38l-3.17-5c-.18-.29-.5-.46-.84-.46h-5.07c-.98,0-1.89.48-2.46,1.28l-2.61,3.72H1.02c-.55,0-1,.45-1,1s.45,1,1,1h4.19c.32,0,.63-.16.82-.42l1.01-1.57,1.9,2.6c.31.42.9.52,1.34.24h0c.49-.32.61-.98.25-1.45l-2.3-3.1.71-.87c.16-.22.4-.37.66-.41,0,0,0,.02.01.03l4.05,5.87s0,0,0,0l-7.2,3.97c-.28.19-.45.5-.45.83v4.26c0,.55.45,1,1,1s1-.45,1-1v-3.73l6.83-3.74c.91-.5,1.17-1.68.56-2.52Z"/>
</svg>