<?xml version="1.0" encoding="UTF-8"?>
<svg id="a" data-name="Layer 1" xmlns="http://www.w3.org/2000/svg" width="36" height="36" viewBox="0 0 36 36">
  <path d="M33.61,25h-10.19c-.56,0-1.02.45-1.02,1v9c0,.55.46,1,1.02,1h10.19c.56,0,1.02-.45,1.02-1v-9c0-.55-.46-1-1.02-1ZM32.59,34h-8.15v-7h8.15v7ZM35.78,9.11l-1.02-2c-.34-.68-1.05-1.11-1.82-1.11h-5.44L12.59.14c-.25-.05-.5-.09-.76-.14h-3C8.39,0,7.96.14,7.6.4L.81,5.4c-.51.38-.81.97-.81,1.6v3c0,1.1.91,2,2.04,2h5.09v22H1.02c-.56,0-1.02.45-1.02,1s.46,1,1.02,1h18.33c.56,0,1.02-.45,1.02-1s-.46-1-1.02-1h-6.11V12h14.26v5c0,.55.46,1,1.02,1h0c.56,0,1.02.45,1.02,1s-.46,1-1.02,1c-.39,0-.73-.22-.9-.54-.16-.3-.51-.46-.86-.46h0c-.75,0-1.28.78-.92,1.43.6,1.09,1.87,1.77,3.26,1.52,1.2-.22,2.19-1.17,2.42-2.35.31-1.56-.62-2.94-1.98-3.42v-4.18h4.42c1.51,0,2.5-1.56,1.82-2.89ZM22.11,6h-9.13l-.47-3.69,9.6,3.69ZM9.95,2h.48l.51,4h-1.5l.51-4ZM7.78,2.85l-.4,3.15h-3.94l4.34-3.15ZM11.2,22h-2.04v-10h2.04v10ZM11.15,34h-1.98v-10h2.04v10h-.05ZM13.24,10H2.04v-2h30.94l1.02,2H13.24Z"/>
</svg>