<?xml version="1.0" encoding="UTF-8"?><svg id="Layer_1" xmlns="http://www.w3.org/2000/svg" width="36" height="36" viewBox="0 0 36 36"> <path d="M16,11.01V1.97c0-1.09.88-1.97,1.97-1.97h16.06c1.09,0,1.97.88,1.97,1.97v9c0,1.12-.91,2.03-2.03,2.03h-4.97l-3.3,3.26c-.63.62-1.7.18-1.7-.71v-2.53l-6.01-.03c-1.1,0-1.99-.89-1.99-1.99h0ZM17.97,2l.03,9.01h7c.55.01,1,.46,1,1.01v.98l1.71-1.71c.19-.19.44-.29.71-.29h5.59V2h-16.04ZM1.67,23.66c-.91-3.43,2.14-6.48,5.57-5.57,1.51.4,2.72,1.62,3.12,3.12.91,3.43-2.14,6.48-5.57,5.57-1.51-.4-2.72-1.62-3.12-3.12ZM6.64,24.86c.88-.21,1.6-.93,1.81-1.81.45-1.86-1.19-3.51-3.06-3.06-.88.21-1.6.93-1.81,1.81-.45,1.86,1.19,3.51,3.06,3.06ZM10,31s0,1,1,1,1-1,1-1c0-1.45-1.48-3-2.94-3H3c-1.65,0-3,1.34-3,3v4c0,.55.45,1,1,1s1-.45,1-1v-4c0-.36.18-.6.29-.71s.35-.29.71-.29h6.06c.91,0,.94,1,.94,1ZM34.36,21.21c.91,3.43-2.14,6.48-5.57,5.57-1.51-.4-2.72-1.62-3.12-3.12-.91-3.43,2.14-6.48,5.57-5.57,1.51.4,2.72,1.62,3.12,3.12ZM29.39,20c-.88.21-1.6.93-1.81,1.81-.45,1.86,1.19,3.51,3.06,3.06.88-.21,1.6-.93,1.81-1.81.45-1.86-1.19-3.51-3.06-3.06ZM33.06,28h-6.05c-1.66,0-3,1.34-3,3,0,0,0,1,1,1s1-1,1-1c0-.36.18-.6.29-.71s.35-.29.71-.29h6.06c.91,0,.94,1,.94,1v4c0,.55.45,1,1,1s1-.45,1-1v-4c0-1.45-1.48-3-2.94-3h-.01ZM12.16,20.73c-.91-3.43,2.14-6.48,5.57-5.57,1.51.4,2.72,1.62,3.12,3.12.91,3.43-2.14,6.48-5.57,5.57-1.51-.4-2.72-1.62-3.12-3.12ZM17.13,21.94c.88-.21,1.6-.93,1.81-1.81.45-1.86-1.19-3.51-3.06-3.06-.88.21-1.6.93-1.81,1.81-.45,1.86,1.19,3.51,3.06,3.06ZM12.53,27.02h7.04c.34,0,.97.65.97,1.01.13.39.5.68.94.68.55,0,1-.45,1-1,0-1.2-1.44-2.69-2.9-2.69h-7.04c-.55,0-1,.44-1,1s.45,1,1,1h-.01Z"/>
</svg>