<?xml version="1.0" encoding="UTF-8"?>
<svg id="a" data-name="Layer 1" xmlns="http://www.w3.org/2000/svg" width="36" height="36" viewBox="0 0 36 36">
  <path d="M18,3.98h0c-.55,0-1-.45-1-1v-1.98C17,.45,17.45,0,18,0h0c.55,0,1,.45,1,1v1.98c0,.55-.45,1-1,1ZM34,15.96h0c0,.55-.45,1-1,1h-1.98c-.55,0-1-.45-1-1h0c0-.55.45-1,1-1h1.98c.55,0,1,.45,1,1ZM3,14.96h1.98c.55,0,1,.45,1,1h0c0,.55-.45,1-1,1h-1.98c-.55,0-1-.45-1-1h0c0-.55.45-1,1-1ZM9.47,7.47c-.39.39-1.03.39-1.42,0l-1.4-1.4c-.39-.39-.39-1.02,0-1.42h0c.39-.39,1.03-.39,1.42,0l1.4,1.4c.39.39.39,1.02,0,1.42h0ZM29.27,4.57h0c.39.39.39,1.02,0,1.42l-1.4,1.4c-.39.39-1.03.39-1.42,0h0c-.39-.39-.39-1.02,0-1.42l1.4-1.4c.39-.39,1.03-.39,1.42,0ZM18.12,6h-.01c-5.51,0-10,4.47-10,9.96,0,2.33.82,4.6,2.31,6.39.22.27.44.51.65.74.79.88,1.02,1.16,1.02,1.92v4.92c0,1.95,1.39,3.62,3.17,4,.4,1.2,1.52,2.07,2.86,2.07s2.42-.84,2.84-2c1.79-.38,3.18-2.05,3.18-4v-4.92c0-.79.26-1.11,1.08-2.03.19-.21.39-.44.59-.68,1.49-1.78,2.31-4.05,2.31-6.37,0-5.5-4.48-9.98-9.99-9.98ZM20.66,31.99h-4.89l-.11-.02c-.88-.19-1.58-1.08-1.58-2.04v-1.94h8.04v2.01c0,.91-.63,1.76-1.46,2ZM24.25,21.07c-.19.23-.37.44-.55.64-.85.96-1.58,1.78-1.58,3.36v.91h-8.04v-.97c0-1.56-.71-2.35-1.55-3.29-.18-.2-.37-.41-.57-.65-1.19-1.43-1.85-3.24-1.85-5.11,0-4.39,3.59-7.96,7.99-7.96h0c4.41,0,7.99,3.58,7.98,7.98,0,1.86-.65,3.66-1.84,5.09Z"/>
</svg>