<?xml version="1.0" encoding="UTF-8"?>
<svg id="a" data-name="Layer 1" xmlns="http://www.w3.org/2000/svg" width="36" height="36" viewBox="0 0 36 36">
  <path d="M7.92,2.1c3.73,0,6.68,3.42,5.87,7.29-.48,2.26-2.31,4.1-4.58,4.57-3.87.81-7.3-2.13-7.3-5.86,0-3.31,2.69-6,6.01-6M8.01,0C3.06,0-.84,4.48.16,9.61c.61,3.12,3.12,5.63,6.24,6.24,5.13,1,9.61-2.9,9.61-7.84C16.02,3.58,12.43,0,8.01,0h0ZM6.92,5.1v3c0,.55.45,1,1,1h0c.55,0,1-.45,1-1v-3c0-.55-.45-1-1-1h0c-.55,0-1,.45-1,1ZM8.99,11.11c0-.29-.09-.53-.28-.72-.19-.19-.43-.28-.72-.28s-.54.09-.72.28c-.19.19-.28.43-.28.72s.09.53.28.72c.19.19.43.28.72.28s.54-.09.72-.28c.19-.19.28-.43.28-.72ZM31.7,29.04l-5.77-22.93c-.16-.65-.75-1.1-1.42-1.1h-4.08c-.67,0-1.25.45-1.42,1.1l-5.77,22.92c-2.41.08-4.25,2.06-4.25,4.49v.48c0,1.1.9,2,2,2h22.99c1.11,0,2-.9,2-2v-.48c0-2.41-1.91-4.37-4.3-4.48ZM27.54,21.1h-10.29l1.5-6h7.28l1.51,6ZM28.04,23.1l1.51,6.01h-14.31l1.51-6.01h11.29ZM24.03,7.11l1.5,5.99h-6.27l1.5-5.99h3.27ZM33.91,34.1H10.92v-.48c0-1.37.99-2.44,2.31-2.49l.69-.02h0s17.02,0,17.02,0h0s.6.03.6.03c1.33.06,2.37,1.16,2.37,2.48v.48Z"/>
</svg>