<?xml version="1.0" encoding="UTF-8"?><svg id="Layer_1" xmlns="http://www.w3.org/2000/svg" width="36" height="36" viewBox="0 0 36 36"><path d="m35.86,33.89c.26.39.16.91-.23,1.17-.93.63-1.97.94-3,.94-1.53,0-3.04-.68-4.18-1.98-.58-.66-1-1.42-1.29-2.24h-1.28c-.47,0-.84-.38-.84-.84s.38-.84.84-.84h.91c-.06-.56-.06-1.13,0-1.69h-.91c-.47,0-.84-.38-.84-.84s.38-.84.84-.84h1.28c.27-.78.67-1.51,1.21-2.15,1.91-2.27,4.9-2.74,7.26-1.14.39.26.49.78.23,1.17-.26.39-.79.49-1.17.23-1.63-1.1-3.7-.76-5.03.83-.27.32-.48.68-.66,1.06h3.63c.47,0,.84.38.84.84s-.38.84-.84.84h-4.16c-.08.56-.07,1.13,0,1.69h4.15c.47,0,.84.38.84.84s-.38.84-.84.84h-3.63c.2.4.43.79.72,1.13,1.35,1.54,3.35,1.85,4.97.75.39-.26.91-.16,1.17.23Zm-4.93-19.4l-.02.02c-.36.41-.98.45-1.39.1l-1.97-1.7v1.1s.02,0,.02,0v6.57c-.2.2-.4.38-.58.59-.47.56-.87,1.17-1.21,1.83h-.21c-1.66,0-3,1.34-3,3v4H4.58c-.55,0-1-.44-1-1l.02-16.14-1.96,1.72c-.41.36-1.03.32-1.39-.09h-.01c-.36-.43-.32-1.05.1-1.41L14.93.24c.37-.32.92-.32,1.3,0l9.35,8.3v-2.54c0-.54.44-.98.98-.99h0c.55,0,.99.44.99.99v4.27l3.27,2.83c.41.36.46.98.1,1.39Zm-11.35,5.53v-4c0-.55-.45-1-1-1h-5.99c-.55,0-1,.45-1,1v4c0,.55.45,1,1,1h5.99c.55,0,1-.45,1-1Z"/></svg>