<?xml version="1.0" encoding="UTF-8"?><svg id="Layer_1" xmlns="http://www.w3.org/2000/svg" width="36" height="36" viewBox="0 0 36 36"><path d="m35.41,23.97l-7.58-7.59c-.38-.38-.88-.59-1.42-.59s-1.04.21-1.42.59h0s-1.63-1.63-1.63-1.63c1.28-1.56,2.05-3.55,2.05-5.72,0-4.98-4.04-9.02-9.01-9.02S7.41,4.05,7.41,9.02s4.04,9.02,9.01,9.02c2.08,0,4-.72,5.52-1.91l1.65,1.65-.05.05c-.78.78-.78,2.05,0,2.84l7.58,7.59c.39.39.9.59,1.42.59s1.03-.2,1.42-.59l1.46-1.46c.38-.38.59-.89.59-1.42s-.21-1.04-.59-1.42Zm-18.99-7.92c-3.86,0-7.01-3.15-7.01-7.02s3.14-7.02,7.01-7.02,7.01,3.15,7.01,7.02-3.14,7.02-7.01,7.02Z"/><path d="m0,25.41v9.59c0,.55.45,1,1,1h7.01c.55,0,1-.45,1-1v-9.58c0-.29-.12-.56-.33-.75l-3.54-3.18c-.38-.34-.96-.34-1.34,0l-3.47,3.17c-.21.19-.33.46-.33.74Zm6.05,6.58c0,.55-.45,1-1,1h-1c-.55,0-1-.45-1-1h0c0-.55.45-1,1-1h1c.55,0,1,.45,1,1h0Zm0-4.01h0c0,.55-.45,1-1,1h-1c-.55,0-1-.45-1-1h0c0-.55.45-1,1-1h1c.55,0,1,.45,1,1Z"/><path d="m11.01,25.41v9.59c0,.55.45,1,1,1h7.01c.55,0,1-.45,1-1v-9.58c0-.29-.12-.56-.33-.75l-3.54-3.18c-.38-.34-.96-.34-1.34,0l-3.47,3.17c-.21.19-.33.46-.33.74Zm6.05,6.58c0,.55-.45,1-1,1h-1c-.55,0-1-.45-1-1h0c0-.55.45-1,1-1h1c.55,0,1,.45,1,1h0Zm0-4.01h0c0,.55-.45,1-1,1h-1c-.55,0-1-.45-1-1h0c0-.55.45-1,1-1h1c.55,0,1,.45,1,1Z"/></svg>