<?xml version="1.0" encoding="UTF-8"?><svg id="Layer_1" xmlns="http://www.w3.org/2000/svg" width="36" height="36" viewBox="0 0 36 36"><path d="m9.36,17.99c1.35,0,2.45-1.12,2.45-2.5s-1.1-2.5-2.45-2.5-2.45,1.12-2.45,2.5,1.1,2.5,2.45,2.5Z"/><path d="m5.24,33.85c-1.52-.39-2.74-1.64-3.13-3.18-.56-2.23.53-4.27,2.29-5.17.32-.17.52-.51.52-.88h0c0-.76-.79-1.25-1.45-.9-2.37,1.24-3.88,3.93-3.38,6.92.45,2.66,2.56,4.81,5.18,5.27,2.93.51,5.58-1.03,6.8-3.43.34-.67-.14-1.47-.88-1.47h0c-.36,0-.7.2-.86.53-.89,1.78-2.89,2.9-5.09,2.33Z"/><path d="m14.79,25.99h-2.98v-4c0-1.38-1.1-2.5-2.45-2.5s-2.47,1.12-2.47,2.5v4.53c0,1.36,1.09,2.47,2.43,2.47h5.44v7h2.95v-7.03c0-1.64-1.32-2.98-2.93-2.98Z"/><path d="m35.66,13.1l-3.22-2.83v-4.27c0-.55-.44-.99-.97-.99h0c-.53,0-.97.44-.97.99v2.54L21.3.24c-.37-.32-.91-.32-1.27,0L7.62,11.35c.53-.23,1.12-.37,1.74-.37,2.44,0,4.42,2.02,4.42,4.5,0,1.28-.52,2.43-1.37,3.25.84.82,1.37,1.97,1.37,3.25v2h1.01c2.7,0,4.89,2.23,4.89,4.98v1.06h11.82c.54,0,.97-.44.97-.99l-.03-16.12,1.93,1.7c.4.35,1.01.31,1.36-.1l.02-.02c.35-.41.31-1.04-.1-1.39Zm-11.06,7.94c0,.54-.43.99-.97.99h-5.92c-.54,0-.98-.45-.98-1v-4.01c0-.55.44-1,.98-1h5.92c.54,0,.97.44.97.99v4.03Z"/></svg>