<?xml version="1.0" encoding="UTF-8"?><svg id="Layer_1" xmlns="http://www.w3.org/2000/svg" width="36" height="36" viewBox="0 0 36 36"><path d="m26.4,15.13c-.89-1.72-.23-3.84,1.49-4.74,1.71-.9,3.83-.23,4.72,1.49.89,1.72.23,3.84-1.49,4.74-1.71.9-3.83.23-4.72-1.49Zm5.76,4.52c-1.53,0-3.06.43-4.47,1.18-.88.47-1.8.74-2.74.74-.57,0-1.14-.1-1.72-.31-1.23-.45-2.25-1.19-3.57-1.48-.55-.12-1.1-.18-1.65-.18-1.24,0-2.48.3-3.62.84-1.13.54-2.14,1.15-3.43,1.15-.08,0-.16,0-.25,0-1.36-.08-2.35-.83-3.55-1.33-1.02-.43-2.1-.65-3.18-.65-.73,0-1.46.1-2.18.3-.44.13-.86.29-1.26.48-.35.16-.56.52-.56.9v.14c0,.72.74,1.21,1.4.92.91-.4,1.81-.74,2.81-.74.56,0,1.15.11,1.8.38,1.08.45,2,1.07,3.17,1.35.6.14,1.2.21,1.81.21,1.09,0,2.18-.23,3.2-.66,1.12-.47,2.04-1.15,3.29-1.31.17-.02.33-.03.49-.03,1.02,0,2.01.36,2.89.86,1.31.75,2.66,1.09,4.01,1.09,1.52,0,3.03-.43,4.46-1.21.87-.47,1.77-.72,2.69-.72.63,0,1.27.12,1.91.37.23.09.45.19.67.29.65.3,1.39-.2,1.39-.92v-.07c0-.38-.2-.73-.54-.9-1.06-.5-2.18-.73-3.3-.73Zm-4.47,5.61c-.88.47-1.8.74-2.74.74-.57,0-1.14-.1-1.72-.31-1.23-.45-2.25-1.19-3.57-1.48-.55-.12-1.1-.18-1.65-.18-1.24,0-2.48.3-3.62.84-1.13.54-2.14,1.15-3.43,1.15-.08,0-.16,0-.25,0-1.36-.08-2.35-.83-3.55-1.33-1.02-.43-2.1-.65-3.18-.65-.73,0-1.46.1-2.18.3-.44.13-.86.29-1.26.48-.35.16-.56.52-.56.9v.14c0,.72.74,1.21,1.4.92.91-.4,1.81-.74,2.81-.74.56,0,1.15.11,1.8.38,1.08.45,2,1.07,3.17,1.35.6.14,1.2.21,1.81.21,1.09,0,2.18-.23,3.2-.66,1.12-.47,2.04-1.15,3.29-1.31.17-.02.33-.03.49-.03,1.02,0,2.01.36,2.89.86,1.31.75,2.66,1.09,4.01,1.09,1.52,0,3.03-.43,4.46-1.21.87-.47,1.77-.72,2.69-.72.63,0,1.27.12,1.91.37.23.09.45.19.67.29.65.3,1.39-.2,1.39-.92v-.06c0-.38-.2-.73-.54-.9-1.06-.5-2.18-.73-3.3-.73-1.53,0-3.06.43-4.47,1.18Zm-13.6-14.41s-7.62,3.82-7.62,3.82c-.46.23-.65.79-.42,1.25l.06.13c.23.46.78.65,1.24.42l5.86-2.89s1.17-.58,1.17-.58c.99-.49,2.19-.08,2.68.91l-8.65,4.11c.29.13.42.23.69.36.68.34,1.21.61,1.76.64.04,0,.09,0,.13,0,.6,0,1.16-.27,2.04-.7.17-.09.35-.17.53-.26,1.42-.68,2.97-1.04,4.48-1.04.7,0,1.4.08,2.08.23,1.02.23,1.87.64,2.61,1.01.42.21.82.4,1.21.55.35.13.78.21.78.21,0,0,.57.03.78-.33.21-.35-.06-.78-.06-.78l-.72-1.28c-1.07-2.17-3.1-3.99-4.81-5.24-1.69-1.24-3.92-1.45-5.82-.56Z"/></svg>