<?xml version="1.0" encoding="UTF-8"?><svg id="Layer_1" xmlns="http://www.w3.org/2000/svg" width="48" height="48" viewBox="0 0 48 48"><path d="M31.99,9v-3h-2v6h-1v-3l-11-.02v-2.98h-2l-.02,6h-.98v-3l-5-.02-.02,28.51c0,2.48,2.02,4.51,4.51,4.51l19.02,.04c2.48,0,4.5-2.02,4.5-4.5V9h-6.01Zm-11.1,26.94c-.83,0-1.5-.67-1.5-1.5s.67-1.5,1.5-1.5,1.5,.67,1.5,1.5-.67,1.5-1.5,1.5Zm7.05-1.31c-.06,.78-.71,1.38-1.49,1.38h-2.97c.41-.71,.57-1.58,.23-2.53-.31-.87-1.03-1.57-1.91-1.83-.93-.29-1.81-.11-2.5,.33l-.28-9.93h9.99l-1.06,12.58h0Zm3.05-14.61l-13,.03v-2.05l.99,.02c0-.55,.45-1,1-1h7.79c.55,0,1,.45,1,1h2.22v2Z"/></svg>