<?xml version="1.0" encoding="UTF-8"?><svg id="Layer_1" xmlns="http://www.w3.org/2000/svg" width="48" height="48" viewBox="0 0 48 48"><path d="M25.58,31.11l-1.56,1.92-1.56-1.92c-.16-.2-2.67-3.32-4.72-7.05h-5.75l-6,14.94h30.02l5.98-14.94h-11.7c-2.05,3.73-4.56,6.85-4.72,7.05Z"/><path d="M17.15,17.1c.03,.17,.06,.33,.1,.49,1.11,5.28,6.77,12.27,6.77,12.27,0,0,5.67-6.98,6.77-12.27,.04-.16,.07-.32,.1-.49,0-.06,.02-.12,.03-.18,.04-.32,.07-.64,.07-.96,0-3.83-3.13-6.95-6.98-6.95s-6.98,3.12-6.98,6.95c0,.33,.03,.65,.08,.96,0,.06,.02,.12,.03,.18Zm6.87-4.15c1.66,0,3,1.34,3,2.99s-1.34,2.99-3,2.99-3-1.34-3-2.99,1.34-2.99,3-2.99Z"/></svg>