<?xml version="1.0" encoding="UTF-8"?><svg id="Layer_1" xmlns="http://www.w3.org/2000/svg" width="36" height="36" viewBox="0 0 36 36"><path d="M4,25.97H13v9L4,25.97Zm21,2v8l3-2.67,3,2.67v-8h-6Zm3-11c-2.76,0-5,2.24-5,5s2.24,5,5,5,5-2.24,5-5-2.24-5-5-5Zm-13,19v-10c0-1.11-.9-2-2-2H3V1.95C3,.86,3.88-.03,4.98-.03H27.03c1.11,0,2.02,.9,2.02,2.02l-.03,13.07c-.33-.05-.67-.08-1.02-.08-3.86,0-7,3.14-7,7,0,1.9,.76,3.63,2,4.89v9.13l-8-.02h0ZM23,10.97H9v2h14v-2ZM8.99,5.97v2h14.01v-1.95l-14.01-.05Zm8.01,12v-2H9v2h8Z"/></svg>