<?xml version="1.0" encoding="UTF-8"?><svg id="Layer_1" xmlns="http://www.w3.org/2000/svg" width="36" height="36" viewBox="0 0 36 36"><path d="M18,2V6l6-2-6-1.99h0Zm16,33.99h-7v-13h7v13Zm-9,0H11v-13h14v13Zm-16,0H2v-13h7v13Zm27-15h-7.5l-.16-.15c-.86-.8-5.33-4.85-7.99-10.36l-1.1-2.49,1.99,1.85c3.03,2.81,8.45,7,14.37,8.98l.39,.13v2.04Zm-10.75,0H10.82l.85-1.01c1.6-1.9,4.32-5.34,5.81-8.81l.51-1.18,.51,1.17c1.5,3.45,4.29,6.9,5.89,8.81l.85,1.01h.01Zm-17.76,.01H0v-2.04l.39-.13c5.92-1.97,11.27-6.16,14.29-8.96l1.98-1.83-1.08,2.47c-2.57,5.49-7.72,10.16-7.92,10.34l-.16,.14h-.01Z"/></svg>