<?xml version="1.0" encoding="UTF-8"?><svg id="Layer_1" xmlns="http://www.w3.org/2000/svg" width="48" height="48" viewBox="0 0 48 48"><path d="M42.71,13.34c.39-.39,.39-1.02,0-1.41-.39-.39-1.02-.39-1.41,0l-6.56,6.56-1.41-1.41,6.56-6.56c.39-.39,.39-1.02,0-1.41-.39-.39-1.02-.39-1.41,0l-6.56,6.56-1.41-1.41,6.56-6.56c.39-.39,.39-1.02,0-1.41s-1.02-.39-1.41,0l-8.06,8.06c-.13,.13-.22,.27-.27,.4-.96,1.37-1.15,3.11-.58,4.63L7.26,38.85c-.39,.39-.39,1.02,0,1.41l1.45,1.45c.39,.39,1.02,.39,1.42,0L29.59,22.25c1.57,.62,3.38,.39,4.79-.65,.09-.05,.19-.1,.28-.2l.16-.16s.09-.06,.13-.1h-.01l7.78-7.79h-.01Zm-.09,25.41l-13.37-13.37-2.83,2.83,13.37,13.37c.39,.39,1.02,.39,1.41,0l1.41-1.41c.39-.39,.39-1.02,0-1.41h0ZM23.57,19.7L9.89,6.02c-2.73,2.73-2.73,7.17,0,9.9l8.73,8.73,4.95-4.95Z"/></svg>