<?xml version="1.0" encoding="UTF-8"?><svg id="Layer_1" xmlns="http://www.w3.org/2000/svg" width="36" height="36" viewBox="0 0 36 36"><path d="M19.91,30l2.41-1.07,.31-.13-1.72-1.6-4.14-3.85,5.64,.38,3.43,.23-.19-1.62-.72-5.99,3.07,3.23v-6.67l2.68,2.31,1.31-1.51-4.02-3.48V4.99h-1.97v3.53L15.99,0,0,13.72l1.32,1.51,2.7-2.37-.03,17.14h15.92Zm.08-1.14v.25s0-.07,0-.11c0-.05,0-.09,0-.14Zm-8-12.86h8v6H11.99v-6Z"/><polygon points="34.58 25.57 33.01 19.67 30.37 25 27.62 22.11 28.11 26.13 22.27 25.73 26.22 29.4 23.13 30.76 27.44 32.53 26.2 36 27.99 36 29.78 31.28 28.1 30.86 29.54 30.26 27.05 27.86 30.1 28.08 30.03 27.36 30.86 28.35 32.51 24.56 33.38 28.09 35.99 27.21 36 24.94 34.58 25.57"/></svg>