<?xml version="1.0" encoding="UTF-8"?><svg id="Layer_1" xmlns="http://www.w3.org/2000/svg" width="48" height="48" viewBox="0 0 48 48"><path d="M15.97,36.99c0,2.76-2.24,5-5,5s-5-2.24-5-5,2.24-5,5-5,5,2.24,5,5Zm14.03,4.99l12-.05c0-1.11-.9-2-2-2h-2.99l-3.02-23.79c-.54-3.25-2.84-5.87-5.98-6.83-1.03-.32-10.12-2.87-11.02-3.09-1.01-.25-1.95-.19-1.98-.19-3.67,0-6.65,2.71-6.65,6.38s2.98,6.65,6.65,6.65l8.99-.03c1.1,0,1.99,.89,1.99,1.99,0,.58-.26,1.14-.7,1.52l-3.48,5.38c-1.76-1.24-3.8-2-5.85-2h-6.93c-1.7,0-3.07,1.37-3.07,3.07v3.03c1.28-1.29,3.05-2.09,5.01-2.09,3.89,0,7.05,3.16,7.05,7.05,0,1.5-.47,2.89-1.27,4.03h6.22c2.22,0,4.02-1.8,4.02-4.02,0-2.85-1.47-5.7-3.65-7.79l3.32-5.21c.84-.76,1.32-1.83,1.32-2.96,0-2.2-1.79-3.99-4-3.99l-8.99,.03c-2.56,0-4.65-2.08-4.65-4.65s2.09-4.38,4.71-4.38c0,0,.73-.04,1.45,.13,.63,.15,6.86,1.8,10.9,3.06,2.42,.74,4.18,2.76,4.59,5.18l3,23.54h-2.95c-1.13,0-2.05,.92-2.05,2.05v-.02Z"/></svg>