<?xml version="1.0" encoding="UTF-8"?><svg id="Layer_1" xmlns="http://www.w3.org/2000/svg" width="36" height="36" viewBox="0 0 36 36"><circle cx="5.02" cy="15.01" r="3"/><path d="M9.99,14.01v.5c0,3.1-1.83,4.88-5.02,4.88H2.86c-1.61,.1-2.84,1.37-2.84,3.01l-.02,5.61,2.04-.03v8.04h5.96v-14c3.09-1.09,4.98-3.84,4.98-7.5v-.5h-2.99Z"/><path d="M32.67,.01h-14.33c-1.84-.01-3.33,1.5-3.33,3.37V27.94c0,.59,.47,1.07,1.07,1.07h1.87c.59,0,1.07-.48,1.07-1.07v-1.93h13v1.93c0,.59,.48,1.07,1.07,1.07h1.86c.59,0,1.07-.48,1.07-1.07V3.4C36,1.53,34.51,.01,32.67,.01Zm-12.67,2h11v2h-11V2.01Zm-2,4h15V15.01h-15V6.01Zm1.67,16.25c-.92,0-1.67-.73-1.67-1.64s.75-1.64,1.67-1.64,1.67,.73,1.67,1.64-.75,1.64-1.67,1.64Zm11.7-.03c-.92,0-1.67-.73-1.67-1.64s.75-1.64,1.67-1.64,1.67,.73,1.67,1.64-.75,1.64-1.67,1.64Z"/></svg>