<?xml version="1.0" encoding="UTF-8"?><svg id="Layer_1" xmlns="http://www.w3.org/2000/svg" width="36" height="36" viewBox="0 0 36 36"><path d="M5.29,16.96L0,14.53,8.21,6.32l5.07,2.65-7.99,7.99Zm4.24,12.66c-1.56,1.56-3.18,1.8-5.48,2.35,.55-2.29,.79-3.92,2.36-5.5l-.79,.79,3.52-3.52c-.62-.25-1.29-.41-2-.42-1.52-.02-2.88,.58-3.85,1.55C1.17,27,.04,36,.04,36c0,0,9-1.14,11.12-3.26,.97-.97,1.57-2.33,1.55-3.85-.01-.71-.17-1.38-.42-2.01l-2.75,2.74Zm9.63,.91l2.3,5.46,8.21-8.21-2.67-5.09-7.84,7.84Zm-10.85-12.07L20.12,6.67C29.78-2.99,35.29,.69,35.29,.69c0,0,3.68,5.51-5.96,15.15l-11.83,11.83-9.19-9.19Zm14.11-4.9c1.1,1.1,2.89,1.1,3.99,0,1.1-1.1,1.1-2.89,0-3.99-1.1-1.1-2.89-1.1-3.99,0-1.1,1.1-1.1,2.89,0,3.99Z"/></svg>