<?xml version="1.0" encoding="UTF-8"?><svg id="Layer_1" xmlns="http://www.w3.org/2000/svg" width="48" height="48" viewBox="0 0 48 48"><path d="M11.29,22.96l-5.29-2.43L14.21,12.32l5.07,2.65-7.99,7.99Zm4.24,12.66c-1.56,1.56-3.18,1.8-5.48,2.35,.55-2.29,.79-3.92,2.36-5.5l-.79,.79,3.52-3.52c-.62-.25-1.29-.41-2-.42-1.52-.02-2.88,.58-3.85,1.55-2.12,2.12-3.26,11.12-3.26,11.12,0,0,9-1.14,11.12-3.26,.97-.97,1.57-2.33,1.55-3.85-.01-.71-.17-1.38-.42-2.01l-2.75,2.74Zm9.63,.91l2.3,5.46,8.21-8.21-2.67-5.09-7.84,7.84Zm-10.85-12.07l11.81-11.81c9.66-9.66,15.17-5.98,15.17-5.98,0,0,3.68,5.51-5.96,15.15l-11.83,11.83-9.19-9.19Zm14.11-4.9c1.1,1.1,2.89,1.1,3.99,0,1.1-1.1,1.1-2.89,0-3.99-1.1-1.1-2.89-1.1-3.99,0-1.1,1.1-1.1,2.89,0,3.99Z"/></svg>