<?xml version="1.0" encoding="UTF-8"?><svg id="Layer_1" xmlns="http://www.w3.org/2000/svg" width="48" height="48" viewBox="0 0 48 48"><path d="M16.7,19.21c6.23,0,11.92-3.67,14.5-9.35l.22-.49-.5-.2c-1.9-.77-3.9-1.17-5.97-1.17-6.23,0-11.92,3.67-14.5,9.35l-.22,.49,.5,.2c1.9,.77,3.91,1.17,5.97,1.17Z"/><path d="M39.44,19.21l.75,.02-.26-.71c-1.15-3.19-3.25-5.88-6.06-7.78l-.62-.42-.17,.74c-.11,.48-.16,.97-.16,1.47,0,3.59,2.92,6.59,6.52,6.68Z"/><path d="M40.73,21.68l-.07-.48-.66,.05c-.13,0-.26,.02-.39,.02-3.85,0-7.21-2.47-8.35-6.15l-.28-.89-.61,.71c-3.43,4.02-8.42,6.33-13.68,6.33-2.26,0-4.48-.42-6.59-1.26l-.56-.22-.13,.59c-.27,1.19-.41,2.37-.41,3.52,0,8.79,7.15,15.94,15.94,15.94s15.94-7.15,15.94-15.94c0-.68-.05-1.38-.17-2.22h.02Zm-20.31,1.61c.82,0,1.49,.67,1.49,1.5s-.67,1.5-1.49,1.5-1.49-.67-1.49-1.5,.67-1.5,1.49-1.5Zm-.84,9.28c1.63-1.1,3.53-1.68,5.49-1.68s3.73,.54,5.31,1.56c.46,.3,.6,.92,.3,1.38-.3,.46-.92,.6-1.38,.3-2.57-1.66-6.07-1.62-8.61,.09-.46,.31-1.08,.19-1.39-.27s-.19-1.08,.27-1.39h.01Zm9.84-6.33c-.82,0-1.49-.67-1.49-1.5s.67-1.5,1.49-1.5,1.49,.67,1.49,1.5-.67,1.5-1.49,1.5Z"/></svg>