<?xml version="1.0" encoding="UTF-8"?><svg id="Layer_1" xmlns="http://www.w3.org/2000/svg" width="36" height="36" viewBox="0 0 36 36"><path d="M34.53,14.89c-1.66-2.43-4.56-3.94-7.57-3.94-1.7,0-3.33,.2-4.76,.46-.58-1.08-1.54-1.91-2.73-2.3v-1.63l2.5-.02-.02-3-2.48,.02V1.98h-3.01v2.53l-2.5,.02,.02,3,2.48-.02v1.6c-1.18,.39-2.15,1.22-2.73,2.3-1.42-.26-3.06-.46-4.76-.46-3.01,0-5.91,1.51-7.57,3.94-1.64,2.4-1.89,5.37-.71,8.37,1.27,3.21,2.46,5.96,3.28,7.81v2.87H31.95v-2.87c.83-1.85,2.02-4.6,3.28-7.81,1.18-3,.93-5.97-.71-8.37Zm-18.06,.8v15.25h-1.44c-1.44-2.65-3.76-7.59-3.76-10.68s3.21-4.13,5.21-4.57Zm3.01,0c1.99,.44,5.21,1.6,5.21,4.57s-2.33,8.03-3.76,10.68h-1.44V15.69Zm-15.58,.89c1.1-1.62,3.05-2.63,5.09-2.63,1.05,0,2.09,.09,3.06,.23-2.09,1.21-3.78,3.14-3.78,6.08,0,3.37,1.96,7.87,3.38,10.68H7.23c-.78-1.7-2.19-4.9-3.73-8.78-1.03-2.62-.36-4.48,.39-5.58Zm28.54,5.58c-1.53,3.88-2.95,7.08-3.73,8.78h-4.41c1.42-2.82,3.38-7.31,3.38-10.68,0-2.95-1.7-4.87-3.78-6.08,.97-.14,2-.23,3.06-.23,2.03,0,3.98,1.01,5.09,2.63,.75,1.1,1.43,2.96,.39,5.58Z"/></svg>