<?xml version="1.0" encoding="UTF-8"?><svg id="Layer_1" xmlns="http://www.w3.org/2000/svg" width="48" height="48" viewBox="0 0 48 48"><path d="M6,39H30v3H6v-3ZM39,6c.55,0,1,.45,1,1v3h2v6c0,1.66-1.34,3-3,3h-1v9.48c0,2.5-2.03,4.52-4.52,4.52s-4.48-1.99-4.48-4.44v-3.04c0-.84-.68-1.52-1.52-1.52h-1.48v12H10V10c0-2.21,1.79-3.99,3.99-3.99h8.01c2.16,0,4,1.84,4,3.99v11h1.48c2.49,0,4.52,2.03,4.52,4.52v3.04c0,.79,.64,1.44,1.44,1.44,.88,0,1.56-.68,1.56-1.52v-9.48h-1c-1.66,0-3-1.34-3-3v-6h2v-3c0-.55,.45-1,1-1s1,.45,1,1v3h3v-3c0-.55,.45-1,1-1Zm-17,13h-3.84l2.5-5h-4.66l-2,8h2.8l-2,6h2.17l5.03-9Z"/></svg>