<?xml version="1.0" encoding="UTF-8"?><svg id="Layer_1" xmlns="http://www.w3.org/2000/svg" width="48" height="48" viewBox="0 0 48 48"><path d="M10.38,16.08l-1.38-1.38,2.3-2.3c.44,.49,.98,.9,1.59,1.17l-2.51,2.51Zm6.53-2.06s-.03,0-.05,0h-1.91v3.95h1.95v-3.96Zm3.61-1.67c-.44,.5-.97,.9-1.57,1.19l2.54,2.54,1.38-1.38-2.35-2.35Zm-3.52,26.65h6.01v-11l1-2V11.5c0-1.38-1.12-2.5-2.5-2.5h-1.5c0,1.65-1.34,3-3,3h-2c-1.65,0-3-1.34-3-2.99v-3.01h9.43c4.57,0,5.5,2,5.5,5.5l.07,14.5,1,2v11h6v3H17v-3Zm.94-31h-4v1c0,.55,.45,1,1,1h2c.55,0,1-.45,1-1v-1Z"/></svg>