<?xml version="1.0" encoding="UTF-8"?><svg id="Layer_1" xmlns="http://www.w3.org/2000/svg" width="48" height="48" viewBox="0 0 48 48"><path d="M6,6V24h3.01v-3.03c.01-1.64,1.24-2.91,2.85-3h2.11l.03,.02v-.03h10v3h-7v3.04h25V6H6ZM14,15.97c-1.65,0-3-1.35-3-3s1.35-3,3-3,3,1.35,3,3-1.35,3-3,3Zm-3.01,22.04c-1.65,0-3-1.35-3-3s1.35-3,3-3,3,1.35,3,3-1.35,3-3,3Zm-4.99,4h0Zm10,0h0Zm0,0H6c0-1.66,1.35-3,3-3h4c1.66,0,3,1.34,3,3Zm3,0h0Zm10,0h-10c0-1.66,1.35-3,3-3h3.99c1.66,0,3,1.34,3,3Zm0,0h0Zm-5.01-4c-1.65,0-3-1.35-3-3s1.35-3,3-3,3,1.35,3,3-1.35,3-3,3Zm8.01,4h0Zm1.99-7c0-1.65,1.35-3,3-3s3,1.35,3,3-1.35,3-3,3-3-1.35-3-3Zm8.01,7h0Zm0,0h-10c0-1.66,1.35-3,3-3h3.99c1.66,0,3,1.34,3,3Zm-25-10c-1.66,0-3-1.34-3-3s1.34-3,3-3,3,1.34,3,3-1.34,3-3,3Zm14,0c-1.66,0-3-1.34-3-3s1.34-3,3-3,3,1.34,3,3-1.34,3-3,3Z"/></svg>