<?xml version="1.0" encoding="UTF-8"?><svg id="Layer_1" xmlns="http://www.w3.org/2000/svg" width="36" height="36" viewBox="0 0 36 36"><path d="M3.21,14.37l.12,.03c.56,.13,1.12,.2,1.66,.2,2.07,0,4.08-.86,5.53-2.36l1.6-1.58,1.37,1.36c.84,.94,1.87,1.64,3.07,2.09l.22,.08-.07-.23c-.89-2.92-3.65-4.96-6.69-4.96s-5.97,2.16-6.77,5.25l-.03,.11h-.01Zm-.18,2.07v.16c.31,3.6,3.38,6.41,6.98,6.41s6.76-2.89,6.98-6.58v-.1l-.65-.13c-1.61-.54-3.04-1.5-4.15-2.77l-.09-.1-.09,.1c-1.79,2.06-4.36,3.24-7.03,3.24-.59,0-1.19-.07-1.8-.19l-.15-.03h0ZM36,2V12c0,1.1-.9,2-2,2h-5l-4.01,4v-4h-.99c-1.1,0-2-.9-2-2V2c0-1.1,.9-2,2-2h10c1.1,0,2,.9,2,2Zm-6,8c0-.29-.09-.53-.28-.72-.19-.19-.43-.28-.72-.28s-.54,.09-.72,.28c-.19,.19-.28,.43-.28,.72s.09,.53,.28,.72c.19,.19,.43,.28,.72,.28s.54-.09,.72-.28c.19-.19,.28-.43,.28-.72Zm0-7h-2v5h2V3ZM15,25H5c-3,0-5,2-5,5v6H20v-6c0-3-2-5-5-5Z"/></svg>