<?xml version="1.0" encoding="UTF-8"?><svg id="Layer_1" xmlns="http://www.w3.org/2000/svg" width="36" height="36" viewBox="0 0 36 36"><path d="M28.46,32c1.38,0,2.5-1.12,2.5-2.5s-1.12-2.5-2.5-2.5-2.5,1.12-2.5,2.5,1.12,2.5,2.5,2.5Z" style="fill:#1d1d1b;"/><path d="M7.46,32c1.38,0,2.5-1.12,2.5-2.5s-1.12-2.5-2.5-2.5-2.5,1.12-2.5,2.5,1.12,2.5,2.5,2.5Z" style="fill:#1d1d1b;"/><path d="M33.99,14c-.67-1.33-1.33-2-2-2h-4l-.03-5.99H0V26.51c0,.83,.67,1.5,1.5,1.5h1.74c.62-1.74,2.27-3,4.22-3s3.6,1.26,4.22,3h12.55c.62-1.74,2.27-3,4.22-3s3.6,1.26,4.22,3h1.28c1,0,2-1,2-2l.03-8.01-2-4h0Zm-21,7l-5.65-5.65,1.39-1.37,4.24,4.23,7.1-7.1,1.41,1.41-8.49,8.49h0Zm14.96-3.01l.04-4h3.79l2,4h-5.83Z" style="fill:#1d1d1b;"/></svg>