<?xml version="1.0" encoding="UTF-8"?><svg id="Layer_1" xmlns="http://www.w3.org/2000/svg" width="36" height="36" viewBox="0 0 36 36"><path d="M14.92,26.91c0-.26-.08-.44-.24-.56-.12-.1-.3-.15-.53-.15h-1.13v1.5h1.09c.27,0,.47-.09,.61-.24,.13-.15,.2-.33,.2-.54h0Z"/><path d="M27.23,26.74c0-.07-.03-.14-.06-.21-.03-.07-.07-.12-.12-.17s-.12-.09-.21-.12c-.08-.03-.19-.04-.32-.03-.14,0-.25,.04-.34,.1-.09,.06-.16,.13-.21,.21-.05,.08-.09,.15-.11,.22s-.03,.12-.03,.15c0,.09,0,.18,.01,.29,0,.11,.04,.21,.08,.3,.04,.09,.11,.17,.21,.24,.09,.07,.23,.1,.4,.11,.09,0,.16,0,.23-.03,.07-.03,.13-.06,.19-.1,.05-.04,.1-.09,.14-.15,.04-.05,.07-.11,.1-.16,.03-.05,.04-.1,.06-.15s.02-.08,.02-.11v-.19c0-.07,0-.14-.02-.21h-.02Z"/><path d="M35,23H1c-.55,0-1,.45-1,1v8c0,.55,.45,1,1,1H35c.55,0,1-.45,1-1v-8c0-.55-.45-1-1-1ZM7.79,28.79c0,.52-.17,.93-.49,1.23-.32,.31-.72,.47-1.21,.48-.48,0-.88-.16-1.2-.48-.33-.3-.49-.71-.5-1.23v-3.25h.72v3.17c0,.34,.1,.59,.28,.77,.18,.18,.41,.28,.69,.28s.51-.09,.7-.28c.18-.18,.27-.43,.27-.77v-3.17h.72v3.25h.02Zm3.89-2.59h-1.31v4.26h-.72v-4.26h-1.31v-.66h3.33v.66h.01Zm3.25,4.26l-.99-2.1h-.92v2.1h-.72v-4.92h1.86c.4,0,.72,.11,.97,.32,.3,.25,.46,.59,.47,1.05,0,.67-.31,1.12-.92,1.36l1.1,2.18h-.85Zm3.44-1.55h-2.01v-.7h2.01v.7Zm2.92,1.19c-.27,.27-.61,.41-1.03,.42-.32,0-.61-.11-.86-.32-.25-.22-.41-.53-.49-.94h.68c.06,.16,.15,.3,.26,.4,.11,.11,.26,.16,.45,.16,.2,0,.37-.07,.51-.21,.14-.13,.21-.32,.22-.57,0-.25-.08-.44-.22-.58-.14-.13-.31-.2-.52-.2h-.29v-.62h.24c.23,0,.41-.07,.54-.2,.13-.13,.19-.3,.19-.5,0-.21-.07-.38-.2-.51-.13-.13-.29-.2-.5-.2-.15,0-.28,.05-.4,.15-.13,.1-.21,.25-.26,.45h-.68c.03-.36,.18-.67,.43-.92,.25-.25,.54-.37,.88-.38,.43,0,.78,.15,1.03,.43,.24,.27,.37,.6,.37,.97,0,.19-.03,.37-.1,.55-.08,.18-.22,.33-.42,.47,.21,.13,.36,.3,.45,.49s.13,.39,.13,.59c0,.46-.14,.82-.41,1.09v-.02Zm3.21-1.19h-2.01v-.7h2.01v.7Zm3.42-1.65c-.02,.09-.03,.17-.06,.25-.02,.08-.05,.16-.07,.23-.03,.08-.06,.16-.09,.25,0,.02-.03,.08-.07,.16-.04,.08-.09,.18-.15,.31-.06,.12-.12,.25-.2,.4-.07,.15-.14,.3-.22,.44-.17,.35-.37,.74-.58,1.17h-.81l.06-.12c.04-.08,.09-.19,.16-.32s.14-.28,.22-.44c.08-.16,.16-.32,.24-.47,.08-.15,.15-.3,.22-.43s.12-.23,.17-.31c-.07,.04-.14,.06-.22,.07h-.29c-.15,0-.28-.03-.39-.08s-.21-.11-.29-.19c-.08-.08-.15-.16-.2-.25-.05-.09-.1-.18-.13-.27-.03-.09-.06-.17-.07-.24-.01-.08-.02-.13-.02-.18v-.43s0-.06,.02-.12c.01-.06,.04-.14,.07-.23,.03-.09,.08-.19,.14-.29,.06-.1,.14-.2,.24-.29,.1-.09,.22-.17,.36-.23,.14-.06,.31-.11,.51-.12,.2-.02,.39,0,.54,.04,.16,.04,.29,.1,.4,.19,.11,.08,.21,.18,.28,.28,.07,.11,.13,.22,.17,.33s.07,.22,.08,.32c.01,.1,.02,.19,0,.27,0,.11-.03,.21-.04,.3h.02Zm3.68-1.04h-1.31v4.26h-.72v-4.26h-1.31v-.66h3.33v.66h0Z"/><path d="M17.21,6.91c0-.26-.08-.44-.24-.56-.12-.1-.3-.15-.53-.15h-1.13v1.5h1.09c.27,0,.47-.09,.61-.24,.13-.15,.2-.33,.2-.54h0Z"/><path d="M26.7,6.74c0-.07-.03-.14-.06-.21-.03-.07-.07-.12-.12-.17-.05-.05-.12-.09-.21-.12-.09-.03-.19-.04-.32-.03-.14,0-.25,.04-.34,.1-.09,.06-.16,.13-.21,.21-.05,.08-.09,.15-.11,.22-.02,.07-.03,.12-.03,.15,0,.09,0,.18,0,.29,0,.11,.04,.21,.08,.3,.04,.09,.11,.17,.21,.24,.09,.07,.23,.1,.4,.11,.09,0,.16,0,.23-.03s.13-.06,.19-.1c.05-.04,.1-.09,.14-.15,.04-.05,.07-.11,.1-.16,.03-.05,.04-.1,.06-.15,.01-.04,.02-.08,.02-.11v-.19c0-.07,0-.14-.02-.21h-.02Z"/><path d="M34.92,3H.92C.37,3-.08,3.45-.08,4V12c0,.55,.45,1,1,1H34.92c.55,0,1-.45,1-1V4c0-.55-.45-1-1-1ZM8.15,8.79c0,.52-.17,.93-.49,1.23-.32,.31-.72,.47-1.21,.48-.48,0-.88-.16-1.2-.48-.33-.3-.49-.71-.5-1.23v-3.25h.72v3.17c0,.34,.1,.59,.28,.77,.18,.18,.41,.28,.69,.28s.51-.09,.7-.28c.18-.18,.27-.43,.27-.77v-3.17h.72v3.25h.02Zm2.58,1.67h-.72V6.2h-1.31v-.66h3.33v.66h-1.31v4.26h.01Zm2.89-1.56h-2.01v-.7h2.01v.7Zm3.58,1.56l-.99-2.1h-.92v2.1h-.72V5.54h1.86c.4,0,.72,.11,.97,.32,.3,.25,.46,.59,.47,1.05,0,.67-.31,1.12-.92,1.36l1.1,2.18h-.85Zm3.55-.36c-.27,.27-.61,.41-1.03,.42-.32,0-.61-.11-.86-.32-.25-.22-.41-.53-.49-.94h.68c.06,.16,.15,.3,.26,.4,.11,.11,.26,.16,.45,.16,.2,0,.37-.07,.51-.21,.14-.13,.21-.32,.22-.57,0-.25-.08-.44-.22-.58-.14-.13-.31-.2-.52-.2h-.29v-.62h.24c.23,0,.41-.07,.54-.2,.13-.13,.19-.3,.19-.5,0-.21-.07-.38-.2-.51-.13-.13-.29-.2-.5-.2-.15,0-.28,.05-.4,.15-.13,.1-.21,.25-.26,.45h-.68c.03-.36,.18-.67,.43-.92s.54-.37,.88-.38c.43,0,.78,.15,1.03,.43,.24,.27,.37,.6,.37,.97,0,.19-.03,.37-.1,.55-.08,.18-.22,.33-.42,.47,.21,.13,.36,.3,.45,.49,.09,.19,.13,.39,.13,.59,0,.46-.14,.82-.41,1.09v-.02Zm3.21-1.19h-2.01v-.7h2.01v.7Zm3.42-1.65c-.02,.09-.03,.17-.06,.25-.02,.08-.05,.16-.07,.23-.03,.08-.06,.16-.09,.25,0,.02-.03,.08-.07,.16s-.09,.18-.15,.31c-.06,.12-.12,.25-.2,.4-.07,.15-.14,.3-.22,.44-.17,.35-.37,.74-.58,1.17h-.81l.06-.12c.04-.08,.09-.19,.16-.32,.07-.13,.14-.28,.22-.44l.24-.47c.08-.16,.15-.3,.22-.43s.12-.23,.17-.31c-.07,.04-.14,.06-.22,.07h-.29c-.15,0-.28-.03-.39-.08-.11-.05-.21-.11-.29-.19-.08-.07-.15-.16-.2-.25-.05-.09-.1-.18-.13-.27-.03-.09-.06-.17-.07-.24-.01-.08-.02-.13-.02-.18v-.43s0-.06,.02-.12c.01-.06,.04-.14,.07-.23,.03-.09,.08-.19,.14-.29,.06-.1,.14-.2,.24-.29s.22-.17,.36-.23c.14-.06,.31-.11,.51-.12,.2-.02,.39,0,.54,.04,.15,.04,.29,.1,.4,.19,.11,.08,.21,.18,.28,.28,.07,.11,.13,.22,.17,.33,.04,.11,.07,.22,.08,.32,.01,.1,.02,.19,0,.27,0,.11-.03,.21-.04,.3h.02Zm3.68-1.04h-1.31v4.26h-.72V6.21h-1.31v-.66h3.33v.66h0Z"/><path d="M13.89,21l-1.45-3-1.44-3h5.77l-1.44,3-1.44,3Z"/><path d="M21.66,15l1.44,3,1.45,3h-5.78l1.45-3,1.44-3Z"/></svg>