<?xml version="1.0" encoding="UTF-8"?><svg id="Layer_1" xmlns="http://www.w3.org/2000/svg" width="35.98" height="36" viewBox="0 0 35.98 36"><path d="M.15,27.03l8.94,8.97h.06v-9H.15v.03Z" style="fill:#1d1d1b;"/><path d="M14.15,14c1.66,0,3-1.34,3-3s-1.34-3-3-3-3,1.34-3,3,1.34,3,3,3Z" style="fill:#1d1d1b;"/><path d="M16.55,29.79l-1.19-1.62,1.62-1.19,9-6.59,1.17-.86,1,.73V1.97c0-1.09-.88-1.97-1.97-1.97H2.12C1.03,0,.15,.88,.15,1.97V25H9.23c1.06,0,1.92,.86,1.92,1.92v9.08h8v-2.68l-.82-1.12-1.78-2.41h0ZM8.32,12.41l-.09-.42c0-.05-.02-.1-.02-.16-.04-.27-.06-.55-.06-.83,0-3.31,2.69-6,6-6s6,2.69,6,6c0,.28-.03,.56-.06,.83,0,.05-.02,.1-.02,.16-.02,.14-.05,.28-.09,.42-.95,4.56-5.83,10.59-5.83,10.59,0,0-4.87-6.03-5.83-10.59Z" style="fill:#1d1d1b;"/><path d="M33.15,26.45v-3.45h-3v1.29l-2.98-2.16-9.01,6.59,1.78,2.41,1.21-.89v5.76h12v-5.82l1.21,.89,1.81-2.44-3.02-2.16v-.02Zm-4,5.55h-4v-3h4v3Z" style="fill:#1d1d1b;"/></svg>