<?xml version="1.0" encoding="UTF-8"?><svg id="Layer_1" xmlns="http://www.w3.org/2000/svg" width="48" height="48" viewBox="0 0 48 48"><path d="M24.05,14.99h-6.99v2.98c.29,.27,.49,.67,.49,1.11,0,.83-.67,1.5-1.5,1.5s-1.5-.67-1.5-1.5c0-.44,.2-.84,.5-1.11v-5.04c-.01-2.21,1.5-4.06,3.57-4.68-.96,1.04-1.57,2.35-1.57,3.78v.95h2v-.95c0-1.58,1.21-3.01,2.95-3.66,1.13,.45,2.04,1.31,2.56,2.4,.25-.74,.59-1.45,1.01-2.1-.16-.2-.33-.4-.51-.58,.26,.04,.52,.11,.77,.18,.41-.58,.88-1.12,1.41-1.6-.95-.42-2.02-.66-3.15-.66-.7,0-1.38,.09-2.04,.27v-.02s-.04,0-.05,.02c-.6-.17-1.22-.26-1.87-.26-3.9,0-7.08,3.11-7.08,6.92l-.02,2.07-5.02-.02-2,27.03h29l-1.33-18.02c-5.04-.17-9.13-4.05-9.62-9h-.01Zm9.95-9c-4.41,0-8,3.59-8,8s3.59,8,8,8,8-3.59,8-8-3.59-8-8-8Zm2.29,11.71l-3.29-3.29v-5.42h2v4.59l2.71,2.71-1.41,1.41h0Z"/></svg>