<?xml version="1.0" encoding="UTF-8"?><svg id="Layer_1" xmlns="http://www.w3.org/2000/svg" width="36" height="36" viewBox="0 0 36 36"><path d="M30.29,31.71l-3.29-3.29v-5.42h2v4.59l2.71,2.71-1.41,1.41Zm-2.29-11.71c-4.41,0-8,3.59-8,8s3.59,8,8,8,8-3.59,8-8-3.59-8-8-8ZM9.95,15.48c-.83,0-1.5-.67-1.5-1.5,0-.44,.19-.84,.5-1.11l.03-5.95c0-2.21,1.51-4.06,3.58-4.68-.97,1.04-1.57,2.35-1.57,3.78v.95h2v-.95c0-1.58,1.21-3.01,2.95-3.66,1.8,.72,3.05,2.47,3.05,4.56l-.02,2.06H10.97l-.02,3.89c.3,.27,.5,.67,.5,1.11,0,.83-.67,1.5-1.5,1.5Zm8.05,12.52c0-5.52,4.48-10,10-10,.93,0,1.83,.14,2.68,.37l-.68-9.38h-6.99l-.02,3.87c.3,.27,.5,.67,.5,1.11,0,.83-.67,1.5-1.5,1.5s-1.5-.67-1.5-1.5c0-.44,.19-.84,.5-1.11V6.93c-.01-1.89-.77-3.6-2-4.85,2.25,.37,3.99,2,3.99,3.94v.95h2v-.95c0-3.32-3.15-6.02-6.97-6.02-.7,0-1.39,.09-2.04,.27v-.02s-.04,.01-.05,.02c-.6-.17-1.22-.26-1.87-.26-3.9,0-7.08,3.11-7.08,6.93l-.02,2.07-4.97-.02L-.04,36H22.02c-2.43-1.82-4.02-4.72-4.02-8Z" style="fill-rule:evenodd;"/></svg>