<?xml version="1.0" encoding="UTF-8"?><svg id="Layer_1" xmlns="http://www.w3.org/2000/svg" width="36" height="36" viewBox="0 0 36 36"><path d="M20,11.99c0,2.21-1.54,4-3.43,4h-4.61V7.99h4.61c1.89,0,3.43,1.79,3.43,4h0Zm5.54,8.99h3.96c.83,0,1.5,.65,1.5,1.47v1.54h3.5c.83,0,1.5,.67,1.5,1.5v9.01c0,.83-.67,1.5-1.5,1.5h-14.01c-.83,0-1.5-.67-1.5-1.5v-9.01c0-.83,.67-1.5,1.5-1.5h3.5v-1.51c0-.83,.68-1.5,1.54-1.5h.01Zm.46,3h3v-1h-3v1Zm-9,6H4.5c-2.48,0-4.5-2.02-4.5-4.5V4.48C0,2,2.02-.02,4.5-.02H25.5c2.48,0,4.5,2.02,4.5,4.5v14.54l-4.46-.04c-1.78,0-3.26,1.31-3.5,3h-1.54c-1.93,0-3.5,1.57-3.5,3.5v4.5Zm-.52-12.01c3.04,0,5.52-2.68,5.52-5.98s-2.48-5.98-5.52-5.98h-6.48V23.98h1.96v-6.01h4.52Z"/></svg>