<?xml version="1.0" encoding="UTF-8"?><svg id="Layer_1" xmlns="http://www.w3.org/2000/svg" width="36" height="36" viewBox="0 0 36 36"><path d="M15.09,17.47H6.93l.95-2.8c.03-.09,.11-.2,.24-.2h5.79c.12,0,.2,.09,.23,.19l.95,2.81Zm-7.83,1.53c-.41,0-.75,.33-.75,.74s.33,.74,.75,.74,.75-.33,.75-.74-.33-.74-.75-.74Zm7.51,0c-.41,0-.75,.33-.75,.74s.33,.74,.75,.74,.75-.33,.75-.74-.33-.74-.75-.74Zm21.23-9.01V26c0,2.21-1.79,4-4,4H3.98c-2.2,0-3.98-1.78-3.98-3.98V9.99c0-2.21,1.79-3.99,3.99-3.99h13.01v4h2V6h13.01c2.2,0,3.99,1.79,3.99,3.99Zm-19,8.54c0-.16-.03-.32-.08-.48l-1.3-3.86c-.23-.71-.89-1.19-1.64-1.19h-5.95c-.74,0-1.39,.47-1.64,1.18l-1.32,3.85c-.05,.15-.08,.32-.08,.48v6.46s2.03,0,2,.04v-2l8-.04v2.04h2v-6.47h.01Zm11,4.46h-7v2h7v-2Zm2-5h-9v2h9v-2Zm0-5h-9v2h9v-2Z"/></svg>