<?xml version="1.0" encoding="UTF-8"?><svg id="Layer_1" xmlns="http://www.w3.org/2000/svg" width="35.98" height="36" viewBox="0 0 35.98 36"><path d="M13.29,3.87c0-2.14,1.73-3.87,3.87-3.87s3.87,1.73,3.87,3.87-1.73,3.87-3.87,3.87-3.87-1.73-3.87-3.87Zm13.87,16.68h-6.16v-6.41c0-2.14-1.73-3.87-3.85-3.87s-3.85,1.73-3.85,3.87v7.68c0,2.13,1.74,3.87,3.87,3.87h8.98v10.28h5.14v-11.3c0-2.26-1.85-4.12-4.12-4.12ZM7.05,27.89c-.83-3.19,.97-6.06,3.66-7.04v-4c-5.88,1.19-9.83,7.73-6.55,14.32,.78,1.57,2.08,2.87,3.65,3.65,6.59,3.27,13.13-.68,14.32-6.55h-4c-.96,2.72-3.91,4.53-7.12,3.64-1.91-.53-3.45-2.1-3.95-4.01Z"/></svg>