<?xml version="1.0" encoding="UTF-8"?><svg id="Layer_1" xmlns="http://www.w3.org/2000/svg" width="36" height="36" viewBox="0 0 36 36"><path d="M18.05,8.99h-6.99v2.98c.29,.27,.49,.67,.49,1.11,0,.83-.67,1.5-1.5,1.5s-1.5-.67-1.5-1.5c0-.44,.2-.84,.5-1.11v-2.97h-.02v-2.07c0-2.21,1.52-4.06,3.58-4.68-.96,1.04-1.57,2.35-1.57,3.78v.95h2v-.95c0-1.58,1.21-3.01,2.95-3.66,1.13,.45,2.04,1.31,2.56,2.4,.25-.74,.59-1.45,1.01-2.1-.16-.2-.33-.4-.51-.58,.26,.04,.52,.11,.77,.18,.41-.58,.88-1.12,1.41-1.6C20.28,.25,19.21,.01,18.08,.01c-.7,0-1.38,.09-2.04,.27v-.02s-.04,0-.05,.02c-.6-.17-1.22-.26-1.87-.26C10.22,.02,7.04,3.13,7.04,6.94l-.02,2.07-5.02-.02L0,36.02H29l-1.33-18.02c-5.04-.17-9.13-4.05-9.62-9h0Zm1.58,20.52c-.9,.77-2.2,1.3-3.74,1.3-2.59,0-5.02-1.46-5.94-4.1h-1.82v-1.69h1.47c-.02-.17-.04-.44-.04-.69,0-.31,.02-.5,.04-.69h-1.47v-1.67h1.8c.92-2.68,3.41-4.16,5.98-4.16,1.34,0,2.41,.29,3.28,.88l-.88,1.78c-.63-.46-1.46-.67-2.39-.67-1.48,0-2.87,.69-3.58,2.16h5.27l-.8,1.67h-4.9c-.02,.15-.04,.36-.04,.67,0,.34,.02,.57,.04,.71h4.33l-.79,1.69h-3.08c.71,1.4,2.05,2.07,3.54,2.07,1.07,0,2.01-.31,2.66-.92l1.07,1.65h-.01ZM28,0c-4.41,0-8,3.59-8,8s3.59,8,8,8,8-3.59,8-8S32.41,0,28,0Zm2.29,11.71l-3.29-3.29V3h2V7.59l2.71,2.71-1.41,1.41h0Z"/></svg>