<?xml version="1.0" encoding="UTF-8"?><svg id="Layer_1" xmlns="http://www.w3.org/2000/svg" width="36" height="36" viewBox="0 0 36 36"><path d="M1.93,32.5v-1.5H18.93v1.5c0,.83-.67,1.5-1.5,1.5H3.43c-.83,0-1.5-.67-1.5-1.5ZM28.16,0c-3.99,.14-7.2,3.31-7.2,7.18,0,2.55,2.1,4.79,4.49,4.79,2.69,0,4.49-1.77,4.49-4.41h-.04s.01-.09,.01-.13c0-.82-.66-1.48-1.48-1.48s-1.48,.66-1.48,1.48c0,.05,0,.09,.01,.13h-.04c0,.66-.17,1.41-1.49,1.41-.75,0-1.49-.88-1.49-1.79,0-2.32,2.03-4.2,4.51-4.18,2.67,.02,4.62,2.49,4.42,5.16-.21,2.75-1.7,4.97-4.09,6.06-1.11,.5-1.87,1.56-1.87,2.78v3.95h-1.49c-.83,0-1.5,.67-1.5,1.5s.67,1.5,1.5,1.5h1.5v11.97h3v-11.97h1.53c.83,0,1.5-.67,1.5-1.5h0c0-.83-.67-1.5-1.49-1.5h-1.54v-3.98c3.17-1.44,5.33-4.28,5.86-7.79C36.52,4.38,33-.17,28.16,0ZM11.72,2.25c-.58-1-2.02-1-2.61,0L.21,17.52c-.19,.33-.25,.72-.17,1.09l1.76,9.39h7.13v-7H3.93v-3h5v-6h3v6h5v3h-5v7h7.01l1.86-9.38c.09-.38,.03-.77-.17-1.1L11.72,2.25Z"/></svg>