<?xml version="1.0" encoding="UTF-8"?><svg id="Layer_1" xmlns="http://www.w3.org/2000/svg" width="36" height="36" viewBox="0 0 36 36"><path d="M26.98,3.49c0-1.93,1.57-3.49,3.51-3.49s3.51,1.56,3.51,3.49-1.57,3.49-3.51,3.49-3.51-1.56-3.51-3.49Zm-6.52,3.49c1.94,0,3.51-1.56,3.51-3.49s-1.57-3.49-3.51-3.49-3.51,1.56-3.51,3.49,1.57,3.49,3.51,3.49Zm-5.52,14.12V10.98c-.01-1.65,1.34-2,3-2h4.46c1.66,0,3.01,1.34,3.01,2.99,0-1.65,1.35-2.99,3.01-2.99h4.58c1.66,0,3.01,1.34,3.01,2.99v10.98h-2v4.99c-.82-.25-1.79-.41-2.95-.41h-.28l-.78,.08v-5.6c0-1.14-.93-2.06-2.07-2.06h-4.99c-1.1,0-2,.89-1.99,1.99v.89l-5.18-1.56-.65-.19-.16,.02Zm7.53-5.14c0,1.65,1.35,2.99,3.01,2.99s3.01-1.34,3.01-2.99-1.35-2.99-3.01-2.99-3.01,1.34-3.01,2.99Zm-9.95-3.31h0l-1.08-1.64h0c-.65,.61-1.59,.92-2.67,.92-1.5,0-2.84-.67-3.55-1.95h3.09l.79-2H4.76s-.04-.16-.04-.51c0-.31,.04-.49,.04-.49h4.92l.81-2H5.2c.71-1.32,2.11-2,3.59-2,.94,0,1.77,.21,2.4,.67h0l.88-1.78h0c-.86-.59-1.94-.88-3.28-.88-2.57,0-5.07,1.47-5.99,3.99H.92v2h1.56s-.04,.21-.04,.51c0,.25,.02,.52,.04,.49H.92v2h1.9v-.11c.92,2.64,3.36,4.09,5.95,4.09,1.54,0,2.84-.54,3.74-1.3Zm2.37,11.48l-5.85,.88v7.98l11.99,2.99,14.13-3.08s0-2.39-4.11-2.39l-10.03,.92-4.77-1.21,.78-2.24,3.95,1.01h3.18s-.22-2.21-3.11-3.02l-6.17-1.86m-8.87-.11H0v9.98H6.01v-9.98Z"/></svg>