<?xml version="1.0" encoding="UTF-8"?><svg id="Layer_1" xmlns="http://www.w3.org/2000/svg" width="36" height="36" viewBox="0 0 36 36"><path d="M21.4,30.81c-2.1,3.13-5.67,5.19-9.72,5.19-6.44,0-11.68-5.21-11.68-11.62S5.24,12.75,11.68,12.75s11.68,5.21,11.68,11.62c0,.23-.02,.46-.04,.69-1.1-.15-2.12-.56-3-1.16-.25-4.54-4.02-8.16-8.64-8.16S3.01,19.62,3.01,24.38s3.89,8.62,8.66,8.62c2.74,0,5.17-1.27,6.76-3.25,.93,.46,1.92,.82,2.96,1.05Zm14.6-12.83c0,6.16-5.02,11.38-11.2,11.63-6.66,.26-12.16-5.05-12.16-11.62,0-.24,.04-.46,.05-.69,1.08,.14,2.09,.52,2.98,1.1,.21,4.45,3.81,8.03,8.29,8.22,4.74,.19,8.88-3.64,9.02-8.36s-3.8-8.88-8.66-8.88c-2.74,0-5.18,1.28-6.77,3.26-.94-.46-1.92-.8-2.95-1.03,1.35-2.02,3.3-3.6,5.61-4.47l-2.29-3.12L20.93,0h7.03l3.01,4-2.36,3.19c4.31,1.71,7.38,5.89,7.38,10.79ZM26.96,4l-.61-1h-3.81l-.61,1,1.19,2h2.63l1.21-2Z"/></svg>