<svg width="39" height="37" viewBox="0 0 39 37" fill="none" xmlns="http://www.w3.org/2000/svg">
<path d="M13.84 33.2396C13.84 33.9318 13.6347 34.6085 13.2501 35.1841C12.8655 35.7596 12.3189 36.2082 11.6794 36.4731C11.0398 36.7381 10.3361 36.8074 9.65716 36.6723C8.97823 36.5373 8.35459 36.2039 7.86511 35.7144C7.37562 35.2249 7.04227 34.6013 6.90722 33.9224C6.77217 33.2434 6.84147 32.5397 7.10638 31.9002C7.37129 31.2606 7.81993 30.714 8.3955 30.3294C8.97108 29.9448 9.64773 29.7396 10.34 29.7396C11.2682 29.7396 12.1584 30.1083 12.8148 30.7647C13.4712 31.4211 13.84 32.3113 13.84 33.2396Z" fill="currentColor"/>
<path d="M35.24 11.3796H15.24C14.8147 11.3796 14.47 11.7243 14.47 12.1496V27.7096C14.47 28.1348 14.8147 28.4796 15.24 28.4796H35.24C35.6652 28.4796 36.01 28.1348 36.01 27.7096V12.1496C36.01 11.7243 35.6652 11.3796 35.24 11.3796Z" fill="currentColor"/>
<path d="M38.73 33.2396C38.73 33.9318 38.5247 34.6085 38.1401 35.1841C37.7555 35.7596 37.2089 36.2082 36.5693 36.4731C35.9298 36.7381 35.2261 36.8074 34.5472 36.6723C33.8682 36.5373 33.2446 36.2039 32.7551 35.7144C32.2656 35.2249 31.9323 34.6013 31.7972 33.9224C31.6622 33.2434 31.7315 32.5397 31.9964 31.9002C32.2613 31.2606 32.7099 30.714 33.2855 30.3294C33.861 29.9448 34.5377 29.7396 35.23 29.7396C36.1582 29.7396 37.0485 30.1083 37.7048 30.7647C38.3612 31.4211 38.73 32.3113 38.73 33.2396Z" fill="currentColor"/>
<path d="M31.6299 31.0296C31.63 31.0803 31.6198 31.1306 31.6001 31.1773C31.5804 31.2241 31.5515 31.2664 31.5151 31.3019C31.4788 31.3373 31.4358 31.3651 31.3885 31.3836C31.3412 31.4021 31.2907 31.4109 31.24 31.4096H14.6299C14.5787 31.4109 14.5277 31.4021 14.4799 31.3837C14.4321 31.3654 14.3884 31.3377 14.3513 31.3024C14.3141 31.2671 14.2842 31.2249 14.2634 31.1781C14.2426 31.1312 14.2313 31.0808 14.23 31.0296V30.4196C14.2313 30.3683 14.2426 30.3179 14.2634 30.2711C14.2842 30.2242 14.3141 30.182 14.3513 30.1467C14.3884 30.1114 14.4321 30.0838 14.4799 30.0654C14.5277 30.047 14.5787 30.0382 14.6299 30.0396H31.24C31.2907 30.0382 31.3412 30.0471 31.3885 30.0656C31.4358 30.0841 31.4788 30.1118 31.5151 30.1473C31.5515 30.1827 31.5804 30.225 31.6001 30.2718C31.6198 30.3186 31.63 30.3688 31.6299 30.4196V31.0296Z" fill="currentColor"/>
<path d="M11.33 28.0495H11.55C11.79 28.0495 12.18 28.0495 12.42 28.0495C12.66 28.0495 12.85 27.7095 12.85 27.2795V18.7195C12.8513 18.618 12.8323 18.5173 12.7941 18.4233C12.7559 18.3292 12.6992 18.2438 12.6274 18.172C12.5557 18.1003 12.4702 18.0436 12.3762 18.0054C12.2822 17.9672 12.1814 17.9482 12.08 17.9495H4.57996C4.35996 17.9495 4.04 18.2695 3.87 18.6495L0.299988 27.0295C0.115213 27.4983 0.0137015 27.9958 0 28.4995V33.0595C0.00259154 33.2629 0.0845485 33.4573 0.228394 33.6011C0.372239 33.745 0.566547 33.8269 0.769958 33.8295H3.76996C4.00084 33.8162 4.22535 33.7485 4.42517 33.6321C4.62499 33.5157 4.79451 33.3538 4.91998 33.1595C4.91998 33.1595 7.90996 28.0495 11.33 28.0495Z" fill="currentColor"/>
<path d="M11.91 12.3895C11.49 12.3895 11.4 12.1595 11.71 11.8795L24.65 0.209549C24.8091 0.0742734 25.0112 0 25.22 0C25.4288 0 25.6309 0.0742734 25.79 0.209549L38.72 11.8795C39.04 12.1595 38.95 12.3895 38.53 12.3895H11.91Z" fill="currentColor"/>
<path d="M8.12992 25.9295C8.33149 25.9295 8.52481 25.8495 8.66734 25.7069C8.80987 25.5644 8.88993 25.3711 8.88993 25.1695V19.7795C8.88995 19.577 8.8102 19.3827 8.66795 19.2386C8.5257 19.0944 8.3324 19.0122 8.12992 19.0095H5.23997C5.04997 19.0095 4.75995 19.3295 4.58995 19.7195L2.23997 25.2295C2.19625 25.3056 2.17472 25.3924 2.17778 25.4801C2.18083 25.5678 2.20833 25.6528 2.25724 25.7257C2.30615 25.7985 2.3745 25.8562 2.45451 25.8923C2.53451 25.9283 2.62298 25.9412 2.70994 25.9295H8.12992Z" fill="white"/>
</svg>
