<?xml version="1.0" encoding="UTF-8"?><svg id="Layer_1" xmlns="http://www.w3.org/2000/svg" width="36" height="36" viewBox="0 0 36 36"><path d="M30.95,28.5c0,1.38-1.12,2.5-2.5,2.5s-2.5-1.12-2.5-2.5,1.12-2.5,2.5-2.5,2.5,1.12,2.5,2.5Zm-23.5-2.5c-1.38,0-2.5,1.12-2.5,2.5s1.12,2.5,2.5,2.5,2.5-1.12,2.5-2.5-1.12-2.5-2.5-2.5Zm28.53-9.01l-.03,8.01c0,1-1,2-2,2h-1.28c-.62-1.74-2.27-3-4.22-3s-3.6,1.26-4.22,3H11.68c-.62-1.74-2.27-3-4.22-3s-3.6,1.26-4.22,3H1.51C.68,27,0,26.33,0,25.5V5H27.96l.03,5.99h4c.67,0,1.33,.67,2,2l2,4h0Zm-24.99,1.01v-3.2c1.16-.41,2-1.51,2-2.81v-2.99H6.99v2.99c0,1.3,.84,2.4,2,2.81v3.2h-2v2h6v-2h-2Zm11-3l-4-6.03-4,6.03h3v5h2v-5h3Zm11.78,1.99l-2-4h-3.79l-.04,4h5.83Z"/></svg>