<?xml version="1.0" encoding="UTF-8"?><svg id="Layer_1" xmlns="http://www.w3.org/2000/svg" width="36" height="36" viewBox="0 0 36 36"><path d="M10.22,30.65h3.35c-.78,3.42-4.11,5.88-7.89,5.25-2.81-.48-5.1-2.75-5.58-5.56-.64-3.75,1.78-7.07,5.17-7.88v3.37c-1.47,.71-2.4,2.35-1.99,4.16,.31,1.35,1.4,2.44,2.75,2.74,1.84,.41,3.5-.56,4.19-2.07Zm-.16-14.33c1.47,0,2.66-1.19,2.66-2.66s-1.19-2.66-2.66-2.66-2.66,1.19-2.66,2.66,1.19,2.66,2.66,2.66Zm6.18,9.02h-3.54v-4.44c0-1.24-.79-2.42-2-2.71-1.75-.42-3.31,.9-3.31,2.58v5.09c0,1.46,1.2,2.66,2.66,2.66h5.83v7.43h3.18v-7.78c0-1.56-1.27-2.83-2.83-2.83Zm16.76-7.34h3V8.09l-1.99-6.03c-.44-1.23-1.64-2.06-3-2.06h-8.96c-1.36,0-2.56,.83-3,2.08l-2.04,6.01v9.91h3v-3h13v3ZM21.74,3h9.47l1.23,4h-11.94l1.24-4Zm.26,8h-2v-2h2v2Zm11,0h-2v-2h2v2Z"/></svg>