<?xml version="1.0" encoding="UTF-8"?><svg id="Layer_1" xmlns="http://www.w3.org/2000/svg" width="48" height="48" viewBox="0 0 48 48"><path d="M42,13v2l-13-6-13,6v-2l13-6,13,6Z"/><path d="M41,26c0-1.66-1.34-3-3-3h-5.95c-1.66,0-3,1.34-3,3,0-1.66-1.34-3-3-3h-6.05c-1.65,0-3,1.35-3,3.01v.39c1.06,.49,1.84,1.42,2,2.6h1.5c1.93,0,3.5,1.57,3.5,3.5v1.5h6c1.1,0,2,.9,2,2v5h6v-4h3v-11Zm-13.5,7.25c-1.24,0-2.25-1.01-2.25-2.25s1.01-2.25,2.25-2.25,2.25,1.01,2.25,2.25-1.01,2.25-2.25,2.25Z"/><path d="M35,21c1.66,0,3-1.34,3-3s-1.34-3-3-3-3,1.34-3,3,1.34,3,3,3Z"/><path d="M23,21c1.66,0,3-1.34,3-3s-1.34-3-3-3-3,1.34-3,3,1.34,3,3,3Z"/><path d="M20,31h-3v-1.5c0-.83-.67-1.5-1.5-1.5h-3c-.83,0-1.5,.67-1.5,1.5v1.5h-3c-1.1,0-2,.9-2,2v6c0,.99,1,2,2,2h12c1,0,2-1.01,2-2v-6c0-.99-1-2-2-2Zm-7-1h2.01v1h-2.01v-1Z"/></svg>