<?xml version="1.0" encoding="UTF-8"?><svg id="Layer_1" xmlns="http://www.w3.org/2000/svg" width="36" height="36" viewBox="0 0 36 36"><path d="M34.88,15.49c.18-.23,.16-.58-.06-.8l-.14-.14c-.69-.73-1.55-1.62-3.28-.94l-4.79,2.94c-.51,.32-1.14,.33-1.66,.03-.52-.29-.84-.83-.86-1.44-.02-.85-.12-2.47-.25-4.35v-.07c-.17-2.58-.36-5.51-.37-7.21,0-1.05-.85-1.91-1.89-1.91s-1.83,.8-1.89,1.82l-.4,8.83c-.44,.11-.91,.23-1.39,.37L14.6,1.47C14.33,.43,13.27-.2,12.26,.06c-1.03,.26-1.65,1.29-1.42,2.35l3.06,11.66c-.21,.09-.41,.18-.63,.28L7.48,5.92c-.57-.83-1.59-1.15-2.43-.77-.54,.24-.93,.71-1.09,1.29-.13,.51-.07,1.04,.19,1.51l5.24,8.48c-.25,.15-.5,.31-.75,.47l-4.8-3.74c-.7-.65-1.71-.64-2.36,.02-.63,.64-.66,1.67-.06,2.36l4.69,4.74,7.07,10.06c.57,.82,.96,1.78,1.13,2.77l.48,2.9h13.97l-1.82-7.27c-.55-2.19,.02-4.5,1.53-6.16l6.4-7.07Zm-13.02,6.9l-4.91,5.04-4.91-5.04c-1.13-1.16-1.13-3.05,0-4.21,1.13-1.16,2.97-1.16,4.1,0l.8,.82,.8-.82c1.13-1.16,2.97-1.16,4.1,0,1.13,1.16,1.13,3.05,0,4.21Z"/></svg>