<?xml version="1.0" encoding="UTF-8"?><svg id="Layer_1" xmlns="http://www.w3.org/2000/svg" width="48" height="48" viewBox="0 0 48 48"><path d="M9,13.03c0,3.87,3.13,7,7,7s7-3.13,7-7-3.13-7-7-7-7,3.13-7,7Zm6,3c0-.29,.09-.53,.28-.72,.19-.19,.43-.28,.72-.28s.54,.09,.72,.28c.19,.19,.28,.43,.28,.72s-.09,.53-.28,.72c-.19,.19-.43,.28-.72,.28s-.54-.09-.72-.28c-.19-.19-.28-.43-.28-.72Zm-.07-7h2v5h-2v-5Zm22.07,23.23V10h-.05c.02-.16,.05-.33,.05-.5,0-1.93-1.57-3.5-3.5-3.5s-3.5,1.57-3.5,3.5c0,.17,.03,.34,.05,.5h-.05v22.26c-1.22,1.01-2,2.53-2,4.24,0,3.04,2.46,5.5,5.5,5.5s5.5-2.46,5.5-5.5c0-1.71-.78-3.23-2-4.24Zm-3.5,7.74c-1.93,0-3.5-1.57-3.5-3.5,0-1.39,.82-2.59,2-3.15v-13.35c0-.83,.67-1.5,1.5-1.5s1.5,.67,1.5,1.5v13.35c1.18,.56,2,1.76,2,3.15,0,1.93-1.57,3.5-3.5,3.5Z"/></svg>