<?xml version="1.0" encoding="UTF-8"?><svg id="Layer_1" xmlns="http://www.w3.org/2000/svg" width="36" height="36" viewBox="0 0 36 36"><path d="M31.65,12.05v-.02c-.22-.44-.49-.86-.86-1.23-.34-.34-.72-.59-1.12-.79-.02-.01-.05-.02-.07-.04-1.68-.84-3.78-.57-5.19,.83-1.76,1.76-1.76,4.62,0,6.37,1.76,1.76,4.62,1.76,6.37,0,1.39-1.39,1.66-3.46,.86-5.13h0ZM3.13,16.59c-1.27-1.39-.94-3.45,.73-4.45l4.51-2.71c1.2-.58,2.66-.57,3.84,.04l6.43,4.09c1.07,.55,3.76,3.78,5.21,5.76-.48-.12-.85-.31-1.32-.54-.98-.5-2.21-1.13-4.49-1.13s-3.51,.63-4.49,1.13c-.78,.4-1.29,.67-2.51,.67s-1.74-.26-2.52-.67c-.62-.32-1.34-.69-2.37-.92l6.83-3.77-2.76-1.83-7.09,4.34v-.02Zm32.87,9.24v2.03c-.36-.14-.69-.31-.99-.47-.82-.42-1.52-.78-3.01-.78s-2.19,.36-3.01,.78c-.93,.48-1.98,1.02-4,1.02s-3.07-.54-3.99-1.02c-.82-.41-1.52-.78-3-.78v-.02c-1.45,0-2.15,.37-2.96,.78-.93,.48-1.99,1.02-4.01,1.02s-3.08-.54-4.01-1.02c-.82-.42-1.53-.78-3.02-.78s-2.2,.36-3.02,.78c-.31,.16-.63,.32-.99,.47v-2.03c.93-.48,1.98-1.02,4-1.02s3.07,.54,4,1.02c.82,.42,1.52,.78,3.01,.78s2.19-.36,3-.78c.93-.48,1.98-1.02,3.99-1.02v.02c1.98,0,3.03,.55,3.95,1.02,.82,.42,1.52,.78,3.01,.78s2.2-.36,3.02-.78c.93-.48,1.99-1.02,4.01-1.02s3.08,.54,4.01,1.02h.01Zm0-4.48v2.03c-.36-.14-.69-.31-.99-.47-.82-.42-1.52-.78-3.01-.78s-2.19,.36-3.01,.78c-.93,.48-1.98,1.02-4,1.02s-3.07-.54-3.99-1.02c-.82-.42-1.52-.78-3-.78v-.02c-1.45,0-2.15,.37-2.96,.78-.93,.48-1.99,1.02-4.01,1.02s-3.08-.54-4.01-1.02c-.82-.42-1.53-.78-3.02-.78s-2.2,.36-3.02,.78c-.31,.15-.63,.32-.99,.47v-2.03c.93-.48,1.98-1.02,4-1.02s3.07,.54,4,1.02c.82,.42,1.52,.78,3.01,.78s2.19-.36,3-.78c.93-.48,1.98-1.02,3.99-1.02v.02c1.98,0,3.03,.54,3.95,1.02,.82,.42,1.52,.78,3.01,.78s2.2-.36,3.02-.78c.93-.48,1.99-1.02,4.01-1.02s3.08,.54,4.01,1.02h.01Z" style="fill-rule:evenodd;"/></svg>