<svg
    width="284"
    height="133"
    viewBox="0 0 284 133"
    fill="none"
    xmlns="http://www.w3.org/2000/svg"
    class="dark--hidden"
>
    <path
        d="M184.922 48.7C184.722 48.5 184.622 48.2 184.622 47.9V18C184.622 17.7 184.722 17.4 184.922 17.2C185.122 17 185.422 16.9 185.722 16.9H199.222C203.122 16.9 206.222 17.8 208.522 19.6C210.822 21.4 211.922 24 211.922 27.5C211.922 30.9 210.822 33.5 208.522 35.2C206.322 36.9 203.222 37.8 199.222 37.8H193.122V47.9C193.122 48.2 193.022 48.5 192.822 48.7C192.622 48.9 192.322 49 191.922 49H185.722C185.422 49 185.222 48.9 184.922 48.7ZM199.022 31.5C200.322 31.5 201.422 31.2 202.222 30.5C203.022 29.8 203.322 28.8 203.322 27.4C203.322 26.1 202.922 25.1 202.222 24.4C201.522 23.7 200.422 23.3 199.022 23.3H193.022V31.5H199.022V31.5Z"
        fill="#00365F"
    ></path>
    <path
        d="M224.022 46.3C221.622 44.2 220.422 41 220.422 36.7V18C220.422 17.7 220.522 17.4 220.722 17.2C220.922 17 221.222 16.9 221.522 16.9H227.422C227.722 16.9 228.022 17 228.222 17.2C228.422 17.4 228.522 17.7 228.522 18V36.7C228.522 38.7 229.022 40.2 229.922 41.2C230.822 42.2 232.222 42.7 233.922 42.7C235.622 42.7 237.022 42.2 237.922 41.2C238.822 40.2 239.322 38.7 239.322 36.7V18C239.322 17.7 239.422 17.4 239.622 17.2C239.822 17 240.122 16.9 240.422 16.9H246.322C246.622 16.9 246.922 17 247.122 17.2C247.322 17.4 247.422 17.7 247.422 18V36.7C247.422 41 246.222 44.1 243.822 46.3C241.422 48.4 238.122 49.5 233.822 49.5C229.822 49.5 226.422 48.4 224.022 46.3Z"
        fill="#00365F"
    ></path>
    <path
        d="M256.522 48.7C256.322 48.5 256.222 48.2 256.222 47.9V18C256.222 17.7 256.322 17.4 256.522 17.2C256.722 17 257.022 16.9 257.322 16.9H269.822C273.822 16.9 276.922 17.8 279.222 19.6C281.522 21.4 282.622 24 282.622 27.3C282.622 29.4 282.122 31.3 281.122 32.8C280.122 34.3 278.722 35.4 276.922 36.2L283.222 47.5C283.322 47.7 283.322 47.9 283.322 48C283.322 48.2 283.222 48.5 283.022 48.7C282.822 48.9 282.622 49 282.322 49H276.222C275.322 49 274.722 48.6 274.322 47.8L269.122 37.7H264.422V47.9C264.422 48.2 264.322 48.5 264.122 48.7C263.922 48.9 263.622 49 263.322 49H257.422C257.022 49 256.722 48.9 256.522 48.7ZM269.722 31.2C271.122 31.2 272.222 30.9 272.922 30.2C273.622 29.5 274.022 28.6 274.022 27.3C274.022 26.1 273.622 25.1 272.922 24.4C272.222 23.7 271.122 23.3 269.722 23.3H264.422V31.2H269.722Z"
        fill="#00365F"
    ></path>
    <path
        d="M184.922 89.4C184.722 89.2 184.622 88.9 184.622 88.6V58.7C184.622 58.4 184.722 58.1 184.922 57.9C185.122 57.7 185.422 57.6 185.722 57.6H192.122C192.822 57.6 193.322 57.9 193.722 58.6L198.222 73.1L202.722 58.6C203.022 57.9 203.522 57.6 204.322 57.6H210.722C211.022 57.6 211.322 57.7 211.522 57.9C211.722 58.1 211.822 58.4 211.822 58.7V88.6C211.822 88.9 211.722 89.2 211.522 89.4C211.322 89.6 211.022 89.7 210.722 89.7H205.422C205.122 89.7 204.822 89.6 204.622 89.4C204.422 89.2 204.322 88.9 204.322 88.6V71.4L201.022 81C200.622 81.7 200.122 82.1 199.422 82.1H197.022C196.622 82.1 196.322 82 196.122 81.8C195.922 81.6 195.722 81.4 195.522 81L192.122 71.4V88.6C192.122 88.9 192.022 89.2 191.822 89.4C191.622 89.6 191.322 89.7 191.022 89.7H185.722C185.422 89.7 185.122 89.6 184.922 89.4Z"
        fill="#00365F"
    ></path>
    <path
        d="M184.922 130.1C184.722 129.9 184.622 129.6 184.622 129.3V99.4C184.622 99.1 184.722 98.8001 184.922 98.6001C185.122 98.4001 185.422 98.3 185.722 98.3H210.622C210.922 98.3 211.222 98.4001 211.422 98.6001C211.622 98.8001 211.722 99.1 211.722 99.4V103.7C211.722 104 211.622 104.3 211.422 104.5C211.222 104.7 210.922 104.8 210.622 104.8H192.522V111H209.122C209.422 111 209.722 111.1 209.922 111.3C210.122 111.5 210.222 111.8 210.222 112.2V116.2C210.222 116.5 210.122 116.8 209.922 117C209.722 117.2 209.422 117.3 209.122 117.3H192.522V123.7H210.622C210.922 123.7 211.222 123.8 211.422 124C211.622 124.2 211.722 124.5 211.722 124.8V129.1C211.722 129.4 211.622 129.7 211.422 129.9C211.222 130.1 210.922 130.2 210.622 130.2H185.722C185.422 130.4 185.222 130.3 184.922 130.1Z"
        fill="#00365F"
    ></path>
    <path
        d="M220.722 89.4C220.522 89.2 220.422 88.9 220.422 88.6V58.7C220.422 58.4 220.522 58.1 220.722 57.9C220.922 57.7 221.222 57.6 221.522 57.6H246.422C246.722 57.6 247.022 57.7 247.222 57.9C247.422 58.1 247.522 58.4 247.522 58.7V63C247.522 63.3 247.422 63.6 247.222 63.8C247.022 64 246.722 64.1 246.422 64.1H228.322V70.3H244.922C245.222 70.3 245.522 70.4 245.722 70.6C245.922 70.8 246.022 71.1 246.022 71.5V75.5C246.022 75.8 245.922 76.1 245.722 76.3C245.522 76.5 245.222 76.6 244.922 76.6H228.322V83H246.422C246.722 83 247.022 83.1 247.222 83.3C247.422 83.5 247.522 83.8 247.522 84.1V88.4C247.522 88.7 247.422 89 247.222 89.2C247.022 89.4 246.722 89.5 246.422 89.5H221.522C221.222 89.7 220.922 89.6 220.722 89.4Z"
        fill="#00365F"
    ></path>
    <path
        d="M256.522 89.4C256.322 89.2 256.222 88.9 256.222 88.6V58.7C256.222 58.4 256.322 58.1 256.522 57.9C256.722 57.7 257.022 57.6 257.322 57.6H269.822C273.822 57.6 276.922 58.5 279.222 60.3C281.522 62.1 282.622 64.7 282.622 68C282.622 70.1 282.122 72 281.122 73.5C280.122 75 278.722 76.1 276.922 76.9L283.222 88.2C283.322 88.4 283.322 88.6 283.322 88.7C283.322 88.9 283.222 89.2 283.022 89.4C282.822 89.6 282.622 89.7 282.322 89.7H276.222C275.322 89.7 274.722 89.3 274.322 88.5L269.122 78.4H264.422V88.6C264.422 88.9 264.322 89.2 264.122 89.4C263.922 89.6 263.622 89.7 263.322 89.7H257.422C257.022 89.7 256.722 89.6 256.522 89.4ZM269.722 71.9C271.122 71.9 272.222 71.6 272.922 70.9C273.622 70.2 274.022 69.3 274.022 68C274.022 66.7 273.622 65.8 272.922 65.1C272.222 64.4 271.122 64 269.722 64H264.422V71.9H269.722Z"
        fill="#00365F"
    ></path>
    <path
        d="M220.722 130.1C220.522 129.9 220.322 129.6 220.322 129.3V99.4C220.322 99.1 220.422 98.8001 220.722 98.6001C220.922 98.4001 221.222 98.3 221.522 98.3H226.522C227.322 98.3 227.822 98.6 228.122 99.2L239.622 116.8V99.4C239.622 99.1 239.722 98.8001 240.022 98.6001C240.222 98.4001 240.522 98.3 240.822 98.3H246.422C246.722 98.3 247.022 98.4001 247.222 98.6001C247.422 98.8001 247.522 99.1 247.522 99.4V129.2C247.522 129.5 247.422 129.8 247.222 130.1C247.022 130.3 246.722 130.4 246.422 130.4H241.422C240.722 130.4 240.222 130.1 239.822 129.5L228.322 112.5V129.2C228.322 129.5 228.222 129.8 228.022 130C227.822 130.2 227.522 130.3 227.222 130.3H221.622C221.222 130.4 221.022 130.3 220.722 130.1Z"
        fill="#00365F"
    ></path>
    <path
        d="M256.522 130.1C256.322 129.9 256.222 129.6 256.222 129.3V99.4C256.222 99.1 256.322 98.8001 256.522 98.6001C256.722 98.4001 257.022 98.3 257.322 98.3H269.022C273.522 98.3 277.022 99.4 279.522 101.5C282.022 103.6 283.322 106.8 283.422 110.8C283.422 111.7 283.422 112.9 283.422 114.3C283.422 115.8 283.422 116.9 283.422 117.8C283.222 122.1 282.022 125.2 279.622 127.3C277.222 129.4 273.822 130.4 269.222 130.4H257.322C257.022 130.4 256.722 130.3 256.522 130.1ZM269.022 123.8C271.022 123.8 272.522 123.3 273.522 122.4C274.422 121.4 275.022 119.9 275.022 117.8C275.122 116.9 275.122 115.8 275.122 114.4C275.122 113 275.122 111.9 275.022 111C274.922 108.9 274.422 107.4 273.422 106.5C272.422 105.5 270.822 105 268.822 105H264.522V123.9H269.022V123.8Z"
        fill="#00365F"
    ></path>
    <path
        d="M40.9219 20.2C37.0219 16.7 31.0219 16.8 31.0219 16.8H27.1219L21.7219 22.2L24.9219 25.4C27.9219 25.4 30.6219 25.4 32.1219 25.4C35.0219 25.4 36.3219 27.7 36.9219 29.9L43.5219 23.3C42.7219 22.2 41.9219 21.1 40.9219 20.2Z"
        fill="#005A9A"
    ></path>
    <path
        d="M46.9217 0C46.2217 0 45.6217 -1.52737e-06 45.0217 0.0999985C44.5217 0.0999985 44.1217 0.199999 43.6217 0.299999C39.8217 1.1 37.5217 3.4 36.7217 7.2C36.5217 8 36.5217 8.9 36.5217 9.9V12.8C38.7217 13.4 41.3217 14.4 43.7217 16.5C43.9217 16.7 45.2217 17.9 45.2217 17.9V11.5C45.2217 8.7 47.6217 8.6 48.6217 8.6H53.6217H58.1217L66.7217 0H46.9217V0Z"
        fill="#005A9A"
    ></path>
    <path
        d="M141.022 16.9H130.122H126.422C126.422 16.9 120.422 16.8 116.522 20.3C115.522 21.2 114.622 22.3 113.922 23.5L120.622 30.2C121.222 28 122.522 25.6 125.422 25.6C126.822 25.6 129.522 25.6 132.422 25.6L135.622 22.4L141.022 16.9Z"
        fill="#005A9A"
    ></path>
    <path
        d="M3.62183 31.8C4.02183 33.3 4.72183 34.7 5.42183 36.1C5.72183 36.7 6.02183 37.2 6.42183 37.7L10.3218 33.8L1.62183 25L3.62183 31.8Z"
        fill="#005A9A"
    ></path>
    <path
        d="M89.5218 67.4L90.0218 67.9L100.622 78.5L100.922 78.2C98.7218 71.2 97.5218 64.7 97.7218 60.6C97.7218 60.5 97.7218 60.4 97.7218 60.3C97.8218 58.8 98.3218 56.6 99.4218 54.5L93.0218 48.1C91.3218 50.8 90.1218 53.8 89.6218 56.9C88.9218 60.2 89.0218 63.7 89.5218 67.4Z"
        fill="#005A9A"
    ></path>
    <path
        d="M44.8218 68.3C44.7218 68.1 44.7218 67.8 44.6218 67.6L44.3218 67.9L44.8218 68.3Z"
        fill="#005A9A"
    ></path>
    <path
        d="M53.4217 81.7C47.8217 75.3 45.7217 71.3 44.9217 68.3L44.5217 67.9L38.0217 74.4C39.7217 78.2 42.5217 82.4 47.4217 87.8C48.8217 89.3 50.3217 90.9 52.0217 92.6C54.4217 95.1 56.6217 97.3 58.6217 99.4L64.8217 93.2C63.9217 92.3 62.8217 91.2 61.8217 90.2C58.2217 87 55.5217 84.2 53.4217 81.7Z"
        fill="#005A9A"
    ></path>
    <path
        d="M50.3219 98.1C49.7219 101.5 49.1219 105 49.2219 108.6L55.1219 102.7L50.3219 97.8V98.1Z"
        fill="#005A9A"
    ></path>
    <path
        d="M95.1219 118.5C94.1219 119.4 92.9219 120.2 91.7219 120.9C86.2219 123.9 80.8219 124.2 79.1219 124.2L71.2219 132.1C73.4219 132.6 75.9219 132.9 78.6219 132.9C81.2219 132.9 83.6219 132.6 85.8219 132.2C89.9219 131.4 93.2219 130 95.7219 128.7C97.7219 127.6 99.5219 126.3 101.222 124.8L95.1219 118.5Z"
        fill="#005A9A"
    ></path>
    <path d="M27.1217 16.9H16.2217L21.6217 22.3L27.1217 16.9Z" fill="#00365F"></path>
    <path
        d="M103.622 8.69997H108.722C109.722 8.69997 112.122 8.79998 112.122 11.6V18C112.122 18 113.322 16.8 113.622 16.6C116.022 14.5 118.522 13.5 120.822 12.9V9.99998C120.822 9.09998 120.722 8.29998 120.622 7.49998C119.922 3.49998 117.522 1.19998 113.522 0.399979C113.122 0.299979 112.622 0.299978 112.222 0.199978C111.622 0.0999779 111.122 0.0999756 110.422 0.0999756H90.4219L99.0219 8.69997H103.622V8.69997Z"
        fill="#00365F"
    ></path>
    <path
        d="M18.4219 25.5C20.5219 25.5 22.7219 25.5 24.8219 25.5L21.6219 22.3L18.4219 25.5Z"
        fill="#00365F"
    ></path>
    <path d="M67.7218 0H66.7218L58.1218 8.7H76.3218L67.7218 0Z" fill="#00365F"></path>
    <path
        d="M121.322 53.7C121.222 53 121.222 52.4 121.122 51.8H119.522H112.422C112.822 54.3 113.422 60 113.022 64.8C112.922 65.7 112.822 66.7 112.622 67.7C112.622 67.8 112.522 67.9 112.522 68.1C111.722 71.2 109.722 75.2 103.822 81.8C101.722 84.2 99.0218 87 95.7218 90.3C94.6218 91.4 93.6218 92.4 92.6218 93.4L98.8218 99.6C100.822 97.5 103.022 95.3 105.522 92.8C107.222 91.1 108.622 89.5 110.022 88C114.822 82.6 117.722 78.4 119.422 74.6L112.822 68L121.822 59C121.622 57 121.522 55.2 121.322 53.7Z"
        fill="#00365F"
    ></path>
    <path
        d="M120.522 30.1L113.822 23.4C112.222 26.2 111.322 29.7 111.322 33.9H119.922C120.022 33.9 120.022 32 120.522 30.1Z"
        fill="#00365F"
    ></path>
    <path
        d="M155.022 16.9H152.822H141.022L135.622 22.3L138.822 25.5C141.422 25.5 143.722 25.5 145.122 25.5C145.922 25.5 146.422 26.3 146.222 27L145.522 29.2C145.322 30 145.022 30.7 144.622 31.4L146.922 33.7L150.922 37.7C151.322 37.2 151.622 36.6 151.922 36C152.622 34.6 153.222 33.2 153.722 31.7L155.822 24.8L156.922 20.9L157.222 19.8C157.722 18.4 156.622 16.9 155.022 16.9Z"
        fill="#00365F"
    ></path>
    <path
        d="M56.7218 78.4L63.2218 85.4C65.0218 80 66.8218 74.1 67.7218 68.4C67.8218 68 67.8218 67.7 67.9218 67.3C68.4218 63.7 68.4218 60.2 67.9218 57C67.3218 53.9 66.2218 50.8 64.4218 48.1L58.0218 54.5C59.1218 56.7 59.7218 59 59.8218 60.5C59.8218 60.6 59.8218 60.6 59.8218 60.7C60.0218 64.8 58.8218 71.2 56.6218 78.3L56.7218 78.4Z"
        fill="#00365F"
    ></path>
    <path
        d="M106.922 97.9L102.122 102.8L108.022 108.7C108.122 105.1 107.622 101.5 107.022 98L106.922 97.9Z"
        fill="#00365F"
    ></path>
    <path
        d="M80.2218 106.2C79.3218 107.1 77.9218 107.1 77.0218 106.2C76.6218 105.8 76.2218 105.4 75.7218 104.9C73.6218 102.7 70.2218 99 64.5218 93.3L58.3218 99.5C65.2218 106.6 69.4218 110.8 69.4218 110.8C69.4218 110.8 69.5218 110.9 69.6218 111C70.5218 111.9 75.1218 116.2 78.6218 116.2C82.0218 116.2 86.4218 112.1 87.5218 111L81.4218 104.9C81.0218 105.4 80.6218 105.9 80.2218 106.2Z"
        fill="#00365F"
    ></path>
    <path
        d="M78.0218 124.2C76.2218 124.2 71.0218 123.8 65.6218 120.9C64.3218 120.2 63.2218 119.4 62.2218 118.4C61.6218 117.8 60.9218 117.2 60.4218 116.4C58.2218 113.3 57.6218 109.9 58.0218 105.5L55.2218 102.6L49.3218 108.5C49.4218 112.9 50.5218 117.3 53.4218 121.4C54.2218 122.5 55.1218 123.6 56.1218 124.5C57.7218 126.1 59.6218 127.4 61.7218 128.5C64.1218 129.8 67.4218 131.2 71.4218 132L78.7218 124.7L79.3218 124.1C78.9218 124.2 78.4218 124.2 78.0218 124.2Z"
        fill="#00365F"
    ></path>
    <path
        d="M12.7218 31.6C12.7218 31.5 12.6218 31.4 12.6218 31.3L10.2218 33.7L6.32178 37.6C9.52178 42.6 14.4218 45 20.5218 46.1L21.6218 45L28.2218 38.4C22.0218 38.2 15.7218 37 12.7218 31.6Z"
        fill="#00365F"
    ></path>
    <path
        d="M106.622 39C100.322 40.2 95.8219 43.7 92.9219 48.1L99.3219 54.5C101.222 50.8 104.722 47.3 110.622 47.2L112.722 45.1L119.322 38.5C116.722 38.5 112.622 38.5 111.222 38.5C109.622 38.5 108.022 38.7 106.622 39Z"
        fill="#00365F"
    ></path>
    <path
        d="M12.2218 25.5C13.6218 25.5 15.9218 25.5 18.4218 25.5L21.6218 22.3L16.2218 16.9H4.32177H2.32177C0.721768 16.9 -0.378237 18.4 0.121763 19.9L0.421766 20.9L1.62176 25.1L10.3218 33.8L12.7218 31.4C12.4218 30.7 12.1218 30 11.9218 29.3L11.1218 27C10.9218 26.3 11.5218 25.5 12.2218 25.5Z"
        fill="#00A584"
    ></path>
    <path d="M90.4217 0H89.5217H67.7217L76.3217 8.7H80.8217H99.1217L90.4217 0Z" fill="#00A584"></path>
    <path
        d="M50.5218 39C49.1218 38.7 47.6218 38.6 46.0218 38.6C44.6218 38.6 40.4218 38.6 37.8218 38.6C36.5218 38.6 35.6218 38.6 35.6218 38.6C33.3218 38.6 30.8218 38.6 28.3218 38.5L21.7218 45.1L20.6218 46.2C21.4218 46.4 22.3218 46.5 23.2218 46.6C28.8218 47.3 35.4218 47.2 42.4218 47.2C43.8218 47.2 45.1218 47.2 46.5218 47.2C52.5218 47.2 56.0218 50.7 57.9218 54.4L64.3218 48C61.4218 43.6 56.9218 40.1 50.5218 39Z"
        fill="#00A584"
    ></path>
    <path
        d="M45.9217 33.9C45.9217 29.7 45.0217 26.1 43.4217 23.3L36.7217 30C37.3217 32 37.2217 33.9 37.2217 33.9H45.9217Z"
        fill="#00A584"
    ></path>
    <path
        d="M37.6217 51.8H36.1217C36.0217 52.3 36.0217 52.9 35.9217 53.5C35.7217 55.1 35.6217 57 35.5217 59C35.4217 61.1 35.4217 63.3 35.6217 65.5C35.8217 68.4 36.4217 71.3 37.8217 74.4L44.3217 67.9L44.6217 67.6C44.4217 66.6 44.3217 65.7 44.2217 64.8C43.8217 60 44.5217 54.3 44.8217 51.8H37.6217Z"
        fill="#00A584"
    ></path>
    <path
        d="M112.722 67.9L119.322 74.5C120.722 71.3 121.322 68.5 121.622 65.5C121.822 63.3 121.822 61 121.722 58.8L112.722 67.9Z"
        fill="#00A584"
    ></path>
    <path
        d="M135.522 22.3L132.322 25.5C134.422 25.5 136.622 25.5 138.722 25.5L135.522 22.3Z"
        fill="#00A584"
    ></path>
    <path
        d="M146.922 33.7L144.622 31.4C144.622 31.5 144.622 31.5 144.522 31.6C141.522 37 135.122 38.2 128.922 38.5C126.422 38.6 124.022 38.6 121.722 38.6C121.722 38.6 120.722 38.6 119.322 38.6L112.722 45.2L110.622 47.3H110.722C112.122 47.3 113.422 47.3 114.722 47.3C121.722 47.4 128.222 47.5 133.922 46.7C134.822 46.6 135.722 46.5 136.522 46.3C142.622 45.2 147.622 42.8 150.822 37.8L146.922 33.7Z"
        fill="#00A584"
    ></path>
    <path
        d="M89.5217 67.4C89.5217 67.7 89.6217 67.9 89.6217 68.2C90.5217 73.9 92.3217 79.9 94.1217 85.3L100.522 78.4L89.9217 67.8L89.5217 67.4Z"
        fill="#00A584"
    ></path>
    <path
        d="M99.3218 105.6C99.6218 110 99.1218 113.4 96.9218 116.5C96.4218 117.3 95.7218 117.9 95.1218 118.5L101.222 124.6C102.222 123.6 103.222 122.6 104.022 121.4C106.922 117.3 107.922 113 108.122 108.6L102.222 102.7L99.3218 105.6Z"
        fill="#00A584"
    ></path>
    <path
        d="M92.6219 93.3C86.9219 99 83.6219 102.7 81.4219 104.9L87.5219 111C87.7219 110.8 87.8219 110.7 87.8219 110.7C87.8219 110.7 91.9219 106.5 98.8219 99.4L92.6219 93.3Z"
        fill="#00A584"
    ></path>
</svg>