<svg fill="none" height="64" viewBox="0 0 320 64" width="320" xmlns="http://www.w3.org/2000/svg"><path clip-rule="evenodd" d="m168.6 26.8c-3.7 3.9-9.6 7.5-17.6 7.7-9.5.3-14.5-.3-26.2-5.4 2.3-3.2 3.2-6.4 3.3-10 .2-4.9-2-9.1-6.4-11.8-4.7-2.9-7.6-4.3-7.6-4.3 2.3 1.3 3.8 4.6 4.4 8.9.8 5.8-.7 12.9-7.4 17.3l8.8 15.5c-6.6-.7-11.1 2.8-11.1 2.8l8.5 7.2s7.2-4.6 18.6-2.3l-13.8-19.1c10.4 5.7 26.7 9.2 26.7 9.2s-6 .1-10.9-1.3c-1.5-.4-2.8 0-.8 1.1.5.3 6.7 3.4 12.6 4.1 10.6 1.1 14.6-3 15.5-4.4.973-1.5291-.276-1.4157-2.975-1.1708-1.184.1075-2.648.2403-4.325.2708-5.5 0-11-1.7-13.4-3 9.2-.1 26.1-1.8 26.7-7.3.1-1.4-.9-3.3-2.6-4zm-134.4-19.5c-3.1 6.7 1.1 9.1 8.1 9.1 2.6192 0 5.2385-.8808 8.2787-1.9033 9.3795-3.1543 22.766-7.65613 52.5213 8.2033-3.3.9-7.5 1.9-7.5 1.9-3.2-2.1-6.7-.2-9.5 1.7-.6098.3946-1.3933 1.0015-2.3101 1.7116-4.1951 3.2493-11.1813 8.6607-17.0899 5.7884-1.5-.8-4.5-2.4-6.9-2.2-1.3437.0707-2.3372.5415-3.6527 1.1648-.5447.2581-1.1445.5424-1.8473.8352-2.4 1.1-2.5-.7.2-2.6 7.3-5 23.3-12.8 39.1-10.4-21.2-6.6-28-5.5-50 3.7-.8.4-1.7.7-2.6 1 1 1.5 4.2 2.7 8.7 1.4.1299-.0433.2821-.0972.4522-.1574h.0001l.0004-.0001.0006-.0002.0002-.0001c1.4017-.4961 4.0201-1.4228 5.4465-.4422 0 0-6.5 4.2-12.1 4.8-10.1 1.1-23.3-3.1-27.3-7.5-1.4-1.6-1.4-3 .2-2.6l.0601.0134c1.0864.2419 7.1256 1.5866 11.3399 1.5866 2.9 0 5.1-.2 6.9-.6-19-7.1-5.1-14.2-.7-15.5 1-.3.5.7.2 1zm175.2 8.9h-8.8v3.1h5.2v.4c0 .9-.2 1.6-.6 2.2s-.9 1-1.5 1.3-1.3.4-1.9.4c-1.6 0-2.9-.6-3.8-1.7s-1.4-2.7-1.4-4.7c0-1.3.3-2.5.7-3.4s1.1-1.6 1.9-2.1 1.7-.7 2.7-.7c.9 0 1.7.1 2.5.5s1.6.9 2.4 1.6l2.3-2.4c-1-1-2.1-1.7-3.3-2.2s-2.6-.7-4.1-.7c-1.8 0-3.3.4-4.7 1.2s-2.5 2-3.2 3.4c-.7 1.5-1.1 3.1-1.1 4.9s.4 3.5 1 4.9c.6 1.5 1.6 2.6 2.8 3.4 1.3.8 2.8 1.2 4.5 1.2 1 0 2-.2 2.9-.6s1.7-1 2.3-1.9v2.1h3.2zm5.7 4.7h9.5v-1.6c0-1.3-.3-2.5-.8-3.5s-1.2-1.8-2.2-2.3-2.1-.8-3.4-.8-2.5.3-3.5.9-1.8 1.4-2.3 2.5-.8 2.3-.8 3.7c0 1.3.3 2.5.9 3.6s1.4 1.9 2.4 2.5 2.2.9 3.6.9c2.1 0 4-.7 5.5-2.1l-1.7-2.3c-.6.5-1.2.9-1.8 1.1s-1.2.3-1.9.3c-.9 0-1.7-.3-2.3-.8s-1-1.2-1.2-2.1zm.1-2.6c.2-.9.6-1.6 1.1-2.1s1.2-.8 1.9-.8c.8 0 1.5.3 2 .8s.8 1.2.9 2.1zm30.1-4.4c.8.8 1.2 1.9 1.2 3.2v9.2h-3.6v-8.1c0-.7-.2-1.3-.6-1.7s-.9-.7-1.6-.7-1.2.2-1.6.7-.6 1.1-.6 1.8v8h-3.6v-8.1c0-.7-.2-1.3-.5-1.7-.4-.4-.9-.7-1.6-.7s-1.3.3-1.7.8-.6 1.2-.6 2v7.8h-3.6v-13.3h3.3v1.9c.4-.7.9-1.3 1.6-1.7s1.5-.6 2.4-.6 1.7.2 2.3.6c.7.4 1.2.9 1.5 1.6.4-.7 1-1.2 1.7-1.6s1.5-.6 2.3-.6c1.4 0 2.5.4 3.3 1.2zm6.9 7h9.5v-1.6c0-1.3-.3-2.5-.8-3.5s-1.2-1.8-2.2-2.3-2.1-.8-3.4-.8-2.5.3-3.5.9-1.8 1.4-2.3 2.5-.8 2.3-.8 3.7c0 1.3.3 2.5.9 3.6s1.4 1.9 2.4 2.5 2.2.9 3.6.9c2.1 0 4-.7 5.5-2.1l-1.7-2.3c-.6.5-1.2.9-1.8 1.1s-1.2.3-1.9.3c-.9 0-1.7-.3-2.3-.8s-1-1.2-1.2-2.1zm0-2.6c.2-.9.6-1.6 1.1-2.1s1.2-.8 1.9-.8c.8 0 1.5.3 2 .8s.8 1.2.9 2.1zm23.9 2.6h-9.5c.2.9.6 1.6 1.2 2.1s1.4.8 2.3.8c.7 0 1.3-.1 1.9-.3s1.2-.6 1.8-1.1l1.7 2.3c-1.5 1.4-3.4 2.1-5.5 2.1-1.4 0-2.6-.3-3.6-.9s-1.8-1.4-2.4-2.5-.9-2.3-.9-3.6c0-1.4.3-2.6.8-3.7s1.3-1.9 2.3-2.5 2.2-.9 3.5-.9 2.4.3 3.4.8 1.7 1.3 2.2 2.3.8 2.2.8 3.5zm-8.4-4.7c-.5.5-.9 1.2-1.1 2.1h5.9c-.1-.9-.4-1.6-.9-2.1s-1.2-.8-2-.8c-.7 0-1.3.3-1.9.8zm22.5 1.2c0-1.4-.4-2.5-1.2-3.4s-1.9-1.3-3.4-1.4c-.9 0-1.8.3-2.5.7s-1.3 1-1.6 1.7v-1.9h-3.3v13.4h3.6v-7.6c0-1 .2-1.7.7-2.2s1.1-.8 1.8-.8 1.3.2 1.7.6.6 1 .6 1.9v8h3.6zm3.8-1.4h-2.3v-2.8h2.3v-3.1l3.6-1.99999v4.99999h2.7v2.9h-2.7v6.4c0 .4.1.8.4 1 .2.2.7.3 1.3.3.5 0 .9 0 1.3-.1v2.8c-.7.2-1.5.3-2.5.3-1.5 0-2.5-.3-3.1-.9s-.9-1.5-.9-2.7v-7.1zm10.9 4.9h9.5v-1.6c0-1.3-.3-2.5-.8-3.5s-1.2-1.8-2.2-2.3-2.1-.8-3.4-.8-2.5.3-3.5.9-1.8 1.4-2.3 2.5-.8 2.3-.8 3.7c0 1.3.3 2.5.9 3.6s1.4 1.9 2.4 2.5 2.2.9 3.6.9c2.1 0 4-.7 5.5-2.1l-1.7-2.3c-.6.5-1.2.9-1.8 1.1s-1.2.3-1.9.3c-.9 0-1.7-.3-2.3-.8s-1-1.2-1.2-2.1zm.1-2.6c.2-.9.6-1.6 1.1-2.1s1.2-.8 1.9-.8c.8 0 1.5.3 2 .8s.8 1.2.9 2.1zm-96.1 33.4h-4.1l-4.3-6.7h-2.9v6.7h-3.6v-18.3h8.6c1.1 0 2.1.2 2.9.7.9.5 1.6 1.2 2.1 2.1s.7 1.9.7 3c0 1.4-.4 2.5-1.1 3.5s-1.7 1.6-2.9 2zm-11.3-15.2v5.4h4.3c.8 0 1.5-.2 2-.7s.8-1.1.8-2-.3-1.5-.8-2-1.2-.7-2-.7zm12.9 12.2c.6 1.1 1.4 1.9 2.4 2.5s2.2.9 3.5.9 2.5-.3 3.5-.9 1.8-1.4 2.4-2.5.9-2.3.9-3.7-.3-2.6-.9-3.7c-.6-1-1.4-1.8-2.4-2.4s-2.2-.9-3.5-.9-2.5.3-3.5.9c-1 .5-1.8 1.3-2.4 2.4s-.9 2.3-.9 3.7.3 2.6.9 3.7zm9-3.7c0 1.3-.3 2.3-.9 3-.5.7-1.3 1.1-2.2 1.1s-1.6-.4-2.2-1.1c-.6-.8-.9-1.7-.9-3s.3-2.3.9-3c.5-.7 1.3-1.1 2.2-1.1s1.6.4 2.2 1.1c.6.8.9 1.7.9 3zm6.8-3.7h-2.3v-2.8h2.3v-3.1l3.6-2v5h2.7v2.8h-2.7v6.4c0 .4.1.8.4 1 .2.2.7.3 1.3.3.5 0 .9 0 1.3-.1v2.8c-.7.2-1.5.3-2.5.3-1.5 0-2.5-.3-3.1-.9s-.9-1.5-.9-2.7v-7zm7.6 0h2.3.1v7c0 1.2.3 2.1.9 2.7s1.6.9 3.1.9c1 0 1.8-.1 2.5-.3v-2.8c-.4.1-.8.1-1.3.1-.6 0-1.1-.1-1.3-.3-.3-.2-.4-.6-.4-1v-6.4h2.7v-2.8h-2.7v-5l-3.6 2v3.1h-2.3zm22.7 4.9h-9.5c.2.9.6 1.6 1.2 2.1s1.4.8 2.3.8c.7 0 1.3-.1 1.9-.3s1.2-.6 1.8-1.1l1.7 2.3c-1.5 1.4-3.4 2.1-5.5 2.1-1.4 0-2.6-.3-3.6-.9s-1.8-1.4-2.4-2.5-.9-2.3-.9-3.6c0-1.4.3-2.6.8-3.7s1.3-1.9 2.3-2.5 2.2-.9 3.5-.9 2.4.3 3.4.8 1.7 1.3 2.2 2.3.8 2.2.8 3.5zm-8.4-4.7c-.5.5-.9 1.2-1.1 2.1h5.9c-.1-.9-.4-1.6-.9-2.1s-1.2-.8-2-.8c-.7.1-1.3.3-1.9.8zm19.1.3v-3.4c-.4-.1-.8-.1-1.4-.1-.9 0-1.7.3-2.4.8s-1.1 1.1-1.4 2v-2.6h-3.3v13.2h3.6v-5.3c0-1.5.3-2.7 1-3.5.6-.8 1.5-1.2 2.6-1.2.5 0 .9 0 1.3.1zm10.3-9h3.6v18.9h-3.3v-1.9c-.8 1.5-2.2 2.3-4.1 2.3-1.1 0-2.1-.3-3-.9s-1.6-1.4-2.1-2.5-.7-2.3-.7-3.7.2-2.6.7-3.7 1.2-1.9 2.1-2.4 1.9-.9 3-.9c1.7 0 2.9.6 3.8 1.9zm-.8 15.2c.6-.7.9-1.7.9-3s-.3-2.2-.9-2.9-1.3-1.1-2.2-1.1-1.7.4-2.2 1.1c-.6.7-.8 1.7-.8 3 0 1.2.3 2.2.8 3 .6.7 1.3 1.1 2.2 1.1.9-.1 1.7-.4 2.2-1.2zm20.3.9h-1.7v-6.5c0-2.9-1.8-4.4-5.4-4.4-1.3 0-2.4.2-3.5.6-1.1.3-2 .8-2.7 1.4l1.7 2.3c.5-.4 1.2-.7 1.9-1s1.5-.4 2.2-.4c.8 0 1.5.2 1.8.5.3.4.5.9.5 1.5v.3l-3 .6c-1.6.3-2.9.8-3.9 1.5-.9.7-1.4 1.7-1.4 3 0 1.2.4 2.2 1.3 2.9s2 1 3.3 1c1 0 1.9-.3 2.6-.7s1.3-1 1.6-1.7v1.9h4.7zm-5.3-2c0 .8-.2 1.4-.8 1.8-.6.5-1.2.7-1.9.6-.6 0-1.1-.1-1.5-.4-.4-.2-.6-.6-.6-1 0-.5.2-.9.6-1.1.5-.2 1.1-.4 2-.6l2.2-.5zm25.6-7.7c.8.8 1.2 1.9 1.2 3.2v9.2h-3.6v-8.1c0-.7-.2-1.3-.6-1.7s-.9-.7-1.6-.7-1.2.2-1.6.7-.6 1.1-.6 1.8v8h-3.6v-8.1c0-.7-.2-1.3-.5-1.7-.4-.4-.9-.7-1.6-.7s-1.3.3-1.7.8-.6 1.2-.6 2v7.8h-3.6v-13.2h3.3v1.9c.4-.7.9-1.3 1.6-1.7s1.5-.6 2.4-.6 1.7.2 2.3.6c.7.4 1.2.9 1.5 1.6.4-.7 1-1.2 1.7-1.6s1.5-.6 2.3-.6c1.5-.1 2.5.3 3.3 1.1zm-221.8-5.2 5.8-1.4 3.3 6.7v18s-3.9 3.8-10.1 2.5l-8.5-7.2c5.2 1.3 9.5-2 9.5-2zm12.8-14.7c.6-1.4.8-3.2.6-4.9-.1-.7-.3-1.4-.5-2.1-1.069-2.62365-3.932-2.0369-4.552-1.9098l-.048.0098-8.3 2s-5.5-4-9.5-5.6c-2-.8-3.1-1.1-5.1-1.3-3.4-.3-6.1 2.9-2.9 3.2 6.7.6 17.8 6.4 29 12.5.261-.1742.447-.4241.688-.75.036-.0483.073-.0983.112-.15.071-.1417.142-.2708.208-.3918v-.0001c.121-.2207.227-.4144.292-.6081zm-105.70003-4.9c-1.900003-1.9.6-4.5 3.8-2.5 1.9 1.1 2.9 2.6 4.00003 5.2.6102 1.4917.255 1.2364-.5358.6679-.37546-.2699-.84912-.6103-1.36423-.8679-1.82571-.8895-2.88441-1.1215-3.65826-1.291-.87922-.1927-1.39075-.3048-2.24174-1.209z" fill="#00811f" fill-rule="evenodd"/></svg>