<svg width="108" height="65" viewBox="0 0 108 65" fill="none" xmlns="http://www.w3.org/2000/svg">
<path d="M68.6157 11.383H68.4344H39.4401H39.3146L38.9102 12.2468H68.8389L68.6157 11.383Z" fill="white"/>
<path d="M72.5765 16.5381V26.6114C72.8833 26.6671 73.1762 26.7925 73.4272 27.0015V16.7052L72.5765 16.5241V16.5381Z" fill="white"/>
<path d="M53.9442 10.4913C55.3152 10.4913 56.4266 9.93612 56.4266 9.25128C56.4266 8.56645 55.3152 8.01128 53.9442 8.01128C52.5732 8.01128 51.4617 8.56645 51.4617 9.25128C51.4617 9.93612 52.5732 10.4913 53.9442 10.4913Z" fill="white"/>
<path d="M46.8455 9.25127L44.0563 7.84407L41.2531 9.25127L44.0563 10.6445L46.8455 9.25127Z" fill="white"/>
<path d="M66.6353 9.25127L63.8461 7.84407L61.0428 9.25127L63.8461 10.6445L66.6353 9.25127Z" fill="white"/>
<path d="M106.285 56.2322C106.285 56.2322 104.625 56.7755 102.561 57.0124C103.23 56.4412 103.677 55.6331 103.816 54.7135C103.914 54.0169 103.886 52.0663 103.705 48.9454C103.649 47.8308 102.798 46.9112 101.696 46.7719C100.664 46.6326 99.8135 46.4933 99.2417 46.3679C98.0563 46.1031 97.4148 45.6712 97.3311 45.3647C97.2195 45.0303 97.2335 44.9885 97.2753 44.682C97.2893 44.5427 97.3171 44.3755 97.345 44.1526C97.3729 43.9018 97.3869 43.6649 97.4287 43.4002C97.4706 43.0798 97.4985 42.7454 97.5264 42.411C97.5264 42.397 97.5264 42.3692 97.5264 42.3553C97.7913 42.411 98.0702 42.4388 98.3352 42.4388C99.0744 42.4388 99.8135 42.2438 100.455 41.8397C101.654 41.1013 102.352 39.8334 102.324 38.4262C102.268 36.197 101.027 34.6366 99.9251 33.2712C99.423 32.6442 98.9349 32.0451 98.5863 31.4181C97.4566 29.384 97.1916 27.1826 97.8053 24.8558C98.0563 23.8945 98.6839 22.9331 99.3533 21.93C99.4928 21.721 99.6322 21.4981 99.7717 21.2891C99.8693 21.303 99.9669 21.317 100.065 21.317C100.483 21.317 100.832 21.1776 101.083 21.0244C102.686 20.0351 103.244 16.8028 103.216 14.9915C103.175 11.2018 101.682 8.47105 98.6839 6.64587L97.6519 6.0189L98.0424 7.16138C98.9489 9.79465 99.437 11.4248 98.8652 14.072C98.6839 14.9219 98.3213 15.73 97.9726 16.5102C97.4287 17.7363 96.8988 18.9205 97.359 19.8819C97.2474 20.0491 97.1358 20.2302 97.0243 20.3974C96.2572 21.5538 95.4623 22.752 95.0997 24.1731C94.3187 27.1826 94.6813 30.1642 96.1457 32.7975C96.6059 33.6334 97.1916 34.3579 97.7495 35.0545C98.6839 36.2249 99.5067 37.228 99.5346 38.5238C99.5346 39.0671 99.1999 39.3597 99.0047 39.4851C98.6142 39.722 98.1539 39.7359 97.7495 39.5269C97.4287 39.3597 97.1219 39.0253 96.9267 38.6352C96.6198 37.7296 96.2293 36.7822 95.6994 35.7372C95.2252 34.7898 94.7092 33.8563 94.2071 32.9507C93.2867 31.2788 92.4081 29.7044 91.7665 27.9907C91.2784 26.6671 91.2226 25.1484 91.2505 24.1731C91.9478 24.2985 92.5615 24.3264 92.673 24.3264L93.5796 24.3543V23.4486C93.5656 22.7659 94.0956 21.5817 94.7092 20.2023C96.3967 16.4684 98.9489 10.8396 95.6715 4.38878C95.6436 4.34699 95.6296 4.29126 95.6018 4.24946C95.7412 3.80361 95.7831 3.39957 95.7691 3.06518C95.7552 1.82518 95.1415 0.849892 94.5837 0.348316L94.1932 0L93.7051 0.167192C93.3843 0.278653 93.0775 0.47371 92.7707 0.710565C92.5615 0.515508 92.2965 0.376182 91.9897 0.334384C91.906 0.334384 91.8223 0.320451 91.7107 0.320451C90.3579 0.320451 85.4349 1.43506 84.7934 1.76945L84.4587 1.93664L84.3471 2.29889L84.11 3.12091C83.0222 3.48316 82.032 4.02654 81.2929 4.43058C81.1953 4.48631 81.0976 4.54204 81 4.58384L80.4422 4.89036L80.5677 5.51733C80.5816 5.61486 81.0697 8.067 82.4923 9.72499L82.562 9.79465C82.2412 9.85038 81.9344 9.87825 81.6555 9.87825C80.8047 9.87825 80.1353 9.62746 79.8146 9.12589C79.3125 8.34566 79.6751 7.5097 80.2608 7.07779C79.9401 6.93846 79.6333 6.85486 79.2567 6.85486C79.0336 6.85486 78.7825 6.88273 78.5036 6.95239C77.3879 7.20318 76.7603 8.13667 76.9695 9.26521C77.2066 10.6167 78.155 11.4526 79.8006 11.4526C80.1353 11.4526 80.484 11.4248 80.8745 11.3551C81.4323 11.2576 82.0041 11.0904 82.5759 10.9093C82.5759 10.9371 82.5759 10.9511 82.5759 10.9789C82.4365 11.7592 82.311 12.4279 82.7433 12.9713C81.5439 13.1942 80.4561 13.6958 79.5356 14.4482C78.7825 13.8769 77.7645 13.1106 77.6111 12.9852C77.0114 12.5394 76.4535 12.0517 75.8538 11.5502C75.6167 11.3412 75.3657 11.1322 75.1147 10.9232C74.5987 10.4913 74.0408 10.0454 73.4411 9.62746C72.9948 9.32094 72.4788 9.12589 71.921 9.05622V6.59014C73.6922 5.80991 74.9334 4.0126 74.9334 1.9645C74.9334 1.50473 74.8776 1.07281 74.7521 0.654835H71.0005C71.0284 0.905622 71.0424 1.15641 71.0424 1.42113C71.0424 3.65035 69.9267 5.61486 68.546 5.61486C67.1653 5.61486 66.0496 3.65035 66.0496 1.42113C66.0496 1.15641 66.0635 0.905622 66.0914 0.654835H61.3915C61.4194 0.905622 61.4334 1.15641 61.4334 1.42113C61.4334 3.65035 60.3177 5.61486 58.937 5.61486C57.5563 5.61486 56.4406 3.65035 56.4406 1.42113C56.4406 1.15641 56.4545 0.905622 56.4824 0.654835H51.6291C51.657 0.905622 51.671 1.15641 51.671 1.42113C51.671 3.65035 50.5553 5.61486 49.1746 5.61486C47.7939 5.61486 46.6782 3.65035 46.6782 1.42113C46.6782 1.15641 46.6922 0.905622 46.72 0.654835H42.1317C42.1596 0.905622 42.1736 1.15641 42.1736 1.42113C42.1736 3.65035 41.0578 5.61486 39.6772 5.61486C38.2965 5.61486 37.1808 3.65035 37.1808 1.42113C37.1808 1.15641 37.1947 0.905622 37.2226 0.654835H33.4153C33.3037 1.05888 33.2479 1.47686 33.2479 1.90877C33.2479 3.88721 34.4055 5.65666 36.0651 6.49261V9.05622C35.5072 9.12589 34.9633 9.32094 34.5031 9.64139C33.9034 10.0454 33.3456 10.5052 32.8295 10.9371C32.5785 11.1461 32.3414 11.3551 32.0904 11.5641C31.4907 12.0657 30.9329 12.5533 30.3332 12.9992C30.1798 13.1106 29.1617 13.8769 28.4086 14.4621C27.4881 13.7097 26.4143 13.2082 25.2009 12.9852C25.6333 12.4279 25.5077 11.7592 25.3683 10.9929C25.3683 10.9789 25.3683 10.9511 25.3683 10.9232C25.9401 11.1183 26.5119 11.2715 27.0697 11.369C27.4602 11.4387 27.8089 11.4666 28.1436 11.4666C29.7893 11.4666 30.7376 10.6306 30.9747 9.27914C31.1839 8.1506 30.5563 7.21711 29.4406 6.96632C29.1617 6.91059 28.9106 6.8688 28.6875 6.8688C28.311 6.8688 28.0041 6.95239 27.6834 7.09172C28.2691 7.52363 28.6317 8.35959 28.1297 9.13982C27.8089 9.65533 27.1255 9.89218 26.2887 9.89218C25.9959 9.89218 25.689 9.86432 25.3822 9.80859L25.452 9.73892C26.8745 8.08094 27.3626 5.64272 27.3766 5.53126L27.5021 4.90429L26.9442 4.59777C26.8466 4.54204 26.749 4.50025 26.6513 4.44452C25.8982 4.04047 24.922 3.49709 23.8342 3.13485L23.5971 2.31282L23.4855 1.95057L23.1508 1.78338C22.5093 1.449 17.5863 0.334384 16.2335 0.334384C16.1358 0.334384 16.0382 0.334384 15.9545 0.348316C15.6477 0.390114 15.3827 0.529441 15.1736 0.724498C14.8667 0.47371 14.546 0.292586 14.2392 0.181124L13.751 0.0139326L13.3605 0.362249C12.8027 0.863824 12.1891 1.83911 12.1751 3.07912C12.1751 3.4135 12.2169 3.81755 12.3425 4.26339C12.3146 4.31912 12.2867 4.36092 12.2727 4.40272C8.99535 10.8535 11.5475 16.4823 13.235 20.2163C13.8487 21.5817 14.3926 22.7659 14.3786 23.4626V24.3682L15.2712 24.3403C15.3688 24.3403 15.9824 24.3125 16.6937 24.1871C16.7216 25.1624 16.6798 26.695 16.1777 28.0046C15.5362 29.7183 14.6575 31.2927 13.7371 32.9646C13.235 33.8703 12.719 34.8038 12.2448 35.7512C11.7288 36.7961 11.3244 37.7435 11.0176 38.6492C10.8223 39.0393 10.5294 39.3737 10.1947 39.5409C9.79029 39.7498 9.33006 39.7359 8.93957 39.4991C8.73037 39.3737 8.39566 39.0811 8.40961 38.5377C8.4375 37.2559 9.24638 36.2388 10.1947 35.0685C10.7526 34.3718 11.3244 33.6613 11.7986 32.8114C13.2629 30.1781 13.6255 27.1965 12.8445 24.1871C12.4819 22.7659 11.687 21.5677 10.9199 20.4113C10.8084 20.2441 10.6968 20.063 10.5852 19.8958C11.0455 18.9345 10.5294 17.7502 9.97159 16.5241C9.62293 15.7439 9.26033 14.9358 9.07903 14.0859C8.50723 11.4248 8.99535 9.80858 9.90186 7.17531L10.2924 6.03284L9.26033 6.65981C6.26188 8.48498 4.76963 11.2158 4.72779 15.0055C4.6999 16.8167 5.27169 20.063 6.86157 21.0383C7.1126 21.1916 7.44731 21.3309 7.87965 21.3309C7.97727 21.3309 8.06095 21.3309 8.17252 21.303C8.31199 21.512 8.45145 21.7349 8.59091 21.9439C9.26033 22.9471 9.88791 23.9084 10.1389 24.8698C10.7386 27.1965 10.4737 29.4118 9.35796 31.4321C9.0093 32.059 8.53512 32.6581 8.01911 33.2851C6.91736 34.6505 5.67614 36.197 5.62035 38.4402C5.59246 39.8334 6.28977 41.1152 7.48915 41.8537C8.13068 42.2577 8.86983 42.4528 9.60899 42.4528C9.88791 42.4528 10.1529 42.4249 10.4179 42.3692C10.4179 42.3831 10.4179 42.411 10.4179 42.4249C10.4458 42.7593 10.4737 43.0937 10.5155 43.4141C10.5434 43.6789 10.5713 43.9157 10.5992 44.1665C10.6131 44.3894 10.641 44.5566 10.6689 44.6959C10.7107 44.9885 10.7247 45.0443 10.6131 45.3786C10.5155 45.6852 9.88791 46.1171 8.70248 46.3818C8.13068 46.5072 7.27996 46.6465 6.24793 46.7858C5.14618 46.9391 4.29546 47.8586 4.23967 48.9593C4.07232 52.0802 4.03048 54.0308 4.1281 54.7274C4.26756 55.647 4.71384 56.4551 5.38327 57.0263C3.31922 56.7895 1.67355 56.2461 1.65961 56.2461L0 55.6888L0.557851 57.3468C1.21333 59.2974 2.45455 60.9414 4.16994 62.0978C5.75981 63.1706 7.67046 63.7558 9.56715 63.7558C11.8822 63.7558 13.9881 62.892 15.5083 61.3176C15.5083 61.7495 15.6059 62.1675 15.7732 62.5994L16.5403 64.5082L17.391 62.6412C17.4468 62.5297 18.7438 59.7989 21.8399 59.5621C23.1648 59.4645 24.671 59.2695 25.8425 58.2942C25.8425 58.6147 25.8703 58.9212 25.954 59.2277C26.3724 60.9553 27.8647 61.8331 27.9205 61.861L29.3011 62.6551L29.2175 61.0668C29.1896 60.3841 29.1477 59.6039 29.343 58.963C29.6916 57.8066 30.905 57.3746 31.5883 57.2075C31.7557 57.1657 31.923 57.1239 32.0765 57.096C33.2061 56.8452 34.1266 56.6362 35.0749 56.0789C34.6705 56.8731 34.5031 57.6812 34.5868 58.5032C34.782 60.5513 36.4556 61.8331 36.5253 61.8888L38.436 63.3239L37.906 60.9971C37.7107 60.1054 37.5573 58.0713 38.3802 57.5418C39.3982 56.8731 40.1653 56.7895 41.0579 56.692C41.797 56.6084 42.5919 56.5108 43.5263 56.1068C42.8011 57.709 43.108 59.0187 43.1358 59.0884L43.5821 60.8578L44.6839 59.3949C44.6839 59.3949 46.7619 56.7059 49.6906 56.7059C51.8104 56.7059 53.5258 57.7508 53.5398 57.7648L54 58.0434L54.4602 57.7648C54.4602 57.7648 56.1896 56.7059 58.3094 56.7059C61.2381 56.7059 63.3022 59.381 63.3161 59.3949L64.4179 60.8578L64.8642 59.0884C64.8781 59.0187 65.1989 57.709 64.4737 56.1068C65.4081 56.5108 66.203 56.6084 66.9422 56.692C67.8347 56.7895 68.6157 56.887 69.6198 57.5418C70.4427 58.0852 70.3032 60.1054 70.094 60.9971L69.564 63.3239L71.4747 61.8888C71.5444 61.8331 73.218 60.5513 73.4132 58.5032C73.4969 57.6812 73.3296 56.8731 72.9251 56.0789C73.8735 56.6223 74.7939 56.8313 75.9236 57.096C76.077 57.1378 76.2443 57.1657 76.4117 57.2075C77.095 57.3607 78.3084 57.8066 78.657 58.963C78.8523 59.6039 78.8104 60.3841 78.7825 61.0668L78.6989 62.6551L80.0795 61.861C80.0795 61.861 81.6415 60.9553 82.046 59.2277C82.1157 58.9212 82.1575 58.6007 82.1575 58.2942C83.329 59.2695 84.8352 59.4506 86.1601 59.5621C89.2562 59.7989 90.5532 62.5297 90.609 62.6412L91.4597 64.5082L92.2268 62.5994C92.3941 62.1675 92.4917 61.7356 92.4917 61.3176C94.0119 62.892 96.1178 63.7558 98.4329 63.7558C100.33 63.7558 102.24 63.1706 103.83 62.0978C105.545 60.9414 106.801 59.2974 107.442 57.3468L108 55.6888L106.34 56.2461L106.285 56.2322ZM79.7588 10.547C78.5873 10.547 77.9737 10.0733 77.7924 9.07015C77.6668 8.40139 78.0016 7.91374 78.657 7.76049C78.6849 7.76049 78.7128 7.76049 78.7407 7.74655C78.5873 8.31779 78.657 8.94476 79.0336 9.5578C79.3125 9.98971 79.7448 10.3241 80.2887 10.5191C80.1074 10.547 79.9261 10.547 79.7588 10.547ZM28.827 9.5578C29.2175 8.95869 29.2732 8.31779 29.1198 7.74655C29.1477 7.74655 29.1756 7.74655 29.2035 7.76049C29.859 7.89981 30.1937 8.40139 30.0682 9.07015C29.8869 10.0733 29.2593 10.547 28.1018 10.547C27.9344 10.547 27.7531 10.547 27.5718 10.5191C28.1157 10.3241 28.548 10.0036 28.827 9.5578ZM79.5356 15.5349C79.7448 15.3259 79.968 15.1309 80.2051 14.9497C81.2371 14.1556 82.548 13.6679 84.1937 13.6679C84.4308 13.6679 84.6679 13.6679 84.9189 13.6958L87.1503 12.6787C86.3554 12.6926 85.7138 12.7205 85.1978 12.7205C82.9664 12.7205 83.1477 12.414 83.4406 10.8535C83.4406 10.8535 85.3233 11.369 86.7598 11.369C86.8993 11.369 87.0387 11.369 87.1643 11.3551C87.8616 11.2994 88.1684 10.9929 88.28 10.6167C88.4194 10.1151 88.4613 9.33488 88.0708 8.35959C87.8197 7.71869 87.2061 7.16138 86.3275 7.16138C85.6581 7.16138 84.8492 7.48183 83.9287 8.31779L83.1477 9.09802C82.7433 8.62431 82.4225 8.08094 82.1715 7.5515C82.0041 6.827 82.7851 6.36722 82.7851 6.36722C81.9902 6.46475 81.5997 5.64272 81.4742 5.26654C82.3249 4.80676 83.5382 4.11013 84.8213 3.76182L85.1978 2.48001C85.686 2.22922 90.4556 1.12854 91.7107 1.12854C91.7805 1.12854 91.8223 1.12854 91.8781 1.12854C91.9757 1.12854 92.0733 1.18428 92.1431 1.24001C91.8781 1.53259 91.641 1.86697 91.4318 2.22922L92.2825 2.50788C92.7567 1.74158 93.4122 1.10068 93.9979 0.905622C94.765 1.57439 95.6854 3.56676 93.6632 5.65666V6.8688L94.0119 6.53441C94.5 6.07463 94.8487 5.62879 95.1136 5.19688C98.9768 13.5565 92.6312 20.4113 92.673 23.365C92.673 23.365 91.3481 23.3233 90.4416 22.961C90.4416 22.961 90.0372 25.8451 90.9297 28.2136C91.9618 30.9723 93.5935 33.4244 94.9044 36.0438C95.3507 36.9355 95.7412 37.8411 96.062 38.7746C96.062 38.8024 96.0759 38.8303 96.0899 38.8582C96.3549 39.4294 96.8011 39.931 97.3032 40.2096C97.3171 40.2096 97.345 40.2236 97.359 40.2375C98.0145 40.5719 98.7815 40.5301 99.423 40.14C100.051 39.7638 100.385 39.1229 100.371 38.4123C100.33 36.824 99.3951 35.6536 98.391 34.4136C97.8611 33.7449 97.3032 33.0622 96.8709 32.2819C95.5181 29.8437 95.1834 27.0851 95.9086 24.2985C96.2433 23.0167 96.9964 21.8882 97.7216 20.7875C97.889 20.5367 98.0424 20.2999 98.2097 20.0491C98.2794 19.9516 98.3352 19.854 98.391 19.7565C98.0424 19.436 97.9726 19.0459 98.0842 18.5304C98.1818 18.0567 98.4328 17.4855 98.7397 16.7749C99.0883 15.9947 99.4928 15.103 99.688 14.1695C100.009 12.6648 100.009 11.4526 99.8135 10.2544C100.106 10.7281 100.357 11.2297 100.567 11.7452C100.804 12.3304 100.971 12.9434 101.055 13.5843C101.138 14.2252 101.138 14.8801 101.041 15.5349C101.264 14.9219 101.403 14.2531 101.445 13.5843C101.487 12.9016 101.445 12.2189 101.32 11.5502C101.208 10.9371 101.041 10.3241 100.818 9.73892C101.78 11.1461 102.268 12.8598 102.296 14.9219C102.324 17.5133 101.431 19.6868 100.581 20.2023C100.469 20.272 100.371 20.3138 100.274 20.3417C99.9112 20.4253 99.3533 20.1745 99.3533 20.1745C99.1023 20.5925 98.8512 20.9686 98.5863 21.3727C97.875 22.4455 97.2056 23.4626 96.9127 24.5633C96.2572 27.1129 96.5362 29.5372 97.7774 31.7664C98.1679 32.4631 98.6839 33.1179 99.1999 33.7449C100.26 35.0685 101.362 36.4339 101.403 38.3705C101.431 39.4573 100.887 40.4465 99.953 41.0177C99.4509 41.3242 98.8652 41.4914 98.2794 41.4914C98.0145 41.4914 97.7355 41.4496 97.4706 41.3939C97.2335 41.3242 96.9964 41.2406 96.7732 41.1152C96.7035 41.0734 96.6338 41.0317 96.564 40.9899C96.6059 41.3242 96.6198 41.6726 96.6059 42.0069C96.6059 42.0905 96.6059 42.1881 96.5919 42.2717C96.5501 42.8429 96.4664 43.4281 96.4246 43.9993C96.3549 44.7377 96.2293 44.8213 96.4525 45.5458C96.7175 46.3818 97.8471 46.8834 99.0186 47.1481C99.7578 47.3153 100.762 47.4685 101.543 47.5661C102.24 47.6636 102.756 48.2348 102.798 48.9315C102.896 50.6452 103.035 53.6825 102.91 54.5324C102.77 55.4659 102.226 56.26 101.362 56.678C101.417 56.8034 101.473 56.9288 101.529 57.0403C101.654 57.3607 101.752 57.6394 101.794 57.9041C102.073 59.4227 100.985 59.8965 100.009 60.1333L99.8833 58.7679C99.8833 58.7679 99.6043 58.5868 99.5486 58.5589C99.4649 58.5032 99.3673 58.4475 99.2975 58.3778C99.1302 58.2245 99.0744 58.0434 99.0465 57.8484C99.0465 57.7369 99.0325 57.6254 99.0325 57.5C99.0325 57.2911 98.9907 57.0821 98.8791 56.9288C98.8234 56.8591 98.7676 56.8034 98.6699 56.7616C98.5863 56.7198 98.5026 56.7059 98.4189 56.7059C98.3213 56.7059 98.2376 56.7337 98.1539 56.7755C97.9726 56.8731 97.8192 57.0542 97.7913 57.2771C97.7913 57.3607 97.7913 57.4722 97.8053 57.5836C97.875 57.9877 98.0702 58.545 97.8889 59.0326C97.7774 59.3531 97.345 59.785 96.8709 59.785C96.7175 59.785 96.578 59.7432 96.4246 59.6457L95.4483 60.5095C94.1513 59.0884 94.5558 57.723 95.9644 57.1378C96.0759 57.096 96.1736 57.0403 96.2572 56.9845C96.5222 56.8034 96.6756 56.5666 96.5222 56.3158C96.4106 56.1207 96.2851 56.051 96.1178 56.051C95.8667 56.051 95.546 56.2043 95.0579 56.3994C95.03 56.3994 95.0021 56.4272 94.9602 56.4412C94.6952 56.5387 94.4442 56.6084 94.2071 56.6084C93.7051 56.6084 93.3006 56.3158 93.0914 55.5077C93.0775 55.438 93.0635 55.3544 93.0496 55.2848L92.7149 55.4241L92.1291 55.6609C92.1291 55.5634 92.157 55.4519 92.171 55.3544C92.2268 55.02 92.3383 54.7414 92.4638 54.5045C92.8962 53.7104 93.6632 53.3899 94.4442 53.3899C95.4484 53.3899 96.4804 53.8915 96.9127 54.5324L98.7536 54.7832C99.1302 54.3095 99.1441 52.9162 99.0883 51.8295C99.0465 51.0353 98.4607 50.3944 97.6798 50.269C96.3409 50.0739 94.3326 49.7814 93.6214 49.7256C92.2686 49.6281 90.86 49.3912 89.8419 48.402C88.4473 47.0227 88.1405 45.5876 88.1405 43.5953C88.1405 42.9404 88.1684 42.2856 88.2242 41.6168C88.266 41.0456 88.3357 40.4743 88.3915 39.917C88.4334 39.5409 88.4892 39.1647 88.5449 38.7885C88.6007 38.4402 88.6007 38.064 88.5728 37.7017C88.5728 37.5624 88.5449 37.437 88.5171 37.2977C88.4473 36.8937 88.3357 36.5035 88.1823 36.0995C88.015 35.6815 87.7779 35.2914 87.499 34.9152C87.0527 34.33 86.4669 33.8145 85.7278 33.3966C85.4628 33.2433 85.142 33.0622 84.8073 32.8532C84.4726 32.6442 84.11 32.4213 83.7335 32.1566C82.813 31.5435 81.7949 30.7772 80.8466 29.8995C80.9163 29.8577 80.9861 29.8159 81.0558 29.7741C81.4044 29.5651 82.3667 28.8545 83.2732 28.1022C83.4964 27.921 83.6916 27.7538 83.8729 27.5866L83.0083 27.1269C82.0041 27.9768 80.8884 28.8127 80.5956 28.9799C80.4561 29.0635 80.3166 29.1471 80.1772 29.2307C79.9122 29.384 79.6472 29.5372 79.3962 29.6765C77.9318 30.5125 76.8859 31.0837 76.9137 32.059C78.7268 34.0096 77.7366 35.166 76.7324 35.5143L76.3977 34.4415C75.3378 34.2604 75.3518 33.4802 75.3099 32.8811C75.282 32.5606 75.031 32.3795 74.78 32.3795C74.5708 32.3795 74.3616 32.5188 74.3476 32.8393C74.3197 33.1876 74.3476 33.5498 74.25 34.1211C74.1803 34.5112 73.7619 35.0406 73.1622 35.0406C73.0646 35.0406 72.9669 35.0406 72.8693 34.9988L72.6462 36.2667C70.5821 35.8766 70.8053 33.8285 72.1999 33.1318C72.9948 32.7278 73.2459 32.4352 73.0088 32.1287C72.939 32.0451 72.8554 32.0033 72.7578 32.0033C72.4649 32.0033 72.0325 32.3237 71.6142 32.6303C71.4329 32.7696 71.1958 32.8393 70.9447 32.8393C70.4008 32.8393 69.8151 32.4909 69.564 31.6689L68.811 32.0869C68.6854 30.5404 69.6477 29.7741 70.624 29.7741C71.0842 29.7741 71.5584 29.9413 71.921 30.2756C72.0604 30.401 72.1999 30.4568 72.3394 30.4568C72.7856 30.4568 73.0925 29.8995 72.4928 29.579C71.921 29.2725 71.3771 28.3251 71.907 27.726L71.0424 26.9179C71.4328 26.681 71.8512 26.5696 72.2417 26.5696C73.1064 26.5696 73.9013 27.1269 74.1524 28.3947C74.2082 28.6873 74.3337 28.7988 74.501 28.7988C74.9752 28.7988 75.812 27.7817 76.4396 26.7786C76.593 26.5417 76.7324 26.2909 76.8719 26.0541C77.0532 25.7336 77.2485 25.4271 77.4576 25.1206C77.7226 24.7304 78.0016 24.3543 78.3502 24.0199C78.936 23.4347 79.954 22.4176 81.1255 21.7349C81.4044 21.5817 81.6973 21.4284 81.9902 21.303C82.3389 20.8432 82.6875 20.3695 82.9943 19.8819C83.8171 18.628 84.5005 17.2904 84.891 15.8832C84.2495 17.2068 83.3569 18.3632 82.3667 19.3942C81.9065 19.8819 81.4323 20.3277 80.9303 20.7736C79.5775 21.4702 78.4478 22.5988 77.7784 23.2536L77.6808 23.3511C77.4855 23.5462 77.3042 23.7412 77.1508 23.9502C76.9277 22.5848 76.9835 20.899 77.4158 19.2967C77.4995 18.9902 77.5971 18.6698 77.7087 18.3772C78.1131 17.3043 78.6849 16.3012 79.4799 15.507L79.5356 15.5349ZM84.7515 10.0036C85.2815 9.82252 85.8115 9.68319 86.3135 9.68319C86.7319 9.68319 87.1224 9.78072 87.485 9.98971C87.485 10.1569 87.4432 10.2962 87.4292 10.3659V10.3798C87.4292 10.3798 87.3595 10.4495 87.0806 10.4774C86.9829 10.4774 86.8714 10.4774 86.7459 10.4774C86.202 10.4774 85.5883 10.3938 85.0444 10.2962C84.5005 10.2126 83.6777 10.0315 83.6777 10.0315C83.594 9.58566 83.6637 9.11195 83.8311 9.12589C84.0542 9.15375 84.1798 9.62746 84.7655 9.97578L84.7515 10.0036ZM84.1798 9.30701L84.5145 8.95869C85.3512 8.20633 85.9509 8.03914 86.2996 8.03914C86.9272 8.03914 87.1782 8.52678 87.234 8.68004C87.2898 8.81937 87.3316 8.95869 87.3735 9.08409C87.0387 8.93083 86.6761 8.8751 86.2996 8.8751C85.6302 8.8751 84.905 9.08409 84.1658 9.30701H84.1798ZM89.9535 52.2614C88.9215 52.958 87.9592 53.2924 86.9411 53.2924C85.9928 53.2924 85.0723 53.0137 84.0961 52.7072C83.8311 52.6236 83.5661 52.54 83.2872 52.4704C82.8549 52.345 82.3946 52.2892 81.9344 52.2892C80.8187 52.2892 79.8564 52.6515 79.2288 52.9719C79.2986 52.7351 79.5217 51.8434 79.5217 51.1607C80.3445 50.7009 80.9163 50.0461 81.1953 49.1962C81.6136 47.9283 81.9483 45.6852 81.6136 43.2609C82.2691 43.1773 83.2035 43.038 84.1379 42.8847C85.156 42.7175 85.9928 42.5503 86.6064 42.397C86.8993 42.3274 87.1364 42.2577 87.3456 42.1881C87.3177 42.6757 87.3037 43.1633 87.3037 43.651C87.3037 44.8631 87.4153 45.7688 87.6663 46.5629C87.9731 47.5103 88.4892 48.3324 89.2562 49.0847C90.4835 50.2969 92.1291 50.5616 93.5796 50.6591C94.0956 50.7009 95.5181 50.882 97.5682 51.1886C97.9308 51.2443 98.2237 51.5508 98.2376 51.927C98.2934 52.9301 98.2376 53.5292 98.1958 53.8636L97.3869 53.7522C96.7175 53.0277 95.5739 52.554 94.4582 52.554C93.0496 52.554 91.9897 53.2924 91.5155 54.5463C91.2645 54.5742 90.9855 54.616 90.7066 54.6856C91.2366 53.8776 91.2784 53.1252 91.2924 53.0277L91.3621 51.2861L89.9256 52.2614H89.9535ZM75.9514 52.4007C75.8678 52.331 75.7841 52.2474 75.7144 52.1638C75.7004 52.136 75.6865 52.122 75.6725 52.0942C75.4912 51.8016 75.547 51.4951 75.5888 51.1746C75.6307 50.8542 75.6307 50.5337 75.3378 50.3247C75.2262 50.2411 75.1007 50.1993 74.9752 50.1993C74.8915 50.1993 74.8218 50.2133 74.7521 50.2411C74.5568 50.3108 74.3755 50.478 74.3058 50.7009C74.2639 50.8124 74.2639 50.9656 74.2639 51.1468C74.2639 51.3 74.2639 51.4672 74.2639 51.6344C74.2639 51.927 74.2361 52.2474 74.1105 52.5261C74.1105 52.554 74.0826 52.5818 74.0687 52.6097C73.9013 52.8883 73.4551 53.2367 72.9948 53.2367C72.7856 53.2367 72.5764 53.167 72.3951 52.9859L71.1818 53.7243C71.0981 53.5989 71.0424 53.4735 70.9726 53.362C70.8332 53.0695 70.7355 52.8047 70.6798 52.54C70.4566 51.3697 71.1539 50.5198 72.3812 50.2411C72.8833 50.1297 73.2877 49.865 73.1343 49.4609C73.0367 49.1962 72.8693 49.0987 72.6183 49.0987C72.3533 49.0987 71.9768 49.1962 71.4607 49.3076C71.2934 49.3355 71.14 49.3634 70.9866 49.3912C70.8611 49.4052 70.7355 49.4191 70.624 49.4191C70.0801 49.4191 69.7314 49.1544 69.7314 48.0676L68.6854 48.2906C69.1596 46.6326 70.1219 45.9917 71.126 45.9917C72.1302 45.9917 73.2459 46.6744 73.9153 47.6079L74.3337 47.7472L75.0728 47.998L76.5511 48.4996C77.9876 47.2874 77.3321 44.0968 77.3321 44.0968C77.3321 44.0968 74.5289 42.5224 75.4633 39.0253C75.4633 39.0253 75.9514 35.7372 81.9483 35.7372C82.5899 35.7372 83.2872 35.779 84.0542 35.8626C84.5145 35.9184 84.9329 35.9741 85.3094 36.0438C85.3094 36.0438 85.3094 36.0438 85.3094 36.0577C85.1699 36.3781 85.1281 36.7404 85.1978 37.0887C85.2955 37.6321 85.6302 38.0919 86.1183 38.3426C86.3554 38.468 86.6204 38.5377 86.8993 38.5377C87.2061 38.5377 87.499 38.4541 87.7779 38.3008C87.7779 38.4541 87.7639 38.5934 87.75 38.7328C87.6384 39.513 87.5269 40.349 87.4571 41.2267C86.2438 41.8397 80.6235 42.5364 80.6235 42.5364C81.1674 45.1836 80.8187 47.6915 80.4003 48.9454C80.2469 49.4052 79.9819 49.7674 79.6472 50.06C79.3822 50.2969 79.0754 50.478 78.7268 50.6173C78.657 51.5369 78.5873 52.2196 78.4199 52.7629C78.3781 52.958 78.3084 53.1252 78.2247 53.2645C77.8063 53.9751 76.9416 54.1423 76.1606 54.198L76.2862 52.7211C76.2862 52.7211 76.0212 52.4704 75.9793 52.4286L75.9514 52.4007ZM77.9458 31.85C78.1829 31.4739 78.9778 31.0419 79.8006 30.5682C79.8982 30.5125 80.0098 30.4568 80.1214 30.3871C80.2748 30.5264 80.4282 30.6658 80.5816 30.8051C80.9582 31.1395 81.3487 31.4599 81.7392 31.7664L81.7531 31.7804L83.6777 33.7867C84.1798 34.3161 84.5284 34.7202 84.7655 35.0545L81.9623 34.8595C80.5816 34.8595 79.4659 35.0267 78.5594 35.2914C78.6849 35.0963 78.7825 34.8734 78.8383 34.6505C79.0894 33.6055 78.5733 32.6024 77.9737 31.864L77.9458 31.85ZM85.9091 35.2635C85.7417 34.9431 85.4768 34.539 85.0305 33.9957C85.1421 34.0653 85.2676 34.135 85.3652 34.1907C86.0346 34.5669 86.5367 35.0267 86.9132 35.5283C87.2061 35.9184 87.4013 36.3363 87.5548 36.7404C87.6105 36.8937 87.6524 37.0608 87.6803 37.2141C87.5129 37.4788 87.22 37.646 86.9132 37.646C86.7877 37.646 86.6622 37.6181 86.5367 37.5485C86.0764 37.3116 85.8951 36.6986 86.2159 36.2249C86.2438 36.1831 86.2717 36.1413 86.3135 36.0995C86.188 35.8487 86.1043 35.584 85.923 35.2496L85.9091 35.2635ZM72.9112 10.3102C73.469 10.6863 73.999 11.1183 74.515 11.5502C75.3518 12.2468 76.1606 12.9852 77.0393 13.6401C77.3182 13.8491 78.1689 14.49 78.8383 15.0055C78.6431 15.2145 78.4618 15.4234 78.2805 15.6464C77.7924 16.2873 77.3879 17.0118 77.0811 17.7641L75.5052 16.2733C75.6725 15.8414 75.7283 15.3398 75.6725 14.8243C75.6725 14.7965 75.6725 14.7686 75.6725 14.7268L74.8357 15.1309C74.8636 15.7578 74.6265 16.4127 74.0548 16.7192C73.8735 16.8167 73.72 16.8585 73.5108 16.8585L73.5387 16.0922C73.2598 16.0922 72.8833 15.7996 72.8833 15.3956C72.8833 14.9358 73.1761 14.685 73.5387 14.5736V13.6819C72.8414 13.8073 72.3254 14.2252 72.1162 14.7965H71.1958C71.1539 14.1138 71.4886 13.4868 72.1999 13.2499V12.3443C71.6002 12.4697 71.2097 12.7623 70.9726 13.027C70.9029 13.0967 70.8471 13.1803 70.7774 13.2639H70.0801C70.0522 12.609 70.3869 12.0099 71.0145 11.801V10.8953C70.624 10.9789 70.2893 11.1322 69.9964 11.383H69.3409C69.3409 10.9511 69.6059 10.5331 69.9545 10.2823C70.2614 10.0594 70.6519 9.93398 71.0424 9.89218C71.1679 9.87825 71.2934 9.86432 71.4189 9.86432C71.5863 9.86432 71.7536 9.87825 71.907 9.90611C72.2696 9.97578 72.6183 10.1151 72.9251 10.3241L72.9112 10.3102ZM71.0424 4.7371C71.5723 3.83148 71.8791 2.67507 71.8931 1.47686H73.999C74.0129 1.63012 74.0269 1.76945 74.0269 1.92271C74.0269 4.22159 72.186 6.08857 69.9127 6.08857H69.7593C70.2474 5.80991 70.6937 5.35014 71.0424 4.7371ZM61.4334 4.7371C61.9633 3.83148 62.2701 2.67507 62.2841 1.47686H65.1431C65.157 2.67507 65.4638 3.83148 65.9938 4.7371C66.3564 5.35014 66.7887 5.80991 67.2769 6.08857H65.3662C64.8781 5.58699 64.4737 4.90429 64.2087 4.0962H63.2464C62.9954 4.90429 62.5909 5.58699 62.0888 6.08857H60.1364C60.6245 5.80991 61.0568 5.35014 61.4194 4.7371H61.4334ZM51.671 4.7371C52.2009 3.83148 52.5078 2.67507 52.5217 1.47686H55.5341C55.548 2.67507 55.8549 3.83148 56.3848 4.7371C56.7474 5.35014 57.1798 5.79598 57.6679 6.08857H55.5899C55.1018 5.58699 54.6973 4.90429 54.4323 4.0962H53.47C53.219 4.90429 52.8146 5.58699 52.3125 6.08857H50.36C50.8481 5.80991 51.2944 5.35014 51.6431 4.7371H51.671ZM42.1736 4.7371C42.7035 3.83148 43.0103 2.67507 43.0243 1.47686H45.7856C45.7996 2.67507 46.1064 3.83148 46.6364 4.7371C46.999 5.35014 47.4313 5.80991 47.9194 6.08857H45.9669C45.4788 5.58699 45.0744 4.90429 44.8094 4.0962H43.8471C43.5961 4.90429 43.1916 5.58699 42.6896 6.08857H40.8626C41.3507 5.80991 41.797 5.35014 42.1457 4.7371H42.1736ZM34.0987 1.86697C34.0987 1.74158 34.0987 1.61619 34.1126 1.47686H36.2743C36.2882 2.67507 36.595 3.83148 37.125 4.7371C37.4876 5.35014 37.9199 5.80991 38.4081 6.08857H38.1989C35.9675 6.08857 34.0847 4.15193 34.0847 1.86697H34.0987ZM30.8492 13.6401C31.7278 12.9852 32.5367 12.2607 33.3735 11.5502C33.8895 11.1183 34.4194 10.6863 34.9773 10.3102C35.298 10.0872 35.6606 9.94791 36.0511 9.89218C36.1906 9.86432 36.344 9.85038 36.4974 9.85038C36.6369 9.85038 36.7763 9.85038 36.9298 9.87825C37.3063 9.93398 37.6829 10.0454 37.9757 10.2684C38.3244 10.5191 38.5754 10.9371 38.5894 11.383H37.9339C37.641 11.1322 37.2924 10.965 36.9158 10.8953V11.801C37.5573 12.0099 37.892 12.609 37.8502 13.2778H37.1529C37.0971 13.1942 37.0274 13.1106 36.9576 13.041C36.7206 12.7902 36.3161 12.4976 35.7304 12.3583V13.2639C36.4277 13.5007 36.7624 14.1277 36.7345 14.8243H35.814C35.6049 14.2392 35.0888 13.8212 34.3915 13.6958V14.5875C34.7541 14.6989 35.047 14.9497 35.047 15.4095C35.047 15.8136 34.6844 16.1061 34.3915 16.1061L34.4194 16.8724C34.2242 16.8724 34.0568 16.8167 33.8755 16.7331C33.3037 16.4266 33.0806 15.7578 33.0945 15.1448L32.2577 14.7407C32.2577 14.7407 32.2577 14.7965 32.2577 14.8383C32.188 15.3538 32.2578 15.8554 32.4251 16.2873L30.8492 17.792C30.5424 17.0396 30.1379 16.3291 29.6498 15.6742C29.4685 15.4513 29.2872 15.2284 29.0919 15.0333C29.7753 14.5178 30.6121 13.8769 30.891 13.6679L30.8492 13.6401ZM4.93699 54.5881C4.81147 53.7382 4.95093 50.7148 5.04855 48.9872C5.09039 48.2906 5.62035 47.7193 6.30372 47.6218C7.08471 47.5103 8.08884 47.3571 8.828 47.2038C9.99948 46.953 11.1291 46.4375 11.3941 45.6016C11.6173 44.8771 11.4917 44.7935 11.422 44.055C11.3662 43.4838 11.2965 42.8986 11.2547 42.3274C11.2547 42.2438 11.2546 42.1463 11.2407 42.0627C11.2407 41.7283 11.2407 41.38 11.2825 41.0456C11.2128 41.0874 11.1431 41.1292 11.0733 41.171C10.8502 41.2964 10.6131 41.38 10.376 41.4496C10.1111 41.5193 9.84608 41.5472 9.56715 41.5472C8.98141 41.5472 8.40961 41.3939 7.8936 41.0734C6.95919 40.5022 6.41529 39.513 6.44318 38.4262C6.48502 36.4896 7.58678 35.1242 8.6467 33.8006C9.14876 33.1736 9.67872 32.5188 10.0692 31.8222C11.3104 29.5929 11.6033 27.1687 10.9339 24.619C10.641 23.5044 9.97159 22.5012 9.26033 21.4284C8.99535 21.0244 8.74432 20.6482 8.49329 20.2302C8.49329 20.2302 7.93543 20.481 7.57283 20.3974C7.47521 20.3695 7.37758 20.3277 7.26601 20.2581C6.41529 19.7286 5.50878 17.5691 5.55062 14.9776C5.57851 12.9156 6.06663 11.2018 7.02893 9.79465C6.81973 10.3798 6.63843 10.9929 6.52686 11.6059C6.40134 12.2747 6.3595 12.9713 6.40134 13.6401C6.44318 14.3228 6.58264 14.9776 6.80578 15.5906C6.70816 14.9358 6.70816 14.281 6.79184 13.6401C6.87552 12.9992 7.04287 12.3861 7.27996 11.801C7.48915 11.2854 7.74019 10.7839 8.03306 10.3102C7.83781 11.5084 7.83781 12.7205 8.15858 14.2252C8.35382 15.1587 8.75827 16.0504 9.10692 16.8306C9.42769 17.5412 9.66478 18.1124 9.7624 18.5862C9.87397 19.1017 9.80424 19.4918 9.45558 19.8122C9.51136 19.9098 9.5811 20.0073 9.63688 20.1048C9.79029 20.3417 9.95765 20.5925 10.125 20.8432C10.8502 21.9439 11.6033 23.0725 11.938 24.3543C12.6632 27.1408 12.3285 29.8995 10.9757 32.3377C10.5434 33.1179 9.98554 33.8006 9.45558 34.4694C8.46539 35.7094 7.51705 36.8797 7.47521 38.468C7.46126 39.1925 7.80992 39.8195 8.42356 40.1957C9.06508 40.5858 9.83213 40.6137 10.4876 40.2932C10.5015 40.2932 10.5294 40.2793 10.5434 40.2654C11.0455 40.0006 11.4917 39.4991 11.7567 38.9139C11.7567 38.886 11.7707 38.8582 11.7846 38.8303C12.1054 37.8968 12.4959 36.9772 12.9422 36.0995C14.2531 33.4802 15.8848 31.028 16.9168 28.2693C17.8094 25.9008 17.405 23.0167 17.405 23.0167C16.4985 23.379 15.1736 23.4208 15.1736 23.4208C15.2154 20.4671 8.86983 13.6122 12.733 5.25261C12.9979 5.68452 13.3466 6.13037 13.8347 6.59014L14.1834 6.92453V5.71239C12.1612 3.62249 13.0956 1.63012 13.8487 0.961353C14.4205 1.17034 15.0759 1.79731 15.5641 2.56361L16.4148 2.28495C16.2056 1.93664 15.9685 1.60225 15.7035 1.29574C15.7872 1.24001 15.8709 1.19821 15.9685 1.18428C16.0103 1.18428 16.0661 1.18428 16.1359 1.18428C17.405 1.18428 22.1746 2.28495 22.6488 2.53574L23.0253 3.81755C24.3223 4.16586 25.5217 4.86249 26.3724 5.32227C26.233 5.68452 25.8425 6.50655 25.0615 6.42295C25.0615 6.42295 25.8285 6.88273 25.6751 7.60723C25.4241 8.13667 25.1033 8.68004 24.6989 9.15375L23.9179 8.37352C22.9974 7.52363 22.1885 7.21711 21.5191 7.21711C20.6405 7.21711 20.0269 7.77442 19.7758 8.41532C19.3853 9.3906 19.4272 10.1708 19.5666 10.6724C19.6782 11.0486 19.985 11.3551 20.6823 11.4108C20.8079 11.4108 20.9473 11.4248 21.0868 11.4248C22.5232 11.4248 24.406 10.9093 24.406 10.9093C24.6989 12.4697 24.8802 12.7762 22.6488 12.7762C22.1327 12.7762 21.4912 12.7623 20.6963 12.7344L22.9277 13.7515C23.1787 13.7376 23.4158 13.7237 23.6529 13.7237C25.2986 13.7237 26.6095 14.2113 27.6415 15.0055C27.8786 15.1866 28.1018 15.3816 28.311 15.5906C29.1059 16.3987 29.6777 17.4019 30.0821 18.4608C30.1937 18.7673 30.2913 19.0738 30.375 19.3803C30.8073 20.9965 30.8631 22.6824 30.64 24.0338C30.4726 23.8248 30.3053 23.6298 30.11 23.4347L30.0124 23.3372C29.343 22.6824 28.2133 21.5538 26.8605 20.8572C26.3585 20.4113 25.8843 19.9655 25.4241 19.4778C24.4339 18.4329 23.5553 17.2765 22.8998 15.9668C23.3042 17.374 23.9876 18.7255 24.7965 19.9655C25.1173 20.4531 25.452 20.9268 25.8006 21.3866C26.1074 21.512 26.3864 21.6513 26.6653 21.8185C27.8507 22.4873 28.8549 23.5183 29.4406 24.1035C29.7893 24.4379 30.0682 24.814 30.3332 25.2042C30.5424 25.5107 30.7237 25.8172 30.9189 26.1376C31.0584 26.3745 31.2118 26.6253 31.3512 26.8621C31.9788 27.8792 32.8156 28.8824 33.2898 28.8824C33.4571 28.8824 33.5826 28.757 33.6384 28.4783C33.8895 27.2105 34.6844 26.6532 35.5491 26.6532C35.9535 26.6532 36.3719 26.7785 36.7485 27.0015L35.8838 27.8096C36.3998 28.4226 35.8559 29.3561 35.298 29.6626C34.6983 29.9831 35.0191 30.5404 35.4514 30.5404C35.5909 30.5404 35.7304 30.4846 35.8698 30.3592C36.2324 30.0249 36.7066 29.8577 37.1668 29.8577C38.1431 29.8577 39.1054 30.61 38.9799 32.1705L38.2268 31.7525C37.9757 32.5745 37.39 32.9228 36.8461 32.9228C36.595 32.9228 36.358 32.8532 36.1767 32.7139C35.7583 32.4073 35.3259 32.0869 35.0331 32.0869C34.9354 32.0869 34.8378 32.1287 34.782 32.2123C34.5589 32.5188 34.782 32.8253 35.5909 33.2154C36.9995 33.9121 37.2226 35.9602 35.1446 36.3503L34.9215 35.0824C34.8239 35.1103 34.7262 35.1242 34.6286 35.1242C34.0289 35.1242 33.6105 34.5948 33.5408 34.2047C33.4432 33.6334 33.4711 33.2851 33.4432 32.9228C33.4292 32.6024 33.22 32.4631 33.0108 32.4631C32.7598 32.4631 32.5088 32.6442 32.4809 32.9646C32.439 33.5638 32.453 34.344 31.3931 34.5251L31.0584 35.5979C30.0542 35.2496 29.0501 34.0932 30.8771 32.1426C30.905 31.1534 29.859 30.5822 28.3946 29.7601C28.1436 29.6208 27.8786 29.4676 27.6136 29.3143C27.4742 29.2307 27.3347 29.1471 27.1953 29.0635C26.9024 28.8824 25.7727 28.0604 24.7825 27.2105L23.9179 27.6702C24.0992 27.8235 24.2944 27.9907 24.5176 28.1857C25.4101 28.9242 26.3724 29.6487 26.735 29.8577C26.8048 29.8995 26.8745 29.9413 26.9442 29.9831C25.9959 30.8608 24.9778 31.6271 24.0573 32.2402C23.6808 32.4909 23.3182 32.7278 22.9835 32.9368C22.6488 33.1458 22.328 33.3269 22.063 33.4802C21.3239 33.8981 20.7381 34.4136 20.2918 34.9988C19.999 35.375 19.7758 35.779 19.6085 36.1831C19.4411 36.5732 19.3295 36.9772 19.2738 37.3813C19.2459 37.5206 19.2319 37.646 19.218 37.7853C19.1901 38.1615 19.204 38.5238 19.2459 38.8721C19.3017 39.2483 19.3435 39.6245 19.3993 40.0006C19.469 40.5719 19.5248 41.1292 19.5666 41.7004C19.6224 42.3692 19.6503 43.024 19.6503 43.6789C19.6503 45.6852 19.3435 47.1202 17.9489 48.4856C16.9447 49.4748 15.5362 49.7117 14.1694 49.8092C13.4582 49.851 11.4638 50.1436 10.1111 50.3526C9.33006 50.4641 8.74432 51.1189 8.70248 51.9131C8.64669 52.9859 8.66064 54.3931 9.03719 54.8668L10.8781 54.616C11.3104 53.9751 12.3425 53.4735 13.3466 53.4735C14.1276 53.4735 14.8946 53.78 15.327 54.5881C15.4525 54.825 15.564 55.1036 15.6198 55.438C15.6338 55.5355 15.6477 55.6331 15.6617 55.7445L15.0759 55.5077L14.7412 55.3683C14.7273 55.4519 14.7133 55.5216 14.6994 55.5913C14.5041 56.3994 14.0857 56.692 13.5837 56.692C13.3466 56.692 13.0956 56.6223 12.8306 56.5248C12.8027 56.5248 12.7748 56.4969 12.733 56.483C12.2588 56.2879 11.9241 56.1346 11.673 56.1346C11.5057 56.1346 11.3802 56.2043 11.2686 56.3994C11.1152 56.6641 11.2686 56.887 11.5336 57.0681C11.6173 57.1239 11.7288 57.1796 11.8264 57.2214C13.235 57.8066 13.6395 59.172 12.3425 60.5931L11.3662 59.7293C11.2128 59.8268 11.0594 59.8686 10.9199 59.8686C10.4458 59.8686 10.0134 59.4367 9.90186 59.1162C9.72056 58.6286 9.91581 58.0713 9.98554 57.6672C9.99949 57.5558 10.0134 57.4443 9.99948 57.3607C9.97159 57.1378 9.81818 56.9567 9.63688 56.8591C9.5532 56.8173 9.46952 56.7895 9.3719 56.7895C9.28822 56.7895 9.20455 56.8034 9.12087 56.8452C9.03719 56.887 8.96746 56.9427 8.91167 57.0124C8.78616 57.1657 8.75827 57.3746 8.75827 57.5836C8.75827 57.6951 8.75827 57.8205 8.74432 57.932C8.71643 58.127 8.66064 58.3081 8.49329 58.4614C8.40961 58.5311 8.32593 58.5868 8.24225 58.6425C8.18647 58.6704 7.92149 58.7958 7.90754 58.8515L7.78202 60.2169C6.80579 59.9801 5.73192 59.5063 5.9969 57.9877C6.03874 57.7369 6.12242 57.4443 6.26188 57.1239C6.30372 57.0124 6.35951 56.887 6.42924 56.7616C5.57851 56.3436 5.02066 55.5495 4.8812 54.616L4.93699 54.5881ZM21.561 9.68319C22.063 9.68319 22.579 9.80858 23.1229 10.0036C23.7087 9.64139 23.8342 9.18161 24.0573 9.15375C24.2247 9.13982 24.2944 9.61353 24.2107 10.0594C24.2107 10.0594 23.3879 10.2405 22.844 10.3241C22.3001 10.4216 21.6865 10.5052 21.1426 10.5052C21.017 10.5052 20.9055 10.5052 20.8079 10.5052C20.5429 10.4774 20.4592 10.4216 20.4592 10.4077C20.4592 10.4077 20.4592 10.4077 20.4592 10.3938C20.4313 10.3102 20.4034 10.1848 20.4034 10.0176C20.766 9.79465 21.1565 9.71106 21.5749 9.71106L21.561 9.68319ZM20.501 9.08409C20.5289 8.95869 20.5847 8.81937 20.6405 8.68004C20.6963 8.52678 20.9473 8.03914 21.5749 8.03914C21.9375 8.03914 22.5372 8.1924 23.36 8.95869L23.6947 9.30701C22.9556 9.07015 22.2304 8.8751 21.561 8.8751C21.1844 8.8751 20.8357 8.94476 20.4871 9.08409H20.501ZM31.3373 48.4856L32.8156 47.984L33.5548 47.7333L33.9731 47.5939C34.6426 46.6465 35.7304 45.9638 36.7624 45.9638C37.7944 45.9638 38.7288 46.6047 39.203 48.2627L38.157 48.0398C38.157 49.1126 37.8084 49.3912 37.2645 49.3912C37.1529 49.3912 37.0274 49.3912 36.9019 49.3634C36.7485 49.3355 36.595 49.3076 36.4277 49.2798C35.9117 49.1823 35.5351 49.0708 35.2701 49.0708C35.0191 49.0708 34.8518 49.1683 34.7541 49.433C34.6147 49.8371 35.0052 50.0879 35.5072 50.2133C36.7345 50.4919 37.4318 51.3557 37.2087 52.5122C37.1529 52.7769 37.0692 53.0416 36.9158 53.3342C36.86 53.4596 36.7903 53.571 36.7066 53.6964L35.4933 52.958C35.312 53.1391 35.1028 53.2088 34.8936 53.2088C34.4334 53.2088 33.9871 52.8744 33.8197 52.5818C33.8058 52.554 33.7918 52.5261 33.7779 52.4982C33.6384 52.2196 33.6245 51.8991 33.6245 51.6065C33.6245 51.4393 33.6245 51.2722 33.6245 51.1189C33.6245 50.9378 33.6245 50.7845 33.5826 50.673C33.5129 50.4501 33.3316 50.2969 33.1364 50.2133C33.0666 50.1854 32.983 50.1715 32.9132 50.1715C32.7877 50.1715 32.6622 50.2133 32.5506 50.2969C32.2577 50.5059 32.2578 50.8263 32.2996 51.1468C32.3414 51.4811 32.3972 51.7877 32.2159 52.0663C32.2159 52.0942 32.188 52.1081 32.1741 52.136C32.1043 52.2196 32.0207 52.3032 31.937 52.3728C31.8812 52.4146 31.6302 52.5958 31.6302 52.6654L31.7557 54.1423C30.9747 54.0865 30.11 53.9194 29.6916 53.2088C29.608 53.0695 29.5382 52.8883 29.4964 52.7072C29.343 52.1638 29.2732 51.4951 29.1896 50.5616C28.8409 50.4223 28.5341 50.2411 28.2691 50.0043C27.9344 49.7117 27.6694 49.3494 27.516 48.8897C27.0976 47.6357 26.735 45.1278 27.2929 42.4806C27.2929 42.4806 21.6725 41.784 20.4592 41.171C20.3755 40.2932 20.2779 39.4433 20.1663 38.677C20.1524 38.5377 20.1384 38.3984 20.1384 38.2451C20.4034 38.3984 20.7102 38.482 21.017 38.482C21.296 38.482 21.547 38.4123 21.798 38.2869C22.2862 38.0361 22.6209 37.5764 22.7185 37.033C22.7882 36.6847 22.7464 36.3224 22.6069 36.002C22.6069 36.002 22.6069 36.002 22.6069 35.988C22.9835 35.9184 23.4019 35.8626 23.8621 35.8069C24.6291 35.7233 25.3264 35.6815 25.968 35.6815C31.9649 35.6815 32.453 38.9696 32.453 38.9696C33.3874 42.4667 30.5842 44.0411 30.5842 44.0411C30.5842 44.0411 29.9427 47.2317 31.3652 48.4438L31.3373 48.4856ZM16.5682 53.0137C16.5682 53.1113 16.624 53.8636 17.1539 54.6717C16.8611 54.6021 16.5961 54.5603 16.345 54.5324C15.8709 53.2785 14.8109 52.54 13.4024 52.54C12.2867 52.54 11.1431 53.0137 10.4737 53.7382L9.66477 53.8497C9.60899 53.5014 9.56715 52.9023 9.62293 51.9131C9.63688 51.5369 9.92975 51.2304 10.2924 51.1746C12.3425 50.8681 13.765 50.673 14.281 50.6452C15.7314 50.5477 17.3771 50.2829 18.6043 49.0708C19.3714 48.3184 19.9013 47.4825 20.1942 46.549C20.4453 45.7548 20.5568 44.8631 20.5568 43.6371C20.5568 43.1494 20.5429 42.6618 20.515 42.1741C20.7242 42.2438 20.9752 42.3135 21.2541 42.3831C21.8678 42.5364 22.7045 42.7036 23.7226 42.8708C24.657 43.024 25.5914 43.1633 26.2469 43.2469C25.9122 45.6852 26.2469 47.9144 26.6653 49.1823C26.9442 50.0182 27.516 50.687 28.3388 51.1468C28.3388 52.0384 28.6178 52.9301 28.6178 52.958C27.9902 52.6376 27.0279 52.2753 25.9122 52.2753C25.452 52.2753 24.9917 52.345 24.5594 52.4564C24.2805 52.54 24.0155 52.6236 23.7505 52.6933C22.7743 52.9859 21.8678 53.2785 20.9055 53.2785C19.8874 53.2785 18.9251 52.958 17.8931 52.2474L16.4566 51.2722L16.5263 53.0137H16.5682ZM21.6865 36.2249C21.9933 36.6986 21.8259 37.3116 21.3657 37.5485C21.2402 37.6181 21.1147 37.646 20.9892 37.646C20.6823 37.646 20.3895 37.4788 20.2221 37.2141C20.25 37.0608 20.3058 36.8937 20.3476 36.7404C20.4871 36.3224 20.6963 35.9184 20.9892 35.5283C21.3657 35.0267 21.8678 34.5669 22.5372 34.1907C22.6348 34.135 22.7464 34.0653 22.8719 33.9957C22.4256 34.539 22.1606 34.9291 21.9933 35.2635C21.812 35.5979 21.7283 35.8626 21.6028 36.1134C21.6446 36.1552 21.6725 36.197 21.7004 36.2388L21.6865 36.2249ZM27.3208 30.8051C27.4742 30.6658 27.6276 30.5264 27.781 30.3871C27.8926 30.4428 27.9902 30.5125 28.1018 30.5682C28.9246 31.028 29.7056 31.4739 29.9566 31.85C29.3569 32.5885 28.827 33.5916 29.0919 34.6366C29.1477 34.8595 29.2454 35.0824 29.3709 35.2775C28.4644 35.0127 27.3487 34.8456 25.968 34.8456L23.1648 35.0406C23.4019 34.7062 23.7366 34.3022 24.2526 33.7727L26.1772 31.7664H26.1911V31.7525C26.5816 31.446 26.9582 31.1255 27.3487 30.7912L27.3208 30.8051ZM14.8807 60.621C13.4442 62.1535 11.5057 62.8641 9.51136 62.8641C6.09452 62.8641 2.56612 60.7603 1.3249 57.0542C1.3249 57.0542 3.0124 57.6254 5.18802 57.8762C5.09039 58.4753 5.14618 59.0048 5.36932 59.4785C5.84349 60.4816 6.88946 60.8439 7.62861 61.0389L8.6188 61.2897L8.71643 60.2726L8.81405 59.3252C8.89773 59.2695 8.99535 59.1998 9.07903 59.1302C9.09298 59.2138 9.12087 59.2974 9.14876 59.381C9.38585 60.0358 10.1389 60.7046 10.9897 60.7046C11.0733 60.7046 11.157 60.7046 11.2407 60.6906L11.8404 61.2201L12.4819 61.7913L13.0677 61.1504C13.8905 60.2587 14.2252 59.2556 14.016 58.336C13.9463 58.0434 13.8347 57.7648 13.6674 57.514C14.1834 57.514 14.6436 57.3189 14.9923 56.9567C15.1178 56.8173 15.2433 56.6641 15.327 56.483H15.3827L16.7355 57.0542L16.5821 55.6052C16.5821 55.6052 16.5821 55.5077 16.5682 55.4519C17.1679 55.5495 17.8931 55.7724 18.8135 56.1207C18.9391 56.1904 19.0785 56.2461 19.204 56.2879C19.2738 56.3158 19.3295 56.3436 19.3993 56.3576C19.1064 56.5248 18.8135 56.692 18.5486 56.8591C17.2237 57.709 16.3171 58.6286 15.843 59.5899C15.5501 59.8965 15.2293 60.2308 14.8807 60.607V60.621ZM25.2149 57.5976C24.2526 58.4057 22.9137 58.5729 21.7004 58.6565C18.0186 58.9351 16.5124 62.2511 16.5124 62.2511C16.2056 61.4848 16.2614 60.7603 16.5542 60.1054C17.0005 59.1023 18.0047 58.2385 19.0646 57.5697C20.8357 56.4551 22.7882 55.8281 22.7882 55.8281C22.4396 55.856 22.1188 55.8699 21.812 55.8699C21.0449 55.8699 20.4174 55.7724 19.9013 55.6191C19.6085 55.5355 19.3435 55.4241 19.1204 55.3126C17.4886 54.4767 17.4329 52.9859 17.4329 52.9859C18.7299 53.8636 19.8735 54.1701 20.9334 54.1701C22.3001 54.1701 23.5413 53.6825 24.8104 53.3202C25.187 53.2088 25.5635 53.167 25.9261 53.167C26.9721 53.167 27.8786 53.5571 28.3946 53.8358C27.7392 54.2398 27.1813 54.7553 26.749 55.4101C26.5816 55.6749 26.4282 55.9396 26.3027 56.1904C25.8843 56.7616 25.6193 57.2632 25.2009 57.5976H25.2149ZM31.3373 56.3297C30.0542 56.6223 28.8549 57.3607 28.4504 58.6843C28.2133 59.4506 28.2552 60.2866 28.297 61.0807C28.297 61.0807 25.6751 59.5899 27.0697 56.6502C27.1813 56.4133 27.3347 56.1486 27.5021 55.8839C27.8368 55.3683 28.2412 55.0061 28.6178 54.7274C28.7572 54.6439 28.8967 54.5742 29.0501 54.4906L29.4406 54.2955C30.11 54.8668 31.0165 55.0061 31.686 55.0479L32.704 55.1176L32.6204 54.1005L32.5367 53.0416C32.6482 52.9441 32.7598 52.8326 32.8714 52.6933C32.8714 52.6933 32.8714 52.6793 32.8853 52.6654C32.9272 52.7908 32.983 52.9162 33.0527 53.0277C33.3595 53.5571 34.0847 54.0865 34.8797 54.0865C35.0888 54.0865 35.2841 54.0447 35.4793 53.9751L35.9396 54.2537C35.9396 54.2537 35.8698 54.3095 35.8419 54.3373C34.3497 55.7167 33.234 55.8699 31.3373 56.3018V56.3297ZM70.9029 61.1643C70.9029 61.1643 71.656 57.8344 70.0522 56.7755C67.4861 55.1036 66.1193 56.5387 63.2464 54.3513C63.2185 54.3095 63.1767 54.2816 63.1488 54.2398C61.796 52.8744 60.3037 52.0106 58.9509 51.5508C58.0165 51.7041 56.9845 51.8155 55.8409 51.8713C56.0641 51.8713 56.2872 51.8991 56.5243 51.927C56.9287 51.9688 57.3611 52.0384 57.8073 52.136C58.4907 52.2892 59.2159 52.5261 59.9411 52.8744C60.8197 53.3063 61.6984 54.0029 62.5212 54.8389C62.577 54.8946 62.6188 54.9364 62.6606 54.9922C64.4458 56.9288 63.9716 58.8236 63.9716 58.8236C63.9716 58.8236 61.6844 55.7863 58.2676 55.7863C56.6358 55.7863 55.2273 56.3297 54.5021 56.692L53.9721 56.9706L53.4422 56.692C52.7169 56.3436 51.3084 55.7863 49.6767 55.7863C46.2598 55.7863 43.9726 58.8236 43.9726 58.8236C43.9726 58.8236 43.4845 56.9288 45.2836 54.9922C45.3254 54.9364 45.3812 54.8946 45.423 54.8389C46.2459 54.0029 47.1245 53.2924 48.0031 52.8744C48.7283 52.5261 49.4535 52.2892 50.1369 52.136C50.5832 52.0384 51.0155 51.9688 51.4199 51.927C51.657 51.8991 51.8941 51.8852 52.1173 51.8713C50.9737 51.8155 49.9416 51.7041 48.9933 51.5508C47.6405 52.0106 46.1483 52.8605 44.7955 54.2398C44.7536 54.2816 44.7257 54.3095 44.6978 54.3513C41.8249 56.5387 40.4582 55.1036 37.892 56.7755C36.2882 57.8205 37.0413 61.1643 37.0413 61.1643C37.0413 61.1643 33.6524 58.6007 36.7206 55.2151C37.3621 54.5045 38.1431 53.9194 38.7149 53.5292C39.1891 53.2088 39.5238 53.0277 39.5238 53.0277C39.5238 53.0277 39.2867 52.9998 38.9241 52.9441C38.7288 52.9162 38.4917 52.8605 38.2407 52.8047C38.1989 52.8047 38.1431 52.7769 38.0873 52.7629C38.2128 52.1638 38.171 51.5787 37.9618 51.0632C37.8781 50.8542 37.7526 50.6452 37.6131 50.4641C38.938 50.8263 40.5697 51.105 42.4246 51.105C43.1358 51.105 43.875 50.9517 44.656 50.8681C44.921 50.8402 45.2138 50.8263 45.5067 50.8263C45.6043 50.8263 45.702 50.8263 45.7996 50.8263C45.0744 50.6034 44.4329 50.3526 43.8471 50.1018C43.3729 50.1715 42.8988 50.2411 42.4246 50.2411C40.9602 50.2411 39.6493 50.06 38.5196 49.7953C38.7288 49.5863 38.8543 49.3494 38.938 49.0847L39.0635 49.1126L40.4861 49.4191L40.0816 48.0119C39.3285 45.3647 37.5434 45.0861 36.8042 45.0861C35.6188 45.0861 34.3357 45.7688 33.485 46.8416L31.672 47.4546C31.2676 46.7162 31.2955 45.4065 31.407 44.5845C31.7278 44.3476 32.188 43.9436 32.6064 43.3445C33.2479 42.4388 33.8895 40.9202 33.3316 38.8024C33.2758 38.5238 32.983 37.451 31.8394 36.5035L32.0486 35.8208L32.2299 35.2217C32.5088 35.1103 32.7319 34.9431 32.8993 34.762C33.1503 35.2775 33.6384 35.7512 34.2521 35.9044L34.3497 36.4339L34.5031 37.3534L35.4096 37.1862C36.6648 36.9494 37.5016 36.1692 37.655 35.1103C37.7247 34.6366 37.641 34.1489 37.4318 33.7031C37.906 33.5916 38.3383 33.3269 38.6591 32.9228L39.8445 33.5916L39.9561 32.1705C40.0537 30.9305 39.6074 30.1503 39.2169 29.7323C38.7149 29.1889 37.9897 28.8824 37.2366 28.8824C37.1529 28.8824 37.0832 28.8824 36.9995 28.8824C37.0134 28.8127 37.0413 28.7431 37.0553 28.6734C37.0971 28.4365 37.0971 28.1997 37.0553 27.9628L37.4597 27.5866L38.3523 26.7507L37.3063 26.1237C36.7763 25.8033 36.2045 25.6361 35.6328 25.6361C34.6844 25.6361 33.5966 26.1237 33.0527 27.4334C32.8295 27.1687 32.5367 26.7925 32.2159 26.277C32.0904 26.068 31.9649 25.859 31.8394 25.65C31.6999 25.4132 31.5465 25.1624 31.3931 24.9255C31.8533 23.1979 31.8394 20.8293 31.156 18.628L32.8714 16.9978C33.0387 17.179 33.2479 17.3461 33.4711 17.4576C33.7918 17.6248 34.0847 17.7084 34.4194 17.7084H34.4334H35.3399V16.5938C35.3399 16.5938 35.4096 16.5381 35.4375 16.5102C35.6885 16.2733 35.8419 15.9807 35.8977 15.6464H36.7345L37.5713 15.6603L37.6131 14.8243C37.6131 14.5736 37.6131 14.3367 37.5573 14.0998H37.8642H38.7009L38.7428 13.2639C38.7567 12.8877 38.7009 12.5255 38.5754 12.205H38.6033H39.4959L39.468 11.3133C39.454 10.6167 39.0914 9.94791 38.5057 9.52993C37.9897 9.15375 37.4039 9.01442 36.9437 8.97263V6.93846H71.0284V8.95869C70.5682 9.00049 69.9545 9.13982 69.4246 9.52993C68.8388 9.96184 68.4762 10.6306 68.4623 11.3133L68.4344 12.205H69.327H69.3549C69.2293 12.5255 69.1596 12.8877 69.1875 13.2639L69.2293 14.0998H70.0661H70.3729C70.3172 14.3228 70.3032 14.5736 70.3171 14.8243L70.359 15.6603H71.1958L72.0325 15.6464C72.0883 15.9668 72.2417 16.2733 72.4928 16.5102C72.5207 16.5381 72.5625 16.5659 72.5904 16.5938V17.7084H73.4969H73.5108C73.8456 17.7084 74.1384 17.6248 74.4592 17.4576C74.6823 17.3322 74.8915 17.179 75.0589 16.9978L76.7743 18.628C76.0909 20.8293 76.063 23.1979 76.5372 24.9255C76.3838 25.1624 76.2304 25.4132 76.0909 25.65C75.9654 25.859 75.8399 26.068 75.7144 26.277C75.4075 26.7785 75.1007 27.1826 74.8776 27.4473C74.3337 26.1237 73.2459 25.6361 72.2975 25.6361C71.7257 25.6361 71.1539 25.8033 70.624 26.1237L69.578 26.7507L70.4706 27.5866L70.875 27.9628C70.8332 28.1857 70.8332 28.4226 70.875 28.6734C70.875 28.7431 70.9029 28.8127 70.9308 28.8824C70.8471 28.8824 70.7774 28.8824 70.6937 28.8824C69.9267 28.8824 69.2014 29.1889 68.7133 29.7323C68.3228 30.1642 67.8765 30.9305 67.9742 32.1705L68.0857 33.5916L69.2712 32.9228C69.5919 33.313 70.0243 33.5777 70.4985 33.7031C70.2893 34.1489 70.2056 34.6226 70.2753 35.1103C70.4287 36.1831 71.2655 36.9633 72.5207 37.1862L73.4272 37.3534L73.5806 36.4339L73.6782 35.9044C74.3058 35.7372 74.7939 35.2775 75.031 34.762C75.1983 34.9431 75.4215 35.0963 75.7004 35.2217L75.8538 35.7233L75.8817 35.8208L76.0909 36.5035C74.9473 37.4649 74.6544 38.5238 74.5987 38.8024C74.0408 40.9202 74.6823 42.4388 75.3239 43.3445C75.7422 43.9436 76.2025 44.3476 76.5232 44.5845C76.6348 45.4065 76.6627 46.7162 76.2583 47.4546L74.4453 46.8416C73.5806 45.7688 72.3115 45.0861 71.126 45.0861C70.3869 45.0861 68.6018 45.3647 67.8487 48.0119L67.4442 49.4191L68.8667 49.1126L68.9923 49.0847C69.0759 49.3355 69.2014 49.5863 69.4106 49.7953C68.281 50.0461 66.97 50.2411 65.5057 50.2411C65.0315 50.2411 64.5573 50.1715 64.0832 50.1018C63.4974 50.3526 62.8559 50.6034 62.1307 50.8263C62.2283 50.8263 62.312 50.8263 62.4096 50.8263C62.7025 50.8263 62.9954 50.8402 63.2603 50.8681C64.0413 50.9656 64.7805 51.105 65.4917 51.105C67.3466 51.105 68.9783 50.8263 70.3032 50.4641C70.1637 50.6452 70.0382 50.8402 69.9545 51.0632C69.7453 51.5787 69.7035 52.1638 69.829 52.7629C69.7732 52.7629 69.7314 52.7908 69.6756 52.8047C69.4246 52.8605 69.1875 52.9162 68.9923 52.9441C68.6157 53.0137 68.3926 53.0277 68.3926 53.0277C68.3926 53.0277 68.7273 53.2088 69.2014 53.5292C69.7732 53.9194 70.5403 54.5045 71.1958 55.2151C74.2779 58.6007 70.875 61.1643 70.875 61.1643H70.9029ZM79.6054 61.0807C79.6472 60.2866 79.6751 59.4506 79.452 58.6843C79.0475 57.3607 77.8481 56.6362 76.5651 56.3297C74.6544 55.8839 73.5527 55.7445 72.0604 54.3652C72.0325 54.3373 71.9907 54.3095 71.9628 54.2816L72.423 54.0029C72.6043 54.0726 72.8135 54.1144 73.0227 54.1144C73.8316 54.1144 74.5568 53.585 74.8497 53.0555C74.9194 52.9301 74.9752 52.8187 75.0171 52.6933C75.0171 52.6933 75.017 52.7072 75.031 52.7211C75.1426 52.8605 75.2541 52.9719 75.3657 53.0695L75.282 54.1283L75.1983 55.1454L76.2164 55.0758C76.8859 55.034 77.7784 54.8946 78.4618 54.3234L78.8523 54.5185C79.0057 54.6021 79.1451 54.6717 79.2846 54.7553C79.6751 55.034 80.0656 55.3962 80.4003 55.9117C80.5816 56.1764 80.7211 56.4272 80.8326 56.678C82.2273 59.6178 79.6054 61.1086 79.6054 61.1086V61.0807ZM91.376 62.2511C91.376 62.2511 89.8838 58.9351 86.188 58.6565C84.9747 58.5589 83.6498 58.3917 82.6736 57.5976C82.2552 57.2493 81.9902 56.7477 81.5718 56.1904C81.4463 55.9257 81.2929 55.6749 81.1255 55.4101C80.6932 54.7553 80.1493 54.2259 79.4799 53.8358C79.9959 53.5571 80.8884 53.167 81.9483 53.167C82.3109 53.167 82.6736 53.2088 83.064 53.3202C84.3471 53.6825 85.5744 54.1701 86.9411 54.1701C88.001 54.1701 89.1446 53.8776 90.4416 52.9859C90.4416 52.9859 90.3719 54.4767 88.7541 55.3126C88.531 55.4241 88.266 55.5355 87.9731 55.6191C87.4571 55.7724 86.8156 55.8699 86.0625 55.8699C85.7557 55.8699 85.4349 55.856 85.0863 55.8281C85.0863 55.8281 87.0387 56.4551 88.8099 57.5697C89.8838 58.2524 90.874 59.1023 91.3202 60.1054C91.6131 60.7603 91.6689 61.4708 91.3621 62.2511H91.376ZM98.391 62.8641C96.3967 62.8641 94.4442 62.1535 93.0217 60.621C92.673 60.2587 92.3662 59.9104 92.0594 59.6039C91.5852 58.6286 90.6787 57.723 89.3538 56.8731C89.0888 56.7059 88.8099 56.5387 88.5031 56.3715C88.5728 56.3436 88.6286 56.3158 88.6983 56.3018C88.8378 56.2461 88.9633 56.1904 89.0888 56.1346C90.0093 55.7724 90.7345 55.5634 91.3342 55.4659C91.3342 55.5216 91.3202 55.5634 91.3202 55.6191L91.1668 57.0681L92.5196 56.5108H92.5754C92.673 56.678 92.7846 56.8313 92.9101 56.9706C93.2588 57.3328 93.719 57.5279 94.235 57.5279C94.0677 57.7787 93.9561 58.0574 93.8864 58.3499C93.6772 59.2695 94.0258 60.2726 94.8347 61.1643L95.4205 61.8052L96.062 61.234L96.6617 60.7046C96.7454 60.7046 96.829 60.7185 96.9127 60.7185C97.7634 60.7185 98.5165 60.0497 98.7536 59.3949C98.7815 59.3113 98.8094 59.2277 98.8233 59.1441C98.907 59.2138 99.0046 59.2834 99.0883 59.3392L99.186 60.2866L99.2836 61.3037L100.274 61.0529C101.013 60.8717 102.059 60.4956 102.533 59.4924C102.756 59.0187 102.812 58.4893 102.714 57.8902C104.876 57.6394 106.577 57.0681 106.577 57.0681C105.336 60.7882 101.808 62.878 98.391 62.878V62.8641ZM22.4535 3.99867C21.1844 4.34699 19.5806 4.0126 19.5806 4.0126C20.5568 4.97396 20.8776 5.55913 20.8776 5.55913C22.1746 5.61486 22.4535 4.79283 22.4535 3.98474V3.99867ZM85.421 3.99867C85.421 4.79283 85.7138 5.62879 86.9969 5.57306C86.9969 5.57306 87.3316 4.98789 88.2939 4.02654C88.2939 4.02654 86.6901 4.34699 85.421 4.0126V3.99867ZM86.188 21.1637C86.4112 20.7875 86.6343 20.4113 86.8574 20.0351C87.22 19.4221 87.5548 18.7673 87.8476 18.0985C88.1265 17.4297 88.3636 16.761 88.5728 16.0783C88.796 15.4095 88.9912 14.7268 89.1865 14.0441C88.8796 14.685 88.5728 15.312 88.2381 15.939C87.9174 16.5659 87.5826 17.179 87.22 17.7641C86.8435 18.3493 86.439 18.8927 85.9928 19.4221C85.6023 19.8958 85.1839 20.3835 84.7794 20.8572C85.2397 20.885 85.6999 20.9826 86.188 21.1498V21.1637ZM20.0269 18.0985C20.3058 18.7673 20.6544 19.4221 21.017 20.0351C21.2402 20.4113 21.4633 20.7875 21.6865 21.1637C22.1606 20.9965 22.6348 20.899 23.095 20.8711C22.6906 20.3974 22.2722 19.9098 21.8817 19.436C21.4354 18.8927 21.031 18.3493 20.6544 17.7781C20.2918 17.1929 19.9571 16.5799 19.6364 15.9529C19.3156 15.3259 19.0088 14.685 18.688 14.058C18.8833 14.7407 19.0925 15.4095 19.3017 16.0922C19.5248 16.761 19.7479 17.4437 20.0269 18.1124V18.0985ZM19.8177 22.139C18.7438 20.5925 17.7118 19.0181 16.8471 17.3601C16.3729 16.4545 15.9545 15.521 15.6198 14.5596C15.2712 13.5983 14.9923 12.609 14.7691 11.6059C14.8807 12.6369 15.0341 13.654 15.2712 14.6711C15.5083 15.6882 15.829 16.6774 16.2056 17.6527C16.5821 18.628 17.0145 19.5754 17.4607 20.5089C17.8233 21.2473 18.1999 21.9718 18.5765 22.6963C18.9251 22.5848 19.3435 22.4037 19.8037 22.139H19.8177ZM89.2701 22.6963C89.6606 21.9718 90.0372 21.2473 90.3858 20.5089C90.8461 19.5754 91.2784 18.628 91.641 17.6527C92.0176 16.6774 92.3244 15.6742 92.5754 14.6711C92.8125 13.654 92.9799 12.6369 93.0775 11.6059C92.8543 12.609 92.5754 13.5983 92.2268 14.5596C91.8781 15.521 91.4597 16.4545 90.9995 17.3601C90.1348 19.0181 89.1028 20.5925 88.0289 22.139C88.4892 22.4037 88.9075 22.5848 89.2562 22.6963H89.2701Z" fill="white"/>
<path d="M34.4473 35.2078V38.0361C34.4473 41.0038 35.4654 43.4838 37.125 45.4762C37.125 45.4762 37.1529 45.504 37.1529 45.518C37.2087 45.5876 37.2784 45.6573 37.3342 45.727C37.3342 45.7409 37.3621 45.7548 37.376 45.7688C37.4458 45.8524 37.5155 45.922 37.5852 46.0056C37.655 46.0892 37.7386 46.1589 37.8084 46.2425C37.8084 46.2425 37.8084 46.2425 37.8223 46.2564C37.92 46.3121 38.0036 46.3818 38.0873 46.4515C38.2547 46.5908 38.422 46.758 38.5615 46.953C39.6353 47.9005 40.8905 48.6946 42.2433 49.3634C42.3967 49.447 42.5501 49.5306 42.7175 49.6002C44.9489 50.7148 48.2123 51.927 53.9163 51.927C59.6204 51.927 62.8838 50.7148 65.1152 49.6002C65.2826 49.5166 65.436 49.433 65.5894 49.3634C66.9282 48.7085 68.1555 47.9144 69.2294 46.9948C69.2573 46.953 69.2851 46.9112 69.313 46.8694C69.313 46.8555 69.3409 46.8416 69.3549 46.8137C69.3688 46.7998 69.3828 46.7719 69.4107 46.758C69.4246 46.7301 69.4525 46.7162 69.4664 46.6883C69.4664 46.6883 69.4804 46.6604 69.4943 46.6604C69.5222 46.6326 69.5501 46.6047 69.578 46.5769C69.578 46.5769 69.578 46.5769 69.592 46.5629C69.6199 46.5351 69.6477 46.5072 69.6756 46.4793C69.7035 46.4515 69.7454 46.4236 69.7733 46.3957C69.843 46.34 69.9127 46.2982 69.9825 46.2564C69.9825 46.2564 70.0103 46.2425 70.0243 46.2285C72.1023 44.1108 73.3993 41.366 73.3993 38.0083L72.5346 38.5656C72.4091 41.2406 71.391 43.5813 69.4804 45.5598C69.4107 45.6016 69.3409 45.6573 69.2712 45.6991L69.2572 45.713C69.2154 45.7409 69.1736 45.7827 69.1317 45.8106C69.1317 45.8106 69.1317 45.8106 69.1178 45.8245C69.0759 45.8524 69.0481 45.8942 69.0062 45.936C69.0062 45.936 68.9923 45.9499 68.9783 45.9638C68.9504 45.9917 68.9086 46.0335 68.8807 46.0613C68.8807 46.0613 68.8528 46.0892 68.8389 46.1031C68.8389 46.1031 68.7831 46.1589 68.7552 46.2007C68.7412 46.2285 68.7133 46.2425 68.6994 46.2703V46.2982C68.6854 46.3121 68.6715 46.34 68.6576 46.3539C68.6436 46.3679 68.6297 46.3957 68.6157 46.4097C67.6813 47.2038 66.6075 47.9144 65.422 48.5135H65.4081L65.2268 48.611C65.0594 48.6946 64.906 48.7782 64.7665 48.8479C62.6746 49.8928 59.5646 51.0771 53.9582 51.0771C48.3518 51.0771 45.2418 49.8789 43.1498 48.8479C43.0103 48.7782 42.8709 48.7085 42.6896 48.611L42.4943 48.5135C41.281 47.9005 40.1932 47.1899 39.2449 46.3818C39.0775 46.1589 38.8822 45.9638 38.6731 45.7966C38.5754 45.713 38.4917 45.6573 38.4081 45.6016L38.3383 45.5319C38.3383 45.5319 38.2826 45.4622 38.2407 45.4344C38.171 45.3647 38.1152 45.2951 38.0455 45.2254L38.0176 45.1975C37.9618 45.1139 37.906 45.0443 37.8502 44.9885L37.8363 44.9467C36.1906 42.9683 35.3538 40.6555 35.3538 38.0501V36.6707L34.5031 35.2217L34.4473 35.2078Z" fill="white"/>
<path d="M70.0521 46.2564C72.1301 44.1386 73.4271 41.3939 73.4271 38.0361V36.5175H72.5764V38.0361C72.5764 40.3907 71.8791 42.5364 70.5263 44.3894L70.0521 46.2564Z" fill="white"/>
<path d="M34.4473 16.3151V26.1655C34.7541 26.2213 35.047 26.3467 35.2981 26.5556V16.4823L34.4473 16.3012V16.3151Z" fill="white"/>
<path d="M38.0454 13.8072L38.3383 12.832L37.8223 11.8149H70.0521L69.5361 13.8072H70.8052V15.1726H72.4927L73.0087 17.1511V26.1655H71.7396L70.4566 26.7646L71.3212 27.8514L71.2794 29.1053L70.6239 29.4536L69.0619 29.9691L68.3786 31.0977L68.4204 32.6163L69.313 32.2262L69.8848 32.8392L71.0005 33.4802L70.7076 34.5669L71.0005 35.7372L71.7396 36.5175L73.0087 36.8937V39.1507L72.4927 41.38L71.0981 44.1804L70.0521 45.7409L69.4106 45.6712L37.8223 14.1416L38.0454 13.8072Z" fill="white"/>
</svg>
