<svg width="32" height="32" viewBox="0 0 32 32" fill="none" xmlns="http://www.w3.org/2000/svg">
<path d="M30.7904 0H0V21.0034C0 23.3127 0.769759 25.512 2.08935 26.8316C3.40893 28.1512 4.39863 29.1409 6.48797 30.1306C8.24742 30.9003 10.7766 32 15.2852 32C19.7938 32 22.323 31.0103 24.0825 30.1306C25.9519 29.2509 26.9416 28.3711 27.9313 27.4914C29.5808 26.0619 30.5704 23.6426 30.5704 21.0034L30.7904 0ZM27.6014 27.0515L1.20962 0.659794H30.1306V21.0034C30.1306 22.8729 29.5808 24.5223 28.4811 25.9519C28.1512 26.3918 27.9313 26.7216 27.6014 27.0515Z" fill="white"/>
</svg>
