<svg width="108" height="64" viewBox="0 0 108 64" fill="none" xmlns="http://www.w3.org/2000/svg">
<g clip-path="url(#clip0_900_7360)">
<path d="M65.67 49.4268C67.0085 48.7715 68.2355 47.9768 69.309 47.0565C69.5461 46.7219 69.811 46.4709 70.1177 46.3036C72.1952 44.1843 73.4918 41.4376 73.4918 38.0775C73.4918 38.0775 73.4918 35.6793 73.4918 35.0798C73.4082 35.1077 73.3245 35.1216 73.2269 35.1216C73.1293 35.1216 73.0317 35.1077 72.9341 35.0798L72.7111 36.3486C70.6475 35.9582 70.8706 33.9086 72.2649 33.2115C73.0596 32.8071 73.3106 32.5143 73.0736 32.2076C73.0039 32.1239 72.9202 32.0821 72.8226 32.0821C72.5298 32.0821 72.0976 32.4028 71.6793 32.7095C71.498 32.8489 71.261 32.9187 71.01 32.9187C70.4663 32.9187 69.8807 32.5701 69.6297 31.7475L68.9047 32.1518C68.7792 30.6042 69.7413 29.8373 70.7173 29.8373C71.1774 29.8373 71.6514 30.0046 72.0139 30.3393C72.1534 30.4647 72.2928 30.5205 72.4322 30.5205C72.8784 30.5205 73.1851 29.9628 72.5856 29.6421C72.0139 29.3354 71.4702 28.3873 72 27.7878L71.1355 26.9791C71.5259 26.7421 71.9442 26.6305 72.3346 26.6305C72.7529 26.6305 73.1572 26.7699 73.4918 27.0488V16.1177C73.2269 16.062 72.9202 15.797 72.9202 15.4206C72.9202 15.0023 73.1712 14.7513 73.4918 14.6259V13.7196C72.8365 13.859 72.3485 14.2634 72.1533 14.8211L71.2331 14.835C71.1913 14.1379 71.5259 13.5105 72.237 13.2734V12.3672C71.6375 12.4926 71.2471 12.7854 71.01 13.0503C70.9403 13.1201 70.8846 13.2037 70.8148 13.2874L70.1177 13.3013C70.0898 12.6321 70.4245 12.0325 71.0519 11.8234V11.4051H68.5004H39.4996H36.9481V11.8234C37.5894 12.0325 37.9241 12.6321 37.8822 13.3013L37.1851 13.2874C37.1293 13.2037 37.0596 13.134 36.9899 13.0503C36.7529 12.7994 36.3485 12.5066 35.763 12.3672V13.2734C36.4601 13.5105 36.7947 14.1379 36.7668 14.835L35.8466 14.8211C35.6514 14.2634 35.1634 13.873 34.5081 13.7196V14.6259C34.8288 14.7513 35.0658 15.0023 35.0658 15.4206C35.0658 15.7831 34.773 16.062 34.5081 16.1177V27.0348C34.8427 26.756 35.2331 26.6305 35.6514 26.6305C36.0557 26.6305 36.474 26.756 36.8505 26.9791L35.986 27.7878C36.5019 28.4012 35.9581 29.3354 35.4004 29.6421C34.8009 29.9628 35.1216 30.5205 35.5538 30.5205C35.6932 30.5205 35.8327 30.4647 35.9721 30.3393C36.3346 30.0046 36.8087 29.8373 37.2688 29.8373C38.2447 29.8373 39.2068 30.5902 39.0813 32.1518L38.3284 31.7335C38.0774 32.5562 37.4918 32.9047 36.9481 32.9047C36.6971 32.9047 36.4601 32.835 36.2788 32.6956C35.8606 32.3888 35.4283 32.0682 35.1355 32.0682C35.0379 32.0682 34.9403 32.11 34.8846 32.1936C34.6615 32.5004 34.8985 32.8071 35.6932 33.1975C37.1015 33.8946 37.3245 35.9442 35.2471 36.3346L35.024 35.0658C34.9264 35.0937 34.8288 35.1077 34.7312 35.1077C34.6475 35.1077 34.5639 35.0937 34.4802 35.0798V38.0775C34.4802 41.4516 35.7908 44.1983 37.8822 46.3176C38.1472 46.4709 38.3981 46.708 38.6212 47.0147C39.6948 47.9628 40.9496 48.7575 42.3021 49.4268H65.67Z" fill="white"/>
<path d="M74.0635 1.93804C74.0635 1.78467 74.0496 1.64524 74.0356 1.49187H71.9303C71.9163 2.69094 71.6096 3.84819 71.0798 4.75446C70.7173 5.36794 70.285 5.82805 69.797 6.1069H69.9504C72.2231 6.12084 74.0635 4.25252 74.0635 1.93804ZM71.9303 9.9272C71.763 9.89931 71.6096 9.88537 71.4423 9.88537C71.3168 9.88537 71.1913 9.89931 71.0658 9.91325C70.6754 9.95508 70.285 10.0806 69.9783 10.3036C69.6297 10.5546 69.3788 10.9729 69.3648 11.4191H70.0201C70.3129 11.182 70.6615 11.0147 71.0379 10.9311V11.8373C70.3966 12.0465 70.062 12.646 70.1038 13.3153L70.8009 13.3013C70.8567 13.2177 70.9264 13.148 70.9961 13.0643C71.2331 12.8133 71.6375 12.5205 72.2231 12.3811V13.2874C71.5259 13.5244 71.1913 14.1518 71.2192 14.849L72.1394 14.835C72.3486 14.2494 72.8644 13.8451 73.5616 13.7196V14.6119C73.1991 14.7235 72.9063 14.9744 72.9063 15.4346C72.9063 15.8389 73.2688 16.1317 73.5616 16.1317L73.5337 16.8985C73.5337 16.8985 73.5337 16.8985 73.5476 16.8985C73.7428 16.8985 73.9101 16.8428 74.0914 16.7591C74.663 16.4524 74.8861 15.7831 74.8722 15.1696L75.7087 14.7653C75.7087 14.7932 75.7227 14.8211 75.7227 14.8629C75.7924 15.3788 75.7227 15.8807 75.5554 16.3129L77.1309 17.8048C77.4376 17.0519 77.842 16.3408 78.33 15.6855C78.5112 15.4624 78.6925 15.2394 78.8877 15.0442C78.2045 14.5283 77.3679 13.8869 77.0891 13.6778C76.2107 13.0225 75.402 12.2975 74.5654 11.5864C74.0496 11.1542 73.5197 10.7219 72.962 10.3455C72.6414 10.1363 72.2928 9.99691 71.9303 9.9272ZM86.5562 37.6034C86.6816 37.6731 86.8071 37.701 86.9326 37.701C87.2393 37.701 87.5321 37.5337 87.6994 37.2688C87.6716 37.1154 87.6158 36.9481 87.574 36.7947C87.4345 36.3765 87.2254 35.9721 86.9326 35.5817C86.5561 35.0798 86.0542 34.6197 85.385 34.2432C85.2874 34.1875 85.1758 34.1177 85.0503 34.048C85.4965 34.5918 85.7614 34.9822 85.9287 35.3168C86.11 35.6514 86.1936 35.9164 86.3191 36.1673C86.2773 36.2091 86.2494 36.251 86.2215 36.2928C85.9148 36.7529 86.096 37.3664 86.5562 37.6034ZM22.0434 35.3029C22.2107 34.9822 22.4756 34.5779 22.9218 34.0341C22.8102 34.1038 22.6847 34.1735 22.5871 34.2293C21.9179 34.6057 21.4159 35.0658 21.0395 35.5678C20.7467 35.9582 20.5515 36.3765 20.3981 36.7808C20.3424 36.9342 20.3005 37.1015 20.2726 37.2548C20.44 37.5198 20.7327 37.6871 21.0395 37.6871C21.165 37.6871 21.2905 37.6592 21.4159 37.5895C21.8761 37.3524 22.0573 36.739 21.7366 36.2649C21.7087 36.2231 21.6809 36.1813 21.639 36.1394C21.7785 35.9024 21.8621 35.6375 22.0434 35.3029ZM79.8079 10.5686C79.9752 10.5686 80.1565 10.5546 80.3377 10.5407C79.794 10.3455 79.3617 10.0248 79.0829 9.57863C78.6925 8.97909 78.6367 8.33773 78.7901 7.76608C78.7622 7.76608 78.7343 7.78002 78.7064 7.78002C78.0511 7.91945 77.7165 8.42139 77.842 9.09063C78.0232 10.0945 78.6506 10.5686 79.8079 10.5686ZM87.7692 38.7467C87.7831 38.6073 87.7971 38.4679 87.7971 38.3145C87.5321 38.4679 87.2254 38.5515 86.9187 38.5515C86.6398 38.5515 86.3888 38.4818 86.1379 38.3563C85.6499 38.1054 85.3153 37.6452 85.2177 37.1015C85.1479 36.7529 85.1898 36.3904 85.3292 36.0697C85.3292 36.0697 85.3292 36.0558 85.3153 36.0558C84.9388 35.9861 84.5205 35.9303 84.0604 35.8745C83.2936 35.7909 82.5964 35.749 81.9551 35.749C75.9597 35.749 75.4717 39.0395 75.4717 39.0395C74.5376 42.5391 77.34 44.1146 77.34 44.1146C77.34 44.1146 77.9814 47.3075 76.5592 48.5205L75.0813 48.0186L74.3424 47.7676L73.9241 47.6282C73.2548 46.6801 72.1673 46.0108 71.1356 46.0108C70.1317 46.0108 69.1696 46.6522 68.6956 48.3114L69.7413 48.0883C69.7413 49.1619 70.0898 49.4408 70.6336 49.4408C70.7452 49.4408 70.8706 49.4268 70.9961 49.4129C71.1495 49.385 71.3029 49.3571 71.4702 49.3292C71.9861 49.2316 72.3625 49.1201 72.6274 49.1201C72.8784 49.1201 73.0457 49.2177 73.1433 49.4826C73.2827 49.8869 72.8923 50.1379 72.3904 50.2634C71.1634 50.5422 70.4663 51.4067 70.6894 52.5639C70.7452 52.8288 70.8288 53.0937 70.9822 53.3865C71.0379 53.512 71.1077 53.6236 71.1913 53.749C71.1913 53.749 71.2053 53.749 71.2053 53.763L72.4183 53.024C72.5995 53.2053 72.8087 53.275 73.0178 53.275C73.4779 53.275 73.9241 52.9404 74.0914 52.6476C74.1053 52.6197 74.1193 52.5918 74.1332 52.5639C74.2726 52.2851 74.2866 51.9644 74.2866 51.6716C74.2866 51.5043 74.2727 51.337 74.2727 51.1836C74.2727 51.0023 74.2727 50.849 74.3145 50.7374C74.3842 50.5143 74.5654 50.361 74.7606 50.2773C74.8304 50.2494 74.914 50.2355 74.9837 50.2355C75.1092 50.2355 75.2347 50.2773 75.3462 50.361C75.639 50.5701 75.639 50.8908 75.5972 51.2115C75.5554 51.5461 75.4996 51.8528 75.6809 52.1317C75.6948 52.1596 75.7087 52.1735 75.7227 52.2014C75.7924 52.2851 75.8761 52.3687 75.9597 52.4384C76.0155 52.4803 76.2665 52.6615 76.2665 52.7312L76.141 54.2091C76.9218 54.1534 77.7862 53.9861 78.2045 53.275C78.2881 53.1356 78.3579 52.9543 78.3997 52.7731C78.5531 52.2293 78.6228 51.56 78.7064 50.6259C79.055 50.4865 79.3617 50.3052 79.6266 50.0682C79.9613 49.7754 80.2262 49.4129 80.3795 48.9528C80.7978 47.6979 81.1603 45.1882 80.6026 42.5391C80.6026 42.5391 86.2215 41.842 87.4345 41.2285C87.5461 40.378 87.6576 39.5275 87.7692 38.7467ZM82.8195 6.3997C82.8195 6.3997 82.0527 6.85981 82.206 7.58482C82.457 8.11465 82.7777 8.65841 83.182 9.13246L83.9628 8.35167C84.883 7.50117 85.6917 7.19443 86.361 7.19443C87.2393 7.19443 87.8528 7.75214 88.1038 8.3935C88.4942 9.36949 88.4524 10.1503 88.3129 10.6522C88.2014 11.0287 87.8946 11.3354 87.1975 11.3912C87.072 11.4051 86.9326 11.4051 86.7932 11.4051C85.3571 11.4051 83.4748 10.8892 83.4748 10.8892C83.182 12.4508 83.0008 12.7576 85.2316 12.7576C85.7475 12.7576 86.3888 12.7436 87.1836 12.7157L84.9527 13.7335C84.7018 13.7196 84.4648 13.7057 84.2277 13.7057C82.5825 13.7057 81.2719 14.1937 80.2401 14.9884C80.0031 15.1696 79.78 15.3648 79.5709 15.574C78.7761 16.3827 78.2045 17.3865 77.8001 18.4462C77.6886 18.7529 77.591 19.0597 77.5074 19.3664C77.0751 20.9837 77.0194 22.6708 77.2424 24.0232C77.4098 23.8141 77.5771 23.6189 77.7723 23.4237L77.8699 23.3261C78.5391 22.6708 79.6685 21.5414 81.0209 20.8443C81.5228 20.3981 81.9969 19.952 82.457 19.464C83.4469 18.4183 84.3253 17.261 84.9806 15.9504C84.5763 17.3586 83.8931 18.7111 83.0844 19.952C82.7637 20.44 82.4291 20.914 82.0806 21.3741C81.7738 21.4996 81.495 21.639 81.2161 21.8064C80.031 22.4756 79.0271 23.5074 78.4415 24.093C78.0929 24.4276 77.8141 24.804 77.5492 25.1944C77.34 25.5012 77.1588 25.8079 76.9636 26.1286C76.8242 26.3656 76.6708 26.6166 76.5314 26.8536C75.9039 27.8714 75.0674 28.8753 74.5933 28.8753C74.426 28.8753 74.3005 28.7498 74.2448 28.471C73.9938 27.2022 73.1991 26.6445 72.3346 26.6445C71.9303 26.6445 71.512 26.77 71.1356 26.993L72 27.8017C71.4841 28.4152 72.0279 29.3493 72.5856 29.6561C73.1851 29.9768 72.8644 30.5345 72.4322 30.5345C72.2928 30.5345 72.1534 30.4787 72.0139 30.3532C71.6514 30.0186 71.1774 29.8513 70.7173 29.8513C69.7413 29.8513 68.7792 30.6042 68.9047 32.1658L69.6576 31.7475C69.9086 32.5701 70.4942 32.9187 71.0379 32.9187C71.2889 32.9187 71.5259 32.849 71.7072 32.7095C72.1255 32.4028 72.5577 32.0821 72.8505 32.0821C72.9481 32.0821 73.0457 32.1239 73.1015 32.2076C73.3245 32.5143 73.0875 32.8211 72.2928 33.2115C70.8846 33.9086 70.6615 35.9582 72.739 36.3486L72.962 35.0798C73.0596 35.1077 73.1572 35.1216 73.2548 35.1216C73.8544 35.1216 74.2726 34.5918 74.3424 34.2014C74.44 33.6298 74.4121 33.2812 74.44 32.9187C74.4539 32.598 74.663 32.4586 74.8722 32.4586C75.1232 32.4586 75.3741 32.6398 75.402 32.9605C75.4438 33.56 75.4299 34.3408 76.4895 34.5221L76.8242 35.5957C77.828 35.2471 78.8319 34.0899 77.0054 32.1379C76.9775 31.148 78.0232 30.5763 79.4872 29.7537C79.7382 29.6143 80.0031 29.4609 80.268 29.3075C80.4074 29.2239 80.5469 29.1402 80.6863 29.0566C80.9791 28.8753 82.1084 28.0527 83.0984 27.2022L83.9628 27.6623C83.7816 27.8157 83.5864 27.983 83.3633 28.1782C82.4709 28.9171 81.5089 29.6421 81.1464 29.8513C81.0767 29.8931 81.007 29.9349 80.9373 29.9768C81.8854 30.8552 82.9032 31.622 83.8234 32.2355C84.1998 32.4865 84.5623 32.7235 84.897 32.9326C85.2316 33.1418 85.5523 33.323 85.8172 33.4764C86.5562 33.8947 87.1417 34.4105 87.5879 34.9961C87.8807 35.3726 88.1038 35.7769 88.2711 36.1813C88.4384 36.5717 88.55 36.976 88.6057 37.3803C88.6336 37.5198 88.6476 37.6452 88.6615 37.7847C88.6894 38.1611 88.6754 38.5236 88.6336 38.8722C88.5778 39.2486 88.536 39.6251 88.4802 40.0016C88.4105 40.5732 88.3548 41.1309 88.3129 41.7026C88.2572 42.3718 88.2293 43.0271 88.2293 43.6824C88.2293 45.6902 88.536 47.1263 89.9303 48.4926C90.9342 49.4826 92.3424 49.7196 93.7087 49.8172C94.4198 49.859 96.4136 50.1518 97.7661 50.361C98.5469 50.4725 99.1324 51.1278 99.1743 51.9225C99.23 52.9961 99.2161 54.4043 98.8396 54.8784L96.9992 54.6274C96.567 53.9861 95.5352 53.4841 94.5314 53.4841C93.7506 53.4841 92.9837 53.7909 92.5515 54.5995C92.426 54.8366 92.3145 55.1154 92.2587 55.45C92.2448 55.5476 92.2308 55.6452 92.2169 55.7568L92.8025 55.5198L93.1371 55.3803C93.151 55.464 93.165 55.5337 93.1789 55.6034C93.3741 56.4121 93.7924 56.7049 94.2943 56.7049C94.5314 56.7049 94.7823 56.6352 95.0472 56.5376C95.0751 56.5236 95.103 56.5097 95.1448 56.4957C95.6189 56.3005 95.9535 56.1472 96.2045 56.1472C96.3718 56.1472 96.4973 56.2169 96.6088 56.4121C96.7622 56.677 96.6088 56.9001 96.3439 57.0813C96.2603 57.1371 96.1487 57.1929 96.0511 57.2347C94.6429 57.8203 94.2386 59.1867 95.5352 60.6088L96.5112 59.7444C96.6646 59.842 96.818 59.8838 96.9574 59.8838C97.4314 59.8838 97.8637 59.4516 97.9752 59.1309C98.1565 58.6429 97.9613 58.0852 97.8916 57.6809C97.8776 57.5693 97.8637 57.4578 97.8776 57.3741C97.9055 57.1511 98.0589 56.9698 98.2401 56.8722C98.3238 56.8304 98.4074 56.8025 98.505 56.8025C98.5887 56.8025 98.6723 56.8164 98.756 56.8583C98.8396 56.9001 98.9094 56.9559 98.9651 57.0256C99.0906 57.1789 99.1185 57.3881 99.1185 57.5972C99.1185 57.7088 99.1185 57.8342 99.1325 57.9458C99.1603 58.141 99.2161 58.3222 99.3834 58.4756C99.4671 58.5453 99.5507 58.6011 99.6344 58.6569C99.6902 58.6847 99.9551 58.8102 99.969 58.866L100.094 60.2324C101.07 59.9954 102.144 59.5213 101.879 58.0016C101.837 57.7506 101.754 57.4578 101.614 57.1371C101.572 57.0256 101.517 56.9001 101.447 56.7746C102.297 56.3563 102.855 55.5616 102.995 54.6274C103.12 53.7769 102.981 50.7514 102.883 49.0225C102.841 48.3253 102.311 47.7537 101.628 47.6561C100.847 47.5445 99.8435 47.3912 99.1046 47.2378C97.9334 46.9868 96.804 46.471 96.5391 45.6344C96.316 44.9094 96.4415 44.8257 96.5112 44.0868C96.567 43.5151 96.6367 42.9295 96.6786 42.3579C96.6786 42.2742 96.6925 42.1766 96.6925 42.093C96.7064 41.7583 96.6925 41.4098 96.6507 41.0751C96.7204 41.117 96.7901 41.1588 96.8598 41.2006C97.0829 41.3261 97.3199 41.4098 97.5569 41.4795C97.8218 41.5492 98.0867 41.5771 98.3656 41.5771C98.9512 41.5771 99.5228 41.4237 100.039 41.103C100.973 40.5314 101.517 39.5414 101.489 38.4539C101.447 36.5159 100.345 35.1495 99.2858 33.8249C98.7839 33.1975 98.2541 32.5422 97.8637 31.8451C96.6228 29.6143 96.33 27.1882 96.9992 24.6367C97.292 23.5213 97.9613 22.5174 98.6723 21.4438C98.9372 21.0395 99.1882 20.6631 99.4392 20.2448C99.4392 20.2448 99.9969 20.4957 100.359 20.4121C100.457 20.3842 100.555 20.3424 100.666 20.2727C101.517 19.7428 102.423 17.5817 102.381 14.9884C102.353 12.9249 101.865 11.2099 100.903 9.80171C101.112 10.3873 101.294 11.0008 101.405 11.6143C101.531 12.2835 101.572 12.9806 101.531 13.6499C101.489 14.3331 101.349 14.9884 101.126 15.6019C101.224 14.9466 101.224 14.2913 101.14 13.6499C101.057 13.0085 100.889 12.395 100.652 11.8095C100.443 11.2936 100.192 10.7916 99.8993 10.3176C100.094 11.5167 100.094 12.7297 99.7738 14.2355C99.5786 15.1696 99.1743 16.062 98.8257 16.8428C98.505 17.5538 98.268 18.1255 98.1704 18.5995C98.0589 19.1154 98.1286 19.5058 98.4771 19.8265C98.4214 19.9241 98.3517 20.0217 98.2959 20.1193C98.1425 20.3563 97.9752 20.6073 97.8079 20.8583C97.0829 21.9597 96.33 23.0891 95.9953 24.3718C95.2703 27.1603 95.605 29.921 96.9574 32.361C97.3896 33.1418 97.9473 33.8249 98.4771 34.4942C99.4671 35.7351 100.415 36.9063 100.457 38.4957C100.471 39.2208 100.122 39.8482 99.5089 40.2246C98.8675 40.615 98.1007 40.6429 97.4454 40.3222C97.4314 40.3083 97.4036 40.3083 97.3896 40.2943C96.8877 40.0294 96.4415 39.5275 96.1766 38.9419C96.1627 38.914 96.1627 38.8861 96.1487 38.8583C95.828 37.9241 95.4376 37.0039 94.9915 36.1255C93.6809 33.5043 92.0496 31.0504 91.0178 28.2897C90.1255 25.9194 90.5298 23.0333 90.5298 23.0333C91.4361 23.3958 92.7606 23.4377 92.7606 23.4377C92.7188 20.4818 99.0627 13.622 95.2006 5.2564C94.9357 5.68862 94.5871 6.13479 94.0991 6.59489L93.7506 6.92952V5.71651C95.7723 3.6251 94.8381 1.6313 94.0852 0.962051C93.5136 1.17119 92.8582 1.79861 92.3702 2.56546L91.5197 2.28661C91.7289 1.93804 91.9659 1.60341 92.2308 1.29668C92.1472 1.24091 92.0635 1.19908 91.9659 1.18513C91.9241 1.18513 91.8683 1.17119 91.7986 1.17119C90.5298 1.17119 85.7614 2.27266 85.2874 2.52363L84.9109 3.80636C83.6142 4.15493 82.4152 4.85206 81.5647 5.31217C81.6344 5.67468 82.0248 6.4973 82.8195 6.3997ZM92.2866 14.5841C92.6352 13.622 92.914 12.6321 93.1371 11.6282C93.0256 12.66 92.8722 13.6778 92.6352 14.6956C92.3981 15.7134 92.0775 16.7033 91.701 17.6793C91.3245 18.6553 90.8923 19.6034 90.4462 20.5376C90.0836 21.2765 89.7072 22.0016 89.3307 22.7266C88.9822 22.615 88.5639 22.4338 88.1038 22.1689C89.1774 20.6212 90.2091 19.0457 91.0736 17.3865C91.5337 16.4803 91.952 15.5461 92.2866 14.5841ZM88.6197 16.1038C88.3966 16.7731 88.1735 17.4562 87.8946 18.1255C87.6158 18.7947 87.2672 19.45 86.9047 20.0635C86.6816 20.44 86.4585 20.8164 86.2355 21.1929C85.7614 21.0256 85.2874 20.928 84.8273 20.9001C85.2316 20.426 85.6499 19.938 86.0403 19.464C86.4864 18.9202 86.8908 18.3765 87.2672 17.8048C87.6297 17.2192 87.9644 16.6057 88.285 15.9783C88.6057 15.3509 88.9125 14.7095 89.2331 14.0821C89.0379 14.7514 88.8288 15.4346 88.6197 16.1038ZM88.3408 4.04338C87.3648 5.00543 87.0441 5.59102 87.0441 5.59102C85.7475 5.64679 85.4686 4.82417 85.4686 4.0155C86.7374 4.36407 88.3408 4.04338 88.3408 4.04338ZM71.0519 6.99923H36.976V9.03486C37.4361 9.07669 38.0217 9.23006 38.5376 9.59257C39.1231 10.0248 39.4857 10.694 39.4996 11.3772V11.4051H68.4864V11.3772C68.5004 10.694 68.8629 10.0248 69.4485 9.59257C69.9783 9.20218 70.5918 9.06275 71.0519 9.02092V6.99923ZM44.1146 10.6662L41.3121 9.27189L44.1146 7.87762L46.9171 9.27189L44.1146 10.6662ZM54 10.5128C52.6336 10.5128 51.5182 9.95508 51.5182 9.27189C51.5182 8.5887 52.6336 8.03099 54 8.03099C55.3664 8.03099 56.4818 8.5887 56.4818 9.27189C56.4818 9.95508 55.3664 10.5128 54 10.5128ZM63.8853 10.6662L61.0829 9.27189L63.8853 7.87762L66.6878 9.27189L63.8853 10.6662ZM34.787 49.4826C34.8846 49.2177 35.0519 49.1201 35.3029 49.1201C35.5678 49.1201 35.9442 49.2177 36.4601 49.3292C36.6274 49.3571 36.7808 49.385 36.9341 49.4129C37.0596 49.4268 37.1851 49.4408 37.2967 49.4408C37.8404 49.4408 38.189 49.1758 38.189 48.0883L39.2347 48.3114C38.7606 46.6522 37.7986 46.0108 36.7947 46.0108C35.763 46.0108 34.6754 46.694 34.0062 47.6282L33.5879 47.7676L32.8768 48.0465L31.3989 48.5484C29.9628 47.3354 30.6181 44.1425 30.6181 44.1425C30.6181 44.1425 33.4206 42.567 32.4864 39.0674C32.4864 39.0674 31.9984 35.7769 26.0031 35.7769C25.3617 35.7769 24.6646 35.8188 23.8977 35.9024C23.4376 35.9582 23.0194 36.0139 22.6429 36.0837C22.6429 36.0837 22.6429 36.0976 22.629 36.0976C22.7684 36.4183 22.8102 36.7808 22.7405 37.1294C22.6429 37.6731 22.3083 38.1332 21.8203 38.3842C21.5833 38.5097 21.3183 38.5794 21.0395 38.5794C20.7327 38.5794 20.44 38.4957 20.1611 38.3424C20.1611 38.4957 20.175 38.6352 20.189 38.7746C20.3005 39.5554 20.4121 40.392 20.4818 41.2703C21.6948 41.8838 27.3137 42.581 27.3137 42.581C26.7699 45.2301 27.1185 47.7397 27.5368 48.9946C27.6901 49.4547 27.9551 49.8172 28.2897 50.11C28.5546 50.347 28.8613 50.5283 29.2099 50.6677C29.2796 51.5879 29.3493 52.2711 29.5166 52.8149C29.5585 53.0101 29.6282 53.1774 29.7118 53.3168C30.1301 54.0279 30.9946 54.1952 31.7754 54.251L31.6499 52.7731C31.6499 52.7033 31.9148 52.5221 31.9566 52.4803C32.0403 52.4105 32.1239 52.3269 32.1936 52.2432C32.2076 52.2153 32.2215 52.2014 32.2355 52.1735C32.4167 51.8807 32.3609 51.574 32.3191 51.2533C32.2773 50.9326 32.2773 50.6119 32.5701 50.4028C32.6816 50.3191 32.8071 50.2773 32.9326 50.2773C33.0163 50.2773 33.086 50.2913 33.1557 50.3191C33.3509 50.3889 33.5321 50.5562 33.6018 50.7792C33.6437 50.8908 33.6437 51.0442 33.6437 51.2254C33.6437 51.3788 33.6297 51.5461 33.6297 51.7134C33.6297 52.0062 33.6576 52.3269 33.7831 52.6057C33.797 52.6336 33.811 52.6615 33.8249 52.6894C33.9922 52.9682 34.4384 53.3168 34.8985 53.3168C35.1077 53.3168 35.3168 53.2471 35.4981 53.0658L36.7111 53.8048C36.7111 53.8048 36.725 53.8048 36.725 53.7909C36.8087 53.6654 36.8644 53.5399 36.9341 53.4284C37.0736 53.1356 37.1712 52.8707 37.2269 52.6057C37.45 51.4346 36.7529 50.584 35.5259 50.3052C35.0519 50.1518 34.6475 49.9009 34.787 49.4826ZM80.4353 55.938C80.1007 55.4222 79.6964 55.0597 79.3199 54.7808C79.1805 54.6971 79.041 54.6274 78.8877 54.5438L78.4973 54.3486C77.828 54.9202 76.9218 55.0596 76.2525 55.1015L75.2347 55.1712L75.3184 54.1534L75.402 53.0937C75.2905 52.9961 75.1789 52.8846 75.0674 52.7452C75.0674 52.7312 75.0534 52.7312 75.0534 52.7173C75.0116 52.8428 74.9558 52.9683 74.8861 53.0798C74.5794 53.6096 73.8544 54.1394 73.0596 54.1394C72.8505 54.1394 72.6553 54.0976 72.4601 54.0279L72 54.3067C72.0279 54.3346 72.0697 54.3625 72.0976 54.3904C73.5895 55.7707 74.7049 55.9241 76.6011 56.3563C77.8838 56.6491 79.0829 57.3881 79.4872 58.7126C79.7242 59.4795 79.6824 60.316 79.6406 61.1108C79.6406 61.1108 82.2618 59.6189 80.8675 56.677C80.756 56.4679 80.6026 56.2029 80.4353 55.938ZM62.5469 54.9202C61.7242 54.0837 60.8458 53.3726 59.9675 52.9543C59.2424 52.6057 58.5174 52.3687 57.8342 52.2153C57.3881 52.1177 56.9558 52.048 56.5515 52.0062C56.3145 51.9783 56.0914 51.9644 55.8683 51.9504C55.2827 51.9783 54.6553 51.9923 54 51.9923C53.3447 51.9923 52.7173 51.9783 52.1317 51.9504C51.9086 51.9644 51.6855 51.9783 51.4345 52.0062C51.0302 52.048 50.598 52.1177 50.1518 52.2153C49.4686 52.3687 48.7436 52.6057 48.0186 52.9543C47.1402 53.3865 46.2618 54.0837 45.4392 54.9202C45.3834 54.976 45.3416 55.0178 45.2998 55.0736C43.5151 57.0116 43.9891 58.9078 43.9891 58.9078C43.9891 58.9078 46.2757 55.8683 49.6917 55.8683C51.323 55.8683 52.7312 56.4121 53.4562 56.7746L53.986 57.0535L54.5159 56.7746C55.2409 56.426 56.6491 55.8683 58.2804 55.8683C61.6964 55.8683 63.9829 58.9078 63.9829 58.9078C63.9829 58.9078 64.4709 57.0116 62.6723 55.0736C62.6445 55.0318 62.6026 54.976 62.5469 54.9202ZM44.8118 54.3067C46.1642 52.9404 47.6561 52.0759 49.0085 51.6158C47.7816 51.4206 46.7359 51.1696 45.8017 50.8768C45.7041 50.8768 45.6065 50.8629 45.5089 50.8629C45.2161 50.8629 44.9233 50.8768 44.6584 50.9047C43.8776 51.0023 43.1386 51.1418 42.4276 51.1418C40.5732 51.1418 38.9419 50.8629 37.6173 50.5004C37.7568 50.6816 37.8822 50.8768 37.9659 51.0999C38.175 51.6158 38.2169 52.2014 38.0914 52.8009C38.1472 52.8149 38.189 52.8288 38.2448 52.8428C38.4957 52.8985 38.7328 52.9543 38.928 52.9822C39.3044 53.0519 39.5275 53.0658 39.5275 53.0658C39.5275 53.0658 39.1929 53.2471 38.7188 53.5678C38.1472 53.9582 37.3803 54.5438 36.725 55.2548C33.6437 58.6429 37.0457 61.2084 37.0457 61.2084C37.0457 61.2084 36.2928 57.8761 37.8962 56.8164C40.4616 55.1433 41.828 56.5794 44.7002 54.3904C44.7421 54.3904 44.7699 54.3486 44.8118 54.3067ZM35.986 54.3346L35.5259 54.0558C35.3447 54.1255 35.1355 54.1673 34.9264 54.1673C34.1177 54.1673 33.3927 53.6375 33.0999 53.1077C33.0302 52.9822 32.9744 52.8707 32.9326 52.7452C32.9326 52.7591 32.9187 52.7591 32.9187 52.7731C32.8071 52.9125 32.6956 53.024 32.584 53.1216L32.6677 54.1813L32.7513 55.1991L31.7335 55.1294C31.0643 55.0875 30.1719 54.9481 29.4888 54.3765L29.0984 54.5717C28.945 54.6553 28.8056 54.725 28.6661 54.8087C28.2757 55.0875 27.8853 55.45 27.5507 55.9659C27.3695 56.2308 27.23 56.4818 27.1185 56.7328C25.7242 59.6747 28.3455 61.1665 28.3455 61.1665C28.3036 60.3718 28.2757 59.5353 28.4988 58.7684C28.9032 57.4438 30.1022 56.7188 31.385 56.4121C33.2951 55.9659 34.3966 55.8265 35.8884 54.4462C35.9303 54.3904 35.9582 54.3625 35.986 54.3346ZM69.2672 53.5957C68.7932 53.275 68.4585 53.0937 68.4585 53.0937C68.4585 53.0937 68.6956 53.0658 69.0581 53.0101C69.2533 52.9822 69.4903 52.9264 69.7413 52.8707C69.7831 52.8567 69.8389 52.8428 69.8947 52.8288C69.7692 52.2293 69.811 51.6437 70.0201 51.1278C70.1038 50.9187 70.2293 50.7095 70.3687 50.5283C69.0441 50.8908 67.4129 51.1696 65.5585 51.1696C64.8474 51.1696 64.1084 51.0163 63.3276 50.9326C63.0627 50.9047 62.7699 50.8908 62.4771 50.8908C62.3795 50.8908 62.2959 50.8908 62.1983 50.8908C61.2641 51.1836 60.2045 51.4346 58.9915 51.6298C60.3439 52.0899 61.8358 52.9404 63.1882 54.3207C63.23 54.3625 63.2579 54.3904 63.2858 54.4322C66.158 56.6212 67.5244 55.1851 70.0899 56.8583C71.6933 57.904 70.9404 61.2502 70.9404 61.2502C70.9404 61.2502 74.3284 58.6847 71.261 55.2967C70.6057 54.5717 69.8249 53.9721 69.2672 53.5957ZM102.744 57.9318C102.841 58.5314 102.785 59.0612 102.562 59.5352C102.088 60.5391 101.043 60.9016 100.304 61.0968L99.3137 61.3478L99.2161 60.33L99.1185 59.3819C99.0349 59.3261 98.9373 59.2564 98.8536 59.1867C98.8397 59.2703 98.8118 59.354 98.7839 59.4377C98.5469 60.093 97.7939 60.7622 96.9434 60.7622C96.8598 60.7622 96.7761 60.7622 96.6925 60.7483L96.0929 61.2781L95.4516 61.8497L94.866 61.2084C94.0434 60.316 93.7087 59.3122 93.9179 58.3919C93.9876 58.0992 94.0991 57.8203 94.2664 57.5693C93.7506 57.5693 93.2905 57.3741 92.9419 57.0116C92.8164 56.8722 92.6909 56.7188 92.6073 56.5376L92.5515 56.5515L91.1991 57.1092L91.3524 55.6592C91.3524 55.6034 91.3664 55.5616 91.3664 55.5058C90.7668 55.6034 90.0418 55.8265 89.1216 56.1751C88.9961 56.2448 88.8567 56.3005 88.7312 56.3424C88.6615 56.3703 88.6057 56.3981 88.536 56.4121C88.8288 56.5794 89.1216 56.7467 89.3865 56.914C90.7111 57.7645 91.6173 58.6847 92.0914 59.6468C92.3842 59.9535 92.7049 60.2882 93.0534 60.6646C94.4895 62.1983 96.4276 62.9094 98.4214 62.9094C101.837 62.9094 105.365 60.804 106.606 57.0953C106.592 57.1092 104.905 57.6809 102.744 57.9318ZM88.8428 57.6251C87.072 56.5097 85.1201 55.8823 85.1201 55.8823C85.4686 55.9102 85.7893 55.9241 86.096 55.9241C86.8629 55.9241 87.4903 55.8265 88.0062 55.6731C88.299 55.5895 88.5639 55.4779 88.787 55.3664C90.4183 54.5298 90.474 53.038 90.474 53.038C89.1774 53.9163 88.0341 54.2231 86.9744 54.2231C85.6081 54.2231 84.3671 53.7351 83.0984 53.3726C82.7219 53.261 82.3455 53.2192 81.983 53.2192C80.9373 53.2192 80.031 53.6096 79.5151 53.8885C80.1704 54.2928 80.7281 54.8087 81.1603 55.464C81.3276 55.7289 81.481 55.9938 81.6065 56.2448C82.0248 56.8164 82.2897 57.3184 82.708 57.653C83.67 58.4617 85.0085 58.629 86.2215 58.7126C89.9024 58.9915 91.4082 62.3098 91.4082 62.3098C91.7149 61.543 91.6592 60.818 91.3664 60.1627C90.9063 59.1588 89.9163 58.3083 88.8428 57.6251ZM28.457 53.8885C27.9411 53.6096 27.0488 53.2192 25.9891 53.2192C25.6266 53.2192 25.2641 53.261 24.8737 53.3726C23.591 53.7351 22.364 54.2231 20.9977 54.2231C19.938 54.2231 18.7947 53.9303 17.4981 53.038C17.4981 53.038 17.5678 54.5298 19.1851 55.3664C19.4082 55.4779 19.6731 55.5895 19.9659 55.6731C20.4818 55.8265 21.1231 55.9241 21.8761 55.9241C22.1828 55.9241 22.5035 55.9102 22.852 55.8823C22.852 55.8823 20.9001 56.5097 19.1293 57.6251C18.0558 58.3083 17.0658 59.1588 16.6197 60.1627C16.3269 60.818 16.2711 61.5291 16.5778 62.3098C16.5778 62.3098 18.0697 58.9915 21.7645 58.7126C22.9775 58.615 24.3021 58.4477 25.2781 57.653C25.6963 57.3044 25.9613 56.8025 26.3795 56.2448C26.505 55.9799 26.6584 55.7289 26.8257 55.464C27.244 54.8087 27.8017 54.2789 28.457 53.8885ZM6.5391 56.7885C6.48333 56.914 6.42756 57.0395 6.37179 57.1511C6.24631 57.4717 6.14871 57.7506 6.10688 58.0155C5.82802 59.5352 6.91555 60.0093 7.89154 60.2463L8.01703 58.8799C8.03097 58.8242 8.29588 58.6987 8.35165 58.6708C8.43531 58.615 8.53291 58.5593 8.60262 58.4895C8.76993 58.3362 8.8257 58.1549 8.85359 57.9597C8.86753 57.8482 8.86753 57.7366 8.86753 57.6112C8.88147 57.402 8.90936 57.1929 9.0209 57.0395C9.07667 56.9698 9.13244 56.914 9.23004 56.8722C9.31369 56.8304 9.39735 56.8164 9.48101 56.8164C9.57861 56.8164 9.66226 56.8443 9.74592 56.8861C9.92717 56.9837 10.0805 57.165 10.1084 57.3881C10.1224 57.4717 10.1084 57.5833 10.0945 57.6948C10.0248 58.0992 9.82957 58.6569 10.0108 59.1449C10.1224 59.4655 10.5546 59.8978 11.0286 59.8978C11.182 59.8978 11.3214 59.8559 11.4748 59.7583L12.4508 60.6228C13.7475 59.2006 13.3431 57.8342 11.9349 57.2486C11.8234 57.2068 11.7258 57.1511 11.6421 57.0953C11.3772 56.914 11.2238 56.677 11.3772 56.426C11.4888 56.2308 11.6142 56.1611 11.7815 56.1611C12.0325 56.1611 12.3532 56.3145 12.8412 56.5097C12.8691 56.5236 12.897 56.5376 12.9388 56.5515C13.2037 56.6491 13.4547 56.7188 13.6917 56.7188C14.1936 56.7188 14.598 56.426 14.8071 55.6174C14.8211 55.5476 14.835 55.464 14.8489 55.3943L15.1836 55.5337L15.7692 55.7707C15.7552 55.6731 15.7413 55.5616 15.7273 55.464C15.6716 55.1294 15.56 54.8505 15.4345 54.6135C15.0023 53.8188 14.2355 53.4981 13.4547 53.4981C12.4508 53.4981 11.419 54 10.9868 54.6414L9.14638 54.8923C8.76993 54.4183 8.75599 53.024 8.81176 51.9365C8.85359 51.1418 9.43918 50.5004 10.22 50.3749C11.5585 50.1797 13.5662 49.8869 14.2773 49.8311C15.6297 49.7335 17.0379 49.4965 18.0558 48.5066C19.45 47.1263 19.7568 45.6902 19.7568 43.6964C19.7568 43.0411 19.7289 42.3858 19.6731 41.7165C19.6313 41.1449 19.5616 40.5732 19.5058 40.0155C19.464 39.639 19.4082 39.2626 19.3524 38.8861C19.2967 38.5376 19.2967 38.1611 19.3245 37.7986C19.3385 37.6592 19.3524 37.5337 19.3803 37.3943C19.45 36.9899 19.5616 36.5995 19.7149 36.1952C19.8822 35.7769 20.1193 35.3865 20.3981 35.0101C20.8443 34.4245 21.4299 33.9086 22.1688 33.4903C22.4338 33.337 22.7544 33.1557 23.0891 32.9466C23.4237 32.7374 23.7862 32.5143 24.1627 32.2494C25.0829 31.6359 26.1007 30.8691 27.0488 29.9907C26.9791 29.9489 26.9094 29.9071 26.8396 29.8652C26.4911 29.6561 25.529 28.945 24.6228 28.1921C24.3997 28.0108 24.2045 27.8435 24.0232 27.6762L24.8877 27.2161C25.8915 28.0666 27.007 28.9032 27.2998 29.0705C27.4392 29.1542 27.5786 29.2378 27.718 29.3215C27.9829 29.4748 28.2479 29.6282 28.4988 29.7676C29.9628 30.6042 31.0085 31.1758 30.9806 32.1518C29.1681 34.1038 30.158 35.261 31.1619 35.6096L31.4965 34.536C32.5561 34.3548 32.5422 33.574 32.584 32.9744C32.6119 32.6538 32.8629 32.4725 33.1139 32.4725C33.323 32.4725 33.5321 32.6119 33.5461 32.9326C33.574 33.2812 33.5461 33.6437 33.6437 34.2153C33.7134 34.6057 34.1317 35.1356 34.7312 35.1356C34.8288 35.1356 34.9264 35.1216 35.024 35.0937L35.2471 36.3625C37.3106 35.9721 37.0875 33.9225 35.6932 33.2254C34.8985 32.8211 34.6475 32.5283 34.8846 32.2215C34.9543 32.1239 35.0379 32.0961 35.1355 32.0961C35.4283 32.0961 35.8606 32.4167 36.2788 32.7235C36.4601 32.8629 36.6971 32.9326 36.9481 32.9326C37.4919 32.9326 38.0774 32.5841 38.3284 31.7614L39.0813 32.1797C39.2068 30.6321 38.2448 29.8652 37.2688 29.8652C36.8087 29.8652 36.3346 30.0325 35.9721 30.3672C35.8327 30.4926 35.6932 30.5484 35.5538 30.5484C35.1077 30.5484 34.8009 29.9907 35.4005 29.67C35.9721 29.3633 36.5159 28.4152 35.986 27.8157L36.8505 27.007C36.4601 26.77 36.0418 26.6584 35.6514 26.6584C34.787 26.6584 33.9922 27.2161 33.7413 28.4849C33.6855 28.7777 33.56 28.8892 33.3927 28.8892C32.9187 28.8892 32.0821 27.8714 31.4547 26.8676C31.3013 26.6305 31.1619 26.3796 31.0224 26.1425C30.8412 25.8218 30.646 25.5151 30.4369 25.2084C30.1719 24.818 29.8931 24.4415 29.5445 24.1069C28.9589 23.5213 27.9411 22.5035 26.7699 21.8203C26.4911 21.6669 26.1983 21.5136 25.9055 21.3881C25.5569 20.928 25.2084 20.4539 24.9016 19.9659C24.079 18.7111 23.3958 17.3726 23.0054 15.9644C23.6468 17.2889 24.5391 18.4462 25.529 19.4779C25.9891 19.9659 26.4632 20.4121 26.9651 20.8583C28.3176 21.5554 29.4469 22.6847 30.1162 23.3401L30.2138 23.4377C30.409 23.6328 30.5902 23.828 30.7436 24.0372C30.9667 22.6708 30.9109 20.9837 30.4787 19.3803C30.395 19.0736 30.2974 18.7529 30.1859 18.4601C29.7816 17.3865 29.2099 16.3827 28.4152 15.5879C28.206 15.3788 27.9829 15.1836 27.7459 15.0023C26.7142 14.2076 25.4035 13.7196 23.7583 13.7196C23.5213 13.7196 23.2843 13.7335 23.0333 13.7475L20.8025 12.7297C21.5972 12.7436 22.2386 12.7715 22.7544 12.7715C24.9853 12.7715 24.804 12.4648 24.5112 10.9032C24.5112 10.9032 22.629 11.4191 21.1929 11.4191C21.0534 11.4191 20.914 11.4191 20.7885 11.4051C20.0914 11.3493 19.7846 11.0426 19.6731 10.6662C19.5337 10.1642 19.4919 9.38343 19.8822 8.40744C20.1332 7.76608 20.7467 7.20837 21.6251 7.20837C22.2943 7.20837 23.103 7.52905 24.0232 8.36562L24.804 9.14641C25.2084 8.67235 25.529 8.12859 25.78 7.59877C25.9473 6.87375 25.1665 6.41364 25.1665 6.41364C25.9613 6.51124 26.3517 5.68862 26.4771 5.31217C25.6266 4.85206 24.4136 4.15493 23.1309 3.80636L22.7544 2.52363C22.2664 2.27266 17.498 1.17119 16.2432 1.17119C16.1735 1.17119 16.1317 1.17119 16.0759 1.18513C15.9783 1.19908 15.8807 1.24091 15.811 1.29668C16.0759 1.58947 16.3129 1.9241 16.5221 2.28661L15.6716 2.56546C15.1975 1.79861 14.5422 1.15725 13.9566 0.962051C13.1898 1.6313 12.2695 3.6251 14.2912 5.71651V6.92952L13.9427 6.59489C13.4547 6.13479 13.1061 5.68862 12.8412 5.2564C8.97907 13.622 15.323 20.4818 15.2812 23.4377C15.2812 23.4377 16.6057 23.3958 17.512 23.0333C17.512 23.0333 17.9163 25.9194 17.024 28.2897C15.9922 31.0504 14.3609 33.5043 13.0503 36.1255C12.6042 37.0178 12.2138 37.9241 11.8931 38.8583C11.8792 38.8861 11.8791 38.914 11.8652 38.9419C11.6003 39.5136 11.1541 40.0155 10.6522 40.2943C10.6382 40.3083 10.6104 40.3083 10.5964 40.3222C9.94112 40.6569 9.17427 40.615 8.5329 40.2246C7.90548 39.8482 7.57086 39.2068 7.5848 38.4957C7.62663 36.9063 8.56079 35.7351 9.56466 34.4942C10.0945 33.8249 10.6522 33.1418 11.0844 32.361C12.4369 29.921 12.7715 27.1603 12.0465 24.3718C11.7118 23.0891 10.9589 21.9597 10.2339 20.8583C10.0666 20.6073 9.91323 20.3703 9.74592 20.1193C9.67621 20.0217 9.62043 19.9241 9.56466 19.8265C9.91323 19.5058 9.98294 19.1154 9.8714 18.5995C9.7738 18.1255 9.52283 17.5538 9.2161 16.8428C8.86753 16.062 8.46319 15.1696 8.26799 14.2355C7.94731 12.7297 7.94731 11.5167 8.14251 10.3176C7.84971 10.7916 7.59875 11.2936 7.38961 11.8095C7.15258 12.395 6.98527 13.0085 6.90161 13.6499C6.81795 14.2913 6.81796 14.9466 6.91555 15.6019C6.69247 14.9884 6.55305 14.3191 6.51122 13.6499C6.46939 12.9667 6.51122 12.2835 6.6367 11.6143C6.74824 11.0008 6.91555 10.3873 7.13864 9.80171C6.17659 11.2099 5.6886 12.9249 5.66071 14.9884C5.63283 17.5817 6.52516 19.7568 7.37566 20.2727C7.4872 20.3424 7.5848 20.3842 7.6824 20.4121C8.04491 20.4957 8.60262 20.2448 8.60262 20.2448C8.85359 20.6631 9.10456 21.0395 9.36947 21.4438C10.0805 22.5174 10.7498 23.5352 11.0426 24.6367C11.6979 27.1882 11.419 29.6143 10.1781 31.8451C9.78775 32.5422 9.27187 33.1975 8.75599 33.8249C7.69634 35.1495 6.59487 36.5159 6.55304 38.4539C6.52516 39.5414 7.06892 40.5314 8.00308 41.103C8.50502 41.4098 9.09061 41.5771 9.6762 41.5771C9.94112 41.5771 10.22 41.5353 10.4849 41.4795C10.7219 41.4098 10.9589 41.3261 11.182 41.2006C11.2517 41.1588 11.3214 41.117 11.3912 41.0751C11.3493 41.4098 11.3354 41.7583 11.3493 42.093C11.3493 42.1766 11.3633 42.2742 11.3633 42.3579C11.4051 42.9295 11.4888 43.5151 11.5306 44.0868C11.6003 44.8257 11.7258 44.9094 11.5027 45.6344C11.2378 46.471 10.1084 46.9729 8.93724 47.2378C8.19828 47.4051 7.19441 47.5585 6.41362 47.6561C5.71648 47.7537 5.2006 48.3253 5.15878 49.0225C5.06118 50.7374 4.92175 53.7769 5.04723 54.6274C5.13089 55.5755 5.6886 56.3703 6.5391 56.7885ZM22.5174 4.0155C22.5174 4.81023 22.2246 5.64679 20.9419 5.59102C20.9419 5.59102 20.6073 5.00543 19.6452 4.04338C19.6313 4.04338 21.2347 4.36407 22.5174 4.0155ZM19.6871 15.9783C20.0077 16.6057 20.3424 17.2192 20.7049 17.8048C21.0813 18.3904 21.4857 18.9342 21.9318 19.464C22.3222 19.938 22.7405 20.426 23.1448 20.9001C22.6847 20.928 22.2246 21.0256 21.7366 21.1929C21.5135 20.8164 21.2905 20.44 21.0674 20.0635C20.7049 19.45 20.3702 18.7947 20.0774 18.1255C19.7986 17.4562 19.5616 16.787 19.3524 16.1038C19.1293 15.4346 18.9341 14.7514 18.7389 14.0682C19.0596 14.7095 19.3664 15.3509 19.6871 15.9783ZM17.5399 20.5376C17.0798 19.6034 16.6475 18.6553 16.285 17.6793C15.9086 16.7033 15.6018 15.6995 15.3509 14.6956C15.1139 13.6778 14.9465 12.66 14.8489 11.6282C15.072 12.6321 15.3509 13.622 15.6994 14.5841C16.048 15.5461 16.4663 16.4803 16.9264 17.3865C17.7908 19.0457 18.8226 20.6212 19.8962 22.1689C19.4361 22.4338 19.0178 22.615 18.6692 22.7266C18.2788 22.0016 17.9024 21.2765 17.5399 20.5376ZM43.9055 4.12704H44.8675C45.1185 4.93572 45.5228 5.61891 46.0248 6.12084H47.9767C47.4888 5.84199 47.0426 5.38188 46.694 4.7684C46.1642 3.86213 45.8575 2.70489 45.8435 1.50582H43.0829C43.0689 2.70489 42.7622 3.86213 42.2324 4.7684C41.8699 5.38188 41.4376 5.84199 40.9496 6.12084H42.7761C43.2502 5.61891 43.6545 4.93572 43.9055 4.12704ZM38.2726 6.12084H38.4818C37.9938 5.84199 37.5476 5.38188 37.1991 4.7684C36.6692 3.86213 36.3625 2.70489 36.3486 1.50582H34.1874C34.1735 1.6313 34.1735 1.75678 34.1735 1.89621C34.1456 4.18281 36.0418 6.12084 38.2726 6.12084ZM53.5259 4.12704H54.488C54.739 4.93572 55.1433 5.61891 55.6452 6.12084H57.7227C57.2347 5.84199 56.8025 5.38188 56.44 4.7684C55.9101 3.86213 55.6034 2.70489 55.5895 1.50582H52.5778C52.5639 2.70489 52.2572 3.86213 51.7273 4.7684C51.3648 5.38188 50.9326 5.84199 50.4446 6.12084H52.3966C52.8706 5.61891 53.275 4.93572 53.5259 4.12704ZM18.5995 56.928C18.8644 56.7607 19.1433 56.5933 19.45 56.426C19.3803 56.3981 19.3245 56.3703 19.2548 56.3563C19.1154 56.3005 18.9899 56.2448 18.8644 56.189C17.9442 55.8265 17.2192 55.6174 16.6197 55.5198C16.6197 55.5755 16.6336 55.6174 16.6336 55.6731L16.787 57.1232L15.4345 56.5655L15.3788 56.5515C15.2812 56.7328 15.1696 56.8861 15.0441 57.0256C14.6956 57.3881 14.2355 57.5833 13.7196 57.5833C13.8869 57.8342 13.9984 58.1131 14.0681 58.4059C14.2773 59.3261 13.9287 60.33 13.12 61.2223L12.5345 61.8637L11.8931 61.292L11.2936 60.7622C11.2099 60.7761 11.1262 60.7761 11.0426 60.7761C10.1921 60.7761 9.43918 60.1069 9.20215 59.4516C9.17427 59.3679 9.14638 59.2843 9.13244 59.2006C9.04878 59.2703 8.95118 59.3401 8.86753 59.3958L8.76993 60.3439L8.67233 61.3617L7.6824 61.1108C6.94344 60.9295 5.89774 60.5531 5.42369 59.5492C5.2006 59.0751 5.14483 58.5453 5.24243 57.9458C3.08132 57.6948 1.38031 57.1232 1.38031 57.1232C2.62121 60.8459 6.14871 62.9373 9.56466 62.9373C11.5585 62.9373 13.5104 62.2262 14.9326 60.6925C15.2812 60.33 15.5879 59.9814 15.8946 59.6747C16.3687 58.6987 17.275 57.7785 18.5995 56.928ZM63.2998 4.12704H64.2618C64.5128 4.93572 64.9171 5.61891 65.419 6.12084H67.3292C66.8412 5.84199 66.395 5.38188 66.0465 4.7684C65.5166 3.86213 65.2099 2.70489 65.196 1.50582H62.3377C62.3238 2.70489 62.017 3.86213 61.4872 4.7684C61.1247 5.38188 60.6925 5.82805 60.2045 6.12084H62.1565C62.6445 5.61891 63.0488 4.93572 63.2998 4.12704ZM29.6561 15.6716C30.1441 16.3129 30.5484 17.038 30.8551 17.7909L32.4307 16.2851C32.2633 15.8528 32.2076 15.3509 32.2633 14.835C32.2633 14.8071 32.2773 14.7792 32.2773 14.7374L33.1139 15.1418C33.086 15.7692 33.323 16.4245 33.8946 16.7312C34.0759 16.8288 34.2293 16.8706 34.4384 16.8706C34.4384 16.8706 34.4384 16.8706 34.4524 16.8706L34.4245 16.1038C34.7033 16.1038 35.0798 15.811 35.0798 15.4067C35.0798 14.9466 34.787 14.6956 34.4245 14.5841V13.6917C35.1216 13.8172 35.6375 14.2355 35.8466 14.8071L36.7668 14.8211C36.8087 14.1239 36.474 13.4965 35.763 13.2595V12.3532C36.3625 12.4787 36.7529 12.7715 36.9899 13.0364C37.0596 13.1061 37.1154 13.1898 37.1851 13.2734L37.8823 13.2874C37.9101 12.6181 37.5755 12.0186 36.9481 11.8095V10.9032C37.3385 10.9868 37.6731 11.1402 37.9659 11.3912H38.6212C38.6073 10.959 38.3563 10.5407 38.0077 10.2758C37.7149 10.0666 37.3385 9.94114 36.962 9.88537C36.8226 9.87142 36.6692 9.85748 36.5298 9.85748C36.3764 9.85748 36.237 9.87142 36.0836 9.89931C35.7072 9.95508 35.3307 10.1084 35.0101 10.3176C34.4524 10.694 33.9225 11.1263 33.4067 11.5585C32.5701 12.2556 31.7614 12.9946 30.883 13.6499C30.6042 13.859 29.7537 14.5004 29.0844 15.0163C29.2936 15.2394 29.4748 15.4485 29.6561 15.6716ZM30.1441 9.09063C30.2695 8.42139 29.9349 7.93339 29.2796 7.78002C29.2517 7.78002 29.2238 7.76608 29.196 7.76608C29.3493 8.33773 29.2796 8.96515 28.9032 9.57863C28.6243 10.0109 28.1921 10.3455 27.6483 10.5407C27.8296 10.5686 28.0108 10.5686 28.1781 10.5686C29.3354 10.5686 29.9628 10.0945 30.1441 9.09063Z" fill="white"/>
<path d="M54 10.5128C55.3706 10.5128 56.4818 9.9572 56.4818 9.27187C56.4818 8.58654 55.3706 8.03098 54 8.03098C52.6293 8.03098 51.5182 8.58654 51.5182 9.27187C51.5182 9.9572 52.6293 10.5128 54 10.5128Z" fill="#CC0000"/>
<path d="M46.9031 9.27187L44.1146 7.86366L41.3121 9.27187L44.1146 10.6661L46.9031 9.27187Z" fill="#CC0000"/>
<path d="M66.6878 9.27187L63.8853 7.86366L61.0968 9.27187L63.8853 10.6661L66.6878 9.27187Z" fill="#CC0000"/>
<path d="M106.327 56.2866C106.299 56.3005 104.668 56.8304 102.604 57.0674C103.273 56.4957 103.72 55.6871 103.859 54.7668C103.957 54.0697 103.929 52.1177 103.748 48.9946C103.692 47.8792 102.841 46.9589 101.74 46.8195C100.708 46.6801 99.8575 46.5407 99.2858 46.4152C98.1007 46.1503 97.4594 45.718 97.3757 45.4113C97.2642 45.0767 97.2781 45.0349 97.3199 44.7281C97.3339 44.5887 97.3617 44.4214 97.3896 44.1983C97.4175 43.9473 97.4315 43.7103 97.4733 43.4454C97.5151 43.1247 97.543 42.7901 97.5709 42.4555C97.5709 42.4415 97.5709 42.4136 97.5709 42.3997C97.8358 42.4555 98.1147 42.4833 98.3796 42.4833C99.1185 42.4833 99.8575 42.2881 100.499 41.8838C101.698 41.1448 102.395 39.8761 102.367 38.4679C102.311 36.237 101.071 34.6754 99.969 33.3091C99.4671 32.6816 98.9791 32.0821 98.6305 31.4547C97.5012 29.4191 97.2363 27.2161 97.8497 24.8877C98.1007 23.9256 98.7281 22.9636 99.3974 21.9597C99.5368 21.7506 99.6762 21.5275 99.8157 21.3184C99.9133 21.3323 100.011 21.3462 100.108 21.3462C100.527 21.3462 100.875 21.2068 101.126 21.0534C102.73 20.0635 103.287 16.8288 103.26 15.0163C103.218 11.2239 101.726 8.49109 98.7281 6.6646L97.6964 6.03718L98.0868 7.18048C98.993 9.81565 99.481 11.4469 98.9094 14.096C98.7281 14.9466 98.3656 15.7552 98.0171 16.536C97.4733 17.763 96.9435 18.9481 97.4036 19.9101C97.292 20.0775 97.1805 20.2587 97.069 20.426C96.3021 21.5833 95.5074 22.7823 95.1449 24.2045C94.3641 27.2161 94.7266 30.1998 96.1906 32.835C96.6507 33.6716 97.2363 34.3966 97.794 35.0937C98.7281 36.2649 99.5508 37.2688 99.5786 38.5654C99.5926 39.1092 99.244 39.402 99.0488 39.5275C98.6584 39.7645 98.1983 39.7785 97.794 39.5693C97.4733 39.402 97.1666 39.0674 96.9714 38.677C96.6646 37.7707 96.2742 36.8226 95.7444 35.7769C95.2703 34.8288 94.7545 33.8947 94.2525 32.9884C93.3323 31.3153 92.4539 29.7397 91.8126 28.0248C91.3246 26.7002 91.2688 25.1805 91.2967 24.2045C91.9938 24.33 92.6073 24.3579 92.7188 24.3579L93.6251 24.3857L93.6112 23.4795C93.5972 22.7963 94.141 21.6112 94.7545 20.2308C96.4415 16.4942 98.993 10.8613 95.7165 4.40589C95.6886 4.36406 95.6747 4.30829 95.6468 4.26646C95.7862 3.82029 95.8281 3.41596 95.8141 3.08133C95.8002 1.84043 95.1867 0.864446 94.629 0.36251L94.2386 0.0139427L93.7506 0.181255C93.4299 0.292796 93.1232 0.487994 92.8164 0.725019C92.6073 0.529822 92.3424 0.390395 92.0357 0.348567C91.952 0.334624 91.8683 0.334624 91.7568 0.334624C90.4044 0.334624 85.4826 1.45004 84.8412 1.78466L84.5066 1.95198L84.3951 2.31448L84.158 3.1371C83.0705 3.49961 82.0806 4.04338 81.3416 4.44771C81.244 4.50349 81.1464 4.55926 81.0488 4.60108L80.4911 4.90782L80.6166 5.53524C80.6305 5.63284 81.1185 8.08675 82.5407 9.74593L82.6104 9.81565C82.2618 9.84353 81.9551 9.87142 81.6762 9.87142C80.8257 9.87142 80.1565 9.62045 79.8358 9.11851C79.3339 8.33772 79.6964 7.50116 80.282 7.06894C79.9613 6.92951 79.6545 6.84586 79.2781 6.84586C79.055 6.84586 78.804 6.87374 78.5252 6.94345C77.4098 7.19442 76.7824 8.12858 76.9915 9.25794C77.2285 10.6104 78.1766 11.4469 79.8219 11.4469C80.1565 11.4469 80.5051 11.4191 80.8955 11.3493C81.4532 11.2517 82.0248 11.0844 82.5965 10.9032C82.5965 10.9311 82.5825 10.945 82.5825 10.9729C82.4431 11.7537 82.3176 12.4229 82.7498 12.9667C81.5508 13.1898 80.4632 13.6917 79.543 14.4446C78.7901 13.873 77.7723 13.1061 77.6189 12.9806C77.0194 12.5345 76.4617 12.0465 75.8621 11.5445C75.6251 11.3354 75.3742 11.1263 75.1232 10.9171C74.6073 10.4849 74.0496 10.0387 73.4501 9.62045C73.0039 9.31371 72.488 9.11851 71.9303 9.0488V6.58094C73.701 5.80015 74.9419 4.00155 74.9419 1.95198C74.9419 1.49187 74.8862 1.05964 74.7607 0.641363H71.0101C71.038 0.892331 71.0519 1.1433 71.0519 1.40821C71.0519 3.63904 69.9365 5.60496 68.5562 5.60496C67.1758 5.60496 66.0604 3.63904 66.0604 1.40821C66.0604 1.1433 66.0744 0.892331 66.1023 0.641363H61.4036C61.4315 0.892331 61.4454 1.1433 61.4454 1.40821C61.4454 3.63904 60.33 5.60496 58.9497 5.60496C57.5693 5.60496 56.4539 3.63904 56.4539 1.40821C56.4539 1.1433 56.4679 0.892331 56.4958 0.641363H51.6437C51.6716 0.892331 51.6855 1.1433 51.6855 1.40821C51.6855 3.63904 50.5701 5.60496 49.1898 5.60496C47.8095 5.60496 46.694 3.63904 46.694 1.40821C46.694 1.1433 46.708 0.892331 46.7359 0.641363H42.1487C42.1766 0.892331 42.1906 1.1433 42.1906 1.40821C42.1906 3.63904 41.0751 5.60496 39.6948 5.60496C38.3145 5.60496 37.1991 3.63904 37.1991 1.40821C37.1991 1.1433 37.213 0.892331 37.2409 0.641363H33.4346C33.323 1.0457 33.2672 1.46398 33.2672 1.8962C33.2672 3.87606 34.4245 5.64678 36.0837 6.48335V9.0488C35.526 9.11851 34.9822 9.31371 34.5221 9.63439C33.9225 10.0387 33.3648 10.4988 32.849 10.9311C32.598 11.1402 32.361 11.3493 32.11 11.5585C31.5105 12.0604 30.9528 12.5484 30.3532 12.9946C30.1998 13.1061 29.182 13.873 28.4291 14.4586C27.5089 13.7057 26.4353 13.2037 25.2223 12.9806C25.6545 12.4229 25.5291 11.7537 25.3896 10.9868C25.3896 10.9729 25.3757 10.945 25.3757 10.9171C25.9473 11.1123 26.519 11.2657 27.0767 11.3633C27.4671 11.433 27.8157 11.4609 28.1503 11.4609C29.7955 11.4609 30.7436 10.6243 30.9806 9.27188C31.1898 8.14252 30.5624 7.20836 29.4469 6.9574C29.1681 6.90163 28.9171 6.8598 28.694 6.8598C28.3176 6.8598 28.0108 6.94345 27.6902 7.08288C28.2758 7.5151 28.6383 8.35166 28.1363 9.13245C27.8156 9.64833 27.1325 9.88536 26.2959 9.88536C26.0031 9.88536 25.6964 9.85747 25.3896 9.8017L25.4593 9.73199C26.8815 8.07281 27.3695 5.63284 27.3834 5.5213L27.5089 4.89388L26.9512 4.58714C26.8536 4.53137 26.756 4.48954 26.6584 4.43377C25.9055 4.02943 24.9295 3.48567 23.842 3.12316L23.605 2.30054L23.4934 1.93803L23.1588 1.77072C22.5174 1.4361 17.5957 0.320682 16.2432 0.320682C16.1456 0.320682 16.048 0.320682 15.9644 0.334624C15.6576 0.376452 15.3927 0.515879 15.1836 0.711077C14.8768 0.460108 14.5562 0.278854 14.2494 0.167312L13.7614 0L13.3571 0.320682C12.7994 0.822618 12.1859 1.79861 12.172 3.0395C12.172 3.37413 12.2138 3.77847 12.3393 4.22463C12.3114 4.2804 12.2835 4.32223 12.2696 4.36406C8.99303 10.8195 11.5445 16.4524 13.2316 20.189C13.8451 21.5554 14.3888 22.7405 14.3749 23.4376L14.361 24.3439L15.2672 24.316C15.3648 24.316 15.9783 24.2881 16.6894 24.1627C16.7173 25.1387 16.6754 26.6723 16.1735 27.983C15.5321 29.6979 14.6538 31.2734 13.7335 32.9465C13.2316 33.8528 12.7157 34.787 12.2417 35.7351C11.7258 36.7808 11.3215 37.7289 11.0147 38.6352C10.8195 39.0256 10.5267 39.3602 10.1921 39.5275C9.78776 39.7366 9.32765 39.7227 8.93726 39.4857C8.72812 39.3602 8.39349 39.0674 8.40744 38.5236C8.43532 37.2409 9.244 36.2231 10.1921 35.0519C10.7498 34.3548 11.3215 33.6437 11.7955 32.7932C13.2595 30.158 13.622 27.1743 12.8412 24.1627C12.4787 22.7405 11.684 21.5414 10.9171 20.3842C10.8056 20.2169 10.694 20.0356 10.5825 19.8683C11.0426 18.9063 10.5267 17.7211 9.96902 16.4942C9.62045 15.7134 9.25794 14.9047 9.07669 14.0542C8.50504 11.3912 8.99303 9.77382 9.89931 7.13865L10.2897 5.99535L9.25794 6.62277C6.26026 8.44926 4.7684 11.182 4.72657 14.9744C4.69868 16.787 5.27033 20.0356 6.8598 21.0116C7.11077 21.165 7.44539 21.3044 7.87762 21.3044C7.97521 21.3044 8.05887 21.2905 8.17041 21.2765C8.30984 21.4857 8.44927 21.7087 8.58869 21.9179C9.25794 22.9218 9.88536 23.8838 10.1363 24.8459C10.7359 27.1743 10.471 29.3912 9.35554 31.4129C9.00697 32.0403 8.53292 32.6398 8.01704 33.2672C6.91557 34.6336 5.67467 36.1813 5.6189 38.426C5.59101 39.8203 6.28815 41.103 7.48722 41.842C8.12858 42.2463 8.86755 42.4415 9.60651 42.4415C9.88536 42.4415 10.1503 42.4136 10.4152 42.3579C10.4152 42.3718 10.4152 42.3997 10.4152 42.4136C10.4431 42.7483 10.471 43.0829 10.5128 43.4036C10.5407 43.6685 10.5686 43.9055 10.5964 44.1565C10.6104 44.3795 10.6383 44.5469 10.6662 44.6863C10.708 44.9791 10.7219 45.0349 10.6104 45.3695C10.5128 45.6762 9.88536 46.1084 8.70023 46.3734C8.12858 46.4988 7.27808 46.6383 6.24632 46.7777C5.14485 46.9311 4.29434 47.8513 4.23857 48.9527C4.07126 52.0759 4.02943 54.0279 4.12703 54.725C4.26646 55.6452 4.71263 56.4539 5.38187 57.0256C3.31836 56.7885 1.67312 56.2448 1.65918 56.2448L0 55.6871L0.557707 57.3462C1.21301 59.2982 2.45391 60.9435 4.16886 62.1007C5.75833 63.1743 7.66847 63.7599 9.56468 63.7599C11.8792 63.7599 13.9845 62.8954 15.5043 61.3199C15.5182 61.7521 15.6019 62.1704 15.7692 62.6026L16.536 64.5128L17.3865 62.6445C17.4423 62.5329 18.739 59.8002 21.8342 59.5631C23.1588 59.4655 24.6646 59.2703 25.8358 58.2943C25.8358 58.2943 25.8358 58.2943 25.8497 58.2943C25.8497 58.615 25.8776 58.9218 25.9613 59.2285C26.3796 60.9574 27.8714 61.8358 27.9272 61.8637L29.3075 62.6584L29.2239 61.0689C29.196 60.3857 29.1542 59.605 29.3493 58.9636C29.6979 57.8064 30.9109 57.3741 31.5941 57.2068C31.7614 57.165 31.9287 57.1232 32.0821 57.0953C33.2115 56.8443 34.1317 56.6352 35.0798 56.0775C34.6754 56.8722 34.5081 57.6809 34.5918 58.5035C34.787 60.5531 36.4601 61.8358 36.5298 61.8916L38.44 63.3277L37.9102 60.9992C37.715 60.1069 37.5616 58.0713 38.3842 57.5414C39.402 56.8722 40.1689 56.7885 41.0612 56.6909C41.8002 56.6073 42.5949 56.5097 43.5291 56.1053C42.804 57.7088 43.1108 59.0194 43.1387 59.0891L43.5848 60.8598L44.6863 59.3958C44.7002 59.3679 46.7638 56.7049 49.6917 56.7049C51.811 56.7049 53.526 57.7506 53.5399 57.7645L54 58.0434L54.4601 57.7645C54.4741 57.7506 56.189 56.7049 58.3083 56.7049C61.2363 56.7049 63.2998 59.3819 63.3137 59.3958L64.4152 60.8598L64.8614 59.0891C64.8753 59.0194 65.196 57.7088 64.471 56.1053C65.4051 56.5097 66.1999 56.6073 66.9388 56.6909C67.8312 56.7885 68.6119 56.8861 69.6158 57.5414C70.4384 58.0852 70.299 60.1069 70.0899 60.9992L69.56 63.3277L71.4702 61.8916C71.5399 61.8358 73.213 60.5531 73.4082 58.5035C73.4919 57.6809 73.3246 56.8722 72.9202 56.0775C73.8683 56.6212 74.7886 56.8304 75.9179 57.0953C76.0713 57.1371 76.2386 57.165 76.4059 57.2068C77.0891 57.3602 78.3021 57.8064 78.6507 58.9636C78.8459 59.605 78.804 60.3857 78.7762 61.0689L78.6925 62.6584L80.0728 61.8637C80.1425 61.8218 81.6344 60.9574 82.0387 59.2285C82.1085 58.9218 82.1503 58.6011 82.1503 58.2943C82.1503 58.2943 82.1503 58.2943 82.1642 58.2943C83.3354 59.2703 84.8412 59.4516 86.1658 59.5631C89.2611 59.8002 90.5577 62.5329 90.6135 62.6445L91.464 64.5128L92.2309 62.6026C92.3982 62.1704 92.4958 61.7382 92.4958 61.3199C94.0155 62.8954 96.1208 63.7599 98.4353 63.7599C100.332 63.7599 102.242 63.1743 103.831 62.1007C105.546 60.9435 106.801 59.2982 107.442 57.3462L108 55.6871L106.327 56.2866ZM79.8079 10.5686C78.6367 10.5686 78.0233 10.0945 77.842 9.09063C77.7165 8.42138 78.0511 7.93338 78.7065 7.78001C78.7343 7.78001 78.7622 7.76607 78.7901 7.76607C78.6367 8.33772 78.7064 8.96514 79.0829 9.57862C79.3618 10.0108 79.794 10.3455 80.3377 10.5407C80.1565 10.5546 79.9752 10.5686 79.8079 10.5686ZM28.8892 9.57862C29.2796 8.97908 29.3354 8.33772 29.182 7.76607C29.2099 7.76607 29.2378 7.78001 29.2657 7.78001C29.921 7.91944 30.2556 8.42138 30.1301 9.09063C29.9489 10.0945 29.3215 10.5686 28.1642 10.5686C27.9969 10.5686 27.8156 10.5546 27.6344 10.5407C28.1782 10.3455 28.6104 10.0248 28.8892 9.57862ZM79.5848 15.56C79.794 15.3509 80.0171 15.1557 80.2541 14.9744C81.2858 14.1797 82.5965 13.6917 84.2417 13.6917C84.4787 13.6917 84.7157 13.7057 84.9667 13.7196L87.1975 12.7018C86.4028 12.7157 85.7614 12.7436 85.2456 12.7436C83.0147 12.7436 83.196 12.4369 83.4888 10.8753C83.4888 10.8753 85.371 11.3912 86.8071 11.3912C86.9466 11.3912 87.086 11.3912 87.2115 11.3772C87.9086 11.3215 88.2154 11.0147 88.3269 10.6383C88.4663 10.1363 88.5082 9.35554 88.1178 8.37955C87.8668 7.73819 87.2533 7.18048 86.3749 7.18048C85.7057 7.18048 84.897 7.50116 83.9768 8.33772L83.196 9.11851C82.7916 8.64446 82.471 8.1007 82.22 7.57087C82.0527 6.84586 82.8335 6.38575 82.8335 6.38575C82.0387 6.48335 81.6484 5.66073 81.5229 5.28428C82.3734 4.82417 83.5864 4.12703 84.8691 3.77847L85.2456 2.49574C85.7336 2.24477 90.502 1.1433 91.7568 1.1433C91.8265 1.1433 91.8683 1.1433 91.9241 1.15724C92.0217 1.17119 92.1193 1.21301 92.189 1.26878C91.9241 1.56158 91.6871 1.8962 91.4779 2.25871L92.3284 2.53757C92.8025 1.77072 93.4578 1.12936 94.0434 0.93416C94.8102 1.60341 95.7305 3.59721 93.7088 5.68861V6.90163L94.0573 6.567C94.5453 6.10689 94.8939 5.66073 95.1588 5.2285C99.0209 13.5941 92.677 20.4539 92.7188 23.4098C92.7188 23.4098 91.3943 23.3679 90.488 23.0054C90.488 23.0054 90.0837 25.8916 90.976 28.2618C92.0078 31.0225 93.6391 33.4764 94.9497 36.0976C95.3958 36.9899 95.7862 37.8962 96.1069 38.8304C96.1209 38.8582 96.1209 38.8861 96.1348 38.914C96.3997 39.4857 96.8459 39.9876 97.3478 40.2665C97.3618 40.2804 97.3896 40.2804 97.4036 40.2943C98.0589 40.629 98.8257 40.5871 99.4671 40.1967C100.095 39.8203 100.429 39.1789 100.415 38.4679C100.373 36.8784 99.4392 35.7072 98.4353 34.4663C97.9055 33.7971 97.3478 33.1139 96.9156 32.3331C95.5631 29.8931 95.2285 27.1325 95.9535 24.3439C96.2882 23.0612 97.0411 21.9318 97.7661 20.8304C97.9334 20.5794 98.0868 20.3424 98.2541 20.0914C98.3238 19.9938 98.3796 19.8962 98.4353 19.7986C98.0868 19.4779 98.0171 19.0875 98.1286 18.5716C98.2262 18.0976 98.4772 17.5259 98.7839 16.8149C99.1325 16.0341 99.5368 15.1417 99.732 14.2076C100.053 12.7018 100.053 11.4888 99.8575 10.2897C100.15 10.7637 100.401 11.2657 100.61 11.7816C100.847 12.3672 101.015 12.9806 101.098 13.622C101.182 14.2634 101.182 14.9187 101.084 15.574C101.308 14.9605 101.447 14.2912 101.489 13.622C101.531 12.9388 101.489 12.2556 101.363 11.5864C101.252 10.9729 101.084 10.3594 100.861 9.77382C101.823 11.182 102.311 12.897 102.339 14.9605C102.367 17.5538 101.475 19.7289 100.624 20.2448C100.513 20.3145 100.415 20.3563 100.318 20.3842C99.9551 20.4679 99.3974 20.2169 99.3974 20.2169C99.1464 20.6352 98.8954 21.0116 98.6305 21.416C97.9195 22.4895 97.2502 23.5074 96.9574 24.6088C96.3021 27.1603 96.581 29.5864 97.8219 31.8172C98.2123 32.5143 98.7281 33.1696 99.244 33.7971C100.304 35.1216 101.405 36.488 101.447 38.426C101.475 39.5136 100.931 40.5035 99.9969 41.0751C99.495 41.3819 98.9094 41.5492 98.3238 41.5492C98.0589 41.5492 97.78 41.5074 97.5151 41.4516C97.2781 41.3819 97.0411 41.2982 96.818 41.1727C96.7483 41.1309 96.6786 41.0891 96.6088 41.0472C96.6507 41.3819 96.6646 41.7304 96.6507 42.0651C96.6507 42.1487 96.6367 42.2463 96.6367 42.33C96.5949 42.9016 96.5113 43.4872 96.4694 44.0589C96.3997 44.7978 96.2742 44.8815 96.4973 45.6065C96.7622 46.4431 97.8916 46.945 99.0628 47.2099C99.8017 47.3772 100.806 47.5306 101.586 47.6282C102.284 47.7258 102.799 48.2974 102.841 48.9946C102.939 50.7095 103.078 53.749 102.953 54.5995C102.813 55.5337 102.27 56.3284 101.405 56.7467C101.461 56.8722 101.517 56.9977 101.572 57.1092C101.698 57.4299 101.796 57.7088 101.837 57.9737C102.116 59.4934 101.029 59.9675 100.053 60.2045L99.9272 58.8381C99.9133 58.7823 99.6484 58.6569 99.5926 58.629C99.5089 58.5732 99.4113 58.5174 99.3416 58.4477C99.1743 58.2943 99.1185 58.1131 99.0906 57.9179C99.0767 57.8064 99.0767 57.6948 99.0767 57.5693C99.0628 57.3602 99.0349 57.151 98.9233 56.9977C98.8676 56.928 98.8118 56.8722 98.7142 56.8304C98.6305 56.7885 98.5469 56.7746 98.4632 56.7746C98.3656 56.7746 98.282 56.8025 98.1983 56.8443C98.0171 56.9419 97.8637 57.1232 97.8358 57.3462C97.8219 57.4299 97.8358 57.5414 97.8497 57.653C97.9195 58.0573 98.1147 58.615 97.9334 59.103C97.8219 59.4237 97.3896 59.8559 96.9156 59.8559C96.7622 59.8559 96.6228 59.8141 96.4694 59.7165L95.4934 60.5809C94.1968 59.1588 94.6011 57.7924 96.0093 57.2068C96.1209 57.165 96.2185 57.1092 96.3021 57.0534C96.567 56.8722 96.7204 56.6352 96.567 56.3842C96.4555 56.189 96.33 56.1193 96.1627 56.1193C95.9117 56.1193 95.591 56.2727 95.103 56.4678C95.0751 56.4818 95.0473 56.4957 95.0054 56.5097C94.7405 56.6073 94.4896 56.677 94.2525 56.677C93.7506 56.677 93.3463 56.3842 93.1371 55.5755C93.1232 55.5058 93.1092 55.4221 93.0953 55.3524L92.7607 55.4919L92.1751 55.7289C92.189 55.6313 92.203 55.5197 92.2169 55.4221C92.2727 55.0875 92.3842 54.8087 92.5097 54.5717C92.9419 53.7769 93.7088 53.4562 94.4896 53.4562C95.4934 53.4562 96.5252 53.9582 96.9574 54.5995L98.7979 54.8505C99.1743 54.3764 99.1882 52.9822 99.1325 51.8947C99.0906 51.0999 98.5051 50.4586 97.7243 50.3331C96.3858 50.1379 94.378 49.8451 93.6669 49.7893C92.3145 49.6917 90.9063 49.4547 89.8885 48.4648C88.4942 47.0844 88.1875 45.6483 88.1875 43.6545C88.1875 42.9992 88.2153 42.3439 88.2711 41.6747C88.313 41.103 88.3827 40.5314 88.4384 39.9737C88.4803 39.5972 88.536 39.2208 88.5918 38.8443C88.6476 38.4957 88.6476 38.1193 88.6197 37.7568C88.6057 37.6173 88.5918 37.4919 88.5639 37.3524C88.4942 36.9481 88.3827 36.5577 88.2293 36.1534C88.062 35.7351 87.825 35.3447 87.5461 34.9682C87.0999 34.3826 86.5144 33.8668 85.7754 33.4485C85.5105 33.2951 85.1898 33.1139 84.8552 32.9047C84.5205 32.6956 84.158 32.4725 83.7816 32.2076C82.8614 31.5941 81.8436 30.8273 80.8955 29.9489C80.9652 29.907 81.0349 29.8652 81.1046 29.8234C81.4531 29.6143 82.4152 28.9032 83.3215 28.1503C83.5446 27.969 83.7398 27.8017 83.921 27.6344L83.0566 27.1743C82.0527 28.0248 80.9373 28.8613 80.6445 29.0287C80.5051 29.1123 80.3656 29.196 80.2262 29.2796C79.9613 29.433 79.6964 29.5864 79.4454 29.7258C77.9814 30.5624 76.9357 31.134 76.9636 32.11C78.7762 34.062 77.7862 35.2192 76.7824 35.5678L76.4477 34.4942C75.3881 34.3129 75.402 33.5321 75.3602 32.9326C75.3323 32.6119 75.0813 32.4307 74.8304 32.4307C74.6212 32.4307 74.4121 32.5701 74.3982 32.8908C74.3703 33.2393 74.3982 33.6019 74.3006 34.1735C74.2308 34.5639 73.8126 35.0937 73.213 35.0937C73.1154 35.0937 73.0178 35.0798 72.9202 35.0519L72.6971 36.3207C70.6336 35.9303 70.8567 33.8807 72.251 33.1836C73.0457 32.7792 73.2967 32.4864 73.0597 32.1797C72.9899 32.096 72.9063 32.0542 72.8087 32.0542C72.5159 32.0542 72.0837 32.3749 71.6654 32.6816C71.4841 32.8211 71.2471 32.8908 70.9961 32.8908C70.4524 32.8908 69.8668 32.5422 69.6158 31.7196L68.9047 32.1518C68.7793 30.6042 69.7413 29.8373 70.7173 29.8373C71.1774 29.8373 71.6515 30.0046 72.014 30.3393C72.1534 30.4648 72.2928 30.5205 72.4322 30.5205C72.8784 30.5205 73.1851 29.9628 72.5856 29.6421C72.014 29.3354 71.4702 28.3873 72 27.7878L71.1356 26.9791C71.526 26.7421 71.9443 26.6305 72.3346 26.6305C73.1991 26.6305 73.9938 27.1882 74.2448 28.457C74.3006 28.7498 74.426 28.8613 74.5934 28.8613C75.0674 28.8613 75.904 27.8435 76.5314 26.8397C76.6848 26.6026 76.8242 26.3517 76.9636 26.1146C77.1449 25.794 77.3401 25.4872 77.5492 25.1805C77.8141 24.7901 78.093 24.4136 78.4415 24.079C79.0271 23.4934 80.0449 22.4756 81.2161 21.7924C81.495 21.639 81.7878 21.4857 82.0806 21.3602C82.4291 20.9001 82.7777 20.426 83.0844 19.938C83.9071 18.6832 84.5903 17.3447 84.9807 15.9365C84.3393 17.261 83.447 18.4183 82.457 19.45C81.9969 19.938 81.5229 20.3842 81.0209 20.8304C79.6685 21.5275 78.5391 22.6569 77.8699 23.3122L77.7723 23.4098C77.5771 23.605 77.3958 23.8002 77.2425 24.0093C77.0194 22.6429 77.0752 20.9558 77.5074 19.3524C77.591 19.0457 77.6886 18.725 77.8002 18.4322C78.2045 17.3726 78.7901 16.3687 79.5848 15.56ZM84.7994 10.0248C85.3292 9.84353 85.859 9.7041 86.361 9.7041C86.7793 9.7041 87.1696 9.8017 87.5322 10.0108C87.5182 10.1782 87.4903 10.3176 87.4764 10.3873C87.4764 10.4012 87.4764 10.4012 87.4764 10.4012C87.4764 10.4012 87.4067 10.471 87.1278 10.4988C87.0302 10.5128 86.9187 10.5128 86.7932 10.5128C86.2494 10.5128 85.636 10.4291 85.0922 10.3315C84.5484 10.2479 83.7258 10.0666 83.7258 10.0666C83.6422 9.62045 83.7119 9.1464 83.8792 9.16034C84.0744 9.20217 84.2138 9.67622 84.7994 10.0248ZM84.2278 9.32765L84.5624 8.97908C85.3989 8.22618 85.9985 8.05887 86.347 8.05887C86.9745 8.05887 87.2254 8.54686 87.2812 8.70023C87.337 8.83966 87.3788 8.97908 87.4206 9.10457C87.086 8.9512 86.7235 8.89543 86.347 8.89543C85.6778 8.89543 84.9667 9.10457 84.2278 9.32765ZM90 52.3129C88.9683 53.0101 88.0062 53.3447 86.9884 53.3447C86.0403 53.3447 85.1201 53.0658 84.1441 52.7591C83.8792 52.6754 83.6143 52.5918 83.3354 52.5221C82.9032 52.3966 82.4431 52.3408 81.983 52.3408C80.8676 52.3408 79.9055 52.7033 79.2781 53.024C79.3478 52.787 79.5709 51.8947 79.5709 51.2115C80.3935 50.7514 80.9652 50.0961 81.244 49.2455C81.6623 47.9768 81.9969 45.732 81.6623 43.306C82.3176 43.2223 83.2518 43.0829 84.1859 42.9295C85.2037 42.7622 86.0403 42.5949 86.6538 42.4415C86.9466 42.3718 87.1836 42.3021 87.3927 42.2324C87.3649 42.7204 87.3509 43.2084 87.3509 43.6964C87.3509 44.9094 87.4625 45.8156 87.7134 46.6104C88.0202 47.5585 88.536 48.3811 89.3029 49.134C90.5298 50.347 92.1751 50.6119 93.6251 50.7095C94.141 50.7514 95.5631 50.9326 97.6127 51.2393C97.9752 51.2951 98.268 51.6019 98.282 51.9783C98.3377 52.9822 98.2959 53.5817 98.2401 53.9163L97.4315 53.8048C96.7622 53.0798 95.6189 52.6057 94.5035 52.6057C93.0953 52.6057 92.0356 53.3447 91.5616 54.5995C91.3106 54.6274 91.0318 54.6692 90.7529 54.739C91.2828 53.9303 91.3246 53.1774 91.3385 53.0798L91.4082 51.3369L90 52.3129ZM75.9876 52.4663C75.904 52.3966 75.8203 52.3129 75.7506 52.2293C75.7367 52.2014 75.7227 52.1874 75.7088 52.1596C75.5275 51.8668 75.5833 51.56 75.6251 51.2393C75.6669 50.9187 75.6669 50.598 75.3741 50.3888C75.2626 50.3052 75.1371 50.2634 75.0116 50.2634C74.928 50.2634 74.8583 50.2773 74.7886 50.3052C74.5934 50.3749 74.4121 50.5422 74.3424 50.7653C74.3006 50.8768 74.3006 51.0302 74.3006 51.2115C74.3006 51.3648 74.3145 51.5321 74.3145 51.6995C74.3145 51.9923 74.2866 52.3129 74.1611 52.5918C74.1472 52.6197 74.1332 52.6476 74.1193 52.6754C73.952 52.9543 73.5058 53.3029 73.0457 53.3029C72.8366 53.3029 72.6274 53.2332 72.4462 53.0519L71.2332 53.7909C71.2332 53.7909 71.2192 53.7909 71.2192 53.7769C71.1356 53.6514 71.0798 53.5259 71.0101 53.4144C70.8707 53.1216 70.7731 52.8567 70.7173 52.5918C70.4942 51.4206 71.1913 50.5701 72.4183 50.2912C72.9202 50.1797 73.3246 49.9148 73.1712 49.5105C73.0736 49.2455 72.9063 49.1479 72.6553 49.1479C72.3904 49.1479 72.014 49.2455 71.4981 49.3571C71.3308 49.385 71.1774 49.4129 71.024 49.4407C70.8985 49.4547 70.7731 49.4686 70.6615 49.4686C70.1178 49.4686 69.7692 49.2037 69.7692 48.1162L68.7235 48.3393C69.1975 46.6801 70.1596 46.0387 71.1635 46.0387C72.1952 46.0387 73.2827 46.7219 73.952 47.6561L74.3703 47.7955L75.1092 48.0465L76.5872 48.5484C78.0233 47.3354 77.3679 44.1425 77.3679 44.1425C77.3679 44.1425 74.5655 42.567 75.4996 39.0674C75.4996 39.0674 75.9876 35.7769 81.983 35.7769C82.6243 35.7769 83.3215 35.8187 84.0883 35.9024C84.5484 35.9582 84.9667 36.0139 85.3432 36.0837C85.3432 36.0837 85.3432 36.0976 85.3571 36.0976C85.2177 36.4183 85.1758 36.7808 85.2456 37.1294C85.3432 37.6731 85.6778 38.1332 86.1658 38.3842C86.4028 38.5097 86.6677 38.5794 86.9466 38.5794C87.2533 38.5794 87.5461 38.4957 87.825 38.3424C87.825 38.4957 87.811 38.6352 87.7971 38.7746C87.6855 39.5554 87.574 40.3919 87.5043 41.2703C86.2913 41.8838 80.6724 42.5809 80.6724 42.5809C81.2161 45.23 80.8676 47.7397 80.4493 48.9946C80.2959 49.4547 80.031 49.8172 79.6964 50.11C79.4315 50.347 79.1247 50.5283 78.7762 50.6677C78.7064 51.5879 78.6367 52.2711 78.4694 52.8149C78.4276 53.0101 78.3579 53.1774 78.2742 53.3168C77.8559 54.0279 76.9915 54.1952 76.2107 54.251L76.3362 52.773C76.2944 52.6894 76.0434 52.5081 75.9876 52.4663ZM77.9814 31.8869C78.2185 31.5105 79.0132 31.0782 79.8358 30.6042C79.9334 30.5484 80.0449 30.4926 80.1565 30.4229C80.3099 30.5624 80.4632 30.7018 80.6166 30.8412C80.993 31.1758 81.3834 31.4965 81.7738 31.8033L81.7878 31.8172L83.7119 33.8249C84.2138 34.3548 84.5624 34.7591 84.7994 35.0937L81.9969 34.8985C80.6166 34.8985 79.5012 35.0658 78.5949 35.3307C78.7204 35.1356 78.818 34.9125 78.8738 34.6894C79.0968 33.6297 78.581 32.6398 77.9814 31.8869ZM85.9427 35.3029C85.7754 34.9822 85.5105 34.5778 85.0643 34.0341C85.1758 34.1038 85.3013 34.1735 85.3989 34.2293C86.0682 34.6057 86.5701 35.0658 86.9466 35.5678C87.2394 35.9582 87.4346 36.3764 87.5879 36.7808C87.6437 36.9342 87.6855 37.1015 87.7134 37.2548C87.5461 37.5197 87.2533 37.6871 86.9466 37.6871C86.8211 37.6871 86.6956 37.6592 86.5701 37.5895C86.11 37.3524 85.9288 36.739 86.2494 36.2649C86.2773 36.2231 86.3052 36.1813 86.347 36.1394C86.2076 35.9024 86.11 35.6375 85.9427 35.3029ZM72.9481 10.3455C73.5058 10.7219 74.0356 11.1541 74.5515 11.5864C75.3881 12.2835 76.1968 13.0225 77.0751 13.6778C77.354 13.8869 78.2045 14.5283 78.8738 15.0442C78.6786 15.2533 78.4973 15.4624 78.316 15.6855C77.8281 16.3269 77.4237 17.0519 77.117 17.8048L75.5415 16.3129C75.7088 15.8807 75.7645 15.3788 75.7088 14.8629C75.7088 14.835 75.6948 14.8071 75.6948 14.7653L74.8583 15.1696C74.8862 15.7971 74.6491 16.4524 74.0775 16.7591C73.8962 16.8567 73.7428 16.8985 73.5337 16.8985C73.5337 16.8985 73.5337 16.8985 73.5198 16.8985L73.5477 16.1317C73.2688 16.1317 72.8923 15.8389 72.8923 15.4345C72.8923 14.9744 73.1851 14.7235 73.5477 14.6119V13.7196C72.8505 13.8451 72.3346 14.2634 72.1255 14.835L71.2053 14.849C71.1635 14.1518 71.4981 13.5244 72.2092 13.2874V12.3811C71.6096 12.5066 71.2192 12.7994 70.9822 13.0643C70.9125 13.134 70.8567 13.2177 70.787 13.3013L70.0899 13.3153C70.062 12.646 70.3966 12.0465 71.024 11.8373V10.9311C70.6336 11.0147 70.299 11.1681 70.0062 11.4191H69.3509C69.3648 10.9868 69.6158 10.5686 69.9644 10.3036C70.2711 10.0806 70.6615 9.95507 71.0519 9.91324C71.1774 9.8993 71.3029 9.88536 71.4284 9.88536C71.5957 9.88536 71.763 9.8993 71.9164 9.92719C72.2928 9.9969 72.6414 10.1363 72.9481 10.3455ZM71.0798 4.7684C71.6096 3.86212 71.9164 2.70488 71.9303 1.50581H74.0356C74.0496 1.65918 74.0635 1.79861 74.0635 1.95198C74.0635 4.25252 72.2231 6.12084 69.9504 6.12084H69.7971C70.2851 5.82804 70.7173 5.38187 71.0798 4.7684ZM61.4733 4.7684C62.0031 3.86212 62.3099 2.70488 62.3238 1.50581H65.182C65.196 2.70488 65.5027 3.86212 66.0325 4.7684C66.3951 5.38187 66.8273 5.84198 67.3153 6.12084H65.4051C64.9171 5.6189 64.5128 4.93571 64.2479 4.12703H63.2858C63.0349 4.93571 62.6305 5.6189 62.1286 6.12084H60.1766C60.6786 5.82804 61.1247 5.38187 61.4733 4.7684ZM51.7274 4.7684C52.2572 3.86212 52.5639 2.70488 52.5779 1.50581H55.5895C55.6034 2.70488 55.9102 3.86212 56.44 4.7684C56.8025 5.38187 57.2347 5.82804 57.7227 6.12084H55.6453C55.1573 5.6189 54.7529 4.93571 54.488 4.12703H53.526C53.275 4.93571 52.8707 5.6189 52.3687 6.12084H50.4167C50.9187 5.82804 51.3648 5.38187 51.7274 4.7684ZM42.2184 4.7684C42.7483 3.86212 43.055 2.70488 43.0689 1.50581H45.8296C45.8435 2.70488 46.1503 3.86212 46.6801 4.7684C47.0426 5.38187 47.4748 5.84198 47.9628 6.12084H46.0109C45.5229 5.6189 45.1185 4.93571 44.8536 4.12703H43.8916C43.6406 4.93571 43.2363 5.6189 42.7343 6.12084H40.9078C41.4237 5.82804 41.8699 5.38187 42.2184 4.7684ZM34.1456 1.88226C34.1456 1.75678 34.1456 1.63129 34.1596 1.49187H36.3207C36.3346 2.69094 36.6414 3.84818 37.1712 4.75445C37.5337 5.36793 37.9659 5.82804 38.4539 6.10689H38.2448C36.0418 6.12084 34.1456 4.1828 34.1456 1.88226ZM30.897 13.6638C31.7754 13.0085 32.584 12.2835 33.4206 11.5724C33.9365 11.1402 34.4663 10.708 35.024 10.3315C35.3447 10.1084 35.7072 9.96902 36.0976 9.91324C36.237 9.88536 36.3904 9.87142 36.5438 9.87142C36.6832 9.87142 36.8226 9.88536 36.976 9.8993C37.3524 9.95507 37.7289 10.0666 38.0217 10.2897C38.3703 10.5407 38.6212 10.9589 38.6352 11.4051H37.9799C37.6871 11.1681 37.3385 11.0008 36.9621 10.9171V11.8234C37.6034 12.0325 37.938 12.6321 37.8962 13.3013L37.1991 13.2874C37.1433 13.2037 37.0736 13.134 37.0039 13.0503C36.7669 12.7994 36.3625 12.5066 35.7769 12.3672V13.2734C36.4741 13.5105 36.8087 14.1379 36.7808 14.835L35.8606 14.8211C35.6514 14.2355 35.1356 13.8311 34.4384 13.7057V14.598C34.8009 14.7095 35.0937 14.9605 35.0937 15.4206C35.0937 15.8249 34.7312 16.1177 34.4384 16.1177L34.4663 16.8846C34.4663 16.8846 34.4663 16.8846 34.4524 16.8846C34.2572 16.8846 34.0899 16.8288 33.9086 16.7452C33.337 16.4384 33.1139 15.7692 33.1278 15.1557L32.2913 14.7514C32.2913 14.7792 32.2773 14.8071 32.2773 14.849C32.2076 15.3648 32.2773 15.8668 32.4446 16.299L30.8691 17.8048C30.5624 17.0519 30.158 16.3408 29.67 15.6855C29.4888 15.4624 29.3075 15.2393 29.1123 15.0442C29.7676 14.5143 30.6181 13.873 30.897 13.6638ZM4.99148 54.6414C4.866 53.7909 5.00542 50.7653 5.10302 49.0364C5.14485 48.3393 5.67467 47.7676 6.35786 47.67C7.13865 47.5585 8.14253 47.4051 8.88149 47.2517C10.0527 47.0008 11.182 46.4849 11.4469 45.6483C11.67 44.9233 11.5445 44.8397 11.4748 44.1007C11.4191 43.529 11.3493 42.9435 11.3075 42.3718C11.3075 42.2881 11.2936 42.1905 11.2936 42.1069C11.2796 41.7723 11.2936 41.4237 11.3354 41.0891C11.2657 41.1309 11.196 41.1727 11.1263 41.2146C10.9032 41.34 10.6661 41.4237 10.4291 41.4934C10.1642 41.5631 9.8993 41.591 9.62045 41.591C9.03486 41.591 8.46321 41.4376 7.94733 41.117C7.01317 40.5453 6.4694 39.5554 6.49729 38.4679C6.53912 36.5298 7.64059 35.1634 8.70023 33.8389C9.20217 33.2115 9.73199 32.5562 10.1224 31.859C11.3633 29.6282 11.6561 27.2022 10.9868 24.6507C10.694 23.5352 10.0248 22.5314 9.31371 21.4578C9.0488 21.0534 8.79783 20.677 8.54686 20.2587C8.54686 20.2587 7.98916 20.5097 7.62665 20.426C7.52905 20.3981 7.43145 20.3563 7.31991 20.2866C6.4694 19.7568 5.56313 17.5957 5.60496 15.0023C5.63284 12.9388 6.12084 11.2239 7.08288 9.81565C6.87374 10.4012 6.69249 11.0147 6.58095 11.6282C6.45546 12.2974 6.41363 12.9946 6.45546 13.6638C6.49729 14.347 6.63672 15.0023 6.8598 15.6158C6.7622 14.9605 6.7622 14.3052 6.84586 13.6638C6.92951 13.0225 7.09683 12.409 7.33385 11.8234C7.54299 11.3075 7.79396 10.8056 8.08675 10.3315C7.89156 11.5306 7.89156 12.7436 8.21224 14.2494C8.40744 15.1836 8.81178 16.0759 9.16034 16.8567C9.48102 17.5678 9.71805 18.1394 9.81565 18.6135C9.92719 19.1294 9.85748 19.5198 9.50891 19.8404C9.56468 19.938 9.63439 20.0356 9.69016 20.1332C9.84353 20.3703 10.0108 20.6212 10.1782 20.8722C10.9032 21.9737 11.6561 23.103 11.9907 24.3857C12.7157 27.1743 12.3811 29.9349 11.0287 32.3749C10.5964 33.1557 10.0387 33.8389 9.50891 34.5081C8.51898 35.749 7.57088 36.9202 7.52905 38.5097C7.51511 39.2347 7.86367 39.8621 8.47715 40.2386C9.11851 40.629 9.88536 40.6569 10.5407 40.3362C10.5546 40.3222 10.5825 40.3222 10.5964 40.3083C11.0984 40.0434 11.5445 39.5414 11.8095 38.9558C11.8234 38.928 11.8234 38.9001 11.8373 38.8722C12.158 37.938 12.5484 37.0178 12.9946 36.1394C14.3052 33.5182 15.9365 31.0643 16.9682 28.3036C17.8606 25.9334 17.4562 23.0472 17.4562 23.0472C16.55 23.4098 15.2254 23.4516 15.2254 23.4516C15.2672 20.4957 8.92332 13.6359 12.7854 5.27033C13.0504 5.70256 13.3989 6.14872 13.8869 6.60883L14.2355 6.94345V5.73044C12.2138 3.63904 13.1479 1.64524 13.9009 0.975988C14.4725 1.18513 15.1278 1.81255 15.6158 2.5794L16.4663 2.30054C16.2572 1.95198 16.0201 1.61735 15.7552 1.31061C15.8389 1.25484 15.9225 1.21301 16.0201 1.19907C16.062 1.19907 16.1177 1.18513 16.1875 1.18513C17.4562 1.18513 22.2246 2.2866 22.6987 2.53757L23.117 3.80635C24.4136 4.15492 25.6127 4.85205 26.4632 5.31216C26.3238 5.67467 25.9334 6.49729 25.1526 6.41363C25.1526 6.41363 25.9194 6.87374 25.7661 7.59876C25.5151 8.12858 25.1944 8.67235 24.7901 9.1464L24.0093 8.36561C23.0891 7.5151 22.2804 7.20836 21.6112 7.20836C20.7328 7.20836 20.1193 7.76607 19.8683 8.40744C19.4779 9.38342 19.5198 10.1642 19.6592 10.6661C19.7707 11.0426 20.0775 11.3493 20.7746 11.4051C20.9001 11.4191 21.0395 11.4191 21.1789 11.4191C22.615 11.4191 24.4973 10.9032 24.4973 10.9032C24.7901 12.4648 24.9713 12.7715 22.7405 12.7715C22.2246 12.7715 21.5833 12.7576 20.7885 12.7297L23.0194 13.7475C23.2703 13.7335 23.5074 13.7196 23.7444 13.7196C25.3896 13.7196 26.7002 14.2076 27.732 15.0023C27.969 15.1836 28.1921 15.3788 28.4012 15.5879C29.196 16.3966 29.7676 17.4005 30.172 18.4601C30.2835 18.7668 30.3811 19.0736 30.4648 19.3803C30.897 20.9977 30.9528 22.6847 30.7297 24.0372C30.5624 23.828 30.395 23.6328 30.1998 23.4376L30.1022 23.34C29.433 22.6847 28.3036 21.5554 26.9512 20.8582C26.4493 20.4121 25.9752 19.9659 25.5151 19.4779C24.5252 18.4322 23.6468 17.275 22.9915 15.9644C23.3958 17.3726 24.079 18.725 24.8877 19.9659C25.2084 20.4539 25.543 20.928 25.8916 21.3881C26.1983 21.5136 26.4772 21.653 26.756 21.8203C27.9411 22.4895 28.945 23.5213 29.5306 24.1069C29.8792 24.4415 30.158 24.818 30.4229 25.2084C30.6321 25.5151 30.8133 25.8218 31.0085 26.1425C31.148 26.3795 31.3013 26.6305 31.4408 26.8675C32.0682 27.8854 32.9047 28.8892 33.3788 28.8892C33.5461 28.8892 33.6716 28.7637 33.7274 28.4849C33.9783 27.2161 34.773 26.6584 35.6375 26.6584C36.0418 26.6584 36.4601 26.7839 36.8366 27.007L35.9721 27.8156C36.488 28.4291 35.9442 29.3633 35.3865 29.67C34.787 29.9907 35.1077 30.5484 35.5399 30.5484C35.6793 30.5484 35.8188 30.4926 35.9582 30.3672C36.3207 30.0325 36.7947 29.8652 37.2548 29.8652C38.2308 29.8652 39.1929 30.6181 39.0674 32.1797L38.3145 31.7614C38.0635 32.584 37.4779 32.9326 36.9342 32.9326C36.6832 32.9326 36.4462 32.8629 36.2649 32.7235C35.8466 32.4167 35.4144 32.096 35.1216 32.096C35.024 32.096 34.9264 32.1379 34.8707 32.2215C34.6476 32.5283 34.8846 32.835 35.6793 33.2254C37.0875 33.9225 37.3106 35.9721 35.2332 36.3625L35.0101 35.0937C34.9125 35.1216 34.8149 35.1356 34.7173 35.1356C34.1177 35.1356 33.6995 34.6057 33.6298 34.2153C33.5322 33.6437 33.56 33.2951 33.5322 32.9326C33.5182 32.6119 33.3091 32.4725 33.0999 32.4725C32.849 32.4725 32.598 32.6538 32.5701 32.9744C32.5283 33.574 32.5422 34.3548 31.4826 34.536L31.148 35.6096C30.1441 35.261 29.1402 34.1038 30.9667 32.1518C30.9946 31.1619 29.9489 30.5902 28.4849 29.7676C28.2339 29.6282 27.969 29.4748 27.7041 29.3215C27.5647 29.2378 27.4253 29.1541 27.2858 29.0705C26.993 28.8892 25.8637 28.0666 24.8737 27.2161L24.0093 27.6762C24.1906 27.8296 24.3858 27.9969 24.6088 28.1921C25.5012 28.9311 26.4632 29.6561 26.8257 29.8652C26.8954 29.907 26.9651 29.9489 27.0349 29.9907C26.0868 30.8691 25.0689 31.6359 24.1487 32.2494C23.7723 32.5004 23.4098 32.7374 23.0751 32.9465C22.7405 33.1557 22.4198 33.3369 22.1549 33.4903C21.416 33.9086 20.8304 34.4245 20.3842 35.0101C20.0914 35.3865 19.8683 35.7909 19.701 36.1952C19.5337 36.5856 19.4222 36.9899 19.3664 37.3943C19.3385 37.5337 19.3246 37.6592 19.3106 37.7986C19.2827 38.1751 19.2967 38.5376 19.3385 38.8861C19.3943 39.2626 19.4361 39.639 19.4919 40.0155C19.5616 40.5871 19.6174 41.1448 19.6592 41.7165C19.715 42.3857 19.7428 43.041 19.7428 43.6964C19.7428 45.7041 19.4361 47.1402 18.0418 48.5066C17.038 49.4965 15.6297 49.7335 14.2634 49.8311C13.5523 49.873 11.5585 50.1658 10.206 50.3749C9.42525 50.4864 8.83966 51.1417 8.79783 51.9365C8.74206 53.0101 8.756 54.4183 9.13246 54.8923L10.9729 54.6414C11.4051 54 12.4369 53.4981 13.4407 53.4981C14.2215 53.4981 14.9884 53.8048 15.4206 54.6135C15.5461 54.8505 15.6576 55.1294 15.7134 55.464C15.7273 55.5616 15.7413 55.6592 15.7552 55.7707L15.1696 55.5337L14.835 55.3943C14.8211 55.4779 14.8071 55.5476 14.7932 55.6174C14.598 56.426 14.1797 56.7188 13.6778 56.7188C13.4407 56.7188 13.1898 56.6491 12.9249 56.5515C12.897 56.5376 12.8691 56.5236 12.8273 56.5097C12.3532 56.3145 12.0186 56.1611 11.7676 56.1611C11.6003 56.1611 11.4748 56.2308 11.3633 56.426C11.2099 56.6909 11.3633 56.914 11.6282 57.0953C11.7119 57.151 11.8234 57.2068 11.921 57.2486C13.3292 57.8342 13.7335 59.2006 12.4369 60.6228L11.4609 59.7583C11.3075 59.8559 11.1541 59.8978 11.0147 59.8978C10.5407 59.8978 10.1084 59.4655 9.9969 59.1448C9.81565 58.6569 10.0108 58.0991 10.0806 57.6948C10.0945 57.5833 10.1084 57.4717 10.0945 57.3881C10.0666 57.165 9.91324 56.9837 9.73199 56.8861C9.64833 56.8443 9.56468 56.8164 9.46708 56.8164C9.38342 56.8164 9.29977 56.8304 9.21611 56.8722C9.13246 56.914 9.06274 56.9698 9.00697 57.0395C8.88149 57.1929 8.8536 57.402 8.8536 57.6112C8.8536 57.7227 8.8536 57.8482 8.83966 57.9597C8.81178 58.1549 8.756 58.3362 8.58869 58.4895C8.50504 58.5593 8.42138 58.615 8.33772 58.6708C8.28195 58.6987 8.01704 58.8242 8.0031 58.8799L7.87762 60.2463C6.90163 60.0093 5.82804 59.5352 6.09295 58.0155C6.13478 57.7645 6.21844 57.4717 6.35786 57.151C6.39969 57.0395 6.45546 56.914 6.52517 56.7885C5.68861 56.3703 5.13091 55.5755 4.99148 54.6414ZM21.6251 9.7041C22.127 9.7041 22.6429 9.82959 23.1867 10.0248C23.7723 9.66228 23.8978 9.20217 24.1208 9.17428C24.2882 9.16034 24.3579 9.63439 24.2742 10.0806C24.2742 10.0806 23.4516 10.2618 22.9078 10.3455C22.3641 10.4431 21.7506 10.5267 21.2068 10.5267C21.0813 10.5267 20.9698 10.5267 20.8722 10.5128C20.6073 10.4849 20.5236 10.4291 20.5236 10.4152C20.5236 10.4152 20.5236 10.4152 20.5236 10.4012C20.4957 10.3176 20.4679 10.1921 20.4679 10.0248C20.8164 9.8017 21.2068 9.7041 21.6251 9.7041ZM20.5515 9.10457C20.5794 8.97908 20.6352 8.83966 20.6909 8.70023C20.7467 8.54686 20.9977 8.05887 21.6251 8.05887C21.9876 8.05887 22.5871 8.21224 23.4098 8.97908L23.7444 9.32765C23.0054 9.09063 22.2804 8.89543 21.6112 8.89543C21.2486 8.89543 20.9001 8.96514 20.5515 9.10457ZM31.385 48.5484L32.8768 48.0465L33.6158 47.7955L34.0341 47.6561C34.7033 46.708 35.7909 46.0387 36.8226 46.0387C37.8265 46.0387 38.7885 46.6801 39.2626 48.3393L38.2169 48.1162C38.2169 49.1898 37.8683 49.4686 37.3246 49.4686C37.213 49.4686 37.0875 49.4547 36.9621 49.4407C36.8087 49.4129 36.6553 49.385 36.488 49.3571C35.9721 49.2595 35.5957 49.1479 35.3308 49.1479C35.0798 49.1479 34.9125 49.2455 34.8149 49.5105C34.6754 49.9148 35.0658 50.1658 35.5678 50.2912C36.7947 50.5701 37.4919 51.4345 37.2688 52.5918C37.213 52.8567 37.1294 53.1216 36.976 53.4144C36.9202 53.5399 36.8505 53.6514 36.7669 53.7769C36.7669 53.7769 36.7529 53.7769 36.7529 53.7909L35.5399 53.0519C35.3586 53.2332 35.1495 53.3029 34.9404 53.3029C34.4803 53.3029 34.0341 52.9682 33.8668 52.6754C33.8528 52.6476 33.8389 52.6197 33.8249 52.5918C33.6855 52.3129 33.6716 51.9923 33.6716 51.6995C33.6716 51.5321 33.6855 51.3648 33.6855 51.2115C33.6855 51.0302 33.6855 50.8768 33.6437 50.7653C33.574 50.5422 33.3927 50.3888 33.1975 50.3052C33.1278 50.2773 33.0442 50.2634 32.9744 50.2634C32.849 50.2634 32.7235 50.3052 32.6119 50.3888C32.3191 50.598 32.3191 50.9187 32.361 51.2393C32.4028 51.574 32.4586 51.8807 32.2773 52.1596C32.2634 52.1874 32.2494 52.2014 32.2355 52.2293C32.1658 52.3129 32.0821 52.3966 31.9985 52.4663C31.9427 52.5081 31.6917 52.6894 31.6917 52.7591L31.8172 54.237C31.0364 54.1813 30.172 54.0139 29.7537 53.3029C29.67 53.1634 29.6003 52.9822 29.5585 52.8009C29.4051 52.2572 29.3354 51.5879 29.2517 50.6538C28.9032 50.5143 28.5964 50.3331 28.3315 50.096C27.9969 49.8032 27.732 49.4407 27.5786 48.9806C27.1603 47.7258 26.7978 45.2161 27.3555 42.567C27.3555 42.567 21.7366 41.8699 20.5236 41.2564C20.44 40.378 20.3424 39.5275 20.2308 38.7606C20.2169 38.6212 20.2029 38.4818 20.2029 38.3284C20.4679 38.4818 20.7746 38.5654 21.0813 38.5654C21.3602 38.5654 21.6112 38.4957 21.8621 38.3703C22.3501 38.1193 22.6847 37.6592 22.7823 37.1154C22.8521 36.7668 22.8102 36.4043 22.6708 36.0837C22.6708 36.0837 22.6708 36.0697 22.6847 36.0697C23.0612 36 23.4795 35.9442 23.9396 35.8885C24.7064 35.8048 25.4036 35.763 26.0449 35.763C32.0403 35.763 32.5283 39.0534 32.5283 39.0534C33.4624 42.5531 30.66 44.1286 30.66 44.1286C30.66 44.1286 29.9628 47.3354 31.385 48.5484ZM16.6197 53.0798C16.6197 53.1774 16.6754 53.9303 17.2053 54.739C16.9125 54.6692 16.6476 54.6274 16.3966 54.5995C15.9225 53.3447 14.8629 52.6057 13.4547 52.6057C12.3393 52.6057 11.196 53.0798 10.5267 53.8048L9.71805 53.9163C9.66228 53.5678 9.62045 52.9682 9.67622 51.9783C9.69016 51.6019 9.98296 51.2951 10.3455 51.2393C12.395 50.9326 13.8172 50.7374 14.3331 50.7095C15.7831 50.6119 17.4284 50.347 18.6553 49.134C19.4222 48.3811 19.952 47.5445 20.2448 46.6104C20.4957 45.8156 20.6073 44.9233 20.6073 43.6964C20.6073 43.2084 20.5933 42.7204 20.5655 42.2324C20.7746 42.3021 21.0256 42.3718 21.3044 42.4415C21.9179 42.5949 22.7545 42.7622 23.7723 42.9295C24.7064 43.0829 25.6406 43.2223 26.2959 43.306C25.9613 45.7459 26.282 47.9768 26.7142 49.2455C26.993 50.0821 27.5647 50.7514 28.3873 51.2115C28.3873 52.1038 28.6662 52.9961 28.6662 53.024C28.0387 52.7033 27.0767 52.3408 25.9613 52.3408C25.5012 52.3408 25.0411 52.4105 24.6088 52.5221C24.33 52.6057 24.0651 52.6894 23.8002 52.7591C22.8242 53.0519 21.9179 53.3447 20.9559 53.3447C19.938 53.3447 18.976 53.024 17.9442 52.3129L16.5081 51.3369L16.6197 53.0798ZM21.7506 36.2789C22.0573 36.7529 21.89 37.3664 21.4299 37.6034C21.3044 37.6731 21.1789 37.701 21.0535 37.701C20.7467 37.701 20.4539 37.5337 20.2866 37.2688C20.3145 37.1154 20.3703 36.9481 20.4121 36.7947C20.5515 36.3764 20.7607 35.9721 21.0535 35.5817C21.4299 35.0798 21.9318 34.6197 22.6011 34.2432C22.6987 34.1875 22.8102 34.1177 22.9357 34.048C22.4895 34.5918 22.2246 34.9822 22.0573 35.3168C21.8761 35.6514 21.7924 35.9163 21.6669 36.1673C21.6809 36.1952 21.7227 36.237 21.7506 36.2789ZM27.3695 30.8551C27.5229 30.7157 27.6762 30.5763 27.8296 30.4369C27.9411 30.4926 28.0387 30.5624 28.1503 30.6181C28.9729 31.0782 29.7537 31.5244 30.0047 31.9008C29.4051 32.6398 28.8753 33.6437 29.1402 34.6894C29.196 34.9125 29.2936 35.1356 29.4191 35.3307C28.5128 35.0658 27.3974 34.8985 26.017 34.8985L23.2146 35.0937C23.4516 34.7591 23.7862 34.3548 24.3021 33.8249L26.2262 31.8172L26.2401 31.8033C26.6026 31.5105 26.993 31.1898 27.3695 30.8551ZM14.9326 60.6785C13.4965 62.2122 11.5585 62.9233 9.56468 62.9233C6.14872 62.9233 2.62122 60.818 1.38033 57.1092C1.38033 57.1092 3.06739 57.6809 5.24245 57.9318C5.14485 58.5314 5.20062 59.0612 5.4237 59.5352C5.89775 60.5391 6.94346 60.9016 7.68242 61.0968L8.67235 61.3478L8.76995 60.33L8.86754 59.3819C8.9512 59.3261 9.0488 59.2564 9.13246 59.1867C9.1464 59.2703 9.17428 59.354 9.20217 59.4376C9.43919 60.0929 10.1921 60.7622 11.0426 60.7622C11.1263 60.7622 11.2099 60.7622 11.2936 60.7483L11.8931 61.2781L12.5345 61.8497L13.1201 61.2084C13.9427 60.316 14.2773 59.3122 14.0682 58.3919C13.9985 58.0991 13.8869 57.8203 13.7196 57.5693C14.2355 57.5693 14.6956 57.3741 15.0442 57.0116C15.1696 56.8722 15.2951 56.7188 15.3788 56.5376L15.4345 56.5515L16.787 57.1092L16.6336 55.6592C16.6336 55.6034 16.6197 55.5616 16.6197 55.5058C17.2192 55.6034 17.9442 55.8265 18.8645 56.1751C18.9899 56.2448 19.1294 56.3005 19.2548 56.3424C19.3246 56.3703 19.3803 56.3981 19.45 56.4121C19.1572 56.5794 18.8644 56.7467 18.5995 56.914C17.275 57.7645 16.3687 58.6847 15.8947 59.6468C15.6019 59.9814 15.2812 60.316 14.9326 60.6785ZM25.2641 57.653C24.3021 58.4617 22.9636 58.629 21.7506 58.7126C18.0697 58.9915 16.5639 62.3098 16.5639 62.3098C16.2572 61.543 16.3129 60.818 16.6057 60.1627C17.0519 59.1588 18.0558 58.2943 19.1154 57.6251C20.8861 56.5097 22.8381 55.8823 22.8381 55.8823C22.4895 55.9101 22.1689 55.9241 21.8621 55.9241C21.0953 55.9241 20.4679 55.8265 19.952 55.6731C19.6592 55.5895 19.3943 55.4779 19.1712 55.3664C17.5399 54.5298 17.4841 53.038 17.4841 53.038C18.7808 53.9163 19.9241 54.2231 20.9837 54.2231C22.3501 54.2231 23.591 53.7351 24.8598 53.3726C25.2363 53.261 25.6127 53.2192 25.9752 53.2192C27.0209 53.2192 27.9272 53.6096 28.4431 53.8885C27.7878 54.2928 27.2301 54.8087 26.7978 55.464C26.6305 55.7289 26.4772 55.9938 26.3517 56.2448C25.9473 56.8164 25.6824 57.3184 25.2641 57.653ZM31.385 56.3842C30.1023 56.677 28.9032 57.416 28.4988 58.7405C28.2618 59.5074 28.3036 60.3439 28.3455 61.1387C28.3455 61.1387 25.7242 59.6468 27.1185 56.7049C27.2301 56.4679 27.3834 56.2029 27.5507 55.938C27.8854 55.4222 28.2897 55.0596 28.6662 54.7808C28.8056 54.6971 28.945 54.6274 29.0984 54.5438L29.4888 54.3486C30.158 54.9202 31.0643 55.0596 31.7335 55.1015L32.7514 55.1712L32.6677 54.1534L32.584 53.0937C32.6956 52.9961 32.8071 52.8846 32.9187 52.7452C32.9187 52.7312 32.9326 52.7312 32.9326 52.7173C32.9744 52.8428 33.0302 52.9682 33.0999 53.0798C33.4067 53.6096 34.1317 54.1394 34.9264 54.1394C35.1356 54.1394 35.3308 54.0976 35.526 54.0279L35.9861 54.3067C35.9582 54.3346 35.9164 54.3625 35.8885 54.3904C34.3966 55.7986 33.2951 55.952 31.385 56.3842ZM70.9404 61.2362C70.9404 61.2362 71.6933 57.9039 70.0899 56.8443C67.5244 55.1712 66.158 56.6073 63.2858 54.4183C63.2579 54.3765 63.2161 54.3486 63.1882 54.3067C61.8358 52.9404 60.3439 52.0759 58.9915 51.6158C58.0573 51.7692 57.0256 51.8807 55.8823 51.9365C56.1054 51.9504 56.3284 51.9644 56.5655 51.9923C56.9698 52.0341 57.402 52.1038 57.8482 52.2014C58.5314 52.3548 59.2564 52.5918 59.9814 52.9404C60.8598 53.3726 61.7382 54.0697 62.5608 54.9063C62.6166 54.962 62.6584 55.0039 62.7002 55.0596C64.4849 56.9977 64.0109 58.8939 64.0109 58.8939C64.0109 58.8939 61.7243 55.8544 58.3083 55.8544C56.677 55.8544 55.2688 56.3981 54.5438 56.7607L54.014 57.0395L53.4841 56.7607C52.7591 56.4121 51.3509 55.8544 49.7196 55.8544C46.3036 55.8544 44.017 58.8939 44.017 58.8939C44.017 58.8939 43.5291 56.9977 45.3277 55.0596C45.3695 55.0039 45.4253 54.962 45.4671 54.9063C46.2897 54.0697 47.1681 53.3586 48.0465 52.9404C48.7715 52.5918 49.4965 52.3548 50.1797 52.2014C50.6259 52.1038 51.0581 52.0341 51.4624 51.9923C51.6995 51.9644 51.9365 51.9504 52.1596 51.9365C51.0163 51.8807 49.9845 51.7692 49.0364 51.6158C47.684 52.0759 46.1921 52.9264 44.8397 54.3067C44.7978 54.3486 44.77 54.3765 44.7421 54.4183C41.8699 56.6073 40.5035 55.1712 37.938 56.8443C36.3346 57.89 37.0875 61.2362 37.0875 61.2362C37.0875 61.2362 33.6995 58.6708 36.7669 55.2827C37.4082 54.5716 38.189 53.9861 38.7607 53.5957C39.2347 53.275 39.5693 53.0937 39.5693 53.0937C39.5693 53.0937 39.2905 53.0658 38.928 52.9961C38.7328 52.9682 38.4957 52.9125 38.2448 52.8567C38.2029 52.8428 38.1472 52.8288 38.0914 52.8149C38.2169 52.2153 38.1751 51.6297 37.9659 51.1139C37.8823 50.9047 37.7568 50.6956 37.6174 50.5143C38.9419 50.8768 40.5732 51.1557 42.4276 51.1557C43.1387 51.1557 43.8776 51.0023 44.6584 50.9187C44.9233 50.8908 45.2161 50.8768 45.5089 50.8768C45.6065 50.8768 45.7041 50.8768 45.8017 50.8908C45.0767 50.6677 44.4353 50.4167 43.8497 50.1658C43.3757 50.2355 42.9016 50.3052 42.4276 50.3052C40.9636 50.3052 39.653 50.1239 38.5236 49.859C38.7328 49.6499 38.8583 49.4129 38.9419 49.1479L39.0674 49.1758L40.4895 49.4826L40.0852 48.0744C39.3323 45.4253 37.5476 45.1464 36.8087 45.1464C35.6236 45.1464 34.3408 45.8296 33.4903 46.9032L31.6778 47.5167C31.2734 46.7777 31.3013 45.4671 31.4129 44.6445C31.7335 44.4074 32.1936 44.0031 32.6119 43.4036C33.2533 42.4973 33.8947 40.9775 33.337 38.8582C33.2812 38.5794 32.9884 37.5058 31.8451 36.5577L32.0542 35.8745L32.2355 35.275C32.5143 35.1634 32.7374 34.9961 32.9047 34.8149C33.1557 35.3307 33.6437 35.8048 34.2572 35.9582L34.3548 36.488L34.5081 37.4082L35.4144 37.2409C36.6693 37.0039 37.5058 36.2231 37.6592 35.1634C37.7289 34.6894 37.6452 34.2014 37.4361 33.7552C37.9102 33.6437 38.3424 33.3788 38.6631 32.9744L39.8482 33.6437L39.9597 32.2215C40.0573 30.9806 39.6112 30.1998 39.2208 29.7816C38.7188 29.2378 37.9938 28.9311 37.2409 28.9311C37.1572 28.9311 37.0875 28.9311 37.0039 28.945C37.0178 28.8753 37.0457 28.8056 37.0597 28.7359C37.1015 28.4988 37.1015 28.2618 37.0597 28.0248L37.464 27.6483L38.3563 26.8118L37.3106 26.1844C36.7808 25.8637 36.2091 25.6964 35.6375 25.6964C34.6894 25.6964 33.6019 26.1844 33.0581 27.495C32.835 27.2301 32.5422 26.8536 32.2215 26.3377C32.0961 26.1286 31.9706 25.9194 31.8451 25.7103C31.7057 25.4733 31.5523 25.2223 31.3989 24.9853V24.9713C31.859 23.2424 31.8451 20.8722 31.1619 18.6692L32.8768 17.038C33.0442 17.2332 33.2533 17.3865 33.4764 17.4981C33.7971 17.6654 34.0899 17.749 34.4245 17.749H34.4384L35.3447 17.7351V16.6197C35.3726 16.5918 35.4144 16.5639 35.4423 16.536C35.6933 16.299 35.8466 16.0062 35.9024 15.6716L36.739 15.6855L37.5755 15.6995L37.6174 14.8629C37.6313 14.6119 37.6034 14.3749 37.5616 14.1379H37.8683L38.7049 14.1518L38.7467 13.3153C38.7607 12.9388 38.7049 12.5763 38.5794 12.2556H38.6073H39.4996L39.4717 11.3633C39.4578 10.6661 39.0953 9.9969 38.5097 9.57862C37.9938 9.20217 37.4082 9.06274 36.9481 9.02091V6.98528H71.024V9.00697C70.5639 9.0488 69.9504 9.18823 69.4206 9.57862C68.835 10.0108 68.4725 10.6801 68.4586 11.3633L68.4307 12.2556H69.323H69.3509C69.2254 12.5763 69.1557 12.9388 69.1836 13.3153L69.2254 14.1518L70.062 14.1379H70.3687C70.313 14.361 70.299 14.6119 70.313 14.8629L70.3548 15.6995L71.1913 15.6855L72.0279 15.6716C72.0837 15.9923 72.237 16.299 72.488 16.536C72.5159 16.5639 72.5577 16.5918 72.5856 16.6197V17.7351L73.4919 17.749H73.5058C73.8404 17.749 74.1332 17.6654 74.4539 17.4981C74.677 17.3726 74.8862 17.2192 75.0535 17.038L76.7684 18.6692C76.0852 20.8722 76.0573 23.2424 76.5314 24.9713V24.9853C76.378 25.2223 76.2246 25.4733 76.0852 25.7103C75.9597 25.9194 75.8343 26.1286 75.7088 26.3377C75.402 26.8397 75.0953 27.244 74.8722 27.5089C74.3284 26.1983 73.2409 25.7103 72.2928 25.7103C71.7212 25.7103 71.1495 25.8776 70.6197 26.1983L69.574 26.8257L70.4663 27.6623L70.8707 28.0387C70.8288 28.2618 70.8288 28.4988 70.8707 28.7498C70.8846 28.8195 70.8985 28.8892 70.9264 28.9589C70.8428 28.9589 70.7731 28.945 70.6894 28.945C69.9226 28.945 69.1975 29.2517 68.7095 29.7955C68.3191 30.2277 67.873 30.9946 67.9706 32.2355L68.0821 33.6576L69.2673 32.9884C69.5879 33.3788 70.0201 33.6437 70.4942 33.7692C70.2851 34.2153 70.2014 34.6894 70.2711 35.1774C70.4245 36.251 71.2611 37.0318 72.5159 37.2548L73.4222 37.4221L73.5755 36.5019L73.6731 35.9721C74.3006 35.8048 74.7885 35.3447 75.0256 34.8288C75.1929 35.0101 75.416 35.1634 75.6948 35.2889L75.8482 35.7909L75.8761 35.8885L76.0852 36.5716C74.9419 37.5337 74.6491 38.5933 74.5934 38.8722C74.0356 40.9915 74.677 42.5112 75.3184 43.4175C75.7367 44.017 76.1968 44.4214 76.5174 44.6584C76.629 45.481 76.6569 46.7916 76.2525 47.5306L74.44 46.9171C73.5755 45.8435 72.3068 45.1603 71.1216 45.1603C70.3827 45.1603 68.598 45.4392 67.8451 48.0883L67.4408 49.4965L68.8629 49.1898L68.9884 49.1619C69.0721 49.4129 69.1975 49.6638 69.4067 49.873C68.2773 50.1239 66.9667 50.3191 65.5027 50.3191C65.0287 50.3191 64.5546 50.2494 64.0806 50.1797C63.495 50.4307 62.8536 50.6816 62.1286 50.9047C62.2262 50.9047 62.3099 50.9047 62.4075 50.9047C62.7002 50.9047 62.993 50.9187 63.258 50.9466C64.0387 51.0442 64.7777 51.1836 65.4888 51.1836C67.3432 51.1836 68.9744 50.9047 70.299 50.5422C70.1596 50.7235 70.0341 50.9187 69.9504 51.1417C69.7413 51.6576 69.6995 52.2432 69.825 52.8428C69.7692 52.8567 69.7274 52.8706 69.6716 52.8846C69.4206 52.9404 69.1836 52.9961 68.9884 53.024C68.6119 53.0937 68.3889 53.1077 68.3889 53.1077C68.3889 53.1077 68.7235 53.2889 69.1975 53.6096C69.7692 54 70.536 54.5856 71.1913 55.2967C74.3284 58.6708 70.9404 61.2362 70.9404 61.2362ZM79.6406 61.1387C79.6824 60.3439 79.7103 59.5074 79.4872 58.7405C79.0829 57.416 77.8838 56.6909 76.6011 56.3842C74.691 55.938 73.5895 55.7986 72.0976 54.4183C72.0697 54.3904 72.0279 54.3625 72 54.3346L72.4601 54.0558C72.6414 54.1255 72.8505 54.1673 73.0597 54.1673C73.8683 54.1673 74.5934 53.6375 74.8861 53.1077C74.9559 52.9822 75.0116 52.8706 75.0535 52.7452C75.0535 52.7591 75.0674 52.7591 75.0674 52.773C75.1789 52.9125 75.2905 53.024 75.402 53.1216L75.3184 54.1813L75.2347 55.1991L76.2525 55.1294C76.9218 55.0875 77.8141 54.9481 78.4973 54.3764L78.8877 54.5717C79.0411 54.6553 79.1805 54.725 79.3199 54.8087C79.7103 55.0875 80.1007 55.45 80.4353 55.9659C80.6166 56.2308 80.756 56.4818 80.8676 56.7328C82.2618 59.6468 79.6406 61.1387 79.6406 61.1387ZM91.3943 62.3238C91.3943 62.3238 89.9024 59.0054 86.2076 58.7266C84.9946 58.629 83.67 58.4617 82.694 57.6669C82.2758 57.3184 82.0109 56.8164 81.5926 56.2587C81.4671 55.9938 81.3137 55.7428 81.1464 55.4779C80.7142 54.8226 80.1704 54.2928 79.5012 53.9024C80.0171 53.6235 80.9094 53.2332 81.969 53.2332C82.3315 53.2332 82.6941 53.275 83.0844 53.3865C84.3672 53.749 85.5941 54.237 86.9605 54.237C88.0202 54.237 89.1635 53.9442 90.4601 53.0519C90.4601 53.0519 90.3904 54.5438 88.7731 55.3803C88.55 55.4919 88.2851 55.6034 87.9923 55.6871C87.4764 55.8404 86.835 55.938 86.0821 55.938C85.7754 55.938 85.4547 55.9241 85.1061 55.8962C85.1061 55.8962 87.0581 56.5236 88.8288 57.639C89.9024 58.3222 90.8923 59.1727 91.3385 60.1766C91.6453 60.8319 91.715 61.543 91.3943 62.3238ZM98.4214 62.9233C96.4276 62.9233 94.4756 62.2122 93.0535 60.6785C92.7049 60.316 92.3982 59.9675 92.0914 59.6607C91.6174 58.6847 90.7111 57.7785 89.3865 56.928C89.1216 56.7607 88.8428 56.5933 88.536 56.426C88.6058 56.3981 88.6615 56.3703 88.7312 56.3563C88.8707 56.3005 88.9961 56.2448 89.1216 56.189C90.0418 55.8265 90.7669 55.6174 91.3664 55.5198C91.3664 55.5755 91.3525 55.6173 91.3525 55.6731L91.1991 57.1232L92.5515 56.5655L92.6073 56.5515C92.7049 56.7328 92.8164 56.8861 92.9419 57.0256C93.2905 57.3881 93.7506 57.5833 94.2665 57.5833C94.0992 57.8342 93.9876 58.1131 93.9179 58.4059C93.7088 59.3261 94.0573 60.33 94.866 61.2223L95.4516 61.8637L96.093 61.292L96.6925 60.7622C96.7762 60.7761 96.8598 60.7761 96.9435 60.7761C97.794 60.7761 98.5469 60.1069 98.7839 59.4516C98.8118 59.3679 98.8397 59.2843 98.8536 59.2006C98.9512 59.2703 99.0349 59.34 99.1185 59.3958L99.2161 60.3439L99.3137 61.3617L100.304 61.1108C101.043 60.9295 102.088 60.5531 102.562 59.5492C102.785 59.0751 102.841 58.5453 102.744 57.9458C104.905 57.6948 106.606 57.1232 106.606 57.1232C105.351 60.8319 101.823 62.9233 98.4214 62.9233ZM22.5174 4.01549C21.2486 4.36406 19.6452 4.02943 19.6452 4.02943C20.6212 4.99148 20.9419 5.57707 20.9419 5.57707C22.2246 5.64679 22.5174 4.81022 22.5174 4.01549ZM85.4687 4.01549C85.4687 4.81022 85.7614 5.64678 87.0442 5.59101C87.0442 5.59101 87.3788 5.00542 88.3408 4.04338C88.3408 4.04338 86.7374 4.36406 85.4687 4.01549ZM86.2355 21.1929C86.4586 20.8164 86.6817 20.44 86.9047 20.0635C87.2673 19.45 87.6019 18.7947 87.8947 18.1255C88.1735 17.4562 88.4105 16.787 88.6197 16.1038C88.8428 15.4345 89.038 14.7514 89.2332 14.0682C88.9264 14.7095 88.6197 15.3369 88.2851 15.9644C87.9644 16.5918 87.6298 17.2053 87.2673 17.7909C86.8908 18.3765 86.4865 18.9202 86.0403 19.45C85.6499 19.9241 85.2316 20.4121 84.8273 20.8861C85.2874 20.9419 85.7614 21.0256 86.2355 21.1929ZM20.0914 18.1255C20.3703 18.7947 20.7188 19.45 21.0813 20.0635C21.3044 20.44 21.5275 20.8164 21.7506 21.1929C22.2246 21.0256 22.6987 20.928 23.1588 20.9001C22.7545 20.426 22.3362 19.938 21.9458 19.464C21.4996 18.9202 21.0953 18.3764 20.7188 17.8048C20.3563 17.2192 20.0217 16.6057 19.701 15.9783C19.3803 15.3509 19.0736 14.7095 18.7529 14.0821C18.9481 14.7653 19.1572 15.4345 19.3664 16.1177C19.5755 16.787 19.8125 17.4562 20.0914 18.1255ZM19.8823 22.1689C18.8087 20.6212 17.7769 19.0457 16.9125 17.3865C16.4384 16.4802 16.0201 15.5461 15.6855 14.584C15.3369 13.622 15.0581 12.6321 14.835 11.6282C14.9466 12.66 15.0999 13.6778 15.3369 14.6956C15.574 15.7134 15.8947 16.7033 16.2711 17.6793C16.6476 18.6553 17.0798 19.6034 17.5259 20.5376C17.8885 21.2765 18.2649 22.0015 18.6414 22.7266C19.0039 22.615 19.4222 22.4338 19.8823 22.1689ZM89.3168 22.7266C89.7072 22.0015 90.0837 21.2765 90.4322 20.5376C90.8923 19.6034 91.3246 18.6553 91.6871 17.6793C92.0635 16.7033 92.3703 15.6995 92.6212 14.6956C92.8583 13.6778 93.0256 12.66 93.1232 11.6282C92.9001 12.6321 92.6212 13.622 92.2727 14.584C91.9241 15.5461 91.5058 16.4802 91.0457 17.3865C90.1813 19.0457 89.1495 20.6212 88.0759 22.1689C88.5639 22.4338 88.9683 22.615 89.3168 22.7266Z" fill="#CC0000"/>
<path d="M68.6677 11.4051H68.4864H39.4996H39.3741L38.9698 12.2556H68.8908L68.6677 11.4051ZM72.6274 16.5639V26.6445C72.9341 26.7002 73.2269 26.8257 73.4779 27.0348V16.7312L72.6274 16.5639ZM72.9341 35.0798L72.7111 36.3486C72.6832 36.3486 72.6553 36.3346 72.6274 36.3346V38.0914C72.6274 40.4477 71.9303 42.5949 70.5778 44.4493C70.2432 44.8954 69.8807 45.3276 69.4764 45.7459L36.3067 12.5484C36.1533 12.4787 35.9721 12.409 35.763 12.3672V13.2734C36.4601 13.5105 36.7947 14.1379 36.7668 14.835L35.8466 14.8211C35.6514 14.2634 35.1634 13.873 34.5081 13.7196V14.6259C34.8288 14.7513 35.0658 15.0023 35.0658 15.4206C35.0658 15.7831 34.773 16.062 34.5081 16.1177V26.9651C34.8427 26.6863 35.2471 26.5887 35.6654 26.5887C36.0697 26.5887 36.474 26.7421 36.8505 26.9651L35.986 27.7738C36.5019 28.3873 35.9581 29.3214 35.4004 29.6282C34.8009 29.9489 35.1216 30.5066 35.5538 30.5066C35.6932 30.5066 35.8327 30.4508 35.9721 30.3253C36.3346 29.9907 36.8087 29.8234 37.2688 29.8234C38.2447 29.8234 39.2068 30.5763 39.0813 32.1379L38.3284 31.7196C38.0774 32.5422 37.4918 32.8908 36.9481 32.8908C36.6971 32.8908 36.4601 32.8211 36.2788 32.6816C35.8606 32.3749 35.4283 32.0542 35.1355 32.0542C35.0379 32.0542 34.9403 32.096 34.8846 32.1797C34.6615 32.4864 34.8985 32.7932 35.6932 33.1836C37.0317 33.8528 37.2966 35.7769 35.5399 36.2928L35.2471 36.3207L35.024 35.0519C34.9264 35.0798 34.8288 35.0937 34.7312 35.0937C34.6475 35.0937 34.5639 35.0798 34.4802 35.0658V38.0635C34.4802 41.0333 35.498 43.5151 37.1572 45.5089C37.1712 45.5228 37.1851 45.5368 37.1851 45.5507C37.2409 45.6204 37.3106 45.6902 37.3664 45.7599C37.3803 45.7738 37.3942 45.7878 37.4082 45.8017C37.4779 45.8854 37.5476 45.9551 37.6173 46.0387C37.6173 46.0387 37.6173 46.0527 37.6313 46.0527C37.701 46.1363 37.7846 46.206 37.8544 46.2897L37.8683 46.3036C37.9659 46.3594 38.0496 46.4291 38.1332 46.4988C38.3005 46.6383 38.4678 46.8056 38.6073 47.0008C39.6808 47.9489 40.9357 48.7436 42.2881 49.4128C42.4415 49.4965 42.5949 49.5802 42.7622 49.6499C44.993 50.7653 48.2556 51.9783 53.9581 51.9783C59.6607 51.9783 62.9233 50.7653 65.1541 49.6499C65.3214 49.5662 65.4748 49.4826 65.6282 49.4128C66.9667 48.7575 68.1936 47.9628 69.2672 47.0426C69.2951 47.0008 69.323 46.9589 69.3509 46.9171C69.3648 46.9032 69.3788 46.8892 69.3927 46.8613C69.4066 46.8474 69.4206 46.8195 69.4485 46.8056C69.4624 46.7777 69.4903 46.7637 69.5042 46.7359C69.5182 46.7219 69.5182 46.708 69.5321 46.708C69.56 46.6801 69.5879 46.6522 69.6158 46.6243L69.6297 46.6104C69.6576 46.5825 69.6855 46.5546 69.7134 46.5267C69.7134 46.5267 69.7134 46.5267 69.7273 46.5128C69.7552 46.4849 69.797 46.457 69.8249 46.4291C69.8946 46.3733 69.9643 46.3315 70.0341 46.2897C70.048 46.2757 70.0619 46.2757 70.0759 46.2618C72.1533 44.1425 73.45 41.3958 73.45 38.0356V35.0798C73.3664 35.1077 73.2827 35.1216 73.1851 35.1216C73.1293 35.1216 73.0317 35.1077 72.9341 35.0798Z" fill="#CC0000"/>
</g>
<defs>
<clipPath id="clip0_900_7360">
<rect width="108" height="64" fill="white"/>
</clipPath>
</defs>
</svg>
