<svg width="31" height="32" viewBox="0 0 31 32" fill="none" xmlns="http://www.w3.org/2000/svg">
<path fill-rule="evenodd" clip-rule="evenodd" d="M0.849976 0.429993H30.82V0.929993V19.95C30.98 22.8 30.16 25.19 28.38 27.07C28.36 27.1 28.29 27.16 28.29 27.16L27.94 27.52L27.58 27.16L1.69998 1.27999L0.849976 0.429993Z" fill="white"/>
<path fill-rule="evenodd" clip-rule="evenodd" d="M0 0H30.98V20C31.48 29 22.49 32 15.5 32C8.51 32 -0.48 29 0.02 20L0 0ZM27.58 26.88C27.61 26.85 27.67 26.8 27.67 26.8H27.68C29.36 25.03 30.13 22.76 29.98 20.06V1H1.71L27.58 26.88Z" fill="#CC0000"/>
</svg>
