<svg width="123" height="71" viewBox="0 0 123 71" fill="none" xmlns="http://www.w3.org/2000/svg">
<path d="M73.5778 54.1845C75.0775 53.4661 76.4522 52.5949 77.655 51.5861C77.9206 51.2193 78.2174 50.9441 78.5611 50.7607C80.8887 48.4374 82.3415 45.4263 82.3415 41.7427C82.3415 41.7427 82.3415 39.1137 82.3415 38.4565C82.2478 38.487 82.1541 38.5023 82.0447 38.5023C81.9354 38.5023 81.826 38.487 81.7167 38.4565L81.4667 39.8474C79.1547 39.4194 79.4047 37.1726 80.9668 36.4083C81.8573 35.9651 82.1384 35.6441 81.8729 35.3078C81.7948 35.2161 81.701 35.1703 81.5917 35.1703C81.2636 35.1703 80.7794 35.5218 80.3107 35.8581C80.1076 36.0109 79.8421 36.0873 79.5609 36.0873C78.9516 36.0873 78.2955 35.7052 78.0143 34.8034L77.202 35.2467C77.0614 33.5501 78.1393 32.7094 79.2328 32.7094C79.7483 32.7094 80.2795 32.8928 80.6856 33.2597C80.8418 33.3972 80.9981 33.4584 81.1543 33.4584C81.6542 33.4584 81.9978 32.847 81.3261 32.4954C80.6856 32.1592 80.0764 31.1198 80.67 30.4625L79.7015 29.576C80.1389 29.3162 80.6075 29.1939 81.0449 29.1939C81.5136 29.1939 81.9666 29.3468 82.3415 29.6524V17.6692C82.0447 17.608 81.701 17.3176 81.701 16.9049C81.701 16.4464 81.9822 16.1713 82.3415 16.0337V15.0402C81.6073 15.1931 81.0605 15.6363 80.8418 16.2477L79.8108 16.263C79.764 15.4987 80.1389 14.8109 80.9356 14.5511V13.5576C80.2638 13.6951 79.8264 14.0161 79.5609 14.3065C79.4828 14.383 79.4203 14.4747 79.3422 14.5664L78.5611 14.5817C78.5298 13.848 78.9048 13.1907 79.6077 12.9615V12.5029H76.749H44.256H41.3972V12.9615C42.1158 13.1907 42.4907 13.848 42.4439 14.5817L41.6628 14.5664C41.6003 14.4747 41.5222 14.3982 41.4441 14.3065C41.1785 14.0314 40.7255 13.7104 40.0694 13.5576V14.5511C40.8505 14.8109 41.2254 15.4987 41.1942 16.263L40.1631 16.2477C39.9444 15.6363 39.3977 15.2083 38.6634 15.0402V16.0337C39.0227 16.1713 39.2883 16.4464 39.2883 16.9049C39.2883 17.3023 38.9603 17.608 38.6634 17.6692V29.6372C39.0384 29.3315 39.4758 29.1939 39.9444 29.1939C40.3974 29.1939 40.8661 29.3315 41.2879 29.576L40.3193 30.4625C40.8973 31.1351 40.2881 32.1592 39.6632 32.4954C38.9915 32.847 39.3508 33.4584 39.8351 33.4584C39.9913 33.4584 40.1475 33.3972 40.3037 33.2597C40.7099 32.8928 41.241 32.7094 41.7565 32.7094C42.85 32.7094 43.9279 33.5348 43.7873 35.2467L42.9438 34.7881C42.6626 35.6899 42.0065 36.0721 41.3972 36.0721C41.116 36.0721 40.8505 35.9956 40.6474 35.8428C40.1787 35.5065 39.6945 35.155 39.3664 35.155C39.2571 35.155 39.1477 35.2008 39.0852 35.2925C38.8353 35.6288 39.1009 35.9651 39.9913 36.393C41.5691 37.1573 41.819 39.4041 39.4914 39.8321L39.2415 38.4412C39.1321 38.4718 39.0227 38.4871 38.9134 38.4871C38.8197 38.4871 38.7259 38.4718 38.6322 38.4565V41.7427C38.6322 45.4416 40.1006 48.4527 42.4439 50.776C42.7407 50.9441 43.0219 51.204 43.2718 51.5403C44.4747 52.5796 45.8806 53.4508 47.3959 54.1845C47.3959 54.1845 73.5778 54.1845 73.5778 54.1845Z" fill="white"/>
<path d="M82.9821 2.12462C82.9821 1.95649 82.9664 1.80364 82.9508 1.63551H80.592C80.5763 2.95 80.2327 4.21864 79.639 5.21215C79.2329 5.88468 78.7486 6.38907 78.2018 6.69477H78.3737C80.92 6.71005 82.9821 4.66189 82.9821 2.12462ZM80.592 10.8828C80.4045 10.8522 80.2327 10.8369 80.0452 10.8369C79.9046 10.8369 79.764 10.8522 79.6234 10.8675C79.186 10.9134 78.7486 11.0509 78.4049 11.2955C78.0144 11.5706 77.7332 12.0292 77.7176 12.5183H78.4518C78.7798 12.2584 79.1704 12.075 79.5922 11.9833V12.9768C78.8736 13.2061 78.4987 13.8633 78.5455 14.597L79.3266 14.5817C79.3891 14.49 79.4672 14.4136 79.5453 14.3219C79.8109 14.0467 80.2639 13.7258 80.92 13.5729V14.5664C80.1389 14.8263 79.764 15.5141 79.7953 16.2783L80.8263 16.263C81.0606 15.6211 81.6386 15.1778 82.4197 15.0403V16.0185C82.0135 16.1408 81.6855 16.4159 81.6855 16.9203C81.6855 17.3635 82.0916 17.6845 82.4197 17.6845L82.3884 18.5252C82.3884 18.5252 82.3884 18.5252 82.4041 18.5252C82.6228 18.5252 82.8102 18.464 83.0133 18.3723C83.6538 18.0361 83.9037 17.3024 83.8881 16.6299L84.8254 16.1866C84.8254 16.2172 84.841 16.2478 84.841 16.2936C84.9191 16.8591 84.841 17.4094 84.6536 17.8832L86.4188 19.5187C86.7625 18.6933 87.2155 17.9138 87.7623 17.1954C87.9654 16.9509 88.1684 16.7063 88.3871 16.4923C87.6217 15.9268 86.6844 15.2237 86.372 14.9944C85.3878 14.276 84.4817 13.4812 83.5444 12.7017C82.9664 12.2279 82.3728 11.754 81.748 11.3413C81.3887 11.1121 80.9981 10.9592 80.592 10.8828ZM96.979 41.2231C97.1196 41.2995 97.2602 41.3301 97.4008 41.3301C97.7445 41.3301 98.0726 41.1467 98.26 40.8562C98.2288 40.6881 98.1663 40.5047 98.1194 40.3366C97.9632 39.878 97.7289 39.4348 97.4008 39.0068C96.979 38.4565 96.4167 37.9521 95.6668 37.5394C95.5575 37.4783 95.4325 37.4019 95.2919 37.3255C95.7918 37.9216 96.0886 38.3495 96.2761 38.7164C96.4792 39.0832 96.5729 39.3736 96.7135 39.6487C96.6666 39.6946 96.6354 39.7405 96.6041 39.7863C96.2605 40.2907 96.4635 40.9632 96.979 41.2231ZM24.6978 38.7011C24.8852 38.3495 25.182 37.9063 25.6819 37.3102C25.557 37.3866 25.4164 37.463 25.307 37.5242C24.5572 37.9368 23.9948 38.4412 23.573 38.9915C23.245 39.4195 23.0262 39.878 22.8544 40.3213C22.7919 40.4894 22.7451 40.6728 22.7138 40.841C22.9013 41.1314 23.2293 41.3148 23.573 41.3148C23.7136 41.3148 23.8542 41.2842 23.9948 41.2078C24.5103 40.9479 24.7134 40.2754 24.3541 39.7557C24.3228 39.7099 24.2916 39.664 24.2447 39.6182C24.401 39.3583 24.4947 39.0679 24.6978 38.7011ZM89.4182 11.5859C89.6056 11.5859 89.8087 11.5706 90.0118 11.5553C89.4026 11.3413 88.9183 10.9898 88.6059 10.5007C88.1684 9.84343 88.106 9.14033 88.2778 8.51366C88.2466 8.51366 88.2153 8.52894 88.1841 8.52894C87.4499 8.68179 87.0749 9.23204 87.2155 9.96571C87.4186 11.0662 88.1216 11.5859 89.4182 11.5859ZM98.3381 42.4764C98.3538 42.3236 98.3694 42.1707 98.3694 42.0026C98.0726 42.1707 97.7289 42.2624 97.3852 42.2624C97.0728 42.2624 96.7916 42.186 96.5104 42.0485C95.9636 41.7733 95.5887 41.2689 95.4794 40.6728C95.4013 40.2907 95.4481 39.8933 95.6043 39.5417C95.6043 39.5417 95.6043 39.5265 95.5887 39.5265C95.1669 39.45 94.6983 39.3889 94.1828 39.3278C93.3236 39.2361 92.5425 39.1902 91.8239 39.1902C85.1066 39.1902 84.5599 42.7974 84.5599 42.7974C83.5132 46.6339 86.6531 48.3611 86.6531 48.3611C86.6531 48.3611 87.3717 51.8613 85.7783 53.1911L84.1224 52.6408L83.2945 52.3657L82.8259 52.2128C82.076 51.1735 80.8575 50.4398 79.7015 50.4398C78.5768 50.4398 77.4989 51.1429 76.9677 52.9618L78.1394 52.7172C78.1394 53.8942 78.5299 54.1999 79.1391 54.1999C79.2641 54.1999 79.4047 54.1846 79.5453 54.1693C79.7171 54.1387 79.889 54.1081 80.0764 54.0776C80.6544 53.9706 81.0762 53.8483 81.373 53.8483C81.6542 53.8483 81.8417 53.9553 81.951 54.2457C82.1073 54.689 81.6698 54.9641 81.1075 55.1017C79.7328 55.4074 78.9517 56.355 79.2016 57.6236C79.2641 57.914 79.3579 58.2045 79.5297 58.5254C79.5922 58.663 79.6703 58.7853 79.764 58.9228C79.764 58.9228 79.7796 58.9228 79.7796 58.9381L81.1387 58.128C81.3418 58.3267 81.5761 58.4032 81.8104 58.4032C82.326 58.4032 82.8258 58.0363 83.0133 57.7153C83.0289 57.6848 83.0445 57.6542 83.0602 57.6236C83.2164 57.3179 83.232 56.9664 83.232 56.6454C83.232 56.462 83.2164 56.2786 83.2164 56.1104C83.2164 55.9117 83.2164 55.7436 83.2633 55.6213C83.3414 55.3768 83.5444 55.2086 83.7631 55.1169C83.8413 55.0864 83.935 55.0711 84.0131 55.0711C84.1537 55.0711 84.2943 55.1169 84.4193 55.2086C84.7473 55.4379 84.7473 55.7895 84.7004 56.141C84.6536 56.5079 84.5911 56.8441 84.7942 57.1498C84.8098 57.1804 84.8254 57.1957 84.841 57.2262C84.9191 57.3179 85.0129 57.4097 85.1066 57.4861C85.1691 57.5319 85.4503 57.7306 85.4503 57.8071L85.3097 59.4272C86.1845 59.3661 87.153 59.1827 87.6217 58.4032C87.7154 58.2503 87.7935 58.0516 87.8404 57.8529C88.0122 57.2568 88.0903 56.5231 88.1841 55.4991C88.5746 55.3462 88.9183 55.1475 89.2151 54.8877C89.59 54.5667 89.8868 54.1693 90.0587 53.6649C90.5273 52.2893 90.9335 49.538 90.3086 46.6339C90.3086 46.6339 96.6041 45.8696 97.9632 45.1971C98.0882 44.2647 98.2132 43.3324 98.3381 42.4764ZM92.7924 7.01575C92.7924 7.01575 91.9333 7.52015 92.1051 8.31496C92.3863 8.89578 92.7456 9.49188 93.1986 10.0116L94.0734 9.15562C95.1044 8.22325 96.0105 7.88698 96.7603 7.88698C97.7445 7.88698 98.4319 8.49837 98.713 9.20147C99.1505 10.2714 99.1036 11.1274 98.9474 11.6776C98.8224 12.0903 98.4787 12.4266 97.6976 12.4877C97.557 12.503 97.4008 12.503 97.2446 12.503C95.6356 12.503 93.5267 11.9374 93.5267 11.9374C93.1986 13.6493 92.9955 13.9856 95.495 13.9856C96.073 13.9856 96.7916 13.9703 97.682 13.9398L95.1826 15.0555C94.9014 15.0403 94.6358 15.025 94.3702 15.025C92.5269 15.025 91.0585 15.5599 89.9024 16.4312C89.6369 16.6299 89.3869 16.8439 89.1526 17.0731C88.2622 17.9596 87.6217 19.0602 87.1687 20.2218C87.0437 20.5581 86.9343 20.8943 86.8406 21.2306C86.3563 23.0036 86.2939 24.8531 86.5438 26.3357C86.7313 26.1064 86.9187 25.8924 87.1374 25.6785L87.2468 25.5715C87.9966 24.8531 89.262 23.615 90.7773 22.8508C91.3396 22.3617 91.8708 21.8726 92.3863 21.3376C93.4954 20.1912 94.4796 18.9226 95.2138 17.4858C94.7608 19.0296 93.9953 20.5122 93.0893 21.8726C92.73 22.4075 92.355 22.9272 91.9645 23.4316C91.6208 23.5692 91.3084 23.722 90.996 23.9054C89.6681 24.6391 88.5434 25.7702 87.8873 26.4121C87.4967 26.779 87.1843 27.1917 86.8875 27.6196C86.6532 27.9559 86.4501 28.2922 86.2314 28.6437C86.0752 28.9035 85.9033 29.1787 85.7471 29.4385C85.0441 30.5543 84.1068 31.6548 83.5757 31.6548C83.3882 31.6548 83.2476 31.5172 83.1851 31.2115C82.904 29.8206 82.0135 29.2092 81.045 29.2092C80.592 29.2092 80.1233 29.3468 79.7015 29.5914L80.6701 30.4779C80.0921 31.1504 80.7013 32.1745 81.3262 32.5108C81.9979 32.8623 81.6386 33.4737 81.1543 33.4737C80.9981 33.4737 80.8419 33.4126 80.6857 33.275C80.2795 32.9082 79.7484 32.7247 79.2329 32.7247C78.1394 32.7247 77.0615 33.5501 77.2021 35.262L78.0456 34.8035C78.3268 35.7053 78.9829 36.0874 79.5922 36.0874C79.8734 36.0874 80.1389 36.011 80.342 35.8581C80.8107 35.5219 81.2949 35.1703 81.623 35.1703C81.7323 35.1703 81.8417 35.2162 81.9042 35.3079C82.1541 35.6441 81.8885 35.9804 80.9981 36.4084C79.4203 37.1726 79.1704 39.4195 81.498 39.8474L81.748 38.4565C81.8573 38.4871 81.9667 38.5024 82.076 38.5024C82.7477 38.5024 83.2164 37.9216 83.2945 37.4936C83.4038 36.8669 83.3726 36.4848 83.4038 36.0874C83.4195 35.7358 83.6538 35.583 83.8881 35.583C84.1693 35.583 84.4505 35.7817 84.4817 36.1332C84.5286 36.7905 84.513 37.6464 85.7002 37.8451L86.0751 39.0221C87.1999 38.64 88.3247 37.3713 86.2782 35.2314C86.247 34.1462 87.4186 33.5196 89.0589 32.6177C89.3401 32.4649 89.6369 32.2968 89.9337 32.1286C90.0899 32.0369 90.2461 31.9452 90.4023 31.8535C90.7304 31.6548 91.9957 30.753 93.1049 29.8206L94.0734 30.325C93.8703 30.4932 93.6516 30.6766 93.4017 30.8906C92.4019 31.7007 91.324 32.4955 90.9179 32.7247C90.8398 32.7706 90.7616 32.8165 90.6835 32.8623C91.7458 33.8252 92.8862 34.6659 93.9172 35.3384C94.339 35.6136 94.7451 35.8734 95.1201 36.1027C95.495 36.3319 95.8543 36.5307 96.1511 36.6988C96.979 37.1573 97.6352 37.7229 98.135 38.3648C98.4631 38.7775 98.713 39.2208 98.9005 39.664C99.088 40.092 99.2129 40.5353 99.2754 40.9785C99.3067 41.1314 99.3223 41.2689 99.3379 41.4218C99.3692 41.8345 99.3535 42.2319 99.3067 42.614C99.2442 43.0267 99.1973 43.4394 99.1348 43.8521C99.0567 44.4787 98.9942 45.0901 98.9474 45.7168C98.8849 46.4505 98.8536 47.1689 98.8536 47.8872C98.8536 50.0882 99.1973 51.6626 100.759 53.1605C101.884 54.2457 103.462 54.5055 104.993 54.6125C105.79 54.6584 108.024 54.9794 109.539 55.2086C110.414 55.3309 111.07 56.0493 111.117 56.9205C111.179 58.0975 111.163 59.6412 110.742 60.1609L108.68 59.8858C108.195 59.1827 107.039 58.6324 105.915 58.6324C105.04 58.6324 104.181 58.9687 103.696 59.8552C103.556 60.1151 103.431 60.4208 103.368 60.7876C103.353 60.8946 103.337 61.0016 103.321 61.1239L103.978 60.864L104.352 60.7112C104.368 60.8029 104.384 60.8793 104.399 60.9557C104.618 61.8422 105.087 62.1632 105.649 62.1632C105.915 62.1632 106.196 62.0868 106.493 61.9798C106.524 61.9645 106.555 61.9492 106.602 61.9339C107.133 61.72 107.508 61.5518 107.789 61.5518C107.977 61.5518 108.117 61.6283 108.242 61.8422C108.414 62.1327 108.242 62.3772 107.945 62.5759C107.852 62.637 107.727 62.6982 107.617 62.744C106.04 63.386 105.587 64.8839 107.039 66.443L108.133 65.4953C108.305 65.6023 108.477 65.6481 108.633 65.6481C109.164 65.6481 109.648 65.1743 109.773 64.8228C109.976 64.2878 109.758 63.6764 109.679 63.2332C109.664 63.1109 109.648 62.9886 109.664 62.8969C109.695 62.6523 109.867 62.4536 110.07 62.3466C110.164 62.3008 110.257 62.2702 110.367 62.2702C110.461 62.2702 110.554 62.2855 110.648 62.3314C110.742 62.3772 110.82 62.4383 110.882 62.5148C111.023 62.6829 111.054 62.9122 111.054 63.1414C111.054 63.2637 111.054 63.4013 111.07 63.5236C111.101 63.7376 111.163 63.9363 111.351 64.1044C111.445 64.1808 111.538 64.242 111.632 64.3031C111.695 64.3337 111.991 64.4712 112.007 64.5324L112.148 66.0303C113.241 65.7704 114.444 65.2507 114.147 63.5847C114.1 63.3096 114.007 62.9886 113.85 62.637C113.804 62.5148 113.741 62.3772 113.663 62.2396C114.616 61.7811 115.241 60.9099 115.397 59.8858C115.538 58.9534 115.381 55.6366 115.272 53.7413C115.225 52.9771 114.631 52.3504 113.866 52.2434C112.991 52.1211 111.866 51.953 111.039 51.7849C109.726 51.5097 108.461 50.9442 108.164 50.0271C107.914 49.2323 108.055 49.1406 108.133 48.3305C108.195 47.7038 108.273 47.0619 108.32 46.4352C108.32 46.3435 108.336 46.2365 108.336 46.1448C108.352 45.7779 108.336 45.3958 108.289 45.029C108.367 45.0748 108.445 45.1207 108.523 45.1665C108.773 45.3041 109.039 45.3958 109.305 45.4722C109.601 45.5487 109.898 45.5792 110.211 45.5792C110.867 45.5792 111.507 45.4111 112.085 45.0596C113.132 44.4329 113.741 43.3477 113.71 42.1554C113.663 40.0309 112.429 38.533 111.242 37.0809C110.679 36.3931 110.086 35.6747 109.648 34.9105C108.258 32.4649 107.93 29.8053 108.68 27.0082C109.008 25.7855 109.758 24.685 110.554 23.508C110.851 23.0648 111.132 22.6521 111.413 22.1935C111.413 22.1935 112.038 22.4687 112.444 22.3769C112.554 22.3464 112.663 22.3005 112.788 22.2241C113.741 21.6433 114.756 19.2741 114.71 16.4312C114.678 14.169 114.132 12.289 113.054 10.7452C113.288 11.3872 113.491 12.0597 113.616 12.7323C113.757 13.4659 113.804 14.2302 113.757 14.9638C113.71 15.7128 113.554 16.4312 113.304 17.1037C113.413 16.3853 113.413 15.6669 113.319 14.9638C113.226 14.2607 113.038 13.5882 112.773 12.9462C112.538 12.3807 112.257 11.8305 111.929 11.3108C112.148 12.6253 112.148 13.955 111.788 15.6058C111.57 16.6299 111.117 17.6081 110.726 18.464C110.367 19.2436 110.101 19.8702 109.992 20.3899C109.867 20.9555 109.945 21.3834 110.336 21.735C110.273 21.842 110.195 21.949 110.132 22.056C109.961 22.3158 109.773 22.5909 109.586 22.8661C108.773 24.0736 107.93 25.3116 107.555 26.7178C106.743 29.7748 107.117 32.8012 108.633 35.476C109.117 36.3319 109.742 37.0809 110.336 37.8146C111.445 39.1749 112.507 40.4588 112.554 42.2013C112.569 42.9961 112.179 43.6839 111.492 44.0966C110.773 44.5246 109.914 44.5552 109.18 44.2036C109.164 44.1883 109.133 44.1883 109.117 44.173C108.555 43.8826 108.055 43.3324 107.758 42.6904C107.742 42.6598 107.742 42.6293 107.727 42.5987C107.367 41.5746 106.93 40.5658 106.43 39.6029C104.962 36.7294 103.134 34.0392 101.978 31.0128C100.978 28.4144 101.431 25.2505 101.431 25.2505C102.447 25.6479 103.931 25.6937 103.931 25.6937C103.884 22.4534 110.992 14.9333 106.664 5.7624C106.368 6.23623 105.977 6.72534 105.43 7.22974L105.04 7.59657V6.2668C107.305 3.97408 106.258 1.78836 105.415 1.05469C104.774 1.28396 104.04 1.97177 103.493 2.81244L102.54 2.50674C102.775 2.12462 103.04 1.75779 103.337 1.42152C103.243 1.36038 103.15 1.31453 103.04 1.29924C102.993 1.29924 102.931 1.28396 102.853 1.28396C101.431 1.28396 96.0886 2.49146 95.5575 2.76658L95.1357 4.17278C93.6829 4.5549 92.3394 5.31914 91.3865 5.82354C91.4646 6.22094 91.902 7.12274 92.7924 7.01575ZM103.4 15.9879C103.79 14.9333 104.103 13.848 104.352 12.7475C104.227 13.8786 104.056 14.9944 103.79 16.1102C103.525 17.226 103.165 18.3112 102.743 19.3811C102.322 20.4511 101.837 21.4904 101.337 22.5145C100.931 23.3246 100.51 24.1194 100.088 24.9142C99.6972 24.7919 99.2286 24.5932 98.713 24.3028C99.9159 22.6062 101.072 20.879 102.04 19.0602C102.556 18.0666 103.025 17.0426 103.4 15.9879ZM99.291 17.654C99.0411 18.3876 98.7912 19.1366 98.4787 19.8702C98.1663 20.6039 97.7757 21.3223 97.3696 21.9948C97.1196 22.4075 96.8697 22.8202 96.6197 23.2329C96.0886 23.0495 95.5575 22.9425 95.042 22.9119C95.495 22.3922 95.9636 21.8573 96.401 21.3376C96.9009 20.7415 97.354 20.1454 97.7758 19.5187C98.1819 18.8767 98.5568 18.2042 98.9161 17.5164C99.2754 16.8286 99.6191 16.1255 99.9784 15.4377C99.7597 16.1713 99.5254 16.9203 99.291 17.654ZM98.9786 4.43262C97.8851 5.48727 97.5258 6.12923 97.5258 6.12923C96.073 6.19037 95.7606 5.28857 95.7606 4.40205C97.1821 4.78417 98.9786 4.43262 98.9786 4.43262ZM79.6078 7.673H41.4285V9.90457C41.944 9.95043 42.6001 10.1186 43.1781 10.516C43.8343 10.9898 44.2404 11.7235 44.256 12.4724V12.503H76.7334V12.4724C76.749 11.7235 77.1552 10.9898 77.8113 10.516C78.4049 10.088 79.0923 9.93514 79.6078 9.88929V7.673ZM49.4268 11.6929L46.2869 10.1644L49.4268 8.63594L52.5668 10.1644L49.4268 11.6929ZM60.5025 11.5248C58.9716 11.5248 57.7219 10.9134 57.7219 10.1644C57.7219 9.41546 58.9716 8.80407 60.5025 8.80407C62.0335 8.80407 63.2832 9.41546 63.2832 10.1644C63.2832 10.9134 62.0335 11.5248 60.5025 11.5248ZM71.5783 11.6929L68.4383 10.1644L71.5783 8.63594L74.7182 10.1644L71.5783 11.6929ZM38.9759 54.2457C39.0853 53.9553 39.2727 53.8483 39.5539 53.8483C39.8507 53.8483 40.2725 53.9553 40.8505 54.0776C41.038 54.1081 41.2098 54.1387 41.3817 54.1693C41.5223 54.1846 41.6629 54.1999 41.7878 54.1999C42.3971 54.1999 42.7876 53.9094 42.7876 52.7172L43.9592 52.9618C43.4281 51.1429 42.3502 50.4398 41.2254 50.4398C40.0694 50.4398 38.851 51.1887 38.1011 52.2128L37.6325 52.3657L36.8358 52.6714L35.1799 53.2216C33.5708 51.8919 34.3051 48.3916 34.3051 48.3916C34.3051 48.3916 37.445 46.6645 36.3984 42.828C36.3984 42.828 35.8516 39.2208 29.1343 39.2208C28.4157 39.2208 27.6346 39.2666 26.7754 39.3583C26.2599 39.4195 25.7913 39.4806 25.3695 39.557C25.3695 39.557 25.3695 39.5723 25.3539 39.5723C25.5101 39.9239 25.557 40.3213 25.4788 40.7034C25.3695 41.2995 24.9946 41.8039 24.4478 42.079C24.1823 42.2166 23.8854 42.293 23.573 42.293C23.2293 42.293 22.9013 42.2013 22.5888 42.0332C22.5888 42.2013 22.6045 42.3541 22.6201 42.507C22.7451 43.3629 22.87 44.28 22.9481 45.243C24.3072 45.9155 30.6027 46.6797 30.6027 46.6797C29.9935 49.5838 30.384 52.3351 30.8527 53.7107C31.0245 54.2151 31.3213 54.6125 31.6963 54.9335C31.9931 55.1934 32.3367 55.3921 32.7273 55.5449C32.8054 56.5537 32.8835 57.3027 33.071 57.8988C33.1178 58.1128 33.1959 58.2962 33.2897 58.449C33.7583 59.2285 34.7268 59.412 35.6017 59.4731L35.4611 57.8529C35.4611 57.7765 35.7579 57.5778 35.8047 57.5319C35.8985 57.4555 35.9922 57.3638 36.0703 57.2721C36.0859 57.2415 36.1016 57.2262 36.1172 57.1957C36.3203 56.8747 36.2578 56.5384 36.2109 56.1869C36.164 55.8353 36.164 55.4838 36.4921 55.2545C36.6171 55.1628 36.7577 55.1169 36.8983 55.1169C36.992 55.1169 37.0701 55.1322 37.1482 55.1628C37.3669 55.2392 37.57 55.4226 37.6481 55.6672C37.695 55.7895 37.695 55.9576 37.695 56.1563C37.695 56.3244 37.6793 56.5078 37.6793 56.6913C37.6793 57.0122 37.7106 57.3638 37.8512 57.6695C37.8668 57.7001 37.8824 57.7306 37.898 57.7612C38.0855 58.0669 38.5854 58.449 39.1009 58.449C39.3352 58.449 39.5696 58.3726 39.7726 58.1739L41.1317 58.984C41.1317 58.984 41.1473 58.984 41.1473 58.9687C41.2411 58.8311 41.3036 58.6936 41.3817 58.5713C41.5379 58.2503 41.6472 57.9599 41.7097 57.6695C41.9597 56.3856 41.1786 55.4532 39.8039 55.1475C39.2727 54.9794 38.8197 54.7042 38.9759 54.2457ZM90.1212 61.3226C89.7462 60.757 89.2932 60.3596 88.8714 60.0539C88.7152 59.9622 88.559 59.8858 88.3871 59.7941L87.9497 59.5801C87.1999 60.2068 86.1845 60.3596 85.4347 60.4055L84.2943 60.4819L84.388 59.3661L84.4817 58.2045C84.3568 58.0975 84.2318 57.9752 84.1068 57.8223C84.1068 57.8071 84.0912 57.8071 84.0912 57.7918C84.0443 57.9293 83.9818 58.0669 83.9037 58.1892C83.5601 58.77 82.7477 59.3508 81.8573 59.3508C81.623 59.3508 81.4043 59.305 81.1856 59.2285L80.6701 59.5342C80.7013 59.5648 80.7482 59.5954 80.7794 59.6259C82.4509 61.1391 83.7007 61.3073 85.8252 61.7811C87.2624 62.1021 88.6059 62.9122 89.0589 64.3642C89.3244 65.2049 89.2776 66.122 89.2307 66.9932C89.2307 66.9932 92.1676 65.3577 90.6054 62.1326C90.4804 61.9034 90.3086 61.613 90.1212 61.3226ZM70.0786 60.2068C69.1569 59.2897 68.1728 58.5102 67.1886 58.0516C66.3763 57.6695 65.564 57.4097 64.7985 57.2415C64.2986 57.1345 63.8143 57.0581 63.3613 57.0123C63.0957 56.9817 62.8458 56.9664 62.5958 56.9511C61.9397 56.9817 61.2368 56.997 60.5025 56.997C59.7683 56.997 59.0653 56.9817 58.4092 56.9511C58.1593 56.9664 57.9093 56.9817 57.6282 57.0123C57.1751 57.0581 56.6909 57.1345 56.191 57.2415C55.4255 57.4097 54.6132 57.6695 53.8009 58.0516C52.8167 58.5254 51.8325 59.2897 50.9109 60.2068C50.8484 60.2679 50.8015 60.3138 50.7546 60.3749C48.7551 62.4995 49.2862 64.5782 49.2862 64.5782C49.2862 64.5782 51.8482 61.2461 55.6755 61.2461C57.5032 61.2461 59.081 61.8422 59.8933 62.2396L60.4869 62.5453L61.0805 62.2396C61.8929 61.8575 63.4707 61.2461 65.2984 61.2461C69.1257 61.2461 71.6876 64.5782 71.6876 64.5782C71.6876 64.5782 72.2344 62.4995 70.2192 60.3749C70.188 60.329 70.1411 60.2679 70.0786 60.2068ZM50.2079 59.5342C51.7232 58.0363 53.3947 57.0887 54.91 56.5843C53.5353 56.3703 52.3637 56.0952 51.317 55.7742C51.2077 55.7742 51.0983 55.7589 50.989 55.7589C50.6609 55.7589 50.3329 55.7742 50.036 55.8048C49.1612 55.9117 48.3333 56.0646 47.5366 56.0646C45.4589 56.0646 43.6312 55.7589 42.1471 55.3615C42.3033 55.5602 42.4439 55.7742 42.5377 56.0187C42.772 56.5843 42.8189 57.2262 42.6783 57.8835C42.7407 57.8988 42.7876 57.9141 42.8501 57.9293C43.1313 57.9905 43.3969 58.0516 43.6156 58.0822C44.0373 58.1586 44.2873 58.1739 44.2873 58.1739C44.2873 58.1739 43.9124 58.3726 43.3812 58.7241C42.7407 59.1521 41.8816 59.7941 41.1473 60.5736C37.695 64.2878 41.5066 67.1002 41.5066 67.1002C41.5066 67.1002 40.6631 63.4471 42.4596 62.2855C45.3339 60.4513 46.8649 62.0257 50.0829 59.6259C50.1298 59.6259 50.161 59.5801 50.2079 59.5342ZM40.3194 59.5648L39.8039 59.2591C39.6008 59.3355 39.3665 59.3814 39.1322 59.3814C38.2261 59.3814 37.4138 58.8006 37.0857 58.2197C37.0076 58.0822 36.9451 57.9599 36.8983 57.8223C36.8983 57.8376 36.8826 57.8376 36.8826 57.8529C36.7577 58.0058 36.6327 58.128 36.5077 58.235L36.6014 59.3967L36.6952 60.5125L35.5548 60.436C34.805 60.3902 33.8052 60.2373 33.0397 59.6107L32.6023 59.8247C32.4305 59.9164 32.2743 59.9928 32.118 60.0845C31.6806 60.3902 31.2432 60.7876 30.8683 61.3531C30.6652 61.6435 30.509 61.9187 30.384 62.1938C28.8219 65.4189 31.7587 67.0543 31.7587 67.0543C31.7119 66.1831 31.6806 65.266 31.9306 64.4254C32.3836 62.9733 33.7271 62.1785 35.1643 61.8422C37.3044 61.3531 38.5385 61.2003 40.21 59.6871C40.2569 59.6259 40.2882 59.5954 40.3194 59.5648ZM77.6082 58.7547C77.0771 58.4032 76.7022 58.2045 76.7022 58.2045C76.7022 58.2045 76.9677 58.1739 77.3739 58.1128C77.5926 58.0822 77.8582 58.021 78.1394 57.9599C78.1862 57.9446 78.2487 57.9293 78.3112 57.9141C78.1706 57.2568 78.2175 56.6148 78.4518 56.0493C78.5455 55.82 78.6861 55.5908 78.8423 55.3921C77.3583 55.7895 75.5306 56.0952 73.4529 56.0952C72.6562 56.0952 71.8282 55.927 70.9534 55.8353C70.6566 55.8048 70.3285 55.7895 70.0005 55.7895C69.8911 55.7895 69.7974 55.7895 69.6881 55.7895C68.6414 56.1104 67.4542 56.3856 66.0951 56.5996C67.6104 57.104 69.2819 58.0363 70.7972 59.5495C70.8441 59.5954 70.8753 59.6259 70.9065 59.6718C74.1246 62.0715 75.6555 60.4972 78.5299 62.3314C80.3264 63.4777 79.4828 67.1461 79.4828 67.1461C79.4828 67.1461 83.2789 64.3337 79.8421 60.6195C79.1079 59.8246 78.2331 59.1674 77.6082 58.7547ZM115.116 63.5083C115.225 64.1655 115.163 64.7463 114.913 65.266C114.382 66.3665 113.21 66.7639 112.382 66.9779L111.273 67.253L111.163 66.1373L111.054 65.0979C110.96 65.0368 110.851 64.9603 110.757 64.8839C110.742 64.9756 110.71 65.0673 110.679 65.159C110.414 65.8774 109.57 66.6111 108.617 66.6111C108.523 66.6111 108.43 66.6111 108.336 66.5958L107.664 67.1766L106.946 67.8033L106.29 67.1002C105.368 66.122 104.993 65.0215 105.227 64.0127C105.305 63.6917 105.43 63.386 105.618 63.1109C105.04 63.1109 104.524 62.8969 104.134 62.4995C103.993 62.3466 103.853 62.1785 103.759 61.9798L103.696 61.9951L102.181 62.6065L102.353 61.0169C102.353 60.9557 102.368 60.9099 102.368 60.8487C101.697 60.9557 100.884 61.2003 99.8534 61.5824C99.7128 61.6588 99.5566 61.72 99.416 61.7658C99.3379 61.7964 99.2754 61.827 99.1973 61.8422C99.5254 62.0257 99.8534 62.2091 100.15 62.3925C101.634 63.3249 102.65 64.3337 103.181 65.3883C103.509 65.7246 103.868 66.0914 104.259 66.5041C105.868 68.1854 108.039 68.9649 110.273 68.9649C114.1 68.9649 118.053 66.6569 119.443 62.5912C119.427 62.6065 117.537 63.2332 115.116 63.5083ZM99.541 63.172C97.557 61.9492 95.37 61.2614 95.37 61.2614C95.7606 61.292 96.1199 61.3073 96.4635 61.3073C97.3227 61.3073 98.0257 61.2003 98.6037 61.0321C98.9318 60.9404 99.2286 60.8182 99.4785 60.6959C101.306 59.7788 101.369 58.1433 101.369 58.1433C99.9159 59.1063 98.6349 59.4425 97.4477 59.4425C95.9168 59.4425 94.5264 58.9076 93.1049 58.5102C92.6831 58.3879 92.2613 58.342 91.8552 58.342C90.6835 58.342 89.6681 58.77 89.0901 59.0757C89.8243 59.519 90.4492 60.0845 90.9335 60.8029C91.1209 61.0933 91.2928 61.3837 91.4334 61.6588C91.902 62.2855 92.1988 62.8357 92.6675 63.2026C93.7454 64.0891 95.245 64.2725 96.6041 64.3642C100.728 64.6699 102.415 68.3077 102.415 68.3077C102.759 67.467 102.697 66.6722 102.368 65.9538C101.853 64.8533 100.744 63.921 99.541 63.172ZM31.8837 59.0757C31.3057 58.77 30.3059 58.342 29.1187 58.342C28.7125 58.342 28.3064 58.3879 27.869 58.5102C26.4318 58.9076 25.0571 59.4425 23.5261 59.4425C22.3389 59.4425 21.0579 59.1215 19.6051 58.1433C19.6051 58.1433 19.6832 59.7788 21.4953 60.6959C21.7453 60.8182 22.0421 60.9404 22.3701 61.0321C22.9481 61.2003 23.6667 61.3073 24.5103 61.3073C24.854 61.3073 25.2133 61.292 25.6038 61.2614C25.6038 61.2614 23.4168 61.9492 21.4328 63.172C20.23 63.921 19.1208 64.8533 18.621 65.9538C18.2929 66.6722 18.2304 67.4518 18.5741 68.3077C18.5741 68.3077 20.2456 64.6699 24.3853 64.3642C25.7444 64.2572 27.2285 64.0738 28.322 63.2026C28.7906 62.8205 29.0874 62.2702 29.5561 61.6588C29.6967 61.3684 29.8685 61.0933 30.056 60.8029C30.5246 60.0845 31.1495 59.5037 31.8837 59.0757ZM7.32651 62.2549C7.26402 62.3925 7.20154 62.5301 7.13905 62.6523C6.99846 63.0039 6.88911 63.3096 6.84224 63.6C6.52981 65.266 7.7483 65.7857 8.84181 66.0456L8.98241 64.5476C8.99803 64.4865 9.29484 64.3489 9.35732 64.3184C9.45105 64.2572 9.56041 64.1961 9.63851 64.1197C9.82597 63.9515 9.88846 63.7528 9.9197 63.5389C9.93532 63.4166 9.93532 63.2943 9.93532 63.1567C9.95094 62.9275 9.98219 62.6982 10.1072 62.5301C10.1696 62.4536 10.2321 62.3925 10.3415 62.3466C10.4352 62.3008 10.5289 62.2855 10.6227 62.2855C10.732 62.2855 10.8258 62.3161 10.9195 62.3619C11.1226 62.4689 11.2944 62.6676 11.3256 62.9122C11.3413 63.0039 11.3256 63.1262 11.31 63.2484C11.2319 63.6917 11.0132 64.3031 11.2163 64.8381C11.3413 65.1896 11.8255 65.6634 12.3567 65.6634C12.5285 65.6634 12.6847 65.6176 12.8566 65.5106L13.9501 66.4582C15.4029 64.8992 14.9499 63.4013 13.3721 62.7593C13.2471 62.7135 13.1378 62.6523 13.044 62.5912C12.7472 62.3925 12.5754 62.1326 12.7472 61.8575C12.8722 61.6435 13.0128 61.5671 13.2002 61.5671C13.4814 61.5671 13.8407 61.7352 14.3875 61.9492C14.4187 61.9645 14.45 61.9798 14.4968 61.9951C14.7937 62.1021 15.0748 62.1785 15.3404 62.1785C15.9028 62.1785 16.3558 61.8575 16.5901 60.971C16.6058 60.8946 16.6214 60.8029 16.637 60.7265L17.0119 60.8793L17.668 61.1391C17.6524 61.0321 17.6368 60.9099 17.6212 60.8029C17.5587 60.436 17.4337 60.1303 17.2931 59.8705C16.8088 58.9993 15.9497 58.6477 15.0748 58.6477C13.9501 58.6477 12.7941 59.198 12.3098 59.9011L10.2478 60.1762C9.82597 59.6565 9.81035 58.128 9.87284 56.9358C9.9197 56.0646 10.5758 55.3615 11.4506 55.2239C12.9503 55.0099 15.1998 54.689 15.9965 54.6278C17.5118 54.5208 19.0896 54.261 20.23 53.1758C21.7921 51.6626 22.1358 50.0882 22.1358 47.9025C22.1358 47.1841 22.1046 46.4658 22.0421 45.7321C21.9952 45.1054 21.9171 44.4787 21.8546 43.8673C21.8078 43.4547 21.7453 43.042 21.6828 42.6293C21.6203 42.2472 21.6203 41.8345 21.6515 41.4371C21.6672 41.2842 21.6828 41.1467 21.714 40.9938C21.7921 40.5505 21.9171 40.1226 22.0889 39.6793C22.2764 39.2208 22.542 38.7928 22.8544 38.3801C23.3543 37.7381 24.0104 37.1726 24.8384 36.7141C25.1352 36.5459 25.4945 36.3472 25.8694 36.118C26.2443 35.8887 26.6505 35.6441 27.0723 35.3537C28.1033 34.6812 29.2437 33.8405 30.3059 32.8776C30.2278 32.8317 30.1497 32.7859 30.0716 32.74C29.6811 32.5108 28.6032 31.7312 27.5878 30.9059C27.3378 30.7072 27.1191 30.5237 26.916 30.3403L27.8846 29.8359C29.0093 30.7683 30.2591 31.6854 30.5871 31.8688C30.7433 31.9605 30.8996 32.0522 31.0558 32.1439C31.3526 32.3121 31.6494 32.4802 31.9306 32.633C33.5709 33.5501 34.7425 34.1768 34.7112 35.2467C32.6804 37.3866 33.7896 38.6552 34.9143 39.0374L35.2892 37.8604C36.4765 37.6617 36.4609 36.8058 36.5077 36.1485C36.539 35.797 36.8201 35.5983 37.1013 35.5983C37.3357 35.5983 37.57 35.7511 37.5856 36.1027C37.6169 36.4848 37.5856 36.8822 37.695 37.5089C37.7731 37.9368 38.2417 38.5177 38.9134 38.5177C39.0228 38.5177 39.1322 38.5024 39.2415 38.4718L39.4914 39.8627C41.8035 39.4348 41.5535 37.1879 39.9913 36.4237C39.1009 35.9804 38.8197 35.6594 39.0853 35.3232C39.1634 35.2162 39.2571 35.1856 39.3665 35.1856C39.6945 35.1856 40.1788 35.5371 40.6474 35.8734C40.8505 36.0263 41.1161 36.1027 41.3973 36.1027C42.0065 36.1027 42.6626 35.7206 42.9438 34.8188L43.7874 35.2773C43.928 33.5807 42.8501 32.74 41.7566 32.74C41.2411 32.74 40.7099 32.9234 40.3038 33.2903C40.1476 33.4278 39.9913 33.489 39.8351 33.489C39.3352 33.489 38.9916 32.8776 39.6633 32.526C40.3038 32.1898 40.913 31.1504 40.3194 30.4932L41.2879 29.6066C40.8505 29.3468 40.3819 29.2245 39.9445 29.2245C38.9759 29.2245 38.0855 29.8359 37.8043 31.2268C37.7418 31.5478 37.6012 31.6701 37.4138 31.6701C36.8826 31.6701 35.9453 30.5543 35.2424 29.4538C35.0705 29.194 34.9143 28.9188 34.7581 28.659C34.555 28.3074 34.3363 27.9712 34.102 27.6349C33.8052 27.2069 33.4927 26.7942 33.1022 26.4274C32.4461 25.7855 31.3057 24.6697 29.9935 23.9207C29.6811 23.7526 29.353 23.5844 29.025 23.4469C28.6344 22.9425 28.2439 22.4228 27.9002 21.8878C26.9785 20.5122 26.2131 19.0449 25.7757 17.5011C26.4942 18.9532 27.494 20.2218 28.6032 21.3529C29.1187 21.8878 29.6498 22.377 30.2122 22.8661C31.7275 23.6303 32.9929 24.8684 33.7427 25.5868L33.852 25.6937C34.0707 25.9077 34.2738 26.1217 34.4457 26.351C34.6956 24.8531 34.6331 23.0036 34.1488 21.2459C34.0551 20.9096 33.9458 20.5581 33.8208 20.2371C33.3678 19.0602 32.7273 17.9596 31.8368 17.0884C31.6025 16.8591 31.3526 16.6452 31.087 16.4465C29.931 15.5752 28.4626 15.0403 26.6192 15.0403C26.3537 15.0403 26.0881 15.0555 25.8069 15.0708L23.3074 13.955C24.1979 13.9703 24.9165 14.0009 25.4945 14.0009C27.9939 14.0009 27.7908 13.6646 27.4628 11.9527C27.4628 11.9527 25.3539 12.5183 23.7448 12.5183C23.5886 12.5183 23.4324 12.5183 23.2918 12.503C22.5107 12.4418 22.1671 12.1056 22.0421 11.6929C21.8859 11.1426 21.839 10.2867 22.2764 9.21676C22.5576 8.51366 23.245 7.90227 24.2291 7.90227C24.979 7.90227 25.885 8.25382 26.916 9.1709L27.7908 10.0269C28.2439 9.50717 28.6032 8.91106 28.8844 8.33024C29.0718 7.53543 28.197 7.03103 28.197 7.03103C29.0874 7.13803 29.5248 6.23623 29.6654 5.82354C28.7125 5.31914 27.3534 4.5549 25.9162 4.17278L25.4945 2.76658C24.9477 2.49146 19.6051 1.28396 18.1992 1.28396C18.1211 1.28396 18.0742 1.28396 18.0117 1.29924C17.9024 1.31453 17.793 1.36038 17.7149 1.42152C18.0117 1.7425 18.2773 2.10934 18.5116 2.50674L17.5587 2.81244C17.0275 1.97177 16.2933 1.26867 15.6372 1.05469C14.778 1.78836 13.747 3.97408 16.0121 6.2668V7.59657L15.6216 7.22974C15.0748 6.72534 14.6843 6.23623 14.3875 5.7624C10.0603 14.9333 17.1681 22.4534 17.1213 25.6937C17.1213 25.6937 18.6053 25.6479 19.6207 25.2505C19.6207 25.2505 20.0738 28.4144 19.074 31.0128C17.918 34.0392 16.0902 36.7294 14.6218 39.6029C14.1219 40.5811 13.6845 41.5746 13.3252 42.5987C13.3096 42.6293 13.3096 42.6598 13.294 42.6904C12.9972 43.3171 12.4973 43.8673 11.9349 44.173C11.9193 44.1883 11.888 44.1883 11.8724 44.2036C11.1382 44.5704 10.279 44.5246 9.5604 44.0966C8.85743 43.6839 8.48251 42.9808 8.49813 42.2013C8.545 40.4588 9.59165 39.1749 10.7164 37.8146C11.31 37.0809 11.9349 36.3319 12.4192 35.476C13.9345 32.8012 14.3094 29.7748 13.4971 26.7178C13.1221 25.3116 12.2786 24.0736 11.4662 22.8661C11.2788 22.5909 11.1069 22.3311 10.9195 22.056C10.8414 21.949 10.7789 21.842 10.7164 21.735C11.1069 21.3834 11.1851 20.9555 11.0601 20.3899C10.9507 19.8702 10.6695 19.2436 10.3259 18.464C9.93532 17.6081 9.48229 16.6299 9.26359 15.6058C8.90429 13.955 8.9043 12.6253 9.123 11.3108C8.79495 11.8305 8.51375 12.3807 8.27943 12.9462C8.01386 13.5882 7.8264 14.2607 7.73267 14.9638C7.63894 15.6669 7.63894 16.3853 7.74829 17.1037C7.49835 16.4312 7.34213 15.6975 7.29527 14.9638C7.2484 14.2149 7.29527 13.4659 7.43586 12.7323C7.56084 12.0597 7.74829 11.3872 7.99824 10.7452C6.92035 12.289 6.37359 14.169 6.34235 16.4312C6.31111 19.2741 7.31089 21.6586 8.26381 22.2241C8.38878 22.3005 8.49813 22.3464 8.60749 22.3769C9.01365 22.4687 9.63851 22.1935 9.63851 22.1935C9.9197 22.6521 10.2009 23.0648 10.4977 23.508C11.2944 24.685 12.0442 25.8007 12.3723 27.0082C13.1065 29.8053 12.7941 32.4649 11.4038 34.9105C10.9664 35.6747 10.3883 36.3931 9.81035 37.0809C8.62311 38.533 7.389 40.0309 7.34213 42.1554C7.31089 43.3477 7.92013 44.4329 8.96678 45.0596C9.52916 45.3958 10.1853 45.5792 10.8414 45.5792C11.1382 45.5792 11.4506 45.5334 11.7474 45.4722C12.013 45.3958 12.2786 45.3041 12.5285 45.1665C12.6066 45.1207 12.6847 45.0748 12.7628 45.029C12.716 45.3958 12.7003 45.7779 12.716 46.1448C12.716 46.2365 12.7316 46.3435 12.7316 46.4352C12.7785 47.0619 12.8722 47.7038 12.9191 48.3305C12.9972 49.1406 13.1378 49.2323 12.8878 50.0271C12.591 50.9442 11.3256 51.4944 10.0134 51.7849C9.18549 51.9683 8.06073 52.1364 7.18592 52.2434C6.40483 52.3504 5.82683 52.9771 5.77997 53.7413C5.67062 55.6213 5.5144 58.9534 5.655 59.8858C5.74873 60.9251 6.37359 61.7964 7.32651 62.2549ZM25.2289 4.40205C25.2289 5.27329 24.9008 6.19037 23.4637 6.12923C23.4637 6.12923 23.0887 5.48727 22.0108 4.43262C21.9952 4.43262 23.7917 4.78417 25.2289 4.40205ZM22.0577 17.5164C22.417 18.2042 22.7919 18.8767 23.1981 19.5187C23.6199 20.1607 24.0729 20.7568 24.5728 21.3376C25.0102 21.8573 25.4788 22.3922 25.9319 22.9119C25.4164 22.9425 24.9008 23.0495 24.3541 23.2329C24.1041 22.8202 23.8542 22.4075 23.6042 21.9948C23.1981 21.3223 22.8232 20.6039 22.4951 19.8702C22.1827 19.1366 21.9171 18.4029 21.6828 17.654C21.4328 16.9203 21.2141 16.1713 20.9954 15.4224C21.3547 16.1255 21.6984 16.8286 22.0577 17.5164ZM19.652 22.5145C19.1365 21.4904 18.6522 20.4511 18.246 19.3811C17.8242 18.3112 17.4806 17.2107 17.1994 16.1102C16.9338 14.9944 16.7464 13.8786 16.637 12.7475C16.8869 13.848 17.1994 14.9333 17.5899 15.9879C17.9805 17.0426 18.4491 18.0666 18.9646 19.0602C19.9332 20.879 21.0892 22.6062 22.292 24.3028C21.7765 24.5932 21.3079 24.7919 20.9173 24.9142C20.4799 24.1194 20.0581 23.3246 19.652 22.5145ZM49.1925 4.52433H50.2704C50.5516 5.41085 51.0046 6.1598 51.567 6.71005H53.754C53.2072 6.40436 52.7073 5.89996 52.3168 5.22743C51.7232 4.23392 51.3795 2.96528 51.3639 1.65079H48.2708C48.2552 2.96528 47.9115 4.23392 47.3179 5.22743C46.9117 5.89996 46.4275 6.40436 45.8807 6.71005H47.9271C48.4583 6.1598 48.9113 5.41085 49.1925 4.52433ZM42.8813 6.71005H43.1157C42.5689 6.40436 42.069 5.89996 41.6785 5.22743C41.0849 4.23392 40.7412 2.96528 40.7256 1.65079H38.3042C38.2886 1.78836 38.2886 1.92592 38.2886 2.07877C38.2573 4.58547 40.3819 6.71005 42.8813 6.71005ZM59.9714 4.52433H61.0493C61.3305 5.41085 61.7835 6.1598 62.3459 6.71005H64.6735C64.1268 6.40436 63.6425 5.89996 63.2363 5.22743C62.6427 4.23392 62.299 2.96528 62.2834 1.65079H58.9091C58.8935 2.96528 58.5498 4.23392 57.9562 5.22743C57.5501 5.89996 57.0658 6.40436 56.519 6.71005H58.7061C59.2372 6.1598 59.6902 5.41085 59.9714 4.52433ZM20.8392 62.4078C21.136 62.2244 21.4485 62.0409 21.7921 61.8575C21.714 61.827 21.6515 61.7964 21.5734 61.7811C21.4172 61.72 21.2766 61.6588 21.136 61.5977C20.105 61.2003 19.2927 60.971 18.621 60.864C18.621 60.9252 18.6366 60.971 18.6366 61.0321L18.8084 62.6218L17.2931 62.0104L17.2306 61.9951C17.1213 62.1938 16.9963 62.3619 16.8557 62.5148C16.4652 62.9122 15.9496 63.1262 15.3716 63.1262C15.5591 63.4013 15.6841 63.707 15.7622 64.028C15.9965 65.0368 15.606 66.1373 14.6999 67.1155L14.0438 67.8186L13.3252 67.1919L12.6535 66.6111C12.5598 66.6264 12.466 66.6264 12.3723 66.6264C11.4194 66.6264 10.5758 65.8927 10.3102 65.1743C10.279 65.0826 10.2478 64.9909 10.2321 64.8992C10.1384 64.9756 10.0291 65.052 9.93532 65.1132L9.82597 66.1525L9.71662 67.2683L8.60749 66.9932C7.77954 66.7945 6.60792 66.3818 6.07678 65.2813C5.82683 64.7616 5.76435 64.1808 5.8737 63.5236C3.45235 63.2484 1.54651 62.6218 1.54651 62.6218C2.93683 66.7028 6.8891 68.9955 10.7164 68.9955C12.9503 68.9955 15.1373 68.216 16.7307 66.5347C17.1213 66.1373 17.4649 65.7551 17.8086 65.4189C18.3398 64.3489 19.3552 63.3401 20.8392 62.4078ZM70.9222 4.52433H72.0001C72.2813 5.41085 72.7343 6.1598 73.2966 6.71005H75.4368C74.8901 6.40436 74.3902 5.89996 73.9996 5.22743C73.406 4.23392 73.0623 2.96528 73.0467 1.65079H69.8443C69.8286 2.96528 69.485 4.23392 68.8914 5.22743C68.4852 5.89996 68.0009 6.38907 67.4542 6.71005H69.6412C70.188 6.1598 70.641 5.41085 70.9222 4.52433ZM33.2272 17.1801C33.7739 17.8832 34.227 18.678 34.5706 19.5034L36.3359 17.8527C36.1484 17.3788 36.0859 16.8286 36.1484 16.263C36.1484 16.2325 36.164 16.2019 36.164 16.156L37.1013 16.5993C37.0701 17.2871 37.3357 18.0055 37.9761 18.3418C38.1792 18.4488 38.3511 18.4946 38.5854 18.4946C38.5854 18.4946 38.5854 18.4946 38.601 18.4946L38.5698 17.654C38.8822 17.654 39.304 17.333 39.304 16.8897C39.304 16.3853 38.9759 16.1102 38.5698 15.9879V15.0097C39.3509 15.1473 39.9289 15.6058 40.1632 16.2325L41.1942 16.2478C41.2411 15.4835 40.8662 14.7957 40.0694 14.5359V13.5423C40.7412 13.6799 41.1786 14.0009 41.4442 14.2913C41.5223 14.3677 41.5847 14.4594 41.6629 14.5511L42.4439 14.5664C42.4752 13.8328 42.1003 13.1755 41.3973 12.9462V11.9527C41.8347 12.0444 42.2096 12.2126 42.5377 12.4877H43.2719C43.2563 12.0139 42.9751 11.5553 42.5845 11.2649C42.2565 11.0356 41.8347 10.8981 41.4129 10.8369C41.2567 10.8217 41.0849 10.8064 40.9286 10.8064C40.7568 10.8064 40.6006 10.8217 40.4287 10.8522C40.007 10.9134 39.5852 11.0815 39.2259 11.3108C38.601 11.7235 38.0074 12.1973 37.4294 12.6711C36.4921 13.4354 35.586 14.2454 34.6019 14.9638C34.2894 15.1931 33.3365 15.8962 32.5867 16.4617C32.821 16.7063 33.0241 16.9356 33.2272 17.1801ZM33.7739 9.96571C33.9145 9.23204 33.5396 8.69708 32.8054 8.52894C32.7741 8.52894 32.7429 8.51366 32.7117 8.51366C32.8835 9.14033 32.8054 9.82815 32.3836 10.5007C32.0712 10.9745 31.5869 11.3413 30.9777 11.5553C31.1807 11.5859 31.3838 11.5859 31.5713 11.5859C32.8679 11.5859 33.5709 11.0662 33.7739 9.96571Z" fill="white"/>
<path d="M60.5026 11.5244C62.0383 11.5244 63.2832 10.9154 63.2832 10.1641C63.2832 9.41276 62.0383 8.80371 60.5026 8.80371C58.9669 8.80371 57.7219 9.41276 57.7219 10.1641C57.7219 10.9154 58.9669 11.5244 60.5026 11.5244Z" fill="#CC0000"/>
<path d="M52.5511 10.1649L49.4268 8.62109L46.2869 10.1649L49.4268 11.6933L52.5511 10.1649Z" fill="#CC0000"/>
<path d="M74.7181 10.1649L71.5782 8.62109L68.4539 10.1649L71.5782 11.6933L74.7181 10.1649Z" fill="#CC0000"/>
<path d="M119.131 61.7046C119.099 61.7199 117.272 62.3007 114.96 62.5606C115.709 61.9339 116.209 61.0474 116.366 60.0386C116.475 59.2744 116.444 57.1345 116.241 53.7107C116.178 52.4879 115.225 51.4791 113.991 51.3263C112.835 51.1734 111.882 51.0206 111.242 50.883C109.914 50.5926 109.195 50.1188 109.101 49.7825C108.976 49.4157 108.992 49.3698 109.039 49.0336C109.055 48.8807 109.086 48.6973 109.117 48.4527C109.148 48.1776 109.164 47.9178 109.211 47.6274C109.258 47.2758 109.289 46.909 109.32 46.5421C109.32 46.5269 109.32 46.4963 109.32 46.481C109.617 46.5421 109.929 46.5727 110.226 46.5727C111.054 46.5727 111.882 46.3587 112.601 45.9155C113.944 45.1054 114.725 43.7145 114.694 42.1707C114.632 39.7251 113.241 38.0132 112.007 36.5153C111.445 35.8275 110.898 35.1703 110.507 34.4825C109.242 32.2509 108.945 29.8359 109.633 27.2833C109.914 26.2287 110.617 25.174 111.367 24.0735C111.523 23.8442 111.679 23.5997 111.835 23.3704C111.945 23.3857 112.054 23.401 112.163 23.401C112.632 23.401 113.022 23.2481 113.304 23.08C115.1 21.9948 115.725 18.4487 115.694 16.4617C115.647 12.3042 113.975 9.30843 110.617 7.30612L109.461 6.61831L109.898 7.87166C110.914 10.7605 111.46 12.5488 110.82 15.4529C110.617 16.3853 110.211 17.2718 109.82 18.1277C109.211 19.4728 108.617 20.772 109.133 21.8267C109.008 22.0101 108.883 22.2088 108.758 22.3922C107.899 23.6608 107.008 24.9753 106.602 26.5344C105.727 29.8359 106.133 33.1068 107.774 35.9956C108.289 36.9127 108.945 37.7075 109.57 38.4718C110.617 39.7557 111.538 40.8562 111.57 42.2777C111.585 42.8738 111.195 43.1948 110.976 43.3323C110.539 43.5922 110.023 43.6075 109.57 43.3782C109.211 43.1948 108.867 42.8279 108.648 42.4C108.305 41.4065 107.867 40.3671 107.274 39.2207C106.743 38.1814 106.165 37.1573 105.602 36.1638C104.571 34.3296 103.587 32.6024 102.868 30.7224C102.322 29.2703 102.259 27.6043 102.29 26.5344C103.072 26.6719 103.759 26.7025 103.884 26.7025L104.899 26.7331L104.884 25.7396C104.868 24.9906 105.477 23.6914 106.165 22.1782C108.055 18.0819 110.914 11.9068 107.242 4.82999C107.211 4.78413 107.196 4.723 107.164 4.67714C107.321 4.18803 107.367 3.74477 107.352 3.37794C107.336 2.01759 106.649 0.947656 106.024 0.397404L105.587 0.0152848L105.04 0.198702C104.681 0.32098 104.337 0.534967 103.993 0.794808C103.759 0.580821 103.462 0.427974 103.118 0.382119C103.025 0.366835 102.931 0.366835 102.806 0.366835C101.291 0.366835 95.7762 1.58962 95.0576 1.95645L94.6827 2.13987L94.5577 2.53727L94.2922 3.43907C93.0737 3.83648 91.9645 4.43258 91.1366 4.87584C91.0272 4.93698 90.9179 4.99812 90.8085 5.04398L90.1837 5.38024L90.3243 6.06806C90.3399 6.17505 90.8867 8.86517 92.4801 10.6841L92.5582 10.7605C92.1676 10.7911 91.8239 10.8216 91.5115 10.8216C90.5586 10.8216 89.8088 10.5465 89.4495 9.99624C88.8871 9.1403 89.2932 8.22321 89.9493 7.74938C89.5901 7.59653 89.2464 7.50482 88.8246 7.50482C88.5746 7.50482 88.2935 7.53539 87.981 7.61182C86.7313 7.88694 86.0283 8.91102 86.2626 10.1491C86.5282 11.6317 87.5905 12.5488 89.4338 12.5488C89.8088 12.5488 90.1993 12.5182 90.6367 12.4418C91.2616 12.3348 91.902 12.1514 92.5425 11.9527C92.5425 11.9833 92.5269 11.9985 92.5269 12.0291C92.3707 12.8851 92.2301 13.6187 92.7144 14.2148C91.3709 14.4594 90.1524 15.0096 89.1214 15.835C88.2778 15.2084 87.1374 14.3677 86.9656 14.2301C86.2939 13.741 85.669 13.206 84.9973 12.6558C84.7317 12.4265 84.4505 12.1973 84.1693 11.968C83.5913 11.4942 82.9665 11.005 82.2947 10.5465C81.7949 10.2102 81.2169 9.99624 80.592 9.91982V7.21441C82.5759 6.35847 83.9663 4.38673 83.9663 2.13987C83.9663 1.63547 83.9038 1.16164 83.7632 0.7031H79.561C79.5922 0.978226 79.6078 1.25335 79.6078 1.54376C79.6078 3.98933 78.3581 6.14448 76.8116 6.14448C75.265 6.14448 74.0153 3.98933 74.0153 1.54376C74.0153 1.25335 74.0309 0.978226 74.0622 0.7031H68.7977C68.8289 0.978226 68.8445 1.25335 68.8445 1.54376C68.8445 3.98933 67.5948 6.14448 66.0482 6.14448C64.5017 6.14448 63.252 3.98933 63.252 1.54376C63.252 1.25335 63.2676 0.978226 63.2989 0.7031H57.8625C57.8938 0.978226 57.9094 1.25335 57.9094 1.54376C57.9094 3.98933 56.6596 6.14448 55.1131 6.14448C53.5666 6.14448 52.3168 3.98933 52.3168 1.54376C52.3168 1.25335 52.3325 0.978226 52.3637 0.7031H47.2242C47.2554 0.978226 47.2711 1.25335 47.2711 1.54376C47.2711 3.98933 46.0213 6.14448 44.4748 6.14448C42.9282 6.14448 41.6785 3.98933 41.6785 1.54376C41.6785 1.25335 41.6941 0.978226 41.7254 0.7031H37.4607C37.3357 1.14636 37.2732 1.6049 37.2732 2.07873C37.2732 4.24917 38.5698 6.19033 40.4288 7.10742V9.91982C39.8039 9.99624 39.1947 10.2102 38.6792 10.5618C38.0074 11.005 37.3826 11.5094 36.8046 11.9833C36.5234 12.2125 36.2578 12.4418 35.9766 12.6711C35.3049 13.2213 34.68 13.7563 34.0083 14.2454C33.8364 14.3677 32.6961 15.2084 31.8525 15.8503C30.8215 15.0249 29.6186 14.4747 28.2595 14.2301C28.7438 13.6187 28.6032 12.8851 28.447 12.0444C28.447 12.0291 28.4314 11.9985 28.4314 11.968C29.0719 12.182 29.7123 12.3501 30.3372 12.4571C30.7746 12.5335 31.1652 12.5641 31.5401 12.5641C33.3834 12.5641 34.4457 11.647 34.7113 10.1644C34.9456 8.92631 34.2426 7.90223 32.9929 7.6271C32.6805 7.56596 32.3993 7.52011 32.1493 7.52011C31.7275 7.52011 31.3839 7.61182 31.0246 7.76467C31.6807 8.23849 32.0868 9.15558 31.5244 10.0115C31.1651 10.5771 30.3997 10.8369 29.4624 10.8369C29.1343 10.8369 28.7907 10.8063 28.447 10.7452L28.5251 10.6688C30.1185 8.84988 30.6653 6.17505 30.6809 6.05277L30.8215 5.36496L30.1966 5.02869C30.0873 4.96755 29.9779 4.9217 29.8686 4.86056C29.025 4.4173 27.9315 3.82119 26.713 3.42379L26.4474 2.52199L26.3224 2.12458L25.9475 1.94117C25.2289 1.57433 19.7145 0.35155 18.1992 0.35155C18.0898 0.35155 17.9805 0.35155 17.8868 0.366835C17.5431 0.412689 17.2463 0.565537 17.012 0.779524C16.6683 0.504398 16.309 0.305696 15.9653 0.183417L15.4186 0L14.9655 0.35155C14.3407 0.901802 13.6533 1.97174 13.6377 3.33208C13.6377 3.69892 13.6845 4.14217 13.8251 4.63129C13.7939 4.69243 13.7627 4.73828 13.747 4.78413C10.076 11.861 12.9347 18.036 14.8249 22.1324C15.5123 23.6303 16.1215 24.9295 16.1059 25.6937L16.0903 26.6872L17.1057 26.6566C17.215 26.6566 17.9024 26.6261 18.6991 26.4885C18.7303 27.5585 18.6835 29.2398 18.1211 30.6765C17.4025 32.5566 16.4183 34.2838 15.3873 36.1179C14.8249 37.1114 14.2469 38.1355 13.7158 39.1749C13.1378 40.3212 12.6848 41.3606 12.3411 42.3541C12.1224 42.7821 11.7943 43.1489 11.4194 43.3323C10.9664 43.5616 10.4509 43.5463 10.0135 43.2865C9.77914 43.1489 9.40422 42.8279 9.41984 42.2318C9.45108 40.8256 10.3571 39.7098 11.4194 38.4259C12.0443 37.6617 12.6848 36.8822 13.2159 35.9498C14.8562 33.061 15.2623 29.79 14.3875 26.4885C13.9814 24.9295 13.0909 23.615 12.2317 22.3463C12.1068 22.1629 11.9818 21.9642 11.8568 21.7808C12.3723 20.7262 11.7943 19.4269 11.1695 18.0819C10.7789 17.2259 10.3728 16.3394 10.1697 15.4071C9.52919 12.4877 10.076 10.7146 11.0914 7.8258L11.5288 6.57245L10.3728 7.26027C7.01411 9.26257 5.3426 12.2584 5.29573 16.4158C5.26449 18.4029 5.90498 21.9642 7.68584 23.0342C7.96703 23.2023 8.34195 23.3551 8.82622 23.3551C8.93557 23.3551 9.0293 23.3399 9.15427 23.3246C9.31049 23.5538 9.46671 23.7984 9.62292 24.0277C10.3728 25.1282 11.0757 26.1828 11.3569 27.2375C12.0287 29.79 11.7318 32.2203 10.4821 34.4366C10.0916 35.1244 9.56044 35.7817 8.98244 36.4695C7.74833 37.9674 6.358 39.664 6.29551 42.1248C6.26427 43.6533 7.04535 45.0595 8.38881 45.8696C9.10741 46.3129 9.93536 46.5269 10.7633 46.5269C11.0757 46.5269 11.3725 46.4963 11.6694 46.4351C11.6694 46.4504 11.6694 46.481 11.6694 46.4963C11.7006 46.8631 11.7318 47.23 11.7787 47.5815C11.81 47.8719 11.8412 48.1318 11.8724 48.4069C11.8881 48.6514 11.9193 48.8349 11.9505 48.9877C11.9974 49.3087 12.013 49.3698 11.8881 49.7367C11.7787 50.0729 11.0757 50.5468 9.7479 50.8372C9.10741 50.9747 8.15449 51.1276 6.99849 51.2804C5.76438 51.4486 4.81146 52.4574 4.74897 53.6648C4.56151 57.0886 4.51465 59.2285 4.624 59.9927C4.78022 61.0015 5.28011 61.8881 6.02995 62.5147C3.71795 62.2549 1.87459 61.6588 1.85897 61.6588L0 61.0474L0.624865 62.8663C1.35908 65.0062 2.74941 66.8098 4.67087 68.0784C6.45173 69.2553 8.59189 69.8973 10.7164 69.8973C13.3096 69.8973 15.6685 68.9496 17.3713 67.2224C17.3869 67.6963 17.4806 68.1548 17.6681 68.6286L18.5273 70.7227L19.4802 68.6745C19.5427 68.5522 20.9955 65.5564 24.4635 65.2966C25.9475 65.1896 27.6347 64.9756 28.9469 63.9056C28.9469 63.9056 28.9469 63.9056 28.9625 63.9056C28.9625 64.2572 28.9937 64.5935 29.0875 64.9297C29.5561 66.825 31.2276 67.788 31.2901 67.8186L32.8367 68.6898L32.7429 66.9473C32.7117 66.1984 32.6648 65.3424 32.8835 64.6393C33.2741 63.3707 34.6332 62.8969 35.3986 62.7134C35.5861 62.6676 35.7735 62.6217 35.9454 62.5912C37.2107 62.316 38.2417 62.0868 39.304 61.4754C38.851 62.3466 38.6635 63.2331 38.7573 64.1349C38.976 66.3818 40.8506 67.788 40.9287 67.8491L43.0688 69.4235L42.4752 66.8709C42.2565 65.8927 42.0847 63.6611 43.0063 63.0803C44.1467 62.3466 45.0059 62.2549 46.0057 62.1479C46.8336 62.0562 47.7241 61.9492 48.7707 61.5059C47.9584 63.2637 48.3021 64.7005 48.3333 64.7769L48.8332 66.718L50.0673 65.1131C50.083 65.0826 52.3949 62.1632 55.6755 62.1632C58.05 62.1632 59.9714 63.3095 59.9871 63.3248L60.5026 63.6305L61.0181 63.3248C61.0337 63.3095 62.9552 62.1632 65.3297 62.1632C68.6102 62.1632 70.9222 65.0979 70.9378 65.1131L72.1719 66.718L72.6718 64.7769C72.6875 64.7005 73.0467 63.2637 72.2344 61.5059C73.2811 61.9492 74.1715 62.0562 74.9994 62.1479C75.9992 62.2549 76.874 62.3619 77.9988 63.0803C78.9205 63.6764 78.7643 65.8927 78.5299 66.8709L77.9363 69.4235L80.0765 67.8491C80.1546 67.788 82.0292 66.3818 82.2479 64.1349C82.3416 63.2331 82.1542 62.3466 81.7011 61.4754C82.7634 62.0715 83.7944 62.3007 85.0598 62.5912C85.2316 62.637 85.4191 62.6676 85.6065 62.7134C86.372 62.8816 87.7311 63.3707 88.1216 64.6393C88.3403 65.3424 88.2935 66.1984 88.2622 66.9473L88.1685 68.6898L89.715 67.8186C89.7931 67.7727 91.4646 66.825 91.9177 64.9297C91.9958 64.5935 92.0426 64.2419 92.0426 63.9056C92.0426 63.9056 92.0426 63.9056 92.0583 63.9056C93.3705 64.9756 95.0576 65.1743 96.5417 65.2966C100.01 65.5564 101.462 68.5522 101.525 68.6745L102.478 70.7227L103.337 68.6286C103.525 68.1548 103.634 67.681 103.634 67.2224C105.337 68.9496 107.696 69.8973 110.289 69.8973C112.413 69.8973 114.553 69.2553 116.334 68.0784C118.256 66.8098 119.662 65.0062 120.38 62.8663L121.005 61.0474L119.131 61.7046ZM89.4182 11.5859C88.106 11.5859 87.4186 11.0662 87.2156 9.96567C87.075 9.232 87.4499 8.69704 88.1841 8.5289C88.2154 8.5289 88.2466 8.51362 88.2778 8.51362C88.106 9.1403 88.1841 9.82811 88.6059 10.5006C88.9183 10.9745 89.4026 11.3413 90.0118 11.5553C89.8088 11.5706 89.6057 11.5859 89.4182 11.5859ZM32.368 10.5006C32.8054 9.8434 32.8679 9.1403 32.6961 8.51362C32.7273 8.51362 32.7586 8.5289 32.7898 8.5289C33.524 8.68175 33.8989 9.232 33.7583 9.96567C33.5553 11.0662 32.8523 11.5859 31.5557 11.5859C31.3682 11.5859 31.1651 11.5706 30.9621 11.5553C31.5713 11.3413 32.0556 10.9898 32.368 10.5006ZM89.1683 17.0578C89.4026 16.8285 89.6525 16.6146 89.9181 16.4158C91.0741 15.5446 92.5425 15.0096 94.3859 15.0096C94.6515 15.0096 94.917 15.0249 95.1982 15.0402L97.6977 13.9244C96.8072 13.9397 96.0886 13.9703 95.5106 13.9703C93.0112 13.9703 93.2143 13.634 93.5423 11.9221C93.5423 11.9221 95.6512 12.4877 97.2603 12.4877C97.4165 12.4877 97.5727 12.4877 97.7133 12.4724C98.4944 12.4112 98.8381 12.075 98.963 11.6623C99.1192 11.112 99.1661 10.2561 98.7287 9.18615C98.4475 8.48305 97.7602 7.87166 96.776 7.87166C96.0262 7.87166 95.1201 8.22321 94.0891 9.1403L93.2143 9.99624C92.7612 9.47656 92.4019 8.88045 92.1208 8.29963C91.9333 7.50482 92.8081 7.00043 92.8081 7.00043C91.9177 7.10742 91.4803 6.20562 91.3397 5.79293C92.2926 5.28853 93.6517 4.52429 95.0889 4.14217L95.5106 2.73597C96.0574 2.46085 101.4 1.25335 102.806 1.25335C102.884 1.25335 102.931 1.25335 102.993 1.26864C103.103 1.28392 103.212 1.32978 103.29 1.39091C102.993 1.71189 102.728 2.07873 102.494 2.47613L103.446 2.78183C103.978 1.94117 104.712 1.23807 105.368 1.02408C106.227 1.75775 107.258 3.94347 104.993 6.23619V7.56596L105.384 7.19913C105.93 6.69473 106.321 6.20562 106.618 5.73179C110.945 14.9027 103.837 22.4228 103.884 25.6631C103.884 25.6631 102.4 25.6173 101.384 25.2199C101.384 25.2199 100.931 28.3838 101.931 30.9822C103.087 34.0086 104.915 36.6987 106.383 39.5723C106.883 40.5505 107.321 41.544 107.68 42.5681C107.696 42.5987 107.696 42.6292 107.711 42.6598C108.008 43.2865 108.508 43.8367 109.07 44.1424C109.086 44.1577 109.117 44.1577 109.133 44.173C109.867 44.5398 110.726 44.494 111.445 44.066C112.148 43.6533 112.523 42.9502 112.507 42.1707C112.46 40.4282 111.413 39.1443 110.289 37.784C109.695 37.0503 109.07 36.3013 108.586 35.4454C107.071 32.7706 106.696 29.7442 107.508 26.6872C107.883 25.281 108.727 24.043 109.539 22.8355C109.726 22.5603 109.898 22.3005 110.086 22.0254C110.164 21.9184 110.226 21.8114 110.289 21.7044C109.898 21.3528 109.82 20.9249 109.945 20.3593C110.054 19.8396 110.336 19.213 110.679 18.4334C111.07 17.5775 111.523 16.5993 111.742 15.5752C112.101 13.9244 112.101 12.5947 111.882 11.2802C112.21 11.7998 112.491 12.3501 112.726 12.9156C112.991 13.5576 113.179 14.2301 113.272 14.9332C113.366 15.6363 113.366 16.3547 113.257 17.0731C113.507 16.4006 113.663 15.6669 113.71 14.9332C113.757 14.1843 113.71 13.4353 113.569 12.7016C113.444 12.0291 113.257 11.3566 113.007 10.7146C114.085 12.2584 114.632 14.1384 114.663 16.4006C114.694 19.2435 113.694 21.628 112.741 22.1935C112.616 22.2699 112.507 22.3158 112.398 22.3463C111.991 22.4381 111.367 22.1629 111.367 22.1629C111.085 22.6215 110.804 23.0342 110.507 23.4774C109.711 24.6543 108.961 25.7701 108.633 26.9776C107.899 29.7747 108.211 32.4343 109.601 34.8799C110.039 35.6441 110.617 36.3625 111.195 37.0503C112.382 38.5023 113.616 40.0003 113.663 42.1248C113.694 43.3171 113.085 44.4023 112.038 45.0289C111.476 45.3652 110.82 45.5486 110.164 45.5486C109.867 45.5486 109.554 45.5028 109.258 45.4416C108.992 45.3652 108.727 45.2735 108.477 45.1359C108.398 45.0901 108.32 45.0442 108.242 44.9984C108.289 45.3652 108.305 45.7473 108.289 46.1142C108.289 46.2059 108.274 46.3129 108.274 46.4046C108.227 47.0313 108.133 47.6732 108.086 48.2999C108.008 49.11 107.867 49.2017 108.117 49.9965C108.414 50.9136 109.679 51.4638 110.992 51.7543C111.82 51.9377 112.944 52.1058 113.819 52.2128C114.6 52.3198 115.178 52.9465 115.225 53.7107C115.334 55.5907 115.491 58.9228 115.35 59.8552C115.194 60.8793 114.585 61.7505 113.616 62.209C113.679 62.3466 113.741 62.4842 113.804 62.6064C113.944 62.958 114.054 63.2637 114.1 63.5541C114.413 65.2201 113.194 65.7398 112.101 65.9997L111.96 64.5018C111.945 64.4406 111.648 64.3031 111.585 64.2725C111.492 64.2113 111.382 64.1502 111.304 64.0738C111.117 63.9056 111.054 63.7069 111.023 63.493C111.007 63.3707 111.007 63.2484 111.007 63.1108C110.992 62.8816 110.96 62.6523 110.835 62.4842C110.773 62.4077 110.71 62.3466 110.601 62.3007C110.507 62.2549 110.414 62.2396 110.32 62.2396C110.211 62.2396 110.117 62.2702 110.023 62.316C109.82 62.423 109.648 62.6217 109.617 62.8663C109.601 62.958 109.617 63.0803 109.633 63.2026C109.711 63.6458 109.929 64.2572 109.726 64.7922C109.601 65.1437 109.117 65.6175 108.586 65.6175C108.414 65.6175 108.258 65.5717 108.086 65.4647L106.993 66.4124C105.54 64.8533 105.993 63.3554 107.571 62.7134C107.696 62.6676 107.805 62.6064 107.899 62.5453C108.195 62.3466 108.367 62.0868 108.195 61.8116C108.07 61.5976 107.93 61.5212 107.742 61.5212C107.461 61.5212 107.102 61.6894 106.555 61.9033C106.524 61.9186 106.493 61.9339 106.446 61.9492C106.149 62.0562 105.868 62.1326 105.602 62.1326C105.04 62.1326 104.587 61.8116 104.352 60.9251C104.337 60.8487 104.321 60.757 104.306 60.6806L103.931 60.8334L103.275 61.0932C103.29 60.9863 103.306 60.864 103.321 60.757C103.384 60.3901 103.509 60.0845 103.65 59.8246C104.134 58.9534 104.993 58.6018 105.868 58.6018C106.993 58.6018 108.149 59.1521 108.633 59.8552L110.695 60.1303C111.117 59.6106 111.132 58.0821 111.07 56.8899C111.023 56.0187 110.367 55.3156 109.492 55.178C107.992 54.9641 105.743 54.6431 104.946 54.5819C103.431 54.4749 101.853 54.2151 100.713 53.1299C99.1505 51.6167 98.8068 50.0424 98.8068 47.8566C98.8068 47.1382 98.838 46.4199 98.9005 45.6862C98.9474 45.0595 99.0255 44.4328 99.088 43.8215C99.1349 43.4088 99.1974 42.9961 99.2598 42.5834C99.3223 42.2013 99.3223 41.7886 99.2911 41.3912C99.2755 41.2383 99.2598 41.1008 99.2286 40.9479C99.1505 40.5047 99.0255 40.0767 98.8537 39.6334C98.6662 39.1749 98.4006 38.7469 98.0882 38.3342C97.5883 37.6923 96.9322 37.1267 96.1043 36.6682C95.8075 36.5 95.4482 36.3013 95.0732 36.0721C94.6983 35.8428 94.2922 35.5982 93.8704 35.3078C92.8394 34.6353 91.699 33.7946 90.6367 32.8317C90.7148 32.7858 90.7929 32.74 90.871 32.6941C91.2616 32.4649 92.3395 31.6853 93.3549 30.86C93.6048 30.6613 93.8235 30.4778 94.0266 30.2944L93.058 29.79C91.9333 30.7224 90.6836 31.6395 90.3555 31.8229C90.1993 31.9146 90.0431 32.0063 89.8869 32.098C89.59 32.2662 89.2932 32.4343 89.0121 32.5871C87.3718 33.5042 86.2002 34.1309 86.2314 35.2008C88.2622 37.3407 87.1531 38.6093 86.0283 38.9915L85.6534 37.8145C84.4662 37.6158 84.4818 36.7599 84.4349 36.1026C84.4037 35.7511 84.1225 35.5524 83.8413 35.5524C83.607 35.5524 83.3726 35.7052 83.357 36.0568C83.3258 36.4389 83.357 36.8363 83.2477 37.463C83.1696 37.891 82.7009 38.4718 82.0292 38.4718C81.9198 38.4718 81.8105 38.4565 81.7011 38.4259L81.4512 39.8168C79.1392 39.3889 79.3891 37.142 80.9513 36.3778C81.8417 35.9345 82.1229 35.6135 81.8573 35.2773C81.7792 35.1856 81.6855 35.1397 81.5762 35.1397C81.2481 35.1397 80.7638 35.4912 80.2952 35.8275C80.0921 35.9804 79.8265 36.0568 79.5453 36.0568C78.9361 36.0568 78.28 35.6747 77.9988 34.7729L77.2021 35.2467C77.0615 33.5501 78.1394 32.7094 79.2329 32.7094C79.7484 32.7094 80.2796 32.8928 80.6857 33.2597C80.8419 33.3972 80.9982 33.4584 81.1544 33.4584C81.6543 33.4584 81.9979 32.847 81.3262 32.4954C80.6857 32.1592 80.0765 31.1198 80.6701 30.4626L79.7016 29.576C80.139 29.3162 80.6076 29.1939 81.045 29.1939C82.0136 29.1939 82.904 29.8053 83.1852 31.1962C83.2477 31.5172 83.3883 31.6395 83.5757 31.6395C84.1069 31.6395 85.0442 30.5237 85.7471 29.4232C85.919 29.1634 86.0752 28.8882 86.2314 28.6284C86.4345 28.2768 86.6532 27.9406 86.8875 27.6043C87.1843 27.1763 87.4968 26.7636 87.8873 26.3968C88.5434 25.7548 89.6838 24.6391 90.996 23.8901C91.3084 23.722 91.6365 23.5538 91.9645 23.4163C92.3551 22.9119 92.7456 22.3922 93.0893 21.8572C94.011 20.4816 94.7764 19.0143 95.2138 17.4705C94.4952 18.9226 93.4955 20.1912 92.3863 21.3223C91.8708 21.8572 91.3397 22.3463 90.7773 22.8355C89.262 23.5997 87.9966 24.8378 87.2468 25.5561L87.1374 25.6631C86.9187 25.8771 86.7157 26.0911 86.5438 26.3204C86.2939 24.8225 86.3564 22.973 86.8406 21.2153C86.9344 20.879 87.0437 20.5275 87.1687 20.2065C87.6217 19.0448 88.2778 17.9443 89.1683 17.0578ZM95.0108 10.9898C95.6044 10.7911 96.198 10.6382 96.7604 10.6382C97.229 10.6382 97.6664 10.7452 98.0726 10.9745C98.057 11.1579 98.0257 11.3107 98.0101 11.3872C98.0101 11.4024 98.0101 11.4024 98.0101 11.4024C98.0101 11.4024 97.932 11.4789 97.6196 11.5094C97.5102 11.5247 97.3852 11.5247 97.2446 11.5247C96.6354 11.5247 95.948 11.433 95.3388 11.326C94.7296 11.2343 93.8079 11.0356 93.8079 11.0356C93.7142 10.5465 93.7923 10.0268 93.9797 10.0421C94.1984 10.088 94.3546 10.6076 95.0108 10.9898ZM94.3703 10.2255L94.7452 9.84339C95.6825 9.01802 96.3542 8.8346 96.7448 8.8346C97.4477 8.8346 97.7289 9.36957 97.7914 9.5377C97.8539 9.69055 97.9008 9.8434 97.9476 9.98096C97.5727 9.81283 97.1665 9.75169 96.7448 9.75169C95.9949 9.75169 95.1982 9.98096 94.3703 10.2255ZM100.838 57.3485C99.6816 58.1127 98.6037 58.4796 97.4633 58.4796C96.4011 58.4796 95.37 58.1739 94.2765 57.8376C93.9797 57.7459 93.6829 57.6542 93.3705 57.5778C92.8862 57.4402 92.3707 57.379 91.8552 57.379C90.6055 57.379 89.5276 57.7765 88.8246 58.128C88.9027 57.8682 89.1526 56.8899 89.1526 56.141C90.0743 55.6366 90.7148 54.9182 91.0272 53.9858C91.4959 52.5949 91.8708 50.1341 91.4959 47.4745C92.2301 47.3828 93.2768 47.23 94.3234 47.0618C95.4638 46.8784 96.4011 46.695 97.0884 46.5269C97.4165 46.4504 97.6821 46.374 97.9164 46.2976C97.8851 46.8326 97.8695 47.3675 97.8695 47.9025C97.8695 49.2323 97.9945 50.2258 98.2757 51.097C98.6194 52.1364 99.1974 53.0382 100.057 53.8636C101.431 55.1933 103.275 55.4837 104.899 55.5907C105.477 55.6366 107.071 55.8353 109.367 56.1715C109.773 56.2327 110.101 56.569 110.117 56.9816C110.179 58.0822 110.132 58.7394 110.07 59.1062L109.164 58.9839C108.414 58.1891 107.133 57.6695 105.883 57.6695C104.306 57.6695 103.118 58.4796 102.587 59.8552C102.306 59.8858 101.994 59.9316 101.681 60.008C102.275 59.1215 102.322 58.2961 102.337 58.1891L102.415 56.2785L100.838 57.3485ZM85.1379 57.5166C85.0442 57.4402 84.9504 57.3485 84.8723 57.2568C84.8567 57.2262 84.8411 57.2109 84.8255 57.1803C84.6224 56.8594 84.6849 56.5231 84.7317 56.1715C84.7786 55.82 84.7786 55.4685 84.4505 55.2392C84.3256 55.1475 84.185 55.1016 84.0444 55.1016C83.9506 55.1016 83.8725 55.1169 83.7944 55.1475C83.5757 55.2239 83.3726 55.4073 83.2945 55.6519C83.2477 55.7741 83.2477 55.9423 83.2477 56.141C83.2477 56.3091 83.2633 56.4925 83.2633 56.676C83.2633 56.9969 83.232 57.3485 83.0915 57.6542C83.0758 57.6847 83.0602 57.7153 83.0446 57.7459C82.8571 58.0516 82.3572 58.4337 81.8417 58.4337C81.6074 58.4337 81.3731 58.3573 81.17 58.1586L79.8109 58.9687C79.8109 58.9687 79.7953 58.9687 79.7953 58.9534C79.7016 58.8158 79.6391 58.6783 79.561 58.556C79.4047 58.235 79.2954 57.9446 79.2329 57.6542C78.983 56.3703 79.764 55.4379 81.1387 55.1322C81.7011 55.0099 82.1542 54.7195 81.9823 54.2762C81.873 53.9858 81.6855 53.8788 81.4043 53.8788C81.1075 53.8788 80.6857 53.9858 80.1077 54.1081C79.9203 54.1387 79.7484 54.1692 79.5766 54.1998C79.436 54.2151 79.2954 54.2304 79.1704 54.2304C78.5612 54.2304 78.1706 53.94 78.1706 52.7478L76.999 52.9923C77.5302 51.1734 78.608 50.4703 79.7328 50.4703C80.8888 50.4703 82.1073 51.2193 82.8571 52.2434L83.3258 52.3962L84.1537 52.6713L85.8096 53.2216C87.4186 51.8918 86.6844 48.3916 86.6844 48.3916C86.6844 48.3916 83.5445 46.6644 84.5911 42.8279C84.5911 42.8279 85.1379 39.2207 91.8552 39.2207C92.5738 39.2207 93.3549 39.2666 94.214 39.3583C94.7296 39.4194 95.1982 39.4806 95.62 39.557C95.62 39.557 95.62 39.5723 95.6356 39.5723C95.4794 39.9238 95.4325 40.3212 95.5106 40.7034C95.62 41.2995 95.9949 41.8039 96.5417 42.079C96.8072 42.2166 97.1041 42.293 97.4165 42.293C97.7602 42.293 98.0882 42.2013 98.4006 42.0331C98.4006 42.2013 98.385 42.3541 98.3694 42.507C98.2444 43.3629 98.1195 44.28 98.0414 45.2429C96.6823 45.9155 90.3868 46.6797 90.3868 46.6797C90.996 49.5838 90.6055 52.3351 90.1368 53.7107C89.965 54.2151 89.6682 54.6125 89.2932 54.9335C88.9964 55.1933 88.6527 55.392 88.2622 55.5449C88.1841 56.5537 88.106 57.3026 87.9185 57.8987C87.8717 58.1127 87.7936 58.2961 87.6998 58.449C87.2312 59.2285 86.2626 59.4119 85.3878 59.4731L85.5284 57.8529C85.4816 57.7612 85.2004 57.5625 85.1379 57.5166ZM87.3718 34.9563C87.6373 34.5436 88.5278 34.0698 89.4495 33.5501C89.5588 33.4889 89.6838 33.4278 89.8087 33.3514C89.9806 33.5042 90.1524 33.6571 90.3243 33.8099C90.746 34.1768 91.1835 34.5283 91.6209 34.8646L91.6365 34.8799L93.7923 37.0809C94.3546 37.6617 94.7452 38.1049 95.0108 38.4718L91.8708 38.2578C90.3243 38.2578 89.0745 38.4412 88.0591 38.7316C88.1997 38.5176 88.3091 38.2731 88.3716 38.0285C88.6215 36.8669 88.0435 35.7817 87.3718 34.9563ZM96.2917 38.7011C96.1043 38.3495 95.8075 37.9062 95.3076 37.3101C95.4325 37.3866 95.5731 37.463 95.6825 37.5241C96.4323 37.9368 96.9947 38.4412 97.4165 38.9915C97.7445 39.4194 97.9632 39.878 98.1351 40.3212C98.1976 40.4894 98.2444 40.6728 98.2757 40.8409C98.0882 41.1313 97.7602 41.3147 97.4165 41.3147C97.2759 41.3147 97.1353 41.2842 96.9947 41.2078C96.4792 40.9479 96.2761 40.2754 96.6354 39.7557C96.6666 39.7098 96.6979 39.664 96.7448 39.6181C96.5885 39.3583 96.4792 39.0679 96.2917 38.7011ZM81.7324 11.3413C82.3572 11.754 82.9509 12.2278 83.5289 12.7016C84.4662 13.4659 85.3722 14.276 86.3564 14.9944C86.6688 15.2236 87.6217 15.9267 88.3716 16.4923C88.1529 16.7215 87.9498 16.9508 87.7467 17.1954C87.1999 17.8985 86.7469 18.6933 86.4032 19.5187L84.638 17.8832C84.8255 17.4094 84.8879 16.8591 84.8255 16.2936C84.8255 16.263 84.8098 16.2324 84.8098 16.1866L83.8725 16.6298C83.9038 17.3177 83.6382 18.036 82.9977 18.3723C82.7946 18.4793 82.6228 18.5251 82.3885 18.5251C82.3885 18.5251 82.3885 18.5251 82.3729 18.5251L82.4041 17.6845C82.0917 17.6845 81.6699 17.3635 81.6699 16.9202C81.6699 16.4158 81.9979 16.1407 82.4041 16.0184V15.0402C81.623 15.1778 81.045 15.6363 80.8107 16.263L79.7797 16.2783C79.7328 15.514 80.1077 14.8262 80.9044 14.5664V13.5729C80.2327 13.7104 79.7953 14.0314 79.5297 14.3218C79.4516 14.3983 79.3891 14.49 79.311 14.5817L78.5299 14.597C78.4987 13.8633 78.8736 13.206 79.5766 12.9768V11.9833C79.1392 12.075 78.7643 12.2431 78.4362 12.5182H77.702C77.7176 12.0444 77.9988 11.5859 78.3893 11.2954C78.733 11.0509 79.1704 10.9133 79.6078 10.8675C79.7484 10.8522 79.889 10.8369 80.0296 10.8369C80.2171 10.8369 80.4045 10.8522 80.5764 10.8828C80.9982 10.9592 81.3887 11.112 81.7324 11.3413ZM79.6391 5.22739C80.2327 4.23388 80.5764 2.96525 80.592 1.65076H82.9509C82.9665 1.81889 82.9821 1.97174 82.9821 2.13987C82.9821 4.66186 80.92 6.71002 78.3737 6.71002H78.2019C78.7486 6.38904 79.2329 5.89992 79.6391 5.22739ZM68.8758 5.22739C69.4694 4.23388 69.8131 2.96525 69.8287 1.65076H73.0311C73.0467 2.96525 73.3904 4.23388 73.984 5.22739C74.3902 5.89992 74.8745 6.40432 75.4212 6.71002H73.2811C72.7343 6.15976 72.2813 5.41081 71.9845 4.52429H70.9066C70.6254 5.41081 70.1724 6.15976 69.61 6.71002H67.423C67.9853 6.38904 68.4852 5.89992 68.8758 5.22739ZM57.9562 5.22739C58.5499 4.23388 58.8935 2.96525 58.9092 1.65076H62.2834C62.2991 2.96525 62.6427 4.23388 63.2364 5.22739C63.6425 5.89992 64.1268 6.38904 64.6736 6.71002H62.3459C61.7992 6.15976 61.3461 5.41081 61.0493 4.52429H59.9714C59.6902 5.41081 59.2372 6.15976 58.6748 6.71002H56.4878C57.0502 6.38904 57.5501 5.89992 57.9562 5.22739ZM47.3023 5.22739C47.8959 4.23388 48.2396 2.96525 48.2552 1.65076H51.3483C51.3639 2.96525 51.7076 4.23388 52.3012 5.22739C52.7074 5.89992 53.1917 6.40432 53.7384 6.71002H51.5514C51.0046 6.15976 50.5516 5.41081 50.2548 4.52429H49.1769C48.8957 5.41081 48.4427 6.15976 47.8803 6.71002H45.8339C46.4119 6.38904 46.9118 5.89992 47.3023 5.22739ZM38.2574 2.06344C38.2574 1.92588 38.2574 1.78832 38.273 1.63547H40.6943C40.71 2.94996 41.0536 4.2186 41.6473 5.21211C42.0534 5.88464 42.5377 6.38904 43.0845 6.69473H42.8501C40.3819 6.71002 38.2574 4.58543 38.2574 2.06344ZM34.6175 14.9791C35.6017 14.2607 36.5077 13.4659 37.445 12.6864C38.023 12.2125 38.6167 11.7387 39.2415 11.326C39.6008 11.0815 40.007 10.9286 40.4444 10.8675C40.6006 10.8369 40.7725 10.8216 40.9443 10.8216C41.1005 10.8216 41.2567 10.8369 41.4286 10.8522C41.8503 10.9133 42.2721 11.0356 42.6002 11.2802C42.9907 11.5553 43.2719 12.0138 43.2875 12.5029H42.5533C42.2253 12.2431 41.8347 12.0597 41.4129 11.968V12.9615C42.1315 13.1908 42.5065 13.848 42.4596 14.5817L41.6785 14.5664C41.616 14.4747 41.5379 14.3983 41.4598 14.3065C41.1942 14.0314 40.7412 13.7104 40.0851 13.5576V14.5511C40.8662 14.8109 41.2411 15.4988 41.2099 16.263L40.1788 16.2477C39.9445 15.6058 39.3665 15.1625 38.5854 15.0249V16.0032C38.9916 16.1254 39.3196 16.4006 39.3196 16.905C39.3196 17.3482 38.9135 17.6692 38.5854 17.6692L38.6167 18.5099C38.6167 18.5099 38.6167 18.5099 38.601 18.5099C38.3823 18.5099 38.1949 18.4487 37.9918 18.357C37.3513 18.0208 37.1014 17.2871 37.117 16.6146L36.1797 16.1713C36.1797 16.2019 36.1641 16.2324 36.1641 16.2783C36.086 16.8438 36.1641 17.3941 36.3515 17.8679L34.5863 19.5187C34.2426 18.6933 33.7896 17.9138 33.2428 17.1954C33.0397 16.9508 32.8367 16.7063 32.618 16.4923C33.3522 15.9115 34.3051 15.2084 34.6175 14.9791ZM5.59254 59.901C5.45195 58.9687 5.60816 55.6519 5.71752 53.7566C5.76438 52.9923 6.358 52.3656 7.12346 52.2587C7.99827 52.1364 9.12303 51.9682 9.95098 51.8001C11.2632 51.525 12.5285 50.9594 12.8254 50.0424C13.0753 49.2475 12.9347 49.1558 12.8566 48.3457C12.7941 47.7191 12.716 47.0771 12.6691 46.4504C12.6691 46.3587 12.6535 46.2517 12.6535 46.16C12.6379 45.7932 12.6535 45.4111 12.7004 45.0442C12.6223 45.0901 12.5442 45.1359 12.4661 45.1818C12.2161 45.3194 11.9505 45.4111 11.685 45.4875C11.3882 45.5639 11.0914 45.5945 10.7789 45.5945C10.1228 45.5945 9.48233 45.4264 8.90433 45.0748C7.85768 44.4481 7.24844 43.3629 7.27968 42.1707C7.32654 40.0461 8.56065 38.5482 9.7479 37.0962C10.3103 36.4083 10.9039 35.69 11.3413 34.9257C12.7316 32.4801 13.0597 29.8206 12.3098 27.0235C11.9818 25.8007 11.2319 24.7002 10.4352 23.5233C10.1384 23.08 9.85725 22.6673 9.57606 22.2088C9.57606 22.2088 8.95119 22.4839 8.54503 22.3922C8.43568 22.3616 8.32633 22.3158 8.20136 22.2393C7.24844 21.6585 6.23303 19.2894 6.27989 16.4464C6.31114 14.1843 6.8579 12.3042 7.93579 10.7605C7.70146 11.4024 7.49838 12.075 7.37341 12.7475C7.23281 13.4812 7.18595 14.2454 7.23281 14.9791C7.27968 15.728 7.4359 16.4464 7.68584 17.1189C7.57649 16.4006 7.57649 15.6822 7.67022 14.9791C7.76395 14.276 7.95141 13.6034 8.21698 12.9615C8.4513 12.396 8.73249 11.8457 9.06054 11.326C8.84184 12.6405 8.84184 13.9703 9.20114 15.621C9.41984 16.6451 9.87287 17.6233 10.2634 18.4793C10.6227 19.2588 10.8883 19.8855 10.9976 20.4052C11.1226 20.9707 11.0445 21.3987 10.654 21.7502C10.7164 21.8572 10.7945 21.9642 10.857 22.0712C11.0289 22.3311 11.2163 22.6062 11.4038 22.8813C12.2161 24.0888 13.0597 25.3269 13.4346 26.7331C14.2469 29.79 13.872 32.8164 12.3567 35.4912C11.8724 36.3472 11.2476 37.0962 10.654 37.8298C9.54482 39.1902 8.48254 40.4741 8.43568 42.2165C8.42006 43.0114 8.8106 43.6992 9.49795 44.1119C10.2165 44.5398 11.0757 44.5704 11.81 44.2189C11.8256 44.2036 11.8568 44.2036 11.8724 44.1883C12.4348 43.8979 12.9347 43.3476 13.2315 42.7057C13.2471 42.6751 13.2471 42.6445 13.2628 42.614C13.6221 41.5899 14.0595 40.5811 14.5594 39.6181C16.0278 36.7446 17.8555 34.0545 19.0115 31.0281C20.0113 28.4297 19.5583 25.2657 19.5583 25.2657C18.5429 25.6631 17.0588 25.709 17.0588 25.709C17.1057 22.4686 9.99784 14.9485 14.325 5.77765C14.6218 6.25147 15.0124 6.74059 15.5591 7.24498L15.9497 7.61182V6.28204C13.6845 3.98933 14.7312 1.8036 15.5748 1.06993C16.2153 1.29921 16.9495 1.98702 17.4962 2.82768L18.4491 2.52199C18.2148 2.13987 17.9493 1.77303 17.6524 1.43677C17.7462 1.37563 17.8399 1.32978 17.9493 1.31449C17.9961 1.31449 18.0586 1.29921 18.1367 1.29921C19.5583 1.29921 24.9009 2.5067 25.432 2.78183L25.9007 4.17274C27.3535 4.55486 28.6969 5.3191 29.6498 5.8235C29.4936 6.2209 29.0562 7.12271 28.1814 7.031C28.1814 7.031 29.0406 7.53539 28.8688 8.3302C28.5876 8.91102 28.2283 9.50713 27.7753 10.0268L26.9004 9.17087C25.8694 8.23849 24.9634 7.90223 24.2135 7.90223C23.2294 7.90223 22.542 8.51362 22.2608 9.21672C21.8234 10.2867 21.8703 11.1426 22.0265 11.6929C22.1515 12.1055 22.4951 12.4418 23.2762 12.5029C23.4168 12.5182 23.573 12.5182 23.7293 12.5182C25.3383 12.5182 27.4472 11.9527 27.4472 11.9527C27.7753 13.6646 27.9783 14.0009 25.4789 14.0009C24.9009 14.0009 24.1823 13.9856 23.2918 13.955L25.7913 15.0708C26.0725 15.0555 26.3381 15.0402 26.6036 15.0402C28.447 15.0402 29.9154 15.5752 31.0714 16.4464C31.337 16.6451 31.5869 16.8591 31.8213 17.0884C32.7117 17.9749 33.3522 19.0754 33.8052 20.237C33.9302 20.5733 34.0395 20.9096 34.1333 21.2458C34.6175 23.0189 34.68 24.8683 34.4301 26.351C34.2426 26.1217 34.0552 25.9077 33.8364 25.6937L33.7271 25.5867C32.9773 24.8683 31.7119 23.6303 30.1966 22.866C29.6342 22.3769 29.1031 21.8878 28.5876 21.3528C27.4784 20.2065 26.4943 18.9378 25.7601 17.5011C26.2131 19.0448 26.9786 20.5275 27.8846 21.8878C28.2439 22.4228 28.6188 22.9424 29.0094 23.4468C29.353 23.5844 29.6655 23.7373 29.9779 23.9207C31.3057 24.6543 32.4305 25.7854 33.0866 26.4274C33.4772 26.7942 33.7896 27.2069 34.0864 27.6349C34.3207 27.9711 34.5238 28.3074 34.7425 28.659C34.8987 28.9188 35.0706 29.1939 35.2268 29.4538C35.9298 30.5696 36.867 31.6701 37.3982 31.6701C37.5856 31.6701 37.7262 31.5325 37.7887 31.2268C38.0699 29.8359 38.9603 29.2245 39.9289 29.2245C40.3819 29.2245 40.8506 29.3621 41.2723 29.6066L40.3038 30.4931C40.8818 31.1657 40.2726 32.1897 39.6477 32.526C38.976 32.8776 39.3353 33.4889 39.8195 33.4889C39.9758 33.4889 40.132 33.4278 40.2882 33.2902C40.6943 32.9234 41.2255 32.74 41.741 32.74C42.8345 32.74 43.9124 33.5654 43.7718 35.2773L42.9282 34.8187C42.647 35.7205 41.9909 36.1026 41.3817 36.1026C41.1005 36.1026 40.8349 36.0262 40.6319 35.8734C40.1632 35.5371 39.6789 35.1856 39.3509 35.1856C39.2415 35.1856 39.1322 35.2314 39.0697 35.3231C38.8198 35.6594 39.0853 35.9956 39.9757 36.4236C41.5535 37.1879 41.8035 39.4347 39.4759 39.8627L39.2259 38.4718C39.1166 38.5023 39.0072 38.5176 38.8979 38.5176C38.2261 38.5176 37.7575 37.9368 37.6794 37.5088C37.57 36.8822 37.6013 36.5 37.57 36.1026C37.5544 35.7511 37.3201 35.5982 37.0857 35.5982C36.8046 35.5982 36.5234 35.7969 36.4921 36.1485C36.4453 36.8057 36.4609 37.6617 35.2736 37.8604L34.8987 39.0373C33.774 38.6552 32.6492 37.3866 34.6956 35.2467C34.7269 34.1615 33.5553 33.5348 31.915 32.633C31.6338 32.4801 31.337 32.312 31.0402 32.1439C30.884 32.0522 30.7277 31.9605 30.5715 31.8688C30.2435 31.6701 28.9781 30.7683 27.869 29.8359L26.9004 30.3403C27.1035 30.5084 27.3222 30.6918 27.5722 30.9058C28.572 31.7159 29.6499 32.5107 30.056 32.74C30.1341 32.7858 30.2122 32.8317 30.2903 32.8776C29.2281 33.8405 28.0877 34.6812 27.0567 35.3537C26.6349 35.6288 26.2287 35.8887 25.8538 36.1179C25.4789 36.3472 25.1196 36.5459 24.8228 36.714C23.9948 37.1726 23.3387 37.7381 22.8388 38.3801C22.5108 38.7928 22.2608 39.236 22.0734 39.6793C21.8859 40.1072 21.7609 40.5505 21.6984 40.9938C21.6672 41.1466 21.6516 41.2842 21.636 41.437C21.6047 41.8497 21.6203 42.2471 21.6672 42.6292C21.7297 43.0419 21.7765 43.4546 21.839 43.8673C21.9171 44.494 21.9796 45.1054 22.0265 45.732C22.089 46.4657 22.1202 47.1841 22.1202 47.9025C22.1202 50.1035 21.7766 51.6778 20.2144 53.1757C19.0896 54.261 17.5118 54.5208 15.9809 54.6278C15.1842 54.6736 12.9503 54.9946 11.435 55.2239C10.5602 55.3462 9.90411 56.0646 9.85725 56.9358C9.79476 58.1127 9.81038 59.6565 10.2322 60.1762L12.2942 59.901C12.7785 59.1979 13.9345 58.6477 15.0592 58.6477C15.9341 58.6477 16.7933 58.984 17.2775 59.8705C17.4181 60.1303 17.5431 60.436 17.6056 60.8028C17.6212 60.9098 17.6368 61.0168 17.6524 61.1391L16.9963 60.8793L16.6214 60.7264C16.6058 60.8181 16.5902 60.8946 16.5745 60.971C16.3558 61.8575 15.8872 62.1785 15.3248 62.1785C15.0593 62.1785 14.7781 62.102 14.4812 61.9951C14.45 61.9798 14.4188 61.9645 14.3719 61.9492C13.8408 61.7352 13.4658 61.5671 13.1847 61.5671C12.9972 61.5671 12.8566 61.6435 12.7316 61.8575C12.5598 62.1479 12.7316 62.3925 13.0284 62.5912C13.1222 62.6523 13.2471 62.7134 13.3565 62.7593C14.9343 63.4013 15.3873 64.8992 13.9345 66.4582L12.841 65.5105C12.6691 65.6175 12.4973 65.6634 12.3411 65.6634C11.81 65.6634 11.3257 65.1896 11.2007 64.838C10.9976 64.3031 11.2163 63.6917 11.2944 63.2484C11.3101 63.1261 11.3257 63.0038 11.3101 62.9121C11.2788 62.6676 11.107 62.4689 10.9039 62.3619C10.8102 62.316 10.7164 62.2855 10.6071 62.2855C10.5134 62.2855 10.4196 62.3007 10.3259 62.3466C10.2322 62.3925 10.1541 62.4536 10.0916 62.53C9.95098 62.6981 9.91973 62.9274 9.91973 63.1567C9.91973 63.279 9.91974 63.4165 9.90411 63.5388C9.87287 63.7528 9.81038 63.9515 9.62292 64.1196C9.52919 64.1961 9.43546 64.2572 9.34173 64.3183C9.27925 64.3489 8.98244 64.4865 8.96682 64.5476L8.82622 66.0455C7.73271 65.7857 6.52984 65.266 6.82665 63.6C6.87352 63.3248 6.96725 63.0038 7.12346 62.6523C7.17033 62.53 7.23281 62.3925 7.31092 62.2549C6.37362 61.7964 5.74876 60.9251 5.59254 59.901ZM24.2291 10.6382C24.7915 10.6382 25.3695 10.7758 25.9788 10.9898C26.6349 10.5923 26.7755 10.088 27.0254 10.0574C27.2129 10.0421 27.291 10.5618 27.1973 11.0509C27.1973 11.0509 26.2756 11.2496 25.6663 11.3413C25.0571 11.4483 24.3697 11.54 23.7605 11.54C23.6199 11.54 23.4949 11.54 23.3856 11.5247C23.0888 11.4942 22.995 11.433 22.995 11.4177C22.995 11.4177 22.995 11.4177 22.995 11.4024C22.9638 11.3107 22.9326 11.1732 22.9326 10.9898C23.3231 10.7452 23.7605 10.6382 24.2291 10.6382ZM23.0263 9.98096C23.0575 9.8434 23.12 9.69055 23.1825 9.5377C23.245 9.36957 23.5262 8.8346 24.2291 8.8346C24.6353 8.8346 25.307 9.00273 26.2287 9.84339L26.6036 10.2255C25.7757 9.96567 24.9634 9.75169 24.2135 9.75169C23.8074 9.75169 23.4168 9.82811 23.0263 9.98096ZM35.1643 53.2216L36.8358 52.6713L37.6637 52.3962L38.1324 52.2434C38.8822 51.204 40.1007 50.4703 41.2567 50.4703C42.3815 50.4703 43.4594 51.1734 43.9905 52.9923L42.8189 52.7478C42.8189 53.9247 42.4283 54.2304 41.8191 54.2304C41.6941 54.2304 41.5535 54.2151 41.4129 54.1998C41.2411 54.1692 41.0693 54.1387 40.8818 54.1081C40.3038 54.0011 39.882 53.8788 39.5852 53.8788C39.304 53.8788 39.1166 53.9858 39.0072 54.2762C38.851 54.7195 39.2884 54.9946 39.8508 55.1322C41.2255 55.4379 42.0066 56.3855 41.7566 57.6542C41.6941 57.9446 41.6004 58.235 41.4286 58.556C41.3661 58.6935 41.288 58.8158 41.1942 58.9534C41.1942 58.9534 41.1786 58.9534 41.1786 58.9687L39.8195 58.1586C39.6165 58.3573 39.3821 58.4337 39.1478 58.4337C38.6323 58.4337 38.1324 58.0669 37.9449 57.7459C37.9293 57.7153 37.9137 57.6847 37.8981 57.6542C37.7419 57.3485 37.7262 56.9969 37.7262 56.676C37.7262 56.4925 37.7419 56.3091 37.7419 56.141C37.7419 55.9423 37.7419 55.7741 37.695 55.6519C37.6169 55.4073 37.4138 55.2392 37.1951 55.1475C37.117 55.1169 37.0233 55.1016 36.9452 55.1016C36.8046 55.1016 36.664 55.1475 36.539 55.2392C36.2109 55.4685 36.2109 55.82 36.2578 56.1715C36.3047 56.5384 36.3672 56.8746 36.1641 57.1803C36.1485 57.2109 36.1328 57.2262 36.1172 57.2568C36.0391 57.3485 35.9454 57.4402 35.8516 57.5166C35.7892 57.5625 35.508 57.7612 35.508 57.8376L35.6486 59.4578C34.7737 59.3966 33.8052 59.2132 33.3366 58.4337C33.2428 58.2809 33.1647 58.0822 33.1179 57.8834C32.946 57.2873 32.8679 56.5537 32.7742 55.5296C32.3836 55.3767 32.04 55.178 31.7431 54.9182C31.3682 54.5972 31.0714 54.1998 30.8996 53.6954C30.4309 52.3198 30.0248 49.5685 30.6496 46.6644C30.6496 46.6644 24.3541 45.9002 22.995 45.2277C22.9013 44.2647 22.792 43.3323 22.667 42.4917C22.6514 42.3388 22.6357 42.186 22.6357 42.0178C22.9326 42.186 23.2762 42.2777 23.6199 42.2777C23.9323 42.2777 24.2135 42.2013 24.4947 42.0637C25.0415 41.7886 25.4164 41.2842 25.5257 40.6881C25.6038 40.306 25.557 39.9085 25.4008 39.557C25.4008 39.557 25.4008 39.5417 25.4164 39.5417C25.8382 39.4653 26.3068 39.4042 26.8223 39.343C27.6815 39.2513 28.4626 39.2054 29.1812 39.2054C35.8985 39.2054 36.4453 42.8127 36.4453 42.8127C37.4919 46.6491 34.352 48.3763 34.352 48.3763C34.352 48.3763 33.5709 51.8918 35.1643 53.2216ZM18.621 58.1891C18.621 58.2961 18.6835 59.1215 19.2771 60.008C18.949 59.9316 18.6522 59.8858 18.371 59.8552C17.8399 58.4796 16.6527 57.6695 15.0749 57.6695C13.8251 57.6695 12.5442 58.1891 11.7943 58.9839L10.8883 59.1062C10.8258 58.7241 10.7789 58.0669 10.8414 56.9816C10.857 56.569 11.1851 56.2327 11.5912 56.1715C13.8876 55.8353 15.481 55.6213 16.059 55.5907C17.6837 55.4837 19.527 55.1933 20.9017 53.8636C21.7609 53.0382 22.3546 52.1211 22.6826 51.097C22.9638 50.2258 23.0888 49.2475 23.0888 47.9025C23.0888 47.3675 23.0731 46.8326 23.0419 46.2976C23.2762 46.374 23.5574 46.4504 23.8699 46.5269C24.5572 46.695 25.4945 46.8784 26.6349 47.0618C27.6815 47.23 28.7282 47.3828 29.4624 47.4745C29.0875 50.1493 29.4468 52.5949 29.931 53.9858C30.2435 54.9029 30.884 55.6366 31.8056 56.141C31.8056 57.1192 32.1181 58.0974 32.1181 58.128C31.4151 57.7765 30.3372 57.379 29.0875 57.379C28.572 57.379 28.0564 57.4555 27.5722 57.5778C27.2597 57.6695 26.9629 57.7612 26.6661 57.8376C25.5726 58.1586 24.5572 58.4796 23.4793 58.4796C22.3389 58.4796 21.261 58.128 20.105 57.3485L18.496 56.2785L18.621 58.1891ZM24.3697 39.771C24.7134 40.2907 24.526 40.9632 24.0104 41.223C23.8699 41.2995 23.7293 41.33 23.5887 41.33C23.245 41.33 22.9169 41.1466 22.7295 40.8562C22.7607 40.6881 22.8232 40.5047 22.8701 40.3365C23.0263 39.878 23.2606 39.4347 23.5887 39.0067C24.0104 38.4565 24.5728 37.9521 25.3227 37.5394C25.432 37.4783 25.557 37.4018 25.6976 37.3254C25.1977 37.9215 24.9009 38.3495 24.7134 38.7163C24.5103 39.0832 24.4166 39.3736 24.276 39.6487C24.2916 39.6793 24.3385 39.7251 24.3697 39.771ZM30.6653 33.8252C30.8371 33.6724 31.0089 33.5195 31.1808 33.3667C31.3057 33.4278 31.4151 33.5042 31.5401 33.5654C32.4617 34.0698 33.3366 34.5589 33.6177 34.9716C32.946 35.7817 32.3524 36.8822 32.6492 38.0285C32.7117 38.2731 32.821 38.5176 32.9616 38.7316C31.9462 38.4412 30.6965 38.2578 29.15 38.2578L26.01 38.4718C26.2756 38.1049 26.6505 37.6617 27.2285 37.0809L29.3843 34.8799L29.3999 34.8646C29.8061 34.5436 30.2435 34.192 30.6653 33.8252ZM16.7308 66.5193C15.1217 68.2007 12.9503 68.9802 10.7164 68.9802C6.88914 68.9802 2.93687 66.6722 1.54654 62.6064C1.54654 62.6064 3.43676 63.2331 5.87373 63.5082C5.76438 64.1655 5.82687 64.7463 6.07681 65.266C6.60795 66.3665 7.77957 66.7639 8.60752 66.9779L9.71665 67.253L9.826 66.1372L9.93535 65.0979C10.0291 65.0367 10.1384 64.9603 10.2322 64.8839C10.2478 64.9756 10.279 65.0673 10.3103 65.159C10.5758 65.8774 11.4194 66.6111 12.3723 66.6111C12.4661 66.6111 12.5598 66.6111 12.6535 66.5958L13.3253 67.1766L14.0438 67.8033L14.7 67.1002C15.6216 66.1219 15.9965 65.0214 15.7622 64.0126C15.6841 63.6917 15.5591 63.386 15.3717 63.1108C15.9497 63.1108 16.4652 62.8969 16.8557 62.4995C16.9963 62.3466 17.1369 62.1785 17.2307 61.9798L17.2931 61.9951L18.8084 62.6064L18.6366 61.0168C18.6366 60.9557 18.621 60.9098 18.621 60.8487C19.2927 60.9557 20.105 61.2002 21.1361 61.5824C21.2767 61.6588 21.4329 61.7199 21.5735 61.7658C21.6516 61.7963 21.7141 61.8269 21.7922 61.8422C21.4641 62.0256 21.1361 62.209 20.8393 62.3925C19.3552 63.3248 18.3398 64.3336 17.8087 65.3883C17.4806 65.7551 17.1213 66.1219 16.7308 66.5193ZM28.3064 63.2026C27.2285 64.0891 25.7288 64.2725 24.3697 64.3642C20.2456 64.6699 18.5585 68.3077 18.5585 68.3077C18.2148 67.467 18.2773 66.6722 18.6054 65.9538C19.1053 64.8533 20.23 63.9056 21.4173 63.172C23.4012 61.9492 25.5882 61.2614 25.5882 61.2614C25.1977 61.292 24.8384 61.3072 24.4947 61.3072C23.6355 61.3072 22.9326 61.2002 22.3546 61.0321C22.0265 60.9404 21.7297 60.8181 21.4797 60.6958C19.652 59.7788 19.5895 58.1433 19.5895 58.1433C21.0423 59.1062 22.3233 59.4425 23.5106 59.4425C25.0415 59.4425 26.4318 58.9075 27.8534 58.5101C28.2752 58.3878 28.6969 58.342 29.1031 58.342C30.2747 58.342 31.2901 58.77 31.8681 59.0757C31.1339 59.5189 30.509 60.0845 30.0248 60.8028C29.8373 61.0933 29.6655 61.3837 29.5249 61.6588C29.0719 62.2855 28.775 62.8357 28.3064 63.2026ZM35.1643 61.8116C33.7271 62.1326 32.3836 62.9427 31.9306 64.3948C31.665 65.2354 31.7119 66.1525 31.7588 67.0237C31.7588 67.0237 28.8219 65.3883 30.3841 62.1632C30.509 61.9033 30.6809 61.6129 30.8683 61.3225C31.2433 60.757 31.6963 60.3596 32.1181 60.0539C32.2743 59.9622 32.4305 59.8858 32.6023 59.794L33.0397 59.5801C33.7896 60.2067 34.805 60.3596 35.5548 60.4054L36.6952 60.4819L36.6015 59.3661L36.5078 58.2044C36.6327 58.0974 36.7577 57.9752 36.8827 57.8223C36.8827 57.807 36.8983 57.807 36.8983 57.7917C36.9452 57.9293 37.0076 58.0669 37.0857 58.1891C37.4294 58.77 38.2418 59.3508 39.1322 59.3508C39.3665 59.3508 39.5852 59.3049 39.8039 59.2285L40.3194 59.5342C40.2882 59.5648 40.2413 59.5953 40.2101 59.6259C38.5386 61.1697 37.3045 61.3378 35.1643 61.8116ZM79.4829 67.1307C79.4829 67.1307 80.3264 63.4777 78.5299 62.316C75.6556 60.4819 74.1246 62.0562 70.9066 59.6565C70.8753 59.6106 70.8285 59.5801 70.7972 59.5342C69.2819 58.0363 67.6104 57.0886 66.0951 56.5842C65.0485 56.7524 63.8925 56.8746 62.6115 56.9358C62.8614 56.9511 63.1114 56.9664 63.377 56.9969C63.83 57.0428 64.3142 57.1192 64.8141 57.2262C65.5796 57.3943 66.3919 57.6542 67.2043 58.0363C68.1884 58.5101 69.1726 59.2744 70.0943 60.1914C70.1567 60.2526 70.2036 60.2984 70.2505 60.3596C72.25 62.4842 71.7189 64.5629 71.7189 64.5629C71.7189 64.5629 69.157 61.2308 65.3297 61.2308C63.5019 61.2308 61.9241 61.8269 61.1118 62.2243L60.5182 62.53L59.9246 62.2243C59.1122 61.8422 57.5345 61.2308 55.7067 61.2308C51.8794 61.2308 49.3175 64.5629 49.3175 64.5629C49.3175 64.5629 48.7707 62.4842 50.7859 60.3596C50.8328 60.2984 50.8953 60.2526 50.9421 60.1914C51.8638 59.2744 52.848 58.4948 53.8321 58.0363C54.6445 57.6542 55.4568 57.3943 56.2222 57.2262C56.7221 57.1192 57.2064 57.0428 57.6594 56.9969C57.925 56.9664 58.1906 56.9511 58.4405 56.9358C57.1595 56.8746 56.0035 56.7524 54.9413 56.5842C53.426 57.0886 51.7545 58.021 50.2392 59.5342C50.1923 59.5801 50.161 59.6106 50.1298 59.6565C46.9117 62.0562 45.3808 60.4819 42.5065 62.316C40.71 63.4624 41.5535 67.1307 41.5535 67.1307C41.5535 67.1307 37.7575 64.3183 41.1942 60.6041C41.9128 59.8246 42.7876 59.1827 43.4281 58.7547C43.9593 58.4031 44.3342 58.2044 44.3342 58.2044C44.3342 58.2044 44.0218 58.1739 43.6156 58.0974C43.3969 58.0669 43.1313 58.0057 42.8501 57.9446C42.8033 57.9293 42.7408 57.914 42.6783 57.8987C42.8189 57.2415 42.772 56.5995 42.5377 56.034C42.444 55.8047 42.3034 55.5754 42.1472 55.3767C43.6312 55.7742 45.4589 56.0798 47.5366 56.0798C48.3333 56.0798 49.1613 55.9117 50.0361 55.82C50.3329 55.7894 50.6609 55.7741 50.989 55.7741C51.0984 55.7741 51.2077 55.7741 51.3171 55.7894C50.5047 55.5449 49.7861 55.2698 49.13 54.9946C48.5989 55.0711 48.0678 55.1475 47.5366 55.1475C45.8963 55.1475 44.4279 54.9488 43.1626 54.6584C43.3969 54.4291 43.5375 54.1692 43.6312 53.8788L43.7718 53.9094L45.3652 54.2457L44.9122 52.7019C44.0686 49.7978 42.069 49.4921 41.2411 49.4921C39.9133 49.4921 38.4761 50.2411 37.5232 51.418L35.4923 52.0905C35.0393 51.2804 35.0706 49.8437 35.1955 48.9419C35.5548 48.682 36.0703 48.2388 36.539 47.5815C37.2576 46.588 37.9762 44.922 37.3513 42.5987C37.2888 42.293 36.9608 41.116 35.6798 40.0767L35.9141 39.3277L36.1172 38.6705C36.4296 38.5482 36.6796 38.3648 36.867 38.1661C37.1482 38.7316 37.695 39.2513 38.3823 39.4194L38.4917 40.0003L38.6635 41.0091L39.6789 40.8256C41.0849 40.5658 42.0222 39.7098 42.194 38.5482C42.2721 38.0285 42.1784 37.4936 41.9441 37.0044C42.4752 36.8822 42.9595 36.5918 43.3188 36.1485L44.6466 36.8822L44.7716 35.3231C44.8809 33.9628 44.381 33.1068 43.9436 32.6483C43.3813 32.0522 42.5689 31.7159 41.7254 31.7159C41.6316 31.7159 41.5535 31.7159 41.4598 31.7312C41.4754 31.6548 41.5067 31.5783 41.5223 31.5019C41.5692 31.2421 41.5692 30.9822 41.5223 30.7224L41.9753 30.3097L42.9751 29.3926L41.8035 28.7048C41.2099 28.3533 40.5694 28.1698 39.9289 28.1698C38.8666 28.1698 37.6481 28.7048 37.0389 30.1416C36.7889 29.8512 36.4609 29.4385 36.1016 28.8729C35.961 28.6437 35.8204 28.4144 35.6798 28.1851C35.5236 27.9253 35.3517 27.6502 35.1799 27.3903V27.375C35.6954 25.4797 35.6798 22.8813 34.9143 20.4663L36.8358 18.678C37.0233 18.892 37.2576 19.0601 37.5075 19.1824C37.8668 19.3658 38.1949 19.4575 38.5698 19.4575H38.5854L39.6008 19.4422V18.2195C39.6321 18.1889 39.6789 18.1583 39.7102 18.1277C39.9914 17.8679 40.1632 17.5469 40.2257 17.1801L41.163 17.1954L42.1003 17.2107L42.1472 16.2936C42.1628 16.0184 42.1315 15.7586 42.0847 15.4988H42.4283L43.3656 15.514L43.4125 14.597C43.4281 14.1843 43.3656 13.7869 43.2251 13.4353H43.2563H44.2561L44.2248 12.4571C44.2092 11.6929 43.8031 10.9592 43.1469 10.5006C42.5689 10.088 41.9128 9.9351 41.3973 9.88925V7.65767H79.5766V9.87396C79.0611 9.91982 78.3737 10.0727 77.7801 10.5006C77.124 10.9745 76.7178 11.7081 76.7022 12.4571L76.671 13.4353H77.6707H77.702C77.5614 13.7869 77.4833 14.1843 77.5145 14.597L77.5614 15.514L78.4987 15.4988H78.8424C78.7799 15.7433 78.7643 16.0184 78.7799 16.2936L78.8267 17.2107L79.764 17.1954L80.7013 17.1801C80.7638 17.5316 80.9357 17.8679 81.2169 18.1277C81.2481 18.1583 81.295 18.1889 81.3262 18.2195V19.4422L82.3416 19.4575H82.3572C82.7322 19.4575 83.0602 19.3658 83.4195 19.1824C83.6695 19.0448 83.9038 18.8767 84.0912 18.678L86.0127 20.4663C85.2472 22.8813 85.216 25.4797 85.7471 27.375V27.3903C85.5753 27.6502 85.4035 27.9253 85.2472 28.1851C85.1066 28.4144 84.9661 28.6437 84.8255 28.8729C84.4818 29.4232 84.1381 29.8665 83.8882 30.1569C83.2789 28.7201 82.0604 28.1851 80.9981 28.1851C80.3577 28.1851 79.7172 28.3685 79.1236 28.7201L77.9519 29.4079L78.9517 30.325L79.4047 30.7377C79.3579 30.9822 79.3579 31.2421 79.4047 31.5172C79.4204 31.5936 79.436 31.6701 79.4672 31.7465C79.3735 31.7465 79.2954 31.7312 79.2017 31.7312C78.3425 31.7312 77.5301 32.0675 76.9834 32.6636C76.546 33.1374 76.0461 33.9781 76.1554 35.3384L76.2804 36.8974L77.6083 36.1638C77.9676 36.5918 78.4518 36.8822 78.983 37.0197C78.7486 37.5088 78.6549 38.0285 78.733 38.5635C78.9049 39.7404 79.8422 40.5964 81.2481 40.8409L82.2635 41.0243L82.4353 40.0155L82.5447 39.4347C83.2477 39.2513 83.7944 38.7469 84.06 38.1814C84.2474 38.3801 84.4974 38.5482 84.8098 38.6858L84.9817 39.236L85.0129 39.343L85.2472 40.092C83.9663 41.1466 83.6382 42.3083 83.5757 42.614C82.9509 44.9372 83.6695 46.6033 84.3881 47.5968C84.8567 48.254 85.3722 48.6973 85.7315 48.9571C85.8565 49.8589 85.8877 51.2957 85.4347 52.1058L83.4039 51.4333C82.4353 50.2563 81.0138 49.5074 79.6859 49.5074C78.858 49.5074 76.8584 49.8131 76.0149 52.7172L75.5618 54.261L77.1552 53.9247L77.2958 53.8941C77.3896 54.1692 77.5301 54.4444 77.7645 54.6736C76.4991 54.9488 75.0307 55.1628 73.3904 55.1628C72.8593 55.1628 72.3281 55.0863 71.797 55.0099C71.1409 55.285 70.4223 55.5602 69.61 55.8047C69.7193 55.8047 69.8131 55.8047 69.9224 55.8047C70.2505 55.8047 70.5785 55.82 70.8753 55.8506C71.7502 55.9576 72.5781 56.1104 73.3748 56.1104C75.4525 56.1104 77.2802 55.8047 78.7643 55.4073C78.608 55.606 78.4674 55.82 78.3737 56.0646C78.1394 56.6301 78.0925 57.2721 78.2331 57.9293C78.1706 57.9446 78.1238 57.9599 78.0613 57.9752C77.7801 58.0363 77.5145 58.0974 77.2958 58.128C76.874 58.2044 76.6241 58.2197 76.6241 58.2197C76.6241 58.2197 76.999 58.4184 77.5302 58.77C78.1706 59.1979 79.0298 59.8399 79.764 60.6194C83.2789 64.3183 79.4829 67.1307 79.4829 67.1307ZM89.2308 67.0237C89.2776 66.1525 89.3089 65.2354 89.0589 64.3948C88.6059 62.9427 87.2624 62.1479 85.8252 61.8116C83.6851 61.3225 82.451 61.1697 80.7794 59.6565C80.7482 59.6259 80.7013 59.5953 80.6701 59.5648L81.1856 59.2591C81.3887 59.3355 81.623 59.3814 81.8573 59.3814C82.7634 59.3814 83.5757 58.8005 83.9038 58.2197C83.9819 58.0821 84.0444 57.9599 84.0912 57.8223C84.0912 57.8376 84.1069 57.8376 84.1069 57.8529C84.2318 58.0057 84.3568 58.128 84.4818 58.235L84.3881 59.3966L84.2943 60.5124L85.4347 60.436C86.1845 60.3901 87.1843 60.2373 87.9498 59.6106L88.3872 59.8246C88.559 59.9163 88.7152 59.9927 88.8715 60.0845C89.3089 60.3902 89.7463 60.7876 90.1212 61.3531C90.3243 61.6435 90.4805 61.9186 90.6055 62.1938C92.1676 65.3883 89.2308 67.0237 89.2308 67.0237ZM102.4 68.3229C102.4 68.3229 100.728 64.6852 96.5885 64.3795C95.2295 64.2725 93.7454 64.0891 92.6519 63.2178C92.1832 62.8357 91.8864 62.2855 91.4178 61.6741C91.2772 61.3837 91.1054 61.1085 90.9179 60.8181C90.4336 60.0997 89.8244 59.5189 89.0745 59.0909C89.6525 58.7852 90.6523 58.3573 91.8396 58.3573C92.2457 58.3573 92.6519 58.4031 93.0893 58.5254C94.5265 58.9228 95.9012 59.4578 97.4321 59.4578C98.6194 59.4578 99.9003 59.1368 101.353 58.1586C101.353 58.1586 101.275 59.794 99.4629 60.7111C99.213 60.8334 98.9162 60.9557 98.5881 61.0474C98.0101 61.2155 97.2915 61.3225 96.4479 61.3225C96.1043 61.3225 95.745 61.3072 95.3544 61.2767C95.3544 61.2767 97.5415 61.9645 99.5254 63.1873C100.728 63.9362 101.837 64.8686 102.337 65.9691C102.681 66.6875 102.759 67.467 102.4 68.3229ZM110.273 68.9802C108.039 68.9802 105.852 68.2007 104.259 66.5193C103.868 66.1219 103.525 65.7398 103.181 65.4036C102.65 64.3336 101.634 63.3401 100.15 62.4077C99.8535 62.2243 99.541 62.0409 99.1974 61.8575C99.2755 61.8269 99.3379 61.7964 99.4161 61.7811C99.5723 61.7199 99.7129 61.6588 99.8535 61.5976C100.884 61.2002 101.697 60.971 102.369 60.864C102.369 60.9251 102.353 60.971 102.353 61.0321L102.181 62.6217L103.696 62.0103L103.759 61.9951C103.868 62.1938 103.993 62.3619 104.134 62.5147C104.524 62.9121 105.04 63.1261 105.618 63.1261C105.43 63.4013 105.305 63.7069 105.227 64.0279C104.993 65.0367 105.384 66.1372 106.29 67.1154L106.946 67.8186L107.664 67.1919L108.336 66.6111C108.43 66.6263 108.523 66.6263 108.617 66.6263C109.57 66.6263 110.414 65.8927 110.679 65.1743C110.71 65.0826 110.742 64.9909 110.757 64.8992C110.867 64.9756 110.96 65.052 111.054 65.1131L111.164 66.1525L111.273 67.2683L112.382 66.9932C113.21 66.7945 114.382 66.3818 114.913 65.2813C115.163 64.7616 115.225 64.1808 115.116 63.5235C117.537 63.2484 119.443 62.6217 119.443 62.6217C118.037 66.6875 114.085 68.9802 110.273 68.9802ZM25.2289 4.40202C23.8074 4.78413 22.0109 4.4173 22.0109 4.4173C23.1044 5.47195 23.4637 6.11391 23.4637 6.11391C24.9009 6.19033 25.2289 5.27325 25.2289 4.40202ZM95.7606 4.40202C95.7606 5.27325 96.0886 6.19033 97.5258 6.12919C97.5258 6.12919 97.9008 5.48723 98.9786 4.43259C98.9786 4.43259 97.1822 4.78413 95.7606 4.40202ZM96.6198 23.2329C96.8697 22.8202 97.1197 22.4075 97.3696 21.9948C97.7758 21.3223 98.1507 20.6039 98.4788 19.8702C98.7912 19.1365 99.0568 18.4029 99.2911 17.6539C99.541 16.9202 99.7597 16.1713 99.9784 15.4223C99.6348 16.1254 99.2911 16.8133 98.9162 17.5011C98.5569 18.1889 98.182 18.8614 97.7758 19.5034C97.354 20.1453 96.901 20.7414 96.4011 21.3223C95.9637 21.8419 95.495 22.3769 95.042 22.8966C95.5575 22.9577 96.0886 23.0494 96.6198 23.2329ZM22.5108 19.8702C22.8232 20.6039 23.2137 21.3223 23.6199 21.9948C23.8699 22.4075 24.1198 22.8202 24.3697 23.2329C24.9009 23.0494 25.432 22.9424 25.9475 22.9119C25.4945 22.3922 25.0259 21.8572 24.5884 21.3375C24.0886 20.7414 23.6355 20.1453 23.2137 19.5187C22.8076 18.8767 22.4327 18.2042 22.0734 17.5164C21.7141 16.8285 21.3704 16.1254 21.0111 15.4376C21.2298 16.1866 21.4641 16.9202 21.6984 17.6692C21.9328 18.4029 22.1983 19.1365 22.5108 19.8702ZM22.2764 24.3028C21.0736 22.6062 19.9176 20.879 18.949 19.0601C18.4179 18.0666 17.9492 17.0425 17.5743 15.9879C17.1838 14.9332 16.8714 13.848 16.6214 12.7475C16.7464 13.8786 16.9182 14.9944 17.1838 16.1102C17.4494 17.2259 17.8087 18.3112 18.2304 19.3811C18.6522 20.451 19.1365 21.4904 19.6364 22.5145C20.0425 23.3246 20.4643 24.1194 20.8861 24.9142C21.2923 24.7919 21.7609 24.5932 22.2764 24.3028ZM100.072 24.9142C100.51 24.1194 100.931 23.3246 101.322 22.5145C101.837 21.4904 102.322 20.451 102.728 19.3811C103.15 18.3112 103.493 17.2107 103.774 16.1102C104.04 14.9944 104.228 13.8786 104.337 12.7475C104.087 13.848 103.774 14.9332 103.384 15.9879C102.993 17.0425 102.525 18.0666 102.009 19.0601C101.041 20.879 99.8847 22.6062 98.6818 24.3028C99.2286 24.5932 99.6816 24.7919 100.072 24.9142Z" fill="#CC0000"/>
<path d="M76.9364 12.5029H76.7334H44.256H44.1154L43.6624 13.4353H77.1864L76.9364 12.5029ZM81.373 18.1583V29.2092C81.7167 29.2703 82.0447 29.4079 82.3259 29.6372V18.3417L81.373 18.1583ZM81.7167 38.4565L81.4667 39.8474C81.4355 39.8474 81.4042 39.8321 81.373 39.8321V41.758C81.373 44.3411 80.5919 46.695 79.0766 48.7278C78.7017 49.217 78.2955 49.6908 77.8425 50.1493L40.6786 13.7563C40.5068 13.6799 40.3037 13.6034 40.0694 13.5576V14.5511C40.8505 14.8109 41.2254 15.4987 41.1942 16.263L40.1631 16.2477C39.9444 15.6363 39.3977 15.2083 38.6634 15.0402V16.0337C39.0227 16.1713 39.2883 16.4464 39.2883 16.9049C39.2883 17.3023 38.9603 17.608 38.6634 17.6692V29.5607C39.0384 29.255 39.4914 29.1481 39.96 29.1481C40.4131 29.1481 40.8661 29.3162 41.2879 29.5607L40.3193 30.4473C40.8973 31.1198 40.2881 32.1439 39.6632 32.4801C38.9915 32.8317 39.3508 33.4431 39.8351 33.4431C39.9913 33.4431 40.1475 33.3819 40.3037 33.2444C40.7099 32.8775 41.241 32.6941 41.7565 32.6941C42.85 32.6941 43.9279 33.5195 43.7873 35.2314L42.9438 34.7728C42.6626 35.6747 42.0065 36.0568 41.3972 36.0568C41.116 36.0568 40.8505 35.9803 40.6474 35.8275C40.1787 35.4912 39.6945 35.1397 39.3664 35.1397C39.2571 35.1397 39.1477 35.1855 39.0852 35.2772C38.8353 35.6135 39.1009 35.9498 39.9913 36.3777C41.491 37.1114 41.7878 39.2207 39.8194 39.7863L39.4914 39.8168L39.2415 38.4259C39.1321 38.4565 39.0227 38.4718 38.9134 38.4718C38.8197 38.4718 38.7259 38.4565 38.6322 38.4412V41.7274C38.6322 44.9831 39.7726 47.7038 41.6316 49.8895C41.6472 49.9048 41.6628 49.9201 41.6628 49.9353C41.7253 50.0118 41.8034 50.0882 41.8659 50.1646C41.8815 50.1799 41.8971 50.1952 41.9127 50.2105C41.9909 50.3022 42.069 50.3786 42.1471 50.4703C42.1471 50.4703 42.1471 50.4856 42.1627 50.4856C42.2408 50.5773 42.3345 50.6537 42.4126 50.7454L42.4283 50.7607C42.5376 50.8219 42.6313 50.8983 42.7251 50.9747C42.9125 51.1276 43.1 51.311 43.2562 51.525C44.4591 52.5643 45.865 53.4356 47.3803 54.1692C47.5522 54.2609 47.724 54.3526 47.9115 54.4291C50.4109 55.6519 54.0664 56.9816 60.4556 56.9816C66.8449 56.9816 70.5003 55.6519 72.9998 54.4291C73.1873 54.3374 73.3591 54.2457 73.5309 54.1692C75.0306 53.4508 76.4053 52.5796 77.6082 51.5708C77.6394 51.525 77.6707 51.4791 77.7019 51.4333C77.7175 51.418 77.7331 51.4027 77.7488 51.3721C77.7644 51.3568 77.78 51.3263 77.8112 51.311C77.8269 51.2804 77.8581 51.2651 77.8737 51.2346C77.8894 51.2193 77.8894 51.204 77.905 51.204C77.9362 51.1734 77.9675 51.1428 77.9987 51.1123L78.0143 51.097C78.0456 51.0664 78.0768 51.0359 78.1081 51.0053C78.1081 51.0053 78.1081 51.0053 78.1237 50.99C78.1549 50.9594 78.2018 50.9289 78.233 50.8983C78.3111 50.8372 78.3893 50.7913 78.4674 50.7454C78.483 50.7302 78.4986 50.7302 78.5142 50.7149C80.8419 48.3916 82.2947 45.3805 82.2947 41.6969V38.4565C82.2009 38.487 82.1072 38.5023 81.9978 38.5023C81.9354 38.5023 81.826 38.487 81.7167 38.4565Z" fill="#CC0000"/>
</svg>
