<svg width="161" height="77" viewBox="0 0 161 77" fill="none" xmlns="http://www.w3.org/2000/svg">
<path d="M95.1901 12.5228C96.8362 12.5228 98.1706 11.861 98.1706 11.0446C98.1706 10.2282 96.8362 9.56641 95.1901 9.56641C93.544 9.56641 92.2097 10.2282 92.2097 11.0446C92.2097 11.861 93.544 12.5228 95.1901 12.5228Z" fill="white"/>
<path d="M86.6673 11.0447L83.3185 9.36719L79.9529 11.0447L83.3185 12.7056L86.6673 11.0447Z" fill="white"/>
<path d="M110.427 11.0447L107.062 9.36719L103.713 11.0447L107.062 12.7056L110.427 11.0447Z" fill="white"/>
<path d="M158.031 67.0507C157.997 67.0673 156.038 67.6984 153.56 67.9808C154.364 67.2998 154.9 66.3365 155.067 65.2403C155.184 64.4098 155.151 62.0846 154.933 58.3641C154.866 57.0354 153.845 55.9392 152.522 55.7731C151.283 55.607 150.262 55.441 149.575 55.2915C148.152 54.9759 147.382 54.461 147.281 54.0956C147.147 53.697 147.164 53.6472 147.214 53.2818C147.231 53.1157 147.264 52.9164 147.298 52.6506C147.331 52.3517 147.348 52.0693 147.398 51.7537C147.449 51.3717 147.482 50.9731 147.515 50.5745C147.515 50.5579 147.515 50.5247 147.515 50.5081C147.834 50.5745 148.168 50.6077 148.487 50.6077C149.374 50.6077 150.262 50.3752 151.032 49.8935C152.472 49.0133 153.309 47.5018 153.275 45.8243C153.208 43.1669 151.718 41.3067 150.395 39.679C149.793 38.9316 149.207 38.2174 148.788 37.47C147.432 35.0451 147.114 32.4208 147.85 29.6471C148.152 28.5011 148.905 27.3551 149.709 26.1592C149.876 25.9101 150.044 25.6443 150.211 25.3952C150.329 25.4118 150.446 25.4284 150.563 25.4284C151.065 25.4284 151.484 25.2623 151.785 25.0796C153.711 23.9004 154.381 20.0471 154.347 17.8879C154.297 13.3703 152.505 10.1149 148.905 7.93912L147.666 7.19171L148.135 8.55365C149.223 11.6928 149.809 13.636 149.123 16.7917C148.905 17.8049 148.47 18.7682 148.051 19.6983C147.398 21.1599 146.762 22.5717 147.315 23.7177C147.181 23.917 147.047 24.1329 146.913 24.3322C145.992 25.7108 145.037 27.1392 144.602 28.8333C143.664 32.4208 144.1 35.9752 145.858 39.1143C146.41 40.1108 147.114 40.9745 147.783 41.8049C148.905 43.2001 149.893 44.3959 149.927 45.9406C149.943 46.5883 149.525 46.9371 149.29 47.0866C148.822 47.369 148.269 47.3856 147.783 47.1364C147.398 46.9371 147.03 46.5385 146.795 46.0735C146.427 44.9939 145.958 43.8645 145.322 42.6188C144.753 41.4894 144.133 40.3766 143.53 39.297C142.425 37.3039 141.37 35.4271 140.6 33.3842C140.014 31.8063 139.947 29.9959 139.981 28.8333C140.818 28.9828 141.555 29.016 141.689 29.016L142.777 29.0492L142.76 27.9696C142.743 27.1558 143.396 25.744 144.133 24.0997C146.159 19.6485 149.223 12.9384 145.289 5.24845C145.255 5.19863 145.238 5.13219 145.205 5.08236C145.372 4.55088 145.422 4.06921 145.406 3.6706C145.389 2.19239 144.652 1.02976 143.982 0.431835L143.514 0.016609L142.928 0.215917C142.542 0.34879 142.174 0.581316 141.806 0.86367C141.555 0.631143 141.236 0.465053 140.868 0.415226C140.768 0.398617 140.667 0.398617 140.533 0.398617C138.909 0.398617 132.998 1.72734 132.228 2.12596L131.826 2.32526L131.692 2.7571L131.408 3.73703C130.102 4.16887 128.913 4.81662 128.025 5.29828C127.908 5.36472 127.791 5.43115 127.674 5.48098L127.004 5.84638L127.155 6.59379C127.171 6.71005 127.757 9.63324 129.465 11.6097L129.549 11.6928C129.13 11.726 128.762 11.7592 128.427 11.7592C127.406 11.7592 126.602 11.4602 126.217 10.8623C125.614 9.9322 126.05 8.93566 126.753 8.42078C126.368 8.25469 125.999 8.15504 125.547 8.15504C125.279 8.15504 124.978 8.18825 124.643 8.2713C123.303 8.57026 122.55 9.68307 122.801 11.0284C123.086 12.6395 124.224 13.636 126.2 13.636C126.602 13.636 127.021 13.6028 127.49 13.5198C128.159 13.4035 128.846 13.2042 129.532 12.9883C129.532 13.0215 129.516 13.0381 129.516 13.0713C129.348 14.0014 129.197 14.7986 129.716 15.4464C128.276 15.7121 126.97 16.3101 125.865 17.207C124.961 16.526 123.739 15.6125 123.555 15.463C122.835 14.9315 122.165 14.3502 121.445 13.7523C121.16 13.5031 120.859 13.254 120.557 13.0049C119.938 12.49 119.268 11.9585 118.548 11.4602C118.012 11.0948 117.393 10.8623 116.723 10.7793V7.83946C118.85 6.90936 120.34 4.76679 120.34 2.32526C120.34 1.77717 120.273 1.26229 120.122 0.764016H115.618C115.651 1.06298 115.668 1.36194 115.668 1.67751C115.668 4.33496 114.329 6.67683 112.671 6.67683C111.013 6.67683 109.674 4.33496 109.674 1.67751C109.674 1.36194 109.691 1.06298 109.724 0.764016H104.081C104.115 1.06298 104.131 1.36194 104.131 1.67751C104.131 4.33496 102.792 6.67683 101.134 6.67683C99.4766 6.67683 98.1371 4.33496 98.1371 1.67751C98.1371 1.36194 98.1538 1.06298 98.1873 0.764016H92.3603C92.3938 1.06298 92.4106 1.36194 92.4106 1.67751C92.4106 4.33496 91.071 6.67683 89.4134 6.67683C87.7557 6.67683 86.4162 4.33496 86.4162 1.67751C86.4162 1.36194 86.4329 1.06298 86.4664 0.764016H80.9576C80.9911 1.06298 81.0078 1.36194 81.0078 1.67751C81.0078 4.33496 79.6683 6.67683 78.0106 6.67683C76.3529 6.67683 75.0134 4.33496 75.0134 1.67751C75.0134 1.36194 75.0302 1.06298 75.0637 0.764016H70.4925C70.3585 1.24568 70.2916 1.74395 70.2916 2.25883C70.2916 4.61731 71.6813 6.72666 73.6739 7.7232V10.7793C73.0041 10.8623 72.3511 11.0948 71.7985 11.4768C71.0785 11.9585 70.4088 12.5066 69.7892 13.0215C69.4879 13.2706 69.2032 13.5198 68.9018 13.7689C68.1818 14.3668 67.512 14.9481 66.792 15.4796C66.6079 15.6125 65.3855 16.526 64.4814 17.2236C63.3762 16.3267 62.0869 15.7288 60.6302 15.463C61.1493 14.7986 60.9986 14.0014 60.8311 13.0879C60.8311 13.0713 60.8144 13.0381 60.8144 13.0049C61.5009 13.2374 62.1874 13.4201 62.8572 13.5364C63.326 13.6194 63.7446 13.6526 64.1465 13.6526C66.1223 13.6526 67.2609 12.6561 67.5455 11.045C67.7967 9.69967 67.0432 8.58687 65.7037 8.28791C65.3688 8.22147 65.0674 8.17164 64.7995 8.17164C64.3474 8.17164 63.979 8.2713 63.5939 8.43739C64.2972 8.95227 64.7325 9.94881 64.1297 10.8789C63.7446 11.4935 62.9242 11.7758 61.9195 11.7758C61.5679 11.7758 61.1995 11.7426 60.8311 11.6761L60.9149 11.5931C62.6228 9.61663 63.2088 6.71005 63.2255 6.57718L63.3762 5.82977L62.7065 5.46437C62.5893 5.39794 62.4721 5.34811 62.3549 5.28167C61.4507 4.80001 60.2786 4.15226 58.9725 3.72042L58.6879 2.74049L58.5539 2.30866L58.1521 2.10935C57.3818 1.71073 51.4712 0.382008 49.847 0.382008C49.7298 0.382008 49.6126 0.382008 49.5121 0.398617C49.1437 0.448444 48.8256 0.614534 48.5744 0.847061C48.2061 0.548098 47.821 0.332181 47.4526 0.199308L46.8665 0L46.381 0.382008C45.7112 0.979933 44.9745 2.14257 44.9577 3.62077C44.9577 4.01939 45.0079 4.50105 45.1586 5.03254C45.1252 5.09897 45.0917 5.1488 45.0749 5.19863C41.1401 12.8886 44.2042 19.5987 46.2303 24.0499C46.967 25.6776 47.62 27.0893 47.6033 27.9198L47.5865 28.9994L48.6749 28.9662C48.7921 28.9662 49.5289 28.9329 50.3828 28.7835C50.4163 29.9461 50.3661 31.7731 49.7633 33.3343C48.993 35.3772 47.9382 37.2541 46.8331 39.2471C46.2303 40.3267 45.6107 41.4395 45.0414 42.569C44.4219 43.8146 43.9363 44.944 43.5679 46.0236C43.3335 46.4887 42.9819 46.8873 42.58 47.0866C42.0945 47.3357 41.5419 47.3191 41.0731 47.0368C40.8219 46.8873 40.42 46.5385 40.4368 45.8908C40.4703 44.3627 41.4414 43.1503 42.58 41.7551C43.2498 40.9247 43.9363 40.0776 44.5056 39.0644C46.2638 35.9253 46.6991 32.371 45.7614 28.7835C45.3261 27.0893 44.3717 25.661 43.4507 24.2824C43.3168 24.0831 43.1828 23.8672 43.0489 23.6679C43.6014 22.5218 42.9819 21.1101 42.3121 19.6485C41.8935 18.7184 41.4582 17.7551 41.2405 16.7419C40.554 13.5696 41.14 11.6429 42.2284 8.50382L42.6973 7.14188L41.4582 7.88929C37.8582 10.0651 36.0666 13.3204 36.0163 17.8381C35.9829 19.9973 36.6694 23.8672 38.5782 25.0298C38.8796 25.2125 39.2815 25.3786 39.8005 25.3786C39.9177 25.3786 40.0182 25.362 40.1521 25.3454C40.3196 25.5945 40.487 25.8603 40.6545 26.1094C41.4582 27.3052 42.2117 28.4513 42.5131 29.5973C43.2331 32.371 42.9149 35.0118 41.5754 37.4202C41.1568 38.1676 40.5875 38.8817 39.968 39.6292C38.6452 41.2568 37.1549 43.1004 37.088 45.7745C37.0545 47.4354 37.8917 48.9634 39.3317 49.8437C40.1019 50.3254 40.9894 50.5579 41.8768 50.5579C42.2117 50.5579 42.5298 50.5247 42.8479 50.4582C42.8479 50.4749 42.8479 50.5081 42.8479 50.5247C42.8814 50.9233 42.9149 51.3219 42.9652 51.7039C42.9986 52.0195 43.0321 52.3018 43.0656 52.6008C43.0824 52.8666 43.1159 53.0659 43.1493 53.232C43.1996 53.5807 43.2163 53.6472 43.0824 54.0458C42.9652 54.4112 42.2117 54.9261 40.7884 55.2416C40.1019 55.3911 39.0805 55.5572 37.8415 55.7233C36.5187 55.906 35.4973 57.0022 35.4303 58.3143C35.2294 62.0347 35.1791 64.36 35.2963 65.1905C35.4638 66.2867 35.9996 67.25 36.8033 67.9309C34.3252 67.6486 32.3494 67.0008 32.3326 67.0008L30.3401 66.3365L31.0099 68.313C31.7968 70.6382 33.2871 72.5981 35.3466 73.9766C37.2554 75.2555 39.5494 75.9531 41.8266 75.9531C44.6061 75.9531 47.1344 74.9234 48.9596 73.0465C48.9763 73.5614 49.0768 74.0597 49.2777 74.5746L50.1986 76.85L51.22 74.6244C51.287 74.4915 52.8442 71.2361 56.5614 70.9538C58.1521 70.8375 59.9604 70.605 61.367 69.4424C61.367 69.4424 61.367 69.4424 61.3837 69.4424C61.3837 69.8244 61.4172 70.1898 61.5177 70.5552C62.02 72.6147 63.8116 73.6611 63.8786 73.6943L65.5362 74.641L65.4358 72.7476C65.4023 71.9337 65.3521 71.0036 65.5865 70.2396C66.0051 68.8611 67.4618 68.3462 68.2823 68.1469C68.4832 68.097 68.6841 68.0472 68.8683 68.014C70.2246 67.715 71.3297 67.4659 72.4683 66.8015C71.9827 67.7482 71.7818 68.7116 71.8823 69.6915C72.1167 72.133 74.126 73.6611 74.2097 73.7275L76.5036 75.4382L75.8674 72.6645C75.6329 71.6015 75.4488 69.1766 76.4367 68.5455C77.659 67.7482 78.5799 67.6486 79.6515 67.5323C80.539 67.4327 81.4934 67.3164 82.6152 66.8348C81.7446 68.7448 82.1129 70.306 82.1464 70.3891L82.6822 72.4984L84.005 70.7545C84.0218 70.7213 86.4999 67.5489 90.0162 67.5489C92.5613 67.5489 94.6208 68.7946 94.6375 68.8112L95.1901 69.1434L95.7426 68.8112C95.7594 68.7946 97.8189 67.5489 100.364 67.5489C103.88 67.5489 106.358 70.7379 106.375 70.7545L107.698 72.4984L108.234 70.3891C108.251 70.306 108.636 68.7448 107.765 66.8348C108.887 67.3164 109.841 67.4327 110.729 67.5323C111.8 67.6486 112.738 67.7649 113.944 68.5455C114.931 69.1932 114.764 71.6015 114.513 72.6645L113.877 75.4382L116.17 73.7275C116.254 73.6611 118.263 72.133 118.498 69.6915C118.598 68.7116 118.397 67.7482 117.912 66.8015C119.05 67.4493 120.156 67.6984 121.512 68.014C121.696 68.0638 121.897 68.097 122.098 68.1469C122.918 68.3296 124.375 68.8611 124.794 70.2396C125.028 71.0036 124.978 71.9337 124.944 72.7476L124.844 74.641L126.502 73.6943C126.585 73.6445 128.377 72.6147 128.863 70.5552C128.946 70.1898 128.996 69.8078 128.996 69.4424C128.996 69.4424 128.996 69.4424 129.013 69.4424C130.42 70.605 132.228 70.8209 133.819 70.9538C137.536 71.2361 139.093 74.4915 139.16 74.6244L140.182 76.85L141.102 74.5746C141.303 74.0597 141.421 73.5448 141.421 73.0465C143.246 74.9234 145.774 75.9531 148.554 75.9531C150.831 75.9531 153.125 75.2555 155.034 73.9766C157.093 72.5981 158.6 70.6382 159.37 68.313L160.04 66.3365L158.031 67.0507ZM126.183 12.5896C124.777 12.5896 124.04 12.0249 123.823 10.8291C123.672 10.0319 124.074 9.45054 124.861 9.26784C124.894 9.26784 124.928 9.25123 124.961 9.25123C124.777 9.9322 124.861 10.6796 125.313 11.4104C125.648 11.9253 126.167 12.3239 126.82 12.5564C126.602 12.573 126.384 12.5896 126.183 12.5896ZM65.0339 11.4104C65.5028 10.6962 65.5697 9.9322 65.3855 9.25123C65.419 9.25123 65.4525 9.26784 65.486 9.26784C66.273 9.43393 66.6748 10.0319 66.5241 10.8291C66.3065 12.0249 65.553 12.5896 64.1632 12.5896C63.9623 12.5896 63.7446 12.573 63.5269 12.5564C64.18 12.3239 64.699 11.9419 65.0339 11.4104ZM125.916 18.5357C126.167 18.2865 126.435 18.054 126.719 17.8381C127.958 16.8914 129.532 16.3101 131.508 16.3101C131.793 16.3101 132.077 16.3267 132.379 16.3433L135.058 15.1308C134.103 15.1474 133.333 15.1807 132.714 15.1807C130.035 15.1807 130.252 14.8153 130.604 12.955C130.604 12.955 132.864 13.5696 134.589 13.5696C134.756 13.5696 134.924 13.5696 135.075 13.553C135.912 13.4865 136.28 13.1211 136.414 12.6727C136.582 12.0748 136.632 11.1447 136.163 9.98203C135.862 9.21801 135.125 8.55365 134.07 8.55365C133.266 8.55365 132.295 8.93566 131.19 9.9322L130.252 10.8623C129.767 10.2976 129.382 9.64985 129.08 9.0187C128.879 8.15504 129.817 7.60694 129.817 7.60694C128.863 7.7232 128.394 6.74327 128.243 6.29482C129.264 5.74673 130.721 4.91627 132.262 4.50105L132.714 2.97302C133.3 2.67405 139.026 1.36194 140.533 1.36194C140.617 1.36194 140.667 1.36194 140.734 1.37855C140.851 1.39516 140.969 1.44499 141.052 1.51142C140.734 1.86021 140.449 2.25883 140.198 2.69066L141.22 3.02284C141.789 2.10935 142.576 1.34533 143.279 1.11281C144.2 1.91004 145.305 4.28513 142.877 6.77649V8.22147L143.296 7.82285C143.882 7.27476 144.301 6.74327 144.619 6.22839C149.257 16.1938 141.638 24.3655 141.689 27.8866C141.689 27.8866 140.098 27.8367 139.009 27.4049C139.009 27.4049 138.524 30.843 139.596 33.6665C140.835 36.9551 142.794 39.8783 144.368 43.0008C144.903 44.0638 145.372 45.1434 145.757 46.2562C145.774 46.2894 145.774 46.3226 145.791 46.3558C146.109 47.0368 146.645 47.6347 147.248 47.9669C147.264 47.9835 147.298 47.9835 147.315 48.0001C148.102 48.3987 149.022 48.3489 149.793 47.8838C150.546 47.4354 150.948 46.6714 150.931 45.8243C150.881 43.9309 149.759 42.5357 148.554 41.0575C147.917 40.2603 147.248 39.4465 146.729 38.5163C145.104 35.6098 144.702 32.3212 145.573 28.9994C145.975 27.4713 146.879 26.126 147.75 24.8139C147.951 24.5149 148.135 24.2326 148.336 23.9336C148.42 23.8174 148.487 23.7011 148.554 23.5848C148.135 23.2028 148.051 22.7378 148.185 22.1232C148.302 21.5585 148.604 20.8776 148.972 20.0305C149.391 19.1004 149.876 18.0374 150.111 16.9246C150.496 15.1308 150.496 13.6858 150.262 12.2575C150.613 12.8222 150.915 13.4201 151.166 14.0346C151.45 14.7322 151.651 15.463 151.752 16.227C151.852 16.991 151.852 17.7717 151.735 18.5523C152.003 17.8215 152.17 17.0243 152.221 16.227C152.271 15.4132 152.221 14.5993 152.07 13.8021C151.936 13.0713 151.735 12.3405 151.467 11.6429C152.622 13.3204 153.208 15.3634 153.242 17.8215C153.275 20.9108 152.204 23.5018 151.182 24.1163C151.048 24.1994 150.931 24.2492 150.814 24.2824C150.379 24.3821 149.709 24.0831 149.709 24.0831C149.408 24.5814 149.106 25.0298 148.788 25.5115C147.934 26.7904 147.13 28.0028 146.779 29.3149C145.992 32.3544 146.327 35.2444 147.817 37.9018C148.286 38.7323 148.905 39.5129 149.525 40.2603C150.797 41.8382 152.12 43.4658 152.17 45.7745C152.204 47.07 151.551 48.2492 150.429 48.9302C149.826 49.2956 149.123 49.4949 148.42 49.4949C148.102 49.4949 147.767 49.4451 147.449 49.3787C147.164 49.2956 146.879 49.196 146.611 49.0465C146.528 48.9966 146.444 48.9468 146.36 48.897C146.41 49.2956 146.427 49.7108 146.41 50.1095C146.41 50.2091 146.394 50.3254 146.394 50.425C146.343 51.106 146.243 51.8036 146.193 52.4845C146.109 53.3648 145.958 53.4645 146.226 54.3282C146.544 55.3247 147.901 55.9226 149.307 56.2382C150.195 56.4375 151.4 56.6202 152.338 56.7365C153.175 56.8527 153.795 57.5337 153.845 58.3641C153.962 60.4071 154.129 64.0278 153.979 65.041C153.811 66.1538 153.158 67.1005 152.12 67.5988C152.187 67.7482 152.254 67.8977 152.321 68.0306C152.472 68.4126 152.589 68.7448 152.639 69.0604C152.974 70.8707 151.668 71.4355 150.496 71.7178L150.345 70.0901C150.328 70.0237 150.01 69.8742 149.943 69.841C149.843 69.7746 149.726 69.7081 149.642 69.6251C149.441 69.4424 149.374 69.2265 149.341 68.9939C149.324 68.8611 149.324 68.7282 149.324 68.5787C149.307 68.3296 149.274 68.0804 149.14 67.8977C149.073 67.8147 149.006 67.7483 148.889 67.6984C148.788 67.6486 148.688 67.632 148.587 67.632C148.47 67.632 148.369 67.6652 148.269 67.715C148.051 67.8313 147.867 68.0472 147.834 68.313C147.817 68.4126 147.834 68.5455 147.85 68.6784C147.934 69.16 148.168 69.8244 147.951 70.4057C147.817 70.7877 147.298 71.3026 146.729 71.3026C146.544 71.3026 146.377 71.2528 146.193 71.1365L145.021 72.1663C143.463 70.4721 143.949 68.8444 145.64 68.1469C145.774 68.097 145.891 68.0306 145.992 67.9642C146.31 67.7483 146.494 67.4659 146.31 67.1669C146.176 66.9344 146.025 66.8514 145.824 66.8514C145.523 66.8514 145.138 67.0341 144.552 67.2666C144.518 67.2832 144.485 67.2998 144.435 67.3164C144.116 67.4327 143.815 67.5157 143.53 67.5157C142.928 67.5157 142.442 67.1669 142.191 66.2036C142.174 66.1206 142.157 66.0209 142.141 65.9379L141.739 66.104L141.036 66.3863C141.052 66.27 141.069 66.1372 141.086 66.0209C141.153 65.6223 141.287 65.2901 141.437 65.0078C141.956 64.061 142.877 63.679 143.815 63.679C145.021 63.679 146.26 64.277 146.779 65.041L148.989 65.3399C149.441 64.7752 149.458 63.1143 149.391 61.8188C149.341 60.8721 148.637 60.1081 147.7 59.9586C146.092 59.7261 143.681 59.3773 142.827 59.3109C141.203 59.1946 139.512 58.9122 138.289 57.733C136.615 56.0887 136.247 54.378 136.247 52.0029C136.247 51.2223 136.28 50.4416 136.347 49.6444C136.397 48.9634 136.481 48.2825 136.548 47.6181C136.598 47.1697 136.665 46.7212 136.732 46.2728C136.799 45.8575 136.799 45.4091 136.766 44.9773C136.749 44.8112 136.732 44.6617 136.699 44.4956C136.615 44.0139 136.481 43.5489 136.297 43.0672C136.096 42.569 135.811 42.1039 135.476 41.6555C134.941 40.9579 134.237 40.3433 133.35 39.8451C133.032 39.6624 132.647 39.4465 132.245 39.1973C131.843 38.9482 131.408 38.6824 130.956 38.3669C129.85 37.6361 128.628 36.7226 127.49 35.6762C127.573 35.6264 127.657 35.5765 127.741 35.5267C128.159 35.2776 129.315 34.4305 130.403 33.5336C130.671 33.3177 130.905 33.1184 131.123 32.9191L130.085 32.371C128.879 33.3842 127.54 34.3807 127.188 34.58C127.021 34.6797 126.853 34.7793 126.686 34.879C126.368 35.0617 126.05 35.2444 125.748 35.4105C123.99 36.407 122.734 37.088 122.768 38.2506C124.944 40.5759 123.756 41.9544 122.55 42.3696L122.148 41.0907C120.876 40.8748 120.892 39.9447 120.842 39.2305C120.809 38.8485 120.507 38.6326 120.206 38.6326C119.955 38.6326 119.703 38.7987 119.687 39.1807C119.653 39.5959 119.687 40.0278 119.57 40.7087C119.486 41.1738 118.983 41.8049 118.263 41.8049C118.146 41.8049 118.029 41.7883 117.912 41.7551L117.644 43.2665C115.166 42.8015 115.434 40.3599 117.108 39.5295C118.063 39.0478 118.364 38.699 118.079 38.3336C117.996 38.234 117.895 38.1842 117.778 38.1842C117.426 38.1842 116.907 38.5662 116.405 38.9316C116.187 39.0977 115.903 39.1807 115.601 39.1807C114.948 39.1807 114.245 38.7655 113.944 37.7856L113.09 38.3004C112.939 36.4568 114.094 35.5433 115.266 35.5433C115.819 35.5433 116.388 35.7426 116.824 36.1413C116.991 36.2907 117.158 36.3572 117.326 36.3572C117.862 36.3572 118.23 35.6928 117.51 35.3108C116.823 34.9454 116.17 33.816 116.807 33.1018L115.769 32.1385C116.237 31.8561 116.74 31.7233 117.209 31.7233C118.247 31.7233 119.201 32.3876 119.503 33.899C119.57 34.2478 119.72 34.3807 119.921 34.3807C120.49 34.3807 121.495 33.1682 122.249 31.9724C122.433 31.69 122.6 31.3911 122.768 31.1087C122.985 30.7267 123.22 30.3613 123.471 29.9959C123.789 29.5309 124.124 29.0824 124.543 28.6838C125.246 27.9862 126.468 26.7738 127.875 25.9599C128.21 25.7772 128.561 25.5945 128.913 25.445C129.331 24.8969 129.75 24.3322 130.118 23.7509C131.106 22.2561 131.927 20.6616 132.396 18.9841C131.625 20.562 130.554 21.9405 129.365 23.1696C128.812 23.7509 128.243 24.2824 127.64 24.8139C126.016 25.6443 124.66 26.9897 123.856 27.7703L123.739 27.8866C123.504 28.1191 123.287 28.3516 123.103 28.6008C122.835 26.9731 122.902 24.9634 123.421 23.0533C123.521 22.6879 123.638 22.3059 123.772 21.9571C124.258 20.6949 124.961 19.499 125.916 18.5357ZM132.178 11.9419C132.814 11.726 133.45 11.5599 134.053 11.5599C134.556 11.5599 135.024 11.6762 135.46 11.9253C135.443 12.1246 135.409 12.2907 135.393 12.3737C135.393 12.3903 135.393 12.3903 135.393 12.3903C135.393 12.3903 135.309 12.4734 134.974 12.5066C134.857 12.5232 134.723 12.5232 134.572 12.5232C133.919 12.5232 133.183 12.4236 132.529 12.3073C131.876 12.2076 130.889 11.9917 130.889 11.9917C130.788 11.4602 130.872 10.8955 131.073 10.9121C131.307 10.962 131.475 11.5267 132.178 11.9419ZM131.491 11.1114L131.893 10.6962C132.898 9.79933 133.618 9.60002 134.036 9.60002C134.79 9.60002 135.091 10.1813 135.158 10.364C135.225 10.5301 135.276 10.6962 135.326 10.8457C134.924 10.663 134.489 10.5966 134.036 10.5966C133.233 10.5966 132.379 10.8457 131.491 11.1114ZM138.423 62.3171C137.184 63.1475 136.029 63.5462 134.807 63.5462C133.668 63.5462 132.563 63.214 131.391 62.8486C131.073 62.7489 130.755 62.6493 130.42 62.5662C129.901 62.4168 129.348 62.3503 128.796 62.3503C127.456 62.3503 126.301 62.7822 125.547 63.1642C125.631 62.8818 125.899 61.8188 125.899 61.005C126.887 60.4569 127.573 59.6763 127.908 58.6631C128.41 57.1517 128.812 54.4776 128.41 51.5877C129.197 51.488 130.319 51.3219 131.441 51.1392C132.663 50.9399 133.668 50.7406 134.405 50.5579C134.756 50.4749 135.041 50.3918 135.292 50.3088C135.259 50.8901 135.242 51.4714 135.242 52.0527C135.242 53.4977 135.376 54.5773 135.677 55.524C136.046 56.6534 136.665 57.6333 137.586 58.5302C139.06 59.9752 141.036 60.2908 142.777 60.4071C143.396 60.4569 145.104 60.6728 147.566 61.0382C148.001 61.1046 148.353 61.47 148.369 61.9185C148.436 63.1143 148.386 63.8285 148.319 64.2271L147.348 64.0943C146.544 63.2306 145.171 62.6659 143.832 62.6659C142.141 62.6659 140.868 63.5462 140.299 65.041C139.997 65.0742 139.662 65.124 139.328 65.2071C139.964 64.2437 140.014 63.3469 140.031 63.2306L140.115 61.1545L138.423 62.3171ZM121.596 62.4998C121.495 62.4167 121.395 62.3171 121.311 62.2174C121.294 62.1842 121.277 62.1676 121.261 62.1344C121.043 61.7856 121.11 61.4202 121.16 61.0382C121.21 60.6562 121.21 60.2742 120.859 60.0251C120.725 59.9254 120.574 59.8756 120.423 59.8756C120.323 59.8756 120.239 59.8922 120.156 59.9254C119.921 60.0084 119.703 60.2077 119.62 60.4735C119.57 60.6064 119.57 60.7891 119.57 61.005C119.57 61.1877 119.586 61.387 119.586 61.5863C119.586 61.9351 119.553 62.3171 119.402 62.6493C119.385 62.6825 119.369 62.7157 119.352 62.7489C119.151 63.0811 118.615 63.4963 118.063 63.4963C117.811 63.4963 117.56 63.4133 117.343 63.1974L115.886 64.0777C115.886 64.0777 115.869 64.0777 115.869 64.061C115.769 63.9116 115.702 63.7621 115.618 63.6292C115.45 63.2804 115.333 62.9648 115.266 62.6493C114.998 61.2541 115.836 60.241 117.309 59.9088C117.912 59.7759 118.397 59.4603 118.213 58.9787C118.096 58.6631 117.895 58.5468 117.594 58.5468C117.276 58.5468 116.823 58.6631 116.204 58.796C116.003 58.8292 115.819 58.8624 115.635 58.8956C115.484 58.9122 115.333 58.9289 115.199 58.9289C114.546 58.9289 114.128 58.6133 114.128 57.3178L112.872 57.5835C113.441 55.607 114.597 54.843 115.802 54.843C117.041 54.843 118.347 55.6569 119.151 56.7697L119.653 56.9358L120.541 57.2347L122.316 57.8327C124.04 56.3877 123.253 52.5842 123.253 52.5842C123.253 52.5842 119.888 50.7074 121.01 46.5385C121.01 46.5385 121.596 42.6188 128.796 42.6188C129.566 42.6188 130.403 42.6686 131.324 42.7683C131.876 42.8347 132.379 42.9011 132.831 42.9842C132.831 42.9842 132.831 43.0008 132.848 43.0008C132.68 43.3828 132.63 43.8146 132.714 44.2299C132.831 44.8776 133.233 45.4257 133.819 45.7247C134.103 45.8742 134.422 45.9572 134.756 45.9572C135.125 45.9572 135.476 45.8575 135.811 45.6748C135.811 45.8575 135.795 46.0236 135.778 46.1897C135.644 47.1198 135.51 48.1164 135.426 49.1627C133.969 49.8935 127.222 50.724 127.222 50.724C127.875 53.8797 127.456 56.8693 126.954 58.3641C126.77 58.9122 126.451 59.3441 126.05 59.6929C125.731 59.9752 125.363 60.1911 124.944 60.3572C124.861 61.4534 124.777 62.2673 124.576 62.915C124.526 63.1475 124.442 63.3469 124.342 63.5129C123.839 64.36 122.801 64.5593 121.863 64.6257L122.014 62.8652C121.964 62.7655 121.663 62.5496 121.596 62.4998ZM123.99 37.9849C124.275 37.5364 125.229 37.0215 126.217 36.4568C126.334 36.3904 126.468 36.324 126.602 36.2409C126.786 36.407 126.97 36.5731 127.155 36.7392C127.607 37.1378 128.076 37.5198 128.544 37.8852L128.561 37.9018L130.872 40.2935C131.475 40.9247 131.893 41.4063 132.178 41.8049L128.812 41.5724C127.155 41.5724 125.815 41.7717 124.727 42.0873C124.877 41.8548 124.995 41.589 125.062 41.3233C125.33 40.061 124.71 38.8817 123.99 37.9849ZM133.551 42.0541C133.35 41.6721 133.032 41.1904 132.496 40.5427C132.63 40.6257 132.781 40.7087 132.898 40.7752C133.702 41.2236 134.304 41.7717 134.756 42.3696C135.108 42.8347 135.343 43.333 135.527 43.8146C135.594 43.9973 135.644 44.1966 135.677 44.3793C135.476 44.6949 135.125 44.8942 134.756 44.8942C134.606 44.8942 134.455 44.861 134.304 44.778C133.752 44.4956 133.534 43.7648 133.919 43.2001C133.953 43.1503 133.986 43.1004 134.036 43.0506C133.869 42.7683 133.752 42.4527 133.551 42.0541ZM117.945 12.3239C118.615 12.7723 119.251 13.2872 119.871 13.8021C120.876 14.6326 121.847 15.5128 122.902 16.2935C123.236 16.5426 124.258 17.3066 125.062 17.9211C124.827 18.1703 124.61 18.4194 124.392 18.6852C123.806 19.4492 123.32 20.3128 122.952 21.2097L121.06 19.4326C121.261 18.9177 121.328 18.3198 121.261 17.7052C121.261 17.672 121.244 17.6388 121.244 17.589L120.239 18.0706C120.273 18.818 119.988 19.5987 119.302 19.9641C119.084 20.0803 118.9 20.1301 118.649 20.1301C118.649 20.1301 118.649 20.1301 118.632 20.1301L118.665 19.2167C118.33 19.2167 117.878 18.8679 117.878 18.3862C117.878 17.8381 118.23 17.5391 118.665 17.4063V16.3433C117.828 16.4928 117.209 16.991 116.957 17.672L115.852 17.6886C115.802 16.8582 116.204 16.1108 117.058 15.8284V14.7488C116.338 14.8983 115.869 15.2471 115.584 15.5627C115.501 15.6457 115.434 15.7454 115.35 15.845L114.513 15.8616C114.479 15.0644 114.881 14.3502 115.635 14.1011V13.0215C115.166 13.1211 114.764 13.3038 114.412 13.6028H113.625C113.642 13.0879 113.944 12.5896 114.362 12.2741C114.73 12.0083 115.199 11.8588 115.668 11.809C115.819 11.7924 115.97 11.7758 116.12 11.7758C116.321 11.7758 116.522 11.7924 116.706 11.8256C117.158 11.9087 117.577 12.0748 117.945 12.3239ZM115.702 5.68029C116.338 4.6007 116.706 3.22215 116.723 1.79378H119.251C119.268 1.97648 119.285 2.14257 119.285 2.32526C119.285 5.06576 117.075 7.29137 114.345 7.29137H114.161C114.747 6.94258 115.266 6.41109 115.702 5.68029ZM104.165 5.68029C104.801 4.6007 105.17 3.22215 105.186 1.79378H108.619C108.636 3.22215 109.004 4.6007 109.64 5.68029C110.076 6.41109 110.595 6.95918 111.181 7.29137H108.887C108.301 6.69344 107.815 5.8796 107.497 4.91627H106.342C106.04 5.8796 105.555 6.69344 104.952 7.29137H102.608C103.211 6.94258 103.746 6.41109 104.165 5.68029ZM92.4608 5.68029C93.0971 4.6007 93.4654 3.22215 93.4822 1.79378H97.0989C97.1157 3.22215 97.484 4.6007 98.1203 5.68029C98.5557 6.41109 99.0747 6.94258 99.6608 7.29137H97.1659C96.5799 6.69344 96.0943 5.8796 95.7761 4.91627H94.6208C94.3194 5.8796 93.8338 6.69344 93.231 7.29137H90.8868C91.4896 6.94258 92.0254 6.41109 92.4608 5.68029ZM81.0413 5.68029C81.6776 4.6007 82.0459 3.22215 82.0627 1.79378H85.378C85.3948 3.22215 85.7631 4.6007 86.3994 5.68029C86.8348 6.41109 87.3538 6.95918 87.9399 7.29137H85.5957C85.0097 6.69344 84.5241 5.8796 84.2059 4.91627H83.0506C82.7492 5.8796 82.2636 6.69344 81.6608 7.29137H79.4674C80.0869 6.94258 80.6227 6.41109 81.0413 5.68029ZM71.3465 2.24222C71.3465 2.09274 71.3464 1.94326 71.3632 1.77717H73.9585C73.9753 3.20554 74.3436 4.58409 74.9799 5.66368C75.4153 6.39448 75.9343 6.94258 76.5204 7.27476H76.2692C73.6237 7.29137 71.3465 4.98271 71.3465 2.24222ZM67.4451 16.2769C68.4999 15.4962 69.4711 14.6326 70.4758 13.7855C71.0953 13.2706 71.7316 12.7557 72.4013 12.3073C72.7864 12.0415 73.2218 11.8755 73.6906 11.809C73.8581 11.7758 74.0423 11.7592 74.2264 11.7592C74.3939 11.7592 74.5613 11.7758 74.7455 11.7924C75.1976 11.8588 75.6497 11.9917 76.0013 12.2575C76.4199 12.5564 76.7213 13.0547 76.7381 13.5862H75.9511C75.5995 13.3038 75.1809 13.1045 74.7288 13.0049V14.0845C75.499 14.3336 75.9009 15.0478 75.8506 15.845L75.0134 15.8284C74.9464 15.7288 74.8627 15.6457 74.779 15.5461C74.4943 15.2471 74.0088 14.8983 73.3055 14.7322V15.8118C74.1427 16.0942 74.5446 16.8416 74.5111 17.672L73.406 17.6554C73.1548 16.9578 72.5353 16.4762 71.6981 16.3267V17.3897C72.1334 17.5225 72.4851 17.8215 72.4851 18.3696C72.4851 18.8513 72.0497 19.2 71.6981 19.2L71.7316 20.1135C71.7316 20.1135 71.7316 20.1135 71.7148 20.1135C71.4804 20.1135 71.2795 20.0471 71.0618 19.9474C70.3753 19.5821 70.1074 18.7848 70.1241 18.054L69.1195 17.5724C69.1195 17.6056 69.1027 17.6388 69.1027 17.6886C69.019 18.3032 69.1027 18.9011 69.3037 19.416L67.4116 21.2097C67.0432 20.3128 66.5576 19.4658 65.9716 18.6852C65.7539 18.4194 65.5362 18.1537 65.3018 17.9211C66.0888 17.29 67.1102 16.526 67.4451 16.2769ZM36.3345 65.0908C36.1838 64.0777 36.3512 60.4735 36.4684 58.414C36.5187 57.5835 37.1549 56.9026 37.9754 56.7863C38.9131 56.6534 40.1187 56.4707 41.0061 56.288C42.4126 55.9891 43.7689 55.3745 44.087 54.378C44.3549 53.5143 44.2042 53.4146 44.1205 52.5344C44.0535 51.8534 43.9698 51.1558 43.9196 50.4749C43.9196 50.3752 43.9028 50.2589 43.9028 50.1593C43.8861 49.7607 43.9028 49.3454 43.9531 48.9468C43.8693 48.9966 43.7856 49.0465 43.7019 49.0963C43.434 49.2458 43.1493 49.3454 42.8647 49.4285C42.5466 49.5115 42.2284 49.5447 41.8935 49.5447C41.1903 49.5447 40.5038 49.362 39.8842 48.98C38.7624 48.2991 38.1094 47.1198 38.1429 45.8243C38.1931 43.5157 39.5159 41.888 40.7884 40.3101C41.3912 39.5627 42.0275 38.7821 42.4963 37.9516C43.9866 35.2942 44.3382 32.4042 43.5345 29.3648C43.1828 28.036 42.3791 26.8402 41.5252 25.5613C41.207 25.0796 40.9056 24.6312 40.6042 24.1329C40.6042 24.1329 39.9345 24.4319 39.4991 24.3322C39.3819 24.299 39.2647 24.2492 39.1308 24.1661C38.1094 23.535 37.021 20.9606 37.0712 17.8713C37.1047 15.4132 37.6908 13.3703 38.8461 11.6928C38.5949 12.3903 38.3773 13.1211 38.2433 13.8519C38.0926 14.6492 38.0424 15.4796 38.0926 16.2769C38.1428 17.0907 38.3103 17.8713 38.5782 18.6021C38.461 17.8215 38.461 17.0409 38.5615 16.2769C38.6619 15.5128 38.8628 14.782 39.1475 14.0845C39.3987 13.4699 39.7001 12.872 40.0517 12.3073C39.8173 13.7357 39.8173 15.1807 40.2024 16.9744C40.4368 18.0872 40.9224 19.1502 41.341 20.0803C41.7261 20.9274 42.0107 21.6084 42.128 22.1731C42.2619 22.7876 42.1782 23.2526 41.7596 23.6347C41.8266 23.7509 41.9103 23.8672 41.9773 23.9834C42.1614 24.2658 42.3624 24.5648 42.5633 24.8637C43.434 26.1758 44.3382 27.5212 44.74 29.0492C45.6107 32.371 45.2089 35.6596 43.5847 38.5662C43.0656 39.4963 42.3959 40.3101 41.7596 41.1074C40.5707 42.5856 39.4321 43.9807 39.3819 45.8741C39.3652 46.7378 39.7838 47.4852 40.5205 47.9337C41.2907 48.3987 42.2117 48.4319 42.9986 48.0499C43.0154 48.0333 43.0489 48.0333 43.0656 48.0167C43.6684 47.7011 44.2042 47.1032 44.5224 46.4056C44.5391 46.3724 44.5391 46.3392 44.5559 46.306C44.941 45.1932 45.4098 44.097 45.9456 43.0506C47.5196 39.9281 49.4786 37.0049 50.7177 33.7163C51.7893 30.8928 51.3037 27.4547 51.3037 27.4547C50.2154 27.8866 48.6247 27.9364 48.6247 27.9364C48.6749 24.4153 41.0563 16.2436 45.6945 6.27821C46.0126 6.79309 46.4312 7.32458 47.0172 7.87268L47.4358 8.2713V6.82631C45.0079 4.33496 46.1298 1.95987 47.034 1.16263C47.7205 1.41177 48.5075 2.15917 49.0935 3.07267L50.1149 2.74049C49.8637 2.32526 49.5791 1.92665 49.261 1.56125C49.3614 1.49481 49.4619 1.44499 49.5791 1.42838C49.6293 1.42838 49.6963 1.41177 49.78 1.41177C51.3037 1.41177 57.0302 2.72388 57.5995 3.02284L58.1018 4.53427C59.6591 4.94949 61.099 5.77994 62.1204 6.32804C61.953 6.75988 61.4842 7.73981 60.5465 7.64016C60.5465 7.64016 61.4674 8.18825 61.2832 9.05192C60.9818 9.68307 60.5967 10.3308 60.1111 10.8955L59.1735 9.96542C58.0684 8.95227 57.0972 8.58687 56.2935 8.58687C55.2386 8.58687 54.5019 9.25123 54.2005 10.0152C53.7316 11.1779 53.7819 12.108 53.9493 12.7059C54.0833 13.1544 54.4516 13.5198 55.2888 13.5862C55.4395 13.6028 55.607 13.6028 55.7744 13.6028C57.4991 13.6028 59.7595 12.9883 59.7595 12.9883C60.1111 14.8485 60.3288 15.2139 57.6498 15.2139C57.0302 15.2139 56.26 15.1973 55.3056 15.164L57.9846 16.3765C58.286 16.3599 58.5707 16.3433 58.8553 16.3433C60.8311 16.3433 62.4051 16.9246 63.6442 17.8713C63.9288 18.0872 64.1967 18.3198 64.4479 18.5689C65.4023 19.5322 66.0888 20.7281 66.5744 21.9904C66.7083 22.3558 66.8255 22.7212 66.926 23.0866C67.4451 25.0132 67.512 27.0229 67.2441 28.634C67.0432 28.3848 66.8423 28.1523 66.6079 27.9198L66.4907 27.8035C65.6869 27.0229 64.3307 25.6776 62.7065 24.8471C62.1037 24.3156 61.5344 23.7841 60.9818 23.2028C59.793 21.9571 58.7381 20.5786 57.9512 19.0173C58.4367 20.6949 59.2572 22.3059 60.2284 23.7841C60.6135 24.3655 61.0153 24.9302 61.4339 25.4783C61.8023 25.6277 62.1372 25.7938 62.4721 25.9931C63.8953 26.7904 65.1009 28.0194 65.8041 28.717C66.2227 29.1156 66.5576 29.5641 66.8758 30.0291C67.1269 30.3945 67.3446 30.7599 67.579 31.1419C67.7465 31.4243 67.9307 31.7233 68.0981 32.0056C68.8516 33.2181 69.8562 34.4139 70.4255 34.4139C70.6265 34.4139 70.7772 34.2644 70.8441 33.9323C71.1455 32.4208 72.0999 31.7565 73.1381 31.7565C73.6237 31.7565 74.126 31.906 74.5781 32.1717L73.5399 33.135C74.1595 33.8658 73.5064 34.9786 72.8367 35.344C72.1167 35.726 72.5018 36.3904 73.0209 36.3904C73.1883 36.3904 73.3557 36.324 73.5232 36.1745C73.9585 35.7759 74.5278 35.5765 75.0804 35.5765C76.2525 35.5765 77.4078 36.4734 77.2571 38.3336L76.3529 37.8354C76.0515 38.8153 75.3483 39.2305 74.6953 39.2305C74.3939 39.2305 74.1092 39.1475 73.8916 38.9814C73.3892 38.616 72.8702 38.234 72.5185 38.234C72.4013 38.234 72.2841 38.2838 72.2171 38.3835C71.9492 38.7489 72.2339 39.1143 73.1883 39.5793C74.8795 40.4098 75.1474 42.8513 72.6525 43.3164L72.3846 41.8049C72.2674 41.8382 72.1502 41.8548 72.033 41.8548C71.313 41.8548 70.8106 41.2236 70.7269 40.7586C70.6097 40.0776 70.6432 39.6624 70.6097 39.2305C70.593 38.8485 70.3418 38.6824 70.0906 38.6824C69.7892 38.6824 69.4879 38.8984 69.4544 39.2804C69.4041 39.9946 69.4209 40.9247 68.1483 41.1406L67.7465 42.4195C66.5409 42.0042 65.3353 40.6257 67.5288 38.3004C67.5623 37.1212 66.3065 36.4402 64.5483 35.4603C64.2469 35.2942 63.9288 35.1115 63.6107 34.9288C63.4432 34.8291 63.2758 34.7295 63.1083 34.6298C62.7567 34.4139 61.4004 33.434 60.2116 32.4208L59.1735 32.9689C59.3911 33.1516 59.6256 33.3509 59.8935 33.5835C60.9651 34.4637 62.1204 35.3274 62.5558 35.5765C62.6395 35.6264 62.7232 35.6762 62.8069 35.726C61.6683 36.7724 60.446 37.6859 59.3409 38.4167C58.8888 38.7157 58.4535 38.998 58.0516 39.2471C57.6498 39.4963 57.2646 39.7122 56.9465 39.8949C56.0591 40.3932 55.3558 41.0077 54.82 41.7053C54.4684 42.1537 54.2005 42.6354 53.9995 43.117C53.7986 43.5821 53.6647 44.0638 53.5977 44.5454C53.5642 44.7115 53.5474 44.861 53.5307 45.0271C53.4972 45.4755 53.514 45.9074 53.5642 46.3226C53.6312 46.771 53.6814 47.2195 53.7484 47.6679C53.8321 48.3489 53.8991 49.0133 53.9493 49.6942C54.0163 50.4915 54.0498 51.2721 54.0498 52.0527C54.0498 54.4444 53.6814 56.1551 52.007 57.7828C50.8014 58.9621 49.1102 59.2444 47.4693 59.3607C46.6154 59.4105 44.221 59.7593 42.5968 60.0084C41.6591 60.1413 40.9559 60.9219 40.9056 61.8686C40.8387 63.1475 40.8554 64.8251 41.3075 65.3898L43.5177 65.0908C44.0368 64.3268 45.2758 63.7289 46.4814 63.7289C47.4191 63.7289 48.34 64.0943 48.8591 65.0576C49.0098 65.3399 49.1437 65.6721 49.2107 66.0707C49.2275 66.187 49.2442 66.3033 49.261 66.4361L48.5577 66.1538L48.1558 65.9877C48.1391 66.0873 48.1223 66.1704 48.1056 66.2534C47.8712 67.2168 47.3689 67.5655 46.7661 67.5655C46.4814 67.5655 46.18 67.4825 45.8619 67.3662C45.8284 67.3496 45.7949 67.333 45.7447 67.3164C45.1754 67.0839 44.7735 66.9012 44.4721 66.9012C44.2712 66.9012 44.1205 66.9842 43.9866 67.2168C43.8024 67.5323 43.9865 67.7981 44.3047 68.014C44.4052 68.0804 44.5391 68.1469 44.6563 68.1967C46.3475 68.8943 46.8331 70.522 45.2758 72.2161L44.1038 71.1863C43.9196 71.3026 43.7354 71.3524 43.5679 71.3524C42.9986 71.3524 42.4796 70.8375 42.3456 70.4555C42.128 69.8742 42.3624 69.2098 42.4461 68.7282C42.4628 68.5953 42.4796 68.4624 42.4628 68.3628C42.4293 68.097 42.2452 67.8811 42.0275 67.7649C41.927 67.715 41.8266 67.6818 41.7093 67.6818C41.6089 67.6818 41.5084 67.6984 41.408 67.7482C41.3075 67.7981 41.2238 67.8645 41.1568 67.9476C41.0061 68.1303 40.9726 68.3794 40.9726 68.6285C40.9726 68.7614 40.9726 68.9109 40.9559 69.0438C40.9224 69.2763 40.8554 69.4922 40.6545 69.6749C40.554 69.7579 40.4535 69.8244 40.3531 69.8908C40.2861 69.924 39.968 70.0735 39.9512 70.14L39.8005 71.7676C38.6284 71.4853 37.3391 70.9206 37.6573 69.1102C37.7075 68.8112 37.808 68.4624 37.9754 68.0804C38.0256 67.9476 38.0926 67.7981 38.1763 67.6486C37.1717 67.1503 36.5019 66.2036 36.3345 65.0908ZM56.3102 11.5599C56.913 11.5599 57.5325 11.7094 58.1856 11.9419C58.8888 11.5101 59.0395 10.962 59.3074 10.9287C59.5084 10.9121 59.5921 11.4768 59.4916 12.0083C59.4916 12.0083 58.5037 12.2242 57.8507 12.3239C57.1977 12.4402 56.4609 12.5398 55.8079 12.5398C55.6572 12.5398 55.5233 12.5398 55.406 12.5232C55.0879 12.49 54.9874 12.4236 54.9874 12.4069C54.9874 12.4069 54.9874 12.4069 54.9874 12.3903C54.954 12.2907 54.9205 12.1412 54.9205 11.9419C55.3391 11.6761 55.8079 11.5599 56.3102 11.5599ZM55.0209 10.8457C55.0544 10.6962 55.1214 10.5301 55.1884 10.364C55.2553 10.1813 55.5567 9.60002 56.3102 9.60002C56.7456 9.60002 57.4656 9.78272 58.4535 10.6962L58.8553 11.1114C57.9679 10.8291 57.0972 10.5966 56.2935 10.5966C55.8581 10.5966 55.4395 10.6796 55.0209 10.8457ZM68.0311 57.8327L69.8227 57.2347L70.7102 56.9358L71.2125 56.7697C72.0162 55.6403 73.3223 54.843 74.5613 54.843C75.7669 54.843 76.9222 55.607 77.4915 57.5835L76.2357 57.3178C76.2357 58.5967 75.8171 58.9289 75.1641 58.9289C75.0302 58.9289 74.8795 58.9122 74.7288 58.8956C74.5446 58.8624 74.3604 58.8292 74.1595 58.796C73.5399 58.6797 73.0878 58.5468 72.7697 58.5468C72.4683 58.5468 72.2674 58.6631 72.1502 58.9787C71.9827 59.4603 72.4516 59.7593 73.0544 59.9088C74.5278 60.241 75.365 61.2707 75.0971 62.6493C75.0302 62.9648 74.9297 63.2804 74.7455 63.6292C74.6785 63.7787 74.5948 63.9116 74.4943 64.061C74.4943 64.061 74.4776 64.061 74.4776 64.0777L73.0209 63.1974C72.8032 63.4133 72.552 63.4963 72.3009 63.4963C71.7483 63.4963 71.2125 63.0977 71.0116 62.7489C70.9948 62.7157 70.9781 62.6825 70.9613 62.6493C70.7939 62.3171 70.7772 61.9351 70.7772 61.5863C70.7772 61.387 70.7939 61.1877 70.7939 61.005C70.7939 60.7891 70.7939 60.6064 70.7437 60.4735C70.6599 60.2077 70.4423 60.025 70.2079 59.9254C70.1241 59.8922 70.0237 59.8756 69.9399 59.8756C69.7892 59.8756 69.6385 59.9254 69.5046 60.0251C69.153 60.2742 69.153 60.6562 69.2032 61.0382C69.2534 61.4368 69.3204 61.8022 69.1027 62.1344C69.086 62.1676 69.0693 62.1842 69.0525 62.2174C68.9688 62.3171 68.8683 62.4167 68.7679 62.4998C68.7009 62.5496 68.3995 62.7655 68.3995 62.8486L68.5502 64.6091C67.6125 64.5427 66.5744 64.3434 66.0721 63.4963C65.9716 63.3302 65.8879 63.1143 65.8376 62.8984C65.6534 62.2507 65.5697 61.4534 65.4693 60.3406C65.0507 60.1745 64.6823 59.9586 64.3641 59.6763C63.9623 59.3275 63.6442 58.8956 63.46 58.3475C62.9576 56.8527 62.5223 53.8631 63.1921 50.7074C63.1921 50.7074 56.4442 49.8769 54.9874 49.1461C54.887 48.0998 54.7698 47.0866 54.6358 46.1731C54.6191 46.007 54.6023 45.8409 54.6023 45.6582C54.9205 45.8409 55.2888 45.9406 55.6572 45.9406C55.9921 45.9406 56.2935 45.8575 56.5949 45.7081C57.1809 45.4091 57.5828 44.861 57.7 44.2132C57.7837 43.798 57.7335 43.3662 57.566 42.9842C57.566 42.9842 57.566 42.9676 57.5828 42.9676C58.0349 42.8845 58.5372 42.8181 59.0898 42.7517C60.0107 42.652 60.8479 42.6022 61.6181 42.6022C68.8181 42.6022 69.4041 46.5219 69.4041 46.5219C70.526 50.6908 67.1604 52.5676 67.1604 52.5676C67.1604 52.5676 66.3232 56.3877 68.0311 57.8327ZM50.2991 63.2306C50.2991 63.3469 50.3661 64.2437 51.0023 65.2071C50.6507 65.124 50.3326 65.0742 50.0312 65.041C49.4619 63.5462 48.1893 62.6659 46.4982 62.6659C45.1586 62.6659 43.7856 63.2306 42.9819 64.0943L42.0107 64.2271C41.9438 63.8119 41.8935 63.0977 41.9605 61.9185C41.9773 61.47 42.3289 61.1046 42.7642 61.0382C45.2256 60.6728 46.9335 60.4403 47.5531 60.4071C49.2944 60.2908 51.2702 59.9752 52.7437 58.5302C53.6647 57.6333 54.3009 56.6368 54.6526 55.524C54.954 54.5773 55.0879 53.5143 55.0879 52.0527C55.0879 51.4714 55.0712 50.8901 55.0377 50.3088C55.2888 50.3918 55.5902 50.4749 55.9251 50.5579C56.6619 50.7406 57.6665 50.9399 58.8888 51.1392C60.0107 51.3219 61.1325 51.488 61.9195 51.5877C61.5176 54.4942 61.9028 57.1517 62.4218 58.6631C62.7567 59.6597 63.4432 60.4569 64.4311 61.005C64.4311 62.068 64.766 63.1309 64.766 63.1642C64.0125 62.7822 62.8572 62.3503 61.5177 62.3503C60.9651 62.3503 60.4125 62.4334 59.8935 62.5662C59.5586 62.6659 59.2404 62.7655 58.9223 62.8486C57.7502 63.1974 56.6619 63.5462 55.5065 63.5462C54.2842 63.5462 53.1288 63.1642 51.8898 62.3171L50.1651 61.1545L50.2991 63.2306ZM56.4609 43.2167C56.8293 43.7814 56.6284 44.5122 56.0758 44.7946C55.9251 44.8776 55.7744 44.9108 55.6237 44.9108C55.2553 44.9108 54.9037 44.7115 54.7028 44.3959C54.7363 44.2132 54.8033 44.0139 54.8535 43.8312C55.0209 43.333 55.2721 42.8513 55.6237 42.3863C56.0758 41.7883 56.6786 41.2402 57.4823 40.7918C57.5995 40.7253 57.7335 40.6423 57.8842 40.5593C57.3484 41.207 57.0302 41.6721 56.8293 42.0707C56.6116 42.4693 56.5112 42.7849 56.3605 43.0838C56.3772 43.1171 56.4274 43.1669 56.4609 43.2167ZM63.2088 36.7558C63.393 36.5897 63.5772 36.4236 63.7614 36.2575C63.8953 36.324 64.0125 36.407 64.1465 36.4734C65.1344 37.0215 66.0721 37.553 66.3734 38.0015C65.6534 38.8817 65.0172 40.0776 65.3353 41.3233C65.4023 41.589 65.5195 41.8548 65.6702 42.0873C64.5818 41.7717 63.2423 41.5724 61.5846 41.5724L58.2191 41.8049C58.5037 41.4063 58.9056 40.9247 59.5251 40.2935L61.8358 37.9018L61.8525 37.8852C62.2879 37.5364 62.7567 37.1544 63.2088 36.7558ZM48.273 72.2825C46.5484 74.1095 44.221 74.9566 41.8266 74.9566C37.7242 74.9566 33.488 72.4486 31.9978 68.0306C31.9978 68.0306 34.0238 68.7116 36.6359 69.0105C36.5187 69.7247 36.5856 70.3559 36.8536 70.9206C37.4229 72.1164 38.6787 72.5483 39.5661 72.7808L40.7549 73.0797L40.8721 71.8673L40.9893 70.7379C41.0898 70.6714 41.207 70.5884 41.3075 70.5053C41.3242 70.605 41.3577 70.7047 41.3912 70.8043C41.6759 71.5849 42.58 72.3822 43.6014 72.3822C43.7019 72.3822 43.8024 72.3822 43.9028 72.3656L44.6228 72.9967L45.3931 73.6777L46.0963 72.9137C47.0842 71.8507 47.4861 70.6548 47.2349 69.5586C47.1512 69.2098 47.0172 68.8777 46.8163 68.5787C47.4358 68.5787 47.9884 68.3462 48.407 67.9143C48.5577 67.7483 48.7084 67.5656 48.8089 67.3496L48.8758 67.3662L50.5 68.0306L50.3158 66.3033C50.3158 66.2368 50.2991 66.187 50.2991 66.1206C51.0191 66.2368 51.8898 66.5026 52.9949 66.9178C53.1456 67.0008 53.313 67.0673 53.4637 67.1171C53.5474 67.1503 53.6144 67.1835 53.6981 67.2002C53.3465 67.3995 52.9949 67.5988 52.6767 67.7981C51.0861 68.8112 49.9977 69.9074 49.4284 71.0534C49.0768 71.4521 48.6917 71.8507 48.273 72.2825ZM60.6804 68.6784C59.5251 69.6417 57.9177 69.841 56.4609 69.9406C52.0405 70.2728 50.2321 74.2258 50.2321 74.2258C49.8637 73.3123 49.9307 72.4486 50.2823 71.668C50.8182 70.4721 52.0237 69.4424 53.2963 68.6451C55.4228 67.3164 57.767 66.569 57.767 66.569C57.3484 66.6022 56.9632 66.6188 56.5949 66.6188C55.6739 66.6188 54.9205 66.5026 54.3009 66.3199C53.9493 66.2202 53.6312 66.0873 53.3633 65.9545C51.4042 64.9579 51.3372 63.1808 51.3372 63.1808C52.8944 64.2271 54.2674 64.5925 55.54 64.5925C57.1809 64.5925 58.6711 64.0112 60.1949 63.5794C60.647 63.4465 61.099 63.3967 61.5344 63.3967C62.7902 63.3967 63.8786 63.8617 64.4981 64.1939C63.7111 64.6756 63.0414 65.2901 62.5223 66.0707C62.3214 66.3863 62.1372 66.7019 61.9865 67.0008C61.5009 67.6818 61.1828 68.2797 60.6804 68.6784ZM68.0311 67.1669C66.4907 67.5157 65.0507 68.396 64.5651 69.9739C64.2804 70.8874 64.3307 71.8839 64.3809 72.8306C64.3809 72.8306 61.233 71.0534 62.9074 67.5489C63.0414 67.2666 63.2256 66.951 63.4265 66.6354C63.8283 66.0209 64.3139 65.5891 64.766 65.2569C64.9335 65.1572 65.1009 65.0742 65.2851 64.9745L65.7539 64.742C66.5576 65.423 67.646 65.5891 68.4497 65.6389L69.672 65.722L69.5716 64.5095L69.4711 63.2472C69.6051 63.1309 69.739 62.9981 69.873 62.832C69.873 62.8154 69.8897 62.8154 69.8897 62.7988C69.9399 62.9482 70.0069 63.0977 70.0906 63.2306C70.459 63.8617 71.3297 64.4929 72.2841 64.4929C72.5353 64.4929 72.7697 64.443 73.0041 64.36L73.5567 64.6922C73.5232 64.7254 73.473 64.7586 73.4395 64.7918C71.6478 66.4694 70.3251 66.6521 68.0311 67.1669ZM115.534 72.9469C115.534 72.9469 116.438 68.9773 114.513 67.715C111.432 65.7219 109.791 67.4327 106.342 64.8251C106.308 64.7752 106.258 64.742 106.224 64.6922C104.6 63.0645 102.809 62.0347 101.184 61.4866C100.063 61.6693 98.8236 61.8022 97.4505 61.8686C97.7185 61.8853 97.9864 61.9019 98.271 61.9351C98.7566 61.9849 99.2757 62.068 99.8115 62.1842C100.632 62.3669 101.503 62.6493 102.373 63.0645C103.428 63.5794 104.483 64.4098 105.471 65.4064C105.538 65.4728 105.588 65.5226 105.638 65.5891C107.782 67.8977 107.212 70.1566 107.212 70.1566C107.212 70.1566 104.466 66.5358 100.364 66.5358C98.405 66.5358 96.7138 67.1835 95.8431 67.6154L95.2068 67.9476L94.5706 67.6154C93.6999 67.2002 92.0087 66.5358 90.0496 66.5358C85.9473 66.5358 83.2013 70.1566 83.2013 70.1566C83.2013 70.1566 82.6153 67.8977 84.7752 65.5891C84.8255 65.5226 84.8925 65.4728 84.9427 65.4064C85.9306 64.4098 86.9855 63.5628 88.0403 63.0645C88.911 62.6493 89.7817 62.3669 90.6022 62.1842C91.138 62.068 91.6571 61.9849 92.1427 61.9351C92.4273 61.9019 92.712 61.8853 92.9799 61.8686C91.6068 61.8022 90.3678 61.6693 89.2292 61.4866C87.605 62.0347 85.8134 63.0479 84.1892 64.6922C84.139 64.742 84.1055 64.7752 84.072 64.8251C80.6227 67.4327 78.9818 65.7219 75.9009 67.715C73.9753 68.9607 74.8795 72.9469 74.8795 72.9469C74.8795 72.9469 70.8106 69.8908 74.4943 65.8548C75.2646 65.0078 76.2023 64.3102 76.8888 63.8451C77.4581 63.4631 77.8599 63.2472 77.8599 63.2472C77.8599 63.2472 77.525 63.214 77.0897 63.1309C76.8553 63.0977 76.5706 63.0313 76.2692 62.9648C76.219 62.9482 76.152 62.9316 76.085 62.915C76.2357 62.2008 76.1855 61.5033 75.9343 60.8887C75.8339 60.6396 75.6832 60.3905 75.5157 60.1745C77.1064 60.6064 79.0655 60.9385 81.2925 60.9385C82.1464 60.9385 83.0339 60.7558 83.9715 60.6562C84.2897 60.623 84.6413 60.6064 84.9929 60.6064C85.1101 60.6064 85.2273 60.6064 85.3445 60.623C84.4738 60.3572 83.7036 60.0583 83.0004 59.7593C82.4311 59.8424 81.8618 59.9254 81.2925 59.9254C79.5343 59.9254 77.9604 59.7095 76.6041 59.3939C76.8553 59.1448 77.006 58.8624 77.1064 58.5468L77.2571 58.5801L78.965 58.9455L78.4794 57.268C77.5753 54.1122 75.432 53.7801 74.5446 53.7801C73.1213 53.7801 71.5809 54.5939 70.5595 55.8728L68.3827 56.6036C67.8972 55.7233 67.9307 54.1621 68.0646 53.1821C68.4497 52.8998 69.0023 52.4181 69.5046 51.7039C70.2748 50.6243 71.0451 48.8139 70.3753 46.2894C70.3083 45.9572 69.9567 44.6783 68.5837 43.5489L68.8348 42.735L69.0525 42.0209C69.3874 41.888 69.6553 41.6887 69.8562 41.4728C70.1576 42.0873 70.7437 42.652 71.4804 42.8347L71.5976 43.4658L71.7818 44.562L72.8702 44.3627C74.3771 44.0804 75.3818 43.1503 75.566 41.888C75.6497 41.3233 75.5492 40.742 75.2981 40.2105C75.8674 40.0776 76.3864 39.762 76.7715 39.2804L78.1948 40.0776L78.3287 38.3835C78.446 36.9053 77.9101 35.9752 77.4413 35.4769C76.8385 34.8291 75.9678 34.4637 75.0637 34.4637C74.9632 34.4637 74.8795 34.4637 74.779 34.4804C74.7957 34.3973 74.8292 34.3143 74.846 34.2312C74.8962 33.9489 74.8962 33.6665 74.846 33.3842L75.3316 32.9357L76.4032 31.9392L75.1474 31.1918C74.5111 30.8098 73.8246 30.6104 73.1381 30.6104C71.9995 30.6104 70.6934 31.1918 70.0404 32.753C69.7725 32.4374 69.4209 31.989 69.0358 31.3745C68.8851 31.1253 68.7344 30.8762 68.5837 30.6271C68.4162 30.3447 68.232 30.0457 68.0479 29.7634V29.7468C68.6004 27.6873 68.5837 24.8637 67.7632 22.2395L69.8227 20.2962C70.0237 20.5288 70.2748 20.7115 70.5427 20.8443C70.9278 21.0436 71.2795 21.1433 71.6813 21.1433H71.6981L72.7864 21.1267V19.798C72.8199 19.7647 72.8702 19.7315 72.9037 19.6983C73.2051 19.416 73.3892 19.0672 73.4562 18.6686L74.4609 18.6852L75.4655 18.7018L75.5157 17.7052C75.5325 17.4063 75.499 17.1239 75.4488 16.8416H75.8171L76.8218 16.8582L76.872 15.8616C76.8888 15.4132 76.8218 14.9813 76.6711 14.5993H76.7046H77.7762L77.7427 13.5364C77.726 12.7059 77.2906 11.9087 76.5874 11.4104C75.9678 10.962 75.2646 10.7959 74.712 10.746V8.32113H115.635V10.7294C115.082 10.7793 114.345 10.9454 113.709 11.4104C113.006 11.9253 112.57 12.7225 112.554 13.5364L112.52 14.5993H113.592H113.625C113.475 14.9813 113.391 15.4132 113.424 15.8616L113.475 16.8582L114.479 16.8416H114.848C114.781 17.1073 114.764 17.4063 114.781 17.7052L114.831 18.7018L115.836 18.6852L116.84 18.6686C116.907 19.0506 117.091 19.416 117.393 19.6983C117.426 19.7315 117.477 19.7647 117.51 19.798V21.1267L118.598 21.1433H118.615C119.017 21.1433 119.369 21.0436 119.754 20.8443C120.022 20.6949 120.273 20.5122 120.474 20.2962L122.533 22.2395C121.713 24.8637 121.679 27.6873 122.249 29.7468V29.7634C122.064 30.0457 121.88 30.3447 121.713 30.6271C121.562 30.8762 121.411 31.1253 121.261 31.3745C120.892 31.9724 120.524 32.4541 120.256 32.7696C119.603 31.2084 118.297 30.6271 117.158 30.6271C116.472 30.6271 115.785 30.8264 115.149 31.2084L113.893 31.9558L114.965 32.9523L115.45 33.4008C115.4 33.6665 115.4 33.9489 115.45 34.2478C115.467 34.3309 115.484 34.4139 115.517 34.497C115.417 34.497 115.333 34.4804 115.233 34.4804C114.312 34.4804 113.441 34.8458 112.855 35.4935C112.386 36.0084 111.85 36.9219 111.968 38.4001L112.102 40.0942L113.525 39.297C113.91 39.762 114.429 40.0776 114.998 40.2271C114.747 40.7586 114.647 41.3233 114.73 41.9046C114.915 43.1835 115.919 44.1136 117.426 44.3793L118.515 44.5786L118.699 43.4824L118.816 42.8513C119.57 42.652 120.156 42.1039 120.44 41.4894C120.641 41.7053 120.909 41.888 121.244 42.0375L121.428 42.6354L121.462 42.7517L121.713 43.5655C120.34 44.7115 119.988 45.9738 119.921 46.306C119.251 48.8306 120.022 50.6409 120.792 51.7205C121.294 52.4347 121.847 52.9164 122.232 53.1987C122.366 54.1787 122.399 55.7399 121.914 56.6202L119.737 55.8894C118.699 54.6105 117.175 53.7967 115.752 53.7967C114.864 53.7967 112.721 54.1288 111.817 57.2846L111.331 58.9621L113.039 58.5967L113.19 58.5635C113.29 58.8624 113.441 59.1614 113.692 59.4105C112.336 59.7095 110.762 59.942 109.004 59.942C108.435 59.942 107.865 59.859 107.296 59.7759C106.593 60.0749 105.823 60.3738 104.952 60.6396C105.069 60.6396 105.17 60.6396 105.287 60.6396C105.638 60.6396 105.99 60.6562 106.308 60.6894C107.246 60.8057 108.133 60.9718 108.987 60.9718C111.214 60.9718 113.173 60.6396 114.764 60.2077C114.597 60.4237 114.446 60.6562 114.345 60.9219C114.094 61.5365 114.044 62.2341 114.195 62.9482C114.128 62.9648 114.077 62.9815 114.01 62.9981C113.709 63.0645 113.424 63.1309 113.19 63.1642C112.738 63.2472 112.47 63.2638 112.47 63.2638C112.47 63.2638 112.872 63.4797 113.441 63.8617C114.128 64.3268 115.049 65.0244 115.836 65.8714C119.603 69.8908 115.534 72.9469 115.534 72.9469ZM125.983 72.8306C126.033 71.8839 126.066 70.8874 125.798 69.9739C125.313 68.396 123.873 67.5323 122.332 67.1669C120.038 66.6354 118.716 66.4694 116.924 64.8251C116.89 64.7918 116.84 64.7586 116.807 64.7254L117.359 64.3932C117.577 64.4763 117.828 64.5261 118.079 64.5261C119.05 64.5261 119.921 63.895 120.273 63.2638C120.357 63.1143 120.423 62.9815 120.474 62.832C120.474 62.8486 120.49 62.8486 120.49 62.8652C120.624 63.0313 120.758 63.1642 120.892 63.2804L120.792 64.5427L120.691 65.7552L121.914 65.6721C122.717 65.6223 123.789 65.4562 124.61 64.7752L125.078 65.0078C125.263 65.1074 125.43 65.1905 125.597 65.2901C126.066 65.6223 126.535 66.0541 126.937 66.6687C127.155 66.9842 127.322 67.2832 127.456 67.5822C129.13 71.0534 125.983 72.8306 125.983 72.8306ZM140.098 74.2424C140.098 74.2424 138.306 70.2894 133.869 69.9573C132.412 69.841 130.822 69.6417 129.649 68.695C129.147 68.2797 128.829 67.6818 128.327 67.0175C128.176 66.7019 127.992 66.4029 127.791 66.0873C127.272 65.3067 126.619 64.6756 125.815 64.2105C126.435 63.8783 127.506 63.4133 128.779 63.4133C129.214 63.4133 129.65 63.4631 130.118 63.596C131.659 64.0278 133.132 64.6091 134.773 64.6091C136.046 64.6091 137.419 64.2604 138.976 63.1974C138.976 63.1974 138.892 64.9745 136.95 65.9711C136.682 66.104 136.364 66.2368 136.012 66.3365C135.393 66.5192 134.623 66.6354 133.718 66.6354C133.35 66.6354 132.965 66.6188 132.546 66.5856C132.546 66.5856 134.89 67.333 137.017 68.6617C138.306 69.4756 139.495 70.4887 140.031 71.6846C140.399 72.4652 140.483 73.3123 140.098 74.2424ZM148.537 74.9566C146.142 74.9566 143.798 74.1095 142.09 72.2825C141.672 71.8507 141.303 71.4355 140.935 71.0701C140.366 69.9074 139.277 68.8278 137.687 67.8147C137.369 67.6154 137.034 67.4161 136.665 67.2168C136.749 67.1835 136.816 67.1503 136.9 67.1337C137.067 67.0673 137.218 67.0008 137.369 66.9344C138.474 66.5026 139.344 66.2534 140.064 66.1372C140.064 66.2036 140.048 66.2534 140.048 66.3199L139.863 68.0472L141.488 67.3829L141.555 67.3662C141.672 67.5822 141.806 67.7649 141.956 67.9309C142.375 68.3628 142.928 68.5953 143.547 68.5953C143.346 68.8943 143.212 69.2265 143.129 69.5752C142.877 70.6714 143.296 71.8673 144.267 72.9303L144.97 73.6943L145.741 73.0133L146.461 72.3822C146.561 72.3988 146.662 72.3988 146.762 72.3988C147.783 72.3988 148.688 71.6015 148.972 70.8209C149.006 70.7213 149.039 70.6216 149.056 70.522C149.173 70.605 149.274 70.688 149.374 70.7545L149.491 71.8839L149.609 73.0964L150.797 72.7974C151.685 72.5815 152.941 72.133 153.51 70.9372C153.778 70.3725 153.845 69.7413 153.728 69.0271C156.323 68.7282 158.366 68.0472 158.366 68.0472C156.859 72.4652 152.622 74.9566 148.537 74.9566ZM57.3819 4.7834C55.8581 5.19863 53.9326 4.80001 53.9326 4.80001C55.1046 5.94603 55.4898 6.64361 55.4898 6.64361C57.0302 6.72666 57.3819 5.73012 57.3819 4.7834ZM132.982 4.7834C132.982 5.73012 133.333 6.72666 134.874 6.66022C134.874 6.66022 135.276 5.96264 136.431 4.81662C136.431 4.81662 134.505 5.19863 132.982 4.7834ZM133.903 25.2457C134.17 24.7973 134.438 24.3488 134.706 23.9004C135.142 23.1696 135.543 22.389 135.895 21.5917C136.23 20.7945 136.515 19.9973 136.766 19.1834C137.034 18.3862 137.268 17.5724 137.502 16.7585C137.134 17.5225 136.766 18.2699 136.364 19.0173C135.979 19.7647 135.577 20.4955 135.142 21.1931C134.689 21.8907 134.204 22.5385 133.668 23.1696C133.199 23.7343 132.697 24.3156 132.211 24.8803C132.764 24.9468 133.333 25.0464 133.903 25.2457ZM54.4684 21.5917C54.8033 22.389 55.2219 23.1696 55.6572 23.9004C55.9251 24.3488 56.193 24.7973 56.4609 25.2457C57.0302 25.0464 57.5995 24.9302 58.1521 24.8969C57.6665 24.3322 57.1642 23.7509 56.6953 23.1862C56.1595 22.5385 55.6739 21.8907 55.2219 21.2097C54.7865 20.5122 54.3847 19.7814 53.9995 19.034C53.6144 18.2865 53.2461 17.5225 52.8609 16.7751C53.0954 17.589 53.3465 18.3862 53.5977 19.2C53.8488 19.9973 54.1335 20.7945 54.4684 21.5917ZM54.2172 26.4084C52.9279 24.5648 51.6888 22.6879 50.6507 20.7115C50.0814 19.6319 49.5791 18.5191 49.1772 17.373C48.7586 16.227 48.4237 15.0478 48.1558 13.8519C48.2898 15.081 48.474 16.2935 48.7586 17.5059C49.0433 18.7184 49.4284 19.8976 49.8805 21.0603C50.3326 22.2229 50.8516 23.3523 51.3875 24.4651C51.8228 25.3454 52.2749 26.2091 52.727 27.0727C53.1623 26.9399 53.6647 26.7239 54.2172 26.4084ZM137.603 27.0727C138.072 26.2091 138.524 25.3454 138.942 24.4651C139.495 23.3523 140.014 22.2229 140.449 21.0603C140.902 19.8976 141.27 18.7018 141.571 17.5059C141.856 16.2935 142.057 15.081 142.174 13.8519C141.906 15.0478 141.571 16.227 141.153 17.373C140.734 18.5191 140.232 19.6319 139.679 20.7115C138.641 22.6879 137.402 24.5648 136.113 26.4084C136.699 26.7239 137.184 26.9399 137.603 27.0727Z" fill="white"/>
<path d="M112.805 13.5859H112.587H77.7762H77.6255L77.1399 14.5991H113.073L112.805 13.5859ZM117.56 19.7313V31.7396C117.929 31.806 118.28 31.9555 118.582 32.2047V19.9306L117.56 19.7313ZM117.929 41.7881L117.661 43.2995C117.627 43.2995 117.594 43.2829 117.56 43.2829V45.3756C117.56 48.1826 116.723 50.7403 115.099 52.9493C114.697 53.4808 114.262 53.9957 113.776 54.494L73.9418 14.9479C73.7576 14.8648 73.5399 14.7818 73.2888 14.732V15.8115C74.126 16.0939 74.5278 16.8413 74.4943 17.6718L73.3892 17.6552C73.1548 16.9908 72.5688 16.5257 71.7818 16.343V17.4226C72.1669 17.5721 72.4515 17.8711 72.4515 18.3693C72.4515 18.8012 72.0999 19.1334 71.7818 19.1998V32.1216C72.1836 31.7894 72.6692 31.6732 73.1715 31.6732C73.6571 31.6732 74.1427 31.8559 74.5948 32.1216L73.5567 33.0849C74.1762 33.8157 73.5232 34.9285 72.8534 35.2939C72.1334 35.676 72.5185 36.3403 73.0376 36.3403C73.205 36.3403 73.3725 36.2739 73.5399 36.1244C73.9753 35.7258 74.5446 35.5265 75.0971 35.5265C76.2692 35.5265 77.4246 36.4234 77.2739 38.2836L76.3697 37.7853C76.0683 38.7652 75.365 39.1805 74.712 39.1805C74.4106 39.1805 74.126 39.0974 73.9083 38.9313C73.406 38.5659 72.8869 38.1839 72.5353 38.1839C72.4181 38.1839 72.3008 38.2337 72.2339 38.3334C71.966 38.6988 72.2506 39.0642 73.205 39.5292C74.8125 40.3265 75.1306 42.6185 73.0208 43.2331L72.6692 43.2663L72.4013 41.7549C72.2841 41.7881 72.1669 41.8047 72.0497 41.8047C71.9492 41.8047 71.8488 41.7881 71.7483 41.7715V45.3424C71.7483 48.8801 72.9706 51.8365 74.9632 54.2116C74.9799 54.2282 74.9967 54.2449 74.9967 54.2615C75.0636 54.3445 75.1474 54.4276 75.2143 54.5106C75.2311 54.5272 75.2478 54.5438 75.2646 54.5604C75.3483 54.6601 75.432 54.7431 75.5157 54.8428C75.5157 54.8428 75.5157 54.8594 75.5325 54.8594C75.6162 54.959 75.7167 55.0421 75.8004 55.1417L75.8171 55.1583C75.9343 55.2248 76.0348 55.3078 76.1353 55.3909C76.3362 55.557 76.5371 55.7563 76.7046 55.9888C77.9939 57.1182 79.5008 58.0649 81.125 58.8622C81.3092 58.9618 81.4934 59.0615 81.6943 59.1445C84.3734 60.4732 88.2915 61.9182 95.1398 61.9182C101.988 61.9182 105.906 60.4732 108.585 59.1445C108.786 59.0449 108.97 58.9452 109.155 58.8622C110.762 58.0815 112.236 57.1348 113.525 56.0386C113.558 55.9888 113.592 55.939 113.625 55.8891C113.642 55.8725 113.659 55.8559 113.676 55.8227C113.692 55.8061 113.709 55.7729 113.743 55.7563C113.759 55.7231 113.793 55.7064 113.81 55.6732C113.826 55.6566 113.826 55.64 113.843 55.64C113.877 55.6068 113.91 55.5736 113.943 55.5404L113.96 55.5237C113.994 55.4905 114.027 55.4573 114.061 55.4241C114.061 55.4241 114.061 55.4241 114.077 55.4075C114.111 55.3743 114.161 55.341 114.195 55.3078C114.278 55.2414 114.362 55.1916 114.446 55.1417C114.463 55.1251 114.479 55.1251 114.496 55.1085C116.991 52.5839 118.548 49.312 118.548 45.3092V41.7881C118.448 41.8213 118.347 41.8379 118.23 41.8379C118.163 41.8379 118.046 41.8213 117.929 41.7881Z" fill="white"/>
<path d="M11.1079 0.663086H0V76.5379H11.1079V0.663086Z" fill="white"/>
</svg>
