<svg width="108" height="64" viewBox="0 0 108 64" fill="none" xmlns="http://www.w3.org/2000/svg">
<path d="M53.6397 10.3272C55.0096 10.3272 56.1201 9.77233 56.1201 9.0879C56.1201 8.40347 55.0096 7.84863 53.6397 7.84863C52.2698 7.84863 51.1593 8.40347 51.1593 9.0879C51.1593 9.77233 52.2698 10.3272 53.6397 10.3272Z" fill="white"/>
<path d="M46.6119 9.0879L43.8559 7.71094L41.1 9.0879L43.8559 10.4649L46.6119 9.0879Z" fill="white"/>
<path d="M66.1794 9.0879L63.4234 7.71094L60.5297 9.0879L63.4234 10.4649L66.1794 9.0879Z" fill="white"/>
<path d="M105.314 55.6292C105.314 55.6292 103.661 56.18 101.594 56.4554C102.283 55.9046 102.696 55.0784 102.834 54.1146C102.972 53.4261 102.972 51.4983 102.696 48.469C102.696 47.3675 101.732 46.4036 100.767 46.2659C99.8023 46.1282 98.8377 45.9905 98.2865 45.8528C97.1842 45.5774 96.4952 45.1643 96.3574 44.8889C96.2196 44.6135 96.2196 44.4758 96.3574 44.2005C96.3574 44.0628 96.3574 43.9251 96.4951 43.6497C96.4951 43.3743 96.4952 43.2366 96.633 42.9612C96.633 42.6858 96.7708 42.2727 96.7708 41.9973C97.0464 41.9973 97.3219 42.135 97.5975 42.135C98.2865 42.135 99.1133 41.9973 99.6645 41.5842C100.905 40.8957 101.594 39.6565 101.456 38.1418C101.456 35.9387 100.216 34.424 99.1133 33.0471C98.5621 32.3586 98.1488 31.8078 97.7354 31.257C96.633 29.1916 96.3574 27.1261 96.9085 24.7853C97.1842 23.8214 97.7354 22.8576 98.4243 21.8937C98.5621 21.756 98.7 21.4806 98.8377 21.2052C98.9755 21.2052 98.9755 21.2052 99.1133 21.2052C99.5267 21.2052 99.9401 21.0675 100.078 20.9298C101.594 19.9659 102.283 16.7989 102.145 15.0089C102.145 11.2911 100.629 8.53716 97.5975 6.74711L96.633 6.05863L97.0464 7.1602C98.0109 9.77642 98.4243 11.4288 97.8731 14.045C97.7353 14.8712 97.322 15.6974 97.0464 16.5235C96.4952 17.7628 95.944 18.8644 96.4951 19.8282C96.3574 19.9659 96.2196 20.2413 96.2196 20.379C95.3928 21.4806 94.7038 22.7199 94.2904 24.0968C93.4636 27.1261 93.877 30.0178 95.3928 32.634C95.8062 33.4602 96.4952 34.1486 97.0464 34.8371C98.0109 35.9387 98.8377 37.0403 98.8377 38.2795C98.8377 38.8303 98.5621 39.1057 98.2865 39.2434C97.8731 39.5188 97.4598 39.5188 97.0464 39.2434C96.7708 39.1057 96.4952 38.6926 96.2196 38.4172C95.944 37.4533 95.5306 36.6272 94.9794 35.5256C94.566 34.5617 94.0148 33.7355 93.4636 32.7717C92.499 31.1193 91.6722 29.6047 90.9832 27.8146C90.432 26.4377 90.432 25.0607 90.432 24.0968C91.121 24.2345 91.6722 24.2345 91.81 24.2345H92.6368V23.2706C92.6368 22.5822 93.188 21.4806 93.7392 20.1036C95.3928 16.3858 97.8732 10.878 94.7038 4.40628C94.7038 4.40628 94.7038 4.26858 94.566 4.26858C94.7038 3.85549 94.7038 3.4424 94.7038 3.02931C94.7038 1.79005 94.1526 0.826177 93.4636 0.413088L93.3258 0L92.9124 0.137696C92.6368 0.275392 92.3612 0.413088 91.9478 0.688481C91.6722 0.550784 91.5344 0.413088 91.121 0.275392C90.9832 0.275392 90.9832 0.275392 90.8454 0.275392C89.4674 0.275392 84.6444 1.37696 83.9555 1.65235L83.6799 1.79005L83.5421 2.20314L83.2665 3.02931C82.1641 3.4424 81.1995 3.85549 80.5105 4.26858C80.3727 4.26858 80.3727 4.40628 80.2349 4.40628L79.6837 4.68167L79.9593 5.50784C79.9593 5.64554 80.5105 7.98637 81.8885 9.63873H82.0263C81.6129 9.63873 81.3373 9.63873 81.0617 9.63873C80.2349 9.63873 79.5459 9.36334 79.2703 8.95025C78.7191 8.12407 79.1325 7.29789 79.6837 6.88481C79.4081 6.74711 79.1325 6.60941 78.7191 6.60941C78.4435 6.60941 78.3057 6.60941 78.0301 6.74711C76.9277 7.0225 76.2387 7.98637 76.5143 9.08794C76.7899 10.4649 77.6167 11.2911 79.2703 11.2911C79.5459 11.2911 79.9593 11.2911 80.3727 11.1534C80.9239 11.0157 81.4751 10.878 82.0263 10.7403C81.8885 11.5665 81.7507 12.1173 82.1641 12.668C80.9239 12.9434 79.9593 13.3565 78.9947 14.1827C78.3057 13.6319 77.2033 12.8057 77.0655 12.8057C76.5143 12.3927 75.9631 11.8419 75.2741 11.4288C74.9985 11.2911 74.8607 11.0157 74.5851 10.7403C74.0339 10.3272 73.4827 9.91412 72.9315 9.50103C72.5181 9.22564 71.9669 8.95025 71.4158 8.95025V6.47172C73.2071 5.64554 74.4473 3.85549 74.4473 1.92775C74.4473 1.51466 74.4473 1.10157 74.3095 0.688481H70.589C70.589 0.963873 70.589 1.23927 70.589 1.51466C70.589 3.7178 69.4866 5.64554 68.1086 5.64554C66.7306 5.64554 65.6282 3.7178 65.6282 1.51466C65.6282 1.23927 65.6282 0.963873 65.6282 0.688481H60.943C60.943 0.963873 60.943 1.23927 60.943 1.51466C60.943 3.7178 59.8406 5.64554 58.4627 5.64554C57.0847 5.64554 55.9823 3.7178 55.9823 1.51466C55.9823 1.23927 55.9823 0.963873 55.9823 0.688481H51.1593C51.1593 0.963873 51.1593 1.23927 51.1593 1.51466C51.1593 3.7178 50.0569 5.64554 48.6789 5.64554C47.3009 5.64554 46.1986 3.7178 46.1986 1.51466C46.1986 1.23927 46.1986 0.963873 46.1986 0.688481H41.6512C41.6512 0.963873 41.6512 1.23927 41.6512 1.51466C41.6512 3.7178 40.5488 5.64554 39.1708 5.64554C37.7928 5.64554 36.966 3.5801 36.966 1.37696C36.966 1.10157 36.966 0.826177 36.966 0.550784H33.2454C33.1077 0.963873 33.1077 1.37696 33.1077 1.79005C33.1077 3.71779 34.21 5.50784 35.8636 6.33402V8.81255C35.3124 8.81255 34.7612 9.08794 34.3478 9.36334C33.7966 9.77642 33.2455 10.1895 32.6943 10.6026C32.4187 10.7403 32.2809 11.0157 32.0053 11.2911C31.4541 11.8419 30.9029 12.255 30.2139 12.668C30.0761 12.8057 29.1115 13.4942 28.2847 14.045C27.3201 13.3565 26.3555 12.8057 25.1153 12.5303C25.5287 11.9796 25.3909 11.2911 25.2531 10.6026C25.8043 10.7403 26.3555 11.0157 26.9067 11.0157C27.3201 11.0157 27.5957 11.1534 28.0091 11.1534C29.6627 11.1534 30.6273 10.3272 30.7651 8.95025C31.0407 7.84868 30.3517 6.88481 29.2493 6.60941C28.9737 6.60941 28.6981 6.47172 28.5603 6.47172C28.1469 6.47172 27.8713 6.60941 27.5957 6.74711C28.1469 7.1602 28.5603 7.98637 28.0091 8.81255C27.7335 9.36334 27.0445 9.50103 26.2177 9.50103C25.9421 9.50103 25.6665 9.50103 25.2531 9.36334C26.7689 7.98637 27.3201 5.50784 27.3201 5.50784L27.4579 4.81936L26.9067 4.54397C26.7689 4.54397 26.7689 4.40628 26.6311 4.40628C25.9421 3.99319 24.9775 3.4424 23.8751 3.16701L23.5995 2.34083L23.4617 1.92775L23.1861 1.79005C22.4971 1.51466 17.6742 0.413088 16.2962 0.413088C16.1584 0.413088 16.1584 0.413088 16.0206 0.413088C15.745 0.413088 15.4694 0.550784 15.1938 0.826177C14.9182 0.550784 14.5048 0.413088 14.2292 0.275392L13.8158 0L13.4024 0.413088C12.8512 0.963873 12.3 1.92775 12.3 3.02931C12.3 3.30471 12.3 3.71779 12.4378 4.26858V4.40628C9.26844 10.7403 11.7488 16.3858 13.4024 20.1036C13.9536 21.4806 14.5048 22.5822 14.5048 23.2706V24.0968H15.4694C15.6072 24.0968 16.1584 24.0968 16.8474 23.9591C16.8474 24.923 16.8474 26.4377 16.2962 27.6769C15.6072 29.3293 14.7804 30.9816 13.8158 32.634C13.2646 33.5979 12.8512 34.424 12.3 35.3879C11.7488 36.4895 11.3354 37.3156 11.0598 38.2795C10.922 38.6926 10.6464 38.968 10.233 39.1057C9.81963 39.3811 9.40624 39.2434 8.99284 39.1057C8.71724 38.968 8.44164 38.6926 8.44164 38.1418C8.44164 36.9026 9.26844 35.801 10.233 34.6994C10.7842 34.0109 11.3354 33.3225 11.8866 32.4963C13.2646 29.8801 13.678 26.9884 12.989 23.9591C12.5756 22.5822 11.8866 21.3429 11.0598 20.2413C10.922 20.1036 10.7842 19.8282 10.7842 19.6905C11.1976 18.7267 10.7842 17.6251 10.233 16.3858C9.81963 15.5597 9.54403 14.8712 9.40624 13.9073C8.85504 11.2911 9.26844 9.63873 10.233 7.0225L10.6464 5.92093L9.40624 6.60941C6.37466 8.39946 4.99667 11.1534 4.85887 14.8712C4.85887 16.6612 5.41007 19.8282 6.92586 20.7921C7.20145 20.9298 7.47705 21.0675 7.89045 21.0675C8.02825 21.0675 8.02825 21.0675 8.16605 21.0675C8.30384 21.2052 8.44164 21.4806 8.57944 21.756C9.26844 22.7199 9.81963 23.6837 10.0952 24.6476C10.6464 26.9884 10.3708 29.1916 9.26844 31.1193C8.85504 31.8078 8.44164 32.3586 7.89045 32.9094C6.78805 34.2863 5.54787 35.801 5.54787 38.0041C5.54787 39.3811 6.23686 40.6204 7.33925 41.4465C8.02825 41.8596 8.71724 41.9973 9.40624 41.9973C9.68183 41.9973 9.95743 41.9973 10.233 41.8596C10.233 42.135 10.233 42.5481 10.3708 42.8235C10.3708 43.0989 10.3708 43.3743 10.5086 43.512C10.5086 43.7874 10.5086 43.9251 10.5086 44.0628C10.5086 44.3381 10.5086 44.4758 10.5086 44.7512C10.3708 45.0266 9.81963 45.4397 8.57944 45.7151C8.02825 45.8528 7.20145 45.9905 6.09906 46.1282C4.99667 46.2659 4.16988 47.2298 4.16988 48.3313C4.03208 51.3606 3.89428 53.2884 4.03208 53.9769C4.16988 54.9408 4.58327 55.6292 5.27227 56.3177C3.20528 56.0423 1.5517 55.4915 1.5517 55.4915L0.173706 55.0784L0.724904 56.7308C1.4139 58.6585 2.65409 60.3109 4.30767 61.4125C5.82346 62.514 7.75265 63.0648 9.68183 63.0648C12.0244 63.0648 14.0914 62.2386 15.6072 60.5863C15.6072 60.9994 15.745 61.4125 15.8828 61.8256L16.5718 63.7533L17.3986 61.9632C17.3986 61.8256 18.7766 59.2093 21.8081 58.9339C23.1861 58.7962 24.5641 58.6585 25.8043 57.6947C25.8043 57.9701 25.8043 58.3831 25.9421 58.6585C26.3555 60.3109 27.8713 61.2748 27.8713 61.2748L29.2493 62.1009L29.1115 60.5863C29.1115 59.8978 29.1115 59.2093 29.2493 58.5208C29.6627 57.4193 30.7651 57.0062 31.4541 56.7308C31.5919 56.7308 31.7297 56.5931 31.8675 56.5931C32.9699 56.3177 33.9344 56.18 34.899 55.6292C34.4856 56.4554 34.3478 57.2816 34.4856 57.9701C34.6234 60.0355 36.277 61.2748 36.4148 61.2748L38.344 62.6517L37.7928 60.3109C37.655 59.4847 37.3794 57.4193 38.2062 56.8685C39.1708 56.18 39.9976 56.18 40.8244 56.0423C41.5134 55.9046 42.3402 55.9046 43.3048 55.4915C42.6158 57.1439 42.8914 58.3832 42.8914 58.3832L43.3048 60.1732L44.4072 58.7962C44.4072 58.7962 46.4741 56.18 49.3679 56.18C51.4349 56.18 53.2263 57.2816 53.2263 57.2816L53.6397 57.557L54.0531 57.2816C54.0531 57.2816 55.7067 56.18 57.9115 56.18C60.8052 56.18 62.8722 58.7962 62.8722 58.7962L63.9746 60.1732L64.388 58.3832C64.388 58.3832 64.6636 57.0062 63.9746 55.4915C64.9392 55.9046 65.6282 56.0423 66.455 56.0423C67.2818 56.18 68.1086 56.18 69.0732 56.8685C69.9 57.4193 69.7622 59.347 69.4866 60.3109L68.9354 62.6517L70.8646 61.2748C71.0024 61.2748 72.6559 59.8978 72.7937 57.9701C72.9315 57.1439 72.6559 56.3177 72.2425 55.6292C73.2071 56.18 74.0339 56.3177 75.2741 56.5931C75.4119 56.5931 75.5497 56.5931 75.6875 56.7308C76.3765 56.8685 77.6167 57.2816 77.8923 58.5208C78.0301 59.2093 78.0301 59.8978 78.0301 60.5863V61.9632L79.4081 61.1371C79.5459 61.1371 80.9239 60.1732 81.3373 58.5208C81.4751 58.2455 81.4751 57.8324 81.4751 57.557C82.5775 58.5208 84.0933 58.6585 85.4712 58.7962C88.5028 59.0716 89.743 61.6879 89.8808 61.8256L90.7076 63.6156L91.5344 61.6879C91.6722 61.2748 91.81 60.8617 91.81 60.4486C93.3258 61.9633 95.3928 62.9271 97.7354 62.9271C99.6645 62.9271 101.456 62.3763 103.11 61.2748C104.763 60.1732 106.003 58.5208 106.692 56.5931L107.243 54.9408L105.314 55.6292ZM79.1325 10.4649C78.0301 10.4649 77.3411 10.0518 77.2033 8.95025C77.0655 8.26177 77.3411 7.84868 78.0301 7.71098C78.0301 7.71098 78.0301 7.71098 78.1679 7.71098C78.0301 8.26177 78.0301 8.95025 78.4435 9.50103C78.7191 9.91412 79.1325 10.1895 79.6837 10.4649C79.4081 10.4649 79.2703 10.4649 79.1325 10.4649ZM28.6981 9.50103C29.1115 8.95025 29.1115 8.26177 28.9737 7.71098C28.9737 7.71098 28.9737 7.71098 29.1115 7.71098C29.8005 7.84868 30.0761 8.26177 29.9383 8.95025C29.8005 9.91412 29.1115 10.4649 28.0091 10.4649C27.8713 10.4649 27.5957 10.4649 27.4579 10.4649C28.0091 10.1895 28.4225 9.91412 28.6981 9.50103ZM78.8569 15.422C78.9947 15.2843 79.2703 15.0089 79.5459 14.8712C80.5105 14.045 81.8885 13.6319 83.5421 13.6319C83.8177 13.6319 83.9555 13.6319 84.2311 13.6319L86.4358 12.668C85.609 12.668 85.0578 12.668 84.5067 12.668C82.3019 12.668 82.4397 12.3927 82.7153 10.878C82.7153 10.878 84.6444 11.4288 86.0224 11.4288C86.1602 11.4288 86.298 11.4288 86.4358 11.4288C87.1248 11.4288 87.4004 11.0157 87.5382 10.7403C87.676 10.1895 87.676 9.50103 87.4004 8.53716C87.1248 7.84868 86.5736 7.29789 85.609 7.29789C84.9201 7.29789 84.0933 7.57329 83.2665 8.39946L82.4397 8.95025C82.0263 8.53716 81.7507 7.98637 81.4751 7.43559C81.3373 6.74711 82.0263 6.19632 82.0263 6.19632C81.1995 6.33402 80.7861 5.50784 80.7861 5.09476C81.6129 4.68167 82.8531 3.99319 84.0933 3.5801L84.5067 2.34083C84.9201 2.06544 89.743 0.963873 90.9832 0.963873C91.121 0.963873 91.121 0.963873 91.121 0.963873C91.2588 0.963873 91.2588 0.963873 91.3966 1.10157C91.121 1.37696 90.8454 1.65235 90.7076 2.06544L91.5344 2.34083C91.9478 1.51466 92.6368 0.963873 93.188 0.826177C94.0148 1.51466 94.8416 3.4424 92.9124 5.50784V6.74711L93.3258 6.47172C93.7392 6.05863 94.1526 5.64554 94.4282 5.09476C98.2865 13.3565 91.9478 20.1036 91.9478 22.9953C91.9478 22.9953 90.7076 22.9953 89.743 22.5822C89.743 22.5822 89.3296 25.4738 90.1564 27.8146C91.121 30.5685 92.7746 32.9094 94.1526 35.5256C94.566 36.3518 94.9794 37.3156 95.255 38.2795C95.255 38.2795 95.255 38.2795 95.255 38.4172C95.5306 38.968 95.944 39.5188 96.4951 39.7942C97.1841 40.0696 97.8731 40.0696 98.5621 39.6565C99.1133 39.2434 99.5267 38.6926 99.5267 38.0041C99.5267 36.4895 98.5621 35.2502 97.5975 34.0109C97.0463 33.3225 96.4952 32.634 96.0818 31.9455C94.7038 29.467 94.4282 26.8507 95.1172 24.0968C95.3928 22.8576 96.2196 21.756 96.9085 20.6544C97.0463 20.379 97.1842 20.1036 97.4598 19.9659C97.5976 19.8282 97.5975 19.8282 97.5975 19.6905C97.1842 19.4152 97.1842 19.0021 97.322 18.4513C97.4597 18.0382 97.7354 17.3497 98.0109 16.6612C98.4243 15.8351 98.6999 15.0089 98.9755 14.045C99.2511 12.5303 99.2511 11.2911 99.1133 10.1895C99.3889 10.6026 99.6645 11.1534 99.8023 11.7042C100.078 12.255 100.216 12.9434 100.354 13.4942C100.491 14.045 100.491 14.7335 100.354 15.422C100.629 14.8712 100.767 14.1827 100.767 13.4942C100.767 12.8057 100.767 12.1173 100.629 11.4288C100.354 10.878 100.078 10.1895 99.9401 9.63873C100.905 11.0157 101.318 12.668 101.456 14.7335C101.456 17.3497 100.629 19.4152 99.8023 19.9659C99.6645 19.9659 99.6645 20.1036 99.5267 20.1036C99.1133 20.2413 98.5621 19.9659 98.5621 19.9659C98.2865 20.379 98.0109 20.7921 97.7354 21.2052C97.0464 22.3068 96.3574 23.2706 96.0818 24.3722C95.3928 26.8507 95.6684 29.3293 96.9085 31.5324C97.3219 32.2209 97.7353 32.9094 98.2865 33.4602C99.3889 34.8371 100.491 36.0764 100.491 38.0041C100.491 39.1057 99.9401 40.0696 99.1133 40.6204C98.5621 40.8957 98.011 41.0334 97.4598 41.0334C97.1842 41.0334 96.9086 41.0334 96.633 40.8957C96.3574 40.8957 96.2196 40.758 95.944 40.6204C95.8062 40.6204 95.8062 40.4827 95.6684 40.4827C95.6684 40.758 95.6684 41.1711 95.6684 41.4465C95.6684 41.5842 95.6684 41.5842 95.6684 41.7219C95.6684 42.2727 95.5306 42.8235 95.5306 43.3743C95.3928 44.0628 95.3928 44.2005 95.5306 44.8889C95.8062 45.7151 96.9086 46.2659 98.0109 46.5413C98.6999 46.679 99.8023 46.8167 100.491 46.9544C101.18 47.0921 101.732 47.6429 101.732 48.3313C101.869 49.9837 102.007 53.013 101.869 53.8392C101.732 54.8031 101.18 55.4915 100.354 55.9046C100.354 56.0423 100.491 56.18 100.491 56.3177C100.629 56.5931 100.767 56.8685 100.767 57.1439C101.043 58.6585 99.9401 59.0716 98.9755 59.347L98.8377 57.9701C98.8377 57.9701 98.5621 57.8324 98.5621 57.6947C98.4243 57.6947 98.4243 57.557 98.2865 57.557C98.1487 57.4193 98.0109 57.2816 98.0109 57.0062C98.0109 56.8685 98.0109 56.7308 98.0109 56.5931C98.0109 56.3177 98.0109 56.18 97.8731 56.0423C97.8731 56.0423 97.7353 55.9046 97.5975 55.9046C97.4597 55.9046 97.4597 55.9046 97.322 55.9046C97.1842 55.9046 97.1842 55.9046 97.0464 55.9046C96.9086 56.0423 96.7708 56.18 96.633 56.4554C96.633 56.5931 96.633 56.5931 96.633 56.7308C96.7708 57.1439 96.9086 57.6947 96.7708 58.1078C96.633 58.3832 96.2196 58.7962 95.8062 58.7962C95.6684 58.7962 95.5306 58.7962 95.3928 58.6585L94.4282 59.4847C93.188 58.1078 93.6014 56.7308 94.9794 56.18C95.1172 56.18 95.255 56.0423 95.255 56.0423C95.5306 55.9046 95.6684 55.6292 95.5306 55.3538C95.3928 55.2161 95.255 55.0784 95.1172 55.0784C94.8416 55.0784 94.566 55.2161 94.0148 55.4915C94.0148 55.4915 94.0148 55.4915 93.877 55.4915C93.6014 55.6292 93.3258 55.6292 93.188 55.6292C92.6368 55.6292 92.2234 55.3538 92.0856 54.5277C92.0856 54.5277 92.0856 54.39 92.0856 54.2523L91.81 54.39L91.2588 55.0784C91.2588 54.9408 91.2588 54.8031 91.2588 54.8031C91.2588 54.5277 91.3966 54.2523 91.5344 53.9769C91.9478 53.1507 92.7746 52.8753 93.4636 52.8753C94.4282 52.8753 95.5306 53.4261 95.944 53.9769L97.7354 54.2523C98.1488 53.8392 98.1487 52.4622 98.0109 51.3606C98.0109 50.5345 97.4597 49.9837 96.633 49.846C95.255 49.7083 93.3258 49.4329 92.6368 49.2952C91.2588 49.1575 89.8808 49.0198 88.9162 47.9182C87.5382 46.5413 87.2626 45.1643 87.2626 43.0989C87.2626 42.4104 87.2626 41.8596 87.4004 41.1711C87.4004 40.6204 87.5382 40.0696 87.5382 39.5188C87.5382 39.1057 87.676 38.8303 87.676 38.4172C87.676 38.0041 87.676 37.7287 87.676 37.3156C87.676 37.178 87.676 37.0403 87.676 36.9026C87.5382 36.4895 87.5382 36.0764 87.4004 35.6633C87.2626 35.2502 86.987 34.8371 86.7114 34.5617C86.298 34.0109 85.7468 33.4602 84.9201 33.0471C84.6445 32.9094 84.3689 32.7717 83.9555 32.4963C83.6799 32.2209 83.2665 32.0832 82.8531 31.8078C81.8885 31.257 80.9239 30.4308 79.9593 29.6047C80.0971 29.6047 80.0971 29.467 80.2349 29.467C80.6483 29.1916 81.4751 28.5031 82.4397 27.8146C82.7153 27.6769 82.8531 27.4015 82.9909 27.2638L82.1641 26.8507C81.1995 27.6769 80.0971 28.5031 79.8215 28.6408C79.6837 28.7785 79.5459 28.7785 79.4081 28.9162C79.1325 29.0539 78.8569 29.1916 78.5813 29.3293C77.0655 30.1554 76.1009 30.7062 76.1009 31.6701C77.8923 33.5979 76.9277 34.6994 75.9631 35.1125L75.6875 34.0109C74.5851 33.8732 74.5851 33.0471 74.5851 32.4963C74.5851 32.2209 74.3095 31.9455 74.0339 31.9455C73.7583 31.9455 73.6205 32.0832 73.6205 32.3586C73.6205 32.7717 73.6205 33.0471 73.4827 33.5979C73.3449 34.0109 73.0693 34.5617 72.3803 34.5617C72.2425 34.5617 72.2425 34.5617 72.1048 34.5617V35.801C70.0378 35.3879 70.3134 33.3225 71.6913 32.634C72.5181 32.2209 72.7937 31.9455 72.5182 31.6701C72.3803 31.6701 72.2425 31.6701 72.1048 31.6701C71.8291 31.6701 71.4157 31.9455 71.0023 32.3586C70.8646 32.4963 70.589 32.634 70.3134 32.634C69.7622 32.634 69.211 32.2209 68.9354 31.5324L68.2464 31.9455C68.1086 30.4308 69.0732 29.6047 70.0378 29.6047C70.4512 29.6047 71.0024 29.7424 71.278 30.1554C71.4158 30.2931 71.5536 30.2931 71.6913 30.2931C72.1047 30.2931 72.3803 29.7424 71.8292 29.467C71.4158 28.9162 70.8646 28.09 71.4158 27.4015L70.589 26.5753C71.0024 26.3 71.4158 26.1623 71.8292 26.1623C72.6559 26.1623 73.4827 26.713 73.7583 27.9523C73.7583 28.2277 73.8961 28.3654 74.1717 28.3654C74.5851 28.3654 75.4119 27.4015 76.1009 26.3C76.2387 26.0246 76.3765 25.8869 76.5143 25.6115C76.6521 25.3361 76.9277 24.923 77.0655 24.6476C77.3411 24.2345 77.6167 23.9591 77.8923 23.546C78.4435 22.9953 79.5459 21.8937 80.6483 21.3429C80.9239 21.2052 81.1995 21.0675 81.4751 20.9298C81.8885 20.5167 82.1641 19.9659 82.4397 19.5528C83.2665 18.3136 83.9555 16.9366 84.3689 15.5597C83.6799 16.9366 82.8531 18.0382 81.8885 19.0021C81.4751 19.5528 80.9239 19.9659 80.5105 20.379C79.1325 21.0675 78.0301 22.1691 77.3411 22.8576L77.2033 22.9953C77.0655 23.1329 76.7899 23.4083 76.6521 23.546C76.3765 22.1691 76.5143 20.5167 76.9277 19.0021C77.0655 18.7267 77.0655 18.3136 77.2033 18.0382C77.4789 17.212 78.0301 16.1104 78.8569 15.422ZM83.9555 9.91412C84.5067 9.77642 85.0579 9.63873 85.609 9.63873C86.0224 9.63873 86.4358 9.77642 86.7114 9.91412C86.7114 10.0518 86.7114 10.1895 86.7114 10.3272C86.7114 10.3272 86.5736 10.3272 86.298 10.4649C86.1602 10.4649 86.1602 10.4649 86.0224 10.4649C85.4712 10.4649 84.9201 10.3272 84.3689 10.3272C83.8177 10.1895 82.9909 10.0518 82.9909 10.0518C82.8531 9.63873 82.9909 9.08794 83.1287 9.22564C83.2665 9.08794 83.4043 9.50103 83.9555 9.91412ZM83.4043 9.22564L83.8177 8.81255C84.6444 8.12407 85.1956 7.84868 85.609 7.84868C86.1602 7.84868 86.4358 8.39946 86.5736 8.53716C86.5736 8.67485 86.5736 8.81255 86.5736 8.95025C86.298 8.81255 85.8846 8.81255 85.4712 8.81255C84.92 8.81255 84.231 8.95025 83.4043 9.22564ZM89.1918 51.636C88.2272 52.3245 87.2626 52.5999 86.1602 52.5999C85.1956 52.5999 84.3689 52.3245 83.4043 52.0491C83.1287 51.9114 82.8531 51.9114 82.5775 51.7737C82.1641 51.636 81.7507 51.636 81.1995 51.636C80.0971 51.636 79.1325 52.0491 78.5813 52.3245C78.7191 52.0491 78.8569 51.223 78.8569 50.5345C79.6837 50.1214 80.2349 49.4329 80.5105 48.6067C80.9239 47.3675 81.1995 45.1643 80.9239 42.6858C81.6129 42.5481 82.4397 42.4104 83.4043 42.2727C84.3689 42.135 85.1956 41.9973 85.8846 41.8596C86.1602 41.8596 86.4358 41.7219 86.5736 41.5842C86.5736 41.9973 86.5736 42.5481 86.5736 42.9612C86.5736 44.2005 86.7114 45.0266 86.987 45.8528C87.2626 46.8167 87.8138 47.6429 88.5028 48.3313C89.743 49.5706 91.3966 49.846 92.7746 49.846C93.3258 49.846 94.7038 50.1214 96.7708 50.3968C97.1842 50.3968 97.4598 50.8099 97.4598 51.0853C97.4598 52.0491 97.4598 52.7376 97.4598 53.013L96.633 52.8753C95.944 52.1868 94.8416 51.636 93.7392 51.636C92.3612 51.636 91.2588 52.3245 90.8454 53.5638C90.5698 53.5638 90.2942 53.5638 90.0186 53.7015C90.5698 52.8753 90.5698 52.1868 90.5698 52.0491L90.7076 50.2591L89.1918 51.636ZM75.2741 51.7737C75.1363 51.7737 75.1363 51.636 74.9985 51.4983C74.8607 51.223 74.8607 50.9476 74.8607 50.5345C74.8607 50.2591 74.8607 49.846 74.5851 49.7083C74.4473 49.5706 74.3095 49.5706 74.1717 49.5706C74.0339 49.5706 74.0339 49.5706 73.8961 49.5706C73.7583 49.5706 73.4827 49.846 73.4827 49.9837C73.4827 50.1214 73.4827 50.2591 73.4827 50.3968C73.4827 50.5345 73.4827 50.6722 73.4827 50.8099C73.4827 51.0853 73.4827 51.3606 73.3449 51.636C73.3449 51.636 73.3449 51.636 73.3449 51.7737C73.2071 52.0491 72.7937 52.4622 72.2425 52.4622C72.1047 52.4622 71.8291 52.4622 71.6913 52.1868L70.4512 52.8753C70.3134 52.7376 70.3134 52.5999 70.1756 52.4622C70.0378 52.1868 69.9 51.9114 69.9 51.636C69.6244 50.5345 70.3134 49.5706 71.5536 49.2952C72.1047 49.1575 72.3803 48.8821 72.2425 48.469C72.1047 48.1936 71.9669 48.0559 71.6913 48.0559C71.4157 48.0559 71.0024 48.1936 70.589 48.3313C70.4512 48.3313 70.3134 48.3313 70.1756 48.469C70.0378 48.469 69.9 48.469 69.7622 48.469C69.211 48.469 68.9354 48.1936 68.9354 47.0921L67.833 47.3675C68.2464 45.7151 69.211 45.0266 70.3134 45.0266C71.278 45.0266 72.3803 45.7151 73.0693 46.679L73.4827 46.8167L74.1717 47.0921L75.6875 47.6429C77.0655 46.4036 76.5143 43.2366 76.5143 43.2366C76.5143 43.2366 73.7583 41.7219 74.7229 38.2795C74.7229 38.2795 75.2741 34.9748 81.1995 34.9748C81.8885 34.9748 82.5775 34.9748 83.2665 35.1125C83.6799 35.1125 84.0933 35.2502 84.5067 35.2502C84.3689 35.5256 84.3689 35.9387 84.3689 36.2141C84.5067 36.7649 84.7822 37.178 85.3334 37.4533C85.609 37.591 85.8846 37.591 86.1602 37.591C86.4358 37.591 86.7114 37.4533 86.987 37.3156C86.987 37.4533 86.987 37.591 86.987 37.7287C86.8492 38.5549 86.7114 39.3811 86.7114 40.2073C85.4712 40.758 79.9593 41.4465 79.9593 41.4465C80.5105 44.0628 80.0971 46.5413 79.6837 47.7806C79.5459 48.1936 79.2703 48.6067 78.9947 48.8821C78.7191 49.1575 78.4435 49.2952 78.0301 49.4329C77.8923 50.3968 77.8923 51.0853 77.7545 51.4983C77.7545 51.636 77.6167 51.9114 77.6167 52.0491C77.2033 52.7376 76.3765 52.8753 75.5497 53.013L75.6875 51.4983C75.6875 52.0491 75.4119 51.9114 75.2741 51.7737ZM77.3411 31.5324C77.6167 31.1193 78.3057 30.7062 79.1325 30.2931C79.2703 30.2931 79.4081 30.1554 79.4081 30.1554C79.5459 30.2931 79.6837 30.4308 79.8215 30.5685C80.2349 30.8439 80.6483 31.257 80.9239 31.5324L82.8531 33.4602C83.4043 34.0109 83.6799 34.424 83.9555 34.6994L81.1995 34.5617C79.8215 34.5617 78.7191 34.6994 77.8923 34.9748C78.0301 34.8371 78.1679 34.5617 78.1679 34.2863C78.4435 33.1848 77.8923 32.2209 77.3411 31.5324ZM85.1956 34.8371C85.0578 34.5617 84.7822 34.1486 84.3689 33.5979C84.5067 33.5979 84.6444 33.7355 84.6444 33.7355C85.3334 34.1486 85.7468 34.5617 86.1602 35.1125C86.4358 35.5256 86.5736 35.9387 86.8492 36.3518C86.8492 36.4895 86.987 36.6272 86.987 36.7649C86.8492 37.0403 86.5736 37.178 86.1602 37.178C86.0224 37.178 85.8846 37.1779 85.7468 37.0403C85.3335 36.7649 85.0578 36.2141 85.4712 35.6633C85.4712 35.6633 85.4712 35.5256 85.609 35.5256C85.4712 35.3879 85.3334 35.2502 85.1956 34.8371ZM72.2425 10.1895C72.7937 10.6026 73.3449 11.0157 73.8961 11.4288C74.7229 12.1173 75.5497 12.8057 76.3765 13.4942C76.6521 13.6319 77.4789 14.3204 78.1679 14.8712C78.0301 15.0089 77.7545 15.2843 77.6167 15.5597C77.0655 16.2481 76.7899 16.9366 76.3765 17.6251L74.8607 16.1104C74.9985 15.6974 75.1363 15.1466 74.9985 14.7335C74.9985 14.7335 74.9985 14.7335 74.9985 14.5958L74.1717 15.0089C74.1717 15.6974 73.8961 16.2481 73.3449 16.5235C73.2071 16.6612 73.0693 16.6612 72.7937 16.6612V15.9727C72.5181 15.9727 72.1048 15.6974 72.1048 15.2843C72.1048 14.8712 72.3803 14.5958 72.7937 14.4581V13.4942C72.1048 13.6319 71.5536 14.045 71.4158 14.5958H70.4512C70.4512 13.9073 70.7268 13.2188 71.4158 13.0811V12.255C70.8646 12.3926 70.4512 12.668 70.1756 12.9434C70.0378 12.9434 70.0378 13.0811 70.0378 13.2188H69.3488C69.3488 12.5303 69.6244 11.9796 70.3134 11.7042V10.7403C70.0378 10.878 69.7622 11.0157 69.4866 11.2911H68.7976C68.7976 10.878 69.0732 10.4649 69.3488 10.1895C69.6244 9.91412 70.0378 9.77642 70.4512 9.77642C70.589 9.77642 70.7268 9.77642 70.8646 9.77642C71.0024 9.77642 71.1402 9.77642 71.4158 9.77642C71.6914 9.91412 71.9669 10.0518 72.2425 10.1895ZM70.4512 4.68167C71.0024 3.85549 71.278 2.61623 71.278 1.51466H73.3449C73.3449 1.65235 73.3449 1.79005 73.3449 1.92775C73.3449 4.13088 71.5536 6.05863 69.3488 6.05863H69.211C69.6244 5.78324 70.1756 5.37015 70.4512 4.68167ZM60.943 4.68167C61.4942 3.85549 61.7698 2.61623 61.7698 1.51466H64.5258C64.5258 2.75392 64.8014 3.85549 65.3526 4.68167C65.766 5.23245 66.1794 5.78324 66.5928 6.05863H64.6636C64.388 5.50784 63.9746 4.81936 63.699 4.13088H62.7344C62.4588 4.95706 62.0454 5.64554 61.632 6.05863H59.7028C60.254 5.78324 60.6674 5.37015 60.943 4.68167ZM51.2971 4.68167C51.8483 3.85549 52.1239 2.61623 52.1239 1.51466H55.1555C55.1555 2.75392 55.4311 3.85549 55.9823 4.68167C56.3957 5.23245 56.8091 5.78324 57.2225 6.05863H55.1555C54.7421 5.50784 54.3287 4.81936 54.0531 4.13088H53.0885C52.8129 4.95706 52.3995 5.64554 51.9861 6.05863H50.0569C50.6081 5.78324 51.0215 5.37015 51.2971 4.68167ZM41.9268 4.68167C42.478 3.85549 42.7536 2.61623 42.7536 1.51466H45.5096C45.5096 2.75392 45.7852 3.85549 46.3363 4.68167C46.7497 5.23245 47.1631 5.78324 47.5765 6.05863H45.6474C45.234 5.50784 44.8206 4.81936 44.545 4.13088H43.5804C43.3048 4.81936 42.8914 5.50784 42.478 6.05863H40.6866C41.1 5.78324 41.6512 5.37015 41.9268 4.68167ZM33.9344 1.79005C33.9344 1.65235 33.9344 1.51466 33.9344 1.37696H36.1392C36.1392 2.61623 36.4148 3.71779 36.966 4.54397C37.3794 5.09476 37.7928 5.64554 38.2062 5.92093H37.9306C35.8636 6.05863 33.9344 4.13088 33.9344 1.79005ZM30.7651 13.4942C31.5919 12.8057 32.4187 12.1173 33.2454 11.4288C33.7966 11.0157 34.3478 10.6026 34.899 10.1895C35.1746 9.91412 35.588 9.77642 36.0014 9.77642C36.1392 9.77642 36.277 9.77642 36.4148 9.77642C36.5526 9.77642 36.6904 9.77642 36.8282 9.77642C37.2416 9.77642 37.5172 9.91412 37.9306 10.1895C38.2062 10.4649 38.344 10.878 38.344 11.2911H37.655C37.3794 11.0157 36.966 10.878 36.6904 10.7403V11.5665C37.3794 11.7042 37.655 12.3926 37.655 13.0811H36.966C36.966 12.9434 36.8282 12.9434 36.8282 12.8057C36.5526 12.668 36.1392 12.3926 35.588 12.255V13.0811C36.277 13.3565 36.5526 13.9073 36.5526 14.5958H35.588C35.3124 14.045 34.899 13.6319 34.21 13.4942V14.3204C34.6234 14.4581 34.899 14.7335 34.899 15.1466C34.899 15.5597 34.4856 15.8351 34.21 15.8351V16.5235C34.0722 16.5235 33.7966 16.5235 33.6588 16.3858C33.1077 16.1104 32.8321 15.422 32.8321 14.8712L32.0053 14.4581C32.0053 14.4581 32.0053 14.4581 32.0053 14.5958C32.0053 15.1466 32.0053 15.5597 32.1431 15.9727L30.6273 17.4874C30.3517 16.7989 29.9383 16.1104 29.3871 15.422C29.2493 15.1466 28.9737 15.0089 28.8359 14.7335C29.6627 14.3204 30.4895 13.6319 30.7651 13.4942ZM5.13447 53.9769C4.99667 53.1507 5.13447 50.1214 5.27227 48.469C5.27227 47.7806 5.82346 47.2298 6.51246 47.0921C7.33925 46.9544 8.30385 46.8167 8.99284 46.679C10.0952 46.4036 11.3354 45.9905 11.4732 45.0266C11.7488 44.3382 11.611 44.2005 11.4732 43.512C11.4732 42.9612 11.3354 42.4104 11.3354 41.8596C11.3354 41.7219 11.3354 41.7219 11.3354 41.5842C11.3354 41.3088 11.3354 40.8957 11.3354 40.6204C11.3354 40.6204 11.1976 40.758 11.0598 40.758C10.7842 40.8957 10.6464 41.0334 10.3708 41.0334C10.0952 41.0334 9.81963 41.1711 9.54403 41.1711C8.99284 41.1711 8.44164 41.0334 7.89045 40.758C6.92585 40.2073 6.37466 39.2434 6.51246 38.1418C6.51246 36.2141 7.61485 34.8371 8.71724 33.5979C9.26844 32.9094 9.68183 32.3586 10.0952 31.6701C11.3354 29.467 11.611 27.1261 10.922 24.5099C10.6464 23.4083 9.95743 22.4445 9.26844 21.3429C8.99284 20.9298 8.71724 20.5167 8.57944 20.1036C8.57944 20.1036 8.02825 20.379 7.61485 20.2413C7.47705 20.2413 7.47705 20.2413 7.33925 20.1036C6.51246 19.5528 5.54786 17.4874 5.68566 14.8712C5.68566 12.8057 6.23686 11.1534 7.20145 9.77642C6.92585 10.3272 6.78806 11.0157 6.65026 11.5665C6.51246 12.255 6.51246 12.9434 6.51246 13.6319C6.51246 14.3204 6.65026 15.0089 6.92586 15.5597C6.78806 14.8712 6.78806 14.3204 6.92586 13.6319C7.06365 12.9434 7.20145 12.3927 7.33925 11.8419C7.61485 11.2911 7.75265 10.878 8.02825 10.3272C8.02825 11.4288 8.02825 12.5303 8.30385 14.045C8.44164 15.0089 8.85504 15.8351 9.26844 16.6612C9.54403 17.3497 9.81963 17.9005 9.95743 18.4513C10.0952 19.0021 9.95743 19.2775 9.68183 19.6905C9.68183 19.8282 9.81963 19.8282 9.81963 19.9659C9.95743 20.2413 10.0952 20.5167 10.233 20.6544C10.922 21.756 11.7488 22.8576 12.0244 24.0968C12.7134 26.8507 12.4378 29.6047 11.0598 31.9455C10.6464 32.7717 10.0952 33.3225 9.54403 34.0109C8.57944 35.2502 7.61485 36.3518 7.61485 38.0041C7.61485 38.6926 7.89045 39.3811 8.57944 39.6565C9.26844 40.0696 9.95743 40.0696 10.6464 39.7942C11.1976 39.5188 11.611 39.1057 11.8866 38.4172C11.8866 38.4172 11.8866 38.4172 11.8866 38.2795C12.1622 37.3156 12.5756 36.4895 12.989 35.5256C14.2292 32.9094 15.8828 30.5685 16.8474 27.8146C17.6742 25.4738 17.2608 22.5822 17.2608 22.5822C16.2962 22.9953 15.056 22.9953 15.056 22.9953C15.056 20.1036 8.85504 13.3565 12.5756 5.09476C12.8512 5.50784 13.1268 5.92093 13.678 6.47172L14.2292 6.88481V5.64554C12.1622 3.5801 13.1268 1.65235 13.9536 0.963873C14.5048 1.10157 15.1938 1.79005 15.6072 2.47853L16.434 2.20314C16.1584 1.79005 16.0206 1.51466 15.745 1.23926C15.8828 1.23926 15.8828 1.10157 16.0206 1.10157H16.1584C17.3986 1.10157 22.0837 2.20314 22.6349 2.47853L23.0483 3.7178C24.2885 4.13088 25.5287 4.81936 26.3555 5.23245C26.2177 5.64554 25.8043 6.47172 25.1153 6.33402C25.1153 6.33402 25.8043 6.74711 25.6665 7.57329C25.3909 8.12407 25.1153 8.67486 24.7019 9.08794L23.8751 8.26177C22.9105 7.43559 22.2215 7.1602 21.5325 7.1602C20.7057 7.1602 20.0168 7.71098 19.7412 8.39946C19.3278 9.36334 19.3278 10.1895 19.4656 10.6026C19.6034 11.0157 19.879 11.2911 20.5679 11.2911C20.7057 11.2911 20.8435 11.2911 20.9813 11.2911C22.3593 11.2911 24.2885 10.7403 24.2885 10.7403C24.5641 12.255 24.7019 12.5303 22.4971 12.5303C21.9459 12.5303 21.3947 12.5303 20.5679 12.5303L22.7727 13.4942C23.0483 13.4942 23.1861 13.4942 23.4617 13.4942C25.1153 13.4942 26.3555 14.045 27.4579 14.7335C27.7335 14.8712 27.8713 15.1466 28.1469 15.2843C28.9737 16.1104 29.5249 17.0743 29.9383 18.1759C30.0761 18.4513 30.2139 18.7267 30.2139 19.1398C30.6273 20.7921 30.6273 22.4445 30.4895 23.6837C30.3517 23.4083 30.2139 23.2706 29.9383 23.1329L29.8005 22.9953C29.1115 22.3068 28.0091 21.2052 26.6311 20.5167C26.0799 20.1036 25.6665 19.6905 25.2531 19.1398C24.2885 18.0382 23.4617 16.9366 22.7727 15.6974C23.1861 17.0743 23.8751 18.4513 24.7019 19.6905C24.9775 20.2413 25.3909 20.6544 25.6665 21.0675C25.9421 21.2052 26.2177 21.3429 26.4933 21.4806C27.5957 22.1691 28.6981 23.1329 29.2493 23.6837C29.6627 23.9591 29.9383 24.3722 30.0761 24.7853C30.3517 25.0607 30.4895 25.3361 30.6273 25.7492C30.7651 26.0246 30.9029 26.1623 31.0407 26.4377C31.7297 27.4015 32.4187 28.5031 32.9698 28.5031C33.1077 28.5031 33.2455 28.3654 33.3833 28.09C33.6588 26.8507 34.4856 26.3 35.3124 26.3C35.7258 26.3 36.1392 26.4377 36.5526 26.713L35.7258 27.5392C36.277 28.09 35.7258 29.0539 35.1746 29.3293C34.6234 29.6047 34.899 30.1554 35.3124 30.1554C35.4502 30.1554 35.588 30.1554 35.7258 30.0178C36.1392 29.7424 36.5526 29.467 36.966 29.467C37.9306 29.467 38.8952 30.1554 38.7574 31.8078L38.0684 31.3947C37.7928 32.2209 37.2416 32.4963 36.6904 32.4963C36.4148 32.4963 36.277 32.4963 36.0014 32.2209C35.588 32.0832 35.1746 31.6701 34.899 31.6701C34.7612 31.6701 34.7612 31.6701 34.6234 31.8078C34.3478 32.0832 34.6234 32.3586 35.4502 32.7717C36.8282 33.4602 37.1038 35.5256 35.0368 35.9387L34.7612 34.6994C34.6234 34.6994 34.6234 34.6994 34.4856 34.6994C33.9344 34.6994 33.521 34.1486 33.3833 33.7355C33.2455 33.1848 33.3832 32.7717 33.2454 32.4963C33.2454 32.2209 32.9699 32.0832 32.8321 32.0832C32.5565 32.0832 32.2809 32.2209 32.2809 32.634C32.2809 33.1848 32.2809 34.0109 31.1785 34.1486L30.9029 35.2502C29.9383 34.8371 28.9737 33.7355 30.7651 31.8078C30.7651 30.8439 29.8005 30.2931 28.2847 29.467C28.0091 29.3293 27.7335 29.1916 27.4579 29.0539C27.3201 28.9162 27.1823 28.9162 27.0445 28.7785C26.7689 28.6408 25.6665 27.8146 24.7019 26.9884L23.8751 27.4015C24.0129 27.5392 24.2885 27.6769 24.4263 27.9523C25.2531 28.6408 26.2177 29.3293 26.6311 29.6047C26.6311 29.6047 26.7689 29.7424 26.9067 29.7424C25.9421 30.5685 24.9775 31.3947 24.0129 31.9455C23.5995 32.2209 23.3239 32.3586 22.9105 32.634C22.4971 32.9094 22.2215 33.0471 21.9459 33.1848C21.2569 33.5979 20.5679 34.1486 20.1546 34.6994C19.879 35.1125 19.6034 35.5256 19.4656 35.801C19.3278 36.2141 19.19 36.6272 19.19 37.0403C19.19 37.1779 19.19 37.3156 19.19 37.4533C19.19 37.8664 19.19 38.1418 19.19 38.5549C19.19 38.968 19.3278 39.2434 19.3278 39.6565C19.3278 40.2073 19.4656 40.758 19.4656 41.3088C19.4656 41.9973 19.6034 42.6858 19.6034 43.2366C19.6034 45.1643 19.3278 46.679 17.9498 48.0559C16.9852 49.0198 15.6072 49.2952 14.2292 49.4329C13.5402 49.4329 11.611 49.7083 10.233 49.9837C9.40624 50.1214 8.85504 50.6722 8.85504 51.4983C8.85504 52.5999 8.85504 53.9769 9.13064 54.39L10.922 54.1146C11.3354 53.4261 12.3 53.013 13.4024 53.013C14.2292 53.013 14.9182 53.2884 15.3316 54.1146C15.4694 54.39 15.6072 54.6654 15.6072 54.9408C15.6072 55.0784 15.6072 55.0784 15.6072 55.2161L15.056 54.9408L14.9182 54.6654C14.9182 54.8031 14.9182 54.8031 14.9182 54.9408C14.7804 55.7669 14.367 56.0423 13.8158 56.0423C13.5402 56.0423 13.4024 56.0423 13.1268 55.9046C13.1268 55.9046 13.1268 55.9046 12.989 55.9046C12.5756 55.7669 12.1622 55.4915 11.8866 55.4915C11.7488 55.4915 11.611 55.4915 11.4732 55.7669C11.3354 56.0423 11.4732 56.18 11.7488 56.4554C11.8866 56.4554 11.8866 56.5931 12.0244 56.5931C13.4024 57.1439 13.8158 58.5208 12.5756 59.8978L11.611 59.0716C11.4732 59.2093 11.3354 59.2093 11.1976 59.2093C10.7842 59.2093 10.233 58.7962 10.233 58.5208C10.0952 58.1078 10.233 57.4193 10.3708 57.1439C10.3708 57.0062 10.3708 56.8685 10.3708 56.8685C10.3708 56.5931 10.233 56.4554 9.95743 56.3177C9.81963 56.3177 9.81963 56.3177 9.68183 56.3177C9.54403 56.3177 9.54403 56.3177 9.40624 56.3177C9.26844 56.3177 9.26844 56.4554 9.13064 56.4554C8.99284 56.5931 8.99284 56.8685 8.99284 57.0062C8.99284 57.1439 8.99284 57.2816 8.99284 57.4193C8.99284 57.557 8.85504 57.8324 8.71724 57.9701C8.57944 57.9701 8.57944 58.1078 8.44164 58.1078C8.44164 58.1078 8.16605 58.2455 8.16605 58.3832L8.02825 59.7601C7.06365 59.4847 5.96126 59.0716 6.23686 57.557C6.23686 57.2816 6.37466 57.0062 6.51246 56.7308C6.51246 56.5931 6.65026 56.4554 6.65026 56.3177C5.82346 55.6292 5.27227 54.9408 5.13447 53.9769ZM21.5325 9.63873C22.0837 9.63873 22.6349 9.63873 23.1861 9.91412C23.7373 9.50103 23.8751 9.08794 24.1507 9.08794C24.2885 9.08794 24.4263 9.50103 24.2885 9.91412C24.2885 9.91412 23.4617 10.0518 22.9105 10.1895C22.3593 10.3272 21.8081 10.3272 21.2569 10.3272C21.1191 10.3272 20.9813 10.3272 20.9813 10.3272C20.7057 10.3272 20.5679 10.1895 20.5679 10.1895C20.5679 10.0518 20.5679 10.0518 20.5679 9.77642C20.8435 9.63873 21.1191 9.63873 21.5325 9.63873ZM20.5679 8.95025C20.5679 8.81255 20.7057 8.67485 20.7057 8.53716C20.7057 8.39946 20.9813 7.84868 21.6703 7.84868C22.0837 7.84868 22.6349 7.98637 23.4617 8.81255L23.7373 9.22564C23.0483 8.95025 22.3593 8.81255 21.6703 8.81255C21.2569 8.81255 20.8435 8.81255 20.5679 8.95025ZM31.1785 47.9182L32.6943 47.3675L33.3833 47.0921L33.7966 46.9544C34.4856 45.9905 35.588 45.302 36.5526 45.302C37.5172 45.302 38.4818 45.9905 39.033 47.6429L37.9306 47.3675C37.9306 48.469 37.5172 48.7444 37.1038 48.7444C36.966 48.7444 36.8282 48.7444 36.6904 48.7444C36.5526 48.7444 36.4148 48.7444 36.277 48.6067C35.7258 48.469 35.4502 48.3313 35.1746 48.3313C34.899 48.3313 34.7612 48.469 34.6234 48.7444C34.4856 49.1575 34.899 49.4329 35.3124 49.5706C36.5526 49.846 37.2416 50.6722 36.966 51.9114C36.966 52.1868 36.8282 52.4622 36.6904 52.7376C36.6904 52.8753 36.5526 53.013 36.4148 53.1507L35.3124 52.3245C35.1746 52.4622 34.899 52.5999 34.7612 52.5999C34.3478 52.5999 33.7966 52.3245 33.6588 51.9114C33.6588 51.9114 33.6588 51.9114 33.6588 51.7737C33.521 51.4983 33.521 51.223 33.521 50.9476C33.521 50.8099 33.521 50.6722 33.521 50.5345C33.521 50.3968 33.521 50.2591 33.521 50.1214C33.521 49.846 33.2455 49.7083 33.1077 49.7083C33.1077 49.7083 32.9699 49.7083 32.8321 49.7083C32.6943 49.7083 32.5565 49.7083 32.4187 49.846C32.1431 50.1214 32.1431 50.3968 32.1431 50.6722C32.1431 50.9476 32.2809 51.3606 32.0053 51.636C32.0053 51.7737 31.8675 51.7737 31.7297 51.9114L31.4541 52.1868L31.5919 53.7015C30.7651 53.7015 29.9383 53.4261 29.5249 52.7376C29.3871 52.5999 29.3871 52.4622 29.3871 52.1868C29.2493 51.636 29.1115 50.9476 29.1115 50.1214C28.6981 49.9837 28.4225 49.846 28.1469 49.5706C27.8713 49.2952 27.5957 48.8821 27.4579 48.469C27.0445 47.2298 26.6311 44.7512 27.1823 42.135C27.1823 42.135 21.6703 41.4465 20.4301 40.8957C20.2924 40.0696 20.2923 39.2434 20.1546 38.4172C20.1546 38.2795 20.1546 38.1418 20.1546 38.0041C20.4301 38.1418 20.7057 38.2795 20.9813 38.2795C21.2569 38.2795 21.5325 38.2795 21.8081 38.1418C22.2215 37.8664 22.6349 37.4533 22.7727 36.9026C22.7727 36.4895 22.7727 36.2141 22.6349 35.9387C23.0483 35.9387 23.4617 35.801 23.8751 35.801C24.5641 35.6633 25.2531 35.6633 25.9421 35.6633C31.8675 35.6633 32.4187 38.968 32.4187 38.968C33.3833 42.4104 30.6273 43.9251 30.6273 43.9251C30.6273 43.9251 29.8005 46.679 31.1785 47.9182ZM16.7096 52.4622C16.7096 52.5999 16.7096 53.2884 17.2608 54.1146C16.9852 54.1146 16.7096 53.9769 16.434 53.9769C16.0206 52.7376 14.9182 52.0491 13.5402 52.0491C12.4378 52.0491 11.3354 52.4622 10.6464 53.2884L9.81963 53.4261C9.81963 53.013 9.68183 52.4622 9.81963 51.4983C9.81963 51.0853 10.0952 50.8099 10.5086 50.8099C12.5756 50.5345 13.9536 50.2591 14.5048 50.2591C15.8828 50.1214 17.5364 49.846 18.7766 48.7444C19.4656 48.0559 20.0168 47.2298 20.2924 46.2659C20.568 45.4397 20.7057 44.6135 20.7057 43.3743C20.7057 42.9612 20.7057 42.4104 20.7057 41.9973C20.9813 41.9973 21.1191 42.135 21.3947 42.2727C21.9459 42.4104 22.7727 42.5481 23.8751 42.6858C24.8397 42.8235 25.6665 42.9612 26.3555 43.0989C26.0799 45.5774 26.3555 47.6429 26.7689 49.0198C27.0445 49.846 27.5957 50.5345 28.4225 50.9476C28.4225 51.7737 28.6981 52.7376 28.6981 52.7376C28.0091 52.4622 27.1823 52.0491 26.0799 52.0491C25.6665 52.0491 25.1153 52.0491 24.7019 52.1868C24.4263 52.3245 24.1507 52.3245 23.8751 52.4622C22.9105 52.7376 22.0837 53.013 21.1191 53.013C20.1546 53.013 19.19 52.7376 18.0876 52.0491L16.7096 51.0853V52.4622ZM21.6703 35.801C21.9459 36.2141 21.8081 36.9026 21.3947 37.178C21.2569 37.178 21.1191 37.3156 20.9813 37.3156C20.7057 37.3156 20.4302 37.1779 20.2924 36.9026C20.2924 36.7649 20.4301 36.6272 20.4301 36.4895C20.5679 36.0764 20.8435 35.6633 21.1191 35.2502C21.5325 34.6994 21.9459 34.2863 22.6349 33.8732C22.7727 33.8732 22.9105 33.7355 22.9105 33.7355C22.4971 34.2863 22.2215 34.6994 22.0837 34.9748C21.8081 35.2502 21.8081 35.5256 21.6703 35.801ZM27.3201 30.4308C27.4579 30.2931 27.5957 30.1554 27.7335 30.0178C27.8713 30.0178 28.0091 30.1554 28.0091 30.1554C28.8359 30.5685 29.6627 31.1193 29.8005 31.3947C29.2493 32.0832 28.6981 33.1848 28.9737 34.1486C28.9737 34.424 29.1115 34.5617 29.2493 34.8371C28.4225 34.5617 27.3201 34.424 25.9421 34.424L23.1861 34.5617C23.4617 34.2863 23.7373 33.8732 24.2885 33.3225L26.2177 31.3947C26.4933 31.1193 26.9067 30.8439 27.3201 30.4308ZM14.9182 59.8978C13.5402 61.4125 11.611 62.1009 9.68183 62.1009C6.23686 62.1009 2.79189 60.0355 1.5517 56.3177C1.5517 56.3177 3.20528 56.8685 5.41007 57.1439C5.27227 57.6947 5.41007 58.2455 5.54787 58.7962C5.96126 59.7601 7.06365 60.1732 7.75265 60.3109L8.71724 60.5863L8.85504 59.6224L8.99284 58.6585C9.13064 58.6585 9.13064 58.5208 9.26844 58.5208C9.26844 58.6585 9.26844 58.6585 9.26844 58.7962C9.54403 59.4847 10.233 60.1732 11.0598 60.1732C11.1976 60.1732 11.1976 60.1732 11.3354 60.1732L11.8866 60.724L12.5756 61.2748L13.1268 60.5863C13.9536 59.7601 14.2292 58.6585 14.0914 57.8324C14.0914 57.557 13.9536 57.2816 13.678 57.0062C14.2292 57.0062 14.6426 56.8685 15.056 56.4554C15.1938 56.3177 15.3316 56.18 15.3316 56.0423L16.7096 56.5931L16.5718 55.2161V55.0784C17.123 55.2161 17.9498 55.3538 18.7766 55.7669C18.9144 55.7669 19.0522 55.9046 19.19 55.9046H19.3278C19.0522 56.0423 18.7766 56.18 18.501 56.4554C17.123 57.2816 16.2962 58.2455 15.8828 59.2093C15.6072 59.2093 15.3316 59.6224 14.9182 59.8978ZM25.2531 56.8685C24.2885 57.6947 22.9105 57.8324 21.8081 57.9701C18.2254 58.2455 16.7096 61.5502 16.7096 61.5502C16.434 60.8617 16.434 60.0355 16.7096 59.4847C17.123 58.5208 18.0876 57.6947 19.19 57.0062C20.9813 55.9046 22.9105 55.2161 22.9105 55.2161C22.4971 55.2161 22.2215 55.2161 21.9459 55.2161C21.2569 55.2161 20.5679 55.0784 20.0168 54.9408C19.7412 54.8031 19.4656 54.8031 19.19 54.6654C17.5364 53.8392 17.5364 52.3245 17.5364 52.3245C18.7766 53.1507 20.0168 53.4261 20.9813 53.4261C22.3593 53.4261 23.5995 53.013 24.8397 52.5999C25.2531 52.4622 25.5287 52.4622 25.9421 52.4622C27.0445 52.4622 27.8713 52.8753 28.4225 53.1507C27.7335 53.5638 27.1823 54.1146 26.7689 54.6654C26.6311 54.9408 26.4933 55.2161 26.3555 55.4915C25.8043 56.0423 25.6665 56.5931 25.2531 56.8685ZM31.1785 55.6292C29.9383 55.9046 28.6981 56.5931 28.2847 57.9701C28.0091 58.6585 28.1469 59.6224 28.1469 60.3109C28.1469 60.3109 25.5287 58.7962 26.9067 55.9046C27.0445 55.6292 27.1823 55.3538 27.3201 55.2161C27.5957 54.6654 28.0091 54.39 28.4225 54.1146C28.5603 53.9769 28.6981 53.9769 28.8359 53.8392L29.2493 53.7015C29.9383 54.2523 30.7651 54.39 31.4541 54.39H32.4187L32.2809 53.4261L32.1431 52.3245C32.2809 52.1868 32.4187 52.0491 32.4187 51.9114C32.4187 52.0491 32.5565 52.1868 32.5565 52.3245C32.8321 52.8753 33.521 53.4261 34.3478 53.4261C34.6234 53.4261 34.7612 53.4261 34.899 53.2884L35.3124 53.5638C35.3124 53.5638 35.1746 53.5638 35.1746 53.7015C34.21 55.0784 33.1077 55.2161 31.1785 55.6292ZM70.3134 60.4486C70.3134 60.4486 71.0024 57.1439 69.4866 56.0423C67.0062 54.39 65.6282 55.7669 62.7344 53.7015C62.7344 53.7015 62.5966 53.7015 62.5966 53.5638C61.2186 52.1868 59.8406 51.3606 58.4627 50.9476C57.4981 51.0853 56.5335 51.223 55.4311 51.223C55.7067 51.223 55.8445 51.223 56.1201 51.223C56.5335 51.223 56.9469 51.3607 57.3603 51.4983C58.0493 51.636 58.7383 51.9114 59.4272 52.1868C60.254 52.5999 61.2186 53.2884 61.9076 54.1146L62.0454 54.2523C63.8368 56.18 63.2856 58.1078 63.2856 58.1078C63.2856 58.1078 61.0808 55.0784 57.6359 55.0784C55.9823 55.0784 54.6043 55.6292 53.9153 56.0423L53.3641 56.3177L52.8129 56.0423C52.1239 55.6292 50.7459 55.0784 49.0923 55.0784C45.7852 55.0784 43.4426 58.1078 43.4426 58.1078C43.4426 58.1078 43.0292 56.18 44.6828 54.2523L44.8206 54.1146C45.6474 53.2884 46.4741 52.5999 47.3009 52.1868C47.9899 51.7737 48.6789 51.636 49.3679 51.4983C49.7813 51.3607 50.1947 51.3606 50.6081 51.223C50.8837 51.223 51.0215 51.223 51.2971 51.223C50.1947 51.223 49.0923 51.0853 48.2655 50.9476C46.8875 51.3606 45.5096 52.1868 44.1316 53.5638C44.1316 53.5638 43.9938 53.5638 43.9938 53.7015C41.1 55.9046 39.8598 54.39 37.2416 56.0423C35.588 57.1439 36.4148 60.4486 36.4148 60.4486C36.4148 60.4486 33.1077 57.9701 36.1392 54.5277C36.8282 53.8392 37.5172 53.2884 38.0684 52.8753C38.4818 52.5999 38.8952 52.3245 38.8952 52.3245C38.8952 52.3245 38.6196 52.3245 38.2062 52.1868C38.0684 52.1868 37.7928 52.0491 37.5172 52.0491H37.3794C37.5172 51.4983 37.5172 50.9476 37.2416 50.3968C37.1038 50.1214 36.966 49.9837 36.8282 49.846C38.0684 50.2591 39.722 50.5345 41.5134 50.5345C42.2024 50.5345 42.8914 50.3968 43.7182 50.2591C43.9938 50.2591 44.2694 50.2591 44.545 50.2591C44.6828 50.2591 44.6828 50.2591 44.8206 50.2591C44.1316 49.9837 43.4426 49.846 42.8914 49.5706C42.478 49.5706 41.9268 49.7083 41.5134 49.7083C39.9976 49.7083 38.7574 49.5706 37.655 49.2952C37.9306 49.0198 37.9306 48.8821 38.0684 48.6067H38.2062L39.5842 48.8821L39.1708 47.5052C38.4818 44.8889 36.6904 44.6135 36.0014 44.6135C34.899 44.6135 33.521 45.302 32.6943 46.4036L31.4541 46.9544C31.0407 46.2659 31.0407 44.8889 31.1785 44.0628C31.4541 43.7874 32.0053 43.3743 32.4187 42.8235C33.1077 41.8596 33.6588 40.4827 33.1077 38.2795C33.1077 38.0041 32.6943 36.9026 31.5919 35.9387L31.8675 35.2502L32.0053 34.6994C32.2809 34.5617 32.5565 34.424 32.6943 34.2863C32.9699 34.8371 33.3833 35.2502 34.0722 35.3879L34.21 35.9387L34.3478 36.9026L35.3124 36.7649C36.5526 36.4895 37.3794 35.801 37.5172 34.6994C37.655 34.2863 37.5172 33.7355 37.2416 33.3225C37.655 33.1848 38.2062 32.9094 38.4818 32.4963L39.5842 33.1848L39.722 31.8078C39.8598 30.5685 39.3086 29.7424 39.033 29.3293C38.4818 28.7785 37.7928 28.5031 37.1038 28.5031C36.966 28.5031 36.966 28.5031 36.8282 28.5031C36.8282 28.5031 36.8282 28.3654 36.8282 28.2277C36.8282 27.9523 36.8282 27.8146 36.8282 27.5392L37.2416 27.1261L38.0684 26.3L36.966 25.6115C36.4148 25.3361 35.8636 25.1984 35.3124 25.1984C34.3478 25.1984 33.2454 25.6115 32.8321 26.9884C32.5565 26.713 32.2809 26.3 32.0053 25.8869C31.8675 25.6115 31.7297 25.4738 31.5919 25.1984C31.4541 24.923 31.3163 24.6476 31.1785 24.5099C31.5919 22.8576 31.5919 20.5167 30.9029 18.3136L32.5565 16.6612C32.6943 16.7989 32.9699 17.0743 33.1077 17.0743C33.3833 17.212 33.6588 17.3497 34.0722 17.3497H35.0368V16.2481C35.0368 16.2481 35.0368 16.2481 35.1746 16.1104C35.4502 15.8351 35.588 15.5597 35.588 15.2843H36.4148H37.2416V14.4581C37.2416 14.1827 37.2416 13.9073 37.2416 13.7696H37.5172H38.344V12.9434C38.344 12.5303 38.344 12.255 38.2062 11.8419H39.033V11.0157C39.033 10.3272 38.6196 9.63873 38.0684 9.22564C37.5172 8.81255 36.966 8.67486 36.5526 8.67486V6.88481H70.1756V8.95025C69.7622 8.95025 69.0732 9.08794 68.6598 9.50103C68.1086 9.91412 67.6952 10.6026 67.6952 11.2911V12.1173H68.6598C68.6598 12.3927 68.522 12.8057 68.522 13.0811V13.9073H69.3488H69.6244C69.6244 14.1827 69.4866 14.3204 69.6244 14.5958V15.422H70.4512H71.278C71.278 15.6974 71.5536 16.1104 71.6913 16.2481C71.6913 16.2481 71.8292 16.2481 71.8292 16.3858V17.4874H72.6559C72.9315 17.4874 73.2071 17.3497 73.6205 17.212C73.8961 17.0743 74.0339 16.9366 74.1717 16.7989L75.8253 18.4513C75.1363 20.6544 75.1363 22.9953 75.5497 24.6476C75.4119 24.923 75.2741 25.0607 75.1363 25.3361C74.9985 25.4738 74.8607 25.7492 74.7229 26.0246C74.4473 26.5753 74.1717 26.8507 73.8961 27.1261C73.3449 25.8869 72.2425 25.3361 71.278 25.3361C70.7268 25.3361 70.1756 25.4738 69.6244 25.8869L68.522 26.4377L69.3488 27.2638L69.7622 27.6769C69.7622 27.9523 69.7622 28.09 69.7622 28.3654C69.7622 28.3654 69.7622 28.5031 69.7622 28.6408C69.6244 28.6408 69.6244 28.6408 69.4866 28.6408C68.6598 28.6408 67.9708 28.9162 67.5574 29.467C67.144 29.8801 66.7306 30.7062 66.8684 31.9455L67.0062 33.3225L68.2464 32.634C68.522 33.0471 68.9354 33.3225 69.4866 33.4602C69.3488 33.8732 69.211 34.424 69.211 34.8371C69.3488 35.9387 70.1756 36.6272 71.4158 36.9026L72.3803 37.0403L72.5182 36.0764L72.6559 35.5256C73.2071 35.3879 73.7583 34.8371 74.0339 34.424C74.1717 34.5617 74.4473 34.6994 74.7229 34.8371L74.8607 35.3879V35.5256L75.1363 36.2141C74.0339 37.1779 73.7583 38.2795 73.6205 38.5549C73.0693 40.6204 73.7583 42.135 74.3095 43.0989C74.7229 43.6497 75.1363 44.0628 75.5497 44.3382C75.6875 45.1643 75.6875 46.4036 75.2741 47.2298L73.4827 46.679C72.6559 45.5774 71.4157 44.8889 70.1756 44.8889C69.4866 44.8889 67.6952 45.1643 67.0062 47.7806L66.5928 49.1575L67.9708 48.8821H68.1086C68.2464 49.1575 68.2464 49.4329 68.522 49.5706C67.4196 49.846 66.0416 49.9837 64.6636 49.9837C64.2502 49.9837 63.699 49.9837 63.2856 49.846C62.7344 50.1214 62.0454 50.3968 61.3564 50.5345C61.4942 50.5345 61.4942 50.5345 61.632 50.5345C61.9076 50.5345 62.1832 50.5345 62.4588 50.5345C63.2856 50.6722 63.9746 50.8099 64.6636 50.8099C66.455 50.8099 68.1086 50.5345 69.3488 50.1214C69.211 50.2591 69.0732 50.5345 68.9354 50.6722C68.7976 51.223 68.6598 51.7737 68.7976 52.3245H68.6598C68.3842 52.3245 68.2464 52.4622 67.9708 52.4622C67.5574 52.4622 67.4196 52.5999 67.4196 52.5999C67.4196 52.5999 67.6952 52.7376 68.2464 53.1507C68.7976 53.5638 69.6244 54.1146 70.1756 54.8031C73.6205 57.9701 70.3134 60.4486 70.3134 60.4486ZM78.8569 60.3109C78.8569 59.4847 78.9947 58.6585 78.7191 57.9701C78.3057 56.5931 77.2033 55.9046 75.8253 55.6292C74.0339 55.2161 72.9315 55.0784 71.4158 53.7015C71.4158 53.7015 71.278 53.7015 71.278 53.5638L71.6913 53.2884C71.8291 53.2884 72.1047 53.4261 72.2425 53.4261C73.0693 53.4261 73.7583 52.8753 74.0339 52.3245C74.1717 52.1868 74.1717 52.0491 74.1717 51.9114C74.3095 52.0491 74.4473 52.1868 74.4473 52.3245L74.3095 53.4261L74.1717 54.39H75.1363C75.8253 54.39 76.6521 54.2523 77.3411 53.7015L77.7545 53.8392C77.8923 53.9769 78.0301 53.9769 78.1679 54.1146C78.5813 54.39 78.9947 54.8031 79.2703 55.2161C79.4081 55.4915 79.5459 55.7669 79.6837 55.9046C81.4751 58.9339 78.8569 60.3109 78.8569 60.3109ZM90.5698 61.5502C90.5698 61.5502 89.054 58.2455 85.4712 57.9701C84.231 57.8324 82.9909 57.6947 82.0263 56.8685C81.6129 56.4554 81.3373 56.0423 80.9239 55.4915C80.7861 55.2161 80.6483 54.9408 80.5105 54.6654C80.0971 53.9769 79.5459 53.5638 78.8569 53.1507C79.4081 52.8753 80.2349 52.4622 81.3373 52.4622C81.7507 52.4622 82.0263 52.4622 82.4397 52.5999C83.6799 53.013 84.9201 53.4261 86.298 53.4261C87.4004 53.4261 88.5028 53.1507 89.743 52.3245C89.743 52.3245 89.6052 53.8392 88.0894 54.6654C87.8138 54.8031 87.5382 54.9408 87.2626 54.9408C86.7114 55.0784 86.1602 55.2161 85.3334 55.2161C85.0578 55.2161 84.7822 55.2161 84.3689 55.2161C84.3689 55.2161 86.298 55.9046 88.0894 57.0062C89.1918 57.6947 90.1564 58.5208 90.5698 59.4847C90.8454 60.0355 90.8454 60.724 90.5698 61.5502ZM97.4598 62.1009C95.5306 62.1009 93.6014 61.4125 92.2234 59.8978C91.81 59.4847 91.5344 59.2093 91.2588 58.9339C90.8454 57.9701 89.8808 57.1439 88.6406 56.18C88.365 56.0423 88.0894 55.9046 87.8138 55.6292C87.9516 55.6292 87.9516 55.6292 87.9516 55.6292C88.0894 55.6292 88.2272 55.4915 88.365 55.4915C89.3296 55.0784 90.0186 54.9407 90.5698 54.8031V54.9408L90.432 56.3177L91.81 55.7669C91.9478 55.9046 91.9478 56.0423 92.0856 56.18C92.499 56.5931 92.9124 56.7308 93.3258 56.7308C93.188 57.0062 93.0502 57.2816 92.9124 57.557C92.7746 58.5208 93.0502 59.4847 93.877 60.3109L94.4282 60.9994L95.1172 60.4486L95.6684 59.8978C95.8062 59.8978 95.8062 59.8978 95.944 59.8978C96.7708 59.8978 97.5975 59.2093 97.7354 58.5208C97.7354 58.3832 97.7353 58.3832 97.8731 58.2455C98.0109 58.2455 98.011 58.3832 98.1488 58.3832L98.2865 59.347L98.4243 60.3109L99.3889 60.0355C100.078 59.8978 101.18 59.4847 101.594 58.5208C101.869 58.1078 101.869 57.557 101.732 56.8685C103.936 56.5931 105.59 56.0423 105.59 56.0423C104.35 60.0355 100.905 62.1009 97.4598 62.1009ZM22.4971 3.99319C21.2569 4.40628 19.6034 3.99319 19.6034 3.99319C20.568 4.95706 20.8435 5.50784 20.8435 5.50784C22.2215 5.50784 22.4971 4.68167 22.4971 3.99319ZM84.6444 3.99319C84.6444 4.81936 84.92 5.64554 86.1602 5.50784C86.1602 5.50784 86.4358 4.95706 87.4004 3.99319C87.5382 3.99319 85.8846 4.26858 84.6444 3.99319ZM85.4712 20.9298C85.7468 20.5167 85.8846 20.2413 86.1602 19.8282C86.5736 19.2775 86.8492 18.589 87.1248 17.9005C87.4004 17.212 87.676 16.5235 87.8138 15.8351C88.0894 15.1466 88.2272 14.4581 88.365 13.7696C88.0894 14.4581 87.8138 15.0089 87.4004 15.6974C87.1248 16.3858 86.7114 16.9366 86.4358 17.4874C86.0224 18.0382 85.609 18.589 85.1956 19.1398C84.7822 19.5528 84.3689 20.1036 83.9555 20.5167C84.5067 20.6544 84.92 20.7921 85.4712 20.9298ZM20.0168 17.9005C20.2924 18.589 20.7057 19.2775 20.9813 19.8282C21.2569 20.2413 21.3947 20.5167 21.6703 20.9298C22.0837 20.7921 22.6349 20.6544 23.0483 20.6544C22.6349 20.2413 22.2215 19.6905 21.8081 19.2775C21.3947 18.7267 20.9813 18.1759 20.5679 17.6251C20.1546 17.0743 19.879 16.3858 19.6034 15.8351C19.3278 15.1466 18.9144 14.5958 18.6388 13.9073C18.7766 14.5958 19.0522 15.2843 19.19 15.9727C19.6034 16.5235 19.7412 17.212 20.0168 17.9005ZM19.879 21.8937C18.7766 20.379 17.812 18.8644 16.9852 17.212C16.5718 16.3858 16.1584 15.422 15.745 14.4581C15.3316 13.4942 15.056 12.5303 14.9182 11.5665C15.056 12.5303 15.1938 13.6319 15.4694 14.5958C15.745 15.5597 16.0206 16.5235 16.434 17.4874C16.8474 18.4513 17.2608 19.4152 17.6742 20.2413C18.0876 20.9298 18.3632 21.6183 18.7766 22.4445C19.0522 22.3068 19.4656 22.1691 19.879 21.8937ZM88.5028 22.4445C88.9162 21.756 89.3296 21.0675 89.6052 20.2413C90.0186 19.2775 90.432 18.3136 90.8454 17.4874C91.2588 16.5235 91.5344 15.5597 91.81 14.5958C92.0856 13.6319 92.2234 12.5303 92.3612 11.5665C92.0856 12.5303 91.81 13.4942 91.5344 14.4581C91.2588 15.422 90.7076 16.3858 90.2942 17.212C89.4674 18.8644 88.365 20.379 87.4004 21.8937C87.8138 22.1691 88.0894 22.3068 88.5028 22.4445Z" fill="white"/>
<path d="M68.1086 11.291H39.3086H39.1708L38.7574 12.1172H68.3842L68.1086 11.291ZM71.967 16.3858V26.2999C72.2426 26.2999 72.5182 26.4376 72.7938 26.713V16.5235L71.967 16.3858ZM72.2426 34.6994L71.967 35.9386C71.967 35.9386 71.967 35.9386 71.8292 35.9386V37.7287C71.8292 40.0695 71.1402 42.1349 69.7622 44.0627C69.4866 44.4758 69.0732 44.8889 68.6598 45.302L36.1393 12.3926C36.0015 12.3926 35.8637 12.2549 35.5881 12.2549V13.0811C36.2771 13.3565 36.5527 13.9072 36.5527 14.5957H35.5881C35.4503 14.0449 34.8991 13.6319 34.2101 13.4942V14.3203C34.4857 14.458 34.7613 14.7334 34.7613 15.1465C34.7613 15.5596 34.4857 15.835 34.2101 15.835V26.5753C34.4857 26.2999 34.8991 26.1622 35.3125 26.1622C35.7259 26.1622 36.1393 26.2999 36.4149 26.5753L35.5881 27.4015C36.1393 27.9522 35.5881 28.9161 35.0369 29.1915C34.4857 29.4669 34.7613 30.0177 35.1747 30.0177C35.3125 30.0177 35.4503 30.0177 35.5881 29.88C36.0015 29.6046 36.4149 29.3292 36.8283 29.3292C37.7929 29.3292 38.7574 30.0177 38.6196 31.67L37.9307 31.257C37.6551 32.0831 37.1039 32.3585 36.5527 32.3585C36.2771 32.3585 36.1393 32.3585 35.8637 32.0831C35.5881 31.9454 35.1747 31.67 34.8991 31.67C34.7613 31.67 34.7613 31.67 34.6235 31.8077C34.3479 32.0831 34.6235 32.3585 35.4503 32.7716C36.8283 33.4601 37.1039 35.3878 35.3125 35.8009H35.0369L34.7613 34.5617C34.6235 34.5617 34.6235 34.5617 34.4857 34.5617C34.3479 34.5617 34.3479 34.5617 34.2101 34.5617V37.591C34.2101 40.4826 35.1747 42.9611 36.8283 44.8889C36.8283 44.8889 36.9661 45.0266 36.9661 45.1643C37.1039 45.302 37.1039 45.302 37.2417 45.4397C37.3795 45.5773 37.3795 45.5773 37.5173 45.715C37.6551 45.715 37.6551 45.8527 37.7929 45.8527C37.9307 45.9904 38.0685 46.1281 38.2063 46.4035C39.3086 47.3674 40.5488 48.1936 41.789 48.7444C41.9268 48.8821 42.0646 48.882 42.2024 49.0197C44.4072 50.1213 47.5766 51.3606 53.2263 51.3606C58.8761 51.3606 62.0455 50.1213 64.2502 49.0197C64.388 48.882 64.5258 48.8821 64.6636 48.7444C66.0416 48.0559 67.144 47.3674 68.2464 46.4035C68.2464 46.4035 68.2464 46.2658 68.3842 46.2658C68.3842 46.2658 68.3842 46.2658 68.522 46.1281C68.522 46.1281 68.522 46.1281 68.6598 45.9904C68.6598 45.9904 68.7976 45.9904 68.7976 45.8527C68.9354 45.8527 68.9354 45.715 69.0732 45.715C71.1402 43.6496 72.3804 40.8957 72.3804 37.591L72.2426 34.6994C72.2426 34.6994 72.2426 34.6994 72.1048 34.6994C72.5182 34.6994 72.3804 34.6994 72.2426 34.6994Z" fill="white"/>
</svg>
