<svg width="160" height="77" viewBox="0 0 160 77" fill="none" xmlns="http://www.w3.org/2000/svg">
<path d="M94.6657 12.4253C96.3139 12.4253 97.6499 11.7578 97.6499 10.9344C97.6499 10.1109 96.3139 9.44336 94.6657 9.44336C93.0176 9.44336 91.6815 10.1109 91.6815 10.9344C91.6815 11.7578 93.0176 12.4253 94.6657 12.4253Z" fill="white"/>
<path d="M86.2105 10.934L82.8947 9.27734L79.5789 10.934L82.8947 12.5907L86.2105 10.934Z" fill="white"/>
<path d="M109.753 10.934L106.437 9.27734L102.955 10.934L106.437 12.5907L109.753 10.934Z" fill="white"/>
<path d="M156.837 66.9289C156.837 66.9289 154.847 67.5916 152.36 67.9229C153.189 67.2602 153.687 66.2663 153.853 65.1066C154.018 64.2783 154.018 61.9589 153.687 58.3143C153.687 56.989 152.526 55.8293 151.366 55.6636C150.205 55.498 149.045 55.3323 148.381 55.1667C147.055 54.8353 146.226 54.3383 146.06 54.007C145.895 53.6757 145.895 53.51 146.06 53.1787C146.06 53.013 146.06 52.8473 146.226 52.516C146.226 52.1847 146.226 52.019 146.392 51.6877C146.392 51.3563 146.558 50.8593 146.558 50.528C146.889 50.528 147.221 50.6937 147.553 50.6937C148.381 50.6937 149.376 50.528 150.039 50.031C151.531 49.2027 152.36 47.7117 152.195 45.8894C152.195 43.2387 150.703 41.4164 149.376 39.7598C148.713 38.9314 148.216 38.2688 147.718 37.6061C146.392 35.1211 146.06 32.6361 146.724 29.8198C147.055 28.6602 147.718 27.5005 148.547 26.3408C148.713 26.1752 148.879 25.8438 149.045 25.5125C149.21 25.5125 149.21 25.5125 149.376 25.5125C149.874 25.5125 150.371 25.3468 150.537 25.1812C152.36 24.0215 153.189 20.2112 153.024 18.0576C153.024 13.5846 151.2 10.2713 147.553 8.11762L146.392 7.28929L146.889 8.61461C148.05 11.7623 148.547 13.7502 147.884 16.8979C147.718 17.8919 147.221 18.8859 146.889 19.8799C146.226 21.3709 145.563 22.6962 146.226 23.8559C146.06 24.0215 145.895 24.3528 145.895 24.5185C144.9 25.8438 144.071 27.3348 143.574 28.9915C142.579 32.6361 143.076 36.1151 144.9 39.2628C145.397 40.2567 146.226 41.0851 146.889 41.9134C148.05 43.2387 149.045 44.5641 149.045 46.055C149.045 46.7177 148.713 47.049 148.381 47.2147C147.884 47.546 147.387 47.546 146.889 47.2147C146.558 47.049 146.226 46.552 145.895 46.2207C145.563 45.0611 145.066 44.0671 144.403 42.7417C143.905 41.5821 143.242 40.5881 142.579 39.4284C141.418 37.4404 140.424 35.6181 139.595 33.4645C138.931 31.8078 138.931 30.1511 138.931 28.9915C139.76 29.1572 140.424 29.1572 140.589 29.1572H141.584V27.9975C141.584 27.1692 142.247 25.8438 142.91 24.1872C144.9 19.7142 147.884 13.0876 144.071 5.3013C144.071 5.3013 144.071 5.13563 143.905 5.13563C144.071 4.63864 144.071 4.14164 144.071 3.64464C144.071 2.15365 143.408 0.993994 142.579 0.496997L142.413 0L141.916 0.165666C141.584 0.331331 141.253 0.496997 140.755 0.828328C140.424 0.662663 140.258 0.496997 139.76 0.331331C139.595 0.331331 139.595 0.331331 139.429 0.331331C137.771 0.331331 131.968 1.65666 131.139 1.98799L130.808 2.15365L130.642 2.65065L130.31 3.64464C128.984 4.14164 127.824 4.63864 126.995 5.13563C126.829 5.13563 126.829 5.3013 126.663 5.3013L126 5.63263L126.332 6.62663C126.332 6.79229 126.995 9.60861 128.653 11.5966H128.818C128.321 11.5966 127.989 11.5966 127.658 11.5966C126.663 11.5966 125.834 11.2653 125.503 10.7683C124.839 9.77427 125.337 8.78028 126 8.28328C125.668 8.11762 125.337 7.95195 124.839 7.95195C124.508 7.95195 124.342 7.95195 124.01 8.11762C122.684 8.44895 121.855 9.60861 122.187 10.9339C122.518 12.5906 123.513 13.5846 125.503 13.5846C125.834 13.5846 126.332 13.5846 126.829 13.4189C127.492 13.2533 128.155 13.0876 128.818 12.9219C128.653 13.9159 128.487 14.5786 128.984 15.2412C127.492 15.5726 126.332 16.0696 125.171 17.0636C124.342 16.4009 123.016 15.4069 122.85 15.4069C122.187 14.9099 121.524 14.2472 120.695 13.7502C120.363 13.5846 120.197 13.2533 119.866 12.9219C119.203 12.4249 118.539 11.9279 117.876 11.4309C117.379 11.0996 116.716 10.7683 116.053 10.7683V7.78628C118.208 6.79229 119.7 4.63864 119.7 2.31932C119.7 1.82232 119.7 1.32533 119.534 0.828328H115.058C115.058 1.15966 115.058 1.49099 115.058 1.82232C115.058 4.47297 113.732 6.79229 112.074 6.79229C110.416 6.79229 109.089 4.47297 109.089 1.82232C109.089 1.49099 109.089 1.15966 109.089 0.828328H103.453C103.453 1.15966 103.453 1.49099 103.453 1.82232C103.453 4.47297 102.126 6.79229 100.468 6.79229C98.8105 6.79229 97.4842 4.47297 97.4842 1.82232C97.4842 1.49099 97.4842 1.15966 97.4842 0.828328H91.6815C91.6815 1.15966 91.6815 1.49099 91.6815 1.82232C91.6815 4.47297 90.3552 6.79229 88.6973 6.79229C87.0394 6.79229 85.7131 4.47297 85.7131 1.82232C85.7131 1.49099 85.7131 1.15966 85.7131 0.828328H80.2421C80.2421 1.15966 80.2421 1.49099 80.2421 1.82232C80.2421 4.47297 78.9158 6.79229 77.2579 6.79229C75.6 6.79229 74.6052 4.30731 74.6052 1.65666C74.6052 1.32533 74.6052 0.993994 74.6052 0.662663H70.1289C69.9631 1.15966 69.9631 1.65666 69.9631 2.15365C69.9631 4.47297 71.2894 6.62663 73.2789 7.62062V10.6026C72.6158 10.6026 71.9526 10.9339 71.4552 11.2653C70.7921 11.7623 70.1289 12.2593 69.4658 12.7563C69.1342 12.9219 68.9684 13.2533 68.6368 13.5846C67.9737 14.2472 67.3105 14.7442 66.4816 15.2412C66.3158 15.4069 65.1552 16.2352 64.1605 16.8979C63 16.0696 61.8395 15.4069 60.3474 15.0756C60.8447 14.4129 60.6789 13.5846 60.5131 12.7563C61.1763 12.9219 61.8395 13.2533 62.5026 13.2533C63 13.2533 63.3316 13.4189 63.8289 13.4189C65.8184 13.4189 66.9789 12.4249 67.1447 10.7683C67.4763 9.44294 66.6473 8.28328 65.321 7.95195C64.9895 7.95195 64.6579 7.78628 64.4921 7.78628C63.9947 7.78628 63.6631 7.95195 63.3316 8.11762C63.9947 8.61461 64.4921 9.60861 63.8289 10.6026C63.4973 11.2653 62.6684 11.4309 61.6737 11.4309C61.3421 11.4309 61.0105 11.4309 60.5131 11.2653C62.3368 9.60861 63 6.62663 63 6.62663L63.1658 5.7983L62.5026 5.46697C62.3368 5.46697 62.3368 5.3013 62.171 5.3013C61.3421 4.8043 60.1816 4.14164 58.8552 3.81031L58.5237 2.81632L58.3579 2.31932L58.0263 2.15365C57.1974 1.82232 51.3947 0.496997 49.7368 0.496997C49.571 0.496997 49.571 0.496997 49.4053 0.496997C49.0737 0.496997 48.7421 0.662663 48.4105 0.993994C48.0789 0.662663 47.5816 0.496997 47.25 0.331331L46.7526 0L46.2553 0.496997C45.5921 1.15966 44.9289 2.31932 44.9289 3.64464C44.9289 3.97598 44.9289 4.47297 45.0947 5.13563V5.3013C41.2816 12.9219 44.2658 19.7142 46.2553 24.1872C46.9184 25.8438 47.5816 27.1692 47.5816 27.9975V28.9915H48.7421C48.9079 28.9915 49.571 28.9915 50.4 28.8258C50.4 29.9855 50.4 31.8078 49.7368 33.2988C48.9079 35.2868 47.9132 37.2748 46.7526 39.2628C46.0895 40.4224 45.5921 41.4164 44.9289 42.5761C44.2658 43.9014 43.7684 44.8954 43.4368 46.055C43.271 46.552 42.9395 46.8834 42.4421 47.049C41.9447 47.3804 41.4474 47.2147 40.95 47.049C40.6184 46.8834 40.2868 46.552 40.2868 45.8894C40.2868 44.3984 41.2816 43.0731 42.4421 41.7477C43.1053 40.9194 43.7684 40.0911 44.4316 39.0971C46.0895 35.9494 46.5868 32.4705 45.7579 28.8258C45.2605 27.1692 44.4316 25.6782 43.4368 24.3528C43.271 24.1872 43.1053 23.8559 43.1053 23.6902C43.6026 22.5305 43.1053 21.2052 42.4421 19.7142C41.9447 18.7202 41.6132 17.8919 41.4474 16.7322C40.7842 13.5846 41.2816 11.5966 42.4421 8.44895L42.9395 7.12362L41.4474 7.95195C37.8 10.1056 36.1421 13.4189 35.9763 17.8919C35.9763 20.0455 36.6395 23.8559 38.4632 25.0155C38.7947 25.1812 39.1263 25.3468 39.6237 25.3468C39.7895 25.3468 39.7895 25.3468 39.9553 25.3468C40.1211 25.5125 40.2868 25.8438 40.4526 26.1752C41.2816 27.3348 41.9447 28.4945 42.2763 29.6541C42.9395 32.4705 42.6079 35.1211 41.2816 37.4404C40.7842 38.2688 40.2868 38.9314 39.6237 39.5941C38.2974 41.2507 36.8053 43.0731 36.8053 45.7237C36.8053 47.3804 37.6342 48.8714 38.9605 49.8654C39.7895 50.3624 40.6184 50.528 41.4474 50.528C41.7789 50.528 42.1105 50.528 42.4421 50.3624C42.4421 50.6937 42.4421 51.1907 42.6079 51.522C42.6079 51.8533 42.6079 52.1847 42.7737 52.3503C42.7737 52.6817 42.7737 52.8473 42.7737 53.013C42.7737 53.3443 42.7737 53.51 42.7737 53.8413C42.6079 54.1727 41.9447 54.6697 40.4526 55.001C39.7895 55.1667 38.7947 55.3323 37.4684 55.498C36.1421 55.6637 35.1474 56.8233 35.1474 58.1486C34.9816 61.7933 34.8158 64.1126 34.9816 64.9409C35.1474 66.1006 35.6447 66.9289 36.4737 67.7572C33.9868 67.4259 31.9974 66.7632 31.9974 66.7632L30.3395 66.2663L31.0026 68.2542C31.8316 70.5736 33.3237 72.5615 35.3132 73.8869C37.1368 75.2122 39.4579 75.8749 41.7789 75.8749C44.5974 75.8749 47.0842 74.8809 48.9079 72.8929C48.9079 73.3899 49.0737 73.8869 49.2395 74.3839L50.0684 76.7032L51.0631 74.5495C51.0631 74.3839 52.721 71.2362 56.3684 70.9049C58.0263 70.7392 59.6842 70.5736 61.1763 69.4139C61.1763 69.7452 61.1763 70.2422 61.3421 70.5736C61.8395 72.5615 63.6631 73.7212 63.6631 73.7212L65.321 74.7152L65.1552 72.8929C65.1552 72.0645 65.1552 71.2362 65.321 70.4079C65.8184 69.0826 67.1447 68.5856 67.9737 68.2542C68.1395 68.2542 68.3052 68.0886 68.471 68.0886C69.7973 67.7572 70.9579 67.5916 72.1184 66.9289C71.621 67.9229 71.4552 68.9169 71.621 69.7452C71.7868 72.2302 73.7763 73.7212 73.9421 73.7212L76.2631 75.3779L75.6 72.5615C75.4342 71.5676 75.1026 69.0826 76.0973 68.4199C77.2579 67.5916 78.2526 67.5916 79.2473 67.4259C80.0763 67.2602 81.071 67.2602 82.2315 66.7632C81.4026 68.7512 81.7342 70.2422 81.7342 70.2422L82.2315 72.3959L83.5579 70.7392C83.5579 70.7392 86.0447 67.5916 89.5263 67.5916C92.0131 67.5916 94.1684 68.9169 94.1684 68.9169L94.6657 69.2482L95.1631 68.9169C95.1631 68.9169 97.1526 67.5916 99.8052 67.5916C103.287 67.5916 105.774 70.7392 105.774 70.7392L107.1 72.3959L107.597 70.2422C107.597 70.2422 107.929 68.5856 107.1 66.7632C108.26 67.2602 109.089 67.4259 110.084 67.4259C111.079 67.5916 112.074 67.5916 113.234 68.4199C114.229 69.0826 114.063 71.4019 113.732 72.5615L113.068 75.3779L115.389 73.7212C115.555 73.7212 117.545 72.0645 117.71 69.7452C117.876 68.7512 117.545 67.7572 117.047 66.9289C118.208 67.5916 119.203 67.7572 120.695 68.0886C120.86 68.0886 121.026 68.0886 121.192 68.2542C122.021 68.4199 123.513 68.9169 123.845 70.4079C124.01 71.2362 124.01 72.0645 124.01 72.8929V74.5495L125.668 73.5555C125.834 73.5555 127.492 72.3959 127.989 70.4079C128.155 70.0766 128.155 69.5796 128.155 69.2482C129.482 70.4079 131.305 70.5736 132.963 70.7392C136.61 71.0706 138.103 74.2182 138.268 74.3839L139.263 76.5375L140.258 74.2182C140.424 73.7212 140.589 73.2242 140.589 72.7272C142.413 74.5495 144.9 75.7092 147.718 75.7092C150.039 75.7092 152.195 75.0465 154.184 73.7212C156.174 72.3959 157.666 70.4079 158.495 68.0886L159.158 66.1006L156.837 66.9289ZM125.337 12.5906C124.01 12.5906 123.182 12.0936 123.016 10.7683C122.85 9.93994 123.182 9.44294 124.01 9.27728C124.01 9.27728 124.01 9.27728 124.176 9.27728C124.01 9.93994 124.01 10.7683 124.508 11.4309C124.839 11.9279 125.337 12.2593 126 12.5906C125.668 12.5906 125.503 12.5906 125.337 12.5906ZM64.6579 11.4309C65.1552 10.7683 65.1552 9.93994 64.9895 9.27728C64.9895 9.27728 64.9894 9.27728 65.1552 9.27728C65.9842 9.44294 66.3158 9.93994 66.15 10.7683C65.9842 11.9279 65.1552 12.5906 63.8289 12.5906C63.6631 12.5906 63.3316 12.5906 63.1658 12.5906C63.8289 12.2593 64.3263 11.9279 64.6579 11.4309ZM125.005 18.5546C125.171 18.3889 125.503 18.0576 125.834 17.8919C126.995 16.8979 128.653 16.4009 130.642 16.4009C130.974 16.4009 131.139 16.4009 131.471 16.4009L134.124 15.2412C133.129 15.2412 132.466 15.2412 131.803 15.2412C129.15 15.2412 129.316 14.9099 129.647 13.0876C129.647 13.0876 131.968 13.7502 133.626 13.7502C133.792 13.7502 133.958 13.7502 134.124 13.7502C134.953 13.7502 135.284 13.2533 135.45 12.9219C135.616 12.2593 135.616 11.4309 135.284 10.2713C134.953 9.44294 134.289 8.78028 133.129 8.78028C132.3 8.78028 131.305 9.11161 130.31 10.1056L129.316 10.7683C128.818 10.2713 128.487 9.60861 128.155 8.94594C127.989 8.11762 128.818 7.45495 128.818 7.45495C127.824 7.62062 127.326 6.62663 127.326 6.12963C128.321 5.63263 129.813 4.8043 131.305 4.30731L131.803 2.81632C132.3 2.48498 138.103 1.15966 139.595 1.15966C139.76 1.15966 139.76 1.15966 139.76 1.15966C139.926 1.15966 139.926 1.15966 140.092 1.32533C139.76 1.65666 139.429 1.98799 139.263 2.48498L140.258 2.81632C140.755 1.82232 141.584 1.15966 142.247 0.993994C143.242 1.82232 144.237 4.14164 141.916 6.62663V8.11762L142.413 7.78628C142.91 7.28929 143.408 6.79229 143.739 6.12963C148.381 16.0696 140.755 24.1872 140.755 27.6662C140.755 27.6662 139.263 27.6662 138.103 27.1692C138.103 27.1692 137.605 30.6481 138.6 33.4645C139.76 36.7778 141.75 39.5941 143.408 42.7417C143.905 43.7357 144.403 44.8954 144.734 46.055C144.734 46.055 144.734 46.055 144.734 46.2207C145.066 46.8834 145.563 47.546 146.226 47.8774C147.055 48.2087 147.884 48.2087 148.713 47.7117C149.376 47.2147 149.874 46.552 149.874 45.7237C149.874 43.9014 148.713 42.4104 147.553 40.9194C146.889 40.0911 146.226 39.2628 145.729 38.4344C144.071 35.4524 143.739 32.3048 144.568 28.9915C144.9 27.5005 145.895 26.1752 146.724 24.8498C146.889 24.5185 147.055 24.1872 147.387 24.0215C147.553 23.8559 147.553 23.8559 147.553 23.6902C147.055 23.3589 147.055 22.8619 147.221 22.1992C147.387 21.7022 147.718 20.8739 148.05 20.0455C148.547 19.0515 148.879 18.0576 149.21 16.8979C149.542 15.0756 149.542 13.5846 149.376 12.2593C149.708 12.7563 150.039 13.4189 150.205 14.0816C150.537 14.7442 150.703 15.5726 150.868 16.2352C151.034 16.8979 151.034 17.7262 150.868 18.5546C151.2 17.8919 151.366 17.0636 151.366 16.2352C151.366 15.4069 151.366 14.5786 151.2 13.7502C150.868 13.0876 150.537 12.2593 150.371 11.5966C151.531 13.2533 152.029 15.2412 152.195 17.7262C152.195 20.8739 151.2 23.3589 150.205 24.0215C150.039 24.0215 150.039 24.1872 149.874 24.1872C149.376 24.3528 148.713 24.0215 148.713 24.0215C148.381 24.5185 148.05 25.0155 147.718 25.5125C146.889 26.8378 146.06 27.9975 145.729 29.3228C144.9 32.3048 145.231 35.2868 146.724 37.9374C147.221 38.7658 147.718 39.5941 148.381 40.2567C149.708 41.9134 151.034 43.4044 151.034 45.7237C151.034 47.049 150.371 48.2087 149.376 48.8714C148.713 49.2027 148.05 49.3684 147.387 49.3684C147.055 49.3684 146.724 49.3684 146.392 49.2027C146.06 49.2027 145.895 49.037 145.563 48.8714C145.397 48.8714 145.397 48.7057 145.231 48.7057C145.231 49.037 145.231 49.534 145.231 49.8654C145.231 50.031 145.231 50.031 145.231 50.1967C145.231 50.8593 145.066 51.522 145.066 52.1847C144.9 53.013 144.9 53.1787 145.066 54.007C145.397 55.001 146.724 55.6637 148.05 55.995C148.879 56.1606 150.205 56.3263 151.034 56.492C151.863 56.6576 152.526 57.3203 152.526 58.1486C152.692 60.1366 152.858 63.7813 152.692 64.7753C152.526 65.9349 151.863 66.7632 150.868 67.2602C150.868 67.4259 151.034 67.5916 151.034 67.7572C151.2 68.0886 151.366 68.4199 151.366 68.7512C151.697 70.5736 150.371 71.0705 149.21 71.4019L149.045 69.7452C149.045 69.7452 148.713 69.5796 148.713 69.4139C148.547 69.4139 148.547 69.2482 148.381 69.2482C148.216 69.0826 148.05 68.9169 148.05 68.5856C148.05 68.4199 148.05 68.2542 148.05 68.0886C148.05 67.7572 148.05 67.5916 147.884 67.4259C147.884 67.4259 147.718 67.2602 147.553 67.2602C147.387 67.2602 147.387 67.2602 147.221 67.2602C147.055 67.2602 147.055 67.2602 146.889 67.2602C146.724 67.4259 146.558 67.5916 146.392 67.9229C146.392 68.0886 146.392 68.0886 146.392 68.2542C146.558 68.7512 146.724 69.4139 146.558 69.9109C146.392 70.2422 145.895 70.7392 145.397 70.7392C145.231 70.7392 145.066 70.7392 144.9 70.5736L143.739 71.5676C142.247 69.9109 142.745 68.2542 144.403 67.5916C144.568 67.5916 144.734 67.4259 144.734 67.4259C145.066 67.2602 145.231 66.9289 145.066 66.5976C144.9 66.4319 144.734 66.2663 144.568 66.2663C144.237 66.2663 143.905 66.4319 143.242 66.7632C143.242 66.7632 143.242 66.7632 143.076 66.7632C142.745 66.9289 142.413 66.9289 142.247 66.9289C141.584 66.9289 141.087 66.5976 140.921 65.6036C140.921 65.6036 140.921 65.4379 140.921 65.2723L140.589 65.4379L139.926 66.2663C139.926 66.1006 139.926 65.9349 139.926 65.9349C139.926 65.6036 140.092 65.2723 140.258 64.9409C140.755 63.9469 141.75 63.6156 142.579 63.6156C143.739 63.6156 145.066 64.2783 145.563 64.9409L147.718 65.2723C148.216 64.7753 148.216 63.1186 148.05 61.7933C148.05 60.7993 147.387 60.1366 146.392 59.971C144.734 59.8053 142.413 59.474 141.584 59.3083C139.926 59.1426 138.268 58.977 137.108 57.6516C135.45 55.995 135.118 54.3383 135.118 51.8533C135.118 51.025 135.118 50.3624 135.284 49.534C135.284 48.8714 135.45 48.2087 135.45 47.546C135.45 47.049 135.616 46.7177 135.616 46.2207C135.616 45.7237 135.616 45.3924 135.616 44.8954C135.616 44.7297 135.616 44.5641 135.616 44.3984C135.45 43.9014 135.45 43.4044 135.284 42.9074C135.118 42.4104 134.787 41.9134 134.455 41.5821C133.958 40.9194 133.295 40.2567 132.3 39.7598C131.968 39.5941 131.637 39.4284 131.139 39.0971C130.808 38.7658 130.31 38.6001 129.813 38.2688C128.653 37.6061 127.492 36.6121 126.332 35.6181C126.497 35.6181 126.497 35.4524 126.663 35.4524C127.16 35.1211 128.155 34.2928 129.316 33.4645C129.647 33.2988 129.813 32.9675 129.979 32.8018L128.984 32.3048C127.824 33.2988 126.497 34.2928 126.166 34.4585C126 34.6241 125.834 34.6241 125.668 34.7898C125.337 34.9554 125.005 35.1211 124.674 35.2868C122.85 36.2808 121.689 36.9434 121.689 38.1031C123.845 40.4224 122.684 41.7477 121.524 42.2447L121.192 40.9194C119.866 40.7537 119.866 39.7598 119.866 39.0971C119.866 38.7658 119.534 38.4344 119.203 38.4344C118.871 38.4344 118.705 38.6001 118.705 38.9314C118.705 39.4284 118.705 39.7598 118.539 40.4224C118.374 40.9194 118.042 41.5821 117.213 41.5821C117.047 41.5821 117.047 41.5821 116.882 41.5821V43.0731C114.395 42.5761 114.726 40.0911 116.384 39.2628C117.379 38.7658 117.71 38.4344 117.379 38.1031C117.213 38.1031 117.047 38.1031 116.882 38.1031C116.55 38.1031 116.053 38.4344 115.555 38.9314C115.389 39.0971 115.058 39.2628 114.726 39.2628C114.063 39.2628 113.4 38.7658 113.068 37.9374L112.239 38.4344C112.074 36.6121 113.234 35.6181 114.395 35.6181C114.892 35.6181 115.555 35.7838 115.887 36.2808C116.053 36.4464 116.218 36.4464 116.384 36.4464C116.882 36.4464 117.213 35.7838 116.55 35.4524C116.053 34.7898 115.389 33.7958 116.053 32.9675L115.058 31.9735C115.555 31.6421 116.053 31.4765 116.55 31.4765C117.545 31.4765 118.539 32.1391 118.871 33.6301C118.871 33.9615 119.037 34.1271 119.368 34.1271C119.866 34.1271 120.86 32.9675 121.689 31.6421C121.855 31.3108 122.021 31.1451 122.187 30.8138C122.353 30.4825 122.684 29.9855 122.85 29.6541C123.182 29.1572 123.513 28.8258 123.845 28.3288C124.508 27.6662 125.834 26.3408 127.16 25.6782C127.492 25.5125 127.824 25.3468 128.155 25.1812C128.653 24.6842 128.984 24.0215 129.316 23.5245C130.31 22.0335 131.139 20.3769 131.637 18.7202C130.808 20.3769 129.813 21.7022 128.653 22.8619C128.155 23.5245 127.492 24.0215 126.995 24.5185C125.337 25.3468 124.01 26.6722 123.182 27.5005L123.016 27.6662C122.85 27.8318 122.518 28.1632 122.353 28.3288C122.021 26.6722 122.187 24.6842 122.684 22.8619C122.85 22.5305 122.85 22.0335 123.016 21.7022C123.347 20.7082 124.01 19.3829 125.005 18.5546ZM131.139 11.9279C131.803 11.7623 132.466 11.5966 133.129 11.5966C133.626 11.5966 134.124 11.7623 134.455 11.9279C134.455 12.0936 134.455 12.2593 134.455 12.4249C134.455 12.4249 134.289 12.4249 133.958 12.5906C133.792 12.5906 133.792 12.5906 133.626 12.5906C132.963 12.5906 132.3 12.4249 131.637 12.4249C130.974 12.2593 129.979 12.0936 129.979 12.0936C129.813 11.5966 129.979 10.9339 130.145 11.0996C130.31 10.9339 130.476 11.4309 131.139 11.9279ZM130.476 11.0996L130.974 10.6026C131.968 9.77427 132.632 9.44294 133.129 9.44294C133.792 9.44294 134.124 10.1056 134.289 10.2713C134.289 10.4369 134.289 10.6026 134.289 10.7683C133.958 10.6026 133.46 10.6026 132.963 10.6026C132.3 10.6026 131.471 10.7683 130.476 11.0996ZM137.439 62.1246C136.279 62.9529 135.118 63.2843 133.792 63.2843C132.632 63.2843 131.637 62.9529 130.476 62.6216C130.145 62.4559 129.813 62.4559 129.482 62.2903C128.984 62.1246 128.487 62.1246 127.824 62.1246C126.497 62.1246 125.337 62.6216 124.674 62.9529C124.839 62.6216 125.005 61.6276 125.005 60.7993C126 60.3023 126.663 59.474 126.995 58.48C127.492 56.989 127.824 54.3383 127.492 51.3563C128.321 51.1907 129.316 51.025 130.476 50.8593C131.637 50.6937 132.632 50.528 133.46 50.3624C133.792 50.3624 134.124 50.1967 134.289 50.031C134.289 50.528 134.289 51.1907 134.289 51.6877C134.289 53.1787 134.455 54.1727 134.787 55.1667C135.118 56.3263 135.782 57.3203 136.61 58.1486C138.103 59.6396 140.092 59.971 141.75 59.971C142.413 59.971 144.071 60.3023 146.558 60.6336C147.055 60.6336 147.387 61.1306 147.387 61.4619C147.387 62.6216 147.387 63.4499 147.387 63.7813L146.392 63.6156C145.563 62.7873 144.237 62.1246 142.91 62.1246C141.253 62.1246 139.926 62.9529 139.429 64.4439C139.097 64.4439 138.766 64.4439 138.434 64.6096C139.097 63.6156 139.097 62.7873 139.097 62.6216L139.263 60.468L137.439 62.1246ZM120.695 62.2903C120.529 62.2903 120.529 62.1246 120.363 61.9589C120.197 61.6276 120.197 61.2963 120.197 60.7993C120.197 60.468 120.197 59.971 119.866 59.8053C119.7 59.6396 119.534 59.6396 119.368 59.6396C119.203 59.6396 119.203 59.6396 119.037 59.6396C118.871 59.6396 118.539 59.971 118.539 60.1366C118.539 60.3023 118.539 60.468 118.539 60.6336C118.539 60.7993 118.539 60.965 118.539 61.1306C118.539 61.4619 118.539 61.7933 118.374 62.1246C118.374 62.1246 118.374 62.1246 118.374 62.2903C118.208 62.6216 117.71 63.1186 117.047 63.1186C116.882 63.1186 116.55 63.1186 116.384 62.7873L114.892 63.6156C114.726 63.4499 114.726 63.2843 114.56 63.1186C114.395 62.7873 114.229 62.4559 114.229 62.1246C113.897 60.7993 114.726 59.6396 116.218 59.3083C116.882 59.1426 117.213 58.8113 117.047 58.3143C116.882 57.983 116.716 57.8173 116.384 57.8173C116.053 57.8173 115.555 57.983 115.058 58.1486C114.892 58.1486 114.726 58.1486 114.56 58.3143C114.395 58.3143 114.229 58.3143 114.063 58.3143C113.4 58.3143 113.068 57.983 113.068 56.6576L111.742 56.989C112.239 55.001 113.4 54.1727 114.726 54.1727C115.887 54.1727 117.213 55.001 118.042 56.1606L118.539 56.3263L119.368 56.6576L121.192 57.3203C122.85 55.8293 122.187 52.019 122.187 52.019C122.187 52.019 118.871 50.1967 120.032 46.055C120.032 46.055 120.695 42.0791 127.824 42.0791C128.653 42.0791 129.482 42.0791 130.31 42.2447C130.808 42.2447 131.305 42.4104 131.803 42.4104C131.637 42.7417 131.637 43.2387 131.637 43.5701C131.803 44.2327 132.134 44.7297 132.797 45.0611C133.129 45.2267 133.46 45.2267 133.792 45.2267C134.124 45.2267 134.455 45.0611 134.787 44.8954C134.787 45.0611 134.787 45.2267 134.787 45.3924C134.621 46.3864 134.455 47.3804 134.455 48.3744C132.963 49.037 126.332 49.8654 126.332 49.8654C126.995 53.013 126.497 55.995 126 57.486C125.834 57.983 125.503 58.48 125.171 58.8113C124.839 59.1426 124.508 59.3083 124.01 59.474C123.845 60.6336 123.845 61.4619 123.679 61.9589C123.679 62.1246 123.513 62.4559 123.513 62.6216C123.016 63.4499 122.021 63.6156 121.026 63.7813L121.192 61.9589C121.192 62.6216 120.86 62.4559 120.695 62.2903ZM123.182 37.9374C123.513 37.4404 124.342 36.9434 125.337 36.4464C125.503 36.4464 125.668 36.2808 125.668 36.2808C125.834 36.4464 126 36.6121 126.166 36.7778C126.663 37.1091 127.16 37.6061 127.492 37.9374L129.813 40.2567C130.476 40.9194 130.808 41.4164 131.139 41.7477L127.824 41.5821C126.166 41.5821 124.839 41.7477 123.845 42.0791C124.01 41.9134 124.176 41.5821 124.176 41.2507C124.508 39.9254 123.845 38.7658 123.182 37.9374ZM132.632 41.9134C132.466 41.5821 132.134 41.0851 131.637 40.4224C131.803 40.4224 131.968 40.5881 131.968 40.5881C132.797 41.0851 133.295 41.5821 133.792 42.2447C134.124 42.7417 134.289 43.2387 134.621 43.7357C134.621 43.9014 134.787 44.0671 134.787 44.2327C134.621 44.5641 134.289 44.7297 133.792 44.7297C133.626 44.7297 133.46 44.7297 133.295 44.5641C132.797 44.2327 132.466 43.5701 132.963 42.9074C132.963 42.9074 132.963 42.7417 133.129 42.7417C132.963 42.5761 132.797 42.4104 132.632 41.9134ZM117.047 12.2593C117.71 12.7563 118.374 13.2533 119.037 13.7502C120.032 14.5786 121.026 15.4069 122.021 16.2352C122.353 16.4009 123.347 17.2292 124.176 17.8919C124.01 18.0576 123.679 18.3889 123.513 18.7202C122.85 19.5485 122.518 20.3769 122.021 21.2052L120.197 19.3829C120.363 18.8859 120.529 18.2232 120.363 17.7262C120.363 17.7262 120.363 17.7262 120.363 17.5606L119.368 18.0576C119.368 18.8859 119.037 19.5485 118.374 19.8799C118.208 20.0455 118.042 20.0455 117.71 20.0455V19.2172C117.379 19.2172 116.882 18.8859 116.882 18.3889C116.882 17.8919 117.213 17.5606 117.71 17.3949V16.2352C116.882 16.4009 116.218 16.8979 116.053 17.5606H114.892C114.892 16.7322 115.224 15.9039 116.053 15.7382V14.7442C115.389 14.9099 114.892 15.2412 114.56 15.5726C114.395 15.5726 114.395 15.7382 114.395 15.9039H113.566C113.566 15.0756 113.897 14.4129 114.726 14.0816V12.9219C114.395 13.0876 114.063 13.2533 113.732 13.5846H112.903C112.903 13.0876 113.234 12.5906 113.566 12.2593C113.897 11.9279 114.395 11.7623 114.892 11.7623C115.058 11.7623 115.224 11.7623 115.389 11.7623C115.555 11.7623 115.721 11.7623 116.053 11.7623C116.384 11.9279 116.716 12.0936 117.047 12.2593ZM114.892 5.63263C115.555 4.63864 115.887 3.14765 115.887 1.82232H118.374C118.374 1.98799 118.374 2.15365 118.374 2.31932C118.374 4.96997 116.218 7.28929 113.566 7.28929H113.4C113.897 6.95796 114.56 6.46096 114.892 5.63263ZM103.453 5.63263C104.116 4.63864 104.447 3.14765 104.447 1.82232H107.763C107.763 3.31331 108.095 4.63864 108.758 5.63263C109.255 6.29529 109.753 6.95796 110.25 7.28929H107.929C107.597 6.62663 107.1 5.7983 106.768 4.96997H105.608C105.276 5.96396 104.779 6.79229 104.282 7.28929H101.96C102.624 6.95796 103.121 6.46096 103.453 5.63263ZM91.8473 5.63263C92.5105 4.63864 92.8421 3.14765 92.8421 1.82232H96.4894C96.4894 3.31331 96.821 4.63864 97.4842 5.63263C97.9815 6.29529 98.4789 6.95796 98.9763 7.28929H96.4894C95.9921 6.62663 95.4947 5.7983 95.1631 4.96997H94.0026C93.671 5.96396 93.1736 6.79229 92.6763 7.28929H90.3552C91.0184 6.95796 91.5157 6.46096 91.8473 5.63263ZM80.5736 5.63263C81.2368 4.63864 81.5684 3.14765 81.5684 1.82232H84.8842C84.8842 3.31331 85.2157 4.63864 85.8789 5.63263C86.3763 6.29529 86.8736 6.95796 87.371 7.28929H85.05C84.5526 6.62663 84.0552 5.7983 83.7236 4.96997H82.5631C82.2315 5.7983 81.7342 6.62663 81.2368 7.28929H79.0815C79.5789 6.95796 80.2421 6.46096 80.5736 5.63263ZM70.9579 2.15365C70.9579 1.98799 70.9579 1.82232 70.9579 1.65666H73.6105C73.6105 3.14765 73.9421 4.47297 74.6052 5.46697C75.1026 6.12963 75.6 6.79229 76.0973 7.12362H75.7658C73.2789 7.28929 70.9579 4.96997 70.9579 2.15365ZM67.1447 16.2352C68.1395 15.4069 69.1342 14.5786 70.1289 13.7502C70.7921 13.2533 71.4552 12.7563 72.1184 12.2593C72.45 11.9279 72.9473 11.7623 73.4447 11.7623C73.6105 11.7623 73.7763 11.7623 73.9421 11.7623C74.1079 11.7623 74.2737 11.7623 74.4394 11.7623C74.9368 11.7623 75.2684 11.9279 75.7658 12.2593C76.0973 12.5906 76.2631 13.0876 76.2631 13.5846H75.4342C75.1026 13.2533 74.6052 13.0876 74.2737 12.9219V13.9159C75.1026 14.0816 75.4342 14.9099 75.4342 15.7382H74.6052C74.6052 15.5726 74.4394 15.5726 74.4394 15.4069C74.1079 15.2412 73.6105 14.9099 72.9473 14.7442V15.7382C73.7763 16.0696 74.1079 16.7322 74.1079 17.5606H72.9473C72.6158 16.8979 72.1184 16.4009 71.2894 16.2352V17.2292C71.7868 17.3949 72.1184 17.7262 72.1184 18.2232C72.1184 18.7202 71.621 19.0515 71.2894 19.0515V19.8799C71.1237 19.8799 70.7921 19.8799 70.6263 19.7142C69.9631 19.3829 69.6316 18.5546 69.6316 17.8919L68.6368 17.3949C68.6368 17.3949 68.6368 17.3949 68.6368 17.5606C68.6368 18.2232 68.6368 18.7202 68.8026 19.2172L66.9789 21.0395C66.6473 20.2112 66.15 19.3829 65.4868 18.5546C65.321 18.2232 64.9894 18.0576 64.8237 17.7262C65.8184 17.2292 66.8131 16.4009 67.1447 16.2352ZM36.3079 64.9409C36.1421 63.9469 36.3079 60.3023 36.4737 58.3143C36.4737 57.486 37.1368 56.8233 37.9658 56.6576C38.9605 56.492 40.1211 56.3263 40.95 56.1606C42.2763 55.8293 43.7684 55.3323 43.9342 54.1727C44.2658 53.3443 44.1 53.1787 43.9342 52.3503C43.9342 51.6877 43.7684 51.025 43.7684 50.3624C43.7684 50.1967 43.7684 50.1967 43.7684 50.031C43.7684 49.6997 43.7684 49.2027 43.7684 48.8714C43.7684 48.8714 43.6026 49.037 43.4368 49.037C43.1053 49.2027 42.9395 49.3684 42.6079 49.3684C42.2763 49.3684 41.9447 49.534 41.6132 49.534C40.95 49.534 40.2868 49.3684 39.6237 49.037C38.4632 48.3744 37.8 47.2147 37.9658 45.8894C37.9658 43.5701 39.2921 41.9134 40.6184 40.4224C41.2816 39.5941 41.7789 38.9314 42.2763 38.1031C43.7684 35.4524 44.1 32.6361 43.271 29.4885C42.9395 28.1632 42.1105 27.0035 41.2816 25.6782C40.95 25.1812 40.6184 24.6842 40.4526 24.1872C40.4526 24.1872 39.7895 24.5185 39.2921 24.3528C39.1263 24.3528 39.1263 24.3528 38.9605 24.1872C37.9658 23.5245 36.8053 21.0395 36.9711 17.8919C36.9711 15.4069 37.6342 13.4189 38.7947 11.7623C38.4632 12.4249 38.2974 13.2532 38.1316 13.9159C37.9658 14.7442 37.9658 15.5726 37.9658 16.4009C37.9658 17.2292 38.1316 18.0576 38.4632 18.7202C38.2974 17.8919 38.2974 17.2292 38.4632 16.4009C38.6289 15.5726 38.7947 14.9099 38.9605 14.2472C39.2921 13.5846 39.4579 13.0876 39.7895 12.4249C39.7895 13.7502 39.7895 15.0756 40.1211 16.8979C40.2868 18.0576 40.7842 19.0515 41.2816 20.0455C41.6132 20.8739 41.9447 21.5365 42.1105 22.1992C42.2763 22.8619 42.1105 23.1932 41.7789 23.6902C41.7789 23.8559 41.9447 23.8559 41.9447 24.0215C42.1105 24.3528 42.2763 24.6842 42.4421 24.8498C43.271 26.1752 44.2658 27.5005 44.5974 28.9915C45.4263 32.3048 45.0947 35.6181 43.4368 38.4344C42.9395 39.4284 42.2763 40.0911 41.6132 40.9194C40.4526 42.4104 39.2921 43.7357 39.2921 45.7237C39.2921 46.552 39.6237 47.3804 40.4526 47.7117C41.2816 48.2087 42.1105 48.2087 42.9395 47.8774C43.6026 47.546 44.1 47.049 44.4316 46.2207C44.4316 46.2207 44.4316 46.2207 44.4316 46.055C44.7632 44.8954 45.2605 43.9014 45.7579 42.7417C47.25 39.5941 49.2395 36.7778 50.4 33.4645C51.3947 30.6481 50.8974 27.1692 50.8974 27.1692C49.7368 27.6662 48.2447 27.6662 48.2447 27.6662C48.2447 24.1872 40.7842 16.0696 45.2605 6.12963C45.5921 6.62663 45.9237 7.12362 46.5868 7.78628L47.25 8.28328V6.79229C44.7632 4.30731 45.9237 1.98799 46.9184 1.15966C47.5816 1.32533 48.4105 2.15365 48.9079 2.98198L49.9026 2.65065C49.571 2.15365 49.4053 1.82232 49.0737 1.49099C49.2395 1.49099 49.2395 1.32533 49.4053 1.32533H49.571C51.0631 1.32533 56.7 2.65065 57.3631 2.98198L57.8605 4.47297C59.3526 4.96997 60.8447 5.7983 61.8395 6.29529C61.6737 6.79229 61.1763 7.78628 60.3474 7.62062C60.3474 7.62062 61.1763 8.11762 61.0105 9.11161C60.6789 9.77427 60.3473 10.4369 59.85 10.9339L58.8552 9.93994C57.6947 8.94594 56.8658 8.61461 56.0368 8.61461C55.0421 8.61461 54.2131 9.27728 53.8816 10.1056C53.3842 11.2653 53.3842 12.2593 53.55 12.7563C53.7158 13.2533 54.0474 13.5846 54.8763 13.5846C55.0421 13.5846 55.2079 13.5846 55.3737 13.5846C57.0316 13.5846 59.3526 12.9219 59.3526 12.9219C59.6842 14.7442 59.85 15.0756 57.1974 15.0756C56.5342 15.0756 55.871 15.0756 54.8763 15.0756L57.5289 16.2352C57.8605 16.2352 58.0263 16.2352 58.3579 16.2352C60.3474 16.2352 61.8395 16.8979 63.1658 17.7262C63.4973 17.8919 63.6631 18.2232 63.9947 18.3889C64.9894 19.3829 65.6526 20.5425 66.15 21.8679C66.3158 22.1992 66.4816 22.5305 66.4816 23.0275C66.9789 25.0155 66.9789 27.0035 66.8131 28.4945C66.6473 28.1632 66.4816 27.9975 66.15 27.8318L65.9842 27.6662C65.1552 26.8378 63.8289 25.5125 62.171 24.6842C61.5079 24.1872 61.0105 23.6902 60.5131 23.0275C59.3526 21.7022 58.3579 20.3769 57.5289 18.8859C58.0263 20.5425 58.8552 22.1992 59.85 23.6902C60.1816 24.3528 60.6789 24.8498 61.0105 25.3468C61.3421 25.5125 61.6737 25.6782 62.0052 25.8438C63.3316 26.6722 64.6579 27.8318 65.321 28.4945C65.8184 28.8258 66.15 29.3228 66.3158 29.8198C66.6473 30.1511 66.8131 30.4825 66.9789 30.9795C67.1447 31.3108 67.3105 31.4765 67.4763 31.8078C68.3052 32.9675 69.1342 34.2928 69.7973 34.2928C69.9631 34.2928 70.1289 34.1271 70.2947 33.7958C70.6263 32.3048 71.621 31.6421 72.6158 31.6421C73.1131 31.6421 73.6105 31.8078 74.1079 32.1391L73.1131 33.1331C73.7763 33.7958 73.1131 34.9554 72.45 35.2868C71.7868 35.6181 72.1184 36.2808 72.6158 36.2808C72.7815 36.2808 72.9473 36.2808 73.1131 36.1151C73.6105 35.7838 74.1079 35.4524 74.6052 35.4524C75.7658 35.4524 76.9263 36.2808 76.7605 38.2688L75.9315 37.7718C75.6 38.7658 74.9368 39.0971 74.2737 39.0971C73.9421 39.0971 73.7763 39.0971 73.4447 38.7658C72.9473 38.6001 72.45 38.1031 72.1184 38.1031C71.9526 38.1031 71.9526 38.1031 71.7868 38.2688C71.4552 38.6001 71.7868 38.9314 72.7816 39.4284C74.4394 40.2567 74.771 42.7417 72.2842 43.2387L71.9526 41.7477C71.7868 41.7477 71.7868 41.7477 71.621 41.7477C70.9579 41.7477 70.4605 41.0851 70.2947 40.5881C70.1289 39.9254 70.2947 39.4284 70.1289 39.0971C70.1289 38.7658 69.7973 38.6001 69.6316 38.6001C69.3 38.6001 68.9684 38.7658 68.9684 39.2628C68.9684 39.9254 68.9684 40.9194 67.6421 41.0851L67.3105 42.4104C66.15 41.9134 64.9895 40.5881 67.1447 38.2688C67.1447 37.1091 65.9842 36.4464 64.1605 35.4524C63.8289 35.2868 63.4973 35.1211 63.1658 34.9554C63 34.7898 62.8342 34.7898 62.6684 34.6241C62.3368 34.4585 61.0105 33.4645 59.85 32.4705L58.8552 32.9675C59.021 33.1331 59.3526 33.2988 59.5184 33.6301C60.5131 34.4585 61.6737 35.2868 62.171 35.6181C62.171 35.6181 62.3368 35.7838 62.5026 35.7838C61.3421 36.7778 60.1816 37.7718 59.021 38.4344C58.5237 38.7658 58.1921 38.9314 57.6947 39.2628C57.1974 39.5941 56.8658 39.7598 56.5342 39.9254C55.7052 40.4224 54.8763 41.0851 54.3789 41.7477C54.0474 42.2447 53.7158 42.7417 53.55 43.0731C53.3842 43.5701 53.2184 44.0671 53.2184 44.5641C53.2184 44.7297 53.2184 44.8954 53.2184 45.0611C53.2184 45.558 53.2184 45.8894 53.2184 46.3864C53.2184 46.8834 53.3842 47.2147 53.3842 47.7117C53.3842 48.3744 53.55 49.037 53.55 49.6997C53.55 50.528 53.7158 51.3563 53.7158 52.019C53.7158 54.3383 53.3842 56.1606 51.7263 57.8173C50.5658 58.977 48.9079 59.3083 47.25 59.474C46.421 59.474 44.1 59.8053 42.4421 60.1366C41.4474 60.3023 40.7842 60.965 40.7842 61.9589C40.7842 63.2843 40.7842 64.9409 41.1158 65.4379L43.271 65.1066C43.7684 64.2783 44.9289 63.7813 46.2553 63.7813C47.25 63.7813 48.0789 64.1126 48.5763 65.1066C48.7421 65.4379 48.9079 65.7693 48.9079 66.1006C48.9079 66.2663 48.9079 66.2663 48.9079 66.4319L48.2447 66.1006L48.0789 65.7693C48.0789 65.9349 48.0789 65.9349 48.0789 66.1006C47.9131 67.0946 47.4158 67.4259 46.7526 67.4259C46.421 67.4259 46.2553 67.4259 45.9237 67.2602C45.9237 67.2602 45.9237 67.2602 45.7579 67.2602C45.2605 67.0946 44.7632 66.7632 44.4316 66.7632C44.2658 66.7632 44.1 66.7632 43.9342 67.0946C43.7684 67.4259 43.9342 67.5916 44.2658 67.9229C44.4316 67.9229 44.4316 68.0886 44.5974 68.0886C46.2553 68.7512 46.7526 70.4079 45.2605 72.0645L44.1 71.0706C43.9342 71.2362 43.7684 71.2362 43.6026 71.2362C43.1053 71.2362 42.4421 70.7392 42.4421 70.4079C42.2763 69.9109 42.4421 69.0826 42.6079 68.7512C42.6079 68.5856 42.6079 68.4199 42.6079 68.4199C42.6079 68.0886 42.4421 67.9229 42.1105 67.7572C41.9447 67.7572 41.9447 67.7572 41.7789 67.7572C41.6132 67.7572 41.6132 67.7572 41.4474 67.7572C41.2816 67.7572 41.2816 67.9229 41.1158 67.9229C40.95 68.0886 40.95 68.4199 40.95 68.5856C40.95 68.7512 40.95 68.9169 40.95 69.0826C40.95 69.2482 40.7842 69.5796 40.6184 69.7452C40.4526 69.7452 40.4526 69.9109 40.2868 69.9109C40.2868 69.9109 39.9553 70.0766 39.9553 70.2422L39.7895 71.8989C38.6289 71.5676 37.3026 71.0705 37.6342 69.2482C37.6342 68.9169 37.8 68.5856 37.9658 68.2542C37.9658 68.0886 38.1316 67.9229 38.1316 67.7572C37.1368 66.9289 36.4737 66.1006 36.3079 64.9409ZM56.0368 11.5966C56.7 11.5966 57.3631 11.5966 58.0263 11.9279C58.6895 11.4309 58.8552 10.9339 59.1868 10.9339C59.3526 10.9339 59.5184 11.4309 59.3526 11.9279C59.3526 11.9279 58.3579 12.0936 57.6947 12.2593C57.0316 12.4249 56.3684 12.4249 55.7052 12.4249C55.5395 12.4249 55.3737 12.4249 55.3737 12.4249C55.0421 12.4249 54.8763 12.2593 54.8763 12.2593C54.8763 12.0936 54.8763 12.0936 54.8763 11.7623C55.2079 11.5966 55.5395 11.5966 56.0368 11.5966ZM54.8763 10.7683C54.8763 10.6026 55.0421 10.4369 55.0421 10.2713C55.0421 10.1056 55.3737 9.44294 56.2026 9.44294C56.7 9.44294 57.3631 9.60861 58.3579 10.6026L58.6895 11.0996C57.8605 10.7683 57.0316 10.6026 56.2026 10.6026C55.7052 10.6026 55.2079 10.6026 54.8763 10.7683ZM67.6421 57.6516L69.4658 56.989L70.2947 56.6576L70.7921 56.492C71.621 55.3323 72.9473 54.504 74.1079 54.504C75.2684 54.504 76.4289 55.3323 77.0921 57.3203L75.7658 56.989C75.7658 58.3143 75.2684 58.6456 74.771 58.6456C74.6052 58.6456 74.4394 58.6456 74.2737 58.6456C74.1079 58.6456 73.9421 58.6456 73.7763 58.48C73.1131 58.3143 72.7816 58.1486 72.45 58.1486C72.1184 58.1486 71.9526 58.3143 71.7868 58.6456C71.621 59.1426 72.1184 59.474 72.6158 59.6396C74.1079 59.971 74.9368 60.965 74.6052 62.4559C74.6052 62.7873 74.4394 63.1186 74.2737 63.4499C74.2737 63.6156 74.1079 63.7813 73.9421 63.9469L72.6158 62.9529C72.45 63.1186 72.1184 63.2843 71.9526 63.2843C71.4552 63.2843 70.7921 62.9529 70.6263 62.4559C70.6263 62.4559 70.6263 62.4559 70.6263 62.2903C70.4605 61.9589 70.4605 61.6276 70.4605 61.2963C70.4605 61.1306 70.4605 60.965 70.4605 60.7993C70.4605 60.6336 70.4605 60.468 70.4605 60.3023C70.4605 59.971 70.1289 59.8053 69.9631 59.8053C69.9631 59.8053 69.7973 59.8053 69.6316 59.8053C69.4658 59.8053 69.3 59.8053 69.1342 59.971C68.8026 60.3023 68.8026 60.6336 68.8026 60.965C68.8026 61.2963 68.9684 61.7933 68.6368 62.1246C68.6368 62.2903 68.471 62.2903 68.3052 62.4559L67.9737 62.7873L68.1394 64.6096C67.1447 64.6096 66.15 64.2783 65.6526 63.4499C65.4868 63.2843 65.4868 63.1186 65.4868 62.7873C65.321 62.1246 65.1552 61.2963 65.1552 60.3023C64.6579 60.1366 64.3263 59.971 63.9947 59.6396C63.6631 59.3083 63.3316 58.8113 63.1658 58.3143C62.6684 56.8233 62.171 53.8413 62.8342 50.6937C62.8342 50.6937 56.2026 49.8654 54.7105 49.2027C54.5447 48.2087 54.5447 47.2147 54.3789 46.2207C54.3789 46.055 54.3789 45.8894 54.3789 45.7237C54.7105 45.8894 55.0421 46.055 55.3737 46.055C55.7052 46.055 56.0368 46.055 56.3684 45.8894C56.8658 45.558 57.3631 45.0611 57.5289 44.3984C57.5289 43.9014 57.5289 43.5701 57.3631 43.2387C57.8605 43.2387 58.3579 43.0731 58.8552 43.0731C59.6842 42.9074 60.5131 42.9074 61.3421 42.9074C68.471 42.9074 69.1342 46.8834 69.1342 46.8834C70.2947 51.025 66.9789 52.8473 66.9789 52.8473C66.9789 52.8473 65.9842 56.1606 67.6421 57.6516ZM50.2342 63.1186C50.2342 63.2843 50.2342 64.1126 50.8974 65.1066C50.5658 65.1066 50.2342 64.9409 49.9026 64.9409C49.4053 63.4499 48.0789 62.6216 46.421 62.6216C45.0947 62.6216 43.7684 63.1186 42.9395 64.1126L41.9447 64.2783C41.9447 63.7813 41.7789 63.1186 41.9447 61.9589C41.9447 61.4619 42.2763 61.1306 42.7737 61.1306C45.2605 60.7993 46.9184 60.468 47.5816 60.468C49.2395 60.3023 51.2289 59.971 52.721 58.6456C53.55 57.8173 54.2131 56.8233 54.5447 55.6636C54.8763 54.6697 55.0421 53.6757 55.0421 52.1847C55.0421 51.6877 55.0421 51.025 55.0421 50.528C55.3737 50.528 55.5395 50.6937 55.871 50.8593C56.5342 51.025 57.5289 51.1907 58.8552 51.3563C60.0158 51.522 61.0105 51.6877 61.8395 51.8533C61.5079 54.8353 61.8395 57.3203 62.3368 58.977C62.6684 59.971 63.3316 60.7993 64.3263 61.2963C64.3263 62.2903 64.6579 63.4499 64.6579 63.4499C63.8289 63.1186 62.8342 62.6216 61.5079 62.6216C61.0105 62.6216 60.3473 62.6216 59.85 62.7873C59.5184 62.9529 59.1868 62.9529 58.8552 63.1186C57.6947 63.4499 56.7 63.7813 55.5395 63.7813C54.3789 63.7813 53.2184 63.4499 51.8921 62.6216L50.2342 61.4619V63.1186ZM56.2026 43.0731C56.5342 43.5701 56.3684 44.3984 55.871 44.7297C55.7052 44.7297 55.5395 44.8954 55.3737 44.8954C55.0421 44.8954 54.7105 44.7297 54.5447 44.3984C54.5447 44.2327 54.7105 44.0671 54.7105 43.9014C54.8763 43.4044 55.2079 42.9074 55.5395 42.4104C56.0368 41.7477 56.5342 41.2507 57.3631 40.7537C57.5289 40.7537 57.6947 40.5881 57.6947 40.5881C57.1974 41.2507 56.8658 41.7477 56.7 42.0791C56.3684 42.4104 56.3684 42.7417 56.2026 43.0731ZM63 36.6121C63.1658 36.4464 63.3316 36.2808 63.4973 36.1151C63.6631 36.1151 63.8289 36.2808 63.8289 36.2808C64.8237 36.7778 65.8184 37.4404 65.9842 37.7718C65.321 38.6001 64.6579 39.9254 64.9895 41.0851C64.9895 41.4164 65.1552 41.5821 65.321 41.9134C64.3263 41.5821 63 41.4164 61.3421 41.4164L58.0263 41.5821C58.3579 41.2507 58.6895 40.7537 59.3526 40.0911L61.6737 37.7718C62.0052 37.4404 62.5026 37.1091 63 36.6121ZM48.0789 72.0645C46.421 73.8869 44.1 74.7152 41.7789 74.7152C37.6342 74.7152 33.4895 72.2302 31.9974 67.7572C31.9974 67.7572 33.9868 68.4199 36.6395 68.7512C36.4737 69.4139 36.6395 70.0766 36.8053 70.7392C37.3026 71.8989 38.6289 72.3959 39.4579 72.5615L40.6184 72.8929L40.7842 71.7332L40.95 70.5736C41.1158 70.5736 41.1158 70.4079 41.2816 70.4079C41.2816 70.5736 41.2816 70.5736 41.2816 70.7392C41.6132 71.5676 42.4421 72.3959 43.4368 72.3959C43.6026 72.3959 43.6026 72.3959 43.7684 72.3959L44.4316 73.0585L45.2605 73.7212L45.9237 72.8929C46.9184 71.8989 47.25 70.5736 47.0842 69.5796C47.0842 69.2482 46.9184 68.9169 46.5868 68.5856C47.25 68.5856 47.7474 68.4199 48.2447 67.9229C48.4105 67.7572 48.5763 67.5916 48.5763 67.4259L50.2342 68.0886L50.0684 66.4319V66.2663C50.7316 66.4319 51.7263 66.5976 52.721 67.0946C52.8868 67.0946 53.0526 67.2602 53.2184 67.2602H53.3842C53.0526 67.4259 52.721 67.5916 52.3895 67.9229C50.7316 68.9169 49.7368 70.0766 49.2395 71.2362C48.9079 71.2362 48.5763 71.7332 48.0789 72.0645ZM60.5131 68.4199C59.3526 69.4139 57.6947 69.5796 56.3684 69.7452C52.0579 70.0766 50.2342 74.0525 50.2342 74.0525C49.9026 73.2242 49.9026 72.2302 50.2342 71.5676C50.7316 70.4079 51.8921 69.4139 53.2184 68.5856C55.3737 67.2602 57.6947 66.4319 57.6947 66.4319C57.1974 66.4319 56.8658 66.4319 56.5342 66.4319C55.7052 66.4319 54.8763 66.2663 54.2131 66.1006C53.8816 65.9349 53.55 65.9349 53.2184 65.7693C51.2289 64.7753 51.2289 62.9529 51.2289 62.9529C52.721 63.9469 54.2131 64.2783 55.3737 64.2783C57.0316 64.2783 58.5237 63.7813 60.0158 63.2843C60.5131 63.1186 60.8447 63.1186 61.3421 63.1186C62.6684 63.1186 63.6631 63.6156 64.3263 63.9469C63.4973 64.4439 62.8342 65.1066 62.3368 65.7693C62.171 66.1006 62.0052 66.4319 61.8395 66.7632C61.1763 67.4259 61.0105 68.0886 60.5131 68.4199ZM67.6421 66.9289C66.15 67.2602 64.6579 68.0886 64.1605 69.7452C63.8289 70.5736 63.9947 71.7332 63.9947 72.5615C63.9947 72.5615 60.8447 70.7392 62.5026 67.2602C62.6684 66.9289 62.8342 66.5976 63 66.4319C63.3316 65.7692 63.8289 65.4379 64.3263 65.1066C64.4921 64.9409 64.6579 64.9409 64.8237 64.7753L65.321 64.6096C66.15 65.2723 67.1447 65.4379 67.9737 65.4379H69.1342L68.9684 64.2783L68.8026 62.9529C68.9684 62.7873 69.1342 62.6216 69.1342 62.4559C69.1342 62.6216 69.3 62.7873 69.3 62.9529C69.6315 63.6156 70.4605 64.2783 71.4552 64.2783C71.7868 64.2783 71.9526 64.2783 72.1184 64.1126L72.6158 64.4439C72.6158 64.4439 72.45 64.4439 72.45 64.6096C71.2894 66.2663 69.9631 66.4319 67.6421 66.9289ZM114.726 72.7272C114.726 72.7272 115.555 68.7512 113.732 67.4259C110.747 65.4379 109.089 67.0946 105.608 64.6096C105.608 64.6096 105.442 64.6096 105.442 64.4439C103.784 62.7873 102.126 61.7933 100.468 61.2963C99.3078 61.4619 98.1473 61.6276 96.821 61.6276C97.1526 61.6276 97.3184 61.6276 97.65 61.6276C98.1473 61.6276 98.6447 61.7933 99.1421 61.9589C99.971 62.1246 100.8 62.4559 101.629 62.7873C102.624 63.2843 103.784 64.1126 104.613 65.1066L104.779 65.2723C106.934 67.5916 106.271 69.9109 106.271 69.9109C106.271 69.9109 103.618 66.2663 99.4736 66.2663C97.4842 66.2663 95.8263 66.9289 94.9973 67.4259L94.3342 67.7572L93.671 67.4259C92.8421 66.9289 91.1842 66.2663 89.1947 66.2663C85.2157 66.2663 82.3973 69.9109 82.3973 69.9109C82.3973 69.9109 81.9 67.5916 83.8894 65.2723L84.0552 65.1066C85.05 64.1126 86.0447 63.2843 87.0394 62.7873C87.8684 62.2903 88.6973 62.1246 89.5263 61.9589C90.0236 61.7933 90.521 61.7933 91.0184 61.6276C91.35 61.6276 91.5157 61.6276 91.8473 61.6276C90.521 61.6276 89.1947 61.4619 88.2 61.2963C86.5421 61.7933 84.8842 62.7873 83.2263 64.4439C83.2263 64.4439 83.0605 64.4439 83.0605 64.6096C79.5789 67.2602 78.0868 65.4379 74.9368 67.4259C72.9473 68.7512 73.9421 72.7272 73.9421 72.7272C73.9421 72.7272 69.9631 69.7452 73.6105 65.6036C74.4394 64.7753 75.2684 64.1126 75.9315 63.6156C76.4289 63.2843 76.9263 62.9529 76.9263 62.9529C76.9263 62.9529 76.5947 62.9529 76.0973 62.7873C75.9315 62.7873 75.6 62.6216 75.2684 62.6216H75.1026C75.2684 61.9589 75.2684 61.2963 74.9368 60.6336C74.771 60.3023 74.6052 60.1366 74.4394 59.971C75.9315 60.468 77.921 60.7993 80.0763 60.7993C80.9052 60.7993 81.7342 60.6336 82.7289 60.468C83.0605 60.468 83.3921 60.468 83.7236 60.468C83.8894 60.468 83.8894 60.468 84.0552 60.468C83.2263 60.1366 82.3973 59.971 81.7342 59.6396C81.2368 59.6396 80.5736 59.8053 80.0763 59.8053C78.2526 59.8053 76.7605 59.6396 75.4342 59.3083C75.7658 58.977 75.7658 58.8113 75.9315 58.48H76.0973L77.7552 58.8113L77.2579 57.1546C76.4289 54.007 74.2737 53.6757 73.4447 53.6757C72.1184 53.6757 70.4605 54.504 69.4658 55.8293L67.9737 56.492C67.4763 55.6636 67.4763 54.007 67.6421 53.013C67.9737 52.6817 68.6368 52.1847 69.1342 51.522C69.9631 50.3624 70.6263 48.7057 69.9631 46.055C69.9631 45.7237 69.4658 44.3984 68.1394 43.2387L68.471 42.4104L68.6368 41.7477C68.9684 41.5821 69.3 41.4164 69.4658 41.2507C69.7973 41.9134 70.2947 42.4104 71.1237 42.5761L71.2894 43.2387L71.4552 44.3984L72.6158 44.2327C74.1079 43.9014 75.1026 43.0731 75.2684 41.7477C75.4342 41.2507 75.2684 40.5881 74.9368 40.0911C75.4342 39.9254 76.0973 39.5941 76.4289 39.0971L77.7552 39.9254L77.921 38.2688C78.0868 36.7778 77.4237 35.7838 77.0921 35.2868C76.4289 34.6241 75.6 34.2928 74.771 34.2928C74.6052 34.2928 74.6052 34.2928 74.4394 34.2928C74.4394 34.2928 74.4394 34.1271 74.4394 33.9615C74.4394 33.6301 74.4394 33.4645 74.4394 33.1331L74.9368 32.6361L75.9315 31.6421L74.6052 30.8138C73.9421 30.4825 73.2789 30.3168 72.6158 30.3168C71.4552 30.3168 70.1289 30.8138 69.6316 32.4705C69.3 32.1391 68.9684 31.6421 68.6368 31.1451C68.471 30.8138 68.3052 30.6481 68.1394 30.3168C67.9737 29.9855 67.8079 29.6541 67.6421 29.4885C68.1394 27.5005 68.1394 24.6842 67.3105 22.0335L69.3 20.0455C69.4658 20.2112 69.7973 20.5425 69.9631 20.5425C70.2947 20.7082 70.6263 20.8739 71.1237 20.8739H72.2842V19.5485C72.2842 19.5485 72.2842 19.5485 72.45 19.3829C72.7816 19.0515 72.9473 18.7202 72.9473 18.3889H73.9421H74.9368V17.3949C74.9368 17.0636 74.9368 16.7322 74.9368 16.5666H75.2684H76.2631V15.5726C76.2631 15.0756 76.2631 14.7442 76.0973 14.2472H77.0921V13.2533C77.0921 12.4249 76.5947 11.5966 75.9315 11.0996C75.2684 10.6026 74.6052 10.4369 74.1079 10.4369V8.28328H114.56V10.7683C114.063 10.7683 113.234 10.9339 112.737 11.4309C112.074 11.9279 111.576 12.7563 111.576 13.5846V14.5786H112.737C112.737 14.9099 112.571 15.4069 112.571 15.7382V16.7322H113.566H113.897C113.897 17.0636 113.732 17.2292 113.897 17.5606V18.5546H114.892H115.887C115.887 18.8859 116.218 19.3829 116.384 19.5485C116.384 19.5485 116.55 19.5485 116.55 19.7142V21.0395H117.545C117.876 21.0395 118.208 20.8739 118.705 20.7082C119.037 20.5425 119.203 20.3769 119.368 20.2112L121.358 22.1992C120.529 24.8498 120.529 27.6662 121.026 29.6541C120.86 29.9855 120.695 30.1511 120.529 30.4825C120.363 30.6481 120.197 30.9795 120.032 31.3108C119.7 31.9735 119.368 32.3048 119.037 32.6361C118.374 31.1451 117.047 30.4825 115.887 30.4825C115.224 30.4825 114.56 30.6481 113.897 31.1451L112.571 31.8078L113.566 32.8018L114.063 33.2988C114.063 33.6301 114.063 33.7958 114.063 34.1271C114.063 34.1271 114.063 34.2928 114.063 34.4585C113.897 34.4585 113.897 34.4585 113.732 34.4585C112.737 34.4585 111.908 34.7898 111.41 35.4524C110.913 35.9494 110.416 36.9434 110.582 38.4344L110.747 40.0911L112.239 39.2628C112.571 39.7598 113.068 40.0911 113.732 40.2567C113.566 40.7537 113.4 41.4164 113.4 41.9134C113.566 43.2387 114.56 44.0671 116.053 44.3984L117.213 44.5641L117.379 43.4044L117.545 42.7417C118.208 42.5761 118.871 41.9134 119.203 41.4164C119.368 41.5821 119.7 41.7477 120.032 41.9134L120.197 42.5761V42.7417L120.529 43.5701C119.203 44.7297 118.871 46.055 118.705 46.3864C118.042 48.8714 118.871 50.6937 119.534 51.8533C120.032 52.516 120.529 53.013 121.026 53.3443C121.192 54.3383 121.192 55.8293 120.695 56.8233L118.539 56.1606C117.545 54.8353 116.053 54.007 114.56 54.007C113.732 54.007 111.576 54.3383 110.747 57.486L110.25 59.1426L111.908 58.8113H112.074C112.239 59.1426 112.239 59.474 112.571 59.6396C111.245 59.971 109.587 60.1366 107.929 60.1366C107.432 60.1366 106.768 60.1366 106.271 59.971C105.608 60.3023 104.779 60.6336 103.95 60.7993C104.116 60.7993 104.116 60.7993 104.282 60.7993C104.613 60.7993 104.945 60.7993 105.276 60.7993C106.271 60.965 107.1 61.1306 107.929 61.1306C110.084 61.1306 112.074 60.7993 113.566 60.3023C113.4 60.468 113.234 60.7993 113.068 60.965C112.903 61.6276 112.737 62.2903 112.903 62.9529H112.737C112.405 62.9529 112.239 63.1186 111.908 63.1186C111.41 63.1186 111.245 63.2843 111.245 63.2843C111.245 63.2843 111.576 63.4499 112.239 63.9469C112.903 64.4439 113.897 65.1066 114.56 65.9349C118.705 69.7452 114.726 72.7272 114.726 72.7272ZM125.005 72.5615C125.005 71.5676 125.171 70.5736 124.839 69.7452C124.342 68.0886 123.016 67.2602 121.358 66.9289C119.203 66.4319 117.876 66.2663 116.053 64.6096C116.053 64.6096 115.887 64.6096 115.887 64.4439L116.384 64.1126C116.55 64.1126 116.882 64.2783 117.047 64.2783C118.042 64.2783 118.871 63.6156 119.203 62.9529C119.368 62.7873 119.368 62.6216 119.368 62.4559C119.534 62.6216 119.7 62.7873 119.7 62.9529L119.534 64.2783L119.368 65.4379H120.529C121.358 65.4379 122.353 65.2723 123.182 64.6096L123.679 64.7753C123.845 64.9409 124.01 64.9409 124.176 65.1066C124.674 65.4379 125.171 65.9349 125.503 66.4319C125.668 66.7632 125.834 67.0946 126 67.2602C128.155 70.9049 125.005 72.5615 125.005 72.5615ZM139.097 74.0525C139.097 74.0525 137.274 70.0766 132.963 69.7452C131.471 69.5796 129.979 69.4139 128.818 68.4199C128.321 67.9229 127.989 67.4259 127.492 66.7632C127.326 66.4319 127.16 66.1006 126.995 65.7693C126.497 64.9409 125.834 64.4439 125.005 63.9469C125.668 63.6156 126.663 63.1186 127.989 63.1186C128.487 63.1186 128.818 63.1186 129.316 63.2843C130.808 63.7813 132.3 64.2783 133.958 64.2783C135.284 64.2783 136.61 63.9469 138.103 62.9529C138.103 62.9529 137.937 64.7753 136.113 65.7693C135.781 65.9349 135.45 66.1006 135.118 66.1006C134.455 66.2663 133.792 66.4319 132.797 66.4319C132.466 66.4319 132.134 66.4319 131.637 66.4319C131.637 66.4319 133.958 67.2602 136.113 68.5856C137.439 69.4139 138.6 70.4079 139.097 71.5676C139.429 72.2302 139.429 73.0585 139.097 74.0525ZM147.387 74.7152C145.066 74.7152 142.745 73.8869 141.087 72.0645C140.589 71.5676 140.258 71.2362 139.926 70.9049C139.429 69.7452 138.268 68.7512 136.776 67.5916C136.445 67.4259 136.113 67.2602 135.782 66.9289C135.947 66.9289 135.947 66.9289 135.947 66.9289C136.113 66.9289 136.279 66.7632 136.445 66.7632C137.605 66.2663 138.434 66.1006 139.097 65.9349V66.1006L138.931 67.7572L140.589 67.0946C140.755 67.2602 140.755 67.4259 140.921 67.5916C141.418 68.0886 141.916 68.2542 142.413 68.2542C142.247 68.5856 142.081 68.9169 141.916 69.2482C141.75 70.4079 142.081 71.5676 143.076 72.5615L143.739 73.3899L144.568 72.7272L145.231 72.0645C145.397 72.0645 145.397 72.0645 145.563 72.0645C146.558 72.0645 147.553 71.2362 147.718 70.4079C147.718 70.2422 147.718 70.2422 147.884 70.0766C148.05 70.0766 148.05 70.2422 148.216 70.2422L148.381 71.4019L148.547 72.5615L149.708 72.2302C150.537 72.0645 151.863 71.5676 152.36 70.4079C152.692 69.9109 152.692 69.2482 152.526 68.4199C155.179 68.0886 157.168 67.4259 157.168 67.4259C155.676 72.2302 151.531 74.7152 147.387 74.7152ZM57.1974 4.8043C55.7052 5.3013 53.7158 4.8043 53.7158 4.8043C54.8763 5.96396 55.2079 6.62663 55.2079 6.62663C56.8658 6.62663 57.1974 5.63263 57.1974 4.8043ZM131.968 4.8043C131.968 5.7983 132.3 6.79229 133.792 6.62663C133.792 6.62663 134.124 5.96396 135.284 4.8043C135.45 4.8043 133.46 5.13563 131.968 4.8043ZM132.963 25.1812C133.295 24.6842 133.46 24.3528 133.792 23.8559C134.289 23.1932 134.621 22.3649 134.953 21.5365C135.284 20.7082 135.616 19.8799 135.782 19.0515C136.113 18.2232 136.279 17.3949 136.445 16.5666C136.113 17.3949 135.781 18.0576 135.284 18.8859C134.953 19.7142 134.455 20.3769 134.124 21.0395C133.626 21.7022 133.129 22.3649 132.632 23.0275C132.134 23.5245 131.637 24.1872 131.139 24.6842C131.803 24.8498 132.3 25.0155 132.963 25.1812ZM54.2131 21.5365C54.5447 22.3649 55.0421 23.1932 55.3737 23.8559C55.7052 24.3528 55.871 24.6842 56.2026 25.1812C56.7 25.0155 57.3631 24.8498 57.8605 24.8498C57.3631 24.3528 56.8658 23.6902 56.3684 23.1932C55.871 22.5305 55.3737 21.8679 54.8763 21.2052C54.3789 20.5425 54.0474 19.7142 53.7158 19.0515C53.3842 18.2232 52.8868 17.5606 52.5553 16.7322C52.721 17.5606 53.0526 18.3889 53.2184 19.2172C53.7158 19.8799 53.8816 20.7082 54.2131 21.5365ZM54.0474 26.3408C52.721 24.5185 51.5605 22.6962 50.5658 20.7082C50.0684 19.7142 49.571 18.5546 49.0737 17.3949C48.5763 16.2352 48.2447 15.0756 48.0789 13.9159C48.2447 15.0756 48.4105 16.4009 48.7421 17.5606C49.0737 18.7202 49.4053 19.8799 49.9026 21.0395C50.4 22.1992 50.8974 23.3589 51.3947 24.3528C51.8921 25.1812 52.2237 26.0095 52.721 27.0035C53.0526 26.8378 53.55 26.6722 54.0474 26.3408ZM136.61 27.0035C137.108 26.1752 137.605 25.3468 137.937 24.3528C138.434 23.1932 138.932 22.0335 139.429 21.0395C139.926 19.8799 140.258 18.7202 140.589 17.5606C140.921 16.4009 141.087 15.0756 141.253 13.9159C140.921 15.0756 140.589 16.2352 140.258 17.3949C139.926 18.5546 139.263 19.7142 138.766 20.7082C137.771 22.6962 136.445 24.5185 135.284 26.3408C135.781 26.6722 136.113 26.8378 136.61 27.0035Z" fill="white"/>
<path d="M112.074 13.585H77.4236H77.2578L76.7605 14.579H112.405L112.074 13.585ZM116.716 19.7146V31.6425C117.047 31.6425 117.379 31.8082 117.71 32.1395V19.8803L116.716 19.7146ZM117.047 41.7481L116.716 43.2391C116.716 43.2391 116.716 43.2391 116.55 43.2391V45.3928C116.55 48.2091 115.721 50.6941 114.063 53.0134C113.731 53.5104 113.234 54.0074 112.737 54.5044L73.6105 14.9103C73.4447 14.9103 73.2789 14.7446 72.9473 14.7446V15.7386C73.7763 16.0699 74.1078 16.7326 74.1078 17.5609H72.9473C72.7815 16.8983 72.1184 16.4013 71.2894 16.2356V17.2296C71.621 17.3953 71.9526 17.7266 71.9526 18.2236C71.9526 18.7206 71.621 19.0519 71.2894 19.0519V31.9738C71.621 31.6425 72.1184 31.4768 72.6157 31.4768C73.1131 31.4768 73.6105 31.6425 73.9421 31.9738L72.9473 32.9678C73.6105 33.6305 72.9473 34.7902 72.2842 35.1215C71.621 35.4528 71.9526 36.1155 72.45 36.1155C72.6157 36.1155 72.7815 36.1155 72.9473 35.9498C73.4447 35.6185 73.9421 35.2872 74.4394 35.2872C75.6 35.2872 76.7605 36.1155 76.5947 38.1035L75.7657 37.6065C75.4342 38.6005 74.771 38.9318 74.1078 38.9318C73.7763 38.9318 73.6105 38.9318 73.2789 38.6005C72.9473 38.4348 72.45 38.1035 72.1184 38.1035C71.9526 38.1035 71.9526 38.1035 71.7868 38.2691C71.4552 38.6005 71.7868 38.9318 72.7815 39.4288C74.4394 40.2571 74.771 42.5764 72.6157 43.0734H72.2842L71.9526 41.5825C71.7868 41.5825 71.7868 41.5825 71.621 41.5825C71.4552 41.5825 71.4552 41.5825 71.2894 41.5825V45.2271C71.2894 48.7061 72.45 51.688 74.4394 54.0074C74.4394 54.0074 74.6052 54.173 74.6052 54.3387C74.771 54.5044 74.771 54.5044 74.9368 54.67C75.1026 54.8357 75.1026 54.8357 75.2684 55.0014C75.4342 55.0014 75.4342 55.167 75.5999 55.167C75.7657 55.3327 75.9315 55.4984 76.0973 55.8297C77.4236 56.9893 78.9157 57.9833 80.4078 58.646C80.5736 58.8117 80.7394 58.8117 80.9052 58.9773C83.5578 60.3027 87.371 61.7936 94.1684 61.7936C100.966 61.7936 104.779 60.3027 107.432 58.9773C107.597 58.8117 107.763 58.8117 107.929 58.646C109.587 57.8177 110.913 56.9893 112.239 55.8297C112.239 55.8297 112.239 55.664 112.405 55.664C112.405 55.664 112.405 55.664 112.571 55.4984C112.571 55.4984 112.571 55.4984 112.737 55.3327C112.737 55.3327 112.903 55.3327 112.903 55.167C113.068 55.167 113.068 55.0014 113.234 55.0014C115.721 52.5164 117.213 49.2031 117.213 45.2271L117.047 41.7481C117.047 41.7481 117.047 41.7481 116.881 41.7481C117.379 41.7481 117.213 41.7481 117.047 41.7481Z" fill="white"/>
<path d="M11.1079 0.663086H0V76.5379H11.1079V0.663086Z" fill="white"/>
</svg>
