<svg width="163" height="100" viewBox="0 0 163 100" fill="none" xmlns="http://www.w3.org/2000/svg">
<path d="M37.5692 89.1396C36.2202 89.1396 35.2171 89.6585 34.5598 90.6962C33.9545 89.6585 33.0206 89.1396 31.7753 89.1396C30.5301 89.1396 29.5961 89.6239 28.9735 90.5752V89.3991H26.8462V99.2054H28.9735V93.7056C28.9735 92.8581 29.181 92.2182 29.5788 91.7685C29.9766 91.3361 30.5128 91.1113 31.1527 91.1113C31.7407 91.1113 32.1904 91.3015 32.519 91.6647C32.8476 92.0452 33.0033 92.5641 33.0033 93.2386V99.1881H35.1306V93.6883C35.1306 92.8235 35.3208 92.1836 35.7013 91.7512C36.0818 91.3188 36.6007 91.1113 37.2579 91.1113C37.8459 91.1113 38.3129 91.3015 38.6588 91.6647C39.0047 92.0452 39.1776 92.5641 39.1776 93.2386V99.1881H41.305V93.1002C41.305 91.8896 40.9591 90.9211 40.2845 90.1947C39.5754 89.5028 38.6761 89.1396 37.5692 89.1396Z" fill="white"/>
<path d="M151.06 89.1399C149.676 89.1399 148.656 89.6415 148.016 90.6446V85.4561H145.889V99.1884H148.016V93.9307C148.016 92.9795 148.241 92.2704 148.708 91.8034C149.158 91.3364 149.763 91.1116 150.507 91.1116C151.181 91.1116 151.717 91.3018 152.115 91.6996C152.513 92.0974 152.703 92.6508 152.703 93.3945V99.2057H154.83V93.187C154.83 91.9245 154.484 90.9386 153.793 90.2295C153.084 89.5031 152.184 89.1399 151.06 89.1399Z" fill="white"/>
<path d="M7.19882 94.1206H11.7993C11.5918 95.0718 11.1075 95.8328 10.3292 96.4036C9.56826 96.9743 8.56514 97.251 7.35448 97.251C5.8325 97.251 4.60454 96.7841 3.6706 95.8501C2.73666 94.9162 2.2697 93.7574 2.2697 92.3392C2.2697 90.921 2.73666 89.7449 3.6706 88.811C4.60454 87.877 5.78062 87.3928 7.21612 87.3928C8.09817 87.3928 8.91104 87.6003 9.63744 87.9981C10.3638 88.3959 10.9 88.932 11.2632 89.572L12.8198 87.8943C12.2663 87.1679 11.5745 86.5453 10.727 86.0783C9.67203 85.4903 8.49596 85.1963 7.21612 85.1963C5.17529 85.1963 3.46306 85.8881 2.07945 87.2717C0.695833 88.6553 0.00402832 90.333 0.00402832 92.3219C0.00402832 94.3281 0.695833 96.0058 2.07945 97.3894C3.46306 98.7557 5.20988 99.4475 7.33718 99.4475C9.34342 99.4475 10.9692 98.8422 12.1971 97.6488C13.4424 96.4555 14.065 94.9162 14.065 93.031V92.1144H7.19882V94.1206Z" fill="white"/>
<path d="M162.233 91.4402V89.3993H159.794V86.6494H157.667V89.3993H155.868V91.4402H157.667V96.1445C157.667 97.4243 158.013 98.3064 158.722 98.7906C159.431 99.2749 160.59 99.4132 162.215 99.2057V97.3032C161.679 97.3378 161.23 97.3378 160.866 97.3205C160.503 97.3032 160.226 97.1995 160.054 97.0265C159.863 96.8536 159.777 96.5595 159.777 96.1445V91.4402H162.233Z" fill="white"/>
<path d="M20.4642 89.1396C18.9422 89.1396 17.697 89.6412 16.7285 90.627C15.7772 91.6129 15.293 92.8408 15.293 94.3109C15.293 95.7983 15.7772 97.0435 16.7631 98.0121C17.7489 98.9806 19.0287 99.4822 20.6372 99.4822C22.3321 99.4822 23.6638 98.8941 24.6151 97.7526L23.1796 96.3171C22.6088 97.13 21.7787 97.5278 20.6545 97.5278C19.8416 97.5278 19.1498 97.3203 18.5963 96.9225C18.0256 96.5247 17.6797 95.954 17.524 95.2103H25.3415C25.3933 94.8471 25.4279 94.553 25.4279 94.3282C25.4279 92.8927 24.961 91.6647 24.0443 90.6616C23.0931 89.6412 21.8997 89.1396 20.4642 89.1396ZM17.4895 93.4807C17.6278 92.737 17.9737 92.149 18.4926 91.7166C19.0114 91.2843 19.6686 91.0767 20.4469 91.0767C21.1387 91.0767 21.7441 91.2843 22.2629 91.682C22.7818 92.0798 23.1104 92.6852 23.2487 93.4807H17.4895Z" fill="white"/>
<path d="M47.9117 89.1396C46.3897 89.1396 45.1445 89.6412 44.1759 90.627C43.2074 91.6129 42.7231 92.8408 42.7231 94.3109C42.7231 95.7983 43.2074 97.0435 44.1932 98.0121C45.1791 98.9806 46.4589 99.4822 48.0674 99.4822C49.7623 99.4822 51.094 98.8941 52.0452 97.7526L50.6097 96.3171C50.039 97.13 49.2088 97.5278 48.0846 97.5278C47.2718 97.5278 46.58 97.3203 46.0265 96.9225C45.4558 96.5247 45.1099 95.954 44.9542 95.2103H52.7716C52.8235 94.8471 52.8581 94.553 52.8581 94.3282C52.8581 92.8927 52.3911 91.6647 51.4745 90.6616C50.5233 89.6412 49.3472 89.1396 47.9117 89.1396ZM44.9196 93.4807C45.058 92.737 45.4039 92.149 45.9227 91.7166C46.4416 91.2843 47.0988 91.0767 47.8771 91.0767C48.5689 91.0767 49.1742 91.2843 49.6931 91.682C50.212 92.0798 50.5406 92.6852 50.6789 93.4807H44.9196Z" fill="white"/>
<path d="M58.9806 89.1396C57.4586 89.1396 56.2133 89.6412 55.2448 90.627C54.2763 91.6129 53.792 92.8408 53.792 94.3109C53.792 95.7983 54.2763 97.0435 55.2621 98.0121C56.2479 98.9806 57.5278 99.4822 59.1362 99.4822C60.8311 99.4822 62.1629 98.8941 63.1141 97.7526L61.6786 96.3171C61.1079 97.13 60.2777 97.5278 59.1535 97.5278C58.3406 97.5278 57.6488 97.3203 57.0954 96.9225C56.5246 96.5247 56.1787 95.954 56.0231 95.2103H63.8405C63.8924 94.8471 63.927 94.553 63.927 94.3282C63.927 92.8927 63.46 91.6647 62.5434 90.6616C61.6094 89.6412 60.4333 89.1396 58.9806 89.1396ZM56.0058 93.4807C56.1441 92.737 56.49 92.149 57.0089 91.7166C57.5278 91.2843 58.185 91.0767 58.9633 91.0767C59.6551 91.0767 60.2604 91.2843 60.7793 91.682C61.2981 92.0798 61.6267 92.6852 61.7651 93.4807H56.0058Z" fill="white"/>
<path d="M87.7771 89.1396C86.2551 89.1396 85.0098 89.6412 84.0413 90.627C83.0728 91.6129 82.5885 92.8408 82.5885 94.3109C82.5885 95.7983 83.0728 97.0435 84.0586 98.0121C85.0444 98.9806 86.3243 99.4822 87.9327 99.4822C89.6276 99.4822 90.9594 98.8941 91.9106 97.7526L90.4751 96.3171C89.9044 97.13 89.0742 97.5278 87.95 97.5278C87.1371 97.5278 86.4453 97.3203 85.8919 96.9225C85.3211 96.5247 84.9752 95.954 84.8196 95.2103H92.637C92.6889 94.8471 92.7235 94.553 92.7235 94.3282C92.7235 92.8927 92.2565 91.6647 91.3399 90.6616C90.4059 89.6412 89.2126 89.1396 87.7771 89.1396ZM84.8023 93.4807C84.9407 92.737 85.2866 92.149 85.8054 91.7166C86.3243 91.2843 86.9815 91.0767 87.7598 91.0767C88.4516 91.0767 89.0569 91.2843 89.5758 91.682C90.0946 92.0798 90.4232 92.6852 90.5616 93.4807H84.8023Z" fill="white"/>
<path d="M129.199 89.1396C127.677 89.1396 126.432 89.6412 125.463 90.627C124.495 91.6129 124.01 92.8408 124.01 94.3109C124.01 95.7983 124.495 97.0435 125.481 98.0121C126.466 98.9806 127.746 99.4822 129.355 99.4822C131.05 99.4822 132.381 98.8941 133.333 97.7526L131.897 96.3171C131.326 97.13 130.496 97.5278 129.372 97.5278C128.559 97.5278 127.867 97.3203 127.314 96.9225C126.743 96.5247 126.397 95.954 126.242 95.2103H134.059C134.111 94.8471 134.145 94.553 134.145 94.3282C134.145 92.8927 133.678 91.6647 132.762 90.6616C131.828 89.6412 130.652 89.1396 129.199 89.1396ZM126.224 93.4807C126.363 92.737 126.708 92.149 127.227 91.7166C127.746 91.2843 128.403 91.0767 129.182 91.0767C129.873 91.0767 130.479 91.2843 130.998 91.682C131.517 92.0798 131.845 92.6852 131.984 93.4807H126.224Z" fill="white"/>
<path d="M79.3369 86.6494H77.2096V89.3993H75.4109V91.4402H77.2096V96.1445C77.2096 97.4243 77.5556 98.3064 78.2647 98.7906C78.9738 99.2749 80.1325 99.4132 81.7583 99.2057V97.3032C81.2221 97.3378 80.7724 97.3378 80.4092 97.3205C80.046 97.3032 79.7693 97.1995 79.5964 97.0265C79.4061 96.8536 79.3197 96.5595 79.3197 96.1445V91.4402H81.7583V89.3993H79.3197L79.3369 86.6494C79.3197 86.6494 79.3369 86.6494 79.3369 86.6494Z" fill="white"/>
<path d="M106.819 94.518C106.819 95.3482 106.577 96.0227 106.075 96.5243C105.591 97.0258 104.847 97.268 103.862 97.268C102.876 97.268 102.149 97.0258 101.648 96.5243C101.164 96.0227 100.904 95.3655 100.904 94.518V85.4727H98.6385V94.6564C98.6385 96.1265 99.1227 97.2853 100.091 98.1673C101.06 99.0321 102.305 99.4645 103.844 99.4645C105.384 99.4645 106.629 99.0321 107.597 98.1673C108.566 97.3026 109.05 96.1265 109.05 94.6564V85.4727H106.785V94.518H106.819Z" fill="white"/>
<path d="M114.36 86.6494H112.232V89.3993H110.434V91.4402H112.232V96.1445C112.232 97.4243 112.578 98.3064 113.287 98.7906C113.996 99.2749 115.155 99.4132 116.781 99.2057V97.3032C116.245 97.3378 115.795 97.3378 115.432 97.3205C115.069 97.3032 114.792 97.1995 114.619 97.0265C114.429 96.8536 114.342 96.5595 114.342 96.1445V91.4402H116.781V89.3993H114.342V86.6494H114.36Z" fill="white"/>
<path d="M70.6029 89.1396C69.2193 89.1396 68.1989 89.6412 67.559 90.6443V89.3818H65.4316V99.1881H67.559V93.9304C67.559 92.9792 67.7838 92.2701 68.2508 91.8031C68.7004 91.3361 69.3058 91.1113 70.0495 91.1113C70.724 91.1113 71.2601 91.3015 71.6579 91.6993C72.0557 92.0971 72.246 92.6506 72.246 93.3943V99.2054H74.3733V93.1867C74.3733 91.9242 74.0274 90.9383 73.3355 90.2292C72.6264 89.5028 71.7271 89.1396 70.6029 89.1396Z" fill="white"/>
<path d="M120.655 91.0416V89.3985H118.528V99.2049H120.655V94.2585C120.655 93.2554 120.949 92.529 121.555 92.0966C122.16 91.6642 122.869 91.474 123.682 91.5258V89.2256C122.195 89.2256 121.191 89.8309 120.655 91.0416Z" fill="white"/>
<path d="M143.122 95.7986C142.672 96.7325 141.807 97.3551 140.752 97.5108C140.735 97.5108 140.718 97.5108 140.7 97.5108C140.562 97.5281 140.406 97.5454 140.251 97.5454C138.521 97.5454 137.189 96.2137 137.189 94.3112C137.189 92.4087 138.521 91.077 140.251 91.077C140.406 91.077 140.545 91.0943 140.683 91.1116C140.7 91.1116 140.718 91.1116 140.735 91.1116C141.79 91.2499 142.637 91.8726 143.104 92.7719L144.522 91.3537C143.589 90.0047 142.032 89.1572 140.251 89.1572C137.38 89.1572 135.097 91.4056 135.097 94.3285C135.097 97.2341 137.38 99.4824 140.251 99.4824C142.049 99.4824 143.606 98.6004 144.54 97.2514L143.122 95.7986Z" fill="white"/>
<path d="M81.2742 13.0405C82.9744 13.0405 84.3527 12.3513 84.3527 11.5012C84.3527 10.6511 82.9744 9.96191 81.2742 9.96191C79.5739 9.96191 78.1956 10.6511 78.1956 11.5012C78.1956 12.3513 79.5739 13.0405 81.2742 13.0405Z" fill="white"/>
<path d="M72.4709 11.5017L69.0118 9.75488L65.5355 11.5017L69.0118 13.2312L72.4709 11.5017Z" fill="white"/>
<path d="M97.0128 11.5017L93.5364 9.75488L90.0774 11.5017L93.5364 13.2312L97.0128 11.5017Z" fill="white"/>
<path d="M146.183 69.8206C146.148 69.8379 144.125 70.4951 141.565 70.7892C142.395 70.0801 142.949 69.0769 143.122 67.9355C143.243 67.0707 143.208 64.6494 142.983 60.7753C142.914 59.3916 141.859 58.2502 140.493 58.0772C139.213 57.9043 138.158 57.7313 137.449 57.5756C135.979 57.247 135.183 56.7109 135.079 56.3304C134.941 55.9153 134.958 55.8634 135.01 55.4829C135.028 55.31 135.062 55.1024 135.097 54.8257C135.131 54.5144 135.149 54.2204 135.201 53.8918C135.252 53.494 135.287 53.0789 135.322 52.6638C135.322 52.6465 135.322 52.6119 135.322 52.5946C135.65 52.6638 135.996 52.6984 136.325 52.6984C137.241 52.6984 138.158 52.4563 138.954 51.9547C140.441 51.0381 141.306 49.4642 141.271 47.7174C141.202 44.9502 139.663 43.0131 138.296 41.3182C137.674 40.5399 137.068 39.7962 136.636 39.0179C135.235 36.4928 134.907 33.7602 135.667 30.8719C135.979 29.6785 136.757 28.4852 137.587 27.2399C137.76 26.9805 137.933 26.7038 138.106 26.4443C138.227 26.4616 138.348 26.4789 138.469 26.4789C138.988 26.4789 139.421 26.306 139.732 26.1157C141.721 24.8878 142.413 20.8753 142.378 18.6269C142.326 13.9226 140.476 10.5328 136.757 8.26709L135.477 7.48881L135.962 8.90702C137.086 12.1758 137.691 14.1993 136.982 17.4854C136.757 18.5404 136.307 19.5436 135.875 20.5121C135.201 22.0341 134.543 23.5041 135.114 24.6975C134.976 24.9051 134.837 25.1299 134.699 25.3374C133.748 26.7729 132.762 28.2603 132.312 30.0244C131.344 33.7602 131.793 37.4614 133.609 40.7301C134.18 41.7679 134.906 42.6672 135.598 43.532C136.757 44.9848 137.777 46.23 137.812 47.8385C137.829 48.513 137.397 48.8762 137.155 49.0318C136.671 49.3258 136.1 49.3431 135.598 49.0837C135.201 48.8762 134.82 48.4611 134.578 47.9768C134.197 46.8526 133.713 45.6766 133.056 44.3794C132.468 43.2034 131.828 42.0446 131.205 40.9204C130.064 38.845 128.974 36.8906 128.179 34.7633C127.573 33.1203 127.504 31.2351 127.539 30.0244C128.404 30.1801 129.164 30.2147 129.303 30.2147L130.427 30.2493L130.41 29.1251C130.392 28.2776 131.067 26.8075 131.828 25.0953C133.921 20.4602 137.086 13.4729 133.021 5.46528C132.987 5.41339 132.969 5.34421 132.935 5.29232C133.108 4.73888 133.16 4.23732 133.142 3.82223C133.125 2.28296 132.364 1.0723 131.672 0.449675L131.188 0.0172952L130.583 0.224837C130.185 0.363199 129.804 0.605331 129.424 0.899349C129.164 0.657217 128.836 0.484265 128.455 0.432379C128.352 0.415084 128.248 0.415084 128.109 0.415084C126.432 0.415084 120.327 1.7987 119.531 2.21378L119.116 2.42132L118.978 2.871L118.684 3.89142C117.335 4.34109 116.107 5.0156 115.19 5.51716C115.069 5.58634 114.948 5.65552 114.827 5.70741L114.135 6.0879L114.291 6.86619C114.308 6.98725 114.913 10.0312 116.677 12.0893L116.764 12.1758C116.331 12.2104 115.951 12.245 115.605 12.245C114.55 12.245 113.72 11.9337 113.322 11.311C112.699 10.3425 113.149 9.30481 113.876 8.76865C113.478 8.5957 113.097 8.49193 112.63 8.49193C112.354 8.49193 112.042 8.52652 111.696 8.613C110.313 8.92431 109.534 10.0831 109.794 11.484C110.088 13.1616 111.264 14.1993 113.305 14.1993C113.72 14.1993 114.152 14.1648 114.637 14.0783C115.328 13.9572 116.037 13.7497 116.747 13.5248C116.747 13.5594 116.729 13.5767 116.729 13.6113C116.556 14.5798 116.401 15.41 116.937 16.0845C115.449 16.3612 114.1 16.9839 112.959 17.9178C112.025 17.2087 110.762 16.2575 110.572 16.1018C109.828 15.5484 109.137 14.943 108.393 14.3204C108.099 14.061 107.788 13.8016 107.476 13.5421C106.836 13.006 106.145 12.4525 105.401 11.9337C104.847 11.5532 104.208 11.311 103.516 11.2246V8.16332C105.712 7.19479 107.252 4.96372 107.252 2.42132C107.252 1.85058 107.182 1.31443 107.027 0.795578H102.374C102.409 1.10689 102.426 1.4182 102.426 1.74681C102.426 4.51404 101.043 6.95266 99.3303 6.95266C97.6181 6.95266 96.2345 4.51404 96.2345 1.74681C96.2345 1.4182 96.2518 1.10689 96.2864 0.795578H90.4579C90.4925 1.10689 90.5098 1.4182 90.5098 1.74681C90.5098 4.51404 89.1262 6.95266 87.4139 6.95266C85.7017 6.95266 84.3181 4.51404 84.3181 1.74681C84.3181 1.4182 84.3354 1.10689 84.37 0.795578H78.3513C78.3859 1.10689 78.4031 1.4182 78.4031 1.74681C78.4031 4.51404 77.0195 6.95266 75.3073 6.95266C73.5951 6.95266 72.2115 4.51404 72.2115 1.74681C72.2115 1.4182 72.2288 1.10689 72.2634 0.795578H66.5732C66.6078 1.10689 66.6251 1.4182 66.6251 1.74681C66.6251 4.51404 65.2415 6.95266 63.5293 6.95266C61.8171 6.95266 60.4335 4.51404 60.4335 1.74681C60.4335 1.4182 60.4508 1.10689 60.4853 0.795578H55.7638C55.6254 1.29714 55.5562 1.81599 55.5562 2.35214C55.5562 4.80806 56.9917 7.00455 59.0498 8.04226V11.2246C58.358 11.311 57.6835 11.5532 57.1128 11.951C56.3691 12.4525 55.6773 13.0233 55.0374 13.5594C54.726 13.8188 54.432 14.0783 54.1207 14.3377C53.377 14.9603 52.6852 15.5657 51.9415 16.1191C51.7513 16.2575 50.4887 17.2087 49.5548 17.9351C48.4133 17.0012 47.0816 16.3785 45.5769 16.1018C46.113 15.41 45.9574 14.5798 45.7844 13.6286C45.7844 13.6113 45.7671 13.5767 45.7671 13.5421C46.4762 13.7843 47.1853 13.9745 47.8772 14.0956C48.3614 14.182 48.7938 14.2166 49.2089 14.2166C51.2497 14.2166 52.4258 13.1789 52.7198 11.5013C52.9792 10.1004 52.201 8.94161 50.8173 8.63029C50.4714 8.56111 50.1601 8.50923 49.8834 8.50923C49.4164 8.50923 49.0359 8.613 48.6381 8.78595C49.3645 9.3221 49.8142 10.3598 49.1916 11.3283C48.7938 11.9683 47.9463 12.2623 46.9086 12.2623C46.5454 12.2623 46.1649 12.2277 45.7844 12.1585L45.8709 12.072C47.635 10.0139 48.2403 6.98725 48.2576 6.84889L48.4133 6.07061L47.7215 5.69011C47.6004 5.62093 47.4794 5.56905 47.3583 5.49987C46.4244 4.99831 45.2137 4.32379 43.8647 3.87412L43.5707 2.8537L43.4323 2.40403L43.0172 2.19649C42.2216 1.7814 36.1164 0.397789 34.4388 0.397789C34.3177 0.397789 34.1967 0.397789 34.0929 0.415084C33.7124 0.46697 33.3838 0.639922 33.1244 0.882054C32.7439 0.570741 32.3461 0.345904 31.9656 0.207542L31.3603 0L30.8587 0.397789C30.1669 1.02042 29.4059 2.23108 29.3886 3.77035C29.3886 4.18543 29.4405 4.68699 29.5962 5.24044C29.5616 5.30962 29.527 5.36151 29.5097 5.41339C25.4453 13.4211 28.6103 20.4083 30.703 25.0434C31.464 26.7383 32.1385 28.2084 32.1212 29.0732L32.104 30.1974L33.2281 30.1628C33.3492 30.1628 34.1102 30.1282 34.9922 29.9725C35.0268 31.1832 34.975 33.0857 34.3523 34.7114C33.5567 36.8387 32.4672 38.7931 31.3257 40.8685C30.703 41.9927 30.0631 43.1515 29.4751 44.3275C28.8352 45.6247 28.3336 46.8008 27.9531 47.9249C27.711 48.4092 27.3478 48.8243 26.9327 49.0318C26.4311 49.2913 25.8604 49.274 25.3761 48.9799C25.1167 48.8243 24.7016 48.4611 24.7189 47.7866C24.7535 46.1954 25.7566 44.9329 26.9327 43.4801C27.6245 42.6153 28.3336 41.7333 28.9216 40.6783C30.7376 37.4095 31.1873 33.7083 30.2188 29.9725C29.7691 28.2084 28.7833 26.7211 27.832 25.2856C27.6937 25.078 27.5553 24.8532 27.417 24.6456C27.9877 23.4523 27.3478 21.9822 26.656 20.4602C26.2236 19.4917 25.7739 18.4885 25.5491 17.4335C24.84 14.1302 25.4453 12.1239 26.5695 8.85513L27.0538 7.43693L25.7739 8.21521C22.0555 10.4809 20.2049 13.8707 20.153 18.575C20.1184 20.8234 20.8275 24.8532 22.7991 26.0638C23.1105 26.2541 23.5255 26.427 24.0617 26.427C24.1828 26.427 24.2865 26.4097 24.4249 26.3924C24.5978 26.6519 24.7708 26.9286 24.9437 27.188C25.7739 28.4333 26.5522 29.6266 26.8635 30.82C27.6072 33.7083 27.2786 36.4582 25.895 38.966C25.4626 39.7443 24.8746 40.488 24.2346 41.2663C22.8683 42.9612 21.3291 44.881 21.2599 47.6655C21.2253 49.395 22.09 50.9862 23.5774 51.9028C24.373 52.4044 25.2896 52.6465 26.2063 52.6465C26.5522 52.6465 26.8808 52.6119 27.2094 52.5428C27.2094 52.56 27.2094 52.5946 27.2094 52.6119C27.244 53.027 27.2786 53.4421 27.3305 53.8399C27.3651 54.1685 27.3997 54.4625 27.4343 54.7738C27.4515 55.0506 27.4861 55.2581 27.5207 55.4311C27.5726 55.7943 27.5899 55.8634 27.4515 56.2785C27.3305 56.659 26.5522 57.1952 25.0821 57.5238C24.373 57.6794 23.318 57.8524 22.0382 58.0253C20.6718 58.2156 19.6168 59.3571 19.5476 60.7234C19.3401 64.5975 19.2882 67.0188 19.4093 67.8836C19.5822 69.0251 20.1357 70.0282 20.9659 70.7373C18.4062 70.4433 16.3653 69.7687 16.348 69.7687L14.2899 69.0769L14.9817 71.1351C15.7946 73.5564 17.3339 75.5972 19.4612 77.0327C21.4328 78.3645 23.8023 79.0909 26.1544 79.0909C29.0254 79.0909 31.637 78.0186 33.5222 76.0642C33.5395 76.6003 33.6432 77.1192 33.8508 77.6553L34.802 80.0248L35.857 77.7072C35.9262 77.5689 37.5346 74.179 41.3742 73.885C43.0172 73.7639 44.8851 73.5218 46.3379 72.3111C46.3379 72.3111 46.3379 72.3111 46.3552 72.3111C46.3552 72.7089 46.3898 73.0894 46.4935 73.4699C47.0124 75.6145 48.863 76.7041 48.9322 76.7387L50.6444 77.7245L50.5406 75.7529C50.506 74.9054 50.4541 73.9369 50.6963 73.1413C51.1287 71.7058 52.6333 71.1697 53.4808 70.9621C53.6883 70.9102 53.8959 70.8583 54.0861 70.8238C55.487 70.5124 56.6285 70.253 57.8046 69.5612C57.303 70.547 57.0955 71.5502 57.1993 72.5706C57.4414 75.113 59.5168 76.7041 59.6033 76.7733L61.9727 78.5547L61.3155 75.6664C61.0734 74.5595 60.8831 72.0344 61.9035 71.3772C63.1661 70.547 64.1173 70.4433 65.2242 70.3222C66.1409 70.2184 67.1267 70.0974 68.2855 69.5958C67.3861 71.5847 67.7666 73.2105 67.8012 73.297L68.3546 75.4935L69.721 73.6775C69.7383 73.6429 72.2979 70.3395 75.9299 70.3395C78.5588 70.3395 80.6861 71.6366 80.7034 71.6539L81.2741 71.9998L81.8449 71.6539C81.8622 71.6366 83.9895 70.3395 86.6184 70.3395C90.2503 70.3395 92.81 73.6602 92.8273 73.6775L94.1937 75.4935L94.7471 73.297C94.7644 73.2105 95.1622 71.5847 94.2628 69.5958C95.4216 70.0974 96.4074 70.2184 97.3241 70.3222C98.431 70.4433 99.3995 70.5643 100.645 71.3772C101.665 72.0517 101.492 74.5595 101.233 75.6664L100.576 78.5547L102.945 76.7733C103.031 76.7041 105.107 75.113 105.349 72.5706C105.453 71.5502 105.245 70.547 104.744 69.5612C105.92 70.2357 107.061 70.4951 108.462 70.8238C108.652 70.8756 108.86 70.9102 109.068 70.9621C109.915 71.1524 111.42 71.7058 111.852 73.1413C112.094 73.9369 112.042 74.9054 112.008 75.7529L111.904 77.7245L113.616 76.7387C113.703 76.6868 115.553 75.6145 116.055 73.4699C116.141 73.0894 116.193 72.6916 116.193 72.3111C116.193 72.3111 116.193 72.3111 116.21 72.3111C117.663 73.5218 119.531 73.7466 121.174 73.885C125.014 74.179 126.622 77.5689 126.691 77.7072L127.746 80.0248L128.698 77.6553C128.905 77.1192 129.026 76.5831 129.026 76.0642C130.911 78.0186 133.523 79.0909 136.394 79.0909C138.746 79.0909 141.115 78.3645 143.087 77.0327C145.214 75.5972 146.771 73.5564 147.567 71.1351L148.258 69.0769L146.183 69.8206ZM113.288 13.1097C111.835 13.1097 111.074 12.5217 110.849 11.2765C110.693 10.4463 111.108 9.84096 111.921 9.65071C111.956 9.65071 111.99 9.63341 112.025 9.63341C111.835 10.3425 111.921 11.1208 112.388 11.8818C112.734 12.4179 113.27 12.833 113.945 13.0752C113.72 13.0925 113.495 13.1097 113.288 13.1097ZM50.1255 11.8818C50.6098 11.1381 50.679 10.3425 50.4887 9.63341C50.5233 9.63341 50.5579 9.65071 50.5925 9.65071C51.4054 9.82366 51.8205 10.4463 51.6648 11.2765C51.44 12.5217 50.6617 13.1097 49.2262 13.1097C49.0186 13.1097 48.7938 13.0925 48.569 13.0752C49.2435 12.833 49.7796 12.4352 50.1255 11.8818ZM113.011 19.3014C113.27 19.042 113.547 18.7999 113.841 18.575C115.121 17.5892 116.747 16.9839 118.787 16.9839C119.081 16.9839 119.375 17.0012 119.687 17.0185L122.454 15.7559C121.468 15.7732 120.673 15.8078 120.033 15.8078C117.265 15.8078 117.49 15.4273 117.853 13.4902C117.853 13.4902 120.188 14.1302 121.97 14.1302C122.143 14.1302 122.316 14.1302 122.471 14.1129C123.336 14.0437 123.717 13.6632 123.855 13.1962C124.028 12.5736 124.08 11.6051 123.595 10.3944C123.284 9.59882 122.523 8.90702 121.434 8.90702C120.603 8.90702 119.6 9.3048 118.459 10.3425L117.49 11.311C116.989 10.723 116.591 10.0485 116.28 9.39128C116.072 8.49193 117.041 7.92119 117.041 7.92119C116.055 8.04226 115.57 7.02184 115.415 6.55487C116.47 5.98413 117.975 5.11937 119.566 4.68699L120.033 3.09584C120.638 2.78452 126.553 1.4182 128.109 1.4182C128.196 1.4182 128.248 1.4182 128.317 1.4355C128.438 1.45279 128.559 1.50468 128.646 1.57386C128.317 1.93706 128.023 2.35214 127.764 2.80182L128.819 3.14772C129.407 2.19649 130.22 1.40091 130.946 1.15878C131.897 1.98895 133.039 4.46216 130.531 7.05643V8.56111L130.963 8.14603C131.569 7.57529 132.001 7.02184 132.33 6.48569C137.12 16.8628 129.251 25.372 129.303 29.0386C129.303 29.0386 127.66 28.9867 126.536 28.537C126.536 28.537 126.034 32.1171 127.141 35.0573C128.421 38.4818 130.444 41.5257 132.07 44.7772C132.624 45.8841 133.108 47.0083 133.506 48.1671C133.523 48.2017 133.523 48.2363 133.54 48.2708C133.869 48.9799 134.422 49.6026 135.045 49.9485C135.062 49.9658 135.097 49.9658 135.114 49.9831C135.927 50.3981 136.878 50.3463 137.674 49.862C138.452 49.395 138.867 48.5994 138.85 47.7174C138.798 45.7457 137.639 44.2929 136.394 42.7537C135.737 41.9235 135.045 41.076 134.509 40.1075C132.831 37.0809 132.416 33.6564 133.315 30.1974C133.73 28.6062 134.664 27.2053 135.564 25.839C135.771 25.5277 135.962 25.2337 136.169 24.9224C136.256 24.8013 136.325 24.6802 136.394 24.5592C135.962 24.1614 135.875 23.6771 136.013 23.0372C136.134 22.4491 136.446 21.74 136.826 20.858C137.259 19.8895 137.76 18.7826 138.002 17.6238C138.4 15.7559 138.4 14.2512 138.158 12.7638C138.521 13.3519 138.833 13.9745 139.092 14.6144C139.386 15.3408 139.593 16.1018 139.697 16.8974C139.801 17.693 139.801 18.5058 139.68 19.3187C139.957 18.5577 140.13 17.7276 140.182 16.8974C140.233 16.0499 140.182 15.2025 140.026 14.3723C139.888 13.6113 139.68 12.8503 139.403 12.1239C140.597 13.8707 141.202 15.998 141.237 18.5577C141.271 21.7746 140.164 24.4727 139.109 25.1126C138.971 25.1991 138.85 25.251 138.729 25.2856C138.279 25.3893 137.587 25.078 137.587 25.078C137.276 25.5969 136.965 26.0638 136.636 26.5654C135.754 27.8971 134.924 29.1597 134.561 30.526C133.748 33.691 134.094 36.7004 135.633 39.4676C136.117 40.3324 136.757 41.1452 137.397 41.9235C138.711 43.5666 140.078 45.2615 140.13 47.6655C140.164 49.0145 139.49 50.2425 138.331 50.9516C137.708 51.3321 136.982 51.5396 136.256 51.5396C135.927 51.5396 135.581 51.4877 135.252 51.4186C134.958 51.3321 134.664 51.2283 134.388 51.0727C134.301 51.0208 134.215 50.9689 134.128 50.917C134.18 51.3321 134.197 51.7645 134.18 52.1796C134.18 52.2833 134.163 52.4044 134.163 52.5082C134.111 53.2173 134.007 53.9437 133.955 54.6528C133.869 55.5694 133.713 55.6732 133.99 56.5725C134.318 57.6102 135.719 58.2329 137.172 58.5615C138.089 58.769 139.334 58.9593 140.303 59.0803C141.167 59.2014 141.807 59.9105 141.859 60.7753C141.98 62.9026 142.153 66.6729 141.998 67.7279C141.825 68.8867 141.15 69.8725 140.078 70.3914C140.147 70.547 140.216 70.7027 140.285 70.8411C140.441 71.2388 140.562 71.5847 140.614 71.9134C140.96 73.7985 139.611 74.3866 138.4 74.6806L138.244 72.9857C138.227 72.9165 137.899 72.7608 137.829 72.7262C137.726 72.6571 137.605 72.5879 137.518 72.5014C137.311 72.3111 137.241 72.0863 137.207 71.8442C137.189 71.7058 137.189 71.5675 137.189 71.4118C137.172 71.1524 137.138 70.8929 136.999 70.7027C136.93 70.6162 136.861 70.547 136.74 70.4951C136.636 70.4433 136.532 70.426 136.428 70.426C136.307 70.426 136.204 70.4606 136.1 70.5124C135.875 70.6335 135.685 70.8583 135.65 71.1351C135.633 71.2388 135.65 71.3772 135.667 71.5156C135.754 72.0171 135.996 72.7089 135.771 73.3143C135.633 73.7121 135.097 74.2482 134.509 74.2482C134.318 74.2482 134.146 74.1963 133.955 74.0752L132.745 75.1476C131.136 73.3834 131.638 71.6885 133.385 70.9621C133.523 70.9102 133.644 70.8411 133.748 70.7719C134.076 70.547 134.267 70.253 134.076 69.9417C133.938 69.6996 133.782 69.6131 133.575 69.6131C133.263 69.6131 132.866 69.8033 132.26 70.0455C132.226 70.0628 132.191 70.0801 132.139 70.0974C131.811 70.2184 131.499 70.3049 131.205 70.3049C130.583 70.3049 130.081 69.9417 129.822 68.9386C129.804 68.8521 129.787 68.7483 129.77 68.6619L129.355 68.8348L128.628 69.1288C128.646 69.0078 128.663 68.8694 128.68 68.7483C128.749 68.3333 128.888 67.9874 129.043 67.6933C129.58 66.7075 130.531 66.3097 131.499 66.3097C132.745 66.3097 134.024 66.9323 134.561 67.7279L136.844 68.0392C137.311 67.4512 137.328 65.7217 137.259 64.3727C137.207 63.3868 136.48 62.5913 135.512 62.4356C133.852 62.1935 131.361 61.8303 130.479 61.7611C128.801 61.64 127.054 61.346 125.792 60.118C124.062 58.4058 123.682 56.6244 123.682 54.1512C123.682 53.3383 123.717 52.5255 123.786 51.6953C123.838 50.9862 123.924 50.2771 123.993 49.5853C124.045 49.1183 124.114 48.6513 124.183 48.1844C124.253 47.752 124.253 47.285 124.218 46.8353C124.201 46.6624 124.183 46.5067 124.149 46.3338C124.062 45.8322 123.924 45.348 123.734 44.8464C123.526 44.3275 123.232 43.8433 122.886 43.3763C122.333 42.6499 121.607 42.01 120.69 41.4911C120.361 41.3009 119.963 41.076 119.548 40.8166C119.133 40.5572 118.684 40.2805 118.217 39.9519C117.075 39.1909 115.813 38.2396 114.637 37.15C114.723 37.0982 114.809 37.0463 114.896 36.9944C115.328 36.735 116.522 35.8529 117.646 34.919C117.923 34.6941 118.165 34.4866 118.39 34.279L117.317 33.7083C116.072 34.7633 114.688 35.801 114.325 36.0086C114.152 36.1123 113.979 36.2161 113.806 36.3199C113.478 36.5101 113.149 36.7004 112.838 36.8733C111.022 37.911 109.725 38.6201 109.759 39.8308C112.008 42.2521 110.78 43.6876 109.534 44.12L109.119 42.7883C107.805 42.5634 107.822 41.5949 107.77 40.8512C107.736 40.4534 107.424 40.2286 107.113 40.2286C106.854 40.2286 106.594 40.4015 106.577 40.7993C106.542 41.2317 106.577 41.6814 106.456 42.3905C106.369 42.8747 105.851 43.532 105.107 43.532C104.986 43.532 104.865 43.5147 104.744 43.4801L104.467 45.0539C101.907 44.5697 102.184 42.0273 103.914 41.1625C104.899 40.661 105.211 40.2978 104.917 39.9173C104.83 39.8135 104.726 39.7616 104.605 39.7616C104.242 39.7616 103.706 40.1594 103.187 40.5399C102.962 40.7128 102.668 40.7993 102.357 40.7993C101.682 40.7993 100.956 40.3669 100.645 39.3465L99.7627 39.8827C99.607 37.9629 100.8 37.0117 102.011 37.0117C102.582 37.0117 103.17 37.2192 103.62 37.6343C103.792 37.79 103.965 37.8591 104.138 37.8591C104.692 37.8591 105.072 37.1673 104.329 36.7696C103.62 36.3891 102.945 35.213 103.602 34.4693L102.53 33.4662C103.014 33.1722 103.533 33.0338 104.017 33.0338C105.09 33.0338 106.075 33.7256 106.387 35.2995C106.456 35.6627 106.612 35.801 106.819 35.801C107.407 35.801 108.445 34.5385 109.223 33.2932C109.413 32.9992 109.586 32.6879 109.759 32.3939C109.984 31.9961 110.226 31.6156 110.486 31.2351C110.814 30.7508 111.16 30.2839 111.593 29.8688C112.319 29.1424 113.582 27.8798 115.034 27.0324C115.38 26.8421 115.743 26.6519 116.107 26.4962C116.539 25.9255 116.971 25.3374 117.352 24.7321C118.372 23.1755 119.22 21.5152 119.704 19.7684C118.908 21.4114 117.802 22.8469 116.574 24.1268C116.003 24.7321 115.415 25.2855 114.792 25.839C113.115 26.7038 111.714 28.1047 110.883 28.9175L110.762 29.0386C110.52 29.2807 110.295 29.5229 110.105 29.7823C109.828 28.0874 109.898 25.9947 110.434 24.0057C110.538 23.6252 110.659 23.2274 110.797 22.8642C111.299 21.5498 112.025 20.3045 113.011 19.3014ZM119.479 12.4352C120.136 12.2104 120.794 12.0374 121.416 12.0374C121.935 12.0374 122.419 12.1585 122.869 12.4179C122.852 12.6255 122.817 12.7984 122.8 12.8849C122.8 12.9022 122.8 12.9022 122.8 12.9022C122.8 12.9022 122.713 12.9887 122.367 13.0233C122.246 13.0406 122.108 13.0406 121.952 13.0406C121.278 13.0406 120.517 12.9368 119.842 12.8157C119.168 12.712 118.147 12.4871 118.147 12.4871C118.044 11.9337 118.13 11.3456 118.338 11.3629C118.58 11.4148 118.753 12.0029 119.479 12.4352ZM118.77 11.5705L119.185 11.1381C120.223 10.2042 120.967 9.99661 121.399 9.99661C122.177 9.99661 122.489 10.6019 122.558 10.7922C122.627 10.9651 122.679 11.1381 122.731 11.2938C122.316 11.1035 121.866 11.0343 121.399 11.0343C120.569 11.0343 119.687 11.2938 118.77 11.5705ZM125.93 64.8915C124.65 65.7563 123.457 66.1714 122.195 66.1714C121.018 66.1714 119.877 65.8254 118.666 65.445C118.338 65.3412 118.009 65.2374 117.663 65.1509C117.127 64.9953 116.556 64.9261 115.986 64.9261C114.602 64.9261 113.409 65.3758 112.63 65.7736C112.717 65.4795 112.994 64.3727 112.994 63.5252C114.014 62.9545 114.723 62.1416 115.069 61.0866C115.588 59.5127 116.003 56.7282 115.588 53.7188C116.401 53.6151 117.559 53.4421 118.718 53.2519C119.981 53.0443 121.018 52.8368 121.779 52.6465C122.143 52.56 122.437 52.4736 122.696 52.3871C122.662 52.9924 122.644 53.5978 122.644 54.2031C122.644 55.7078 122.783 56.832 123.094 57.8178C123.474 58.9939 124.114 60.0143 125.066 60.9482C126.588 62.4529 128.628 62.7815 130.427 62.9026C131.067 62.9545 132.831 63.1793 135.373 63.5598C135.823 63.629 136.186 64.0095 136.204 64.4764C136.273 65.7217 136.221 66.4654 136.152 66.8805L135.149 66.7421C134.318 65.8427 132.9 65.2547 131.517 65.2547C129.77 65.2547 128.455 66.1713 127.867 67.7279C127.556 67.7625 127.21 67.8144 126.864 67.9009C127.521 66.8978 127.573 65.9638 127.591 65.8428L127.677 63.6809L125.93 64.8915ZM108.549 65.0818C108.445 64.9953 108.341 64.8915 108.255 64.7877C108.237 64.7532 108.22 64.7359 108.203 64.7013C107.978 64.3381 108.047 63.9576 108.099 63.5598C108.151 63.162 108.151 62.7642 107.788 62.5048C107.649 62.401 107.494 62.3491 107.338 62.3491C107.234 62.3491 107.148 62.3664 107.061 62.401C106.819 62.4875 106.594 62.695 106.508 62.9717C106.456 63.1101 106.456 63.3004 106.456 63.5252C106.456 63.7154 106.473 63.923 106.473 64.1305C106.473 64.4937 106.439 64.8915 106.283 65.2374C106.266 65.272 106.248 65.3066 106.231 65.3412C106.024 65.6871 105.47 66.1195 104.899 66.1195C104.64 66.1195 104.381 66.033 104.156 65.8082L102.651 66.7248C102.651 66.7248 102.634 66.7248 102.634 66.7075C102.53 66.5518 102.461 66.3962 102.374 66.2578C102.201 65.8946 102.08 65.566 102.011 65.2374C101.734 63.7846 102.599 62.7296 104.121 62.3837C104.744 62.2454 105.245 61.9167 105.055 61.4152C104.934 61.0866 104.726 60.9655 104.415 60.9655C104.086 60.9655 103.62 61.0866 102.98 61.2249C102.772 61.2595 102.582 61.2941 102.392 61.3287C102.236 61.346 102.08 61.3633 101.942 61.3633C101.267 61.3633 100.835 61.0347 100.835 59.6857L99.5379 59.9624C100.126 57.9043 101.319 57.1087 102.565 57.1087C103.844 57.1087 105.193 57.9561 106.024 59.1149L106.542 59.2879L107.459 59.5992L109.292 60.2218C111.074 58.7171 110.261 54.7565 110.261 54.7565C110.261 54.7565 106.785 52.8022 107.943 48.4611C107.943 48.4611 108.549 44.3794 115.986 44.3794C116.781 44.3794 117.646 44.4313 118.597 44.5351C119.168 44.6043 119.687 44.6734 120.154 44.7599C120.154 44.7599 120.154 44.7772 120.171 44.7772C119.998 45.175 119.946 45.6247 120.033 46.0571C120.154 46.7316 120.569 47.3023 121.174 47.6136C121.468 47.7693 121.797 47.8558 122.143 47.8558C122.523 47.8558 122.886 47.752 123.232 47.5617C123.232 47.752 123.215 47.9249 123.198 48.0979C123.059 49.0664 122.921 50.1041 122.834 51.1937C121.33 51.9547 114.36 52.8195 114.36 52.8195C115.034 56.1056 114.602 59.2187 114.083 60.7753C113.893 61.346 113.564 61.7957 113.149 62.1589C112.821 62.4529 112.44 62.6777 112.008 62.8507C111.921 63.9922 111.835 64.8396 111.627 65.5141C111.575 65.7563 111.489 65.9638 111.385 66.1368C110.866 67.0188 109.794 67.2264 108.825 67.2955L108.981 65.4622C108.929 65.3585 108.618 65.1336 108.549 65.0818ZM111.022 39.5541C111.316 39.0871 112.302 38.5509 113.322 37.9629C113.443 37.8937 113.582 37.8246 113.72 37.7381C113.91 37.911 114.1 38.084 114.291 38.2569C114.758 38.672 115.242 39.0698 115.726 39.4503L115.743 39.4676L118.13 41.9581C118.753 42.6153 119.185 43.1169 119.479 43.532L116.003 43.2898C114.291 43.2898 112.907 43.4974 111.783 43.826C111.939 43.5839 112.06 43.3071 112.129 43.0304C112.405 41.716 111.766 40.488 111.022 39.5541ZM120.897 43.7914C120.69 43.3936 120.361 42.892 119.808 42.2175C119.946 42.304 120.102 42.3905 120.223 42.4597C121.053 42.9266 121.676 43.4974 122.143 44.12C122.506 44.6043 122.748 45.1231 122.938 45.6247C123.007 45.8149 123.059 46.0225 123.094 46.2127C122.886 46.5413 122.523 46.7489 122.143 46.7489C121.987 46.7489 121.831 46.7143 121.676 46.6278C121.105 46.3338 120.88 45.5728 121.278 44.9848C121.312 44.9329 121.347 44.881 121.399 44.8291C121.226 44.5351 121.105 44.2065 120.897 43.7914ZM104.778 12.833C105.47 13.3 106.127 13.8361 106.767 14.3723C107.805 15.2371 108.808 16.1537 109.898 16.9666C110.244 17.226 111.299 18.0216 112.129 18.6615C111.887 18.9209 111.662 19.1804 111.437 19.4571C110.832 20.2527 110.33 21.152 109.95 22.0859L107.995 20.2354C108.203 19.6992 108.272 19.0766 108.203 18.4367C108.203 18.4021 108.185 18.3675 108.185 18.3156L107.148 18.8172C107.182 19.5954 106.888 20.4083 106.179 20.7888C105.954 20.9099 105.764 20.9618 105.505 20.9618C105.505 20.9618 105.505 20.9618 105.487 20.9618L105.522 20.0105C105.176 20.0105 104.709 19.6473 104.709 19.1458C104.709 18.575 105.072 18.2637 105.522 18.1253V17.0185C104.657 17.1741 104.017 17.693 103.758 18.4021L102.616 18.4194C102.565 17.5546 102.98 16.7763 103.862 16.4823V15.3581C103.118 15.5138 102.634 15.877 102.34 16.2056C102.253 16.2921 102.184 16.3958 102.098 16.4996L101.233 16.5169C101.198 15.6867 101.613 14.943 102.392 14.6836V13.5594C101.907 13.6632 101.492 13.8534 101.129 14.1648H100.316C100.333 13.6286 100.645 13.1097 101.077 12.7811C101.458 12.5044 101.942 12.3488 102.426 12.2969C102.582 12.2796 102.737 12.2623 102.893 12.2623C103.101 12.2623 103.308 12.2796 103.498 12.3142C103.965 12.4006 104.398 12.5736 104.778 12.833ZM102.461 5.91495C103.118 4.79076 103.498 3.35526 103.516 1.86788H106.127C106.145 2.05813 106.162 2.23108 106.162 2.42132C106.162 5.27503 103.879 7.59258 101.06 7.59258H100.87C101.475 7.22938 102.011 6.67594 102.461 5.91495ZM90.5444 5.91495C91.2016 4.79076 91.5821 3.35526 91.5994 1.86788H95.1449C95.1622 3.35526 95.5427 4.79076 96.1999 5.91495C96.6496 6.67594 97.1857 7.24668 97.791 7.59258H95.4216C94.8163 6.96996 94.3147 6.12249 93.9861 5.11937H92.7927C92.4814 6.12249 91.9799 6.96996 91.3572 7.59258H88.9359C89.5585 7.22938 90.112 6.67594 90.5444 5.91495ZM78.455 5.91495C79.1122 4.79076 79.4927 3.35526 79.51 1.86788H83.2458C83.2631 3.35526 83.6436 4.79076 84.3008 5.91495C84.7505 6.67594 85.2866 7.22938 85.892 7.59258H83.315C82.7097 6.96996 82.2081 6.12249 81.8795 5.11937H80.6861C80.3748 6.12249 79.8732 6.96996 79.2506 7.59258H76.8293C77.4519 7.22938 78.0054 6.67594 78.455 5.91495ZM66.6597 5.91495C67.3169 4.79076 67.6974 3.35526 67.7147 1.86788H71.1392C71.1565 3.35526 71.537 4.79076 72.1942 5.91495C72.6438 6.67594 73.18 7.24668 73.7853 7.59258H71.364C70.7587 6.96996 70.2571 6.12249 69.9285 5.11937H68.7351C68.4238 6.12249 67.9223 6.96996 67.2996 7.59258H65.034C65.6739 7.22938 66.2273 6.67594 66.6597 5.91495ZM56.6458 2.33485C56.6458 2.17919 56.6458 2.02354 56.6631 1.85058H59.3439C59.3612 3.33797 59.7416 4.77347 60.3989 5.89766C60.8485 6.65864 61.3847 7.22938 61.99 7.57529H61.7306C58.998 7.59258 56.6458 5.18855 56.6458 2.33485ZM52.616 16.9493C53.7056 16.1364 54.7088 15.2371 55.7465 14.355C56.3864 13.8188 57.0436 13.2827 57.7354 12.8157C58.1332 12.539 58.5829 12.3661 59.0671 12.2969C59.2401 12.2623 59.4303 12.245 59.6206 12.245C59.7935 12.245 59.9665 12.2623 60.1567 12.2796C60.6237 12.3488 61.0907 12.4871 61.4539 12.7638C61.8862 13.0752 62.1976 13.594 62.2149 14.1475H61.402C61.0388 13.8534 60.6064 13.6459 60.1394 13.5421V14.6663C60.935 14.9257 61.3501 15.6694 61.2982 16.4996L60.4335 16.4823C60.3643 16.3785 60.2778 16.2921 60.1913 16.1883C59.8973 15.877 59.3957 15.5138 58.6693 15.3408V16.465C59.5341 16.759 59.9492 17.5373 59.9146 18.4021L58.7731 18.3848C58.5137 17.6584 57.8738 17.1568 57.009 17.0012V18.1081C57.4587 18.2464 57.8219 18.5577 57.8219 19.1285C57.8219 19.63 57.3722 19.9932 57.009 19.9932L57.0436 20.9445C57.0436 20.9445 57.0436 20.9445 57.0263 20.9445C56.7842 20.9445 56.5766 20.8753 56.3518 20.7715C55.6427 20.391 55.366 19.5608 55.3833 18.7999L54.3456 18.2983C54.3456 18.3329 54.3283 18.3675 54.3283 18.4194C54.2418 19.0593 54.3283 19.6819 54.5358 20.2181L52.5814 22.0859C52.2009 21.152 51.6994 20.2699 51.0941 19.4571C50.8692 19.1804 50.6444 18.9036 50.4022 18.6615C51.2151 18.0043 52.2701 17.2087 52.616 16.9493ZM20.4816 67.7798C20.3259 66.7248 20.4989 62.9717 20.62 60.8271C20.6718 59.9624 21.3291 59.2533 22.1765 59.1322C23.145 58.9939 24.3903 58.8036 25.3069 58.6134C26.7597 58.3021 28.1607 57.6621 28.4893 56.6244C28.766 55.7251 28.6103 55.6213 28.5238 54.7046C28.4547 53.9955 28.3682 53.2691 28.3163 52.56C28.3163 52.4563 28.299 52.3352 28.299 52.2314C28.2817 51.8164 28.299 51.384 28.3509 50.9689C28.2644 51.0208 28.1779 51.0727 28.0915 51.1245C27.8147 51.2802 27.5207 51.384 27.2267 51.4705C26.8981 51.5569 26.5695 51.5915 26.2236 51.5915C25.4972 51.5915 24.7881 51.4013 24.1482 51.0035C22.9894 50.2944 22.3149 49.0664 22.3495 47.7174C22.4014 45.3134 23.7677 43.6184 25.0821 41.9754C25.7047 41.1971 26.362 40.3842 26.8462 39.5195C28.3855 36.7523 28.7487 33.7429 27.9185 30.5779C27.5553 29.1943 26.7251 27.949 25.8431 26.6173C25.5145 26.1157 25.2032 25.6487 24.8919 25.1299C24.8919 25.1299 24.2001 25.4412 23.7504 25.3374C23.6293 25.3028 23.5082 25.251 23.3699 25.1645C22.3149 24.5073 21.1907 21.8265 21.2426 18.6096C21.2772 16.0499 21.8825 13.9226 23.0759 12.1758C22.8164 12.9022 22.5916 13.6632 22.4532 14.4242C22.2976 15.2543 22.2457 16.1191 22.2976 16.9493C22.3495 17.7967 22.5224 18.6096 22.7991 19.3706C22.6781 18.5577 22.6781 17.7449 22.7818 16.9493C22.8856 16.1537 23.0932 15.3927 23.3872 14.6663C23.6466 14.0264 23.9579 13.4038 24.3211 12.8157C24.079 14.3031 24.079 15.8078 24.4768 17.6757C24.7189 18.8344 25.2205 19.9413 25.6528 20.9099C26.0506 21.7919 26.3447 22.501 26.4657 23.0891C26.6041 23.729 26.5176 24.2132 26.0852 24.611C26.1544 24.7321 26.2409 24.8532 26.3101 24.9742C26.5003 25.2683 26.7079 25.5796 26.9154 25.8909C27.8147 27.2572 28.7487 28.6581 29.1638 30.2493C30.0631 33.7083 29.648 37.1327 27.9704 40.1594C27.4342 41.1279 26.7424 41.9754 26.0852 42.8056C24.8573 44.3448 23.6812 45.7976 23.6293 47.7693C23.612 48.6686 24.0444 49.4469 24.8054 49.9139C25.601 50.3982 26.5522 50.4327 27.3651 50.035C27.3824 50.0177 27.417 50.0177 27.4343 50.0004C28.0569 49.6718 28.6103 49.0491 28.9389 48.3227C28.9562 48.2881 28.9562 48.2535 28.9735 48.219C29.3713 47.0602 29.8556 45.9187 30.409 44.8291C32.0348 41.5776 34.0583 38.5337 35.3382 35.1092C36.445 32.169 35.9435 28.5889 35.9435 28.5889C34.8193 29.0386 33.1763 29.0905 33.1763 29.0905C33.2281 25.4239 25.3588 16.9147 30.1496 6.53758C30.4782 7.07373 30.9106 7.62717 31.5159 8.19791L31.9483 8.613V7.10832C29.4405 4.51404 30.5993 2.04083 31.5332 1.21066C32.2423 1.47009 33.0552 2.24837 33.6605 3.19961L34.7155 2.8537C34.4561 2.42132 34.1621 2.00624 33.8335 1.62575C33.9372 1.55657 34.041 1.50468 34.1621 1.48739C34.214 1.48739 34.2831 1.47009 34.3696 1.47009C35.9435 1.47009 41.8584 2.83641 42.4465 3.14772L42.9653 4.72158C44.5738 5.15396 46.0612 6.01872 47.1162 6.58946C46.9432 7.03914 46.459 8.05955 45.4904 7.95578C45.4904 7.95578 46.4417 8.52652 46.2514 9.42587C45.9401 10.0831 45.5423 10.7576 45.0407 11.3456L44.0722 10.3771C42.9307 9.3221 41.9276 8.94161 41.0974 8.94161C40.0078 8.94161 39.2469 9.63341 38.9355 10.429C38.4513 11.6397 38.5032 12.6082 38.6761 13.2308C38.8145 13.6978 39.195 14.0783 40.0597 14.1475C40.2154 14.1648 40.3883 14.1648 40.5613 14.1648C42.3427 14.1648 44.6775 13.5248 44.6775 13.5248C45.0407 15.4619 45.2656 15.8424 42.4984 15.8424C41.8584 15.8424 41.0629 15.8251 40.077 15.7905L42.8443 17.053C43.1556 17.0357 43.4496 17.0185 43.7436 17.0185C45.7844 17.0185 47.4102 17.6238 48.69 18.6096C48.984 18.8344 49.2608 19.0766 49.5202 19.336C50.506 20.3391 51.2151 21.5844 51.7167 22.8988C51.855 23.2793 51.9761 23.6598 52.0799 24.0403C52.616 26.0465 52.6852 28.1393 52.4085 29.8169C52.2009 29.5575 51.9934 29.3153 51.7513 29.0732L51.6302 28.9521C50.8 28.1393 49.3991 26.7383 47.7215 25.8736C47.0989 25.3201 46.5108 24.7667 45.9401 24.1614C44.7121 22.8642 43.6225 21.4287 42.8097 19.803C43.3112 21.5498 44.1587 23.2274 45.1618 24.7667C45.5596 25.372 45.9747 25.9601 46.4071 26.5308C46.7876 26.6865 47.1335 26.8594 47.4794 27.067C48.9495 27.8971 50.1947 29.177 50.9211 29.9034C51.3535 30.3184 51.6994 30.7854 52.028 31.2697C52.2874 31.6502 52.5123 32.0307 52.7544 32.4285C52.9273 32.7225 53.1176 33.0338 53.2906 33.3278C54.0688 34.5904 55.1065 35.8356 55.6946 35.8356C55.9021 35.8356 56.0578 35.68 56.127 35.334C56.4383 33.7602 57.4241 33.0684 58.4964 33.0684C58.998 33.0684 59.5168 33.224 59.9838 33.5008L58.9115 34.5039C59.5514 35.2649 58.8769 36.4236 58.1851 36.8041C57.4414 37.2019 57.8392 37.8937 58.3753 37.8937C58.5483 37.8937 58.7212 37.8246 58.8942 37.6689C59.3439 37.2538 59.9319 37.0463 60.5026 37.0463C61.7133 37.0463 62.9067 37.9802 62.751 39.9173L61.8171 39.3984C61.5058 40.4188 60.7794 40.8512 60.1048 40.8512C59.7935 40.8512 59.4995 40.7647 59.2747 40.5918C58.7558 40.2113 58.2197 39.8135 57.8565 39.8135C57.7354 39.8135 57.6143 39.8654 57.5452 39.9692C57.2684 40.3497 57.5625 40.7301 58.5483 41.2144C60.2951 42.0792 60.5718 44.6216 57.9948 45.1058L57.7181 43.532C57.597 43.5666 57.476 43.5838 57.3549 43.5838C56.6112 43.5838 56.0924 42.9266 56.0059 42.4424C55.8848 41.7333 55.9194 41.3009 55.8848 40.8512C55.8675 40.4534 55.6081 40.2805 55.3487 40.2805C55.0374 40.2805 54.726 40.5053 54.6915 40.9031C54.6396 41.6468 54.6569 42.6153 53.3424 42.8402L52.9273 44.1719C51.6821 43.7395 50.4368 42.304 52.7025 39.8827C52.7371 38.6547 51.44 37.9456 49.624 36.9252C49.3127 36.7523 48.984 36.562 48.6554 36.3718C48.4825 36.268 48.3095 36.1642 48.1366 36.0604C47.7734 35.8356 46.3725 34.8152 45.1445 33.7602L44.0722 34.3309C44.2971 34.5212 44.5392 34.7287 44.8159 34.9708C45.9228 35.8875 47.1162 36.7868 47.5658 37.0463C47.6523 37.0982 47.7388 37.15 47.8253 37.2019C46.6492 38.2915 45.3866 39.2428 44.2452 40.0037C43.7782 40.3151 43.3285 40.6091 42.9134 40.8685C42.4984 41.1279 42.1006 41.3528 41.772 41.543C40.8553 42.0619 40.1289 42.7018 39.5755 43.4282C39.2123 43.8952 38.9355 44.3967 38.728 44.8983C38.5205 45.3825 38.3821 45.8841 38.3129 46.3857C38.2783 46.5586 38.261 46.7143 38.2437 46.8872C38.2092 47.3542 38.2264 47.8039 38.2783 48.2363C38.3475 48.7032 38.3994 49.1702 38.4686 49.6372C38.555 50.3463 38.6242 51.0381 38.6761 51.7472C38.7453 52.5773 38.7799 53.3902 38.7799 54.2031C38.7799 56.6936 38.3994 58.475 36.6699 60.1699C35.4246 61.3979 33.6778 61.6919 31.9829 61.813C31.1008 61.8649 28.6276 62.2281 26.95 62.4875C25.9815 62.6258 25.2551 63.4387 25.2032 64.4245C25.134 65.7563 25.1513 67.5031 25.6183 68.0911L27.9012 67.7798C28.4374 66.9842 29.7172 66.3616 30.9625 66.3616C31.931 66.3616 32.8822 66.7421 33.4184 67.7452C33.574 68.0392 33.7124 68.3851 33.7816 68.8002C33.7989 68.9213 33.8162 69.0424 33.8335 69.1807L33.1071 68.8867L32.692 68.7137C32.6747 68.8175 32.6574 68.904 32.6401 68.9905C32.398 69.9936 31.8791 70.3568 31.2565 70.3568C30.9625 70.3568 30.6512 70.2703 30.3225 70.1492C30.288 70.132 30.2534 70.1147 30.2015 70.0974C29.6134 69.8552 29.1984 69.665 28.887 69.665C28.6795 69.665 28.5238 69.7515 28.3855 69.9936C28.1952 70.3222 28.3855 70.5989 28.7141 70.8238C28.8179 70.8929 28.9562 70.9621 29.0773 71.014C30.8241 71.7404 31.3257 73.4353 29.7172 75.1994L28.5066 74.1271C28.3163 74.2482 28.1261 74.3001 27.9531 74.3001C27.3651 74.3001 26.8289 73.7639 26.6906 73.3661C26.4657 72.7608 26.7079 72.069 26.7943 71.5675C26.8116 71.4291 26.8289 71.2907 26.8116 71.187C26.777 70.9102 26.5868 70.6854 26.3619 70.5643C26.2582 70.5124 26.1544 70.4779 26.0333 70.4779C25.9296 70.4779 25.8258 70.4951 25.722 70.547C25.6183 70.5989 25.5318 70.6681 25.4626 70.7546C25.3069 70.9448 25.2724 71.2043 25.2724 71.4637C25.2724 71.602 25.2724 71.7577 25.2551 71.8961C25.2205 72.1382 25.1513 72.363 24.9437 72.5533C24.84 72.6397 24.7362 72.7089 24.6324 72.7781C24.5633 72.8127 24.2346 72.9684 24.2174 73.0375L24.0617 74.7325C22.851 74.4385 21.5193 73.8504 21.8479 71.9652C21.8998 71.6539 22.0036 71.2907 22.1765 70.8929C22.2284 70.7546 22.2976 70.5989 22.3841 70.4433C21.3463 69.9244 20.6545 68.9386 20.4816 67.7798ZM41.1147 12.0374C41.7374 12.0374 42.3773 12.1931 43.0518 12.4352C43.7782 11.9856 43.9339 11.4148 44.2106 11.3802C44.4181 11.3629 44.5046 11.951 44.4008 12.5044C44.4008 12.5044 43.3804 12.7293 42.7059 12.833C42.0314 12.9541 41.2704 13.0579 40.5959 13.0579C40.4402 13.0579 40.3019 13.0579 40.1808 13.0406C39.8522 13.006 39.7484 12.9368 39.7484 12.9195C39.7484 12.9195 39.7484 12.9195 39.7484 12.9022C39.7138 12.7984 39.6792 12.6428 39.6792 12.4352C40.1116 12.1585 40.5959 12.0374 41.1147 12.0374ZM39.783 11.2938C39.8176 11.1381 39.8868 10.9651 39.956 10.7922C40.0251 10.6019 40.3365 9.99661 41.1147 9.99661C41.5644 9.99661 42.3081 10.1869 43.3285 11.1381L43.7436 11.5705C42.827 11.2765 41.9276 11.0343 41.0974 11.0343C40.6478 11.0343 40.2154 11.1208 39.783 11.2938ZM53.2214 60.2218L55.0719 59.5992L55.9886 59.2879L56.5074 59.1149C57.3376 57.9388 58.6866 57.1087 59.9665 57.1087C61.2117 57.1087 62.4051 57.9043 62.9931 59.9624L61.696 59.6857C61.696 61.0174 61.2636 61.3633 60.5891 61.3633C60.4507 61.3633 60.2951 61.346 60.1394 61.3287C59.9492 61.2941 59.7589 61.2595 59.5514 61.2249C58.9115 61.1039 58.4445 60.9655 58.1159 60.9655C57.8046 60.9655 57.597 61.0866 57.476 61.4152C57.303 61.9167 57.7873 62.2281 58.4099 62.3837C59.9319 62.7296 60.7966 63.8019 60.5199 65.2374C60.4507 65.566 60.347 65.8946 60.1567 66.2578C60.0876 66.4135 60.0011 66.5518 59.8973 66.7075C59.8973 66.7075 59.88 66.7075 59.88 66.7248L58.3753 65.8082C58.1505 66.033 57.8911 66.1195 57.6316 66.1195C57.0609 66.1195 56.5074 65.7044 56.2999 65.3412C56.2826 65.3066 56.2653 65.272 56.248 65.2374C56.0751 64.8915 56.0578 64.4937 56.0578 64.1305C56.0578 63.923 56.0751 63.7154 56.0751 63.5252C56.0751 63.3004 56.0751 63.1101 56.0232 62.9717C55.9367 62.695 55.7119 62.5048 55.4697 62.401C55.3833 62.3664 55.2795 62.3491 55.193 62.3491C55.0374 62.3491 54.8817 62.401 54.7433 62.5048C54.3801 62.7642 54.3801 63.162 54.432 63.5598C54.4839 63.9749 54.5531 64.3554 54.3283 64.7013C54.311 64.7359 54.2937 64.7532 54.2764 64.7877C54.1899 64.8915 54.0861 64.9953 53.9824 65.0818C53.9132 65.1336 53.6019 65.3585 53.6019 65.445L53.7575 67.2782C52.789 67.2091 51.7167 67.0015 51.1978 66.1195C51.0941 65.9465 51.0076 65.7217 50.9557 65.4968C50.7654 64.8223 50.679 63.9922 50.5752 62.8334C50.1428 62.6604 49.7623 62.4356 49.4337 62.1416C49.0186 61.7784 48.69 61.3287 48.4998 60.758C47.9809 59.2014 47.5313 56.0883 48.2231 52.8022C48.2231 52.8022 41.2531 51.9374 39.7484 51.1764C39.6446 50.0868 39.5236 49.0318 39.3852 48.0806C39.3679 47.9076 39.3506 47.7347 39.3506 47.5444C39.6792 47.7347 40.0597 47.8385 40.4402 47.8385C40.7861 47.8385 41.0974 47.752 41.4088 47.5963C42.0141 47.285 42.4292 46.7143 42.5502 46.0398C42.6367 45.6074 42.5848 45.1577 42.4119 44.7599C42.4119 44.7599 42.4119 44.7426 42.4292 44.7426C42.8961 44.6561 43.415 44.587 43.9857 44.5178C44.937 44.414 45.8017 44.3621 46.5973 44.3621C54.0342 44.3621 54.6396 48.4438 54.6396 48.4438C55.7983 52.7849 52.322 54.7392 52.322 54.7392C52.322 54.7392 51.4573 58.7171 53.2214 60.2218ZM34.9058 65.8428C34.9058 65.9638 34.9749 66.8978 35.6322 67.9009C35.269 67.8144 34.9404 67.7625 34.629 67.7279C34.041 66.1713 32.7266 65.2547 30.9798 65.2547C29.5962 65.2547 28.1779 65.8427 27.3478 66.7421L26.3447 66.8805C26.2755 66.4481 26.2236 65.7044 26.2928 64.4764C26.3101 64.0095 26.6733 63.629 27.1229 63.5598C29.6653 63.1793 31.4294 62.9372 32.0694 62.9026C33.8681 62.7815 35.9089 62.4529 37.4309 60.9482C38.3821 60.0143 39.0393 58.9766 39.4025 57.8178C39.7138 56.832 39.8522 55.7251 39.8522 54.2031C39.8522 53.5978 39.8349 52.9924 39.8003 52.3871C40.0597 52.4736 40.371 52.56 40.717 52.6465C41.4779 52.8368 42.5157 53.0443 43.7782 53.2519C44.937 53.4421 46.0957 53.6151 46.9086 53.7188C46.4935 56.7455 46.8913 59.5127 47.4275 61.0866C47.7734 62.1243 48.4825 62.9545 49.5029 63.5252C49.5029 64.6321 49.8488 65.739 49.8488 65.7736C49.0705 65.3758 47.8772 64.9261 46.4935 64.9261C45.9228 64.9261 45.3521 65.0126 44.8159 65.1509C44.47 65.2547 44.1414 65.3585 43.8128 65.445C42.6021 65.8082 41.4779 66.1714 40.2846 66.1714C39.022 66.1714 37.8287 65.7736 36.5488 64.8915L34.7674 63.6809L34.9058 65.8428ZM41.2704 45.0021C41.6509 45.5901 41.4433 46.3511 40.8726 46.6451C40.717 46.7316 40.5613 46.7662 40.4056 46.7662C40.0251 46.7662 39.6619 46.5586 39.4544 46.23C39.489 46.0398 39.5582 45.8322 39.6101 45.642C39.783 45.1231 40.0424 44.6216 40.4056 44.1373C40.8726 43.5147 41.4952 42.9439 42.3254 42.477C42.4465 42.4078 42.5848 42.3213 42.7405 42.2348C42.187 42.9093 41.8584 43.3936 41.6509 43.8087C41.4261 44.2238 41.3223 44.5524 41.1666 44.8637C41.1839 44.8983 41.2358 44.9502 41.2704 45.0021ZM48.2404 38.2742C48.4306 38.1013 48.6208 37.9283 48.8111 37.7554C48.9495 37.8246 49.0705 37.911 49.2089 37.9802C50.2293 38.5509 51.1978 39.1044 51.5091 39.5714C50.7654 40.488 50.1082 41.7333 50.4368 43.0304C50.506 43.3071 50.6271 43.5839 50.7827 43.826C49.6586 43.4974 48.2749 43.2898 46.5627 43.2898L43.0864 43.532C43.3804 43.1169 43.7955 42.6153 44.4354 41.9581L46.8221 39.4676L46.8394 39.4503C47.2891 39.0871 47.7734 38.6893 48.2404 38.2742ZM32.8131 75.2686C31.0317 77.1711 28.6276 78.0531 26.1544 78.0531C21.9171 78.0531 17.5414 75.4416 16.0021 70.8411C16.0021 70.8411 18.0949 71.5502 20.7929 71.8615C20.6718 72.6052 20.741 73.2624 21.0177 73.8504C21.6058 75.0957 22.9029 75.5453 23.8196 75.7875L25.0475 76.0988L25.1686 74.8362L25.2896 73.6602C25.3934 73.591 25.5145 73.5045 25.6183 73.418C25.6356 73.5218 25.6701 73.6256 25.7047 73.7293C25.9988 74.5422 26.9327 75.3724 27.9877 75.3724C28.0915 75.3724 28.1952 75.3724 28.299 75.3551L29.0427 76.0123L29.8383 76.7214L30.5647 75.9258C31.5851 74.8189 32.0002 73.5737 31.7407 72.4322C31.6543 72.069 31.5159 71.7231 31.3084 71.4118C31.9483 71.4118 32.519 71.1697 32.9514 70.72C33.1071 70.547 33.2627 70.3568 33.3665 70.132L33.4357 70.1492L35.1133 70.8411L34.9231 69.0424C34.9231 68.9732 34.9058 68.9213 34.9058 68.8521C35.6495 68.9732 36.5488 69.2499 37.6903 69.6823C37.846 69.7688 38.0189 69.8379 38.1746 69.8898C38.261 69.9244 38.3302 69.959 38.4167 69.9763C38.0535 70.1838 37.6903 70.3914 37.3617 70.5989C35.7186 71.6539 34.5945 72.7954 34.0064 73.9888C33.6432 74.4039 33.2454 74.8189 32.8131 75.2686ZM45.6288 71.5156C44.4354 72.5187 42.7751 72.7262 41.2704 72.83C36.7045 73.1759 34.8366 77.2922 34.8366 77.2922C34.4561 76.3409 34.5253 75.4416 34.8885 74.6287C35.4419 73.3834 36.6872 72.3111 38.0016 71.481C40.1981 70.0974 42.6194 69.3191 42.6194 69.3191C42.187 69.3537 41.7892 69.371 41.4088 69.371C40.4575 69.371 39.6792 69.2499 39.0393 69.0596C38.6761 68.9559 38.3475 68.8175 38.0708 68.6792C36.0472 67.6414 35.9781 65.7909 35.9781 65.7909C37.5865 66.8805 39.0047 67.261 40.3192 67.261C42.0141 67.261 43.5534 66.6556 45.1272 66.2059C45.5942 66.0676 46.0612 66.0157 46.5108 66.0157C47.808 66.0157 48.9322 66.5 49.5721 66.8459C48.7592 67.3474 48.0674 67.9874 47.5312 68.8002C47.3237 69.1288 47.1335 69.4574 46.9778 69.7687C46.4762 70.4779 46.1476 71.1005 45.6288 71.5156ZM53.2214 69.9417C51.6302 70.3049 50.1428 71.2215 49.6413 72.8646C49.3472 73.8158 49.3991 74.8535 49.451 75.8394C49.451 75.8394 46.1995 73.9888 47.929 70.3395C48.0674 70.0455 48.2576 69.7169 48.4652 69.3883C48.8803 68.7483 49.3818 68.2987 49.8488 67.9528C50.0218 67.849 50.1947 67.7625 50.385 67.6587L50.8692 67.4166C51.6994 68.1257 52.8236 68.2987 53.6537 68.3505L54.9163 68.437L54.8125 67.1745L54.7088 65.86C54.8471 65.739 54.9855 65.6006 55.1238 65.4277C55.1238 65.4104 55.1411 65.4104 55.1411 65.3931C55.193 65.5487 55.2622 65.7044 55.3487 65.8428C55.7292 66.5 56.6285 67.1572 57.6143 67.1572C57.8738 67.1572 58.1159 67.1053 58.358 67.0188L58.9288 67.3647C58.8942 67.3993 58.8423 67.4339 58.8077 67.4685C56.9571 69.2153 55.5908 69.4056 53.2214 69.9417ZM102.288 75.9604C102.288 75.9604 103.222 71.8269 101.233 70.5124C98.0505 68.437 96.3555 70.2184 92.7927 67.5031C92.7581 67.4512 92.7063 67.4166 92.6717 67.3647C90.994 65.6698 89.1434 64.5975 87.4658 64.0267C86.307 64.217 85.0272 64.3554 83.609 64.4245C83.8857 64.4418 84.1624 64.4591 84.4565 64.4937C84.958 64.5456 85.4942 64.6321 86.0476 64.7532C86.8951 64.9434 87.7944 65.2374 88.6938 65.6698C89.7834 66.2059 90.873 67.0707 91.8934 68.1084C91.9626 68.1776 92.0145 68.2295 92.0663 68.2987C94.2801 70.7027 93.6921 73.0548 93.6921 73.0548C93.6921 73.0548 90.8557 69.2845 86.6184 69.2845C84.5948 69.2845 82.848 69.959 81.9487 70.4087L81.2914 70.7546L80.6342 70.4087C79.7349 69.9763 77.9881 69.2845 75.9645 69.2845C71.7272 69.2845 68.8908 73.0548 68.8908 73.0548C68.8908 73.0548 68.2855 70.7027 70.5165 68.2987C70.5684 68.2295 70.6376 68.1776 70.6895 68.1084C71.7099 67.0707 72.7995 66.1887 73.8891 65.6698C74.7885 65.2374 75.6878 64.9434 76.5353 64.7532C77.0887 64.6321 77.6249 64.5456 78.1264 64.4937C78.4204 64.4591 78.7145 64.4418 78.9912 64.4245C77.573 64.3554 76.2931 64.217 75.1171 64.0267C73.4394 64.5975 71.5888 65.6525 69.9112 67.3647C69.8593 67.4166 69.8247 67.4512 69.7901 67.5031C66.2273 70.2184 64.5324 68.437 61.3501 70.5124C59.3612 71.8096 60.2951 75.9604 60.2951 75.9604C60.2951 75.9604 56.0924 72.7781 59.8973 68.5754C60.6929 67.6933 61.6614 66.9669 62.3705 66.4827C62.9586 66.0849 63.3736 65.86 63.3736 65.86C63.3736 65.86 63.0277 65.8255 62.5781 65.739C62.3359 65.7044 62.0419 65.6352 61.7306 65.566C61.6787 65.5487 61.6095 65.5314 61.5403 65.5141C61.696 64.7704 61.6441 64.044 61.3847 63.4041C61.2809 63.1447 61.1253 62.8853 60.9523 62.6604C62.5953 63.1101 64.6189 63.456 66.9191 63.456C67.8012 63.456 68.7178 63.2658 69.6864 63.162C70.015 63.1274 70.3782 63.1101 70.7414 63.1101C70.8624 63.1101 70.9835 63.1101 71.1046 63.1274C70.2052 62.8507 69.4097 62.5394 68.6833 62.2281C68.0952 62.3145 67.5072 62.401 66.9191 62.401C65.1031 62.401 63.4774 62.1762 62.0765 61.8476C62.3359 61.5881 62.4916 61.2941 62.5953 60.9655L62.751 61.0001L64.5151 61.3806L64.0136 59.6338C63.0796 56.3477 60.8658 56.0018 59.9492 56.0018C58.4791 56.0018 56.8879 56.8493 55.8329 58.181L53.5846 58.942C53.083 58.0253 53.1176 56.3996 53.256 55.3792C53.6537 55.0851 54.2245 54.5836 54.7433 53.8399C55.5389 52.7157 56.3345 50.8305 55.6427 48.2017C55.5735 47.8558 55.2103 46.524 53.7921 45.348L54.0515 44.5005L54.2764 43.7568C54.6223 43.6184 54.899 43.4109 55.1065 43.1861C55.4179 43.826 56.0232 44.414 56.7842 44.6043L56.9052 45.2615L57.0955 46.403L58.2197 46.1954C59.7762 45.9014 60.8139 44.9329 61.0042 43.6184C61.0907 43.0304 60.9869 42.4251 60.7275 41.8716C61.3155 41.7333 61.8517 41.4047 62.2494 40.9031L63.7195 41.7333L63.8579 39.9692C63.979 38.4299 63.4255 37.4614 62.9413 36.9425C62.3186 36.268 61.4193 35.8875 60.4853 35.8875C60.3816 35.8875 60.2951 35.8875 60.1913 35.9048C60.2086 35.8183 60.2432 35.7318 60.2605 35.6454C60.3124 35.3513 60.3124 35.0573 60.2605 34.7633L60.7621 34.2963L61.869 33.2586L60.5718 32.4803C59.9146 32.0826 59.2055 31.875 58.4964 31.875C57.3203 31.875 55.9713 32.4803 55.2968 34.1061C55.0201 33.7775 54.6569 33.3105 54.2591 32.6706C54.1034 32.4112 53.9478 32.1517 53.7921 31.8923C53.6192 31.5983 53.4289 31.287 53.2387 30.993V30.9757C53.8094 28.8311 53.7921 25.8909 52.9446 23.1582L55.0719 21.1347C55.2795 21.3768 55.5389 21.5671 55.8156 21.7054C56.2134 21.913 56.5766 22.0168 56.9917 22.0168H57.009L58.1332 21.9995V20.6159C58.1678 20.5813 58.2197 20.5467 58.2543 20.5121C58.5656 20.2181 58.7558 19.8549 58.825 19.4398L59.8627 19.4571L60.9004 19.4744L60.9523 18.4367C60.9696 18.1253 60.935 17.8313 60.8831 17.5373H61.2636L62.3013 17.5546L62.3532 16.5169C62.3705 16.0499 62.3013 15.6003 62.1457 15.2025H62.1803H63.2872L63.2526 14.0956C63.2353 13.2308 62.7856 12.4006 62.0592 11.8818C61.4193 11.4148 60.6929 11.2419 60.1221 11.19V8.66488H102.392V11.1727C101.821 11.2246 101.06 11.3975 100.403 11.8818C99.6762 12.4179 99.2265 13.2481 99.2092 14.0956L99.1747 15.2025H100.282H100.316C100.16 15.6003 100.074 16.0499 100.109 16.5169L100.16 17.5546L101.198 17.5373H101.579C101.51 17.814 101.492 18.1253 101.51 18.4367L101.561 19.4744L102.599 19.4571L103.637 19.4398C103.706 19.8376 103.896 20.2181 104.208 20.5121C104.242 20.5467 104.294 20.5813 104.329 20.6159V21.9995L105.453 22.0168H105.47C105.885 22.0168 106.248 21.913 106.646 21.7054C106.923 21.5498 107.182 21.3595 107.39 21.1347L109.517 23.1582C108.67 25.8909 108.635 28.8311 109.223 30.9757V30.993C109.033 31.287 108.843 31.5983 108.67 31.8923C108.514 32.1517 108.358 32.4112 108.203 32.6706C107.822 33.2932 107.442 33.7948 107.165 34.1234C106.491 32.4976 105.141 31.8923 103.965 31.8923C103.256 31.8923 102.547 32.0998 101.89 32.4976L100.593 33.2759L101.7 34.3136L102.201 34.7806C102.149 35.0573 102.149 35.3513 102.201 35.6627C102.219 35.7491 102.236 35.8356 102.271 35.9221C102.167 35.9221 102.08 35.9048 101.976 35.9048C101.025 35.9048 100.126 36.2853 99.5206 36.9598C99.0363 37.4959 98.4828 38.4472 98.6039 39.9865L98.7423 41.7506L100.212 40.9204C100.61 41.4047 101.146 41.7333 101.734 41.8889C101.475 42.4424 101.371 43.0304 101.458 43.6357C101.648 44.9675 102.686 45.936 104.242 46.2127L105.366 46.4203L105.557 45.2788L105.678 44.6216C106.456 44.414 107.061 43.8433 107.355 43.2034C107.563 43.4282 107.84 43.6184 108.185 43.7741L108.376 44.3967L108.41 44.5178L108.67 45.3653C107.252 46.5586 106.888 47.8731 106.819 48.219C106.127 50.8478 106.923 52.733 107.718 53.8572C108.237 54.6009 108.808 55.1024 109.206 55.3965C109.344 56.4169 109.379 58.0426 108.877 58.9593L106.629 58.1983C105.557 56.8665 103.983 56.0191 102.513 56.0191C101.596 56.0191 99.3822 56.365 98.4483 59.6511L97.9467 61.3979L99.7108 61.0174L99.8665 60.9828C99.9702 61.2941 100.126 61.6054 100.385 61.8649C98.9844 62.1762 97.3587 62.4183 95.5427 62.4183C94.9546 62.4183 94.3666 62.3318 93.7786 62.2453C93.0522 62.5567 92.2566 62.868 91.3572 63.1447C91.4783 63.1447 91.5821 63.1447 91.7031 63.1447C92.0663 63.1447 92.4295 63.162 92.7581 63.1966C93.7267 63.3176 94.6433 63.4906 95.5254 63.4906C97.8256 63.4906 99.8492 63.1447 101.492 62.695C101.319 62.9199 101.164 63.162 101.06 63.4387C100.8 64.0786 100.749 64.805 100.904 65.5487C100.835 65.566 100.783 65.5833 100.714 65.6006C100.403 65.6698 100.109 65.739 99.8665 65.7736C99.3995 65.86 99.1228 65.8773 99.1228 65.8773C99.1228 65.8773 99.5379 66.1022 100.126 66.5C100.835 66.9842 101.786 67.7106 102.599 68.5927C106.491 72.7781 102.288 75.9604 102.288 75.9604ZM113.08 75.8394C113.132 74.8535 113.166 73.8158 112.89 72.8646C112.388 71.2215 110.901 70.3222 109.31 69.9417C106.94 69.3883 105.574 69.2153 103.723 67.5031C103.689 67.4685 103.637 67.4339 103.602 67.3993L104.173 67.0534C104.398 67.1399 104.657 67.1918 104.917 67.1918C105.92 67.1918 106.819 66.5346 107.182 65.8773C107.269 65.7217 107.338 65.5833 107.39 65.4277C107.39 65.445 107.407 65.445 107.407 65.4622C107.546 65.6352 107.684 65.7736 107.822 65.8946L107.718 67.2091L107.615 68.4716L108.877 68.3851C109.707 68.3333 110.814 68.1603 111.662 67.4512L112.146 67.6933C112.336 67.7971 112.509 67.8836 112.682 67.9874C113.166 68.3333 113.651 68.7829 114.066 69.4229C114.291 69.7515 114.464 70.0628 114.602 70.3741C116.331 73.9888 113.08 75.8394 113.08 75.8394ZM127.66 77.3094C127.66 77.3094 125.809 73.1932 121.226 72.8473C119.721 72.7262 118.078 72.5187 116.868 71.5329C116.349 71.1005 116.02 70.4779 115.501 69.786C115.346 69.4574 115.155 69.1461 114.948 68.8175C114.412 68.0046 113.737 67.3474 112.907 66.8632C113.547 66.5173 114.654 66.033 115.968 66.033C116.418 66.033 116.868 66.0849 117.352 66.2232C118.943 66.6729 120.465 67.2782 122.16 67.2782C123.474 67.2782 124.893 66.915 126.501 65.8082C126.501 65.8082 126.415 67.6587 124.408 68.6964C124.132 68.8348 123.803 68.9732 123.44 69.0769C122.8 69.2672 122.004 69.3883 121.07 69.3883C120.69 69.3883 120.292 69.371 119.86 69.3364C119.86 69.3364 122.281 70.1147 124.478 71.4983C125.809 72.3457 127.037 73.4007 127.591 74.646C127.971 75.4589 128.058 76.3409 127.66 77.3094ZM136.377 78.0531C133.903 78.0531 131.482 77.1711 129.718 75.2686C129.286 74.8189 128.905 74.3866 128.525 74.0061C127.937 72.7954 126.812 71.6712 125.169 70.6162C124.841 70.4087 124.495 70.2011 124.114 69.9936C124.201 69.959 124.27 69.9244 124.356 69.9071C124.529 69.8379 124.685 69.7688 124.841 69.6996C125.982 69.2499 126.882 68.9905 127.625 68.8694C127.625 68.9386 127.608 68.9905 127.608 69.0596L127.418 70.8583L129.095 70.1665L129.164 70.1492C129.286 70.3741 129.424 70.5643 129.58 70.7373C130.012 71.187 130.583 71.4291 131.223 71.4291C131.015 71.7404 130.877 72.0863 130.79 72.4495C130.531 73.591 130.963 74.8362 131.966 75.9431L132.693 76.7387L133.488 76.0296L134.232 75.3724C134.336 75.3897 134.44 75.3897 134.543 75.3897C135.598 75.3897 136.532 74.5595 136.826 73.7466C136.861 73.6429 136.895 73.5391 136.913 73.4353C137.034 73.5218 137.138 73.6083 137.241 73.6775L137.362 74.8535L137.483 76.1161L138.711 75.8048C139.628 75.5799 140.925 75.113 141.513 73.8677C141.79 73.2797 141.859 72.6225 141.738 71.8788C144.419 71.5675 146.529 70.8583 146.529 70.8583C144.972 75.4589 140.597 78.0531 136.377 78.0531ZM42.2216 4.98101C40.6478 5.41339 38.6588 4.99831 38.6588 4.99831C39.8695 6.19167 40.2673 6.91807 40.2673 6.91807C41.8584 7.00455 42.2216 5.96684 42.2216 4.98101ZM120.309 4.98101C120.309 5.96684 120.673 7.00455 122.264 6.93537C122.264 6.93537 122.679 6.20897 123.872 5.0156C123.872 5.0156 121.883 5.41339 120.309 4.98101ZM121.261 26.2887C121.537 25.8217 121.814 25.3547 122.091 24.8878C122.54 24.1268 122.956 23.3139 123.319 22.4837C123.665 21.6536 123.959 20.8234 124.218 19.9759C124.495 19.1458 124.737 18.2983 124.979 17.4508C124.599 18.2464 124.218 19.0247 123.803 19.803C123.405 20.5813 122.99 21.3423 122.54 22.0686C122.073 22.795 121.572 23.4696 121.018 24.1268C120.534 24.7148 120.015 25.3201 119.514 25.9082C120.085 25.9774 120.673 26.0811 121.261 26.2887ZM39.2123 22.4837C39.5582 23.3139 39.9906 24.1268 40.4402 24.8878C40.717 25.3547 40.9937 25.8217 41.2704 26.2887C41.8584 26.0811 42.4465 25.9601 43.0172 25.9255C42.5156 25.3374 41.9968 24.7321 41.5125 24.1441C40.9591 23.4696 40.4575 22.795 39.9906 22.0859C39.5409 21.3595 39.1258 20.5986 38.728 19.8203C38.3302 19.042 37.9497 18.2464 37.5519 17.4681C37.7941 18.3156 38.0535 19.1458 38.3129 19.9932C38.5723 20.8234 38.8664 21.6536 39.2123 22.4837ZM38.9528 27.4993C37.6211 25.5796 36.3413 23.6252 35.269 21.5671C34.6809 20.4429 34.1621 19.2841 33.747 18.0908C33.3146 16.8974 32.9687 15.6694 32.692 14.4242C32.8303 15.704 33.0206 16.9666 33.3146 18.2291C33.6086 19.4917 34.0064 20.7196 34.4734 21.9303C34.9404 23.1409 35.4765 24.317 36.03 25.4758C36.4796 26.3924 36.9466 27.2918 37.4136 28.1911C37.8632 28.0528 38.3821 27.8279 38.9528 27.4993ZM125.083 28.1911C125.567 27.2918 126.034 26.3924 126.466 25.4758C127.037 24.317 127.573 23.1409 128.023 21.9303C128.49 20.7196 128.87 19.4744 129.182 18.2291C129.476 16.9666 129.683 15.704 129.804 14.4242C129.528 15.6694 129.182 16.8974 128.749 18.0908C128.317 19.2841 127.798 20.4429 127.227 21.5671C126.155 23.6252 124.875 25.5796 123.544 27.4993C124.149 27.8279 124.65 28.0528 125.083 28.1911Z" fill="white"/>
<path d="M99.4687 14.1475H99.2439H63.2872H63.1315L62.63 15.2025H99.7454L99.4687 14.1475ZM104.381 20.5467V33.0511C104.761 33.1203 105.124 33.2759 105.436 33.5354V20.7542L104.381 20.5467ZM104.761 43.5147L104.484 45.0885C104.45 45.0885 104.415 45.0712 104.381 45.0712V47.2504C104.381 50.1733 103.516 52.8368 101.838 55.137C101.423 55.6905 100.973 56.2266 100.472 56.7455L59.3266 15.5657C59.1363 15.4792 58.9115 15.3927 58.6521 15.3408V16.465C59.5168 16.759 59.9319 17.5373 59.8973 18.4021L58.7558 18.3848C58.5137 17.693 57.9084 17.2087 57.0955 17.0185V18.1426C57.4933 18.2983 57.7873 18.6096 57.7873 19.1285C57.7873 19.5781 57.4241 19.924 57.0955 19.9932V33.4489C57.5106 33.103 58.0122 32.9819 58.531 32.9819C59.0326 32.9819 59.5341 33.1722 60.0011 33.4489L58.9288 34.452C59.5687 35.213 58.8942 36.3718 58.2024 36.7523C57.4587 37.15 57.8565 37.8419 58.3926 37.8419C58.5656 37.8419 58.7386 37.7727 58.9115 37.617C59.3612 37.2019 59.9492 36.9944 60.5199 36.9944C61.7306 36.9944 62.924 37.9283 62.7683 39.8654L61.8344 39.3465C61.5231 40.3669 60.7967 40.7993 60.1222 40.7993C59.8108 40.7993 59.5168 40.7129 59.292 40.5399C58.7731 40.1594 58.237 39.7616 57.8738 39.7616C57.7527 39.7616 57.6317 39.8135 57.5625 39.9173C57.2858 40.2978 57.5798 40.6783 58.5656 41.1625C60.2259 41.9927 60.5545 44.3794 58.3754 45.0194L58.0122 45.0539L57.7354 43.4801C57.6144 43.5147 57.4933 43.532 57.3722 43.532C57.2685 43.532 57.1647 43.5147 57.0609 43.4974V47.2158C57.0609 50.8997 58.3235 53.9783 60.3816 56.4515C60.3989 56.4688 60.4162 56.4861 60.4162 56.5033C60.4854 56.5898 60.5718 56.6763 60.641 56.7628C60.6583 56.7801 60.6756 56.7974 60.6929 56.8147C60.7794 56.9184 60.8659 57.0049 60.9523 57.1087C60.9523 57.1087 60.9523 57.126 60.9696 57.126C61.0561 57.2297 61.1599 57.3162 61.2463 57.42L61.2636 57.4373C61.3847 57.5065 61.4885 57.5929 61.5923 57.6794C61.7998 57.8524 62.0073 58.0599 62.1803 58.302C63.512 59.4781 65.0686 60.4639 66.7462 61.2941C66.9365 61.3979 67.1267 61.5017 67.3343 61.5881C70.1015 62.9717 74.1486 64.4764 81.2223 64.4764C88.296 64.4764 92.3431 62.9717 95.1103 61.5881C95.3179 61.4844 95.5081 61.3806 95.6983 61.2941C97.3587 60.4812 98.8807 59.4954 100.212 58.3539C100.247 58.302 100.282 58.2502 100.316 58.1983C100.333 58.181 100.351 58.1637 100.368 58.1291C100.385 58.1118 100.403 58.0772 100.437 58.0599C100.455 58.0253 100.489 58.008 100.506 57.9734C100.524 57.9561 100.524 57.9388 100.541 57.9388C100.576 57.9043 100.61 57.8697 100.645 57.8351L100.662 57.8178C100.697 57.7832 100.731 57.7486 100.766 57.714C100.766 57.714 100.766 57.714 100.783 57.6967C100.818 57.6621 100.87 57.6275 100.904 57.5929C100.991 57.5238 101.077 57.4719 101.164 57.42C101.181 57.4027 101.198 57.4027 101.216 57.3854C103.792 54.7565 105.401 51.3494 105.401 47.1813V43.5147C105.297 43.5493 105.193 43.5666 105.072 43.5666C105.003 43.5666 104.882 43.5493 104.761 43.5147Z" fill="white"/>
</svg>
