<svg width="192" height="100" viewBox="0 0 192 100" fill="none" xmlns="http://www.w3.org/2000/svg">
<path d="M11.94 1H0V99.49H11.94V1Z" fill="white"/>
<path d="M128.405 14.1202H128.18H92.214H92.0583L91.5566 15.1917H128.682L128.405 14.1202Z" fill="white"/>
<path d="M133.318 20.5148V33.0104C133.699 33.0795 134.062 33.2351 134.374 33.4943V20.7222L133.318 20.4976V20.5148Z" fill="white"/>
<path d="M110.206 13.014C111.906 13.014 113.285 12.3254 113.285 11.4759C113.285 10.6264 111.906 9.93768 110.206 9.93768C108.505 9.93768 107.126 10.6264 107.126 11.4759C107.126 12.3254 108.505 13.014 110.206 13.014Z" fill="white"/>
<path d="M101.4 11.4759L97.9402 9.73029L94.4629 11.4759L97.9402 13.2042L101.4 11.4759Z" fill="white"/>
<path d="M125.949 11.4759L122.489 9.73029L119.011 11.4759L122.489 13.2042L125.949 11.4759Z" fill="white"/>
<path d="M175.132 69.7539C175.132 69.7539 173.073 70.428 170.513 70.7218C171.343 70.0132 171.897 69.0108 172.07 67.8701C172.191 67.0059 172.157 64.5863 171.932 60.715C171.862 59.3323 170.807 58.1916 169.44 58.0188C168.16 57.846 167.105 57.6732 166.396 57.5176C164.925 57.1892 164.129 56.6535 164.026 56.2732C163.887 55.8584 163.905 55.8066 163.956 55.4264C163.974 55.2535 164.008 55.0461 164.043 54.7696C164.077 54.4585 164.095 54.1647 164.147 53.8363C164.199 53.4388 164.233 53.024 164.268 52.6093C164.268 52.592 164.268 52.5574 164.268 52.5401C164.597 52.6093 164.942 52.6438 165.271 52.6438C166.188 52.6438 167.105 52.4019 167.901 51.9007C169.389 50.9847 170.254 49.4119 170.219 47.6663C170.15 44.9011 168.61 42.9654 167.243 41.2716C166.621 40.4939 166.015 39.7508 165.583 38.973C164.181 36.4497 163.853 33.719 164.614 30.8328C164.925 29.6402 165.704 28.4477 166.534 27.2033C166.707 26.9441 166.88 26.6676 167.053 26.4083C167.174 26.4256 167.295 26.4429 167.416 26.4429C167.935 26.4429 168.368 26.2701 168.679 26.0799C170.669 24.8529 171.361 20.8432 171.326 18.5964C171.274 13.8955 169.423 10.508 165.704 8.24396L164.423 7.46623L164.908 8.88343C166.032 12.1499 166.638 14.172 165.929 17.4558C165.704 18.51 165.254 19.5124 164.821 20.4803C164.147 22.0012 163.489 23.4702 164.06 24.6627C163.922 24.8701 163.783 25.0948 163.645 25.3022C162.694 26.7367 161.707 28.223 161.258 29.9859C160.289 33.719 160.739 37.4176 162.555 40.684C163.126 41.721 163.853 42.6197 164.545 43.4839C165.704 44.9356 166.724 46.18 166.759 47.7873C166.759 48.4614 166.344 48.8243 166.102 48.9798C165.617 49.2736 165.046 49.2909 164.545 49.0317C164.147 48.8243 163.766 48.4095 163.524 47.9256C163.143 46.8022 162.659 45.6269 162.002 44.3307C161.413 43.1555 160.773 41.9975 160.15 40.8741C159.009 38.8002 157.919 36.8472 157.123 34.7214C156.517 33.0795 156.448 31.1957 156.483 29.9859C157.348 30.1414 158.109 30.176 158.247 30.176L159.372 30.2106V29.0872C159.355 28.2403 160.012 26.7713 160.773 25.0603C162.867 20.4284 166.032 13.4461 161.967 5.44412C161.932 5.39228 161.915 5.32314 161.88 5.2713C162.053 4.71824 162.105 4.21704 162.088 3.80225C162.071 2.26406 161.31 1.05426 160.618 0.432073L160.133 0L159.528 0.207395C159.13 0.345659 158.749 0.58762 158.369 0.88143C158.109 0.639469 157.78 0.466639 157.4 0.41479C157.296 0.41479 157.192 0.397507 157.054 0.397507C155.376 0.397507 149.269 1.78014 148.473 2.19493L148.058 2.40233L147.919 2.85168L147.625 3.87138C146.276 4.32073 145.048 4.99477 144.131 5.49597C144.01 5.56511 143.889 5.63424 143.767 5.68609L143.075 6.06631L143.231 6.84404C143.248 6.96502 143.854 10.0068 145.619 12.0635L145.705 12.1499C145.307 12.219 144.927 12.2536 144.581 12.2536C143.525 12.2536 142.695 11.9425 142.297 11.3203C141.674 10.3525 142.124 9.3155 142.851 8.77973C142.453 8.6069 142.072 8.5032 141.605 8.5032C141.328 8.5032 141.017 8.53777 140.671 8.62418C139.287 8.93528 138.508 10.0932 138.768 11.4932C139.062 13.1696 140.238 14.2066 142.28 14.2066C142.695 14.2066 143.127 14.172 143.612 14.0856C144.304 13.9646 145.013 13.7572 145.722 13.5325C145.722 13.5671 145.722 13.5844 145.722 13.619C145.549 14.5868 145.394 15.4164 145.93 16.0904C144.442 16.3669 143.093 16.9891 141.951 17.9224C141.017 17.2138 139.754 16.2632 139.564 16.1077C138.82 15.5546 138.128 14.9497 137.384 14.3276C137.09 14.0683 136.778 13.8091 136.467 13.5498C135.827 13.014 135.135 12.461 134.391 11.9425C133.837 11.5623 133.197 11.3203 132.505 11.2339V8.17483C134.702 7.20698 136.242 4.97749 136.242 2.43689C136.242 1.86656 136.173 1.33079 136.017 0.812298H131.363C131.398 1.12339 131.415 1.43448 131.415 1.76286C131.415 4.52813 130.031 6.96502 128.319 6.96502C126.606 6.96502 125.222 4.52813 125.222 1.76286C125.222 1.43448 125.239 1.12339 125.274 0.812298H119.444C119.478 1.12339 119.496 1.43448 119.496 1.76286C119.496 4.52813 118.112 6.96502 116.399 6.96502C114.686 6.96502 113.302 4.52813 113.302 1.76286C113.302 1.43448 113.32 1.12339 113.354 0.812298H107.334C107.369 1.12339 107.386 1.43448 107.386 1.76286C107.386 4.52813 106.002 6.96502 104.289 6.96502C102.577 6.96502 101.193 4.52813 101.193 1.76286C101.193 1.43448 101.21 1.12339 101.244 0.812298H95.5528C95.5874 1.12339 95.6047 1.43448 95.6047 1.76286C95.6047 4.52813 94.2207 6.96502 92.508 6.96502C90.7954 6.96502 89.4114 4.52813 89.4114 1.76286C89.4114 1.43448 89.4287 1.12339 89.4633 0.812298H84.7404C84.602 1.3135 84.5328 1.83199 84.5328 2.36776C84.5328 4.82194 85.9687 7.01687 88.0274 8.05385V11.2339C87.3354 11.3203 86.6607 11.5623 86.0898 11.9598C85.3459 12.461 84.6539 13.0313 84.0138 13.5671C83.7024 13.8263 83.4083 14.0856 83.0969 14.3448C82.353 14.967 81.661 15.5719 80.9171 16.125C80.7268 16.2632 79.464 17.2138 78.5298 17.9397C77.388 17.0064 76.0559 16.3842 74.5508 16.1077C75.0871 15.4164 74.9314 14.5868 74.7584 13.6362C74.7584 13.619 74.7584 13.5844 74.7584 13.5498C75.4677 13.7918 76.177 13.9819 76.869 14.1029C77.3534 14.1893 77.7859 14.2239 78.2011 14.2239C80.2424 14.2239 81.4188 13.1869 81.7129 11.5104C81.9724 10.1105 81.1939 8.95256 79.81 8.64147C79.464 8.57234 79.1526 8.52049 78.8758 8.52049C78.4087 8.52049 78.0281 8.62418 77.6302 8.79701C78.3568 9.33278 78.8066 10.3698 78.1838 11.3376C77.7859 11.9771 76.9382 12.2709 75.9002 12.2709C75.5369 12.2709 75.1563 12.2363 74.7757 12.1672L74.8622 12.0808C76.6268 10.0241 77.2323 6.99959 77.2496 6.86133L77.4053 6.08359L76.7133 5.70337C76.5922 5.63424 76.4711 5.58239 76.35 5.51326C75.4158 5.01205 74.2048 4.33802 72.8554 3.88866L72.5613 2.86897L72.4229 2.41961L72.0077 2.21222C71.2119 1.79743 65.1051 0.41479 63.427 0.41479C63.3059 0.41479 63.1848 0.41479 63.081 0.432073C62.7004 0.483922 62.3717 0.656752 62.1122 0.898713C61.7316 0.58762 61.3337 0.362942 60.9531 0.224678L60.3476 0.0172829L59.8632 0.449356C59.1712 1.07154 58.41 2.28135 58.3927 3.81953C58.3927 4.23432 58.4446 4.73552 58.6003 5.28858C58.5657 5.35771 58.5311 5.40956 58.5138 5.46141C54.4484 13.4634 57.6143 20.4457 59.7075 25.0775C60.4687 26.7713 61.1434 28.2403 61.1261 29.1045V30.2279L62.2333 30.1933C62.3544 30.1933 63.1156 30.1587 63.9979 30.0032C64.0325 31.213 63.9806 33.1141 63.3578 34.7387C62.562 36.8645 61.4721 38.8175 60.3303 40.8914C59.7075 42.0148 59.0674 43.1728 58.4792 44.348C57.8392 45.6442 57.3375 46.8195 56.9569 47.9429C56.7147 48.4268 56.3514 48.8416 55.9362 49.049C55.4345 49.3082 54.8636 49.2909 54.3792 48.9971C54.1197 48.8416 53.7045 48.4786 53.7218 47.8046C53.7564 46.2146 54.7598 44.9529 55.9362 43.5011C56.6282 42.637 57.3375 41.7556 57.9256 40.7013C59.7421 37.4348 60.1919 33.7363 59.2231 30.0032C58.7733 28.2403 57.7872 26.754 56.8358 25.3195C56.6974 25.1121 56.559 24.8874 56.4206 24.68C56.9915 23.4875 56.3514 22.0185 55.6594 20.4976C55.2269 19.5297 54.7771 18.5273 54.5522 17.473C53.8429 14.172 54.4484 12.1672 55.5729 8.90071L56.0573 7.48351L54.7771 8.26124C51.0576 10.5253 49.2065 13.9128 49.1546 18.6137C49.12 20.8605 49.8293 24.8874 51.8015 26.0972C52.1129 26.2873 52.5281 26.4602 53.0644 26.4602C53.1855 26.4602 53.2893 26.4602 53.4277 26.4256C53.6007 26.6849 53.7737 26.9614 53.9467 27.2206C54.7771 28.465 55.5556 29.6575 55.867 30.85C56.6109 33.7363 56.2822 36.4843 54.8982 38.9903C54.4657 39.768 53.8775 40.5112 53.2374 41.2889C51.8707 42.9827 50.331 44.9011 50.2618 47.6836C50.2272 49.4119 51.0922 51.0019 52.58 51.9179C53.3758 52.4191 54.2927 52.6611 55.2096 52.6611C55.5556 52.6611 55.8843 52.6265 56.213 52.5574C56.213 52.5747 56.213 52.6093 56.213 52.6265C56.2476 53.0413 56.2822 53.4561 56.3341 53.8536C56.3687 54.182 56.4033 54.4758 56.4379 54.7869C56.4552 55.0634 56.4898 55.2708 56.5244 55.4437C56.5763 55.8066 56.5936 55.8757 56.4552 56.2905C56.3341 56.6707 55.5556 57.2065 54.0851 57.5349C53.3758 57.6904 52.3205 57.8633 51.0403 58.0361C49.6736 58.2262 48.6183 59.3669 48.5491 60.7322C48.3415 64.6036 48.2896 67.0232 48.4107 67.8874C48.5837 69.028 49.1373 70.0305 49.9677 70.7391C47.4073 70.4452 45.366 69.7712 45.3487 69.7712L43.29 69.0799L43.982 71.1366C44.7951 73.5562 46.3348 75.5956 48.4626 77.03C50.4348 78.3608 52.8049 79.0867 55.1577 79.0867C58.0294 79.0867 60.6417 78.0152 62.5274 76.0622C62.5274 76.598 62.6485 77.1165 62.8561 77.6522L63.8076 80.02L64.8629 77.7041C64.9321 77.5658 66.541 74.1784 70.3815 73.8845C72.025 73.7636 73.8934 73.5216 75.3466 72.3118C75.3466 72.7093 75.3812 73.0895 75.485 73.4698C76.004 75.6128 77.8551 76.7017 77.9243 76.7362L79.637 77.7214L79.5332 75.7511C79.4986 74.9042 79.4467 73.9364 79.6889 73.1414C80.1213 71.7069 81.6264 71.1711 82.4741 70.9637C82.6817 70.9119 82.8893 70.86 83.0796 70.8255C84.4809 70.5144 85.6227 70.2551 86.7991 69.5638C86.2974 70.5489 86.0898 71.5514 86.1936 72.571C86.4358 75.1116 88.5118 76.7017 88.5983 76.7708L90.9684 78.5509L90.311 75.6647C90.0688 74.5586 89.8785 72.0353 90.8992 71.3785C92.162 70.5489 93.1135 70.4452 94.2207 70.3243C95.1376 70.2206 96.1237 70.0996 97.2828 69.5984C96.3832 71.5859 96.7638 73.2105 96.7984 73.2969L97.352 75.4919L98.7187 73.6772C98.7187 73.6772 101.296 70.3415 104.929 70.3415C107.559 70.3415 109.687 71.6378 109.704 71.6551L110.275 72.0007L110.846 71.6551C110.846 71.6551 112.991 70.3415 115.621 70.3415C119.254 70.3415 121.814 73.6599 121.831 73.6772L123.198 75.4919L123.752 73.2969C123.769 73.2105 124.167 71.5859 123.267 69.5984C124.426 70.0996 125.412 70.2206 126.329 70.3243C127.436 70.4452 128.405 70.5662 129.651 71.3785C130.671 72.0526 130.498 74.5586 130.239 75.6647L129.582 78.5509L131.952 76.7708C132.038 76.7017 134.114 75.1116 134.356 72.571C134.46 71.5514 134.253 70.5489 133.751 69.5638C134.927 70.2378 136.069 70.4971 137.47 70.8255C137.661 70.8773 137.868 70.9119 138.076 70.9637C138.924 71.1538 140.429 71.7069 140.861 73.1414C141.103 73.9364 141.051 74.9042 141.017 75.7511L140.913 77.7214L142.626 76.7362C142.626 76.7362 144.563 75.6128 145.065 73.4698C145.151 73.0895 145.203 72.692 145.203 72.3118C146.657 73.5216 148.525 73.7463 150.168 73.8845C154.009 74.1784 155.618 77.5658 155.687 77.7041L156.742 80.02L157.694 77.6522C157.901 77.1165 158.023 76.5807 158.023 76.0622C159.908 78.0152 162.521 79.0867 165.392 79.0867C167.745 79.0867 170.115 78.3608 172.087 77.03C174.215 75.5956 175.772 73.5562 176.568 71.1366L177.26 69.0799L175.201 69.7712L175.132 69.7539ZM142.228 13.0832C140.775 13.0832 140.013 12.4956 139.789 11.2512C139.633 10.4216 140.048 9.81671 140.861 9.62659C140.896 9.62659 140.93 9.62659 140.965 9.60931C140.775 10.3179 140.861 11.0956 141.328 11.8561C141.674 12.3919 142.21 12.8067 142.885 13.0486C142.66 13.0832 142.435 13.0832 142.228 13.0832ZM79.0488 11.8561C79.5332 11.1129 79.6024 10.3179 79.4121 9.60931C79.4467 9.60931 79.4813 9.60931 79.5159 9.62659C80.329 9.79942 80.7441 10.4216 80.5884 11.2512C80.3635 12.4956 79.5851 13.0832 78.1492 13.0832C77.9416 13.0832 77.7167 13.0832 77.4918 13.0486C78.1665 12.8067 78.7028 12.4091 79.0488 11.8561ZM141.951 19.2705C142.21 19.0112 142.487 18.7693 142.781 18.5446C144.062 17.5595 145.688 16.9546 147.729 16.9546C148.023 16.9546 148.317 16.9546 148.629 16.9891L151.397 15.7275C150.411 15.7448 149.615 15.7793 148.975 15.7793C146.207 15.7793 146.432 15.3991 146.795 13.4634C146.795 13.4634 149.13 14.1029 150.912 14.1029C151.085 14.1029 151.258 14.1029 151.414 14.0856C152.279 14.0165 152.66 13.6362 152.798 13.1696C152.971 12.5474 153.023 11.5796 152.539 10.3698C152.227 9.57475 151.466 8.88343 150.376 8.88343C149.546 8.88343 148.542 9.28094 147.4 10.3179L146.432 11.2858C145.93 10.6981 145.532 10.0241 145.221 9.36735C145.013 8.46864 145.982 7.8983 145.982 7.8983C144.996 8.01928 144.511 6.99959 144.356 6.53295C145.411 5.96261 146.916 5.09847 148.508 4.66639L148.975 3.07636C149.58 2.76527 155.497 1.39992 157.054 1.39992C157.14 1.39992 157.192 1.39992 157.261 1.39992C157.382 1.39992 157.504 1.46905 157.59 1.53818C157.261 1.90112 156.967 2.31591 156.708 2.76527L157.763 3.11093C158.351 2.16037 159.164 1.36535 159.891 1.12339C160.842 1.95297 161.984 4.42443 159.476 7.01687V8.52049L159.908 8.1057C160.514 7.53536 160.946 6.98231 161.275 6.44653C166.067 16.8163 158.196 25.3195 158.247 28.9835C158.247 28.9835 156.604 28.9316 155.479 28.4823C155.479 28.4823 154.978 32.0598 156.085 34.9979C157.365 38.42 159.389 41.4618 161.015 44.711C161.569 45.8171 162.053 46.9405 162.451 48.0984C162.451 48.133 162.469 48.1675 162.486 48.2021C162.815 48.9107 163.368 49.5329 163.991 49.8785C164.008 49.8785 164.043 49.8958 164.06 49.9131C164.873 50.3279 165.825 50.2761 166.621 49.7921C167.399 49.3255 167.814 48.5305 167.797 47.6491C167.745 45.6788 166.586 44.227 165.34 42.6888C164.683 41.8593 163.991 41.0124 163.455 40.0446C161.777 37.02 161.361 33.598 162.261 30.1414C162.676 28.5514 163.61 27.1515 164.51 25.7861C164.718 25.475 164.908 25.1812 165.115 24.8701C165.202 24.7492 165.271 24.6282 165.34 24.5072C164.908 24.1097 164.821 23.6258 164.96 22.9863C165.081 22.3987 165.392 21.6901 165.773 20.8087C166.205 19.8408 166.707 18.7347 166.949 17.5767C167.347 15.7102 167.347 14.2066 167.105 12.7202C167.468 13.3079 167.78 13.93 168.039 14.5695C168.333 15.2954 168.541 16.0558 168.645 16.8509C168.748 17.6459 168.748 18.4582 168.627 19.2705C168.904 18.51 169.077 17.6804 169.129 16.8509C169.181 16.004 169.129 15.1571 168.973 14.3276C168.835 13.5671 168.627 12.8067 168.351 12.0808C169.544 13.8263 170.15 15.9521 170.184 18.51C170.219 21.7246 169.112 24.4208 168.056 25.0603C167.918 25.1467 167.797 25.1985 167.676 25.2331C167.226 25.3368 166.534 25.0257 166.534 25.0257C166.223 25.5442 165.911 26.0108 165.583 26.512C164.7 27.8428 163.87 29.1045 163.507 30.4698C162.694 33.6326 163.04 36.6398 164.579 39.4051C165.064 40.2692 165.704 41.0815 166.344 41.8593C167.659 43.5011 169.025 45.1949 169.077 47.5972C169.112 48.9453 168.437 50.1724 167.278 50.881C166.655 51.2612 165.929 51.4686 165.202 51.4686C164.873 51.4686 164.527 51.4167 164.199 51.3476C163.905 51.2612 163.61 51.1575 163.334 51.0019C163.247 50.9501 163.161 50.8982 163.074 50.8464C163.126 51.2612 163.143 51.6933 163.126 52.108C163.126 52.2117 163.126 52.3327 163.109 52.4364C163.057 53.145 162.953 53.8709 162.901 54.5795C162.815 55.4955 162.659 55.5992 162.936 56.4979C163.264 57.5349 164.666 58.1571 166.119 58.4855C167.036 58.6928 168.281 58.883 169.25 59.0039C170.115 59.1249 170.755 59.8335 170.807 60.6977C170.928 62.8235 171.101 66.5911 170.946 67.6454C170.773 68.8034 170.098 69.7885 169.025 70.307C169.094 70.4625 169.164 70.6181 169.233 70.7563C169.389 71.1538 169.51 71.4995 169.562 71.8279C169.908 73.7117 168.558 74.2993 167.347 74.5931L167.191 72.8994C167.191 72.8994 166.845 72.6747 166.776 72.6402C166.672 72.5711 166.551 72.5019 166.465 72.4155C166.257 72.2254 166.188 72.0007 166.153 71.7587C166.153 71.6205 166.136 71.4822 166.136 71.3267C166.136 71.0674 166.084 70.8082 165.946 70.6181C165.877 70.5317 165.807 70.4625 165.686 70.4107C165.583 70.3588 165.479 70.3415 165.375 70.3415C165.254 70.3415 165.15 70.3761 165.046 70.428C164.821 70.5489 164.631 70.7736 164.596 71.0501C164.596 71.1538 164.596 71.2921 164.614 71.4304C164.7 71.9316 164.942 72.6229 164.718 73.2278C164.579 73.6253 164.043 74.1611 163.455 74.1611C163.264 74.1611 163.091 74.1092 162.901 73.9882L161.69 75.0598C160.081 73.2969 160.583 71.6032 162.33 70.8773C162.469 70.8255 162.59 70.7563 162.694 70.6872C163.022 70.4625 163.213 70.1687 163.022 69.8576C162.884 69.6157 162.728 69.5292 162.521 69.5292C162.209 69.5292 161.811 69.7194 161.206 69.9613C161.171 69.9613 161.137 69.9959 161.085 70.0132C160.756 70.1342 160.445 70.2206 160.15 70.2206C159.528 70.2206 159.026 69.8576 158.766 68.8552C158.749 68.7688 158.732 68.6651 158.715 68.5787L158.299 68.7515L157.573 69.0453C157.573 68.9243 157.607 68.7861 157.625 68.6651C157.694 68.2503 157.832 67.9047 157.988 67.6108C158.524 66.6257 159.476 66.2282 160.445 66.2282C161.69 66.2282 162.97 66.8504 163.507 67.6454L165.79 67.9565C166.257 67.3689 166.275 65.6406 166.205 64.2925C166.153 63.3074 165.427 62.5124 164.458 62.3568C162.797 62.1149 160.306 61.7519 159.424 61.6828C157.746 61.5618 155.998 61.268 154.736 60.0409C153.006 58.3299 152.625 56.5498 152.625 54.0783C152.625 53.266 152.66 52.4537 152.729 51.6241C152.781 50.9155 152.867 50.2069 152.936 49.5156C152.988 49.049 153.057 48.5823 153.127 48.1157C153.196 47.6836 153.196 47.217 153.161 46.7676C153.161 46.5948 153.127 46.4392 153.092 46.2664C153.006 45.7652 152.867 45.2813 152.677 44.7801C152.469 44.2616 152.175 43.7777 151.829 43.311C151.276 42.5852 150.549 41.9457 149.632 41.4272C149.303 41.2371 148.906 41.0124 148.49 40.7532C148.075 40.4939 147.625 40.2174 147.158 39.889C146.016 39.1286 144.754 38.178 143.577 37.0892C143.664 37.0373 143.75 36.9855 143.837 36.9336C144.269 36.6744 145.463 35.793 146.587 34.8597C146.864 34.635 147.106 34.4276 147.331 34.2202L146.259 33.6499C145.013 34.7041 143.629 35.7411 143.266 35.9485C143.093 36.0522 142.92 36.1559 142.747 36.2596C142.418 36.4497 142.089 36.6398 141.778 36.8127C139.962 37.8496 138.664 38.5582 138.699 39.768C140.948 42.1876 139.719 43.6221 138.474 44.0542L138.059 42.7234C136.744 42.4987 136.761 41.5309 136.709 40.7877C136.675 40.3902 136.363 40.1655 136.052 40.1655C135.792 40.1655 135.533 40.3384 135.515 40.7359C135.481 41.168 135.515 41.6173 135.394 42.3259C135.308 42.8098 134.789 43.4666 134.045 43.4666C133.924 43.4666 133.803 43.4666 133.682 43.4147L133.405 44.9875C130.844 44.5036 131.121 41.963 132.851 41.0988C133.837 40.5976 134.149 40.2347 133.855 39.8544C133.768 39.7508 133.664 39.6989 133.543 39.6989C133.18 39.6989 132.644 40.0964 132.125 40.4766C131.9 40.6495 131.606 40.7359 131.294 40.7359C130.62 40.7359 129.893 40.3038 129.582 39.2841L128.647 39.8026C128.492 37.8842 129.685 36.9336 130.896 36.9336C131.467 36.9336 132.055 37.141 132.505 37.5558C132.678 37.7114 132.851 37.7805 133.024 37.7805C133.578 37.7805 133.958 37.0892 133.215 36.6917C132.505 36.3114 131.831 35.1362 132.488 34.393L131.415 33.3906C131.9 33.0968 132.419 32.9586 132.903 32.9586C133.976 32.9586 134.962 33.6499 135.273 35.2226C135.342 35.5856 135.498 35.7238 135.706 35.7238C136.294 35.7238 137.332 34.4622 138.11 33.2178C138.301 32.924 138.474 32.6129 138.647 32.3191C138.872 31.9216 139.114 31.5414 139.373 31.1611C139.702 30.6772 140.048 30.2106 140.481 29.7958C141.207 29.0699 142.47 27.8082 143.923 26.9614C144.269 26.7713 144.632 26.5812 144.996 26.4256C145.428 25.8553 145.861 25.2677 146.241 24.6627C147.262 23.1073 148.11 21.4481 148.594 19.7025C147.798 21.3444 146.691 22.7789 145.463 24.0578C144.892 24.6627 144.304 25.2158 143.681 25.7689C142.003 26.633 140.602 28.0329 139.771 28.8452L139.65 28.9662C139.408 29.2082 139.183 29.4501 138.993 29.7094C138.716 28.0156 138.785 25.9244 139.321 23.9369C139.425 23.5566 139.546 23.1591 139.685 22.7962C140.186 21.4654 140.896 20.221 141.882 19.2359L141.951 19.2705ZM148.421 12.4091C149.079 12.1845 149.736 12.0116 150.359 12.0116C150.878 12.0116 151.362 12.1326 151.812 12.3919C151.812 12.5993 151.76 12.7721 151.743 12.8585V12.8758C151.743 12.8758 151.656 12.9622 151.31 12.9968C151.189 12.9968 151.051 12.9968 150.895 12.9968C150.22 12.9968 149.459 12.8931 148.784 12.7721C148.11 12.6684 147.089 12.4437 147.089 12.4437C146.985 11.8907 147.072 11.303 147.279 11.3203C147.556 11.3549 147.712 11.9425 148.438 12.3746L148.421 12.4091ZM147.712 11.545L148.127 11.1129C149.165 10.1796 149.909 9.97225 150.341 9.97225C151.12 9.97225 151.431 10.5772 151.501 10.7673C151.57 10.9401 151.622 11.1129 151.674 11.2685C151.258 11.0784 150.809 11.0092 150.341 11.0092C149.511 11.0092 148.611 11.2685 147.695 11.545H147.712ZM154.874 64.8283C153.594 65.6924 152.4 66.1072 151.137 66.1072C149.961 66.1072 148.819 65.7616 147.608 65.3813C147.279 65.2777 146.951 65.1739 146.605 65.0875C146.068 64.932 145.497 64.8629 144.927 64.8629C143.543 64.8629 142.349 65.3122 141.57 65.7097C141.657 65.4159 141.934 64.3098 141.934 63.4629C142.954 62.8926 143.664 62.0803 144.01 61.026C144.529 59.4533 144.944 56.6707 144.529 53.6635C145.342 53.5598 146.501 53.387 147.66 53.1969C148.923 52.9895 149.961 52.7821 150.722 52.592C151.085 52.5056 151.379 52.4191 151.639 52.3327C151.604 52.9376 151.587 53.5425 151.587 54.1474C151.587 55.6511 151.725 56.7744 152.037 57.7596C152.417 58.9348 153.058 59.9545 154.009 60.8878C155.531 62.3914 157.573 62.7198 159.372 62.8408C160.012 62.8926 161.777 63.1173 164.32 63.4975C164.769 63.5666 165.133 63.9469 165.15 64.4135C165.219 65.6579 165.15 66.401 165.098 66.8158L164.095 66.6776C163.264 65.7789 161.846 65.1912 160.462 65.1912C158.715 65.1912 157.4 66.1072 156.812 67.6627C156.5 67.6973 156.154 67.7491 155.808 67.8355C156.466 66.8331 156.517 65.8998 156.535 65.7789L156.621 63.6185L154.839 64.8283H154.874ZM137.505 65.0011C137.401 64.9147 137.297 64.811 137.211 64.7073C137.194 64.6727 137.176 64.6555 137.159 64.6209C136.934 64.258 137.003 63.8777 137.055 63.4802C137.107 63.0827 137.107 62.6852 136.744 62.426C136.605 62.3223 136.45 62.2704 136.294 62.2704C136.19 62.2704 136.104 62.2877 136.017 62.3223C135.775 62.4087 135.55 62.6161 135.464 62.8926C135.412 63.0309 135.412 63.221 135.412 63.4457C135.412 63.6358 135.412 63.8432 135.412 64.0506C135.412 64.4135 135.377 64.811 135.221 65.1567C135.221 65.1912 135.187 65.2258 135.169 65.2604C134.962 65.606 134.408 66.0381 133.837 66.0381C133.578 66.0381 133.318 65.9517 133.093 65.727L131.588 66.643C131.485 66.4875 131.415 66.3319 131.329 66.1936C131.156 65.8307 131.035 65.5023 130.966 65.174C130.689 63.7222 131.554 62.6679 133.076 62.3223C133.699 62.184 134.201 61.8556 134.01 61.3544C133.889 61.026 133.682 60.9051 133.37 60.9051C133.042 60.9051 132.574 61.026 131.934 61.1643C131.727 61.1989 131.536 61.2334 131.346 61.268C131.191 61.2853 131.035 61.3026 130.896 61.3026C130.222 61.3026 129.789 60.9742 129.789 59.6261L128.492 59.9027C129.08 57.846 130.274 57.051 131.519 57.051C132.765 57.051 134.149 57.8978 134.979 59.0558L135.498 59.2286L136.415 59.5397L138.249 60.1619C140.031 58.6583 139.218 54.7005 139.218 54.7005C139.218 54.7005 135.74 52.7475 136.899 48.4095C136.899 48.4095 137.505 44.3307 144.944 44.3307C145.74 44.3307 146.605 44.3826 147.556 44.4863C148.127 44.5554 148.646 44.6245 149.113 44.711C149.113 44.711 149.113 44.711 149.113 44.7282C148.94 45.1257 148.888 45.5751 148.975 46.0072C149.096 46.6812 149.511 47.2515 150.117 47.5626C150.411 47.7182 150.739 47.8046 151.085 47.8046C151.466 47.8046 151.829 47.7009 152.175 47.5108C152.175 47.7009 152.158 47.8737 152.141 48.0466C152.002 49.0144 151.864 50.0514 151.777 51.1402C150.272 51.9007 143.3 52.7648 143.3 52.7648C143.975 56.0486 143.543 59.1595 143.024 60.715C142.833 61.2853 142.505 61.7346 142.089 62.0976C141.761 62.3914 141.38 62.6161 140.948 62.7889C140.861 63.9296 140.775 64.7764 140.567 65.4505C140.515 65.6924 140.429 65.8998 140.325 66.0727C139.806 66.9541 138.733 67.1615 137.764 67.2306L137.92 65.3986C137.92 65.3986 137.591 65.0875 137.54 65.0357L137.505 65.0011ZM139.979 39.5088C140.273 39.0421 141.259 38.5064 142.28 37.9188C142.401 37.8496 142.539 37.7805 142.678 37.6941C142.868 37.8669 143.058 38.0397 143.248 38.2126C143.716 38.6274 144.2 39.0249 144.684 39.4051L144.702 39.4224L147.089 41.9111C147.712 42.5679 148.144 43.0691 148.438 43.4839L144.961 43.2419C143.248 43.2419 141.865 43.4493 140.74 43.7777C140.896 43.5357 141.017 43.2592 141.086 42.9827C141.397 41.6864 140.757 40.4421 140.013 39.5261L139.979 39.5088ZM149.857 43.7431C149.649 43.3456 149.321 42.8444 148.767 42.1704C148.906 42.2568 149.061 42.3432 149.182 42.4123C150.013 42.879 150.636 43.4493 151.103 44.0715C151.466 44.5554 151.708 45.0739 151.898 45.5751C151.968 45.7652 152.02 45.9726 152.054 46.1627C151.847 46.4911 151.483 46.6985 151.103 46.6985C150.947 46.6985 150.791 46.6639 150.636 46.5775C150.065 46.2837 149.84 45.5233 150.238 44.9356C150.272 44.8838 150.307 44.8319 150.359 44.7801C150.203 44.469 150.099 44.1406 149.874 43.7258L149.857 43.7431ZM133.734 12.7894C134.426 13.256 135.083 13.7918 135.723 14.3276C136.761 15.1917 137.764 16.1077 138.854 16.92C139.2 17.1792 140.256 17.9743 141.086 18.6137C140.844 18.873 140.619 19.1322 140.394 19.4087C139.789 20.2038 139.287 21.1025 138.906 22.0357L136.951 20.1865C137.159 19.6507 137.228 19.0285 137.159 18.389C137.159 18.3545 137.159 18.3199 137.159 18.2681L136.121 18.7693C136.156 19.547 135.861 20.3593 135.152 20.7395C134.927 20.8605 134.737 20.9124 134.477 20.9124L134.512 19.9618C134.166 19.9618 133.699 19.5988 133.699 19.0976C133.699 18.5273 134.062 18.2162 134.512 18.078V16.9718C133.647 17.1274 133.007 17.6459 132.747 18.3545H131.606C131.554 17.5076 131.969 16.7299 132.851 16.4361V15.3127C132.107 15.4682 131.623 15.8312 131.329 16.1595C131.242 16.246 131.173 16.3497 131.087 16.4534H130.222C130.187 15.6411 130.602 14.8979 131.381 14.6386V13.5153C130.896 13.619 130.481 13.8091 130.118 14.1202H129.305C129.305 13.5844 129.634 13.0659 130.066 12.7548C130.447 12.4783 130.931 12.3227 131.415 12.2709C131.571 12.2536 131.727 12.2363 131.882 12.2363C132.09 12.2363 132.298 12.2536 132.488 12.2882C132.938 12.3746 133.37 12.5474 133.751 12.8067L133.734 12.7894ZM131.415 5.8762C132.073 4.75281 132.453 3.31832 132.471 1.83199H135.083C135.1 2.0221 135.118 2.19493 135.118 2.38505C135.118 5.23673 132.834 7.55264 130.014 7.55264H129.824C130.429 7.20698 130.983 6.63665 131.415 5.8762ZM119.496 5.8762C120.153 4.75281 120.534 3.31832 120.551 1.83199H124.098C124.115 3.31832 124.495 4.75281 125.153 5.8762C125.603 6.63665 126.139 7.20698 126.744 7.55264H124.374C123.769 6.93046 123.267 6.08359 122.938 5.08118H121.745C121.433 6.08359 120.932 6.93046 120.309 7.55264H117.887C118.492 7.20698 119.029 6.63665 119.479 5.8762H119.496ZM107.386 5.8762C108.043 4.75281 108.424 3.31832 108.441 1.83199H112.178C112.195 3.31832 112.576 4.75281 113.233 5.8762C113.683 6.63665 114.219 7.1897 114.825 7.55264H112.247C111.642 6.93046 111.14 6.08359 110.811 5.08118H109.618C109.306 6.08359 108.805 6.93046 108.182 7.55264H105.76C106.365 7.20698 106.919 6.63665 107.351 5.8762H107.386ZM95.6047 5.8762C96.2621 4.75281 96.6427 3.31832 96.66 1.83199H100.085C100.103 3.31832 100.483 4.75281 101.141 5.8762C101.59 6.63665 102.127 7.20698 102.732 7.55264H100.31C99.7048 6.93046 99.2031 6.08359 98.8744 5.08118H97.6807C97.3693 6.08359 96.8676 6.93046 96.2448 7.55264H93.9785C94.584 7.20698 95.1376 6.63665 95.5701 5.8762H95.6047ZM85.5881 2.31591C85.5881 2.16037 85.5881 2.00482 85.6054 1.83199H88.2869C88.3042 3.31832 88.6848 4.75281 89.3422 5.8762C89.792 6.63665 90.3283 7.20698 90.9338 7.55264H90.6743C87.9063 7.55264 85.5708 5.15031 85.5708 2.31591H85.5881ZM81.5572 16.92C82.6471 16.1077 83.6505 15.209 84.6885 14.3276C85.3286 13.7918 85.986 13.256 86.678 12.7894C87.0759 12.5128 87.5257 12.34 88.0101 12.2709C88.1831 12.2363 88.3734 12.219 88.5637 12.219C88.7367 12.219 88.9097 12.219 89.1 12.2536C89.5671 12.3227 90.0342 12.461 90.3975 12.7375C90.83 13.0486 91.1414 13.5671 91.1587 14.1202H90.3456C89.9823 13.8091 89.5498 13.6017 89.0827 13.5153V14.6386C89.8785 14.8979 90.2937 15.6411 90.2418 16.4706H89.3768C89.3076 16.3669 89.2211 16.2632 89.1346 16.1768C88.8405 15.8657 88.3388 15.5028 87.6122 15.33V16.4534C88.4772 16.7472 88.8924 17.5249 88.8578 18.389H87.716C87.4565 17.6632 86.8164 17.1447 85.9514 16.9891V18.0952C86.4012 18.2335 86.7645 18.5446 86.7645 19.1149C86.7645 19.6161 86.3147 19.9791 85.9514 19.9791L85.986 20.9296C85.7438 20.9296 85.5362 20.8605 85.3113 20.7568C84.602 20.3766 84.3252 19.547 84.3425 18.7866L83.3045 18.2853C83.3045 18.2853 83.3045 18.3545 83.3045 18.4063C83.218 19.0458 83.3045 19.668 83.5121 20.2038L81.5572 22.0703C81.1766 21.137 80.6749 20.2556 80.0695 19.4433C79.8446 19.1668 79.6197 18.8902 79.3775 18.6483C80.2251 18.0088 81.2631 17.2138 81.6091 16.9546L81.5572 16.92ZM49.4141 67.7145C49.2584 66.6603 49.4314 62.9099 49.5525 60.7668C49.6044 59.9027 50.2618 59.1941 51.1095 59.0731C52.0783 58.9348 53.3239 58.7447 54.2408 58.5546C55.694 58.2435 57.0953 57.604 57.424 56.567C57.7008 55.6683 57.5451 55.5646 57.4586 54.6486C57.3894 53.94 57.3029 53.2142 57.251 52.5056C57.251 52.4019 57.251 52.2809 57.2337 52.1772C57.2337 51.7624 57.2337 51.3303 57.2856 50.9155C57.1991 50.9674 57.1126 51.0192 57.0261 51.0711C56.7493 51.2266 56.4552 51.3303 56.1611 51.4167C55.8324 51.5031 55.5037 51.5377 55.1577 51.5377C54.4311 51.5377 53.7218 51.3476 53.0817 50.9501C51.9226 50.2415 51.2479 49.0144 51.2825 47.6663C51.3344 45.264 52.7011 43.5703 54.0159 41.9284C54.6387 41.1507 55.2961 40.3384 55.7805 39.4742C57.3202 36.709 57.6834 33.7017 56.8531 30.5389C56.4898 29.1563 55.6594 27.9119 54.7771 26.5812C54.4484 26.0799 54.137 25.6133 53.8256 25.0948C53.8256 25.0948 53.1336 25.4059 52.6838 25.3022C52.5627 25.2677 52.4416 25.2158 52.3032 25.1294C51.2479 24.4726 50.1234 21.7938 50.1753 18.5792C50.2099 16.0213 50.8154 13.8955 52.0091 12.1499C51.7496 12.8758 51.5247 13.6362 51.3863 14.3967C51.2306 15.2263 51.1787 16.0904 51.2306 16.92C51.2825 17.7669 51.4555 18.5792 51.7323 19.3396C51.6112 18.5273 51.6112 17.715 51.715 16.92C51.8188 16.125 52.0264 15.3645 52.3205 14.6386C52.58 13.9992 52.8914 13.377 53.2547 12.7894C53.0125 14.2757 53.0125 15.7793 53.4104 17.6459C53.6526 18.8038 54.1543 19.9099 54.5868 20.8778C54.9847 21.7592 55.2788 22.4678 55.3999 23.0554C55.5383 23.6949 55.4518 24.1788 55.0193 24.5763C55.0885 24.6973 55.175 24.8183 55.2442 24.9393C55.4345 25.2331 55.6421 25.5442 55.8497 25.8553C56.7493 27.2206 57.6834 28.6205 58.0986 30.2106C58.9982 33.6672 58.583 37.0892 56.905 40.1137C56.3687 41.0815 55.6767 41.9284 55.0193 42.758C53.791 44.2962 52.6146 45.7479 52.5627 47.7182C52.5454 48.6169 52.9779 49.3946 53.7391 49.8613C54.5349 50.3452 55.4864 50.3798 56.2995 49.9822C56.3168 49.9822 56.3514 49.965 56.3687 49.9477C56.9915 49.6193 57.545 48.9971 57.8737 48.2712C57.8737 48.2367 57.891 48.2021 57.9083 48.1675C58.3062 47.0096 58.7906 45.8689 59.3442 44.7801C60.9704 41.5309 62.9945 38.4891 64.2747 35.0671C65.3819 32.129 64.8802 28.5514 64.8802 28.5514C63.7557 29.0008 62.1122 29.0526 62.1122 29.0526C62.1641 25.3886 54.2927 16.8854 59.0847 6.51567C59.4134 7.05144 59.8459 7.60449 60.4514 8.17483L60.8839 8.58962V7.086C58.3754 4.49356 59.5345 2.0221 60.4687 1.19252C61.178 1.45177 61.9911 2.2295 62.5966 3.18006L63.6519 2.8344C63.3924 2.40233 63.0983 1.98754 62.7696 1.60731C62.8734 1.53818 62.9772 1.48633 63.0983 1.46905C63.1502 1.46905 63.2194 1.46905 63.3059 1.46905C64.8802 1.46905 70.7967 2.8344 71.3849 3.14549L71.852 4.73552C73.4609 5.1676 74.9487 6.03174 76.004 6.60208C75.831 7.05144 75.3466 8.07113 74.3778 7.96743C74.3778 7.96743 75.3293 8.53777 75.139 9.43648C74.8276 10.0932 74.4297 10.7673 73.928 11.3549L72.9592 10.387C71.8174 9.33278 70.814 8.95256 69.9836 8.95256C68.8937 8.95256 68.1326 9.64388 67.8212 10.4389C67.3368 11.6487 67.3887 12.6165 67.5617 13.2387C67.7001 13.7054 68.0807 14.0856 68.9457 14.1547C69.1013 14.1547 69.2743 14.172 69.4473 14.172C71.2292 14.172 73.5647 13.5325 73.5647 13.5325C73.928 15.4682 74.1529 15.8485 71.3849 15.8485C70.7448 15.8485 69.949 15.8312 68.9629 15.7966L71.7309 17.0583C72.0423 17.041 72.3364 17.0237 72.6305 17.0237C74.6719 17.0237 76.2981 17.6286 77.5783 18.6137C77.8724 18.8384 78.1492 19.0804 78.4087 19.3396C79.3948 20.342 80.1041 21.5864 80.6057 22.8999C80.7441 23.2801 80.8652 23.6603 80.969 24.0406C81.5053 26.0454 81.5745 28.1366 81.2977 29.8131C81.0901 29.5538 80.8825 29.3119 80.6403 29.0699L80.5192 28.9489C79.6889 28.1366 78.2876 26.7367 76.6095 25.8726C75.9867 25.3195 75.3985 24.7664 74.8276 24.1615C73.5993 22.8653 72.5094 21.4308 71.6963 19.8062C72.198 21.5518 73.0457 23.2283 74.0491 24.7664C74.447 25.3713 74.8622 25.959 75.2947 26.5293C75.6753 26.6849 76.0213 26.8577 76.3673 27.0651C77.8378 27.8947 79.0834 29.1736 79.81 29.8995C80.2424 30.3143 80.5885 30.7809 80.9171 31.2648C81.1766 31.6451 81.4015 32.0253 81.6437 32.4228C81.8167 32.7166 82.007 33.0277 82.18 33.3215C82.9585 34.5832 83.9965 35.8275 84.5847 35.8275C84.7923 35.8275 84.948 35.672 85.0172 35.3263C85.3286 33.7536 86.3147 33.0623 87.3873 33.0623C87.889 33.0623 88.408 33.2178 88.8751 33.4943L87.8025 34.4967C88.4426 35.2572 87.7679 36.4151 87.0759 36.7954C86.332 37.1929 86.7299 37.8842 87.2662 37.8842C87.4392 37.8842 87.6122 37.8151 87.7852 37.6595C88.235 37.2447 88.8232 37.0373 89.3941 37.0373C90.6051 37.0373 91.7987 37.9706 91.643 39.9063L90.7089 39.3878C90.3975 40.4075 89.6709 40.8396 88.9962 40.8396C88.6848 40.8396 88.3907 40.7532 88.1658 40.5803C87.6468 40.2001 87.1105 39.8026 86.7472 39.8026C86.6261 39.8026 86.505 39.8544 86.4358 39.9581C86.159 40.3384 86.4358 40.7186 87.4392 41.2025C89.1865 42.0667 89.4633 44.6073 86.8856 45.0912L86.6088 43.5184C86.4877 43.553 86.3666 43.5703 86.2455 43.5703C85.5016 43.5703 84.9826 42.9135 84.8961 42.4296C84.775 41.721 84.8096 41.2889 84.775 40.8396C84.7577 40.4421 84.4982 40.2692 84.2387 40.2692C83.9273 40.2692 83.6159 40.4939 83.5813 40.8914C83.5294 41.6346 83.5467 42.6024 82.2319 42.8271L81.8167 44.1579C80.5711 43.7258 79.3256 42.2913 81.5918 39.8717C81.6264 38.6446 80.3289 37.936 78.5125 36.9163C78.2011 36.7435 77.8724 36.5534 77.5437 36.3633C77.3707 36.2596 77.1977 36.1559 77.0247 36.0522C76.6614 35.8275 75.2601 34.8078 74.0318 33.7536L72.9592 34.3239C73.1841 34.514 73.4263 34.7214 73.7031 34.9634C74.8103 35.8794 76.004 36.7781 76.4538 37.0373C76.5403 37.0892 76.6268 37.141 76.7133 37.1929C75.5369 38.2817 74.274 39.2323 73.1322 39.9927C72.6651 40.3038 72.2153 40.5976 71.8001 40.8569C71.3849 41.1161 70.987 41.3408 70.6583 41.5309C69.7414 42.0494 69.0149 42.6888 68.4613 43.4147C68.098 43.8814 67.8212 44.3826 67.6136 44.8838C67.406 45.3677 67.2676 45.8689 67.1984 46.3701C67.1638 46.5429 67.1465 46.6985 67.1292 46.8713C67.0946 47.338 67.1119 47.7873 67.1638 48.2194C67.233 48.686 67.2849 49.1527 67.3541 49.6193C67.4406 50.3279 67.5098 51.0192 67.5617 51.7278C67.6309 52.5574 67.6655 53.3697 67.6655 54.182C67.6655 56.6707 67.2849 58.4509 65.5549 60.1446C64.3093 61.3717 62.562 61.6655 60.8666 61.7865C59.9843 61.8383 57.5105 62.2013 55.8324 62.4605C54.8636 62.5988 54.137 63.4111 54.0851 64.3962C54.0159 65.727 54.0332 67.4726 54.5003 68.0602L56.7839 67.7491C57.3202 66.9541 58.6003 66.3319 59.8459 66.3319C60.8147 66.3319 61.7662 66.7121 62.3025 67.7145C62.4582 68.0084 62.5966 68.354 62.6658 68.7688C62.6831 68.8898 62.7004 69.0108 62.7177 69.149L61.9911 68.8552L61.5759 68.6824C61.5586 68.7861 61.5413 68.8725 61.524 68.9589C61.2818 69.9613 60.7628 70.3243 60.14 70.3243C59.8459 70.3243 59.5345 70.2378 59.2058 70.1169C59.1712 70.1169 59.1366 70.0823 59.0847 70.065C58.4965 69.8231 58.0813 69.6329 57.77 69.6329C57.5624 69.6329 57.4067 69.7194 57.2683 69.9613C57.078 70.2897 57.2683 70.5662 57.5969 70.7909C57.7007 70.86 57.8392 70.9292 57.9603 70.981C59.7075 71.7069 60.2092 73.4006 58.6003 75.1635L57.3894 74.0919C57.1991 74.2129 57.0088 74.2648 56.8358 74.2648C56.2476 74.2648 55.7113 73.729 55.5729 73.3315C55.348 72.7266 55.5902 72.0353 55.6767 71.5341C55.694 71.3958 55.7113 71.2575 55.694 71.1538C55.6594 70.8773 55.4691 70.6526 55.2442 70.5317C55.1404 70.4798 55.0366 70.4452 54.9155 70.4452C54.8117 70.4452 54.7079 70.4625 54.6041 70.5144C54.5003 70.5662 54.4138 70.6354 54.3446 70.7218C54.1889 70.9119 54.1543 71.1711 54.1543 71.4304C54.1543 71.5686 54.1543 71.7242 54.137 71.8624C54.1024 72.1044 54.0332 72.3291 53.8256 72.5192C53.7218 72.6056 53.618 72.6747 53.5142 72.7439C53.445 72.7784 53.1163 72.934 53.099 73.0031L52.9433 74.6968C51.7323 74.403 50.4002 73.8154 50.7289 71.9316C50.7808 71.6205 50.8846 71.2575 51.0576 70.86C51.1095 70.7218 51.1787 70.5662 51.2652 70.4107C50.2099 69.8922 49.5179 68.9071 49.3449 67.7491L49.4141 67.7145ZM70.0355 12.0116C70.6583 12.0116 71.2984 12.1672 71.9731 12.4091C72.6997 11.9598 72.8554 11.3895 73.1322 11.3549C73.3398 11.3376 73.4263 11.9252 73.3225 12.4783C73.3225 12.4783 72.3018 12.703 71.6271 12.8067C70.9524 12.9276 70.1912 13.0313 69.5165 13.0313C69.3608 13.0313 69.2224 13.0313 69.1013 13.0313C68.7727 12.9968 68.6689 12.9276 68.6689 12.9104C68.6689 12.9104 68.6689 12.9104 68.6689 12.8931C68.6343 12.7894 68.5997 12.6338 68.5997 12.4264C69.0494 12.1499 69.5338 12.0462 70.0528 12.0462L70.0355 12.0116ZM68.7208 11.2685C68.7553 11.1129 68.8246 10.9401 68.8938 10.7673C68.963 10.5772 69.2743 9.97225 70.0528 9.97225C70.5026 9.97225 71.2465 10.1624 72.2672 11.1129L72.6824 11.545C71.7655 11.2512 70.8659 11.0092 70.0355 11.0092C69.5684 11.0092 69.1359 11.0956 68.7035 11.2685H68.7208ZM82.1627 60.1446L83.9965 59.5224L84.9134 59.2113L85.4324 59.0385C86.2628 57.8633 87.6122 57.0164 88.8924 57.0164C90.1726 57.0164 91.3316 57.8114 91.9198 59.8681L90.6224 59.5916C90.6224 60.9223 90.1899 61.268 89.5152 61.268C89.3768 61.268 89.2211 61.268 89.0654 61.2334C88.8751 61.1989 88.6848 61.1643 88.4772 61.1297C87.8371 61.0088 87.37 60.8705 87.0413 60.8705C86.7299 60.8705 86.5223 60.9915 86.4012 61.3199C86.2282 61.8211 86.7126 62.1322 87.3354 62.2877C88.8578 62.6334 89.7228 63.7049 89.446 65.1394C89.3768 65.4678 89.273 65.7961 89.0827 66.1591C89.0135 66.3146 88.927 66.4529 88.8232 66.6084L87.3181 65.6924C87.0932 65.9171 86.8337 66.0035 86.5742 66.0035C86.0033 66.0035 85.4497 65.5887 85.2421 65.2258C85.2248 65.1912 85.2075 65.1567 85.1902 65.1221C85.0172 64.7764 84.9999 64.3789 84.9999 64.016C84.9999 63.8086 84.9999 63.6012 84.9999 63.4111C84.9999 63.1864 84.9999 62.9963 84.948 62.858C84.8615 62.5815 84.6366 62.3914 84.3944 62.2877C84.3079 62.2531 84.2041 62.2359 84.1176 62.2359C83.9619 62.2359 83.8062 62.2877 83.6678 62.3914C83.3045 62.6506 83.3045 63.0482 83.3564 63.4457C83.4083 63.8605 83.4775 64.2407 83.2526 64.5863C83.2526 64.6209 83.218 64.6382 83.2007 64.6727C83.1142 64.7764 83.0104 64.8801 82.9066 64.9666C82.8374 65.0184 82.526 65.2431 82.526 65.3295L82.6817 67.1615C81.7129 67.0924 80.6403 66.885 80.1213 66.0035C80.0176 65.8307 79.9311 65.606 79.8792 65.3813C79.6889 64.7073 79.6024 63.8777 79.4986 62.7198C79.0661 62.5469 78.6855 62.3223 78.3568 62.0285C77.9416 61.6655 77.6129 61.2162 77.4226 60.6458C76.9036 59.0904 76.4538 55.9794 77.1458 52.6957C77.1458 52.6957 70.1739 51.8315 68.6689 51.0711C68.5651 49.9822 68.444 48.928 68.3056 47.9774C68.2883 47.8046 68.271 47.6318 68.271 47.4417C68.5997 47.6318 68.9803 47.7355 69.3608 47.7355C69.7068 47.7355 70.0182 47.6491 70.3296 47.4935C70.9351 47.1824 71.3503 46.6121 71.4714 45.938C71.5579 45.506 71.506 45.0566 71.333 44.6591C71.333 44.6591 71.333 44.6591 71.333 44.6418C71.8001 44.5554 72.3191 44.4863 72.89 44.4171C73.8415 44.3134 74.7065 44.2616 75.5023 44.2616C82.9412 44.2616 83.5467 48.3404 83.5467 48.3404C84.7058 52.6784 81.2285 54.6314 81.2285 54.6314C81.2285 54.6314 80.4327 58.5892 82.1973 60.0928L82.1627 60.1446ZM63.8422 65.7616C63.8422 65.8826 63.9114 66.8158 64.5688 67.8182C64.2055 67.7318 63.8768 67.68 63.5654 67.6454C62.9772 66.0899 61.6624 65.174 59.9151 65.174C58.5311 65.174 57.1126 65.7616 56.2822 66.6603L55.2788 66.7985C55.2096 66.3665 55.1577 65.6233 55.2269 64.3962C55.2442 63.9296 55.6075 63.5494 56.0573 63.4802C58.6003 63.1 60.3649 62.858 61.005 62.8235C62.8042 62.7025 64.8456 62.3741 66.368 60.8705C67.3195 59.9372 67.9769 58.9002 68.3402 57.7423C68.6516 56.7572 68.79 55.6511 68.79 54.1302C68.79 53.5253 68.7727 52.9203 68.7381 52.3154C68.9976 52.4019 69.3089 52.4883 69.6549 52.5747C70.4161 52.7648 71.4541 52.9722 72.717 53.1796C73.8761 53.3697 75.0352 53.5425 75.8483 53.6462C75.4331 56.6707 75.8483 59.436 76.3673 61.0088C76.7133 62.0457 77.4226 62.8753 78.4433 63.4457C78.4433 64.5518 78.7893 65.6579 78.7893 65.6924C78.0108 65.2949 76.8171 64.8456 75.4331 64.8456C74.8622 64.8456 74.2913 64.932 73.755 65.0703C73.409 65.174 73.0803 65.2776 72.7516 65.3641C71.5406 65.727 70.4161 66.0899 69.2224 66.0899C67.9596 66.0899 66.7659 65.6924 65.4857 64.811L63.7038 63.6012L63.7903 65.7616H63.8422ZM70.1912 44.9356C70.5718 45.5233 70.3642 46.2837 69.7933 46.5775C69.6376 46.6639 69.4819 46.6985 69.3262 46.6985C68.9457 46.6985 68.5824 46.4911 68.3748 46.1627C68.4094 45.9726 68.4786 45.7652 68.5305 45.5751C68.7034 45.0566 68.963 44.5554 69.3262 44.0715C69.7933 43.4493 70.4161 42.879 71.2465 42.4123C71.3676 42.3432 71.506 42.2568 71.6617 42.1704C71.1081 42.8444 70.7794 43.3283 70.5718 43.7431C70.3469 44.1579 70.2431 44.4863 70.0874 44.7974C70.1393 44.8492 70.1739 44.9011 70.2085 44.9529L70.1912 44.9356ZM77.1804 38.2126C77.3707 38.0397 77.561 37.8669 77.7513 37.6941C77.8897 37.7632 78.0108 37.8496 78.1492 37.9188C79.1699 38.4891 80.1387 39.0421 80.4501 39.5088C79.7062 40.4248 79.0488 41.6692 79.3775 42.9654C79.4467 43.2419 79.5678 43.5184 79.7235 43.7604C78.599 43.432 77.215 43.2246 75.5023 43.2246L72.025 43.4666C72.3191 43.0518 72.7343 42.5506 73.3744 41.8938L75.7618 39.4051H75.7791V39.3878C76.2635 39.0076 76.7306 38.6101 77.215 38.1953L77.1804 38.2126ZM61.7489 75.1981C59.967 77.0992 57.5624 77.9806 55.0885 77.9806C50.85 77.9806 46.4732 75.3709 44.9335 70.7736C44.9335 70.7736 47.0267 71.4822 49.7255 71.7933C49.6044 72.5365 49.6736 73.1932 49.9504 73.7809C50.5386 75.0252 51.8361 75.4746 52.753 75.7165L53.9813 76.0276L54.1024 74.766L54.2235 73.5907C54.3273 73.5216 54.4484 73.4352 54.5522 73.3488C54.5695 73.4525 54.6041 73.5562 54.6387 73.6599C54.9328 74.4722 55.867 75.3017 56.9223 75.3017C57.0261 75.3017 57.1299 75.3018 57.2337 75.2845L57.9775 75.9412L58.7733 76.6498L59.4999 75.8548C60.5206 74.7487 60.9358 73.5043 60.6763 72.3637C60.5898 72.0007 60.4514 71.6551 60.2438 71.344C60.8839 71.344 61.4548 71.102 61.8873 70.6526C62.043 70.4798 62.1987 70.2897 62.3025 70.065H62.3717L64.0498 70.7736L63.8595 68.9762C63.8595 68.9762 63.8595 68.8552 63.8422 68.7861C64.5861 68.9071 65.4857 69.1836 66.6275 69.6157C66.7832 69.7021 66.9562 69.7712 67.1119 69.8231C67.1984 69.8576 67.2676 69.8922 67.3541 69.9095C66.9908 70.1169 66.6275 70.3243 66.2988 70.5317C64.6553 71.5859 63.5308 72.7266 62.9426 73.9191C62.5793 74.2993 62.1814 74.7141 61.7489 75.1808V75.1981ZM74.5681 71.4477C73.3744 72.4501 71.7136 72.6575 70.2085 72.7612C65.6414 73.1068 63.773 77.2202 63.773 77.2202C63.3924 76.2696 63.4616 75.3709 63.8249 74.5586C64.3785 73.3142 65.6241 72.2427 66.9389 71.4131C69.1359 70.0305 71.5579 69.2527 71.5579 69.2527C71.1254 69.2873 70.7275 69.3046 70.3469 69.3046C69.3954 69.3046 68.617 69.1836 67.9769 68.9935C67.6136 68.8898 67.2849 68.7515 67.0081 68.6133C64.984 67.5763 64.9148 65.727 64.9148 65.727C66.5237 66.8158 67.9423 67.1961 69.257 67.1961C70.9524 67.1961 72.4921 66.5912 74.0664 66.1418C74.5335 66.0035 75.0006 65.9517 75.4504 65.9517C76.7479 65.9517 77.8724 66.4356 78.5125 66.7813C77.6994 67.2825 77.0074 67.9219 76.4711 68.7342C76.2635 69.0626 76.0732 69.391 75.9175 69.7021C75.3985 70.4107 75.0698 71.0329 74.5508 71.4477H74.5681ZM82.1627 69.8749C80.5711 70.2378 79.0834 71.1538 78.5817 72.7957C78.2876 73.7463 78.3395 74.7833 78.3914 75.7684C78.3914 75.7684 75.139 73.9191 76.869 70.2724C77.0074 69.9786 77.1977 69.6502 77.4053 69.3219C77.8205 68.6824 78.3222 68.233 78.7893 67.8874C78.9623 67.7837 79.1353 67.6973 79.3256 67.5936L79.81 67.3516C80.6403 68.0602 81.7648 68.233 82.5952 68.2849L83.8581 68.3713L83.7543 67.1096L83.6505 65.7961C83.7889 65.6752 83.9273 65.5369 84.0657 65.3641C84.0657 65.3641 84.0657 65.3468 84.083 65.3295C84.1349 65.485 84.2041 65.6406 84.2906 65.7789C84.6712 66.4356 85.5708 67.0924 86.5569 67.0924C86.8164 67.0924 87.0586 67.0405 87.3008 66.9541L87.8717 67.2998C87.8717 67.2998 87.7852 67.3689 87.7506 67.4034C85.8995 69.1145 84.5155 69.3046 82.1627 69.8403V69.8749ZM131.242 75.8721C131.242 75.8721 132.177 71.7415 130.187 70.428C127.004 68.354 125.309 70.1342 121.745 67.4207C121.71 67.3689 121.658 67.3343 121.624 67.2825C119.946 65.5887 118.095 64.5172 116.416 63.9469C115.257 64.137 113.977 64.2752 112.559 64.3444C112.835 64.3444 113.112 64.3789 113.406 64.4135C113.908 64.4653 114.444 64.5518 114.998 64.6727C115.846 64.8629 116.745 65.1567 117.645 65.5887C118.735 66.1245 119.825 66.9887 120.845 68.0256C120.914 68.0948 120.966 68.1466 121.018 68.2157C123.233 70.6181 122.644 72.9686 122.644 72.9686C122.644 72.9686 119.807 69.2009 115.569 69.2009C113.545 69.2009 111.797 69.8749 110.898 70.3243L110.24 70.6699L109.583 70.3243C108.683 69.8922 106.936 69.2009 104.912 69.2009C100.674 69.2009 97.8364 72.9686 97.8364 72.9686C97.8364 72.9686 97.2309 70.6181 99.4626 68.2157C99.5145 68.1466 99.5837 68.0948 99.6356 68.0256C100.656 66.9887 101.746 66.1072 102.836 65.5887C103.736 65.1567 104.635 64.8629 105.483 64.6727C106.037 64.5518 106.573 64.4653 107.075 64.4135C107.369 64.3789 107.663 64.3617 107.94 64.3444C106.521 64.2752 105.241 64.137 104.064 63.9469C102.386 64.5172 100.535 65.5715 98.8571 67.2825C98.8052 67.3343 98.7706 67.3689 98.736 67.4207C95.1722 70.1342 93.4768 68.354 90.2937 70.428C88.3042 71.7242 89.2384 75.8721 89.2384 75.8721C89.2384 75.8721 85.0345 72.692 88.8405 68.4923C89.6363 67.6108 90.6051 66.885 91.3144 66.401C91.9025 66.0035 92.3177 65.7789 92.3177 65.7789C92.3177 65.7789 92.0236 65.7443 91.5739 65.6752C91.3317 65.6406 91.0376 65.5715 90.7262 65.5023C90.6743 65.5023 90.6051 65.4678 90.5359 65.4505C90.6916 64.7073 90.6397 63.9814 90.3802 63.342C90.2764 63.0827 90.1207 62.8235 89.9477 62.5988C91.5911 63.0482 93.6152 63.3938 95.9161 63.3938C96.7984 63.3938 97.7153 63.2037 98.6841 63.1C99.0128 63.0654 99.3761 63.0481 99.7394 63.0481C99.8605 63.0481 99.9816 63.0481 100.103 63.0481C99.2031 62.7716 98.4073 62.4605 97.6807 62.1494C97.0925 62.2359 96.5043 62.3223 95.9161 62.3223C94.0996 62.3223 92.4734 62.0976 91.0722 61.7692C91.3317 61.51 91.4874 61.2162 91.5911 60.8878L91.7468 60.9223L93.5114 61.3026L93.0097 59.557C92.0755 56.2732 89.8612 55.9276 88.9443 55.9276C87.4738 55.9276 85.8822 56.7744 84.8269 58.1052L82.5779 58.8657C82.0762 57.9497 82.1108 56.3251 82.2492 55.3054C82.6471 55.0116 83.218 54.5104 83.737 53.7672C84.5328 52.6438 85.3286 50.76 84.6366 48.133C84.5674 47.7873 84.2041 46.4565 82.7855 45.2813L83.045 44.4344L83.2699 43.6913C83.6159 43.553 83.8927 43.3456 84.1003 43.1209C84.4117 43.7604 85.0172 44.348 85.7784 44.5381L85.8995 45.1949L86.0898 46.3355L87.2143 46.1282C88.7713 45.8343 89.8093 44.8665 89.9996 43.553C90.0861 42.9654 89.9823 42.3605 89.7228 41.8074C90.311 41.6692 90.8473 41.3408 91.2452 40.8396L92.7156 41.6692L92.854 39.9063C92.9751 38.3681 92.4215 37.4003 91.9371 36.8818C91.3144 36.2077 90.4148 35.8275 89.4806 35.8275C89.3768 35.8275 89.2903 35.8275 89.1865 35.8275C89.2038 35.7411 89.2384 35.6547 89.2557 35.5683C89.3076 35.2745 89.3076 34.9807 89.2557 34.6869L89.7574 34.2202L90.8646 33.1832L89.5671 32.4055C88.9097 32.008 88.2004 31.8006 87.4911 31.8006C86.3147 31.8006 84.9653 32.4055 84.2906 34.0301C84.0138 33.7017 83.6505 33.2351 83.2526 32.5956C83.0969 32.3364 82.9412 32.0771 82.7855 31.8179C82.6125 31.5241 82.4222 31.213 82.2319 30.9192C82.8028 28.7761 82.7855 25.838 81.9378 23.1073L84.0657 21.0852C84.2733 21.3099 84.5328 21.5173 84.8096 21.6555C85.2075 21.8629 85.5708 21.9666 85.986 21.9666H86.0033H87.1278V20.584C87.1278 20.584 87.2143 20.5148 87.2489 20.4803C87.5603 20.1865 87.7506 19.8235 87.8198 19.4087H88.8578L89.8958 19.426L89.9477 18.389C89.9477 18.078 89.9477 17.7841 89.8785 17.4903H90.2591H91.2971L91.349 16.4534C91.3663 15.9867 91.2971 15.5374 91.1414 15.1399H91.176H92.2831L92.2485 14.0337C92.2312 13.1696 91.7814 12.34 91.0549 11.8215C90.4148 11.3549 89.6882 11.1821 89.1173 11.1302V8.6069H131.398V11.1129C130.827 11.1648 130.066 11.3376 129.409 11.8215C128.682 12.3573 128.232 13.1869 128.215 14.0337L128.18 15.1399H129.288H129.322C129.166 15.5374 129.08 15.9867 129.115 16.4534L129.166 17.4903H130.204H130.585C130.516 17.7669 130.499 18.078 130.516 18.389L130.568 19.426H131.606L132.644 19.4087C132.713 19.8062 132.903 20.1865 133.215 20.4803C133.249 20.5148 133.301 20.5494 133.336 20.584V21.9666H134.46H134.477C134.893 21.9666 135.256 21.8629 135.654 21.6555C135.931 21.5 136.19 21.3099 136.398 21.0852L138.526 23.1073C137.678 25.838 137.643 28.7761 138.232 30.9192C138.041 31.213 137.851 31.5241 137.678 31.8179C137.522 32.0771 137.367 32.3364 137.211 32.5956C136.83 33.2178 136.45 33.719 136.173 34.0474C135.498 32.4055 134.149 31.8006 132.972 31.8006C132.263 31.8006 131.554 32.008 130.896 32.4055L129.599 33.1832L130.706 34.2202L131.208 34.6869C131.156 34.9634 131.156 35.2572 131.208 35.5683C131.208 35.6547 131.242 35.7411 131.277 35.8275C131.173 35.8275 131.087 35.8275 130.983 35.8275C130.031 35.8275 129.132 36.2077 128.526 36.8818C128.042 37.4176 127.488 38.3681 127.609 39.9063L127.748 41.6692L129.218 40.8396C129.616 41.3235 130.152 41.6519 130.741 41.8074C130.481 42.3605 130.377 42.9481 130.464 43.553C130.654 44.8838 131.692 45.8516 133.249 46.1282L134.374 46.3355L134.564 45.1949L134.685 44.5381C135.464 44.3307 136.069 43.7604 136.363 43.1209C136.571 43.3456 136.848 43.5357 137.194 43.6913L137.384 44.3134L137.418 44.4344L137.678 45.2813C136.259 46.4738 135.896 47.7873 135.827 48.133C135.135 50.76 135.931 52.6438 136.726 53.7672C137.245 54.5104 137.816 55.0116 138.214 55.3054C138.353 56.3251 138.387 57.9497 137.886 58.8657L135.637 58.1052C134.564 56.7744 132.99 55.9276 131.519 55.9276C130.602 55.9276 128.388 56.2732 127.454 59.557L126.952 61.3026L128.717 60.9223L128.872 60.8878C128.976 61.1989 129.132 61.51 129.391 61.7692C127.99 62.0803 126.364 62.3223 124.547 62.3223C123.959 62.3223 123.371 62.2359 122.783 62.1494C122.056 62.4605 121.26 62.7716 120.361 63.0481C120.482 63.0481 120.586 63.0481 120.707 63.0481C121.07 63.0481 121.433 63.0654 121.762 63.1C122.731 63.221 123.648 63.3938 124.53 63.3938C126.831 63.3938 128.855 63.0482 130.498 62.5988C130.325 62.8235 130.17 63.0654 130.066 63.342C129.807 63.9814 129.755 64.7073 129.91 65.4505C129.841 65.4505 129.789 65.485 129.72 65.5023C129.409 65.5715 129.115 65.6406 128.872 65.6752C128.405 65.7616 128.128 65.7789 128.128 65.7789C128.128 65.7789 128.544 66.0035 129.132 66.401C129.841 66.885 130.793 67.6108 131.606 68.4923C135.429 72.692 131.208 75.8721 131.208 75.8721H131.242ZM142.038 75.7684C142.089 74.7833 142.124 73.7463 141.847 72.7957C141.346 71.1538 139.858 70.2551 138.266 69.8749C135.896 69.3219 134.529 69.149 132.678 67.438C132.644 67.4034 132.592 67.3689 132.557 67.3343L133.128 66.9887C133.353 67.0751 133.612 67.1269 133.872 67.1269C134.875 67.1269 135.775 66.4702 136.138 65.8134C136.225 65.6579 136.294 65.5196 136.346 65.3641C136.346 65.3641 136.346 65.3813 136.363 65.3986C136.502 65.5715 136.64 65.7097 136.778 65.8307L136.675 67.1442L136.571 68.4059L137.834 68.3194C138.664 68.2676 139.771 68.0948 140.619 67.3862L141.103 67.6281C141.294 67.7318 141.467 67.8182 141.64 67.9219C142.124 68.2676 142.608 68.717 143.024 69.3564C143.248 69.6848 143.421 69.9959 143.56 70.307C145.29 73.9537 142.038 75.803 142.038 75.803V75.7684ZM156.639 77.2202C156.639 77.2202 154.787 73.1068 150.203 72.7612C148.698 72.6402 147.054 72.4328 145.843 71.4477C145.324 71.0156 144.996 70.3934 144.477 69.7021C144.321 69.3737 144.131 69.0626 143.923 68.7342C143.387 67.9219 142.712 67.2652 141.882 66.7813C142.522 66.4356 143.629 65.9517 144.944 65.9517C145.394 65.9517 145.843 66.0035 146.328 66.1418C147.919 66.5912 149.442 67.1961 151.137 67.1961C152.452 67.1961 153.871 66.8331 155.479 65.727C155.479 65.727 155.393 67.5763 153.386 68.6133C153.109 68.7515 152.781 68.8898 152.417 68.9935C151.777 69.1836 150.982 69.3046 150.047 69.3046C149.667 69.3046 149.269 69.2873 148.836 69.2527C148.836 69.2527 151.258 70.0305 153.455 71.4131C154.787 72.26 156.016 73.3142 156.569 74.5586C156.933 75.3709 157.002 76.2523 156.621 77.2202H156.639ZM165.34 77.9806C162.867 77.9806 160.445 77.0992 158.68 75.1981C158.247 74.7487 157.867 74.3166 157.486 73.9364C156.898 72.7266 155.774 71.6032 154.13 70.5489C153.801 70.3415 153.455 70.1342 153.075 69.9268C153.161 69.8922 153.23 69.8576 153.317 69.8403C153.49 69.7712 153.646 69.7021 153.801 69.6329C154.943 69.1836 155.843 68.9243 156.587 68.8034C156.587 68.8725 156.569 68.9243 156.569 68.9935L156.379 70.7909L158.057 70.0996H158.126C158.247 70.307 158.386 70.4971 158.542 70.6699C158.974 71.1193 159.545 71.3612 160.185 71.3612C159.977 71.6723 159.839 72.018 159.753 72.3809C159.493 73.5216 159.926 74.766 160.929 75.8721L161.656 76.6671L162.451 75.9585L163.195 75.3017C163.299 75.3017 163.403 75.319 163.507 75.319C164.562 75.319 165.496 74.4895 165.79 73.6772C165.825 73.5735 165.859 73.4698 165.877 73.3661C165.98 73.4525 166.102 73.5389 166.205 73.608L166.326 74.7833L166.448 76.0449L167.676 75.7338C168.593 75.5091 169.89 75.0425 170.478 73.7981C170.755 73.2105 170.824 72.5538 170.703 71.8106C173.385 71.4995 175.495 70.7909 175.495 70.7909C173.956 75.4055 169.579 77.9979 165.34 77.9979V77.9806ZM71.1427 4.9602C69.5684 5.39228 67.579 4.97749 67.579 4.97749C68.7899 6.17001 69.1878 6.89589 69.1878 6.89589C70.7967 6.96502 71.1427 5.94533 71.1427 4.94292V4.9602ZM149.252 4.9602C149.252 5.94533 149.615 6.98231 151.206 6.91317C151.206 6.91317 151.622 6.18729 152.815 4.99477C152.815 4.99477 150.826 5.39228 149.252 4.97749V4.9602ZM150.203 26.2528C150.48 25.7861 150.757 25.3195 151.033 24.8529C151.483 24.0924 151.898 23.2801 152.262 22.4505C152.608 21.621 152.902 20.7914 153.161 19.9445C153.438 19.1149 153.68 18.2681 153.922 17.4212C153.542 18.2162 153.161 18.9939 152.746 19.7717C152.348 20.5494 151.933 21.3099 151.483 22.0357C151.016 22.7616 150.514 23.4357 149.961 24.0924C149.476 24.68 148.957 25.2849 148.456 25.8726C149.027 25.9071 149.598 26.0281 150.203 26.2355V26.2528ZM68.1326 22.4505C68.4786 23.2801 68.9111 24.0924 69.3608 24.8529C69.6376 25.3195 69.9144 25.7861 70.1912 26.2528C70.7794 26.0454 71.3676 25.9244 71.9385 25.8898C71.4368 25.3022 70.9178 24.6973 70.4334 24.1097C69.8798 23.4357 69.3781 22.7616 68.911 22.053C68.4613 21.3271 68.0461 20.5667 67.6482 19.789C67.2503 19.0112 66.8697 18.2162 66.4718 17.4385C66.714 18.2853 66.9735 19.1149 67.233 19.9618C67.5098 20.7914 67.7866 21.6382 68.1326 22.4678V22.4505ZM67.8731 27.4626C66.541 25.5442 65.2608 23.5912 64.1882 21.5345C63.6 20.4111 63.081 19.2532 62.6658 18.0607C62.2333 16.8681 61.8873 15.6411 61.6105 14.3967C61.7489 15.6756 61.9392 16.9373 62.2333 18.1989C62.5274 19.4606 62.9253 20.6877 63.3924 21.8975C63.8595 23.1073 64.3958 24.2825 64.9494 25.4405C65.3992 26.3565 65.8663 27.2552 66.3334 28.1539C66.7659 28.0156 67.2849 27.791 67.8558 27.4626H67.8731ZM154.026 28.1539C154.511 27.2552 154.978 26.3565 155.41 25.4405C155.981 24.2825 156.517 23.1073 156.967 21.8975C157.434 20.6877 157.815 19.4433 158.126 18.1989C158.42 16.9373 158.628 15.6756 158.749 14.3967C158.472 15.6411 158.126 16.8681 157.694 18.0607C157.261 19.2532 156.742 20.4111 156.171 21.5345C155.099 23.5912 153.819 25.5442 152.487 27.4626C153.057 27.791 153.576 28.0156 154.009 28.1539H154.026Z" fill="white"/>
<path d="M86.0206 43.674V47.1824C86.0206 50.8637 87.2835 53.94 89.3422 56.4115C89.3422 56.4115 89.3768 56.4461 89.3768 56.4634C89.446 56.5498 89.5325 56.6362 89.6017 56.7226C89.6017 56.7399 89.6363 56.7572 89.6536 56.7744C89.7401 56.8781 89.8266 56.9646 89.9131 57.0683C89.9996 57.172 90.1034 57.2584 90.1899 57.3621C90.1899 57.3621 90.1899 57.3621 90.2072 57.3793C90.3283 57.4485 90.4321 57.5349 90.5359 57.6213C90.7435 57.7941 90.9511 58.0015 91.1241 58.2435C92.4562 59.4187 94.0132 60.4039 95.6912 61.2334C95.8815 61.3371 96.0718 61.4408 96.2794 61.5273C99.0474 62.9099 103.096 64.4135 110.171 64.4135C117.247 64.4135 121.295 62.9099 124.063 61.5273C124.271 61.4236 124.461 61.3199 124.651 61.2334C126.312 60.4211 127.834 59.436 129.166 58.2953C129.201 58.2435 129.236 58.1916 129.27 58.1398C129.27 58.1225 129.305 58.1052 129.322 58.0707C129.339 58.0534 129.357 58.0188 129.391 58.0015C129.409 57.967 129.443 57.9497 129.461 57.9151C129.461 57.9151 129.478 57.8806 129.495 57.8806C129.53 57.846 129.564 57.8114 129.599 57.7769C129.599 57.7769 129.599 57.7769 129.616 57.7596C129.651 57.725 129.685 57.6904 129.72 57.6559C129.755 57.6213 129.807 57.5867 129.841 57.5522C129.928 57.4831 130.014 57.4312 130.101 57.3793C130.101 57.3793 130.135 57.3621 130.153 57.3448C132.73 54.7178 134.339 51.313 134.339 47.1479L133.267 47.8392C133.111 51.1575 131.848 54.061 129.478 56.5152C129.391 56.5671 129.305 56.6362 129.218 56.688L129.201 56.7053C129.149 56.7399 129.097 56.7917 129.045 56.8263C129.045 56.8263 129.045 56.8263 129.028 56.8436C128.976 56.8781 128.942 56.93 128.89 56.9818C128.89 56.9818 128.872 56.9991 128.855 57.0164C128.82 57.051 128.769 57.1028 128.734 57.1374C128.734 57.1374 128.699 57.172 128.682 57.1892C128.682 57.1892 128.613 57.2584 128.578 57.3102C128.561 57.3448 128.526 57.3621 128.509 57.3966V57.4312C128.492 57.4485 128.474 57.483 128.457 57.5003C128.44 57.5176 128.423 57.5522 128.405 57.5695C127.246 58.5546 125.914 59.436 124.444 60.1792H124.426L124.201 60.3002C123.994 60.4039 123.803 60.5076 123.63 60.594C121.036 61.8902 117.178 63.3592 110.223 63.3592C103.269 63.3592 99.4107 61.8729 96.8157 60.594C96.6427 60.5076 96.4697 60.4211 96.2448 60.3002L96.0026 60.1792C94.4976 59.4187 93.1482 58.5373 91.9718 57.5349C91.7642 57.2584 91.522 57.0164 91.2625 56.809C91.1414 56.7053 91.0376 56.6362 90.9338 56.567L90.8473 56.4806C90.8473 56.4806 90.7781 56.3942 90.7262 56.3597C90.6397 56.2732 90.5705 56.1868 90.484 56.1004L90.4494 56.0658C90.3802 55.9622 90.311 55.8757 90.2418 55.8066L90.2245 55.7548C88.1831 53.3006 87.1451 50.4316 87.1451 47.1997V45.4887L86.0898 43.6913L86.0206 43.674Z" fill="white"/>
<path d="M130.187 57.3793C132.765 54.7523 134.374 51.3476 134.374 47.1824V45.2986H133.318V47.1824C133.318 50.1032 132.453 52.7648 130.775 55.0634L130.187 57.3793Z" fill="white"/>
<path d="M86.0206 20.2383V32.4574C86.4012 32.5265 86.7645 32.682 87.0759 32.9413V20.4457L86.0206 20.221V20.2383Z" fill="white"/>
<path d="M90.484 17.1274L90.8472 15.9176L90.2072 14.6559H130.187L129.547 17.1274H131.121V18.8211H133.215L133.855 21.2753V32.4574H132.28L130.689 33.2005L131.761 34.5486L131.709 36.1041L130.896 36.5361L128.959 37.1756L128.111 38.5755L128.163 40.4594L129.27 39.9754L129.98 40.7359L131.363 41.5309L131 42.879L131.363 44.3307L132.28 45.2986L133.855 45.7652V48.565L133.215 51.3303L131.485 54.8042L130.187 56.7399L129.391 56.6535L90.2072 17.5422L90.484 17.1274Z" fill="white"/>
<path d="M66.5651 89.1433C65.2161 89.1433 64.213 89.6622 63.5557 90.6999C62.9504 89.6622 62.0165 89.1433 60.7712 89.1433C59.526 89.1433 58.592 89.6276 57.9694 90.5788V89.4027H55.8421V99.2091H57.9694V93.7092C57.9694 92.8618 58.1769 92.2218 58.5747 91.7722C58.9725 91.3398 59.5087 91.115 60.1486 91.115C60.7366 91.115 61.1863 91.3052 61.5149 91.6684C61.8435 92.0489 61.9992 92.5677 61.9992 93.2423V99.1918H64.1265V93.6919C64.1265 92.8272 64.3167 92.1873 64.6972 91.7549C65.0777 91.3225 65.5966 91.115 66.2538 91.115C66.8418 91.115 67.3088 91.3052 67.6547 91.6684C68.0006 92.0489 68.1736 92.5677 68.1736 93.2423V99.1918H70.3009V93.1039C70.3009 91.8932 69.955 90.9247 69.2805 90.1983C68.5714 89.5065 67.672 89.1433 66.5651 89.1433Z" fill="white"/>
<path d="M180.056 89.1433C178.672 89.1433 177.652 89.6448 177.012 90.648V85.4594H174.885V99.1918H177.012V93.934C177.012 92.9828 177.237 92.2737 177.704 91.8067C178.154 91.3398 178.759 91.1149 179.503 91.1149C180.177 91.1149 180.713 91.3052 181.111 91.703C181.509 92.1008 181.699 92.6542 181.699 93.3979V99.2091H183.826V93.1904C183.826 91.9278 183.48 90.942 182.789 90.2329C182.08 89.5065 181.18 89.1433 180.056 89.1433Z" fill="white"/>
<path d="M36.1948 94.1243H40.7953C40.5878 95.0755 40.1035 95.8365 39.3252 96.4073C38.5642 96.978 37.5611 97.2547 36.3504 97.2547C34.8285 97.2547 33.6005 96.7878 32.6666 95.8538C31.7326 94.9199 31.2657 93.7611 31.2657 92.3429C31.2657 90.9247 31.7326 89.7486 32.6666 88.8147C33.6005 87.8807 34.7766 87.3965 36.2121 87.3965C37.0941 87.3965 37.907 87.604 38.6334 88.0018C39.3598 88.3996 39.896 88.9358 40.2592 89.5757L41.8157 87.898C41.2623 87.1716 40.5705 86.549 39.723 86.082C38.668 85.494 37.4919 85.2 36.2121 85.2C34.1713 85.2 32.459 85.8918 31.0754 87.2754C29.6918 88.659 29 90.3367 29 92.3256C29 94.3318 29.6918 96.0095 31.0754 97.3931C32.459 98.7594 34.2058 99.4512 36.3332 99.4512C38.3394 99.4512 39.9651 98.8459 41.1931 97.6525C42.4383 96.4592 43.061 94.9199 43.061 93.0347V92.1181H36.1948V94.1243Z" fill="white"/>
<path d="M191.229 91.4436V89.4027H188.79V86.6528H186.663V89.4027H184.864V91.4436H186.663V96.1478C186.663 97.4277 187.009 98.3097 187.718 98.794C188.427 99.2783 189.586 99.4166 191.211 99.2091V97.3066C190.675 97.3412 190.226 97.3412 189.862 97.3239C189.499 97.3066 189.222 97.2029 189.049 97.0299C188.859 96.8569 188.773 96.5629 188.773 96.1478V91.4436C188.773 91.4436 191.229 91.4436 191.229 91.4436Z" fill="white"/>
<path d="M49.4602 89.1433C47.9382 89.1433 46.693 89.6449 45.7244 90.6307C44.7732 91.6165 44.2889 92.8445 44.2889 94.3146C44.2889 95.8019 44.7732 97.0472 45.759 98.0157C46.7449 98.9843 48.0247 99.4858 49.6331 99.4858C51.3281 99.4858 52.6598 98.8978 53.611 97.7563L52.1755 96.3208C51.6048 97.1337 50.7746 97.5315 49.6504 97.5315C48.8376 97.5315 48.1458 97.3239 47.5923 96.9261C47.0216 96.5283 46.6757 95.9576 46.52 95.2139H54.3374C54.3893 94.8507 54.4239 94.5567 54.4239 94.3319C54.4239 92.8964 53.9569 91.6684 53.0403 90.6653C52.0891 89.6449 50.8957 89.1433 49.4602 89.1433ZM46.4854 93.4844C46.6238 92.7407 46.9697 92.1527 47.4885 91.7203C48.0074 91.2879 48.6646 91.0804 49.4429 91.0804C50.1347 91.0804 50.74 91.2879 51.2589 91.6857C51.7777 92.0835 52.1064 92.6888 52.2447 93.4844H46.4854Z" fill="white"/>
<path d="M76.9077 89.1433C75.3857 89.1433 74.1404 89.6449 73.1719 90.6307C72.2034 91.6165 71.7191 92.8445 71.7191 94.3146C71.7191 95.8019 72.2034 97.0472 73.1892 98.0157C74.175 98.9843 75.4549 99.4858 77.0633 99.4858C78.7583 99.4858 80.09 98.8978 81.0412 97.7563L79.6057 96.3208C79.035 97.1337 78.2048 97.5315 77.0806 97.5315C76.2677 97.5315 75.5759 97.3239 75.0225 96.9261C74.4518 96.5283 74.1058 95.9576 73.9502 95.2139H81.7676C81.8195 94.8507 81.8541 94.5567 81.8541 94.3319C81.8541 92.8964 81.3871 91.6684 80.4705 90.6653C79.5192 89.6449 78.3432 89.1433 76.9077 89.1433ZM73.9156 93.4844C74.054 92.7407 74.3999 92.1527 74.9187 91.7203C75.4376 91.2879 76.0948 91.0804 76.8731 91.0804C77.5649 91.0804 78.1702 91.2879 78.6891 91.6857C79.2079 92.0835 79.5365 92.6888 79.6749 93.4844H73.9156Z" fill="white"/>
<path d="M87.9765 89.1433C86.4545 89.1433 85.2093 89.6449 84.2408 90.6307C83.2722 91.6165 82.788 92.8445 82.788 94.3146C82.788 95.8019 83.2722 97.0472 84.2581 98.0157C85.2439 98.9843 86.5237 99.4858 88.1322 99.4858C89.8271 99.4858 91.1588 98.8978 92.1101 97.7563L90.6746 96.3208C90.1038 97.1337 89.2737 97.5315 88.1495 97.5315C87.3366 97.5315 86.6448 97.3239 86.0913 96.9261C85.5206 96.5283 85.1747 95.9576 85.019 95.2139H92.8365C92.8884 94.8507 92.923 94.5567 92.923 94.3319C92.923 92.8964 92.456 91.6684 91.5393 90.6653C90.6054 89.6449 89.4293 89.1433 87.9765 89.1433ZM85.0018 93.4844C85.1401 92.7407 85.486 92.1527 86.0049 91.7203C86.5237 91.2879 87.1809 91.0804 87.9592 91.0804C88.651 91.0804 89.2564 91.2879 89.7752 91.6857C90.2941 92.0835 90.6227 92.6888 90.7611 93.4844H85.0018Z" fill="white"/>
<path d="M116.773 89.1433C115.251 89.1433 114.006 89.6449 113.037 90.6307C112.069 91.6165 111.584 92.8445 111.584 94.3146C111.584 95.8019 112.069 97.0472 113.055 98.0157C114.04 98.9843 115.32 99.4858 116.929 99.4858C118.624 99.4858 119.955 98.8978 120.907 97.7563L119.471 96.3208C118.9 97.1337 118.07 97.5315 116.946 97.5315C116.133 97.5315 115.441 97.3239 114.888 96.9261C114.317 96.5283 113.971 95.9576 113.816 95.2139H121.633C121.685 94.8507 121.719 94.5567 121.719 94.3319C121.719 92.8964 121.252 91.6684 120.336 90.6653C119.402 89.6449 118.209 89.1433 116.773 89.1433ZM113.798 93.4844C113.937 92.7407 114.283 92.1527 114.801 91.7203C115.32 91.2879 115.977 91.0804 116.756 91.0804C117.448 91.0804 118.053 91.2879 118.572 91.6857C119.091 92.0835 119.419 92.6888 119.558 93.4844H113.798Z" fill="white"/>
<path d="M158.195 89.1433C156.673 89.1433 155.428 89.6449 154.459 90.6307C153.491 91.6165 153.006 92.8445 153.006 94.3146C153.006 95.8019 153.491 97.0472 154.476 98.0157C155.462 98.9843 156.742 99.4858 158.351 99.4858C160.045 99.4858 161.377 98.8978 162.328 97.7563L160.893 96.3208C160.322 97.1337 159.492 97.5315 158.368 97.5315C157.555 97.5315 156.863 97.3239 156.31 96.9261C155.739 96.5283 155.393 95.9576 155.237 95.2139H163.055C163.107 94.8507 163.141 94.5567 163.141 94.3319C163.141 92.8964 162.674 91.6684 161.758 90.6653C160.824 89.6449 159.648 89.1433 158.195 89.1433ZM155.22 93.4844C155.358 92.7407 155.704 92.1527 156.223 91.7203C156.742 91.2879 157.399 91.0804 158.178 91.0804C158.869 91.0804 159.475 91.2879 159.994 91.6857C160.512 92.0835 160.841 92.6888 160.979 93.4844H155.22Z" fill="white"/>
<path d="M108.333 86.6528H106.206V89.4027H104.407V91.4436H106.206V96.1478C106.206 97.4277 106.552 98.3097 107.261 98.794C107.97 99.2783 109.129 99.4166 110.754 99.2091V97.3066C110.218 97.3412 109.768 97.3412 109.405 97.3239C109.042 97.3066 108.765 97.2029 108.592 97.0299C108.402 96.8569 108.316 96.5629 108.316 96.1478V91.4436H110.754V89.4027H108.316L108.333 86.6528C108.333 86.6528 108.316 86.6528 108.333 86.6528Z" fill="white"/>
<path d="M135.815 94.5221C135.815 95.3523 135.573 96.0268 135.071 96.5283C134.587 97.0299 133.843 97.272 132.858 97.272C131.872 97.272 131.145 97.0299 130.644 96.5283C130.159 96.0268 129.9 95.3696 129.9 94.5221V85.4767H127.634V94.6605C127.634 96.1306 128.119 97.2893 129.087 98.1714C130.056 99.0361 131.301 99.4685 132.84 99.4685C134.38 99.4685 135.625 99.0361 136.593 98.1714C137.562 97.3066 138.046 96.1306 138.046 94.6605V85.4767H135.78V94.5221H135.815Z" fill="white"/>
<path d="M143.356 86.6528H141.228V89.4027H139.43V91.4436H141.228V96.1478C141.228 97.4277 141.574 98.3097 142.283 98.794C142.992 99.2783 144.151 99.4166 145.777 99.2091V97.3066C145.241 97.3412 144.791 97.3412 144.428 97.3239C144.065 97.3066 143.788 97.2029 143.615 97.0299C143.425 96.8569 143.338 96.5629 143.338 96.1478V91.4436H145.777V89.4027H143.338V86.6528H143.356Z" fill="white"/>
<path d="M99.5989 89.1433C98.2153 89.1433 97.1948 89.6449 96.5549 90.648V89.3854H94.4276V99.1918H96.5549V93.9341C96.5549 92.9828 96.7798 92.2737 97.2467 91.8068C97.6964 91.3398 98.3017 91.115 99.0454 91.115C99.7199 91.115 100.256 91.3052 100.654 91.703C101.052 92.1008 101.242 92.6542 101.242 93.3979V99.2091H103.369V93.1904C103.369 91.9278 103.023 90.942 102.332 90.2329C101.622 89.5065 100.723 89.1433 99.5989 89.1433Z" fill="white"/>
<path d="M149.651 91.0458V89.4027H147.524V99.2091H149.651V94.2627C149.651 93.2595 149.945 92.5331 150.551 92.1008C151.156 91.6684 151.865 91.4781 152.678 91.53V89.2298C151.19 89.2298 150.187 89.8351 149.651 91.0458Z" fill="white"/>
<path d="M172.117 95.802C171.668 96.7359 170.803 97.3585 169.748 97.5142C169.731 97.5142 169.713 97.5142 169.696 97.5142C169.558 97.5315 169.402 97.5488 169.247 97.5488C167.517 97.5488 166.185 96.217 166.185 94.3146C166.185 92.4121 167.517 91.0804 169.247 91.0804C169.402 91.0804 169.541 91.0977 169.679 91.115C169.696 91.115 169.713 91.115 169.731 91.115C170.786 91.2533 171.633 91.876 172.1 92.7753L173.518 91.3571C172.584 90.0081 171.028 89.1606 169.247 89.1606C166.376 89.1606 164.093 91.409 164.093 94.3319C164.093 97.2375 166.376 99.4858 169.247 99.4858C171.045 99.4858 172.602 98.6038 173.536 97.2548L172.117 95.802Z" fill="white"/>
</svg>
