<svg width="192" height="100" viewBox="0 0 192 100" fill="none" xmlns="http://www.w3.org/2000/svg">
<path d="M66.5692 89.1396C65.2202 89.1396 64.2171 89.6585 63.5598 90.6962C62.9545 89.6585 62.0206 89.1396 60.7753 89.1396C59.5301 89.1396 58.5961 89.6239 57.9735 90.5752V89.3991H55.8462V99.2054H57.9735V93.7056C57.9735 92.8581 58.181 92.2182 58.5788 91.7685C58.9766 91.3361 59.5128 91.1113 60.1527 91.1113C60.7407 91.1113 61.1904 91.3015 61.519 91.6647C61.8476 92.0452 62.0033 92.5641 62.0033 93.2386V99.1881H64.1306V93.6883C64.1306 92.8235 64.3208 92.1836 64.7013 91.7512C65.0818 91.3188 65.6007 91.1113 66.2579 91.1113C66.8459 91.1113 67.3129 91.3015 67.6588 91.6647C68.0047 92.0452 68.1776 92.5641 68.1776 93.2386V99.1881H70.305V93.1002C70.305 91.8896 69.9591 90.9211 69.2845 90.1947C68.5754 89.5028 67.6761 89.1396 66.5692 89.1396Z" fill="white"/>
<path d="M180.06 89.1399C178.676 89.1399 177.656 89.6415 177.016 90.6446V85.4561H174.889V99.1884H177.016V93.9307C177.016 92.9795 177.241 92.2704 177.708 91.8034C178.158 91.3364 178.763 91.1116 179.507 91.1116C180.181 91.1116 180.717 91.3018 181.115 91.6996C181.513 92.0974 181.703 92.6508 181.703 93.3945V99.2057H183.83V93.187C183.83 91.9245 183.484 90.9386 182.793 90.2295C182.084 89.5031 181.184 89.1399 180.06 89.1399Z" fill="white"/>
<path d="M36.1988 94.1206H40.7993C40.5918 95.0718 40.1075 95.8328 39.3292 96.4036C38.5683 96.9743 37.5651 97.251 36.3545 97.251C34.8325 97.251 33.6045 96.7841 32.6706 95.8501C31.7367 94.9162 31.2697 93.7574 31.2697 92.3392C31.2697 90.921 31.7367 89.7449 32.6706 88.811C33.6045 87.877 34.7806 87.3928 36.2161 87.3928C37.0982 87.3928 37.911 87.6003 38.6374 87.9981C39.3638 88.3959 39.9 88.932 40.2632 89.572L41.8198 87.8943C41.2663 87.1679 40.5745 86.5453 39.727 86.0783C38.672 85.4903 37.496 85.1963 36.2161 85.1963C34.1753 85.1963 32.4631 85.8881 31.0794 87.2717C29.6958 88.6553 29.004 90.333 29.004 92.3219C29.004 94.3281 29.6958 96.0058 31.0794 97.3894C32.4631 98.7557 34.2099 99.4475 36.3372 99.4475C38.3434 99.4475 39.9692 98.8422 41.1971 97.6488C42.4424 96.4554 43.065 94.9162 43.065 93.031V92.1144H36.1988V94.1206Z" fill="white"/>
<path d="M191.233 91.4402V89.3993H188.794V86.6494H186.667V89.3993H184.868V91.4402H186.667V96.1445C186.667 97.4243 187.013 98.3064 187.722 98.7906C188.431 99.2749 189.59 99.4133 191.215 99.2057V97.3032C190.679 97.3378 190.23 97.3378 189.866 97.3205C189.503 97.3032 189.226 97.1995 189.054 97.0265C188.863 96.8536 188.777 96.5595 188.777 96.1445V91.4402C188.777 91.4402 191.233 91.4402 191.233 91.4402Z" fill="white"/>
<path d="M49.4642 89.1396C47.9422 89.1396 46.697 89.6412 45.7285 90.627C44.7772 91.6129 44.293 92.8408 44.293 94.3109C44.293 95.7983 44.7772 97.0435 45.7631 98.0121C46.7489 98.9806 48.0287 99.4822 49.6372 99.4822C51.3321 99.4822 52.6638 98.8941 53.6151 97.7526L52.1796 96.3171C51.6088 97.13 50.7787 97.5278 49.6545 97.5278C48.8416 97.5278 48.1498 97.3203 47.5963 96.9225C47.0256 96.5247 46.6797 95.954 46.524 95.2103H54.3415C54.3933 94.8471 54.4279 94.553 54.4279 94.3282C54.4279 92.8927 53.961 91.6647 53.0443 90.6616C52.0931 89.6412 50.8997 89.1396 49.4642 89.1396ZM46.4895 93.4807C46.6278 92.737 46.9737 92.149 47.4926 91.7166C48.0114 91.2843 48.6686 91.0767 49.4469 91.0767C50.1387 91.0767 50.7441 91.2843 51.2629 91.682C51.7818 92.0798 52.1104 92.6852 52.2487 93.4807H46.4895Z" fill="white"/>
<path d="M76.9117 89.1396C75.3897 89.1396 74.1445 89.6412 73.1759 90.627C72.2074 91.6129 71.7231 92.8408 71.7231 94.3109C71.7231 95.7983 72.2074 97.0435 73.1932 98.0121C74.1791 98.9806 75.4589 99.4822 77.0674 99.4822C78.7623 99.4822 80.094 98.8941 81.0452 97.7526L79.6097 96.3171C79.039 97.13 78.2088 97.5278 77.0846 97.5278C76.2718 97.5278 75.58 97.3203 75.0265 96.9225C74.4558 96.5247 74.1099 95.954 73.9542 95.2103H81.7716C81.8235 94.8471 81.8581 94.553 81.8581 94.3282C81.8581 92.8927 81.3911 91.6647 80.4745 90.6616C79.5233 89.6412 78.3472 89.1396 76.9117 89.1396ZM73.9196 93.4807C74.058 92.737 74.4039 92.149 74.9227 91.7166C75.4416 91.2843 76.0988 91.0767 76.8771 91.0767C77.5689 91.0767 78.1742 91.2843 78.6931 91.682C79.212 92.0798 79.5406 92.6852 79.6789 93.4807H73.9196Z" fill="white"/>
<path d="M87.9806 89.1396C86.4586 89.1396 85.2133 89.6412 84.2448 90.627C83.2763 91.6129 82.792 92.8408 82.792 94.3109C82.792 95.7983 83.2763 97.0435 84.2621 98.0121C85.2479 98.9806 86.5278 99.4822 88.1362 99.4822C89.8311 99.4822 91.1629 98.8941 92.1141 97.7526L90.6786 96.3171C90.1079 97.13 89.2777 97.5278 88.1535 97.5278C87.3406 97.5278 86.6488 97.3203 86.0954 96.9225C85.5246 96.5247 85.1787 95.954 85.0231 95.2103H92.8405C92.8924 94.8471 92.927 94.553 92.927 94.3282C92.927 92.8927 92.46 91.6647 91.5434 90.6616C90.6094 89.6412 89.4333 89.1396 87.9806 89.1396ZM85.0058 93.4807C85.1441 92.737 85.49 92.149 86.0089 91.7166C86.5278 91.2843 87.185 91.0767 87.9633 91.0767C88.6551 91.0767 89.2604 91.2843 89.7793 91.682C90.2981 92.0798 90.6267 92.6852 90.7651 93.4807H85.0058Z" fill="white"/>
<path d="M116.777 89.1396C115.255 89.1396 114.01 89.6412 113.041 90.627C112.073 91.6129 111.589 92.8408 111.589 94.3109C111.589 95.7983 112.073 97.0435 113.059 98.0121C114.044 98.9806 115.324 99.4822 116.933 99.4822C118.628 99.4822 119.959 98.8941 120.911 97.7526L119.475 96.3171C118.904 97.13 118.074 97.5278 116.95 97.5278C116.137 97.5278 115.445 97.3203 114.892 96.9225C114.321 96.5247 113.975 95.954 113.82 95.2103H121.637C121.689 94.8471 121.723 94.553 121.723 94.3282C121.723 92.8927 121.257 91.6647 120.34 90.6616C119.406 89.6412 118.213 89.1396 116.777 89.1396ZM113.802 93.4807C113.941 92.737 114.287 92.149 114.805 91.7166C115.324 91.2843 115.981 91.0767 116.76 91.0767C117.452 91.0767 118.057 91.2843 118.576 91.682C119.095 92.0798 119.423 92.6852 119.562 93.4807H113.802Z" fill="white"/>
<path d="M158.199 89.1396C156.677 89.1396 155.432 89.6412 154.463 90.627C153.495 91.6129 153.01 92.8408 153.01 94.3109C153.01 95.7983 153.495 97.0435 154.481 98.0121C155.466 98.9806 156.746 99.4822 158.355 99.4822C160.05 99.4822 161.381 98.8941 162.333 97.7526L160.897 96.3171C160.326 97.13 159.496 97.5278 158.372 97.5278C157.559 97.5278 156.867 97.3203 156.314 96.9225C155.743 96.5247 155.397 95.954 155.242 95.2103H163.059C163.111 94.8471 163.145 94.553 163.145 94.3282C163.145 92.8927 162.678 91.6647 161.762 90.6616C160.828 89.6412 159.652 89.1396 158.199 89.1396ZM155.224 93.4807C155.363 92.737 155.708 92.149 156.227 91.7166C156.746 91.2843 157.403 91.0767 158.182 91.0767C158.873 91.0767 159.479 91.2843 159.998 91.682C160.517 92.0798 160.845 92.6852 160.984 93.4807H155.224Z" fill="white"/>
<path d="M108.337 86.6494H106.21V89.3993H104.411V91.4402H106.21V96.1445C106.21 97.4243 106.556 98.3064 107.265 98.7906C107.974 99.2749 109.133 99.4133 110.758 99.2057V97.3032C110.222 97.3378 109.772 97.3378 109.409 97.3205C109.046 97.3032 108.769 97.1995 108.596 97.0265C108.406 96.8536 108.32 96.5595 108.32 96.1445V91.4402H110.758V89.3993H108.32L108.337 86.6494C108.337 86.6494 108.32 86.6494 108.337 86.6494Z" fill="white"/>
<path d="M135.819 94.518C135.819 95.3482 135.577 96.0227 135.075 96.5243C134.591 97.0258 133.847 97.268 132.862 97.268C131.876 97.268 131.149 97.0258 130.648 96.5243C130.164 96.0227 129.904 95.3655 129.904 94.518V85.4727H127.638V94.6564C127.638 96.1265 128.123 97.2853 129.091 98.1673C130.06 99.0321 131.305 99.4645 132.844 99.4645C134.384 99.4645 135.629 99.0321 136.597 98.1673C137.566 97.3026 138.05 96.1265 138.05 94.6564V85.4727H135.785V94.518H135.819Z" fill="white"/>
<path d="M143.36 86.6494H141.232V89.3993H139.434V91.4402H141.232V96.1445C141.232 97.4243 141.578 98.3064 142.287 98.7906C142.996 99.2749 144.155 99.4133 145.781 99.2057V97.3032C145.245 97.3378 144.795 97.3378 144.432 97.3205C144.069 97.3032 143.792 97.1995 143.619 97.0265C143.429 96.8536 143.342 96.5595 143.342 96.1445V91.4402H145.781V89.3993H143.342V86.6494H143.36Z" fill="white"/>
<path d="M99.6029 89.1396C98.2193 89.1396 97.1989 89.6412 96.559 90.6443V89.3818H94.4316V99.1881H96.559V93.9304C96.559 92.9792 96.7838 92.2701 97.2508 91.8031C97.7004 91.3361 98.3058 91.1113 99.0495 91.1113C99.724 91.1113 100.26 91.3015 100.658 91.6993C101.056 92.0971 101.246 92.6506 101.246 93.3943V99.2054H103.373V93.1867C103.373 91.9242 103.027 90.9383 102.336 90.2292C101.626 89.5028 100.727 89.1396 99.6029 89.1396Z" fill="white"/>
<path d="M149.655 91.0416V89.3985H147.528V99.2049H149.655V94.2585C149.655 93.2554 149.949 92.529 150.555 92.0966C151.16 91.6642 151.869 91.474 152.682 91.5258V89.2256C151.195 89.2256 150.191 89.8309 149.655 91.0416Z" fill="white"/>
<path d="M172.122 95.7986C171.672 96.7325 170.807 97.3551 169.752 97.5108C169.735 97.5108 169.718 97.5108 169.7 97.5108C169.562 97.5281 169.406 97.5454 169.251 97.5454C167.521 97.5454 166.189 96.2137 166.189 94.3112C166.189 92.4087 167.521 91.077 169.251 91.077C169.406 91.077 169.545 91.0943 169.683 91.1116C169.7 91.1116 169.718 91.1116 169.735 91.1116C170.79 91.2499 171.637 91.8726 172.104 92.7719L173.522 91.3537C172.589 90.0047 171.032 89.1572 169.251 89.1572C166.38 89.1572 164.097 91.4056 164.097 94.3285C164.097 97.2341 166.38 99.4824 169.251 99.4824C171.049 99.4824 172.606 98.6004 173.54 97.2514L172.122 95.7986Z" fill="white"/>
<path d="M110.274 13.0405C111.974 13.0405 113.353 12.3513 113.353 11.5012C113.353 10.6511 111.974 9.96191 110.274 9.96191C108.574 9.96191 107.196 10.6511 107.196 11.5012C107.196 12.3513 108.574 13.0405 110.274 13.0405Z" fill="white"/>
<path d="M101.471 11.5017L98.0118 9.75488L94.5355 11.5017L98.0118 13.2312L101.471 11.5017Z" fill="white"/>
<path d="M126.013 11.5017L122.536 9.75488L119.077 11.5017L122.536 13.2312L126.013 11.5017Z" fill="white"/>
<path d="M175.183 69.8206C175.148 69.8379 173.125 70.4951 170.565 70.7892C171.395 70.0801 171.949 69.0769 172.122 67.9355C172.243 67.0707 172.208 64.6494 171.983 60.7753C171.914 59.3916 170.859 58.2502 169.493 58.0772C168.213 57.9043 167.158 57.7313 166.449 57.5756C164.979 57.247 164.183 56.7109 164.079 56.3304C163.941 55.9153 163.958 55.8634 164.01 55.4829C164.028 55.31 164.062 55.1024 164.097 54.8257C164.131 54.5144 164.149 54.2204 164.201 53.8918C164.252 53.494 164.287 53.0789 164.322 52.6638C164.322 52.6465 164.322 52.6119 164.322 52.5946C164.65 52.6638 164.996 52.6984 165.325 52.6984C166.241 52.6984 167.158 52.4563 167.954 51.9547C169.441 51.0381 170.306 49.4642 170.271 47.7174C170.202 44.9502 168.663 43.0131 167.296 41.3182C166.674 40.5399 166.068 39.7962 165.636 39.0179C164.235 36.4928 163.906 33.7602 164.667 30.8719C164.979 29.6785 165.757 28.4852 166.587 27.2399C166.76 26.9805 166.933 26.7038 167.106 26.4443C167.227 26.4616 167.348 26.4789 167.469 26.4789C167.988 26.4789 168.421 26.306 168.732 26.1157C170.721 24.8878 171.413 20.8753 171.378 18.6269C171.326 13.9226 169.476 10.5328 165.757 8.26709L164.477 7.48881L164.962 8.90702C166.086 12.1758 166.691 14.1993 165.982 17.4854C165.757 18.5404 165.307 19.5436 164.875 20.5121C164.201 22.0341 163.543 23.5041 164.114 24.6975C163.976 24.9051 163.837 25.1299 163.699 25.3374C162.748 26.7729 161.762 28.2603 161.312 30.0244C160.344 33.7602 160.793 37.4614 162.609 40.7301C163.18 41.7679 163.906 42.6672 164.598 43.532C165.757 44.9848 166.777 46.23 166.812 47.8385C166.829 48.513 166.397 48.8762 166.155 49.0318C165.671 49.3258 165.1 49.3431 164.598 49.0837C164.201 48.8762 163.82 48.4611 163.578 47.9768C163.197 46.8526 162.713 45.6766 162.056 44.3794C161.468 43.2034 160.828 42.0446 160.205 40.9204C159.064 38.845 157.974 36.8906 157.179 34.7633C156.573 33.1203 156.504 31.2351 156.539 30.0244C157.404 30.1801 158.164 30.2147 158.303 30.2147L159.427 30.2493L159.41 29.1251C159.392 28.2776 160.067 26.8075 160.828 25.0953C162.921 20.4602 166.086 13.4729 162.021 5.46528C161.987 5.41339 161.969 5.34421 161.935 5.29232C162.108 4.73888 162.16 4.23732 162.142 3.82223C162.125 2.28296 161.364 1.0723 160.672 0.449675L160.188 0.0172952L159.583 0.224837C159.185 0.363199 158.804 0.605331 158.424 0.899349C158.164 0.657217 157.836 0.484265 157.455 0.432379C157.352 0.415084 157.248 0.415084 157.109 0.415084C155.432 0.415084 149.327 1.7987 148.531 2.21378L148.116 2.42132L147.978 2.871L147.684 3.89142C146.335 4.34109 145.107 5.0156 144.19 5.51716C144.069 5.58634 143.948 5.65552 143.827 5.70741L143.135 6.0879L143.291 6.86619C143.308 6.98725 143.913 10.0312 145.677 12.0893L145.764 12.1758C145.331 12.2104 144.951 12.245 144.605 12.245C143.55 12.245 142.72 11.9337 142.322 11.311C141.699 10.3425 142.149 9.30481 142.876 8.76865C142.478 8.5957 142.097 8.49193 141.63 8.49193C141.354 8.49193 141.042 8.52652 140.696 8.613C139.313 8.92431 138.534 10.0831 138.794 11.484C139.088 13.1616 140.264 14.1993 142.305 14.1993C142.72 14.1993 143.152 14.1647 143.637 14.0783C144.328 13.9572 145.037 13.7497 145.747 13.5248C145.747 13.5594 145.729 13.5767 145.729 13.6113C145.556 14.5798 145.401 15.41 145.937 16.0845C144.449 16.3612 143.1 16.9839 141.959 17.9178C141.025 17.2087 139.762 16.2575 139.572 16.1018C138.828 15.5484 138.137 14.943 137.393 14.3204C137.099 14.061 136.788 13.8016 136.476 13.5421C135.836 13.006 135.145 12.4525 134.401 11.9337C133.847 11.5532 133.208 11.311 132.516 11.2246V8.16332C134.712 7.19479 136.252 4.96372 136.252 2.42132C136.252 1.85058 136.182 1.31443 136.027 0.795578H131.374C131.409 1.10689 131.426 1.4182 131.426 1.74681C131.426 4.51404 130.043 6.95266 128.33 6.95266C126.618 6.95266 125.234 4.51404 125.234 1.74681C125.234 1.4182 125.252 1.10689 125.286 0.795578H119.458C119.492 1.10689 119.51 1.4182 119.51 1.74681C119.51 4.51404 118.126 6.95266 116.414 6.95266C114.702 6.95266 113.318 4.51404 113.318 1.74681C113.318 1.4182 113.335 1.10689 113.37 0.795578H107.351C107.386 1.10689 107.403 1.4182 107.403 1.74681C107.403 4.51404 106.02 6.95266 104.307 6.95266C102.595 6.95266 101.211 4.51404 101.211 1.74681C101.211 1.4182 101.229 1.10689 101.263 0.795578H95.5732C95.6078 1.10689 95.6251 1.4182 95.6251 1.74681C95.6251 4.51404 94.2415 6.95266 92.5293 6.95266C90.8171 6.95266 89.4335 4.51404 89.4335 1.74681C89.4335 1.4182 89.4508 1.10689 89.4853 0.795578H84.7638C84.6254 1.29714 84.5562 1.81599 84.5562 2.35214C84.5562 4.80806 85.9917 7.00455 88.0498 8.04226V11.2246C87.358 11.311 86.6835 11.5532 86.1128 11.951C85.3691 12.4525 84.6773 13.0233 84.0374 13.5594C83.726 13.8188 83.432 14.0783 83.1207 14.3377C82.377 14.9603 81.6852 15.5657 80.9415 16.1191C80.7513 16.2575 79.4887 17.2087 78.5548 17.9351C77.4133 17.0012 76.0816 16.3785 74.5769 16.1018C75.113 15.41 74.9574 14.5798 74.7844 13.6286C74.7844 13.6113 74.7671 13.5767 74.7671 13.5421C75.4762 13.7843 76.1853 13.9745 76.8772 14.0956C77.3614 14.182 77.7938 14.2166 78.2089 14.2166C80.2497 14.2166 81.4258 13.1789 81.7198 11.5013C81.9792 10.1004 81.201 8.94161 79.8173 8.63029C79.4714 8.56111 79.1601 8.50923 78.8834 8.50923C78.4164 8.50923 78.0359 8.613 77.6381 8.78595C78.3645 9.3221 78.8142 10.3598 78.1916 11.3283C77.7938 11.9683 76.9463 12.2623 75.9086 12.2623C75.5454 12.2623 75.1649 12.2277 74.7844 12.1585L74.8709 12.072C76.635 10.0139 77.2403 6.98725 77.2576 6.84889L77.4133 6.07061L76.7215 5.69011C76.6004 5.62093 76.4794 5.56905 76.3583 5.49987C75.4244 4.99831 74.2137 4.32379 72.8647 3.87412L72.5707 2.8537L72.4323 2.40403L72.0172 2.19649C71.2216 1.7814 65.1164 0.397789 63.4388 0.397789C63.3177 0.397789 63.1967 0.397789 63.0929 0.415084C62.7124 0.46697 62.3838 0.639922 62.1244 0.882054C61.7439 0.570741 61.3461 0.345904 60.9656 0.207542L60.3603 0L59.8587 0.397789C59.1669 1.02042 58.4059 2.23108 58.3886 3.77035C58.3886 4.18543 58.4405 4.68699 58.5962 5.24044C58.5616 5.30962 58.527 5.36151 58.5097 5.41339C54.4453 13.4211 57.6103 20.4083 59.703 25.0434C60.464 26.7383 61.1385 28.2084 61.1212 29.0732L61.104 30.1974L62.2281 30.1628C62.3492 30.1628 63.1102 30.1282 63.9922 29.9725C64.0268 31.1832 63.975 33.0857 63.3523 34.7114C62.5567 36.8387 61.4672 38.7931 60.3257 40.8685C59.703 41.9927 59.0631 43.1515 58.4751 44.3275C57.8352 45.6247 57.3336 46.8008 56.9531 47.9249C56.711 48.4092 56.3478 48.8243 55.9327 49.0318C55.4311 49.2913 54.8604 49.274 54.3761 48.9799C54.1167 48.8243 53.7016 48.4611 53.7189 47.7866C53.7535 46.1954 54.7566 44.9329 55.9327 43.4801C56.6245 42.6153 57.3336 41.7333 57.9216 40.6783C59.7376 37.4095 60.1873 33.7083 59.2188 29.9725C58.7691 28.2084 57.7833 26.7211 56.832 25.2856C56.6937 25.078 56.5553 24.8532 56.417 24.6456C56.9877 23.4523 56.3478 21.9822 55.656 20.4602C55.2236 19.4917 54.7739 18.4885 54.5491 17.4335C53.84 14.1302 54.4453 12.1239 55.5695 8.85513L56.0538 7.43693L54.7739 8.21521C51.0555 10.4809 49.2049 13.8707 49.153 18.575C49.1184 20.8234 49.8275 24.8532 51.7991 26.0638C52.1105 26.2541 52.5255 26.427 53.0617 26.427C53.1828 26.427 53.2865 26.4097 53.4249 26.3924C53.5978 26.6519 53.7708 26.9286 53.9437 27.188C54.7739 28.4333 55.5522 29.6266 55.8635 30.82C56.6072 33.7083 56.2786 36.4582 54.895 38.966C54.4626 39.7443 53.8746 40.488 53.2346 41.2663C51.8683 42.9612 50.3291 44.881 50.2599 47.6655C50.2253 49.395 51.09 50.9862 52.5774 51.9028C53.373 52.4044 54.2897 52.6465 55.2063 52.6465C55.5522 52.6465 55.8808 52.6119 56.2094 52.5427C56.2094 52.56 56.2094 52.5946 56.2094 52.6119C56.244 53.027 56.2786 53.4421 56.3305 53.8399C56.3651 54.1685 56.3997 54.4625 56.4343 54.7738C56.4515 55.0506 56.4861 55.2581 56.5207 55.4311C56.5726 55.7943 56.5899 55.8634 56.4515 56.2785C56.3305 56.659 55.5522 57.1952 54.0821 57.5238C53.373 57.6794 52.318 57.8524 51.0382 58.0253C49.6718 58.2156 48.6168 59.3571 48.5476 60.7234C48.3401 64.5975 48.2882 67.0188 48.4093 67.8836C48.5822 69.0251 49.1357 70.0282 49.9659 70.7373C47.4062 70.4433 45.3653 69.7687 45.348 69.7687L43.2899 69.0769L43.9817 71.1351C44.7946 73.5564 46.3339 75.5972 48.4612 77.0327C50.4328 78.3645 52.8023 79.0909 55.1544 79.0909C58.0254 79.0909 60.637 78.0186 62.5222 76.0642C62.5395 76.6003 62.6432 77.1192 62.8508 77.6554L63.802 80.0248L64.857 77.7072C64.9262 77.5689 66.5346 74.179 70.3742 73.885C72.0172 73.7639 73.8851 73.5218 75.3379 72.3111C75.3379 72.3111 75.3379 72.3111 75.3552 72.3111C75.3552 72.7089 75.3898 73.0894 75.4935 73.4699C76.0124 75.6145 77.863 76.7041 77.9322 76.7387L79.6444 77.7245L79.5406 75.7529C79.506 74.9054 79.4541 73.9369 79.6963 73.1413C80.1287 71.7058 81.6333 71.1697 82.4808 70.9621C82.6883 70.9102 82.8959 70.8583 83.0861 70.8238C84.487 70.5124 85.6285 70.253 86.8046 69.5612C86.303 70.547 86.0955 71.5502 86.1993 72.5706C86.4414 75.113 88.5168 76.7041 88.6033 76.7733L90.9727 78.5547L90.3155 75.6664C90.0734 74.5595 89.8831 72.0344 90.9035 71.3772C92.1661 70.547 93.1173 70.4433 94.2242 70.3222C95.1409 70.2184 96.1267 70.0974 97.2855 69.5958C96.3861 71.5847 96.7666 73.2105 96.8012 73.297L97.3546 75.4935L98.721 73.6775C98.7383 73.6429 101.298 70.3395 104.93 70.3395C107.559 70.3395 109.686 71.6366 109.703 71.6539L110.274 71.9998L110.845 71.6539C110.862 71.6366 112.989 70.3395 115.618 70.3395C119.25 70.3395 121.81 73.6602 121.827 73.6775L123.194 75.4935L123.747 73.297C123.764 73.2105 124.162 71.5847 123.263 69.5958C124.422 70.0974 125.407 70.2184 126.324 70.3222C127.431 70.4433 128.399 70.5643 129.645 71.3772C130.665 72.0517 130.492 74.5595 130.233 75.6664L129.576 78.5547L131.945 76.7733C132.031 76.7041 134.107 75.113 134.349 72.5706C134.453 71.5502 134.245 70.547 133.744 69.5612C134.92 70.2357 136.061 70.4951 137.462 70.8238C137.652 70.8756 137.86 70.9102 138.068 70.9621C138.915 71.1524 140.42 71.7058 140.852 73.1413C141.094 73.9369 141.042 74.9054 141.008 75.7529L140.904 77.7245L142.616 76.7387C142.703 76.6868 144.553 75.6145 145.055 73.4699C145.141 73.0894 145.193 72.6916 145.193 72.3111C145.193 72.3111 145.193 72.3111 145.21 72.3111C146.663 73.5218 148.531 73.7466 150.174 73.885C154.014 74.179 155.622 77.5689 155.691 77.7072L156.746 80.0248L157.698 77.6554C157.905 77.1192 158.026 76.5831 158.026 76.0642C159.911 78.0186 162.523 79.0909 165.394 79.0909C167.746 79.0909 170.115 78.3645 172.087 77.0327C174.214 75.5972 175.771 73.5564 176.567 71.1351L177.258 69.0769L175.183 69.8206ZM142.288 13.1097C140.835 13.1097 140.074 12.5217 139.849 11.2765C139.693 10.4463 140.108 9.84096 140.921 9.65071C140.956 9.65071 140.99 9.63341 141.025 9.63341C140.835 10.3425 140.921 11.1208 141.388 11.8818C141.734 12.4179 142.27 12.833 142.945 13.0752C142.72 13.0924 142.495 13.1097 142.288 13.1097ZM79.1255 11.8818C79.6098 11.1381 79.679 10.3425 79.4887 9.63341C79.5233 9.63341 79.5579 9.65071 79.5925 9.65071C80.4054 9.82366 80.8205 10.4463 80.6648 11.2765C80.44 12.5217 79.6617 13.1097 78.2262 13.1097C78.0186 13.1097 77.7938 13.0924 77.569 13.0752C78.2435 12.833 78.7796 12.4352 79.1255 11.8818ZM142.011 19.3014C142.27 19.042 142.547 18.7999 142.841 18.575C144.121 17.5892 145.747 16.9839 147.787 16.9839C148.081 16.9839 148.375 17.0012 148.687 17.0185L151.454 15.7559C150.468 15.7732 149.673 15.8078 149.033 15.8078C146.265 15.8078 146.49 15.4273 146.853 13.4902C146.853 13.4902 149.188 14.1302 150.97 14.1302C151.143 14.1302 151.316 14.1302 151.471 14.1129C152.336 14.0437 152.717 13.6632 152.855 13.1962C153.028 12.5736 153.08 11.6051 152.595 10.3944C152.284 9.59882 151.523 8.90702 150.434 8.90702C149.603 8.90702 148.6 9.30481 147.459 10.3425L146.49 11.311C145.989 10.723 145.591 10.0485 145.28 9.39128C145.072 8.49193 146.041 7.92119 146.041 7.92119C145.055 8.04226 144.57 7.02184 144.415 6.55487C145.47 5.98413 146.975 5.11937 148.566 4.68699L149.033 3.09584C149.638 2.78452 155.553 1.4182 157.109 1.4182C157.196 1.4182 157.248 1.4182 157.317 1.4355C157.438 1.45279 157.559 1.50468 157.646 1.57386C157.317 1.93706 157.023 2.35214 156.764 2.80182L157.819 3.14772C158.407 2.19649 159.22 1.40091 159.946 1.15878C160.897 1.98895 162.039 4.46216 159.531 7.05643V8.56111L159.963 8.14603C160.569 7.57529 161.001 7.02184 161.33 6.48569C166.12 16.8628 158.251 25.372 158.303 29.0386C158.303 29.0386 156.66 28.9867 155.536 28.537C155.536 28.537 155.034 32.1171 156.141 35.0573C157.421 38.4818 159.444 41.5257 161.07 44.7772C161.624 45.8841 162.108 47.0083 162.506 48.1671C162.523 48.2017 162.523 48.2363 162.54 48.2708C162.869 48.9799 163.422 49.6026 164.045 49.9485C164.062 49.9658 164.097 49.9658 164.114 49.9831C164.927 50.3981 165.878 50.3463 166.674 49.862C167.452 49.395 167.867 48.5995 167.85 47.7174C167.798 45.7457 166.639 44.293 165.394 42.7537C164.737 41.9235 164.045 41.076 163.509 40.1075C161.831 37.0809 161.416 33.6564 162.315 30.1974C162.73 28.6062 163.664 27.2053 164.564 25.839C164.771 25.5277 164.962 25.2337 165.169 24.9224C165.256 24.8013 165.325 24.6802 165.394 24.5592C164.962 24.1614 164.875 23.6771 165.013 23.0372C165.134 22.4491 165.446 21.74 165.826 20.858C166.259 19.8895 166.76 18.7826 167.002 17.6238C167.4 15.7559 167.4 14.2512 167.158 12.7638C167.521 13.3519 167.833 13.9745 168.092 14.6144C168.386 15.3408 168.593 16.1018 168.697 16.8974C168.801 17.693 168.801 18.5058 168.68 19.3187C168.957 18.5577 169.13 17.7276 169.182 16.8974C169.233 16.0499 169.182 15.2025 169.026 14.3723C168.888 13.6113 168.68 12.8503 168.403 12.1239C169.597 13.8707 170.202 15.998 170.237 18.5577C170.271 21.7746 169.164 24.4727 168.109 25.1126C167.971 25.1991 167.85 25.251 167.729 25.2856C167.279 25.3893 166.587 25.078 166.587 25.078C166.276 25.5969 165.965 26.0638 165.636 26.5654C164.754 27.8971 163.924 29.1597 163.561 30.526C162.748 33.691 163.094 36.7004 164.633 39.4676C165.117 40.3324 165.757 41.1452 166.397 41.9235C167.711 43.5666 169.078 45.2615 169.13 47.6655C169.164 49.0145 168.49 50.2425 167.331 50.9516C166.708 51.3321 165.982 51.5396 165.256 51.5396C164.927 51.5396 164.581 51.4877 164.252 51.4186C163.958 51.3321 163.664 51.2283 163.388 51.0727C163.301 51.0208 163.215 50.9689 163.128 50.917C163.18 51.3321 163.197 51.7645 163.18 52.1796C163.18 52.2833 163.163 52.4044 163.163 52.5082C163.111 53.2173 163.007 53.9437 162.955 54.6528C162.869 55.5694 162.713 55.6732 162.99 56.5725C163.318 57.6102 164.719 58.2329 166.172 58.5615C167.089 58.769 168.334 58.9593 169.303 59.0803C170.167 59.2014 170.807 59.9105 170.859 60.7753C170.98 62.9026 171.153 66.6729 170.998 67.7279C170.825 68.8867 170.15 69.8725 169.078 70.3914C169.147 70.547 169.216 70.7027 169.285 70.8411C169.441 71.2388 169.562 71.5847 169.614 71.9134C169.96 73.7985 168.611 74.3866 167.4 74.6806L167.244 72.9857C167.227 72.9165 166.899 72.7608 166.829 72.7262C166.726 72.657 166.605 72.5879 166.518 72.5014C166.311 72.3111 166.241 72.0863 166.207 71.8442C166.189 71.7058 166.189 71.5674 166.189 71.4118C166.172 71.1524 166.138 70.8929 165.999 70.7027C165.93 70.6162 165.861 70.547 165.74 70.4951C165.636 70.4433 165.532 70.426 165.428 70.426C165.307 70.426 165.204 70.4606 165.1 70.5124C164.875 70.6335 164.685 70.8583 164.65 71.1351C164.633 71.2388 164.65 71.3772 164.667 71.5156C164.754 72.0171 164.996 72.7089 164.771 73.3143C164.633 73.7121 164.097 74.2482 163.509 74.2482C163.318 74.2482 163.146 74.1963 162.955 74.0753L161.745 75.1476C160.136 73.3834 160.638 71.6885 162.385 70.9621C162.523 70.9102 162.644 70.8411 162.748 70.7719C163.076 70.547 163.267 70.253 163.076 69.9417C162.938 69.6996 162.782 69.6131 162.575 69.6131C162.263 69.6131 161.866 69.8033 161.26 70.0455C161.226 70.0628 161.191 70.0801 161.139 70.0974C160.811 70.2184 160.499 70.3049 160.205 70.3049C159.583 70.3049 159.081 69.9417 158.822 68.9386C158.804 68.8521 158.787 68.7483 158.77 68.6619L158.355 68.8348L157.628 69.1288C157.646 69.0078 157.663 68.8694 157.68 68.7483C157.749 68.3332 157.888 67.9874 158.043 67.6933C158.58 66.7075 159.531 66.3097 160.499 66.3097C161.745 66.3097 163.024 66.9323 163.561 67.7279L165.844 68.0392C166.311 67.4512 166.328 65.7217 166.259 64.3727C166.207 63.3868 165.48 62.5913 164.512 62.4356C162.851 62.1935 160.361 61.8303 159.479 61.7611C157.801 61.64 156.054 61.346 154.792 60.118C153.062 58.4058 152.682 56.6244 152.682 54.1512C152.682 53.3383 152.717 52.5255 152.786 51.6953C152.838 50.9862 152.924 50.2771 152.993 49.5853C153.045 49.1183 153.114 48.6513 153.183 48.1844C153.253 47.752 153.253 47.285 153.218 46.8353C153.201 46.6624 153.183 46.5067 153.149 46.3338C153.062 45.8322 152.924 45.348 152.734 44.8464C152.526 44.3275 152.232 43.8433 151.886 43.3763C151.333 42.6499 150.607 42.01 149.69 41.4911C149.361 41.3009 148.963 41.076 148.548 40.8166C148.133 40.5572 147.684 40.2805 147.217 39.9519C146.075 39.1909 144.813 38.2396 143.637 37.15C143.723 37.0982 143.809 37.0463 143.896 36.9944C144.328 36.735 145.522 35.8529 146.646 34.919C146.923 34.6941 147.165 34.4866 147.39 34.279L146.317 33.7083C145.072 34.7633 143.688 35.801 143.325 36.0086C143.152 36.1123 142.979 36.2161 142.806 36.3199C142.478 36.5101 142.149 36.7004 141.838 36.8733C140.022 37.911 138.725 38.6201 138.759 39.8308C141.008 42.2521 139.78 43.6876 138.534 44.12L138.119 42.7883C136.805 42.5634 136.822 41.5949 136.77 40.8512C136.736 40.4534 136.424 40.2286 136.113 40.2286C135.854 40.2286 135.594 40.4015 135.577 40.7993C135.542 41.2317 135.577 41.6814 135.456 42.3905C135.369 42.8747 134.851 43.532 134.107 43.532C133.986 43.532 133.865 43.5147 133.744 43.4801L133.467 45.0539C130.907 44.5697 131.184 42.0273 132.914 41.1625C133.899 40.661 134.211 40.2978 133.917 39.9173C133.83 39.8135 133.726 39.7616 133.605 39.7616C133.242 39.7616 132.706 40.1594 132.187 40.5399C131.962 40.7129 131.668 40.7993 131.357 40.7993C130.682 40.7993 129.956 40.3669 129.645 39.3465L128.763 39.8827C128.607 37.9629 129.8 37.0117 131.011 37.0117C131.582 37.0117 132.17 37.2192 132.62 37.6343C132.792 37.79 132.965 37.8591 133.138 37.8591C133.692 37.8591 134.072 37.1673 133.329 36.7695C132.62 36.3891 131.945 35.213 132.602 34.4693L131.53 33.4662C132.014 33.1722 132.533 33.0338 133.017 33.0338C134.09 33.0338 135.075 33.7256 135.387 35.2995C135.456 35.6627 135.612 35.801 135.819 35.801C136.407 35.801 137.445 34.5385 138.223 33.2932C138.413 32.9992 138.586 32.6879 138.759 32.3939C138.984 31.9961 139.226 31.6156 139.486 31.2351C139.814 30.7508 140.16 30.2839 140.593 29.8688C141.319 29.1424 142.582 27.8798 144.034 27.0324C144.38 26.8421 144.743 26.6519 145.107 26.4962C145.539 25.9255 145.971 25.3374 146.352 24.7321C147.372 23.1755 148.22 21.5152 148.704 19.7684C147.908 21.4114 146.802 22.8469 145.574 24.1268C145.003 24.7321 144.415 25.2855 143.792 25.839C142.115 26.7038 140.714 28.1047 139.883 28.9175L139.762 29.0386C139.52 29.2807 139.295 29.5229 139.105 29.7823C138.828 28.0874 138.898 25.9947 139.434 24.0057C139.538 23.6252 139.659 23.2274 139.797 22.8642C140.299 21.5498 141.025 20.3045 142.011 19.3014ZM148.479 12.4352C149.136 12.2104 149.794 12.0374 150.416 12.0374C150.935 12.0374 151.419 12.1585 151.869 12.4179C151.852 12.6255 151.817 12.7984 151.8 12.8849C151.8 12.9022 151.8 12.9022 151.8 12.9022C151.8 12.9022 151.713 12.9887 151.367 13.0233C151.246 13.0406 151.108 13.0406 150.952 13.0406C150.278 13.0406 149.517 12.9368 148.842 12.8157C148.168 12.712 147.147 12.4871 147.147 12.4871C147.044 11.9337 147.13 11.3456 147.338 11.3629C147.58 11.4148 147.753 12.0029 148.479 12.4352ZM147.77 11.5705L148.185 11.1381C149.223 10.2042 149.967 9.99661 150.399 9.99661C151.177 9.99661 151.489 10.6019 151.558 10.7922C151.627 10.9651 151.679 11.1381 151.731 11.2938C151.316 11.1035 150.866 11.0343 150.399 11.0343C149.569 11.0343 148.687 11.2938 147.77 11.5705ZM154.93 64.8915C153.65 65.7563 152.457 66.1714 151.195 66.1714C150.018 66.1714 148.877 65.8254 147.666 65.445C147.338 65.3412 147.009 65.2374 146.663 65.1509C146.127 64.9953 145.556 64.9261 144.986 64.9261C143.602 64.9261 142.409 65.3758 141.63 65.7736C141.717 65.4795 141.994 64.3727 141.994 63.5252C143.014 62.9545 143.723 62.1416 144.069 61.0866C144.588 59.5127 145.003 56.7282 144.588 53.7188C145.401 53.6151 146.559 53.4421 147.718 53.2519C148.981 53.0443 150.018 52.8368 150.779 52.6465C151.143 52.56 151.437 52.4736 151.696 52.3871C151.662 52.9924 151.644 53.5978 151.644 54.2031C151.644 55.7078 151.783 56.832 152.094 57.8178C152.474 58.9939 153.114 60.0143 154.066 60.9482C155.588 62.4529 157.628 62.7815 159.427 62.9026C160.067 62.9545 161.831 63.1793 164.373 63.5598C164.823 63.629 165.186 64.0095 165.204 64.4764C165.273 65.7217 165.221 66.4654 165.152 66.8805L164.149 66.7421C163.318 65.8427 161.9 65.2547 160.517 65.2547C158.77 65.2547 157.455 66.1714 156.867 67.7279C156.556 67.7625 156.21 67.8144 155.864 67.9009C156.521 66.8978 156.573 65.9638 156.591 65.8427L156.677 63.6809L154.93 64.8915ZM137.549 65.0818C137.445 64.9953 137.341 64.8915 137.255 64.7877C137.237 64.7532 137.22 64.7359 137.203 64.7013C136.978 64.3381 137.047 63.9576 137.099 63.5598C137.151 63.162 137.151 62.7642 136.788 62.5048C136.649 62.401 136.494 62.3491 136.338 62.3491C136.234 62.3491 136.148 62.3664 136.061 62.401C135.819 62.4875 135.594 62.695 135.508 62.9717C135.456 63.1101 135.456 63.3004 135.456 63.5252C135.456 63.7154 135.473 63.923 135.473 64.1305C135.473 64.4937 135.439 64.8915 135.283 65.2374C135.266 65.272 135.248 65.3066 135.231 65.3412C135.024 65.6871 134.47 66.1195 133.899 66.1195C133.64 66.1195 133.381 66.033 133.156 65.8082L131.651 66.7248C131.651 66.7248 131.634 66.7248 131.634 66.7075C131.53 66.5519 131.461 66.3962 131.374 66.2578C131.201 65.8946 131.08 65.566 131.011 65.2374C130.734 63.7846 131.599 62.7296 133.121 62.3837C133.744 62.2454 134.245 61.9167 134.055 61.4152C133.934 61.0866 133.726 60.9655 133.415 60.9655C133.086 60.9655 132.62 61.0866 131.98 61.2249C131.772 61.2595 131.582 61.2941 131.392 61.3287C131.236 61.346 131.08 61.3633 130.942 61.3633C130.267 61.3633 129.835 61.0347 129.835 59.6857L128.538 59.9624C129.126 57.9043 130.319 57.1087 131.565 57.1087C132.844 57.1087 134.193 57.9561 135.024 59.1149L135.542 59.2879L136.459 59.5992L138.292 60.2218C140.074 58.7171 139.261 54.7565 139.261 54.7565C139.261 54.7565 135.785 52.8022 136.943 48.4611C136.943 48.4611 137.549 44.3794 144.986 44.3794C145.781 44.3794 146.646 44.4313 147.597 44.5351C148.168 44.6043 148.687 44.6734 149.154 44.7599C149.154 44.7599 149.154 44.7772 149.171 44.7772C148.998 45.175 148.946 45.6247 149.033 46.0571C149.154 46.7316 149.569 47.3023 150.174 47.6136C150.468 47.7693 150.797 47.8558 151.143 47.8558C151.523 47.8558 151.886 47.752 152.232 47.5617C152.232 47.752 152.215 47.9249 152.198 48.0979C152.059 49.0664 151.921 50.1041 151.834 51.1937C150.33 51.9547 143.36 52.8195 143.36 52.8195C144.034 56.1056 143.602 59.2187 143.083 60.7753C142.893 61.346 142.564 61.7957 142.149 62.1589C141.821 62.4529 141.44 62.6777 141.008 62.8507C140.921 63.9922 140.835 64.8396 140.627 65.5141C140.575 65.7563 140.489 65.9638 140.385 66.1368C139.866 67.0188 138.794 67.2264 137.825 67.2955L137.981 65.4623C137.929 65.3585 137.618 65.1336 137.549 65.0818ZM140.022 39.5541C140.316 39.0871 141.302 38.551 142.322 37.9629C142.443 37.8937 142.582 37.8246 142.72 37.7381C142.91 37.911 143.1 38.084 143.291 38.2569C143.758 38.672 144.242 39.0698 144.726 39.4503L144.743 39.4676L147.13 41.9581C147.753 42.6153 148.185 43.1169 148.479 43.532L145.003 43.2898C143.291 43.2898 141.907 43.4974 140.783 43.826C140.939 43.5838 141.06 43.3071 141.129 43.0304C141.405 41.716 140.766 40.488 140.022 39.5541ZM149.897 43.7914C149.69 43.3936 149.361 42.892 148.808 42.2175C148.946 42.304 149.102 42.3905 149.223 42.4597C150.053 42.9266 150.676 43.4974 151.143 44.12C151.506 44.6043 151.748 45.1231 151.938 45.6247C152.007 45.8149 152.059 46.0225 152.094 46.2127C151.886 46.5413 151.523 46.7489 151.143 46.7489C150.987 46.7489 150.831 46.7143 150.676 46.6278C150.105 46.3338 149.88 45.5728 150.278 44.9848C150.312 44.9329 150.347 44.881 150.399 44.8291C150.226 44.5351 150.105 44.2065 149.897 43.7914ZM133.778 12.833C134.47 13.3 135.127 13.8361 135.767 14.3723C136.805 15.2371 137.808 16.1537 138.898 16.9666C139.244 17.226 140.299 18.0216 141.129 18.6615C140.887 18.9209 140.662 19.1804 140.437 19.4571C139.832 20.2527 139.33 21.152 138.95 22.0859L136.995 20.2354C137.203 19.6992 137.272 19.0766 137.203 18.4367C137.203 18.4021 137.185 18.3675 137.185 18.3156L136.148 18.8172C136.182 19.5954 135.888 20.4083 135.179 20.7888C134.954 20.9099 134.764 20.9618 134.505 20.9618C134.505 20.9618 134.505 20.9618 134.487 20.9618L134.522 20.0105C134.176 20.0105 133.709 19.6473 133.709 19.1458C133.709 18.575 134.072 18.2637 134.522 18.1253V17.0185C133.657 17.1741 133.017 17.693 132.758 18.4021L131.616 18.4194C131.565 17.5546 131.98 16.7763 132.862 16.4823V15.3581C132.118 15.5138 131.634 15.877 131.34 16.2056C131.253 16.2921 131.184 16.3958 131.098 16.4996L130.233 16.5169C130.198 15.6867 130.613 14.943 131.392 14.6836V13.5594C130.907 13.6632 130.492 13.8534 130.129 14.1648H129.316C129.333 13.6286 129.645 13.1097 130.077 12.7811C130.458 12.5044 130.942 12.3488 131.426 12.2969C131.582 12.2796 131.737 12.2623 131.893 12.2623C132.101 12.2623 132.308 12.2796 132.498 12.3142C132.965 12.4006 133.398 12.5736 133.778 12.833ZM131.461 5.91495C132.118 4.79076 132.498 3.35526 132.516 1.86788H135.127C135.145 2.05813 135.162 2.23108 135.162 2.42132C135.162 5.27503 132.879 7.59258 130.06 7.59258H129.87C130.475 7.22938 131.011 6.67594 131.461 5.91495ZM119.544 5.91495C120.202 4.79076 120.582 3.35526 120.599 1.86788H124.145C124.162 3.35526 124.543 4.79076 125.2 5.91495C125.65 6.67594 126.186 7.24668 126.791 7.59258H124.422C123.816 6.96996 123.315 6.12249 122.986 5.11937H121.793C121.481 6.12249 120.98 6.96996 120.357 7.59258H117.936C118.559 7.22938 119.112 6.67594 119.544 5.91495ZM107.455 5.91495C108.112 4.79076 108.493 3.35526 108.51 1.86788H112.246C112.263 3.35526 112.644 4.79076 113.301 5.91495C113.75 6.67594 114.287 7.22938 114.892 7.59258H112.315C111.71 6.96996 111.208 6.12249 110.879 5.11937H109.686C109.375 6.12249 108.873 6.96996 108.251 7.59258H105.829C106.452 7.22938 107.005 6.67594 107.455 5.91495ZM95.6597 5.91495C96.3169 4.79076 96.6974 3.35526 96.7147 1.86788H100.139C100.156 3.35526 100.537 4.79076 101.194 5.91495C101.644 6.67594 102.18 7.24668 102.785 7.59258H100.364C99.7587 6.96996 99.2571 6.12249 98.9285 5.11937H97.7351C97.4238 6.12249 96.9223 6.96996 96.2996 7.59258H94.034C94.6739 7.22938 95.2273 6.67594 95.6597 5.91495ZM85.6458 2.33485C85.6458 2.17919 85.6458 2.02354 85.6631 1.85058H88.3439C88.3612 3.33797 88.7416 4.77347 89.3989 5.89766C89.8485 6.65864 90.3847 7.22938 90.99 7.57529H90.7306C87.998 7.59258 85.6458 5.18855 85.6458 2.33485ZM81.616 16.9493C82.7056 16.1364 83.7087 15.2371 84.7465 14.355C85.3864 13.8188 86.0436 13.2827 86.7354 12.8157C87.1332 12.539 87.5829 12.3661 88.0671 12.2969C88.2401 12.2623 88.4303 12.245 88.6206 12.245C88.7935 12.245 88.9665 12.2623 89.1567 12.2796C89.6237 12.3488 90.0907 12.4871 90.4539 12.7638C90.8862 13.0752 91.1976 13.594 91.2149 14.1475H90.402C90.0388 13.8534 89.6064 13.6459 89.1394 13.5421V14.6663C89.935 14.9257 90.3501 15.6694 90.2982 16.4996L89.4335 16.4823C89.3643 16.3785 89.2778 16.2921 89.1913 16.1883C88.8973 15.877 88.3957 15.5138 87.6693 15.3408V16.465C88.5341 16.759 88.9492 17.5373 88.9146 18.4021L87.7731 18.3848C87.5137 17.6584 86.8738 17.1568 86.009 17.0012V18.1081C86.4587 18.2464 86.8219 18.5577 86.8219 19.1285C86.8219 19.63 86.3722 19.9932 86.009 19.9932L86.0436 20.9445C86.0436 20.9445 86.0436 20.9445 86.0263 20.9445C85.7842 20.9445 85.5766 20.8753 85.3518 20.7715C84.6427 20.391 84.366 19.5608 84.3833 18.7999L83.3455 18.2983C83.3455 18.3329 83.3283 18.3675 83.3283 18.4194C83.2418 19.0593 83.3283 19.6819 83.5358 20.2181L81.5814 22.0859C81.2009 21.152 80.6994 20.2699 80.0941 19.4571C79.8692 19.1804 79.6444 18.9036 79.4023 18.6615C80.2151 18.0043 81.2701 17.2087 81.616 16.9493ZM49.4816 67.7798C49.3259 66.7248 49.4989 62.9717 49.62 60.8271C49.6718 59.9624 50.3291 59.2533 51.1765 59.1322C52.145 58.9939 53.3903 58.8036 54.3069 58.6134C55.7597 58.3021 57.1607 57.6621 57.4893 56.6244C57.766 55.7251 57.6103 55.6213 57.5238 54.7046C57.4547 53.9955 57.3682 53.2691 57.3163 52.56C57.3163 52.4563 57.299 52.3352 57.299 52.2314C57.2817 51.8164 57.299 51.384 57.3509 50.9689C57.2644 51.0208 57.1779 51.0727 57.0915 51.1245C56.8147 51.2802 56.5207 51.384 56.2267 51.4705C55.8981 51.5569 55.5695 51.5915 55.2236 51.5915C54.4972 51.5915 53.7881 51.4013 53.1482 51.0035C51.9894 50.2944 51.3149 49.0664 51.3495 47.7174C51.4014 45.3134 52.7677 43.6184 54.0821 41.9754C54.7047 41.1971 55.362 40.3842 55.8462 39.5195C57.3855 36.7523 57.7487 33.7429 56.9185 30.5779C56.5553 29.1943 55.7251 27.949 54.8431 26.6173C54.5145 26.1157 54.2032 25.6487 53.8919 25.1299C53.8919 25.1299 53.2001 25.4412 52.7504 25.3374C52.6293 25.3028 52.5082 25.251 52.3699 25.1645C51.3149 24.5073 50.1907 21.8265 50.2426 18.6096C50.2772 16.0499 50.8825 13.9226 52.0759 12.1758C51.8164 12.9022 51.5916 13.6632 51.4532 14.4242C51.2976 15.2543 51.2457 16.1191 51.2976 16.9493C51.3495 17.7967 51.5224 18.6096 51.7991 19.3706C51.6781 18.5577 51.6781 17.7449 51.7818 16.9493C51.8856 16.1537 52.0932 15.3927 52.3872 14.6663C52.6466 14.0264 52.9579 13.4038 53.3211 12.8157C53.079 14.3031 53.079 15.8078 53.4768 17.6757C53.7189 18.8344 54.2205 19.9413 54.6528 20.9099C55.0506 21.7919 55.3447 22.501 55.4657 23.0891C55.6041 23.729 55.5176 24.2132 55.0852 24.611C55.1544 24.7321 55.2409 24.8532 55.3101 24.9742C55.5003 25.2683 55.7079 25.5796 55.9154 25.8909C56.8147 27.2572 57.7487 28.6581 58.1638 30.2493C59.0631 33.7083 58.648 37.1327 56.9704 40.1594C56.4342 41.1279 55.7424 41.9754 55.0852 42.8056C53.8573 44.3448 52.6812 45.7976 52.6293 47.7693C52.612 48.6686 53.0444 49.4469 53.8054 49.9139C54.601 50.3982 55.5522 50.4327 56.3651 50.035C56.3824 50.0177 56.417 50.0177 56.4343 50.0004C57.0569 49.6718 57.6103 49.0491 57.9389 48.3227C57.9562 48.2881 57.9562 48.2535 57.9735 48.219C58.3713 47.0602 58.8556 45.9187 59.409 44.8291C61.0348 41.5776 63.0583 38.5337 64.3382 35.1092C65.445 32.169 64.9435 28.5889 64.9435 28.5889C63.8193 29.0386 62.1763 29.0905 62.1763 29.0905C62.2281 25.4239 54.3588 16.9147 59.1496 6.53758C59.4782 7.07373 59.9106 7.62717 60.5159 8.19791L60.9483 8.613V7.10832C58.4405 4.51404 59.5993 2.04083 60.5332 1.21066C61.2423 1.47009 62.0552 2.24837 62.6605 3.19961L63.7155 2.8537C63.4561 2.42132 63.1621 2.00624 62.8335 1.62575C62.9372 1.55657 63.041 1.50468 63.1621 1.48739C63.214 1.48739 63.2831 1.47009 63.3696 1.47009C64.9435 1.47009 70.8584 2.83641 71.4465 3.14772L71.9653 4.72158C73.5738 5.15396 75.0612 6.01872 76.1162 6.58946C75.9432 7.03914 75.4589 8.05955 74.4904 7.95578C74.4904 7.95578 75.4417 8.52652 75.2514 9.42587C74.9401 10.0831 74.5423 10.7576 74.0407 11.3456L73.0722 10.3771C71.9307 9.3221 70.9276 8.94161 70.0974 8.94161C69.0078 8.94161 68.2469 9.63341 67.9355 10.429C67.4513 11.6397 67.5032 12.6082 67.6761 13.2308C67.8145 13.6978 68.195 14.0783 69.0597 14.1475C69.2154 14.1647 69.3883 14.1648 69.5613 14.1648C71.3427 14.1648 73.6775 13.5248 73.6775 13.5248C74.0407 15.4619 74.2656 15.8424 71.4984 15.8424C70.8584 15.8424 70.0629 15.8251 69.077 15.7905L71.8443 17.053C72.1556 17.0357 72.4496 17.0185 72.7436 17.0185C74.7844 17.0185 76.4102 17.6238 77.69 18.6096C77.984 18.8344 78.2608 19.0766 78.5202 19.336C79.506 20.3391 80.2151 21.5844 80.7167 22.8988C80.855 23.2793 80.9761 23.6598 81.0799 24.0403C81.616 26.0465 81.6852 28.1393 81.4085 29.8169C81.2009 29.5575 80.9934 29.3153 80.7513 29.0732L80.6302 28.9521C79.8 28.1393 78.3991 26.7383 76.7215 25.8736C76.0989 25.3201 75.5108 24.7667 74.9401 24.1614C73.7121 22.8642 72.6225 21.4287 71.8097 19.803C72.3112 21.5498 73.1587 23.2274 74.1618 24.7667C74.5596 25.372 74.9747 25.9601 75.4071 26.5308C75.7876 26.6865 76.1335 26.8594 76.4794 27.067C77.9495 27.8971 79.1947 29.177 79.9211 29.9034C80.3535 30.3184 80.6994 30.7854 81.028 31.2697C81.2874 31.6502 81.5123 32.0307 81.7544 32.4285C81.9273 32.7225 82.1176 33.0338 82.2905 33.3278C83.0688 34.5904 84.1065 35.8356 84.6946 35.8356C84.9021 35.8356 85.0578 35.68 85.127 35.334C85.4383 33.7602 86.4241 33.0684 87.4964 33.0684C87.998 33.0684 88.5168 33.224 88.9838 33.5008L87.9115 34.5039C88.5514 35.2649 87.8769 36.4236 87.1851 36.8041C86.4414 37.2019 86.8392 37.8937 87.3753 37.8937C87.5483 37.8937 87.7212 37.8246 87.8942 37.6689C88.3439 37.2538 88.9319 37.0463 89.5026 37.0463C90.7133 37.0463 91.9067 37.9802 91.751 39.9173L90.8171 39.3984C90.5058 40.4188 89.7794 40.8512 89.1048 40.8512C88.7935 40.8512 88.4995 40.7647 88.2747 40.5918C87.7558 40.2113 87.2197 39.8135 86.8565 39.8135C86.7354 39.8135 86.6143 39.8654 86.5452 39.9692C86.2684 40.3497 86.5625 40.7301 87.5483 41.2144C89.2951 42.0792 89.5718 44.6216 86.9948 45.1058L86.7181 43.532C86.597 43.5666 86.476 43.5838 86.3549 43.5838C85.6112 43.5838 85.0924 42.9266 85.0059 42.4424C84.8848 41.7333 84.9194 41.3009 84.8848 40.8512C84.8675 40.4534 84.6081 40.2805 84.3487 40.2805C84.0374 40.2805 83.726 40.5053 83.6915 40.9031C83.6396 41.6468 83.6569 42.6153 82.3424 42.8402L81.9273 44.1719C80.6821 43.7395 79.4368 42.304 81.7025 39.8827C81.7371 38.6547 80.44 37.9456 78.624 36.9252C78.3127 36.7523 77.984 36.562 77.6554 36.3718C77.4825 36.268 77.3095 36.1642 77.1366 36.0604C76.7734 35.8356 75.3725 34.8152 74.1445 33.7602L73.0722 34.3309C73.2971 34.5212 73.5392 34.7287 73.8159 34.9708C74.9228 35.8875 76.1162 36.7868 76.5658 37.0463C76.6523 37.0982 76.7388 37.15 76.8253 37.2019C75.6492 38.2915 74.3866 39.2428 73.2452 40.0037C72.7782 40.3151 72.3285 40.6091 71.9134 40.8685C71.4984 41.1279 71.1006 41.3528 70.772 41.543C69.8553 42.0619 69.1289 42.7018 68.5755 43.4282C68.2123 43.8952 67.9355 44.3967 67.728 44.8983C67.5205 45.3825 67.3821 45.8841 67.3129 46.3857C67.2783 46.5586 67.261 46.7143 67.2437 46.8872C67.2092 47.3542 67.2264 47.8039 67.2783 48.2363C67.3475 48.7032 67.3994 49.1702 67.4686 49.6372C67.555 50.3463 67.6242 51.0381 67.6761 51.7472C67.7453 52.5773 67.7799 53.3902 67.7799 54.2031C67.7799 56.6936 67.3994 58.475 65.6699 60.1699C64.4246 61.3979 62.6778 61.6919 60.9829 61.813C60.1008 61.8649 57.6276 62.2281 55.95 62.4875C54.9815 62.6258 54.2551 63.4387 54.2032 64.4245C54.134 65.7563 54.1513 67.5031 54.6183 68.0911L56.9012 67.7798C57.4374 66.9842 58.7172 66.3616 59.9625 66.3616C60.931 66.3616 61.8822 66.7421 62.4184 67.7452C62.574 68.0392 62.7124 68.3851 62.7816 68.8002C62.7989 68.9213 62.8162 69.0424 62.8335 69.1807L62.1071 68.8867L61.692 68.7137C61.6747 68.8175 61.6574 68.904 61.6401 68.9905C61.398 69.9936 60.8791 70.3568 60.2565 70.3568C59.9625 70.3568 59.6512 70.2703 59.3225 70.1492C59.288 70.1319 59.2534 70.1147 59.2015 70.0974C58.6134 69.8552 58.1984 69.665 57.887 69.665C57.6795 69.665 57.5238 69.7515 57.3855 69.9936C57.1952 70.3222 57.3855 70.5989 57.7141 70.8238C57.8179 70.8929 57.9562 70.9621 58.0773 71.014C59.8241 71.7404 60.3257 73.4353 58.7172 75.1994L57.5066 74.1271C57.3163 74.2482 57.1261 74.3001 56.9531 74.3001C56.3651 74.3001 55.8289 73.7639 55.6906 73.3661C55.4657 72.7608 55.7079 72.069 55.7943 71.5674C55.8116 71.4291 55.8289 71.2907 55.8116 71.187C55.777 70.9102 55.5868 70.6854 55.3619 70.5643C55.2582 70.5124 55.1544 70.4779 55.0333 70.4779C54.9296 70.4779 54.8258 70.4951 54.722 70.547C54.6183 70.5989 54.5318 70.6681 54.4626 70.7546C54.3069 70.9448 54.2724 71.2043 54.2724 71.4637C54.2724 71.602 54.2724 71.7577 54.2551 71.8961C54.2205 72.1382 54.1513 72.363 53.9437 72.5533C53.84 72.6397 53.7362 72.7089 53.6324 72.7781C53.5633 72.8127 53.2346 72.9684 53.2173 73.0375L53.0617 74.7325C51.851 74.4385 50.5193 73.8504 50.8479 71.9652C50.8998 71.6539 51.0036 71.2907 51.1765 70.8929C51.2284 70.7546 51.2976 70.5989 51.3841 70.4433C50.3463 69.9244 49.6545 68.9386 49.4816 67.7798ZM70.1147 12.0374C70.7374 12.0374 71.3773 12.1931 72.0518 12.4352C72.7782 11.9856 72.9339 11.4148 73.2106 11.3802C73.4181 11.3629 73.5046 11.951 73.4008 12.5044C73.4008 12.5044 72.3804 12.7293 71.7059 12.833C71.0314 12.9541 70.2704 13.0579 69.5959 13.0579C69.4402 13.0579 69.3019 13.0579 69.1808 13.0406C68.8522 13.006 68.7484 12.9368 68.7484 12.9195C68.7484 12.9195 68.7484 12.9195 68.7484 12.9022C68.7138 12.7984 68.6792 12.6428 68.6792 12.4352C69.1116 12.1585 69.5959 12.0374 70.1147 12.0374ZM68.783 11.2938C68.8176 11.1381 68.8868 10.9651 68.956 10.7922C69.0251 10.6019 69.3365 9.99661 70.1147 9.99661C70.5644 9.99661 71.3081 10.1869 72.3285 11.1381L72.7436 11.5705C71.827 11.2765 70.9276 11.0343 70.0974 11.0343C69.6478 11.0343 69.2154 11.1208 68.783 11.2938ZM82.2214 60.2218L84.0719 59.5992L84.9886 59.2879L85.5074 59.1149C86.3376 57.9388 87.6866 57.1087 88.9665 57.1087C90.2117 57.1087 91.4051 57.9043 91.9931 59.9624L90.696 59.6857C90.696 61.0174 90.2636 61.3633 89.5891 61.3633C89.4507 61.3633 89.2951 61.346 89.1394 61.3287C88.9492 61.2941 88.7589 61.2595 88.5514 61.2249C87.9115 61.1039 87.4445 60.9655 87.1159 60.9655C86.8046 60.9655 86.597 61.0866 86.476 61.4152C86.303 61.9167 86.7873 62.2281 87.4099 62.3837C88.9319 62.7296 89.7967 63.8019 89.5199 65.2374C89.4507 65.566 89.347 65.8946 89.1567 66.2578C89.0875 66.4135 89.0011 66.5519 88.8973 66.7075C88.8973 66.7075 88.88 66.7075 88.88 66.7248L87.3753 65.8082C87.1505 66.033 86.8911 66.1195 86.6316 66.1195C86.0609 66.1195 85.5074 65.7044 85.2999 65.3412C85.2826 65.3066 85.2653 65.272 85.248 65.2374C85.0751 64.8915 85.0578 64.4937 85.0578 64.1305C85.0578 63.923 85.0751 63.7154 85.0751 63.5252C85.0751 63.3004 85.0751 63.1101 85.0232 62.9717C84.9367 62.695 84.7119 62.5048 84.4697 62.401C84.3833 62.3664 84.2795 62.3491 84.193 62.3491C84.0374 62.3491 83.8817 62.401 83.7433 62.5048C83.3801 62.7642 83.3801 63.162 83.432 63.5598C83.4839 63.9749 83.5531 64.3554 83.3283 64.7013C83.311 64.7359 83.2937 64.7532 83.2764 64.7877C83.1899 64.8915 83.0861 64.9953 82.9824 65.0818C82.9132 65.1336 82.6019 65.3585 82.6019 65.445L82.7575 67.2782C81.789 67.2091 80.7167 67.0015 80.1978 66.1195C80.0941 65.9465 80.0076 65.7217 79.9557 65.4968C79.7654 64.8223 79.679 63.9922 79.5752 62.8334C79.1428 62.6604 78.7623 62.4356 78.4337 62.1416C78.0186 61.7784 77.69 61.3287 77.4998 60.758C76.9809 59.2014 76.5313 56.0883 77.2231 52.8022C77.2231 52.8022 70.2531 51.9374 68.7484 51.1764C68.6446 50.0868 68.5236 49.0318 68.3852 48.0806C68.3679 47.9076 68.3506 47.7347 68.3506 47.5444C68.6792 47.7347 69.0597 47.8385 69.4402 47.8385C69.7861 47.8385 70.0974 47.752 70.4088 47.5963C71.0141 47.285 71.4292 46.7143 71.5502 46.0398C71.6367 45.6074 71.5848 45.1577 71.4119 44.7599C71.4119 44.7599 71.4119 44.7426 71.4292 44.7426C71.8961 44.6561 72.415 44.587 72.9857 44.5178C73.937 44.414 74.8017 44.3621 75.5973 44.3621C83.0342 44.3621 83.6396 48.4438 83.6396 48.4438C84.7983 52.7849 81.322 54.7392 81.322 54.7392C81.322 54.7392 80.4573 58.7171 82.2214 60.2218ZM63.9058 65.8427C63.9058 65.9638 63.9749 66.8978 64.6322 67.9009C64.269 67.8144 63.9404 67.7625 63.629 67.7279C63.041 66.1714 61.7266 65.2547 59.9798 65.2547C58.5962 65.2547 57.1779 65.8427 56.3478 66.7421L55.3447 66.8805C55.2755 66.4481 55.2236 65.7044 55.2928 64.4764C55.3101 64.0095 55.6733 63.629 56.1229 63.5598C58.6653 63.1793 60.4294 62.9372 61.0694 62.9026C62.8681 62.7815 64.9089 62.4529 66.4309 60.9482C67.3821 60.0143 68.0393 58.9766 68.4025 57.8178C68.7138 56.832 68.8522 55.7251 68.8522 54.2031C68.8522 53.5978 68.8349 52.9924 68.8003 52.3871C69.0597 52.4736 69.371 52.56 69.717 52.6465C70.4779 52.8368 71.5157 53.0443 72.7782 53.2519C73.937 53.4421 75.0957 53.6151 75.9086 53.7188C75.4935 56.7455 75.8913 59.5127 76.4275 61.0866C76.7734 62.1243 77.4825 62.9545 78.5029 63.5252C78.5029 64.6321 78.8488 65.739 78.8488 65.7736C78.0705 65.3758 76.8772 64.9261 75.4935 64.9261C74.9228 64.9261 74.3521 65.0126 73.8159 65.1509C73.47 65.2547 73.1414 65.3585 72.8128 65.445C71.6021 65.8082 70.4779 66.1714 69.2846 66.1714C68.022 66.1714 66.8287 65.7736 65.5488 64.8915L63.7674 63.6809L63.9058 65.8427ZM70.2704 45.0021C70.6509 45.5901 70.4434 46.3511 69.8726 46.6451C69.717 46.7316 69.5613 46.7662 69.4056 46.7662C69.0251 46.7662 68.6619 46.5586 68.4544 46.23C68.489 46.0398 68.5582 45.8322 68.6101 45.642C68.783 45.1231 69.0424 44.6216 69.4056 44.1373C69.8726 43.5147 70.4952 42.9439 71.3254 42.477C71.4465 42.4078 71.5848 42.3213 71.7405 42.2348C71.187 42.9093 70.8584 43.3936 70.6509 43.8087C70.426 44.2238 70.3223 44.5524 70.1666 44.8637C70.1839 44.8983 70.2358 44.9502 70.2704 45.0021ZM77.2404 38.2742C77.4306 38.1013 77.6208 37.9283 77.8111 37.7554C77.9495 37.8246 78.0705 37.911 78.2089 37.9802C79.2293 38.551 80.1978 39.1044 80.5091 39.5714C79.7654 40.488 79.1082 41.7333 79.4368 43.0304C79.506 43.3071 79.6271 43.5838 79.7827 43.826C78.6586 43.4974 77.2749 43.2898 75.5627 43.2898L72.0864 43.532C72.3804 43.1169 72.7955 42.6153 73.4354 41.9581L75.8221 39.4676L75.8394 39.4503C76.2891 39.0871 76.7734 38.6893 77.2404 38.2742ZM61.8131 75.2686C60.0317 77.1711 57.6276 78.0531 55.1544 78.0531C50.9171 78.0531 46.5414 75.4416 45.0021 70.8411C45.0021 70.8411 47.0949 71.5502 49.7929 71.8615C49.6718 72.6052 49.741 73.2624 50.0177 73.8504C50.6058 75.0957 51.9029 75.5453 52.8196 75.7875L54.0475 76.0988L54.1686 74.8362L54.2896 73.6602C54.3934 73.591 54.5145 73.5045 54.6183 73.418C54.6356 73.5218 54.6701 73.6256 54.7047 73.7293C54.9988 74.5422 55.9327 75.3724 56.9877 75.3724C57.0915 75.3724 57.1952 75.3724 57.299 75.3551L58.0427 76.0123L58.8383 76.7214L59.5647 75.9258C60.5851 74.8189 61.0002 73.5737 60.7407 72.4322C60.6543 72.069 60.5159 71.7231 60.3084 71.4118C60.9483 71.4118 61.519 71.1697 61.9514 70.72C62.1071 70.547 62.2627 70.3568 62.3665 70.132L62.4357 70.1492L64.1133 70.8411L63.9231 69.0424C63.9231 68.9732 63.9058 68.9213 63.9058 68.8521C64.6495 68.9732 65.5488 69.2499 66.6903 69.6823C66.846 69.7688 67.0189 69.8379 67.1746 69.8898C67.261 69.9244 67.3302 69.959 67.4167 69.9763C67.0535 70.1838 66.6903 70.3914 66.3617 70.5989C64.7186 71.6539 63.5945 72.7954 63.0064 73.9888C62.6432 74.4039 62.2454 74.8189 61.8131 75.2686ZM74.6288 71.5156C73.4354 72.5187 71.7751 72.7262 70.2704 72.83C65.7045 73.1759 63.8366 77.2922 63.8366 77.2922C63.4561 76.3409 63.5253 75.4416 63.8885 74.6287C64.4419 73.3834 65.6872 72.3111 67.0016 71.481C69.1981 70.0974 71.6194 69.3191 71.6194 69.3191C71.187 69.3537 70.7892 69.371 70.4088 69.371C69.4575 69.371 68.6792 69.2499 68.0393 69.0596C67.6761 68.9559 67.3475 68.8175 67.0708 68.6792C65.0472 67.6414 64.9781 65.7909 64.9781 65.7909C66.5865 66.8805 68.0047 67.261 69.3192 67.261C71.0141 67.261 72.5534 66.6556 74.1272 66.2059C74.5942 66.0676 75.0612 66.0157 75.5108 66.0157C76.808 66.0157 77.9322 66.5 78.5721 66.8459C77.7592 67.3474 77.0674 67.9873 76.5313 68.8002C76.3237 69.1288 76.1335 69.4574 75.9778 69.7687C75.4762 70.4779 75.1476 71.1005 74.6288 71.5156ZM82.2214 69.9417C80.6302 70.3049 79.1428 71.2215 78.6413 72.8646C78.3472 73.8158 78.3991 74.8535 78.451 75.8394C78.451 75.8394 75.1995 73.9888 76.929 70.3395C77.0674 70.0455 77.2576 69.7169 77.4652 69.3883C77.8803 68.7483 78.3818 68.2987 78.8488 67.9528C79.0218 67.849 79.1947 67.7625 79.385 67.6587L79.8692 67.4166C80.6994 68.1257 81.8236 68.2987 82.6537 68.3505L83.9163 68.437L83.8125 67.1745L83.7088 65.86C83.8471 65.739 83.9855 65.6006 84.1238 65.4277C84.1238 65.4104 84.1411 65.4104 84.1411 65.3931C84.193 65.5487 84.2622 65.7044 84.3487 65.8427C84.7292 66.5 85.6285 67.1572 86.6143 67.1572C86.8738 67.1572 87.1159 67.1053 87.358 67.0188L87.9288 67.3647C87.8942 67.3993 87.8423 67.4339 87.8077 67.4685C85.9571 69.2153 84.5908 69.4056 82.2214 69.9417ZM131.288 75.9604C131.288 75.9604 132.222 71.8269 130.233 70.5124C127.05 68.437 125.356 70.2184 121.793 67.5031C121.758 67.4512 121.706 67.4166 121.672 67.3647C119.994 65.6698 118.143 64.5975 116.466 64.0268C115.307 64.217 114.027 64.3554 112.609 64.4245C112.886 64.4418 113.162 64.4591 113.456 64.4937C113.958 64.5456 114.494 64.6321 115.048 64.7532C115.895 64.9434 116.794 65.2374 117.694 65.6698C118.783 66.2059 119.873 67.0707 120.893 68.1084C120.963 68.1776 121.014 68.2295 121.066 68.2987C123.28 70.7027 122.692 73.0548 122.692 73.0548C122.692 73.0548 119.856 69.2845 115.618 69.2845C113.595 69.2845 111.848 69.959 110.949 70.4087L110.291 70.7546L109.634 70.4087C108.735 69.9763 106.988 69.2845 104.965 69.2845C100.727 69.2845 97.8908 73.0548 97.8908 73.0548C97.8908 73.0548 97.2855 70.7027 99.5165 68.2987C99.5684 68.2295 99.6376 68.1776 99.6895 68.1084C100.71 67.0707 101.8 66.1886 102.889 65.6698C103.788 65.2374 104.688 64.9434 105.535 64.7532C106.089 64.6321 106.625 64.5456 107.126 64.4937C107.42 64.4591 107.714 64.4418 107.991 64.4245C106.573 64.3554 105.293 64.217 104.117 64.0268C102.439 64.5975 100.589 65.6525 98.9112 67.3647C98.8593 67.4166 98.8247 67.4512 98.7901 67.5031C95.2273 70.2184 93.5324 68.437 90.3501 70.5124C88.3612 71.8096 89.2951 75.9604 89.2951 75.9604C89.2951 75.9604 85.0924 72.7781 88.8973 68.5754C89.6929 67.6933 90.6614 66.9669 91.3705 66.4827C91.9586 66.0849 92.3736 65.86 92.3736 65.86C92.3736 65.86 92.0277 65.8255 91.5781 65.739C91.3359 65.7044 91.0419 65.6352 90.7306 65.566C90.6787 65.5487 90.6095 65.5314 90.5403 65.5141C90.696 64.7704 90.6441 64.044 90.3847 63.4041C90.2809 63.1447 90.1253 62.8853 89.9523 62.6604C91.5953 63.1101 93.6189 63.456 95.9191 63.456C96.8012 63.456 97.7178 63.2658 98.6864 63.162C99.015 63.1274 99.3782 63.1101 99.7414 63.1101C99.8624 63.1101 99.9835 63.1101 100.105 63.1274C99.2052 62.8507 98.4097 62.5394 97.6833 62.2281C97.0952 62.3145 96.5072 62.401 95.9191 62.401C94.1032 62.401 92.4774 62.1762 91.0765 61.8476C91.3359 61.5881 91.4916 61.2941 91.5954 60.9655L91.751 61.0001L93.5151 61.3806L93.0136 59.6338C92.0796 56.3477 89.8658 56.0018 88.9492 56.0018C87.4791 56.0018 85.8879 56.8493 84.8329 58.181L82.5846 58.942C82.083 58.0253 82.1176 56.3996 82.256 55.3792C82.6537 55.0851 83.2245 54.5836 83.7433 53.8399C84.5389 52.7157 85.3345 50.8305 84.6427 48.2017C84.5735 47.8558 84.2103 46.524 82.7921 45.348L83.0515 44.5005L83.2764 43.7568C83.6223 43.6184 83.899 43.4109 84.1065 43.1861C84.4179 43.826 85.0232 44.414 85.7842 44.6043L85.9052 45.2615L86.0955 46.403L87.2197 46.1954C88.7762 45.9014 89.8139 44.9329 90.0042 43.6184C90.0907 43.0304 89.9869 42.4251 89.7275 41.8716C90.3155 41.7333 90.8517 41.4047 91.2494 40.9031L92.7195 41.7333L92.8579 39.9692C92.979 38.4299 92.4255 37.4614 91.9413 36.9425C91.3186 36.268 90.4193 35.8875 89.4853 35.8875C89.3816 35.8875 89.2951 35.8875 89.1913 35.9048C89.2086 35.8183 89.2432 35.7318 89.2605 35.6454C89.3124 35.3513 89.3124 35.0573 89.2605 34.7633L89.7621 34.2963L90.869 33.2586L89.5718 32.4803C88.9146 32.0826 88.2055 31.875 87.4964 31.875C86.3203 31.875 84.9713 32.4803 84.2968 34.1061C84.0201 33.7775 83.6569 33.3105 83.2591 32.6706C83.1034 32.4112 82.9478 32.1517 82.7921 31.8923C82.6192 31.5983 82.4289 31.287 82.2387 30.993V30.9757C82.8094 28.8311 82.7921 25.8909 81.9446 23.1582L84.0719 21.1347C84.2795 21.3768 84.5389 21.5671 84.8156 21.7054C85.2134 21.913 85.5766 22.0168 85.9917 22.0168H86.009L87.1332 21.9995V20.6159C87.1678 20.5813 87.2197 20.5467 87.2543 20.5121C87.5656 20.2181 87.7558 19.8549 87.825 19.4398L88.8627 19.4571L89.9004 19.4744L89.9523 18.4367C89.9696 18.1253 89.935 17.8313 89.8831 17.5373H90.2636L91.3013 17.5546L91.3532 16.5169C91.3705 16.0499 91.3013 15.6003 91.1457 15.2025H91.1803H92.2872L92.2526 14.0956C92.2353 13.2308 91.7856 12.4006 91.0592 11.8818C90.4193 11.4148 89.6929 11.2419 89.1221 11.19V8.66488H131.392V11.1727C130.821 11.2246 130.06 11.3975 129.403 11.8818C128.676 12.4179 128.227 13.2481 128.209 14.0956L128.175 15.2025H129.282H129.316C129.16 15.6003 129.074 16.0499 129.109 16.5169L129.16 17.5546L130.198 17.5373H130.579C130.51 17.814 130.492 18.1253 130.51 18.4367L130.561 19.4744L131.599 19.4571L132.637 19.4398C132.706 19.8376 132.896 20.2181 133.208 20.5121C133.242 20.5467 133.294 20.5813 133.329 20.6159V21.9995L134.453 22.0168H134.47C134.885 22.0168 135.248 21.913 135.646 21.7054C135.923 21.5498 136.182 21.3595 136.39 21.1347L138.517 23.1582C137.67 25.8909 137.635 28.8311 138.223 30.9757V30.993C138.033 31.287 137.843 31.5983 137.67 31.8923C137.514 32.1517 137.358 32.4112 137.203 32.6706C136.822 33.2932 136.442 33.7948 136.165 34.1234C135.491 32.4976 134.141 31.8923 132.965 31.8923C132.256 31.8923 131.547 32.0998 130.89 32.4976L129.593 33.2759L130.7 34.3136L131.201 34.7806C131.149 35.0573 131.149 35.3513 131.201 35.6627C131.219 35.7491 131.236 35.8356 131.27 35.9221C131.167 35.9221 131.08 35.9048 130.976 35.9048C130.025 35.9048 129.126 36.2853 128.521 36.9598C128.036 37.4959 127.483 38.4472 127.604 39.9865L127.742 41.7506L129.212 40.9204C129.61 41.4047 130.146 41.7333 130.734 41.8889C130.475 42.4424 130.371 43.0304 130.458 43.6357C130.648 44.9675 131.686 45.936 133.242 46.2127L134.366 46.4203L134.557 45.2788L134.678 44.6216C135.456 44.414 136.061 43.8433 136.355 43.2034C136.563 43.4282 136.84 43.6184 137.185 43.7741L137.376 44.3967L137.41 44.5178L137.67 45.3653C136.252 46.5586 135.888 47.8731 135.819 48.219C135.127 50.8478 135.923 52.733 136.718 53.8572C137.237 54.6009 137.808 55.1024 138.206 55.3965C138.344 56.4169 138.379 58.0426 137.877 58.9593L135.629 58.1983C134.557 56.8665 132.983 56.0191 131.513 56.0191C130.596 56.0191 128.382 56.365 127.448 59.6511L126.947 61.3979L128.711 61.0174L128.866 60.9828C128.97 61.2941 129.126 61.6054 129.385 61.8649C127.984 62.1762 126.359 62.4183 124.543 62.4183C123.955 62.4183 123.367 62.3318 122.779 62.2453C122.052 62.5567 121.257 62.868 120.357 63.1447C120.478 63.1447 120.582 63.1447 120.703 63.1447C121.066 63.1447 121.43 63.162 121.758 63.1966C122.727 63.3176 123.643 63.4906 124.525 63.4906C126.826 63.4906 128.849 63.1447 130.492 62.695C130.319 62.9199 130.164 63.162 130.06 63.4387C129.8 64.0786 129.749 64.805 129.904 65.5487C129.835 65.566 129.783 65.5833 129.714 65.6006C129.403 65.6698 129.109 65.739 128.866 65.7736C128.4 65.86 128.123 65.8773 128.123 65.8773C128.123 65.8773 128.538 66.1022 129.126 66.5C129.835 66.9842 130.786 67.7106 131.599 68.5927C135.491 72.7781 131.288 75.9604 131.288 75.9604ZM142.08 75.8394C142.132 74.8535 142.166 73.8158 141.89 72.8646C141.388 71.2215 139.901 70.3222 138.31 69.9417C135.94 69.3883 134.574 69.2153 132.723 67.5031C132.689 67.4685 132.637 67.4339 132.602 67.3993L133.173 67.0534C133.398 67.1399 133.657 67.1918 133.917 67.1918C134.92 67.1918 135.819 66.5346 136.182 65.8773C136.269 65.7217 136.338 65.5833 136.39 65.4277C136.39 65.445 136.407 65.445 136.407 65.4623C136.546 65.6352 136.684 65.7736 136.822 65.8946L136.718 67.2091L136.615 68.4716L137.877 68.3851C138.707 68.3333 139.814 68.1603 140.662 67.4512L141.146 67.6933C141.336 67.7971 141.509 67.8836 141.682 67.9873C142.166 68.3333 142.651 68.7829 143.066 69.4229C143.291 69.7515 143.464 70.0628 143.602 70.3741C145.331 73.9888 142.08 75.8394 142.08 75.8394ZM156.66 77.3094C156.66 77.3094 154.809 73.1932 150.226 72.8473C148.721 72.7262 147.078 72.5187 145.868 71.5329C145.349 71.1005 145.02 70.4779 144.501 69.786C144.346 69.4574 144.155 69.1461 143.948 68.8175C143.412 68.0046 142.737 67.3474 141.907 66.8632C142.547 66.5173 143.654 66.033 144.968 66.033C145.418 66.033 145.868 66.0849 146.352 66.2232C147.943 66.6729 149.465 67.2782 151.16 67.2782C152.474 67.2782 153.893 66.915 155.501 65.8082C155.501 65.8082 155.415 67.6587 153.408 68.6964C153.132 68.8348 152.803 68.9732 152.44 69.0769C151.8 69.2672 151.004 69.3883 150.07 69.3883C149.69 69.3883 149.292 69.371 148.86 69.3364C148.86 69.3364 151.281 70.1147 153.478 71.4983C154.809 72.3457 156.037 73.4007 156.591 74.646C156.971 75.4589 157.058 76.3409 156.66 77.3094ZM165.377 78.0531C162.903 78.0531 160.482 77.1711 158.718 75.2686C158.286 74.8189 157.905 74.3866 157.525 74.0061C156.937 72.7954 155.812 71.6712 154.169 70.6162C153.841 70.4087 153.495 70.2011 153.114 69.9936C153.201 69.959 153.27 69.9244 153.356 69.9071C153.529 69.8379 153.685 69.7688 153.841 69.6996C154.982 69.2499 155.882 68.9905 156.625 68.8694C156.625 68.9386 156.608 68.9905 156.608 69.0596L156.418 70.8583L158.095 70.1665L158.164 70.1492C158.286 70.3741 158.424 70.5643 158.58 70.7373C159.012 71.187 159.583 71.4291 160.223 71.4291C160.015 71.7404 159.877 72.0863 159.79 72.4495C159.531 73.591 159.963 74.8362 160.966 75.9431L161.693 76.7387L162.488 76.0296L163.232 75.3724C163.336 75.3897 163.44 75.3897 163.543 75.3897C164.598 75.3897 165.532 74.5595 165.826 73.7466C165.861 73.6429 165.895 73.5391 165.913 73.4353C166.034 73.5218 166.138 73.6083 166.241 73.6775L166.362 74.8535L166.483 76.1161L167.711 75.8048C168.628 75.5799 169.925 75.113 170.513 73.8677C170.79 73.2797 170.859 72.6225 170.738 71.8788C173.419 71.5674 175.529 70.8583 175.529 70.8583C173.972 75.4589 169.597 78.0531 165.377 78.0531ZM71.2216 4.98101C69.6478 5.41339 67.6588 4.99831 67.6588 4.99831C68.8695 6.19167 69.2673 6.91807 69.2673 6.91807C70.8584 7.00455 71.2216 5.96684 71.2216 4.98101ZM149.309 4.98101C149.309 5.96684 149.673 7.00455 151.264 6.93537C151.264 6.93537 151.679 6.20897 152.872 5.0156C152.872 5.0156 150.883 5.41339 149.309 4.98101ZM150.261 26.2887C150.537 25.8217 150.814 25.3547 151.091 24.8878C151.54 24.1268 151.956 23.3139 152.319 22.4837C152.665 21.6536 152.959 20.8234 153.218 19.9759C153.495 19.1458 153.737 18.2983 153.979 17.4508C153.599 18.2464 153.218 19.0247 152.803 19.803C152.405 20.5813 151.99 21.3423 151.54 22.0686C151.073 22.795 150.572 23.4696 150.018 24.1268C149.534 24.7148 149.015 25.3201 148.514 25.9082C149.085 25.9774 149.673 26.0811 150.261 26.2887ZM68.2123 22.4837C68.5582 23.3139 68.9906 24.1268 69.4402 24.8878C69.717 25.3547 69.9937 25.8217 70.2704 26.2887C70.8584 26.0811 71.4465 25.9601 72.0172 25.9255C71.5156 25.3374 70.9968 24.7321 70.5125 24.1441C69.9591 23.4696 69.4575 22.795 68.9906 22.0859C68.5409 21.3595 68.1258 20.5986 67.728 19.8203C67.3302 19.042 66.9497 18.2464 66.5519 17.4681C66.7941 18.3156 67.0535 19.1458 67.3129 19.9932C67.5723 20.8234 67.8664 21.6536 68.2123 22.4837ZM67.9528 27.4993C66.6211 25.5796 65.3413 23.6252 64.269 21.5671C63.6809 20.4429 63.1621 19.2841 62.747 18.0908C62.3146 16.8974 61.9687 15.6694 61.692 14.4242C61.8303 15.704 62.0206 16.9666 62.3146 18.2291C62.6086 19.4917 63.0064 20.7196 63.4734 21.9303C63.9404 23.1409 64.4765 24.317 65.03 25.4758C65.4796 26.3924 65.9466 27.2918 66.4136 28.1911C66.8632 28.0528 67.3821 27.8279 67.9528 27.4993ZM154.083 28.1911C154.567 27.2918 155.034 26.3924 155.466 25.4758C156.037 24.317 156.573 23.1409 157.023 21.9303C157.49 20.7196 157.87 19.4744 158.182 18.2291C158.476 16.9666 158.683 15.704 158.804 14.4242C158.528 15.6694 158.182 16.8974 157.749 18.0908C157.317 19.2841 156.798 20.4429 156.227 21.5671C155.155 23.6252 153.875 25.5796 152.544 27.4993C153.149 27.8279 153.65 28.0528 154.083 28.1911Z" fill="white"/>
<path d="M128.469 14.1475H128.244H92.2871H92.1315L91.6299 15.2025H128.745L128.469 14.1475ZM133.38 20.5467V33.0511C133.761 33.1203 134.124 33.2759 134.435 33.5354V20.7542L133.38 20.5467ZM133.761 43.5147L133.484 45.0885C133.45 45.0885 133.415 45.0712 133.38 45.0712V47.2504C133.38 50.1733 132.516 52.8368 130.838 55.137C130.423 55.6905 129.973 56.2266 129.472 56.7455L88.3265 15.5657C88.1363 15.4792 87.9114 15.3927 87.652 15.3408V16.465C88.5168 16.759 88.9319 17.5373 88.8973 18.4021L87.7558 18.3848C87.5137 17.693 86.9083 17.2087 86.0954 17.0185V18.1426C86.4932 18.2983 86.7873 18.6096 86.7873 19.1285C86.7873 19.5781 86.4241 19.924 86.0954 19.9932V33.4489C86.5105 33.103 87.0121 32.9819 87.5309 32.9819C88.0325 32.9819 88.5341 33.1722 89.001 33.4489L87.9287 34.452C88.5687 35.213 87.8941 36.3718 87.2023 36.7523C86.4586 37.15 86.8564 37.8419 87.3926 37.8419C87.5655 37.8419 87.7385 37.7727 87.9114 37.617C88.3611 37.2019 88.9491 36.9944 89.5199 36.9944C90.7305 36.9944 91.9239 37.9283 91.7683 39.8654L90.8343 39.3465C90.523 40.3669 89.7966 40.7993 89.1221 40.7993C88.8108 40.7993 88.5168 40.7129 88.2919 40.5399C87.7731 40.1594 87.2369 39.7616 86.8737 39.7616C86.7527 39.7616 86.6316 39.8135 86.5624 39.9173C86.2857 40.2978 86.5797 40.6783 87.5655 41.1625C89.2259 41.9927 89.5545 44.3794 87.3753 45.0194L87.0121 45.0539L86.7354 43.4801C86.6143 43.5147 86.4932 43.532 86.3722 43.532C86.2684 43.532 86.1646 43.5147 86.0609 43.4974V47.2158C86.0609 50.8997 87.3234 53.9783 89.3815 56.4515C89.3988 56.4688 89.4161 56.4861 89.4161 56.5033C89.4853 56.5898 89.5718 56.6763 89.641 56.7628C89.6583 56.7801 89.6755 56.7974 89.6928 56.8147C89.7793 56.9184 89.8658 57.0049 89.9523 57.1087C89.9523 57.1087 89.9523 57.126 89.9696 57.126C90.056 57.2297 90.1598 57.3162 90.2463 57.42L90.2636 57.4373C90.3846 57.5065 90.4884 57.5929 90.5922 57.6794C90.7997 57.8524 91.0073 58.0599 91.1802 58.302C92.512 59.4781 94.0685 60.4639 95.7462 61.2941C95.9364 61.3979 96.1266 61.5017 96.3342 61.5881C99.1014 62.9717 103.148 64.4764 110.222 64.4764C117.296 64.4764 121.343 62.9717 124.11 61.5881C124.318 61.4844 124.508 61.3806 124.698 61.2941C126.359 60.4812 127.881 59.4954 129.212 58.3539C129.247 58.302 129.281 58.2502 129.316 58.1983C129.333 58.181 129.351 58.1637 129.368 58.1291C129.385 58.1118 129.403 58.0772 129.437 58.0599C129.454 58.0253 129.489 58.008 129.506 57.9734C129.524 57.9561 129.524 57.9388 129.541 57.9388C129.576 57.9043 129.61 57.8697 129.645 57.8351L129.662 57.8178C129.697 57.7832 129.731 57.7486 129.766 57.714C129.766 57.714 129.766 57.714 129.783 57.6967C129.818 57.6621 129.87 57.6275 129.904 57.5929C129.991 57.5238 130.077 57.4719 130.164 57.42C130.181 57.4027 130.198 57.4027 130.215 57.3854C132.792 54.7565 134.401 51.3494 134.401 47.1813V43.5147C134.297 43.5493 134.193 43.5666 134.072 43.5666C134.003 43.5666 133.882 43.5493 133.761 43.5147Z" fill="white"/>
<path d="M11.9378 0.995117H0V99.4822H11.9378V0.995117Z" fill="white"/>
</svg>
