<svg width="160" height="77" viewBox="0 0 160 77" fill="none" xmlns="http://www.w3.org/2000/svg">
<path d="M108.636 58.7595C110.297 57.9296 111.626 57.0996 112.955 55.9377C113.287 55.6058 113.619 55.2738 113.951 55.1078C116.443 52.618 117.938 49.2983 117.938 45.3146C117.938 45.3146 117.938 42.4929 117.938 41.6629C117.772 41.6629 117.772 41.6629 117.606 41.6629C117.44 41.6629 117.44 41.6629 117.274 41.6629L116.941 43.1568C114.45 42.6589 114.782 40.1691 116.443 39.3391C117.44 38.8412 117.772 38.5092 117.44 38.1772H117.274C116.941 38.1772 116.443 38.5092 115.945 39.0072C115.779 39.1732 115.446 39.3391 115.114 39.3391C114.45 39.3391 113.785 38.8412 113.453 38.0113L112.622 38.5092C112.456 36.6834 113.619 35.6875 114.782 35.6875C115.28 35.6875 115.945 35.8534 116.277 36.3514C116.443 36.5174 116.609 36.5174 116.775 36.5174C117.274 36.5174 117.606 35.8534 116.941 35.5215C116.277 34.8575 115.612 33.8616 116.277 33.0317L115.28 32.0358C115.779 31.7038 116.277 31.5378 116.775 31.5378C117.274 31.5378 117.772 31.7038 118.104 32.0358V19.0889C117.772 19.0889 117.44 18.7569 117.44 18.2589C117.44 17.761 117.772 17.429 118.104 17.263V16.2671C117.274 16.4331 116.775 16.931 116.443 17.595H115.28C115.28 16.7651 115.612 15.9351 116.443 15.7691V14.7732C115.779 14.9392 115.28 15.2712 114.948 15.6032C114.782 15.6032 114.782 15.7691 114.782 15.9351H113.951C113.951 15.1052 114.284 14.4413 115.114 14.1093V13.6113H112.124H77.5733H74.5833V14.1093C75.4139 14.2753 75.7461 15.1052 75.7461 15.9351H74.9155C74.9155 15.7691 74.7494 15.7691 74.7494 15.6032C74.2511 15.2712 73.7528 14.9392 73.0883 14.7732V15.7691C73.9189 16.1011 74.2511 16.7651 74.2511 17.595H73.0883C72.9222 16.931 72.2578 16.4331 71.4272 16.2671V17.263C71.7595 17.429 72.0917 17.761 72.0917 18.2589C72.0917 18.7569 71.7595 19.0889 71.4272 19.0889V32.0358C71.7595 31.7038 72.2578 31.5378 72.7561 31.5378C73.2545 31.5378 73.7528 31.7038 74.2511 32.0358L73.2545 33.0317C73.9189 33.6956 73.2545 34.8575 72.59 35.1895C71.9256 35.5215 72.2578 36.1854 72.7561 36.1854C72.9222 36.1854 73.0883 36.1854 73.2545 36.0194C73.7528 35.6875 74.2511 35.3555 74.7494 35.3555C75.9122 35.3555 77.075 36.1854 76.9089 38.1772L76.0783 37.6793C75.7461 38.6752 75.0817 39.0072 74.4172 39.0072C74.085 39.0072 73.9189 39.0072 73.5867 38.6752C73.0883 38.5092 72.59 38.1772 72.2578 38.1772C72.0917 38.1772 72.0917 38.1772 71.9256 38.3432C71.5934 38.6752 71.9256 39.0072 72.9222 39.5051C74.5833 40.3351 74.9155 42.8248 72.4239 43.3228L72.0917 41.8289C71.9256 41.8289 71.9256 41.8289 71.7595 41.8289C71.5934 41.8289 71.5934 41.8289 71.4272 41.8289V45.4806C71.4272 49.4643 72.9222 52.784 75.4139 55.2738C75.7461 55.4398 76.0783 55.7717 76.2444 56.1037C77.5733 57.2656 79.0683 58.2615 80.5633 58.9255C80.8955 58.9255 108.636 58.9255 108.636 58.7595Z" fill="white"/>
<path d="M118.602 2.32395C118.602 2.15796 118.602 1.99198 118.602 1.82599H116.111C116.111 3.31987 115.779 4.64775 115.114 5.64367C114.616 6.30761 114.117 6.97156 113.619 7.30353H113.785C116.443 7.30353 118.602 4.97972 118.602 2.32395ZM116.111 11.7851C115.945 11.7851 115.779 11.7851 115.612 11.7851C115.446 11.7851 115.28 11.7851 115.114 11.7851C114.616 11.7851 114.117 11.9511 113.785 12.2831C113.287 12.6151 113.121 13.113 113.121 13.611H113.951C114.284 13.279 114.616 13.113 115.114 12.947V13.943C114.284 14.1089 113.951 14.9389 113.951 15.7688H114.782C114.782 15.6028 114.948 15.6028 114.948 15.4368C115.28 15.1049 115.779 14.7729 116.443 14.6069V15.6028C115.612 15.9348 115.28 16.5987 115.28 17.4287H116.443C116.775 16.7647 117.274 16.2668 118.104 16.1008V17.0967C117.606 17.2627 117.274 17.5946 117.274 18.0926C117.274 18.5906 117.772 18.9225 118.104 18.9225V19.7525C118.27 19.7525 118.602 19.7525 118.769 19.5865C119.433 19.2545 119.765 18.4246 119.765 17.7606L120.762 17.2627C120.762 17.2627 120.762 17.2627 120.762 17.4287C120.928 18.0926 120.762 18.5906 120.596 19.0885L122.423 20.9144C122.755 20.0844 123.253 19.2545 123.918 18.4246C124.084 18.0926 124.416 17.9266 124.582 17.5947C123.752 16.9307 122.755 16.2668 122.423 15.9348C121.426 15.1049 120.43 14.2749 119.433 13.445C118.769 12.947 118.104 12.4491 117.44 11.9511C116.941 12.1171 116.609 11.9511 116.111 11.7851ZM133.552 44.8163C133.718 44.8163 133.885 44.9823 134.051 44.9823C134.383 44.9823 134.715 44.8163 135.047 44.4844C135.047 44.3184 134.881 44.1524 134.881 43.9864C134.715 43.4884 134.383 42.9905 134.051 42.4925C133.552 41.8286 133.054 41.3306 132.223 40.8327C132.057 40.8327 131.891 40.6667 131.891 40.6667C132.39 41.3306 132.722 41.8286 132.888 42.1606C133.054 42.4925 133.22 42.8245 133.386 43.1565L133.22 43.3225C132.888 43.8204 133.054 44.4844 133.552 44.8163ZM56.6435 41.9946C56.8096 41.6626 57.1418 41.1646 57.6401 40.5007C57.474 40.5007 57.3079 40.6667 57.3079 40.6667C56.4773 41.1646 55.979 41.6626 55.4807 42.3265C55.1485 42.8245 54.9824 43.3225 54.6501 43.8204C54.6501 43.9864 54.484 44.1524 54.484 44.3184C54.6501 44.6503 54.9824 44.8163 55.3146 44.8163C55.4807 44.8163 55.6468 44.8163 55.8129 44.6503C56.3112 44.3184 56.6435 43.6544 56.1451 42.9905C56.1451 42.9905 56.1451 42.8245 55.979 42.8245C56.4773 42.6585 56.4773 42.4925 56.6435 41.9946ZM125.579 12.6151C125.745 12.6151 126.077 12.6151 126.243 12.6151C125.579 12.4491 125.081 11.9511 124.748 11.4532C124.25 10.7892 124.25 9.9593 124.416 9.29536C124.416 9.29536 124.416 9.29536 124.25 9.29536C123.42 9.46134 123.087 10.1253 123.253 10.7892C123.42 11.9511 124.084 12.6151 125.579 12.6151ZM135.047 46.1442C135.047 45.9782 135.047 45.8122 135.047 45.6463C134.715 45.8122 134.383 45.9782 134.051 45.9782C133.718 45.9782 133.386 45.9782 133.054 45.8122C132.556 45.4803 132.057 44.9823 131.891 44.3184C131.725 43.8204 131.891 43.4884 132.057 43.1565C131.559 43.1565 131.061 42.9905 130.562 42.9905C129.566 42.8245 128.735 42.8245 128.071 42.8245C120.928 42.8245 120.264 46.8082 120.264 46.8082C119.101 50.9578 122.423 52.7837 122.423 52.7837C122.423 52.7837 123.253 56.6013 121.426 58.0952L119.599 57.4313L118.769 57.0993L118.27 56.9333C117.44 55.7714 116.111 54.9415 114.948 54.9415C113.785 54.9415 112.622 55.7714 111.958 57.7632L113.287 57.4313C113.287 58.7591 113.785 59.0911 114.284 59.0911C114.45 59.0911 114.616 59.0911 114.782 59.0911C114.948 59.0911 115.114 59.0911 115.28 58.9251C115.945 58.7591 116.277 58.5932 116.609 58.5932C116.941 58.5932 117.107 58.7591 117.274 59.0911C117.44 59.5891 116.941 59.921 116.443 60.087C114.948 60.419 114.117 61.4149 114.45 62.9088C114.45 63.2408 114.616 63.5727 114.782 63.9047C114.782 64.0707 114.948 64.2367 115.114 64.4027L116.609 63.5727C116.775 63.7387 117.107 63.9047 117.274 63.9047C117.772 63.9047 118.436 63.5727 118.602 63.0748C118.602 63.0748 118.602 63.0748 118.602 62.9088C118.769 62.5768 118.769 62.2448 118.769 61.9129C118.769 61.7469 118.769 61.5809 118.769 61.4149C118.769 61.2489 118.769 61.0829 118.769 60.917C118.935 60.585 119.101 60.419 119.267 60.419C119.433 60.419 119.433 60.419 119.599 60.419C119.765 60.419 119.931 60.419 120.097 60.585C120.43 60.917 120.43 61.2489 120.43 61.5809C120.43 61.9129 120.264 62.4108 120.596 62.7428C120.762 62.9088 120.762 62.9088 120.928 63.0748L121.26 63.4067L121.094 65.2326C122.091 65.2326 123.087 64.9006 123.586 64.0707C123.752 63.9047 123.752 63.7387 123.752 63.4067C123.918 62.7428 124.084 61.9129 124.084 60.917C124.582 60.751 124.915 60.585 125.247 60.253C125.579 59.921 125.911 59.4231 126.077 58.9251C126.576 57.4313 127.074 54.4435 126.41 51.2898C126.41 51.2898 133.054 50.4598 134.549 49.7959C134.715 48.136 134.881 46.9741 135.047 46.1442ZM129.067 7.6355C129.067 7.6355 128.071 8.13346 128.403 9.12937C128.735 9.79331 129.067 10.4573 129.566 10.9552L130.562 9.9593C131.725 8.96339 132.556 8.63141 133.386 8.63141C134.383 8.63141 135.213 9.29536 135.546 10.1253C136.044 11.2872 136.044 12.2831 135.712 12.7811C135.546 13.279 135.213 13.611 134.383 13.611C134.217 13.611 134.051 13.611 133.885 13.611C132.223 13.611 129.898 12.947 129.898 12.947C129.566 14.7729 129.4 15.1049 132.057 15.1049C132.722 15.1049 133.386 15.1049 134.383 15.1049L131.725 16.2668C131.393 16.2668 131.061 16.2668 130.895 16.2668C128.901 16.2668 127.406 16.9307 126.077 17.7606C125.745 17.9266 125.579 18.2586 125.247 18.4246C124.25 19.4205 123.586 20.5824 123.087 21.9103C122.921 22.2423 122.921 22.5742 122.755 23.0722C122.257 25.064 122.091 27.0558 122.423 28.5497C122.589 28.3837 122.755 28.0518 123.087 27.8858L123.253 27.7198C124.084 26.8899 125.413 25.562 127.074 24.732C127.738 24.2341 128.237 23.7361 128.735 23.0722C129.898 21.7443 130.895 20.4164 131.725 18.9225C131.227 20.5824 130.396 22.2423 129.4 23.7361C129.067 24.4001 128.569 24.898 128.237 25.396C127.905 25.562 127.572 25.728 127.24 25.8939C125.745 26.7239 124.582 27.8858 123.918 28.5497C123.42 28.8817 123.253 29.3796 122.921 29.8776C122.755 30.2096 122.423 30.5415 122.257 31.0395C122.091 31.3715 121.925 31.5375 121.759 31.8694C121.094 33.0313 119.931 34.3592 119.433 34.3592C119.267 34.3592 119.101 34.1932 118.935 33.8613C118.602 32.3674 117.606 31.7034 116.609 31.7034C116.111 31.7034 115.612 31.8694 115.114 32.2014L116.111 33.1973C115.446 33.8613 116.111 35.0232 116.775 35.3551C117.44 35.6871 117.107 36.3511 116.609 36.3511C116.443 36.3511 116.277 36.3511 116.111 36.1851C115.612 35.8531 115.114 35.5211 114.616 35.5211C113.453 35.5211 112.29 36.3511 112.456 38.3429L113.287 37.8449C113.619 38.8408 114.284 39.1728 114.948 39.1728C115.28 39.1728 115.446 39.1728 115.779 38.8408C116.277 38.5089 116.775 38.0109 117.107 38.0109C117.274 38.0109 117.274 38.0109 117.44 38.1769C117.772 38.5089 117.44 38.8408 116.443 39.3388C114.782 40.1687 114.45 42.6585 116.941 43.1565L117.274 41.6626C117.44 41.6626 117.44 41.6626 117.606 41.6626C118.27 41.6626 118.769 40.9987 118.935 40.5007C119.101 39.8368 119.101 39.3388 119.101 39.0068C119.101 38.6749 119.433 38.5089 119.599 38.5089C119.931 38.5089 120.264 38.6749 120.264 39.1728C120.264 39.8368 120.264 40.8327 121.592 40.9987L121.925 42.3265C123.087 41.8286 124.25 40.5007 122.091 38.1769C122.091 37.015 123.253 36.3511 125.081 35.3551C125.413 35.1891 125.745 35.0232 126.077 34.8572C126.243 34.6912 126.41 34.6912 126.576 34.5252C126.908 34.3592 128.237 33.3633 129.4 32.3674L130.396 32.8653C130.23 33.0313 129.898 33.1973 129.732 33.5293C128.735 34.3592 127.572 35.1892 127.074 35.5211C126.908 35.5211 126.908 35.6871 126.742 35.6871C127.905 36.683 129.067 37.6789 130.23 38.3429C130.728 38.6749 131.061 38.8408 131.559 39.1728C131.891 39.5048 132.39 39.6708 132.722 39.8368C133.552 40.3347 134.217 40.9987 134.881 41.6626C135.213 42.1606 135.546 42.6585 135.712 42.9905C135.878 43.4884 136.044 43.9864 136.044 44.4844C136.044 44.6503 136.044 44.8163 136.044 44.9823C136.044 45.4803 136.044 45.8122 136.044 46.3102C136.044 46.8082 135.878 47.1401 135.878 47.6381C135.712 48.302 135.712 48.966 135.712 49.6299C135.712 50.4598 135.546 51.2898 135.546 51.9537C135.546 54.2775 135.878 56.1034 137.539 57.7632C138.702 58.9251 140.363 59.2571 142.024 59.4231C142.854 59.4231 145.18 59.7551 146.841 60.087C147.838 60.253 148.502 60.917 148.502 61.9129C148.502 63.2408 148.502 64.9006 148.17 65.3986L146.011 65.0666C145.512 64.2367 144.183 63.7387 143.021 63.7387C142.024 63.7387 141.193 64.0707 140.695 65.0666C140.529 65.3986 140.363 65.7305 140.363 66.0625C140.363 66.2285 140.363 66.2285 140.363 66.3945L141.027 66.0625L141.359 65.8965C141.359 66.0625 141.359 66.0625 141.359 66.2285C141.526 67.2244 142.024 67.5564 142.688 67.5564C143.021 67.5564 143.187 67.5564 143.519 67.3904C143.519 67.3904 143.519 67.3904 143.685 67.3904C144.183 67.2244 144.682 66.8924 145.014 66.8924C145.18 66.8924 145.346 66.8924 145.512 67.2244C145.678 67.5564 145.512 67.7224 145.18 68.0544C145.014 68.0544 145.014 68.2203 144.848 68.2203C143.187 68.8843 142.688 70.5441 144.183 72.204L145.346 71.2081C145.512 71.3741 145.678 71.3741 145.844 71.3741C146.343 71.3741 147.007 70.8761 147.007 70.5441C147.173 70.0462 147.007 69.2163 146.841 68.8843C146.841 68.7183 146.841 68.5523 146.841 68.5523C146.841 68.2203 147.007 68.0544 147.339 67.8884C147.506 67.8884 147.506 67.8884 147.672 67.8884C147.838 67.8884 147.838 67.8884 148.004 67.8884C148.17 67.8884 148.17 68.0544 148.336 68.0544C148.502 68.2203 148.502 68.5523 148.502 68.7183C148.502 68.8843 148.502 69.0503 148.502 69.2163C148.502 69.3822 148.668 69.7142 148.834 69.8802C149.001 69.8802 149.001 70.0462 149.167 70.0462C149.167 70.0462 149.499 70.2122 149.499 70.3782L149.665 72.038C150.828 71.706 152.157 71.2081 151.824 69.3822C151.824 69.0503 151.658 68.7183 151.492 68.3863C151.492 68.2203 151.326 68.0544 151.326 67.8884C152.323 67.3904 152.987 66.3945 153.153 65.3986C153.319 64.4027 153.153 60.751 152.987 58.7591C152.987 57.9292 152.323 57.2653 151.492 57.0993C150.495 56.9333 149.333 56.7673 148.502 56.6013C147.173 56.2694 145.678 55.7714 145.512 54.6095C145.18 53.7796 145.346 53.6136 145.512 52.7837C145.512 52.1197 145.678 51.4558 145.678 50.7918C145.678 50.6258 145.678 50.6258 145.678 50.4598C145.678 50.1279 145.678 49.6299 145.678 49.298C145.844 49.298 145.844 49.4639 146.011 49.4639C146.343 49.6299 146.509 49.7959 146.841 49.7959C147.173 49.7959 147.506 49.9619 147.838 49.9619C148.502 49.9619 149.167 49.7959 149.831 49.4639C150.994 48.8 151.658 47.6381 151.492 46.3102C151.492 43.9864 150.163 42.3265 148.834 40.8327C148.17 40.0027 147.672 39.3388 147.173 38.5089C145.678 35.8531 145.346 33.0313 146.177 29.8776C146.509 28.5497 147.339 27.3878 148.17 26.0599C148.502 25.562 148.834 25.064 149.167 24.5661C149.167 24.5661 149.831 24.898 150.329 24.732C150.495 24.732 150.495 24.732 150.662 24.5661C151.658 23.9021 152.821 21.4123 152.655 18.2586C152.655 15.7688 151.99 13.777 150.828 12.1171C150.994 12.7811 151.326 13.611 151.492 14.2749C151.658 15.1049 151.658 15.9348 151.658 16.7647C151.658 17.5947 151.492 18.4246 151.16 19.0885C151.326 18.2586 151.326 17.5947 151.16 16.7647C150.994 15.9348 150.828 15.2708 150.495 14.6069C150.329 13.943 149.997 13.445 149.665 12.7811C149.831 14.2749 149.831 15.6028 149.499 17.4287C149.333 18.5906 148.834 19.5865 148.336 20.5824C148.004 21.4123 147.672 22.0763 147.506 22.7402C147.339 23.4042 147.506 23.7361 147.838 24.2341C147.838 24.4001 147.672 24.4001 147.672 24.5661C147.506 24.898 147.339 25.23 147.007 25.396C146.177 26.7239 145.18 28.0518 144.848 29.5456C144.017 32.8653 144.349 36.1851 146.011 39.0068C146.509 40.0027 147.173 40.6667 147.838 41.4966C149 42.9905 150.163 44.3184 150.163 46.3102C150.163 47.1401 149.831 47.9701 149 48.302C148.17 48.8 147.339 48.8 146.509 48.468C145.844 48.136 145.346 47.6381 145.014 46.8082C145.014 46.8082 145.014 46.8082 145.014 46.6422C144.682 45.4803 144.183 44.4844 143.685 43.3225C142.19 40.1687 140.197 37.347 138.868 34.0272C137.871 31.2055 138.369 27.7198 138.369 27.7198C139.366 28.2177 141.027 28.2177 141.027 28.2177C141.027 24.732 148.502 16.5987 144.017 6.63958C143.685 7.13754 143.353 7.6355 142.688 8.29944H142.19V6.80557C144.516 4.31578 143.519 1.99198 142.522 1.16205C141.858 1.32804 141.027 2.15796 140.529 2.98789L139.532 2.65592C139.698 2.15797 140.031 1.82599 140.363 1.49402C140.197 1.49402 140.197 1.32804 140.031 1.32804H139.864C138.369 1.32804 132.722 2.65592 132.057 2.98789L131.559 4.48177C130.064 4.97972 128.569 5.80965 127.572 6.30761C127.738 6.80557 128.237 7.80148 129.067 7.6355ZM140.363 17.4287C140.861 16.2668 141.027 15.1049 141.359 13.943C141.193 15.1049 141.027 16.4327 140.695 17.5947C140.363 18.7566 140.031 19.9185 139.532 21.0804C139.034 22.2423 138.536 23.4042 138.037 24.4001C137.539 25.23 137.207 26.0599 136.708 27.0558C136.21 26.8899 135.712 26.7239 135.213 26.3919C136.542 24.5661 137.705 22.7402 138.702 20.7484C139.532 19.5865 140.031 18.4246 140.363 17.4287ZM136.044 19.0885C135.712 19.9185 135.546 20.7484 135.213 21.5783C134.881 22.4082 134.549 23.2382 134.051 23.9021C133.718 24.4001 133.552 24.732 133.22 25.23C132.722 25.064 132.057 24.898 131.559 24.898C132.057 24.4001 132.556 23.7361 133.054 23.2382C133.552 22.5742 134.051 21.9103 134.549 21.2463C135.047 20.5824 135.379 19.7525 135.712 19.0885C136.044 18.2586 136.376 17.5947 136.874 16.7647C136.542 17.5947 136.21 18.4246 136.044 19.0885ZM135.712 4.81374C134.549 5.97564 134.217 6.63958 134.217 6.63958C132.722 6.63958 132.39 5.80965 132.39 4.81374C133.718 5.14571 135.712 4.81374 135.712 4.81374ZM115.114 8.29944H74.5833V10.7892C75.0816 10.7892 75.9122 10.9552 76.4105 11.4532C77.075 11.9511 77.5733 12.7811 77.5733 13.611H112.124C112.124 12.7811 112.622 11.9511 113.287 11.4532C113.951 10.9552 114.616 10.7892 115.114 10.7892V8.29944ZM83.0549 12.6151L79.7327 10.9552L83.0549 9.29536L86.3771 10.9552L83.0549 12.6151ZM94.8487 12.4491C93.1876 12.4491 91.8587 11.7851 91.8587 10.9552C91.8587 10.1253 93.1876 9.46134 94.8487 9.46134C96.5098 9.46134 97.8387 10.1253 97.8387 10.9552C97.8387 11.7851 96.3437 12.4491 94.8487 12.4491ZM106.643 12.6151L103.32 10.9552L106.643 9.29536L109.965 10.9552L106.643 12.6151ZM71.9256 58.9251C72.0917 58.5932 72.2578 58.4272 72.59 58.4272C72.9222 58.4272 73.4205 58.5932 73.9189 58.7591C74.085 58.7591 74.2511 58.7591 74.4172 58.9251C74.5833 58.9251 74.7494 58.9251 74.9155 58.9251C75.58 58.9251 75.9122 58.5932 75.9122 57.2653L77.2411 57.5972C76.7427 55.6054 75.58 54.7755 74.2511 54.7755C73.0883 54.7755 71.7594 55.6054 70.9289 56.7673L70.4306 56.9333L69.6 57.2653L67.7728 57.9292C66.1117 56.4353 66.7762 52.6177 66.7762 52.6177C66.7762 52.6177 70.0983 50.7918 68.9356 46.6422C68.9356 46.6422 68.4373 42.6585 61.1284 42.6585C60.2979 42.6585 59.4673 42.6585 58.6368 42.8245C58.1384 42.8245 57.6401 42.9905 57.1418 42.9905C57.3079 43.3225 57.3079 43.8204 57.3079 44.1524C57.1418 44.8163 56.8096 45.3143 56.1451 45.6463C55.8129 45.8122 55.4807 45.8122 55.1485 45.8122C54.8162 45.8122 54.484 45.6463 54.1518 45.4803C54.1518 45.6463 54.1518 45.8122 54.1518 45.9782C54.3179 46.9741 54.484 47.9701 54.484 48.966C55.979 49.6299 62.6234 50.4598 62.6234 50.4598C61.959 53.6136 62.4573 56.6013 62.9556 58.0952C63.1217 58.5932 63.454 59.0911 63.7862 59.4231C64.1184 59.7551 64.4506 59.921 64.9489 60.087C64.9489 61.2489 65.1151 62.0789 65.2812 62.5768C65.2812 62.7428 65.4473 63.0748 65.4473 63.2408C65.9456 64.0707 66.9423 64.2367 67.9389 64.4027L68.105 62.9088L68.4373 62.5768C68.6034 62.5768 68.6034 62.4108 68.7695 62.2448C68.9356 61.9129 68.9356 61.5809 68.9356 61.0829C68.9356 60.751 68.9356 60.253 69.2678 60.087C69.4339 59.921 69.6 59.921 69.7661 59.921C69.9322 59.921 69.9322 59.921 70.0984 59.921C70.2645 59.921 70.5967 60.253 70.5967 60.419C70.5967 60.585 70.5967 60.751 70.5967 60.917C70.5967 61.0829 70.5967 61.2489 70.5967 61.4149C70.5967 61.7469 70.5967 62.0789 70.7628 62.4108C70.7628 62.4108 70.7628 62.4108 70.7628 62.5768C70.9289 62.9088 71.4272 63.4067 72.0917 63.4067C72.4239 63.4067 72.59 63.4067 72.7561 63.0748L74.2511 63.9047C74.4172 63.7387 74.4172 63.5727 74.5833 63.4067C74.7494 63.0748 74.9155 62.7428 74.9155 62.4108C75.2478 61.0829 74.4172 59.921 72.9222 59.5891C72.2578 59.7551 71.7594 59.4231 71.9256 58.9251ZM126.243 66.5605C125.911 65.8965 125.413 65.5646 124.915 65.2326C124.748 65.0666 124.582 65.0666 124.416 64.9006L123.918 64.7346C123.087 65.3986 122.091 65.5646 121.26 65.5646H120.097L120.264 64.4027L120.43 63.0748C120.264 62.9088 120.097 62.7428 120.097 62.5768C120.097 62.7428 119.931 62.9088 119.931 63.0748C119.599 63.7387 118.769 64.4027 117.772 64.4027C117.44 64.4027 117.274 64.4027 117.107 64.2367L116.277 64.5687C116.277 64.5687 116.443 64.5686 116.443 64.7346C118.27 66.3945 119.599 66.5605 121.759 67.0584C123.253 67.3904 124.748 68.2203 125.247 69.8802C125.579 70.7101 125.413 71.872 125.413 72.702C125.413 72.702 128.569 70.8761 126.908 67.3904C126.742 67.2244 126.41 66.8924 126.243 66.5605ZM104.981 65.3986C103.985 64.4027 102.988 63.5727 101.991 63.0748C101.161 62.5768 100.33 62.4108 99.4998 62.2448C99.0015 62.0789 98.5031 62.0789 98.0048 61.9129C97.6726 61.9129 97.5065 61.9129 97.1742 61.9129C96.5098 61.9129 95.6793 61.9129 95.0148 61.9129C94.1843 61.9129 93.5198 61.9129 92.8554 61.9129C92.5232 61.9129 92.3571 61.9129 92.0248 61.9129C91.5265 61.9129 91.0282 62.0789 90.5299 62.2448C89.6993 62.4108 88.8688 62.7428 88.0382 63.0748C87.0415 63.5727 85.8788 64.4027 85.0482 65.3986L84.8821 65.5646C82.7227 67.8884 83.3871 70.2122 83.3871 70.2122C83.3871 70.2122 86.0449 66.5605 90.1976 66.5605C92.191 66.5605 93.8521 67.2244 94.6826 67.7224L95.347 68.0544L96.0115 67.7224C96.842 67.2244 98.5031 66.5605 100.496 66.5605C104.483 66.5605 107.307 70.2122 107.307 70.2122C107.307 70.2122 107.805 67.8884 105.812 65.5646C105.148 65.5646 104.981 65.3986 104.981 65.3986ZM83.8855 64.5687C85.5466 62.9088 87.2077 61.9129 88.8688 61.4149C87.3738 61.2489 86.211 60.917 85.0482 60.585C84.8821 60.585 84.8821 60.585 84.716 60.585C84.3838 60.585 84.0516 60.585 83.7194 60.585C82.7227 60.751 81.8921 60.917 81.0616 60.917C78.9022 60.917 76.9089 60.585 75.4139 60.087C75.58 60.253 75.7461 60.585 75.9122 60.751C76.2444 61.4149 76.2444 62.0789 76.0783 62.7428H76.2444C76.5766 62.7428 76.7427 62.9088 77.075 62.9088C77.5733 62.9088 77.7394 63.0748 77.7394 63.0748C77.7394 63.0748 77.4072 63.2408 76.7427 63.7387C76.0783 64.2367 75.0816 64.9006 74.4172 65.7305C70.7628 69.7142 74.7494 72.8679 74.7494 72.8679C74.7494 72.8679 73.9189 68.8843 75.7461 67.5564C78.5699 65.5646 80.231 67.3904 83.8855 64.5687C83.7194 64.7346 83.7194 64.7346 83.8855 64.5687ZM73.2544 64.7346L72.7561 64.4027C72.59 64.4027 72.2578 64.5687 72.0917 64.5687C71.095 64.5687 70.2645 63.9047 69.9322 63.2408C69.9322 63.0748 69.7661 62.9088 69.7661 62.7428C69.6 62.9088 69.4339 63.0748 69.4339 63.2408L69.6 64.5687L69.7661 65.7305H68.6034C67.7728 65.7305 66.7762 65.5646 65.9456 64.9006L65.4473 65.0666C65.2812 65.2326 65.1151 65.2326 64.9489 65.3986C64.4506 65.7306 63.9523 66.2285 63.6201 66.7265C63.454 67.0584 63.2878 67.3904 63.1217 67.5564C61.4606 71.0421 64.6167 72.8679 64.6167 72.8679C64.6167 71.872 64.6167 70.8761 64.7828 70.0462C65.2812 68.3863 66.7762 67.5564 68.2711 67.2244C70.0983 66.5605 71.4272 66.3945 73.2544 64.7346ZM112.955 63.7387C112.456 63.4067 111.958 63.0748 111.958 63.0748C111.958 63.0748 112.29 63.0748 112.622 62.9088C112.789 62.9088 113.121 62.7428 113.453 62.7428H113.619C113.453 62.0789 113.453 61.4149 113.785 60.751C113.951 60.419 114.117 60.253 114.284 60.087C112.789 60.585 110.795 60.917 108.636 60.917C107.805 60.917 106.975 60.751 105.978 60.585C105.646 60.585 105.314 60.585 104.981 60.585C104.815 60.585 104.815 60.585 104.649 60.585C103.486 60.917 102.324 61.2489 100.829 61.4149C102.49 61.9129 104.151 62.9088 105.812 64.5687C105.812 64.5687 105.978 64.5686 105.978 64.7346C109.466 67.3904 110.961 65.5646 114.117 67.5564C116.111 68.8843 115.114 72.8679 115.114 72.8679C115.114 72.8679 119.101 69.8802 115.446 65.7305C114.616 64.9006 113.619 64.2367 112.955 63.7387ZM152.821 68.8843C152.987 69.5482 152.821 70.2122 152.655 70.8761C152.157 72.038 150.828 72.536 149.997 72.702L148.834 73.0339L148.668 71.872L148.502 70.7101C148.336 70.7101 148.336 70.5441 148.17 70.5441C148.17 70.7101 148.17 70.7101 148.004 70.8761C147.672 71.706 146.841 72.536 145.844 72.536C145.678 72.536 145.678 72.536 145.512 72.536L145.014 73.0339L144.183 73.6979L143.519 72.8679C142.522 71.872 142.19 70.5441 142.356 69.5482C142.522 69.2163 142.522 68.8843 142.854 68.5523C142.19 68.5523 141.692 68.3863 141.359 67.8884C141.193 67.7224 141.027 67.5564 141.027 67.3904L139.366 68.0544L139.532 66.3945V66.2285C138.868 66.3945 138.037 66.5605 136.874 67.0584C136.708 67.0584 136.542 67.2244 136.376 67.2244C136.21 67.2244 136.21 67.2244 136.21 67.2244C136.542 67.3904 136.874 67.5564 137.207 67.8884C138.702 68.8843 139.864 70.0462 140.363 71.2081C140.695 71.5401 141.027 72.038 141.526 72.37C143.187 74.1958 145.512 75.0258 148.004 75.0258C151.99 75.0258 156.309 72.536 157.804 68.0544C157.472 68.0544 155.479 68.7183 152.821 68.8843ZM136.376 68.5523C134.217 67.2244 131.891 66.3945 131.891 66.3945C132.39 66.3945 132.722 66.3945 133.054 66.3945C134.051 66.3945 134.715 66.2285 135.38 66.0625C135.712 65.8965 136.044 65.8965 136.376 65.7305C138.369 64.7346 138.369 62.9088 138.369 62.9088C136.874 63.9047 135.38 64.2367 134.217 64.2367C132.556 64.2367 131.061 63.7387 129.566 63.2408C129.067 63.0748 128.735 63.0748 128.237 63.0748C126.908 63.0748 125.911 63.5727 125.247 63.9047C126.077 64.4027 126.742 65.0666 127.24 65.7305C127.406 66.0625 127.572 66.3945 127.738 66.7265C128.237 67.3904 128.569 68.0544 129.067 68.3863C130.23 69.3822 131.891 69.5482 133.22 69.7142C137.539 70.0462 139.366 74.0298 139.366 74.0298C139.698 73.1999 139.698 72.204 139.366 71.5401C138.702 70.3782 137.539 69.3822 136.376 68.5523ZM64.2845 64.0707C63.6201 63.7387 62.6234 63.2408 61.2945 63.2408C60.7962 63.2408 60.464 63.2408 59.9656 63.4067C58.4707 63.9047 56.9757 64.4027 55.3146 64.4027C53.9857 64.4027 52.6568 64.0707 51.1618 63.0748C51.1618 63.0748 51.1618 64.9006 53.1552 65.8965C53.4874 66.0625 53.6535 66.2285 54.1518 66.2285C54.8162 66.3945 55.4807 66.5605 56.4773 66.5605C56.8096 66.5605 57.3079 66.5605 57.6401 66.5605C57.6401 66.5605 55.3146 67.3904 53.1552 68.7183C51.8263 69.5482 50.6635 70.5441 50.1652 71.706C49.833 72.536 49.6668 73.3659 50.1652 74.1958C50.1652 74.1958 51.9924 70.2122 56.3112 69.8802C57.8062 69.7142 59.3012 69.5482 60.464 68.5523C60.9623 68.0543 61.2945 67.5564 61.7929 66.8924C61.959 66.5605 62.1251 66.2285 62.2912 65.8965C62.9556 65.2326 63.6201 64.5686 64.2845 64.0707ZM38.2053 67.5564C38.2053 67.7224 38.0392 67.8884 38.0392 68.0544C37.873 68.3863 37.7069 68.7183 37.7069 69.0503C37.3747 70.8761 38.7036 71.3741 39.8664 71.706L40.0325 70.0462C40.0325 70.0462 40.3647 69.8802 40.3647 69.7142C40.5308 69.7142 40.5308 69.5482 40.6969 69.5482C40.863 69.3822 41.0291 69.2163 41.0291 68.8843C41.0291 68.7183 41.0291 68.5523 41.0291 68.3863C41.0291 68.0544 41.0291 67.8884 41.1952 67.7224C41.1952 67.7224 41.3614 67.5564 41.5275 67.5564C41.6936 67.5564 41.6936 67.5564 41.8597 67.5564C42.0258 67.5564 42.0258 67.5564 42.1919 67.5564C42.358 67.7224 42.5241 67.8884 42.6902 68.2203C42.6902 68.3863 42.6902 68.3863 42.6902 68.5523C42.6902 69.0503 42.358 69.7142 42.5241 70.2122C42.6902 70.5441 43.1886 71.0421 43.6869 71.0421C43.853 71.0421 44.0191 71.0421 44.1852 70.8761L45.348 71.872C46.843 70.2122 46.3446 68.5523 44.6835 67.8884C44.5174 67.8884 44.3513 67.7224 44.3513 67.7224C44.0191 67.5564 43.853 67.2244 44.0191 66.8924C44.1852 66.7265 44.3513 66.5605 44.5174 66.5605C44.8497 66.5605 45.1819 66.7265 45.8463 67.0584C45.8463 67.0584 45.8463 67.0584 46.0124 67.0584C46.3446 67.2244 46.6769 67.2244 46.843 67.2244C47.5074 67.2244 48.0057 66.8925 48.1719 65.8965C48.1719 65.8965 48.1719 65.7305 48.1719 65.5646L48.5041 65.7305L49.1685 66.0625C49.1685 65.8965 49.1685 65.7305 49.1685 65.7305C49.1685 65.3986 49.0024 65.0666 48.8363 64.7346C48.338 63.7387 47.3413 63.4067 46.5108 63.4067C45.348 63.4067 44.0191 64.0707 43.5208 64.7346L41.3614 65.0666C40.863 64.5686 40.863 62.9088 41.0291 61.5809C41.0291 60.585 41.8597 59.921 42.6902 59.7551C44.3513 59.5891 46.6769 59.2571 47.5074 59.0911C49.1685 58.9251 50.8296 58.7591 51.9924 57.4313C53.6535 55.7714 53.9857 54.1115 53.9857 51.6218C53.9857 50.7918 53.9857 50.1279 53.8196 49.298C53.8196 48.634 53.6535 47.9701 53.6535 47.3061C53.6535 46.8082 53.4874 46.4762 53.4874 45.9782C53.4874 45.4803 53.4874 45.1483 53.4874 44.6503C53.4874 44.4844 53.4874 44.3184 53.4874 44.1524C53.4874 43.6544 53.6535 43.1565 53.8196 42.6585C53.9857 42.1606 54.3179 41.6626 54.6501 41.3306C55.1485 40.6667 55.8129 40.0027 56.8096 39.5048C57.1418 39.3388 57.474 39.1728 57.9723 38.8408C58.3046 38.5089 58.8029 38.3429 59.3012 38.0109C60.464 37.347 61.6267 36.3511 62.7895 35.3551C62.7895 35.3551 62.6234 35.1892 62.4573 35.1892C61.959 34.8572 60.9623 34.0272 59.7995 33.1973C59.4673 33.0313 59.3012 32.6994 59.1351 32.5334L60.1318 32.0354C61.2945 33.0313 62.6234 34.0273 62.9556 34.1932C63.1217 34.3592 63.2878 34.3592 63.454 34.5252C63.7862 34.6912 64.1184 34.8572 64.4506 35.0232C66.1117 36.0191 67.4406 36.683 67.4406 37.8449C65.2812 40.1687 66.4439 41.4966 67.6067 41.9946L67.9389 40.6667C69.2678 40.5007 69.2678 39.5048 69.2678 38.8408C69.2678 38.5089 69.6 38.1769 69.9322 38.1769C70.2645 38.1769 70.4306 38.3429 70.4306 38.6749C70.4306 39.1728 70.4306 39.5048 70.5967 40.1687C70.5967 40.6667 71.095 41.3306 71.9256 41.3306C72.0917 41.3306 72.0917 41.3306 72.2578 41.3306L72.59 42.8245C75.0816 42.3265 74.7494 39.8368 73.0883 39.0068C72.0917 38.5089 71.7595 38.1769 72.0917 37.8449C72.0917 37.6789 72.2578 37.6789 72.4239 37.6789C72.7561 37.6789 73.2544 38.0109 73.7528 38.5089C73.9189 38.6749 74.2511 38.8408 74.5833 38.8408C75.2478 38.8408 75.9122 38.3429 76.2444 37.513L77.075 38.0109C77.2411 36.1851 76.0783 35.1892 74.9155 35.1892C74.4172 35.1892 73.7528 35.3551 73.4205 35.8531C73.2544 36.0191 73.0883 36.0191 72.9222 36.0191C72.4239 36.0191 72.0917 35.3551 72.7561 35.0232C73.4205 34.6912 74.085 33.5293 73.4205 32.8653L74.4172 31.8694C73.9189 31.5375 73.4205 31.3715 72.9222 31.3715C71.9256 31.3715 70.9289 32.0354 70.5967 33.5293C70.5967 33.8613 70.4306 34.0272 70.0984 34.0272C69.6 34.0272 68.6034 32.8653 67.7728 31.5375C67.6067 31.2055 67.4406 31.0395 67.2745 30.7075C67.1084 30.3756 66.7762 29.8776 66.61 29.5456C66.2778 29.0477 65.9456 28.7157 65.6134 28.2177C64.9489 27.5538 63.6201 26.2259 62.2912 25.562C61.959 25.396 61.6268 25.23 61.2945 25.064C60.7962 24.5661 60.464 23.9021 60.1318 23.4042C59.1351 21.9103 58.3046 20.2504 57.8062 18.5906C58.6368 20.2504 59.6334 21.5783 60.7962 22.7402C61.2945 23.4042 61.959 23.9021 62.4573 24.4001C64.1184 25.23 65.4473 26.5579 66.2778 27.3878L66.4439 27.5538C66.61 27.7198 66.9423 28.0518 67.1084 28.2177C67.4406 26.5579 67.2745 24.5661 66.7762 22.7402C66.61 22.4082 66.61 21.9103 66.4439 21.5783C65.9456 20.2504 65.2812 19.0885 64.2845 18.0926C63.9523 17.9266 63.7862 17.5946 63.454 17.4287C62.2912 16.4327 60.6301 15.9348 58.6368 15.9348C58.3046 15.9348 58.1384 15.9348 57.8062 15.9348L55.1485 14.7729C56.1451 14.7729 56.8096 14.7729 57.474 14.7729C60.1318 14.7729 59.9657 14.4409 59.6334 12.6151C59.6334 12.6151 57.474 13.279 55.6468 13.279C55.4807 13.279 55.3146 13.279 55.1485 13.279C54.3179 13.279 53.9857 12.7811 53.8196 12.4491C53.6535 11.7851 53.6535 10.9552 54.1518 9.79331C54.484 8.96339 55.1485 8.29944 56.3112 8.29944C57.1418 8.29944 58.1384 8.63141 59.1351 9.62733L60.1318 10.6232C60.6301 10.1253 60.9623 9.46134 61.2945 8.7974C61.4606 7.96747 60.6301 7.30353 60.6301 7.30353C61.6267 7.46951 61.959 6.4736 62.1251 5.97564C61.1284 5.47768 59.6334 4.64775 58.1384 4.1498L57.6401 2.65592C57.1418 2.32395 51.3279 0.996064 49.833 0.996064H49.6668C49.5007 0.996064 49.5007 0.996064 49.3346 1.16205C49.6668 1.49402 49.9991 1.82599 50.1652 2.32395L49.1685 2.65592C48.6702 1.66001 47.8396 0.996064 47.1752 0.830078C46.3446 1.66001 45.1819 3.98381 47.5074 6.4736V8.29944L47.0091 7.96747C46.5108 7.46951 46.0124 6.97155 45.6802 6.30761C41.0291 16.2668 48.6702 24.4001 48.6702 27.8858C48.6702 27.8858 50.3313 27.8858 51.3279 27.3878C51.3279 27.3878 51.8263 30.8735 50.8296 33.6953C49.6668 37.015 47.6735 39.8368 46.1785 42.9905C45.6802 43.9864 45.1819 45.1483 44.8497 46.3102C44.8497 46.3102 44.8497 46.3102 44.8497 46.4762C44.5174 47.1401 44.0191 47.8041 43.3547 48.136C42.5241 48.468 41.6936 48.468 40.863 47.9701C40.0325 47.4721 39.7003 46.8082 39.7003 45.9782C39.7003 44.1524 40.863 42.6585 42.0258 41.1646C42.6902 40.3347 43.3547 39.5048 43.853 38.6749C45.5141 35.6871 45.8463 32.5334 45.0158 29.2137C44.6836 27.7198 43.6869 26.3919 42.8563 25.064C42.6902 24.732 42.5241 24.4001 42.358 24.2341C42.358 24.0681 42.1919 24.0681 42.1919 23.9021C42.6902 23.5701 42.6902 23.0722 42.5241 22.4082C42.358 21.9103 42.0258 21.0804 41.6936 20.2504C41.1952 19.2545 40.863 18.2586 40.5308 17.0967C40.1986 15.2708 40.1986 13.777 40.3647 12.4491C40.0325 12.947 39.7003 13.611 39.5341 14.2749C39.2019 14.9389 39.0358 15.7688 39.0358 16.4327C38.8697 17.2627 38.8697 17.9266 39.0358 18.7566C38.7036 18.0926 38.5375 17.2627 38.5375 16.4327C38.5375 15.6028 38.5375 14.7729 38.7036 13.943C38.8697 13.279 39.0358 12.4491 39.368 11.7851C38.2053 13.445 37.7069 15.4368 37.5408 17.9266C37.5408 21.0804 38.5375 23.5701 39.5341 24.2341C39.7003 24.2341 39.8664 24.4001 39.8664 24.4001C40.3647 24.5661 41.0291 24.2341 41.0291 24.2341C41.3614 24.732 41.6936 25.23 41.8597 25.728C42.6902 27.0558 43.5208 28.2177 43.853 29.5456C44.6835 32.5334 44.3513 35.5211 42.8563 38.1769C42.358 39.0068 41.6936 39.8368 41.1952 40.5007C39.8664 42.1606 38.7036 43.6544 38.5375 45.9782C38.5375 47.3061 39.2019 48.468 40.1986 49.132C40.863 49.4639 41.5275 49.6299 42.1919 49.6299C42.5241 49.6299 42.8563 49.6299 43.1886 49.4639C43.5208 49.4639 43.6869 49.2979 44.0191 49.132C44.0191 49.132 44.1852 48.966 44.3513 48.966C44.3513 49.2979 44.3513 49.7959 44.3513 50.1279C44.3513 50.2939 44.3513 50.2939 44.3513 50.4598C44.3513 51.1238 44.5174 51.7877 44.5174 52.4517C44.5174 53.2816 44.6835 53.4476 44.5174 54.2775C44.1852 55.2734 42.8563 55.9374 41.5275 56.2694C40.6969 56.4353 39.368 56.6013 38.5375 56.7673C37.7069 56.9333 37.0425 57.5972 37.0425 58.4272C36.8764 60.419 36.7103 64.0707 36.8764 65.0666C36.5442 66.2285 37.2086 67.0584 38.2053 67.5564ZM57.3079 4.81374C57.3079 5.80965 56.9757 6.80557 55.4807 6.63958C55.4807 6.63958 55.1485 5.97564 53.9857 4.81374C53.8196 4.81374 55.8129 5.14571 57.3079 4.81374ZM53.9857 19.0885C54.3179 19.9185 54.8162 20.5824 55.1485 21.2463C55.6468 21.9103 56.1451 22.5742 56.6435 23.2382C57.1418 23.7361 57.6401 24.4001 58.1384 24.898C57.6401 24.898 56.9757 25.064 56.4773 25.23C56.1451 24.732 55.979 24.4001 55.6468 23.9021C55.1485 23.2382 54.8162 22.4082 54.484 21.5783C54.1518 20.7484 53.8196 19.9185 53.6535 19.0885C53.3213 18.2586 53.1551 17.4287 52.989 16.5987C53.1551 17.4287 53.4874 18.2586 53.9857 19.0885ZM51.3279 24.4001C50.8296 23.2382 50.3313 22.0763 49.833 21.0804C49.3346 19.9185 49.0024 18.7566 48.6702 17.5947C48.5041 16.2668 48.1719 15.1049 48.1719 13.777C48.5041 14.9389 48.8363 16.1008 49.1685 17.2627C49.5007 18.4246 49.9991 19.5865 50.6635 20.5824C51.6602 22.5742 52.989 24.4001 54.1518 26.2259C53.6535 26.5579 53.1552 26.7239 52.6568 26.8899C52.1585 26.2259 51.8263 25.396 51.3279 24.4001ZM82.7227 4.97972H83.8855C84.2177 5.80965 84.716 6.63958 85.2143 7.30353H87.5399C87.0416 6.97156 86.3771 6.4736 86.0449 5.64367C85.3805 4.64775 85.0482 3.15388 85.0482 1.82599H81.726C81.726 3.31987 81.3938 4.64775 80.7294 5.64367C80.231 6.30761 79.7327 6.97156 79.2344 7.30353H81.3938C82.0583 6.63958 82.3905 5.80965 82.7227 4.97972ZM76.0783 7.30353H76.4105C75.9122 6.97156 75.2478 6.4736 74.9155 5.64367C74.2511 4.64775 73.9189 3.15388 73.9189 1.82599H71.4272C71.4272 1.99198 71.4272 2.15796 71.4272 2.32395C71.095 4.97972 73.4205 7.30353 76.0783 7.30353ZM94.1843 4.97972H95.347C95.6793 5.97564 96.1776 6.80557 96.6759 7.30353H99.1676C98.6692 6.97156 98.0048 6.4736 97.6726 5.64367C97.0081 4.64775 96.6759 3.15388 96.6759 1.82599H93.0215C93.0215 3.31987 92.6893 4.64775 92.0248 5.64367C91.5265 6.30761 91.0282 6.97156 90.5299 7.30353H92.8554C93.3537 6.63958 93.8521 5.80965 94.1843 4.97972ZM52.6568 67.7224C52.989 67.5564 53.3213 67.3904 53.6535 67.0584H53.4874C53.3213 67.0584 53.1551 66.8924 52.989 66.8924C51.8263 66.3945 50.9957 66.2285 50.3313 66.0625V66.2285L50.4974 67.8884L48.8363 67.2244C48.6702 67.3904 48.5041 67.5564 48.5041 67.7224C48.0057 68.2203 47.5074 68.3863 46.843 68.3863C47.0091 68.7183 47.1752 69.0503 47.3413 69.3822C47.6735 70.5441 47.1752 71.706 46.1785 72.702L45.5141 73.5319L44.6835 73.0339L44.0191 72.37C43.853 72.37 43.853 72.37 43.6869 72.37C42.6902 72.37 41.6936 71.5401 41.5275 70.7101C41.5275 70.5441 41.5275 70.5441 41.5275 70.3782C41.3614 70.3782 41.3614 70.5441 41.1952 70.5441L41.0291 71.706L40.6969 73.0339L39.5341 72.702C38.7036 72.536 37.3747 72.038 36.8764 70.8761C36.5442 70.3782 36.5442 69.7142 36.7103 68.8843C34.2186 68.5523 32.0592 67.8884 32.0592 67.8884C33.5542 72.37 37.7069 74.8598 41.8597 74.8598C44.1852 74.8598 46.5108 74.0298 48.1719 72.204C48.6702 71.706 49.0024 71.3741 49.3346 71.0421C49.9991 69.8802 50.9957 68.7183 52.6568 67.7224ZM105.812 4.97972H106.975C107.307 5.97564 107.805 6.80557 108.304 7.30353H110.629C110.131 6.97156 109.466 6.4736 109.134 5.64367C108.47 4.64775 108.137 3.15388 108.137 1.82599H104.815C104.815 3.31987 104.483 4.64775 103.819 5.64367C103.32 6.30761 102.822 6.97156 102.324 7.30353H104.649C105.148 6.63958 105.48 5.80965 105.812 4.97972ZM65.7795 18.5906C66.2778 19.4205 66.7762 20.2504 67.2745 21.0804L69.1017 19.2545C68.9356 18.7566 68.7695 18.0926 68.9356 17.5947C68.9356 17.5947 68.9356 17.5946 68.9356 17.4287L69.9322 17.9266C69.9322 18.7566 70.2645 19.4205 70.9289 19.7525C71.095 19.9185 71.2611 19.9185 71.5933 19.9185V19.0885C71.9256 19.0885 72.4239 18.7566 72.4239 18.2586C72.4239 17.7606 72.0917 17.4287 71.5933 17.2627V16.2668C72.4239 16.4327 73.0883 16.9307 73.2544 17.5947H74.4172C74.4172 16.7647 74.085 15.9348 73.2544 15.7688V14.7729C73.9189 14.9389 74.4172 15.2708 74.7494 15.6028C74.9155 15.6028 74.9155 15.7688 74.9155 15.9348H75.7461C75.7461 15.1049 75.4139 14.4409 74.5833 14.1089V12.947C75.0816 13.113 75.4139 13.279 75.7461 13.611H76.4105C76.4105 13.113 76.0783 12.6151 75.7461 12.2831C75.4139 12.1171 74.9155 11.9511 74.4172 11.7851C74.2511 11.7851 74.085 11.7851 73.9189 11.7851C73.7528 11.7851 73.5867 11.7851 73.4205 11.7851C72.9222 11.7851 72.59 11.9511 72.0917 12.2831C71.4272 12.7811 70.9289 13.279 70.2645 13.777C69.2678 14.6069 68.2711 15.4368 67.2745 16.2668C66.9423 16.4327 65.9456 17.2627 65.1151 17.9266C65.2812 18.0926 65.6134 18.4246 65.7795 18.5906ZM66.4439 10.7892C66.4439 9.9593 66.1117 9.46134 65.2812 9.29536C65.2812 9.29536 65.2812 9.29536 65.1151 9.29536C65.2812 9.9593 65.2812 10.7892 64.7828 11.4532C64.4506 11.9511 63.9523 12.2831 63.2878 12.6151C63.454 12.6151 63.7862 12.6151 63.9523 12.6151C65.4473 12.6151 66.1117 11.9511 66.4439 10.7892Z" fill="white"/>
<path d="M94.8487 12.4487C96.5 12.4487 97.8387 11.7799 97.8387 10.9548C97.8387 10.1298 96.5 9.46094 94.8487 9.46094C93.1974 9.46094 91.8587 10.1298 91.8587 10.9548C91.8587 11.7799 93.1974 12.4487 94.8487 12.4487Z" fill="#CE0000"/>
<path d="M86.3771 10.9548L83.0549 9.29492L79.7327 10.9548L83.0549 12.6146L86.3771 10.9548Z" fill="#CE0000"/>
<path d="M109.965 10.9548L106.642 9.29492L103.154 10.9548L106.642 12.6146L109.965 10.9548Z" fill="#CE0000"/>
<path d="M157.14 67.0583C157.14 67.0583 155.147 67.7222 152.655 68.0542C153.485 67.3903 153.984 66.3943 154.15 65.2324C154.316 64.4025 154.316 62.0787 153.984 58.427C153.984 57.0991 152.821 55.9372 151.658 55.7712C150.495 55.6053 149.333 55.4393 148.668 55.2733C147.339 54.9413 146.509 54.4434 146.343 54.1114C146.177 53.7794 146.177 53.6134 146.343 53.2815C146.343 53.1155 146.343 52.9495 146.509 52.6175C146.509 52.2855 146.509 52.1196 146.675 51.7876C146.675 51.4556 146.841 50.9577 146.841 50.6257C147.173 50.6257 147.505 50.7917 147.838 50.7917C148.668 50.7917 149.665 50.6257 150.329 50.1277C151.824 49.2978 152.655 47.8039 152.489 45.9781C152.489 43.3223 150.994 41.4965 149.665 39.8366C149 39.0067 148.502 38.3427 148.004 37.6788C146.675 35.189 146.343 32.6992 147.007 29.8775C147.339 28.7156 148.004 27.5536 148.834 26.3917C149 26.2258 149.167 25.8938 149.333 25.5618C149.499 25.5618 149.499 25.5618 149.665 25.5618C150.163 25.5618 150.662 25.3958 150.828 25.2298C152.655 24.0679 153.485 20.2503 153.319 18.0925C153.319 13.6108 151.492 10.2911 147.838 8.13331L146.675 7.30338L147.173 8.63126C148.336 11.785 148.834 13.7768 148.17 16.9306C148.004 17.9265 147.505 18.9224 147.173 19.9183C146.509 21.4122 145.844 22.7401 146.509 23.902C146.343 24.0679 146.177 24.3999 146.177 24.5659C145.18 25.8938 144.349 27.3877 143.851 29.0475C142.854 32.6992 143.353 36.1849 145.18 39.3386C145.678 40.3346 146.509 41.1645 147.173 41.9944C148.336 43.3223 149.333 44.6502 149.333 46.1441C149.333 46.808 149 47.14 148.668 47.306C148.17 47.6379 147.672 47.6379 147.173 47.306C146.841 47.14 146.509 46.642 146.177 46.3101C145.844 45.1481 145.346 44.1522 144.682 42.8243C144.183 41.6624 143.519 40.6665 142.854 39.5046C141.692 37.5128 140.695 35.687 139.864 33.5291C139.2 31.8693 139.2 30.2094 139.2 29.0475C140.031 29.2135 140.695 29.2135 140.861 29.2135H141.858V28.0516C141.858 27.2217 142.522 25.8938 143.187 24.2339C145.18 19.7523 148.17 13.1129 144.349 5.31155C144.349 5.31155 144.349 5.14556 144.183 5.14556C144.349 4.6476 144.349 4.14965 144.349 3.65169C144.349 2.15782 143.685 0.995915 142.854 0.497958L142.688 0L142.19 0.165986C141.858 0.331972 141.526 0.497958 141.027 0.829929C140.695 0.663943 140.529 0.497958 140.031 0.331972C139.864 0.331972 139.864 0.331972 139.698 0.331972C138.037 0.331972 132.223 1.65986 131.393 1.99183L131.061 2.15782L130.895 2.65577L130.562 3.65169C129.233 4.14965 128.071 4.6476 127.24 5.14556C127.074 5.14556 127.074 5.31155 126.908 5.31155L126.243 5.64352L126.576 6.63943C126.576 6.80542 127.24 9.62718 128.901 11.619H129.067C128.569 11.619 128.237 11.619 127.905 11.619C126.908 11.619 126.077 11.287 125.745 10.7891C125.081 9.79316 125.579 8.79725 126.243 8.29929C125.911 8.13331 125.579 7.96732 125.081 7.96732C124.748 7.96732 124.582 7.96732 124.25 8.13331C122.921 8.46528 122.091 9.62718 122.423 10.9551C122.755 12.6149 123.752 13.6108 125.745 13.6108C126.077 13.6108 126.576 13.6108 127.074 13.4449C127.738 13.2789 128.403 13.1129 129.067 12.9469C128.901 13.9428 128.735 14.6068 129.233 15.2707C127.738 15.6027 126.576 16.1006 125.413 17.0965C124.582 16.4326 123.253 15.4367 123.087 15.4367C122.423 14.9387 121.758 14.2748 120.928 13.7768C120.596 13.6108 120.43 13.2789 120.097 12.9469C119.433 12.4489 118.768 11.951 118.104 11.453C117.606 11.1211 116.941 10.7891 116.277 10.7891V7.80133C118.436 6.80542 119.931 4.6476 119.931 2.3238C119.931 1.82584 119.931 1.32789 119.765 0.829929H115.28C115.28 1.1619 115.28 1.49387 115.28 1.82584C115.28 4.48162 113.951 6.80542 112.29 6.80542C110.629 6.80542 109.3 4.48162 109.3 1.82584C109.3 1.49387 109.3 1.1619 109.3 0.829929H103.653C103.653 1.1619 103.653 1.49387 103.653 1.82584C103.653 4.48162 102.324 6.80542 100.663 6.80542C99.0014 6.80542 97.6725 4.48162 97.6725 1.82584C97.6725 1.49387 97.6725 1.1619 97.6725 0.829929H91.8587C91.8587 1.1619 91.8587 1.49387 91.8587 1.82584C91.8587 4.48162 90.5298 6.80542 88.8687 6.80542C87.2076 6.80542 85.8788 4.48162 85.8788 1.82584C85.8788 1.49387 85.8788 1.1619 85.8788 0.829929H80.3971C80.3971 1.1619 80.3971 1.49387 80.3971 1.82584C80.3971 4.48162 79.0682 6.80542 77.4071 6.80542C75.746 6.80542 74.7494 4.31563 74.7494 1.65986C74.7494 1.32789 74.7494 0.995915 74.7494 0.663943H70.2644C70.0983 1.1619 70.0983 1.65986 70.0983 2.15782C70.0983 4.48162 71.4272 6.63943 73.4205 7.63535V10.6231C72.7561 10.6231 72.0916 10.9551 71.5933 11.287C70.9289 11.785 70.2644 12.283 69.6 12.7809C69.2678 12.9469 69.1017 13.2789 68.7694 13.6108C68.105 14.2748 67.4406 14.7727 66.61 15.2707C66.4439 15.4367 65.2811 16.2666 64.2845 16.9306C63.1217 16.1006 61.9589 15.4367 60.464 15.1047C60.9623 14.4408 60.7962 13.6108 60.6301 12.7809C61.2945 12.9469 61.9589 13.2789 62.6234 13.2789C63.1217 13.2789 63.4539 13.4449 63.9523 13.4449C65.9456 13.4449 67.1083 12.4489 67.2745 10.7891C67.6067 9.46119 66.7761 8.29929 65.4472 7.96732C65.115 7.96732 64.7828 7.80133 64.6167 7.80133C64.1184 7.80133 63.7861 7.96732 63.4539 8.13331C64.1184 8.63126 64.6167 9.62718 63.9523 10.6231C63.62 11.287 62.7895 11.453 61.7928 11.453C61.4606 11.453 61.1284 11.453 60.6301 11.287C62.4573 9.62718 63.1217 6.63943 63.1217 6.63943L63.2878 5.8095L62.6234 5.47753C62.4573 5.47753 62.4573 5.31155 62.2912 5.31155C61.4606 4.81359 60.2978 4.14965 58.969 3.81767L58.6367 2.82176L58.4706 2.3238L58.1384 2.15782C57.3079 1.82584 51.494 0.497958 49.8329 0.497958C49.6668 0.497958 49.6668 0.497958 49.5007 0.497958C49.1685 0.497958 48.8363 0.663943 48.504 0.995915C48.1718 0.663943 47.6735 0.497958 47.3413 0.331972L46.8429 0L46.3446 0.497958C45.6802 1.1619 45.0157 2.3238 45.0157 3.65169C45.0157 3.98366 45.0157 4.48162 45.1818 5.14556V5.31155C41.3613 12.9469 44.3513 19.7523 46.3446 24.2339C47.0091 25.8938 47.6735 27.2217 47.6735 28.0516V29.0475H48.8363C49.0024 29.0475 49.6668 29.0475 50.4974 28.8815C50.4974 30.0434 50.4974 31.8693 49.8329 33.3632C49.0024 35.355 48.0057 37.3468 46.8429 39.3386C46.1785 40.5005 45.6802 41.4965 45.0157 42.6584C44.3513 43.9863 43.853 44.9822 43.5207 46.1441C43.3546 46.642 43.0224 46.974 42.5241 47.14C42.0258 47.472 41.5274 47.306 41.0291 47.14C40.6969 46.974 40.3647 46.642 40.3647 45.9781C40.3647 44.4842 41.3613 43.1563 42.5241 41.8284C43.1885 40.9985 43.853 40.1686 44.5174 39.1727C46.1785 36.0189 46.6768 32.5332 45.8463 28.8815C45.348 27.2217 44.5174 25.7278 43.5207 24.3999C43.3546 24.2339 43.1885 23.902 43.1885 23.736C43.6869 22.5741 43.1885 21.2462 42.5241 19.7523C42.0258 18.7564 41.6935 17.9265 41.5274 16.7646C40.863 13.6108 41.3613 11.619 42.5241 8.46528L43.0224 7.13739L41.5274 7.96732C37.873 10.1251 36.2119 13.4449 36.0458 17.9265C36.0458 20.0843 36.7102 23.902 38.5375 25.0639C38.8697 25.2298 39.2019 25.3958 39.7002 25.3958C39.8663 25.3958 39.8663 25.3958 40.0324 25.3958C40.1986 25.5618 40.3647 25.8938 40.5308 26.2258C41.3613 27.3877 42.0258 28.5496 42.358 29.7115C43.0224 32.5332 42.6902 35.189 41.3613 37.5128C40.863 38.3427 40.3647 39.0067 39.7002 39.6706C38.3713 41.3305 36.8764 43.1563 36.8764 45.8121C36.8764 47.472 37.7069 48.9658 39.0358 49.9617C39.8663 50.4597 40.6969 50.6257 41.5274 50.6257C41.8596 50.6257 42.1919 50.6257 42.5241 50.4597C42.5241 50.7917 42.5241 51.2896 42.6902 51.6216C42.6902 51.9536 42.6902 52.2855 42.8563 52.4515C42.8563 52.7835 42.8563 52.9495 42.8563 53.1155C42.8563 53.4474 42.8563 53.6134 42.8563 53.9454C42.6902 54.2774 42.0258 54.7753 40.5308 55.1073C39.8663 55.2733 38.8697 55.4393 37.5408 55.6053C36.2119 55.7712 35.2153 56.9331 35.2153 58.261C35.0491 61.9127 34.883 64.2365 35.0491 65.0665C35.2153 66.2284 35.7136 67.0583 36.5441 67.8882C34.0525 67.5562 32.0592 66.8923 32.0592 66.8923L30.3981 66.3943L31.0625 68.3862C31.8931 70.71 33.388 72.7018 35.3814 74.0297C37.2086 75.3576 39.5341 76.0215 41.8597 76.0215C44.6835 76.0215 47.1752 75.0256 49.0024 73.0338C49.0024 73.5317 49.1685 74.0297 49.3346 74.5276L50.1651 76.8514L51.1618 74.6936C51.1618 74.5276 52.8229 71.3739 56.4773 71.0419C58.1384 70.876 59.7995 70.71 61.2945 69.5481C61.2945 69.88 61.2945 70.378 61.4606 70.71C61.9589 72.7018 63.7861 73.8637 63.7861 73.8637L65.4472 74.8596L65.2811 73.0338C65.2811 72.2038 65.2811 71.3739 65.4472 70.544C65.9456 69.2161 67.2745 68.7181 68.105 68.3862C68.2711 68.3862 68.4372 68.2202 68.6033 68.2202C69.9322 67.8882 71.095 67.7222 72.2577 67.0583C71.7594 68.0542 71.5933 69.0501 71.7594 69.88C71.9255 72.3698 73.9188 73.8637 74.085 73.8637L76.4105 75.5236L75.746 72.7018C75.5799 71.7059 75.2477 69.2161 76.2444 68.5522C77.4072 67.7222 78.4038 67.7222 79.4005 67.5562C80.231 67.3903 81.2277 67.3903 82.3904 66.8923C81.5599 68.8841 81.8921 70.378 81.8921 70.378L82.3904 72.5358L83.7193 70.876C83.7193 70.876 86.211 67.7222 89.6993 67.7222C92.1909 67.7222 94.3503 69.0501 94.3503 69.0501L94.8487 69.3821L95.347 69.0501C95.347 69.0501 97.3403 67.7222 99.9981 67.7222C103.486 67.7222 105.978 70.876 105.978 70.876L107.307 72.5358L107.805 70.378C107.805 70.378 108.137 68.7181 107.307 66.8923C108.47 67.3903 109.3 67.5562 110.297 67.5562C111.294 67.7222 112.29 67.7222 113.453 68.5522C114.45 69.2161 114.284 71.5399 113.951 72.7018L113.287 75.5236L115.612 73.8637C115.779 73.8637 117.772 72.2038 117.938 69.88C118.104 68.8841 117.772 67.8882 117.274 67.0583C118.436 67.7222 119.433 67.8882 120.928 68.2202C121.094 68.2202 121.26 68.2202 121.426 68.3862C122.257 68.5522 123.752 69.0501 124.084 70.544C124.25 71.3739 124.25 72.2038 124.25 73.0338V74.6936L125.911 73.6977C126.077 73.6977 127.738 72.5358 128.237 70.544C128.403 70.212 128.403 69.7141 128.403 69.3821C129.732 70.544 131.559 70.71 133.22 70.876C136.874 71.2079 138.369 74.3617 138.536 74.5276L139.532 76.6855L140.529 74.3617C140.695 73.8637 140.861 73.3657 140.861 72.8678C142.688 74.6936 145.18 75.8555 148.004 75.8555C150.329 75.8555 152.489 75.1916 154.482 73.8637C156.475 72.5358 157.97 70.544 158.801 68.2202L159.465 66.2284L157.14 67.0583ZM125.579 12.6149C124.25 12.6149 123.42 12.117 123.253 10.7891C123.087 9.95915 123.42 9.46119 124.25 9.29521C124.25 9.29521 124.25 9.29521 124.416 9.29521C124.25 9.95915 124.25 10.7891 124.748 11.453C125.081 11.951 125.579 12.283 126.243 12.6149C125.911 12.6149 125.745 12.6149 125.579 12.6149ZM64.7828 11.453C65.2811 10.7891 65.2811 9.95915 65.115 9.29521C65.115 9.29521 65.115 9.29521 65.2811 9.29521C66.1117 9.46119 66.4439 9.95915 66.2778 10.7891C66.1117 11.951 65.2811 12.6149 63.9523 12.6149C63.7861 12.6149 63.4539 12.6149 63.2878 12.6149C63.9523 12.283 64.4506 11.951 64.7828 11.453ZM125.247 18.5904C125.413 18.4244 125.745 18.0925 126.077 17.9265C127.24 16.9306 128.901 16.4326 130.895 16.4326C131.227 16.4326 131.393 16.4326 131.725 16.4326L134.383 15.2707C133.386 15.2707 132.722 15.2707 132.057 15.2707C129.4 15.2707 129.566 14.9387 129.898 13.1129C129.898 13.1129 132.223 13.7768 133.884 13.7768C134.051 13.7768 134.217 13.7768 134.383 13.7768C135.213 13.7768 135.546 13.2789 135.712 12.9469C135.878 12.283 135.878 11.453 135.546 10.2911C135.213 9.46119 134.549 8.79725 133.386 8.79725C132.556 8.79725 131.559 9.12922 130.562 10.1251L129.566 10.7891C129.067 10.2911 128.735 9.62718 128.403 8.96324C128.237 8.13331 129.067 7.46936 129.067 7.46936C128.071 7.63535 127.572 6.63943 127.572 6.14148C128.569 5.64352 130.064 4.81359 131.559 4.31563L132.057 2.82176C132.556 2.48979 138.369 1.1619 139.864 1.1619C140.031 1.1619 140.031 1.1619 140.031 1.1619C140.197 1.1619 140.197 1.1619 140.363 1.32789C140.031 1.65986 139.698 1.99183 139.532 2.48979L140.529 2.82176C141.027 1.82584 141.858 1.1619 142.522 0.995915C143.519 1.82584 144.516 4.14965 142.19 6.63943V8.13331L142.688 7.80133C143.187 7.30338 143.685 6.80542 144.017 6.14148C148.668 16.1006 141.027 24.2339 141.027 27.7196C141.027 27.7196 139.532 27.7196 138.369 27.2217C138.369 27.2217 137.871 30.7074 138.868 33.5291C140.031 36.8489 142.024 39.6706 143.685 42.8243C144.183 43.8203 144.682 44.9822 145.014 46.1441C145.014 46.1441 145.014 46.1441 145.014 46.3101C145.346 46.974 145.844 47.6379 146.509 47.9699C147.339 48.3019 148.17 48.3019 149 47.8039C149.665 47.306 150.163 46.642 150.163 45.8121C150.163 43.9862 149 42.4924 147.838 40.9985C147.173 40.1686 146.509 39.3386 146.011 38.5087C144.349 35.521 144.017 32.3672 144.848 29.0475C145.18 27.5537 146.177 26.2258 147.007 24.8979C147.173 24.5659 147.339 24.2339 147.672 24.0679C147.838 23.902 147.838 23.902 147.838 23.736C147.339 23.404 147.339 22.906 147.505 22.2421C147.672 21.7441 148.004 20.9142 148.336 20.0843C148.834 19.0884 149.167 18.0925 149.499 16.9306C149.831 15.1047 149.831 13.6108 149.665 12.283C149.997 12.7809 150.329 13.4449 150.495 14.1088C150.828 14.7727 150.994 15.6027 151.16 16.2666C151.326 16.9306 151.326 17.7605 151.16 18.5904C151.492 17.9265 151.658 17.0965 151.658 16.2666C151.658 15.4367 151.658 14.6068 151.492 13.7768C151.16 13.1129 150.828 12.283 150.662 11.619C151.824 13.2789 152.323 15.2707 152.489 17.7605C152.489 20.9142 151.492 23.404 150.495 24.0679C150.329 24.0679 150.329 24.2339 150.163 24.2339C149.665 24.3999 149 24.0679 149 24.0679C148.668 24.5659 148.336 25.0639 148.004 25.5618C147.173 26.8897 146.343 28.0516 146.011 29.3795C145.18 32.3672 145.512 35.355 147.007 38.0108C147.505 38.8407 148.004 39.6706 148.668 40.3346C149.997 41.9944 151.326 43.4883 151.326 45.8121C151.326 47.14 150.662 48.3019 149.665 48.9658C149 49.2978 148.336 49.4638 147.672 49.4638C147.339 49.4638 147.007 49.4638 146.675 49.2978C146.343 49.2978 146.177 49.1318 145.844 48.9658C145.678 48.9658 145.678 48.7998 145.512 48.7998C145.512 49.1318 145.512 49.6298 145.512 49.9617C145.512 50.1277 145.512 50.1277 145.512 50.2937C145.512 50.9577 145.346 51.6216 145.346 52.2855C145.18 53.1155 145.18 53.2815 145.346 54.1114C145.678 55.1073 147.007 55.7712 148.336 56.1032C149.167 56.2692 150.495 56.4352 151.326 56.6012C152.157 56.7672 152.821 57.4311 152.821 58.261C152.987 60.2529 153.153 63.9045 152.987 64.9005C152.821 66.0624 152.157 66.8923 151.16 67.3903C151.16 67.5562 151.326 67.7222 151.326 67.8882C151.492 68.2202 151.658 68.5522 151.658 68.8841C151.99 70.71 150.662 71.2079 149.499 71.5399L149.333 69.88C149.333 69.88 149 69.7141 149 69.5481C148.834 69.5481 148.834 69.3821 148.668 69.3821C148.502 69.2161 148.336 69.0501 148.336 68.7181C148.336 68.5522 148.336 68.3862 148.336 68.2202C148.336 67.8882 148.336 67.7222 148.17 67.5562C148.17 67.5562 148.004 67.3903 147.838 67.3903C147.672 67.3903 147.672 67.3903 147.505 67.3903C147.339 67.3903 147.339 67.3903 147.173 67.3903C147.007 67.5562 146.841 67.7222 146.675 68.0542C146.675 68.2202 146.675 68.2202 146.675 68.3862C146.841 68.8841 147.007 69.5481 146.841 70.046C146.675 70.378 146.177 70.876 145.678 70.876C145.512 70.876 145.346 70.876 145.18 70.71L144.017 71.7059C142.522 70.046 143.021 68.3862 144.682 67.7222C144.848 67.7222 145.014 67.5562 145.014 67.5562C145.346 67.3903 145.512 67.0583 145.346 66.7263C145.18 66.5603 145.014 66.3943 144.848 66.3943C144.516 66.3943 144.183 66.5603 143.519 66.8923C143.519 66.8923 143.519 66.8923 143.353 66.8923C143.021 67.0583 142.688 67.0583 142.522 67.0583C141.858 67.0583 141.359 66.7263 141.193 65.7304C141.193 65.7304 141.193 65.5644 141.193 65.3984L140.861 65.5644L140.197 66.3943C140.197 66.2284 140.197 66.0624 140.197 66.0624C140.197 65.7304 140.363 65.3984 140.529 65.0665C141.027 64.0705 142.024 63.7386 142.854 63.7386C144.017 63.7386 145.346 64.4025 145.844 65.0665L148.004 65.3984C148.502 64.9005 148.502 63.2406 148.336 61.9127C148.336 60.9168 147.672 60.2529 146.675 60.0869C145.014 59.9209 142.688 59.5889 141.858 59.4229C140.197 59.2569 138.536 59.091 137.373 57.7631C135.712 56.1032 135.379 54.4434 135.379 51.9536C135.379 51.1236 135.379 50.4597 135.546 49.6298C135.546 48.9658 135.712 48.3019 135.712 47.6379C135.712 47.14 135.878 46.808 135.878 46.3101C135.878 45.8121 135.878 45.4801 135.878 44.9822C135.878 44.8162 135.878 44.6502 135.878 44.4842C135.712 43.9862 135.712 43.4883 135.546 42.9903C135.379 42.4924 135.047 41.9944 134.715 41.6624C134.217 40.9985 133.552 40.3346 132.556 39.8366C132.223 39.6706 131.891 39.5046 131.393 39.1727C131.061 38.8407 130.562 38.6747 130.064 38.3427C128.901 37.6788 127.738 36.6829 126.576 35.687C126.742 35.687 126.742 35.521 126.908 35.521C127.406 35.189 128.403 34.3591 129.566 33.5291C129.898 33.3632 130.064 33.0312 130.23 32.8652L129.233 32.3672C128.071 33.3632 126.742 34.3591 126.41 34.5251C126.243 34.691 126.077 34.691 125.911 34.857C125.579 35.023 125.247 35.189 124.915 35.355C123.087 36.3509 121.925 37.0148 121.925 38.1767C124.084 40.5005 122.921 41.8284 121.758 42.3264L121.426 40.9985C120.097 40.8325 120.097 39.8366 120.097 39.1727C120.097 38.8407 119.765 38.5087 119.433 38.5087C119.101 38.5087 118.935 38.6747 118.935 39.0067C118.935 39.5046 118.935 39.8366 118.768 40.5005C118.602 40.9985 118.27 41.6624 117.44 41.6624C117.273 41.6624 117.274 41.6624 117.107 41.6624V43.1563C114.616 42.6584 114.948 40.1686 116.609 39.3386C117.606 38.8407 117.938 38.5087 117.606 38.1767C117.44 38.1767 117.274 38.1767 117.107 38.1767C116.775 38.1767 116.277 38.5087 115.779 39.0067C115.612 39.1727 115.28 39.3386 114.948 39.3386C114.284 39.3386 113.619 38.8407 113.287 38.0108L112.456 38.5087C112.29 36.6829 113.453 35.687 114.616 35.687C115.114 35.687 115.779 35.8529 116.111 36.3509C116.277 36.5169 116.443 36.5169 116.609 36.5169C117.107 36.5169 117.44 35.8529 116.775 35.521C116.277 34.857 115.612 33.8611 116.277 33.0312L115.28 32.0353C115.779 31.7033 116.277 31.5373 116.775 31.5373C117.772 31.5373 118.768 32.2013 119.101 33.6951C119.101 34.0271 119.267 34.1931 119.599 34.1931C120.097 34.1931 121.094 33.0312 121.925 31.7033C122.091 31.3713 122.257 31.2053 122.423 30.8734C122.589 30.5414 122.921 30.0434 123.087 29.7115C123.42 29.2135 123.752 28.8815 124.084 28.3836C124.748 27.7196 126.077 26.3917 127.406 25.7278C127.738 25.5618 128.071 25.3958 128.403 25.2298C128.901 24.7319 129.233 24.0679 129.566 23.57C130.562 22.0761 131.393 20.4163 131.891 18.7564C131.061 20.4163 130.064 21.7441 128.901 22.906C128.403 23.57 127.738 24.0679 127.24 24.5659C125.579 25.3958 124.25 26.7237 123.42 27.5537L123.253 27.7196C123.087 27.8856 122.755 28.2176 122.589 28.3836C122.257 26.7237 122.423 24.7319 122.921 22.906C123.087 22.5741 123.087 22.0761 123.253 21.7441C123.586 20.7482 124.25 19.4203 125.247 18.5904ZM131.393 11.951C132.057 11.785 132.722 11.619 133.386 11.619C133.884 11.619 134.383 11.785 134.715 11.951C134.715 12.117 134.715 12.283 134.715 12.4489C134.715 12.4489 134.549 12.4489 134.217 12.6149C134.051 12.6149 134.051 12.6149 133.884 12.6149C133.22 12.6149 132.556 12.4489 131.891 12.4489C131.227 12.283 130.23 12.117 130.23 12.117C130.064 11.619 130.23 10.9551 130.396 11.1211C130.562 10.9551 130.728 11.453 131.393 11.951ZM130.728 11.1211L131.227 10.6231C132.223 9.79317 132.888 9.46119 133.386 9.46119C134.051 9.46119 134.383 10.1251 134.549 10.2911C134.549 10.4571 134.549 10.6231 134.549 10.7891C134.217 10.6231 133.718 10.6231 133.22 10.6231C132.556 10.6231 131.725 10.7891 130.728 11.1211ZM137.705 62.2447C136.542 63.0746 135.379 63.4066 134.051 63.4066C132.888 63.4066 131.891 63.0746 130.728 62.7426C130.396 62.5767 130.064 62.5767 129.732 62.4107C129.233 62.2447 128.735 62.2447 128.071 62.2447C126.742 62.2447 125.579 62.7426 124.915 63.0746C125.081 62.7426 125.247 61.7467 125.247 60.9168C126.243 60.4188 126.908 59.5889 127.24 58.593C127.738 57.0991 128.071 54.4434 127.738 51.4556C128.569 51.2896 129.566 51.1236 130.728 50.9577C131.891 50.7917 132.888 50.6257 133.718 50.4597C134.051 50.4597 134.383 50.2937 134.549 50.1277C134.549 50.6257 134.549 51.2896 134.549 51.7876C134.549 53.2815 134.715 54.2774 135.047 55.2733C135.379 56.4352 136.044 57.4311 136.874 58.261C138.369 59.7549 140.363 60.0869 142.024 60.0869C142.688 60.0869 144.349 60.4188 146.841 60.7508C147.339 60.7508 147.672 61.2488 147.672 61.5807C147.672 62.7426 147.672 63.5726 147.672 63.9046L146.675 63.7386C145.844 62.9086 144.516 62.2447 143.187 62.2447C141.526 62.2447 140.197 63.0746 139.698 64.5685C139.366 64.5685 139.034 64.5685 138.702 64.7345C139.366 63.7386 139.366 62.9086 139.366 62.7426L139.532 60.5848L137.705 62.2447ZM120.928 62.4107C120.762 62.4107 120.762 62.2447 120.596 62.0787C120.43 61.7467 120.43 61.4148 120.43 60.9168C120.43 60.5848 120.43 60.0869 120.097 59.9209C119.931 59.7549 119.765 59.7549 119.599 59.7549C119.433 59.7549 119.433 59.7549 119.267 59.7549C119.101 59.7549 118.768 60.0869 118.768 60.2529C118.768 60.4188 118.768 60.5848 118.768 60.7508C118.768 60.9168 118.768 61.0828 118.768 61.2488C118.768 61.5808 118.768 61.9127 118.602 62.2447C118.602 62.2447 118.602 62.2447 118.602 62.4107C118.436 62.7426 117.938 63.2406 117.274 63.2406C117.107 63.2406 116.775 63.2406 116.609 62.9086L115.114 63.7386C114.948 63.5726 114.948 63.4066 114.782 63.2406C114.616 62.9086 114.45 62.5767 114.45 62.2447C114.117 60.9168 114.948 59.7549 116.443 59.4229C117.107 59.2569 117.44 58.925 117.274 58.427C117.107 58.095 116.941 57.9291 116.609 57.9291C116.277 57.9291 115.779 58.095 115.28 58.261C115.114 58.261 114.948 58.261 114.782 58.427C114.616 58.427 114.45 58.427 114.284 58.427C113.619 58.427 113.287 58.095 113.287 56.7672L111.958 57.0991C112.456 55.1073 113.619 54.2774 114.948 54.2774C116.111 54.2774 117.44 55.1073 118.27 56.2692L118.768 56.4352L119.599 56.7672L121.426 57.4311C123.087 55.9372 122.423 52.1196 122.423 52.1196C122.423 52.1196 119.101 50.2937 120.263 46.1441C120.263 46.1441 120.928 42.1604 128.071 42.1604C128.901 42.1604 129.732 42.1604 130.562 42.3264C131.061 42.3264 131.559 42.4924 132.057 42.4924C131.891 42.8243 131.891 43.3223 131.891 43.6543C132.057 44.3182 132.389 44.8162 133.054 45.1482C133.386 45.3141 133.718 45.3141 134.051 45.3141C134.383 45.3141 134.715 45.1482 135.047 44.9822C135.047 45.1482 135.047 45.3141 135.047 45.4801C134.881 46.476 134.715 47.472 134.715 48.4679C133.22 49.1318 126.576 49.9617 126.576 49.9617C127.24 53.1155 126.742 56.1032 126.243 57.5971C126.077 58.095 125.745 58.593 125.413 58.925C125.081 59.2569 124.748 59.4229 124.25 59.5889C124.084 60.7508 124.084 61.5808 123.918 62.0787C123.918 62.2447 123.752 62.5767 123.752 62.7426C123.253 63.5726 122.257 63.7386 121.26 63.9046L121.426 62.0787C121.426 62.7427 121.094 62.5767 120.928 62.4107ZM123.42 38.0108C123.752 37.5128 124.582 37.0148 125.579 36.5169C125.745 36.5169 125.911 36.3509 125.911 36.3509C126.077 36.5169 126.243 36.6829 126.41 36.8489C126.908 37.1808 127.406 37.6788 127.738 38.0108L130.064 40.3346C130.728 40.9985 131.061 41.4965 131.393 41.8284L128.071 41.6624C126.41 41.6624 125.081 41.8284 124.084 42.1604C124.25 41.9944 124.416 41.6624 124.416 41.3305C124.748 40.0026 124.084 38.8407 123.42 38.0108ZM132.888 41.9944C132.722 41.6624 132.389 41.1645 131.891 40.5005C132.057 40.5005 132.223 40.6665 132.223 40.6665C133.054 41.1645 133.552 41.6624 134.051 42.3264C134.383 42.8243 134.549 43.3223 134.881 43.8203C134.881 43.9862 135.047 44.1522 135.047 44.3182C134.881 44.6502 134.549 44.8162 134.051 44.8162C133.884 44.8162 133.718 44.8162 133.552 44.6502C133.054 44.3182 132.722 43.6543 133.22 42.9903C133.22 42.9903 133.22 42.8243 133.386 42.8243C133.22 42.6584 133.054 42.4924 132.888 41.9944ZM117.274 12.283C117.938 12.7809 118.602 13.2789 119.267 13.7768C120.263 14.6068 121.26 15.4367 122.257 16.2666C122.589 16.4326 123.586 17.2625 124.416 17.9265C124.25 18.0925 123.918 18.4244 123.752 18.7564C123.087 19.5863 122.755 20.4163 122.257 21.2462L120.43 19.4203C120.596 18.9224 120.762 18.2584 120.596 17.7605C120.596 17.7605 120.596 17.7605 120.596 17.5945L119.599 18.0925C119.599 18.9224 119.267 19.5863 118.602 19.9183C118.436 20.0843 118.27 20.0843 117.938 20.0843V19.2544C117.606 19.2544 117.107 18.9224 117.107 18.4244C117.107 17.9265 117.44 17.5945 117.938 17.4285V16.2666C117.107 16.4326 116.443 16.9306 116.277 17.5945H115.114C115.114 16.7646 115.446 15.9346 116.277 15.7687V14.7727C115.612 14.9387 115.114 15.2707 114.782 15.6027C114.616 15.6027 114.616 15.7687 114.616 15.9346H113.785C113.785 15.1047 114.117 14.4408 114.948 14.1088V12.9469C114.616 13.1129 114.284 13.2789 113.951 13.6108H113.121C113.121 13.1129 113.453 12.6149 113.785 12.283C114.117 11.951 114.616 11.785 115.114 11.785C115.28 11.785 115.446 11.785 115.612 11.785C115.779 11.785 115.945 11.785 116.277 11.785C116.609 11.951 116.941 12.117 117.274 12.283ZM115.114 5.64352C115.779 4.6476 116.111 3.15373 116.111 1.82584H118.602C118.602 1.99183 118.602 2.15782 118.602 2.3238C118.602 4.97958 116.443 7.30338 113.785 7.30338H113.619C114.117 6.97141 114.782 6.47345 115.114 5.64352ZM103.653 5.64352C104.317 4.6476 104.649 3.15373 104.649 1.82584H107.971C107.971 3.31972 108.304 4.6476 108.968 5.64352C109.466 6.30746 109.965 6.97141 110.463 7.30338H108.137C107.805 6.63943 107.307 5.8095 106.975 4.97958H105.812C105.48 5.97549 104.981 6.80542 104.483 7.30338H102.158C102.822 6.97141 103.32 6.47345 103.653 5.64352ZM92.0248 5.64352C92.6893 4.6476 93.0215 3.15373 93.0215 1.82584H96.6759C96.6759 3.31972 97.0081 4.6476 97.6725 5.64352C98.1709 6.30746 98.6692 6.97141 99.1675 7.30338H96.6759C96.1776 6.63943 95.6792 5.8095 95.347 4.97958H94.1842C93.852 5.97549 93.3537 6.80542 92.8554 7.30338H90.5298C91.1943 6.97141 91.6926 6.47345 92.0248 5.64352ZM80.7293 5.64352C81.3938 4.6476 81.726 3.15373 81.726 1.82584H85.0482C85.0482 3.31972 85.3804 4.6476 86.0449 5.64352C86.5432 6.30746 87.0415 6.97141 87.5398 7.30338H85.2143C84.716 6.63943 84.2177 5.8095 83.8854 4.97958H82.7227C82.3904 5.8095 81.8921 6.63943 81.3938 7.30338H79.2344C79.7327 6.97141 80.3971 6.47345 80.7293 5.64352ZM71.095 2.15782C71.095 1.99183 71.095 1.82584 71.095 1.65986H73.7527C73.7527 3.15373 74.085 4.48162 74.7494 5.47753C75.2477 6.14148 75.7461 6.80542 76.2444 7.13739H75.9122C73.4205 7.30338 71.095 4.97958 71.095 2.15782ZM67.2745 16.2666C68.2711 15.4367 69.2678 14.6068 70.2644 13.7768C70.9289 13.2789 71.5933 12.7809 72.2577 12.283C72.59 11.951 73.0883 11.785 73.5866 11.785C73.7527 11.785 73.9188 11.785 74.085 11.785C74.2511 11.785 74.4172 11.785 74.5833 11.785C75.0816 11.785 75.4138 11.951 75.9122 12.283C76.2444 12.6149 76.4105 13.1129 76.4105 13.6108H75.5799C75.2477 13.2789 74.7494 13.1129 74.4172 12.9469V13.9428C75.2477 14.1088 75.5799 14.9387 75.5799 15.7687H74.7494C74.7494 15.6027 74.5833 15.6027 74.5833 15.4367C74.2511 15.2707 73.7527 14.9387 73.0883 14.7727V15.7687C73.9188 16.1006 74.2511 16.7646 74.2511 17.5945H73.0883C72.7561 16.9306 72.2577 16.4326 71.4272 16.2666V17.2625C71.9255 17.4285 72.2577 17.7605 72.2577 18.2584C72.2577 18.7564 71.7594 19.0884 71.4272 19.0884V19.9183C71.2611 19.9183 70.9289 19.9183 70.7628 19.7523C70.0983 19.4203 69.7661 18.5904 69.7661 17.9265L68.7694 17.4285C68.7694 17.4285 68.7694 17.4285 68.7694 17.5945C68.7694 18.2584 68.7694 18.7564 68.9355 19.2544L67.1083 21.0802C66.7761 20.2503 66.2778 19.4203 65.6134 18.5904C65.4472 18.2584 65.115 18.0925 64.9489 17.7605C65.9456 17.2625 66.9422 16.4326 67.2745 16.2666ZM36.378 65.0665C36.2119 64.0705 36.378 60.4188 36.5441 58.427C36.5441 57.5971 37.2086 56.9331 38.0391 56.7672C39.0358 56.6012 40.1986 56.4352 41.0291 56.2692C42.358 55.9372 43.853 55.4393 44.0191 54.2774C44.3513 53.4474 44.1852 53.2815 44.0191 52.4515C44.0191 51.7876 43.853 51.1236 43.853 50.4597C43.853 50.2937 43.853 50.2937 43.853 50.1277C43.853 49.7958 43.853 49.2978 43.853 48.9658C43.853 48.9658 43.6869 49.1318 43.5207 49.1318C43.1885 49.2978 43.0224 49.4638 42.6902 49.4638C42.358 49.4638 42.0258 49.6298 41.6935 49.6298C41.0291 49.6298 40.3647 49.4638 39.7002 49.1318C38.5375 48.4679 37.873 47.306 38.0391 45.9781C38.0391 43.6543 39.368 41.9944 40.6969 40.5005C41.3613 39.6706 41.8596 39.0067 42.358 38.1767C43.853 35.521 44.1852 32.6992 43.3546 29.5455C43.0224 28.2176 42.1919 27.0557 41.3613 25.7278C41.0291 25.2298 40.6969 24.7319 40.5308 24.2339C40.5308 24.2339 39.8663 24.5659 39.368 24.3999C39.2019 24.3999 39.2019 24.3999 39.0358 24.2339C38.0391 23.57 36.8764 21.0802 37.0425 17.9265C37.0425 15.4367 37.7069 13.4449 38.8697 11.785C38.5375 12.4489 38.3713 13.2789 38.2052 13.9428C38.0391 14.7727 38.0391 15.6027 38.0391 16.4326C38.0391 17.2625 38.2052 18.0925 38.5375 18.7564C38.3713 17.9265 38.3713 17.2625 38.5375 16.4326C38.7036 15.6027 38.8697 14.9387 39.0358 14.2748C39.368 13.6108 39.5341 13.1129 39.8663 12.4489C39.8663 13.7768 39.8663 15.1047 40.1986 16.9306C40.3647 18.0925 40.863 19.0884 41.3613 20.0843C41.6935 20.9142 42.0258 21.5782 42.1919 22.2421C42.358 22.906 42.1919 23.238 41.8597 23.736C41.8597 23.902 42.0258 23.902 42.0258 24.0679C42.1919 24.3999 42.358 24.7319 42.5241 24.8979C43.3546 26.2258 44.3513 27.5537 44.6835 29.0475C45.5141 32.3672 45.1818 35.687 43.5207 38.5087C43.0224 39.5046 42.358 40.1686 41.6935 40.9985C40.5308 42.4924 39.368 43.8203 39.368 45.8121C39.368 46.642 39.7002 47.472 40.5308 47.8039C41.3613 48.3019 42.1919 48.3019 43.0224 47.9699C43.6869 47.6379 44.1852 47.14 44.5174 46.3101C44.5174 46.3101 44.5174 46.31 44.5174 46.1441C44.8496 44.9822 45.348 43.9862 45.8463 42.8243C47.3413 39.6706 49.3346 36.8489 50.4974 33.5291C51.494 30.7074 50.9957 27.2217 50.9957 27.2217C49.8329 27.7196 48.3379 27.7196 48.3379 27.7196C48.3379 24.2339 40.863 16.1006 45.348 6.14148C45.6802 6.63943 46.0124 7.13739 46.6768 7.80133L47.3413 8.29929V6.80542C44.8496 4.31563 46.0124 1.99183 47.0091 1.1619C47.6735 1.32789 48.504 2.15782 49.0024 2.98775L49.999 2.65577C49.6668 2.15782 49.5007 1.82584 49.1685 1.49387C49.3346 1.49387 49.3346 1.32789 49.5007 1.32789H49.6668C51.1618 1.32789 56.8095 2.65577 57.474 2.98775L57.9723 4.48162C59.4673 4.97958 60.9623 5.8095 61.9589 6.30746C61.7928 6.80542 61.2945 7.80133 60.464 7.63535C60.464 7.63535 61.2945 8.13331 61.1284 9.12922C60.7962 9.79316 60.4639 10.4571 59.9656 10.9551L58.969 9.95915C57.8062 8.96324 56.9756 8.63126 56.1451 8.63126C55.1484 8.63126 54.3179 9.29521 53.9857 10.1251C53.4873 11.287 53.4873 12.283 53.6534 12.7809C53.8196 13.2789 54.1518 13.6108 54.9823 13.6108C55.1484 13.6108 55.3145 13.6108 55.4807 13.6108C57.1418 13.6108 59.4673 12.9469 59.4673 12.9469C59.7995 14.7727 59.9656 15.1047 57.3079 15.1047C56.6434 15.1047 55.979 15.1047 54.9823 15.1047L57.6401 16.2666C57.9723 16.2666 58.1384 16.2666 58.4706 16.2666C60.4639 16.2666 61.9589 16.9306 63.2878 17.7605C63.62 17.9265 63.7861 18.2584 64.1184 18.4244C65.115 19.4203 65.7795 20.5822 66.2778 21.9101C66.4439 22.2421 66.61 22.5741 66.61 23.072C67.1083 25.0639 67.1083 27.0557 66.9422 28.5496C66.7761 28.2176 66.61 28.0516 66.2778 27.8856L66.1117 27.7196C65.2811 26.8897 63.9523 25.5618 62.2912 24.7319C61.6267 24.2339 61.1284 23.736 60.6301 23.072C59.4673 21.7441 58.4706 20.4163 57.6401 18.9224C58.1384 20.5822 58.969 22.2421 59.9656 23.736C60.2978 24.3999 60.7962 24.8979 61.1284 25.3958C61.4606 25.5618 61.7928 25.7278 62.125 25.8938C63.4539 26.7237 64.7828 27.8856 65.4472 28.5496C65.9456 28.8815 66.2778 29.3795 66.4439 29.8775C66.7761 30.2094 66.9422 30.5414 67.1083 31.0394C67.2745 31.3713 67.4406 31.5373 67.6067 31.8693C68.4372 33.0312 69.2678 34.3591 69.9322 34.3591C70.0983 34.3591 70.2644 34.1931 70.4305 33.8611C70.7628 32.3672 71.7594 31.7033 72.7561 31.7033C73.2544 31.7033 73.7527 31.8693 74.2511 32.2013L73.2544 33.1972C73.9188 33.8611 73.2544 35.023 72.59 35.355C71.9255 35.687 72.2577 36.3509 72.7561 36.3509C72.9222 36.3509 73.0883 36.3509 73.2544 36.1849C73.7527 35.8529 74.2511 35.521 74.7494 35.521C75.9122 35.521 77.0749 36.3509 76.9088 38.3427L76.0783 37.8448C75.7461 38.8407 75.0816 39.1727 74.4172 39.1727C74.085 39.1727 73.9188 39.1727 73.5866 38.8407C73.0883 38.6747 72.59 38.1767 72.2577 38.1767C72.0916 38.1767 72.0916 38.1767 71.9255 38.3427C71.5933 38.6747 71.9255 39.0067 72.9222 39.5046C74.5833 40.3346 74.9155 42.8243 72.4239 43.3223L72.0916 41.8284C71.9255 41.8284 71.9255 41.8284 71.7594 41.8284C71.095 41.8284 70.5966 41.1645 70.4305 40.6665C70.2644 40.0026 70.4305 39.5046 70.2644 39.1727C70.2644 38.8407 69.9322 38.6747 69.7661 38.6747C69.4339 38.6747 69.1017 38.8407 69.1017 39.3386C69.1017 40.0026 69.1017 40.9985 67.7728 41.1645L67.4406 42.4924C66.2778 41.9944 65.115 40.6665 67.2745 38.3427C67.2745 37.1808 66.1117 36.5169 64.2845 35.521C63.9523 35.355 63.62 35.189 63.2878 35.023C63.1217 34.857 62.9556 34.857 62.7895 34.691C62.4573 34.5251 61.1284 33.5291 59.9656 32.5332L58.969 33.0312C59.1351 33.1972 59.4673 33.3632 59.6334 33.6951C60.6301 34.5251 61.7928 35.355 62.2912 35.687C62.2912 35.687 62.4573 35.8529 62.6234 35.8529C61.4606 36.8489 60.2978 37.8448 59.1351 38.5087C58.6367 38.8407 58.3045 39.0067 57.8062 39.3386C57.3079 39.6706 56.9756 39.8366 56.6434 40.0026C55.8129 40.5005 54.9823 41.1645 54.484 41.8284C54.1518 42.3264 53.8196 42.8243 53.6534 43.1563C53.4873 43.6543 53.3212 44.1522 53.3212 44.6502C53.3212 44.8162 53.3212 44.9822 53.3212 45.1482C53.3212 45.6461 53.3212 45.9781 53.3212 46.476C53.3212 46.974 53.4873 47.306 53.4873 47.8039C53.4873 48.4679 53.6534 49.1318 53.6534 49.7958C53.6534 50.6257 53.8196 51.4556 53.8196 52.1196C53.8196 54.4434 53.4873 56.2692 51.8262 57.9291C50.6635 59.091 49.0024 59.4229 47.3413 59.5889C46.5107 59.5889 44.1852 59.9209 42.5241 60.2529C41.5274 60.4188 40.863 61.0828 40.863 62.0787C40.863 63.4066 40.863 65.0665 41.1952 65.5644L43.3546 65.2324C43.853 64.4025 45.0157 63.9046 46.3446 63.9046C47.3413 63.9046 48.1718 64.2365 48.6702 65.2324C48.8363 65.5644 49.0024 65.8964 49.0024 66.2284C49.0024 66.3943 49.0024 66.3943 49.0024 66.5603L48.3379 66.2284L48.1718 65.8964C48.1718 66.0624 48.1718 66.0624 48.1718 66.2284C48.0057 67.2243 47.5074 67.5562 46.8429 67.5562C46.5107 67.5562 46.3446 67.5562 46.0124 67.3903C46.0124 67.3903 46.0124 67.3903 45.8463 67.3903C45.348 67.2243 44.8496 66.8923 44.5174 66.8923C44.3513 66.8923 44.1852 66.8923 44.0191 67.2243C43.853 67.5562 44.0191 67.7222 44.3513 68.0542C44.5174 68.0542 44.5174 68.2202 44.6835 68.2202C46.3446 68.8841 46.8429 70.544 45.348 72.2038L44.1852 71.2079C44.0191 71.3739 43.853 71.3739 43.6869 71.3739C43.1885 71.3739 42.5241 70.876 42.5241 70.544C42.358 70.046 42.5241 69.2161 42.6902 68.8841C42.6902 68.7181 42.6902 68.5522 42.6902 68.5522C42.6902 68.2202 42.5241 68.0542 42.1919 67.8882C42.0258 67.8882 42.0258 67.8882 41.8597 67.8882C41.6935 67.8882 41.6935 67.8882 41.5274 67.8882C41.3613 67.8882 41.3613 68.0542 41.1952 68.0542C41.0291 68.2202 41.0291 68.5522 41.0291 68.7181C41.0291 68.8841 41.0291 69.0501 41.0291 69.2161C41.0291 69.3821 40.863 69.7141 40.6969 69.88C40.5308 69.88 40.5308 70.046 40.3647 70.046C40.3647 70.046 40.0324 70.212 40.0324 70.378L39.8663 72.0379C38.7036 71.7059 37.3747 71.2079 37.7069 69.3821C37.7069 69.0501 37.873 68.7181 38.0391 68.3862C38.0391 68.2202 38.2052 68.0542 38.2052 67.8882C37.2086 67.0583 36.5441 66.2284 36.378 65.0665ZM56.1451 11.619C56.8095 11.619 57.474 11.619 58.1384 11.951C58.8029 11.453 58.969 10.9551 59.3012 10.9551C59.4673 10.9551 59.6334 11.453 59.4673 11.951C59.4673 11.951 58.4706 12.117 57.8062 12.283C57.1418 12.4489 56.4773 12.4489 55.8129 12.4489C55.6468 12.4489 55.4807 12.4489 55.4807 12.4489C55.1484 12.4489 54.9823 12.283 54.9823 12.283C54.9823 12.117 54.9823 12.117 54.9823 11.785C55.3145 11.619 55.6468 11.619 56.1451 11.619ZM54.9823 10.7891C54.9823 10.6231 55.1484 10.4571 55.1484 10.2911C55.1484 10.1251 55.4807 9.46119 56.3112 9.46119C56.8095 9.46119 57.474 9.62718 58.4706 10.6231L58.8029 11.1211C57.9723 10.7891 57.1418 10.6231 56.3112 10.6231C55.8129 10.6231 55.3145 10.6231 54.9823 10.7891ZM67.7728 57.7631L69.6 57.0991L70.4305 56.7672L70.9289 56.6012C71.7594 55.4393 73.0883 54.6093 74.2511 54.6093C75.4138 54.6093 76.5766 55.4393 77.241 57.4311L75.9122 57.0991C75.9122 58.427 75.4138 58.759 74.9155 58.759C74.7494 58.759 74.5833 58.759 74.4172 58.759C74.2511 58.759 74.085 58.759 73.9188 58.593C73.2544 58.427 72.9222 58.261 72.59 58.261C72.2577 58.261 72.0916 58.427 71.9255 58.759C71.7594 59.2569 72.2577 59.5889 72.7561 59.7549C74.2511 60.0869 75.0816 61.0828 74.7494 62.5767C74.7494 62.9086 74.5833 63.2406 74.4172 63.5726C74.4172 63.7386 74.2511 63.9045 74.085 64.0705L72.7561 63.0746C72.59 63.2406 72.2577 63.4066 72.0916 63.4066C71.5933 63.4066 70.9289 63.0746 70.7628 62.5767C70.7628 62.5767 70.7628 62.5767 70.7628 62.4107C70.5966 62.0787 70.5966 61.7467 70.5966 61.4148C70.5966 61.2488 70.5966 61.0828 70.5966 60.9168C70.5966 60.7508 70.5966 60.5848 70.5966 60.4189C70.5966 60.0869 70.2644 59.9209 70.0983 59.9209C70.0983 59.9209 69.9322 59.9209 69.7661 59.9209C69.6 59.9209 69.4339 59.9209 69.2678 60.0869C68.9356 60.4188 68.9355 60.7508 68.9355 61.0828C68.9355 61.4148 69.1017 61.9127 68.7694 62.2447C68.7694 62.4107 68.6033 62.4107 68.4372 62.5767L68.105 62.9086L68.2711 64.7345C67.2744 64.7345 66.2778 64.4025 65.7795 63.5726C65.6134 63.4066 65.6134 63.2406 65.6134 62.9086C65.4472 62.2447 65.2811 61.4148 65.2811 60.4189C64.7828 60.2529 64.4506 60.0869 64.1184 59.7549C63.7861 59.4229 63.4539 58.925 63.2878 58.427C62.7895 56.9331 62.2912 53.9454 62.9556 50.7917C62.9556 50.7917 56.3112 49.9617 54.8162 49.2978C54.6501 48.3019 54.6501 47.306 54.484 46.3101C54.484 46.1441 54.484 45.9781 54.484 45.8121C54.8162 45.9781 55.1484 46.1441 55.4807 46.1441C55.8129 46.1441 56.1451 46.1441 56.4773 45.9781C56.9756 45.6461 57.474 45.1481 57.6401 44.4842C57.6401 43.9862 57.6401 43.6543 57.474 43.3223C57.9723 43.3223 58.4706 43.1563 58.969 43.1563C59.7995 42.9903 60.6301 42.9903 61.4606 42.9903C68.6033 42.9903 69.2678 46.974 69.2678 46.974C70.4305 51.1236 67.1083 52.9495 67.1083 52.9495C67.1083 52.9495 66.1117 56.2692 67.7728 57.7631ZM50.3312 63.2406C50.3312 63.4066 50.3313 64.2365 50.9957 65.2324C50.6635 65.2324 50.3313 65.0665 49.999 65.0665C49.5007 63.5726 48.1718 62.7426 46.5107 62.7426C45.1818 62.7426 43.853 63.2406 43.0224 64.2365L42.0258 64.4025C42.0258 63.9045 41.8596 63.2406 42.0258 62.0787C42.0258 61.5808 42.358 61.2488 42.8563 61.2488C45.348 60.9168 47.0091 60.5848 47.6735 60.5848C49.3346 60.4188 51.3279 60.0869 52.8229 58.759C53.6534 57.9291 54.3179 56.9331 54.6501 55.7712C54.9823 54.7753 55.1484 53.7794 55.1484 52.2855C55.1484 51.7876 55.1484 51.1236 55.1484 50.6257C55.4807 50.6257 55.6468 50.7917 55.979 50.9577C56.6434 51.1236 57.6401 51.2896 58.969 51.4556C60.1317 51.6216 61.1284 51.7876 61.9589 51.9536C61.6267 54.9413 61.9589 57.4311 62.4573 59.091C62.7895 60.0869 63.4539 60.9168 64.4506 61.4148C64.4506 62.4107 64.7828 63.5726 64.7828 63.5726C63.9523 63.2406 62.9556 62.7426 61.6267 62.7426C61.1284 62.7426 60.4639 62.7427 59.9656 62.9086C59.6334 63.0746 59.3012 63.0746 58.969 63.2406C57.8062 63.5726 56.8095 63.9046 55.6468 63.9046C54.484 63.9046 53.3212 63.5726 51.9923 62.7426L50.3312 61.5807V63.2406ZM56.3112 43.1563C56.6434 43.6543 56.4773 44.4842 55.979 44.8162C55.8129 44.8162 55.6468 44.9822 55.4807 44.9822C55.1484 44.9822 54.8162 44.8162 54.6501 44.4842C54.6501 44.3182 54.8162 44.1522 54.8162 43.9862C54.9823 43.4883 55.3145 42.9903 55.6468 42.4924C56.1451 41.8284 56.6434 41.3305 57.474 40.8325C57.6401 40.8325 57.8062 40.6665 57.8062 40.6665C57.3079 41.3305 56.9756 41.8284 56.8095 42.1604C56.4773 42.4924 56.4773 42.8243 56.3112 43.1563ZM63.1217 36.6829C63.2878 36.5169 63.4539 36.3509 63.62 36.1849C63.7861 36.1849 63.9523 36.3509 63.9523 36.3509C64.9489 36.8489 65.9456 37.5128 66.1117 37.8448C65.4472 38.6747 64.7828 40.0026 65.115 41.1645C65.115 41.4965 65.2811 41.6624 65.4472 41.9944C64.4506 41.6624 63.1217 41.4965 61.4606 41.4965L58.1384 41.6624C58.4706 41.3305 58.8028 40.8325 59.4673 40.1686L61.7928 37.8448C62.125 37.5128 62.6234 37.1808 63.1217 36.6829ZM48.1718 72.2038C46.5107 74.0297 44.1852 74.8596 41.8597 74.8596C37.7069 74.8596 33.5542 72.3698 32.0592 67.8882C32.0592 67.8882 34.0525 68.5522 36.7102 68.8841C36.5441 69.5481 36.7102 70.212 36.8764 70.876C37.3747 72.0379 38.7036 72.5358 39.5341 72.7018L40.6969 73.0338L40.863 71.8719L41.0291 70.71C41.1952 70.71 41.1952 70.544 41.3613 70.544C41.3613 70.71 41.3613 70.71 41.3613 70.876C41.6935 71.7059 42.5241 72.5358 43.5207 72.5358C43.6869 72.5358 43.6869 72.5358 43.853 72.5358L44.5174 73.1998L45.348 73.8637L46.0124 73.0338C47.0091 72.0379 47.3413 70.71 47.1752 69.7141C47.1752 69.3821 47.0091 69.0501 46.6768 68.7181C47.3413 68.7181 47.8396 68.5522 48.3379 68.0542C48.504 67.8882 48.6702 67.7222 48.6702 67.5562L50.3312 68.2202L50.1651 66.5603V66.3943C50.8296 66.5603 51.8262 66.7263 52.8229 67.2243C52.989 67.2243 53.1551 67.3903 53.3212 67.3903H53.4873C53.1551 67.5562 52.8229 67.7222 52.4907 68.0542C50.8296 69.0501 49.8329 70.212 49.3346 71.3739C49.0024 71.3739 48.6702 71.8719 48.1718 72.2038ZM60.6301 68.5522C59.4673 69.5481 57.8062 69.7141 56.4773 69.88C52.1585 70.212 50.3312 74.1957 50.3312 74.1957C49.999 73.3657 49.999 72.3698 50.3312 71.7059C50.8296 70.544 51.9923 69.5481 53.3212 68.7181C55.4807 67.3903 57.8062 66.5603 57.8062 66.5603C57.3079 66.5603 56.9756 66.5603 56.6434 66.5603C55.8129 66.5603 54.9823 66.3943 54.3179 66.2284C53.9857 66.0624 53.6534 66.0624 53.3212 65.8964C51.3279 64.9005 51.3279 63.0746 51.3279 63.0746C52.8229 64.0705 54.3179 64.4025 55.4807 64.4025C57.1418 64.4025 58.6367 63.9046 60.1317 63.4066C60.6301 63.2406 60.9623 63.2406 61.4606 63.2406C62.7895 63.2406 63.7861 63.7386 64.4506 64.0705C63.62 64.5685 62.9556 65.2324 62.4573 65.8964C62.2912 66.2284 62.125 66.5603 61.9589 66.8923C61.2945 67.5562 61.1284 68.2202 60.6301 68.5522ZM67.7728 67.0583C66.2778 67.3903 64.7828 68.2202 64.2845 69.88C63.9523 70.71 64.1184 71.8719 64.1184 72.7018C64.1184 72.7018 60.9623 70.876 62.6234 67.3903C62.7895 67.0583 62.9556 66.7263 63.1217 66.5603C63.4539 65.8964 63.9523 65.5644 64.4506 65.2324C64.6167 65.0665 64.7828 65.0664 64.9489 64.9005L65.4472 64.7345C66.2778 65.3984 67.2745 65.5644 68.105 65.5644H69.2678L69.1017 64.4025L68.9355 63.0746C69.1017 62.9086 69.2678 62.7427 69.2678 62.5767C69.2678 62.7427 69.4339 62.9086 69.4339 63.0746C69.7661 63.7386 70.5966 64.4025 71.5933 64.4025C71.9255 64.4025 72.0916 64.4025 72.2577 64.2365L72.7561 64.5685C72.7561 64.5685 72.59 64.5685 72.59 64.7345C71.4272 66.3943 70.0983 66.5603 67.7728 67.0583ZM114.948 72.8678C114.948 72.8678 115.779 68.8841 113.951 67.5562C110.961 65.5644 109.3 67.2243 105.812 64.7345C105.812 64.7345 105.646 64.7345 105.646 64.5685C103.985 62.9086 102.324 61.9127 100.663 61.4148C99.4998 61.5807 98.337 61.7467 97.0081 61.7467C97.3403 61.7467 97.5064 61.7467 97.8387 61.7467C98.337 61.7467 98.8353 61.9127 99.3336 62.0787C100.164 62.2447 100.995 62.5767 101.825 62.9086C102.822 63.4066 103.985 64.2365 104.815 65.2324L104.981 65.3984C107.141 67.7222 106.476 70.046 106.476 70.046C106.476 70.046 103.819 66.3943 99.6659 66.3943C97.6725 66.3943 96.0114 67.0583 95.1809 67.5562L94.5165 67.8882L93.852 67.5562C93.0215 67.0583 91.3604 66.3943 89.3671 66.3943C85.3804 66.3943 82.5566 70.046 82.5566 70.046C82.5566 70.046 82.0582 67.7222 84.0515 65.3984L84.2177 65.2324C85.2143 64.2365 86.211 63.4066 87.2076 62.9086C88.0382 62.4107 88.8687 62.2447 89.6993 62.0787C90.1976 61.9127 90.6959 61.9127 91.1943 61.7467C91.5265 61.7467 91.6926 61.7467 92.0248 61.7467C90.6959 61.7467 89.3671 61.5807 88.3704 61.4148C86.7093 61.9127 85.0482 62.9086 83.3871 64.5685C83.3871 64.5685 83.221 64.5685 83.221 64.7345C79.7327 67.3903 78.2377 65.5644 75.0816 67.5562C73.0883 68.8841 74.085 72.8678 74.085 72.8678C74.085 72.8678 70.0983 69.88 73.7527 65.7304C74.5833 64.9005 75.4138 64.2365 76.0783 63.7386C76.5766 63.4066 77.0749 63.0746 77.0749 63.0746C77.0749 63.0746 76.7427 63.0746 76.2444 62.9086C76.0783 62.9086 75.7461 62.7426 75.4138 62.7426H75.2477C75.4138 62.0787 75.4138 61.4148 75.0816 60.7508C74.9155 60.4188 74.7494 60.2529 74.5833 60.0869C76.0783 60.5848 78.0716 60.9168 80.231 60.9168C81.0616 60.9168 81.8921 60.7508 82.8888 60.5848C83.221 60.5848 83.5532 60.5848 83.8854 60.5848C84.0515 60.5848 84.0515 60.5848 84.2177 60.5848C83.3871 60.2529 82.5566 60.0869 81.8921 59.7549C81.3938 59.7549 80.7293 59.9209 80.231 59.9209C78.4038 59.9209 76.9088 59.7549 75.5799 59.4229C75.9122 59.091 75.9122 58.925 76.0783 58.593H76.2444L77.9055 58.925L77.4071 57.2651C76.5766 54.1114 74.4172 53.7794 73.5866 53.7794C72.2577 53.7794 70.5966 54.6093 69.6 55.9372L68.105 56.6012C67.6067 55.7712 67.6067 54.1114 67.7728 53.1155C68.105 52.7835 68.7694 52.2855 69.2678 51.6216C70.0983 50.4597 70.7628 48.7998 70.0983 46.1441C70.0983 45.8121 69.6 44.4842 68.2711 43.3223L68.6033 42.4924L68.7694 41.8284C69.1017 41.6624 69.4339 41.4965 69.6 41.3305C69.9322 41.9944 70.4305 42.4924 71.2611 42.6584L71.4272 43.3223L71.5933 44.4842L72.7561 44.3182C74.2511 43.9863 75.2477 43.1563 75.4138 41.8284C75.5799 41.3305 75.4138 40.6665 75.0816 40.1686C75.5799 40.0026 76.2444 39.6706 76.5766 39.1727L77.9055 40.0026L78.0716 38.3427C78.2377 36.8489 77.5733 35.8529 77.241 35.355C76.5766 34.691 75.746 34.3591 74.9155 34.3591C74.7494 34.3591 74.7494 34.3591 74.5833 34.3591C74.5833 34.3591 74.5833 34.1931 74.5833 34.0271C74.5833 33.6951 74.5833 33.5291 74.5833 33.1972L75.0816 32.6992L76.0783 31.7033L74.7494 30.8734C74.085 30.5414 73.4205 30.3754 72.7561 30.3754C71.5933 30.3754 70.2644 30.8734 69.7661 32.5332C69.4339 32.2013 69.1017 31.7033 68.7694 31.2053C68.6033 30.8734 68.4372 30.7074 68.2711 30.3754C68.105 30.0434 67.9389 29.7115 67.7728 29.5455C68.2711 27.5536 68.2711 24.7319 67.4406 22.0761L69.4339 20.0843C69.6 20.2503 69.9322 20.5822 70.0983 20.5822C70.4305 20.7482 70.7628 20.9142 71.2611 20.9142H72.4239V19.5863C72.4239 19.5863 72.4239 19.5863 72.59 19.4203C72.9222 19.0884 73.0883 18.7564 73.0883 18.4244H74.085H75.0816V17.4285C75.0816 17.0965 75.0816 16.7646 75.0816 16.5986H75.4138H76.4105V15.6027C76.4105 15.1047 76.4105 14.7727 76.2444 14.2748H77.241V13.2789C77.241 12.4489 76.7427 11.619 76.0783 11.1211C75.4138 10.6231 74.7494 10.4571 74.2511 10.4571V8.29929H114.782V10.7891C114.284 10.7891 113.453 10.9551 112.955 11.453C112.29 11.951 111.792 12.7809 111.792 13.6108V14.6068H112.955C112.955 14.9387 112.789 15.4367 112.789 15.7687V16.7646H113.785H114.117C114.117 17.0965 113.951 17.2625 114.117 17.5945V18.5904H115.114H116.111C116.111 18.9224 116.443 19.4203 116.609 19.5863C116.609 19.5863 116.775 19.5863 116.775 19.7523V21.0802H117.772C118.104 21.0802 118.436 20.9142 118.935 20.7482C119.267 20.5822 119.433 20.4163 119.599 20.2503L121.592 22.2421C120.762 24.8979 120.762 27.7196 121.26 29.7115C121.094 30.0434 120.928 30.2094 120.762 30.5414C120.596 30.7074 120.43 31.0394 120.263 31.3713C119.931 32.0353 119.599 32.3672 119.267 32.6992C118.602 31.2053 117.274 30.5414 116.111 30.5414C115.446 30.5414 114.782 30.7074 114.117 31.2053L112.789 31.8693L113.785 32.8652L114.284 33.3632C114.284 33.6951 114.284 33.8611 114.284 34.1931C114.284 34.1931 114.284 34.3591 114.284 34.5251C114.117 34.5251 114.117 34.5251 113.951 34.5251C112.955 34.5251 112.124 34.857 111.626 35.521C111.127 36.0189 110.629 37.0148 110.795 38.5087L110.961 40.1686L112.456 39.3386C112.789 39.8366 113.287 40.1686 113.951 40.3346C113.785 40.8325 113.619 41.4965 113.619 41.9944C113.785 43.3223 114.782 44.1522 116.277 44.4842L117.44 44.6502L117.606 43.4883L117.772 42.8243C118.436 42.6584 119.101 41.9944 119.433 41.4965C119.599 41.6624 119.931 41.8284 120.263 41.9944L120.43 42.6584V42.8243L120.762 43.6543C119.433 44.8162 119.101 46.1441 118.935 46.476C118.27 48.9658 119.101 50.7917 119.765 51.9536C120.263 52.6175 120.762 53.1155 121.26 53.4474C121.426 54.4434 121.426 55.9372 120.928 56.9331L118.768 56.2692C117.772 54.9413 116.277 54.1114 114.782 54.1114C113.951 54.1114 111.792 54.4434 110.961 57.5971L110.463 59.2569L112.124 58.925H112.29C112.456 59.2569 112.456 59.5889 112.789 59.7549C111.46 60.0869 109.799 60.2529 108.137 60.2529C107.639 60.2529 106.975 60.2529 106.476 60.0869C105.812 60.4188 104.981 60.7508 104.151 60.9168C104.317 60.9168 104.317 60.9168 104.483 60.9168C104.815 60.9168 105.147 60.9168 105.48 60.9168C106.476 61.0828 107.307 61.2488 108.137 61.2488C110.297 61.2488 112.29 60.9168 113.785 60.4189C113.619 60.5848 113.453 60.9168 113.287 61.0828C113.121 61.7467 112.955 62.4107 113.121 63.0746H112.955C112.622 63.0746 112.456 63.2406 112.124 63.2406C111.626 63.2406 111.46 63.4066 111.46 63.4066C111.46 63.4066 111.792 63.5726 112.456 64.0705C113.121 64.5685 114.117 65.2324 114.782 66.0624C118.935 69.88 114.948 72.8678 114.948 72.8678ZM125.247 72.7018C125.247 71.7059 125.413 70.71 125.081 69.88C124.582 68.2202 123.253 67.3903 121.592 67.0583C119.433 66.5603 118.104 66.3943 116.277 64.7345C116.277 64.7345 116.111 64.7345 116.111 64.5685L116.609 64.2365C116.775 64.2365 117.107 64.4025 117.274 64.4025C118.27 64.4025 119.101 63.7386 119.433 63.0746C119.599 62.9086 119.599 62.7427 119.599 62.5767C119.765 62.7427 119.931 62.9086 119.931 63.0746L119.765 64.4025L119.599 65.5644H120.762C121.592 65.5644 122.589 65.3984 123.42 64.7345L123.918 64.9005C124.084 65.0664 124.25 65.0665 124.416 65.2324C124.915 65.5644 125.413 66.0624 125.745 66.5603C125.911 66.8923 126.077 67.2243 126.243 67.3903C128.403 71.0419 125.247 72.7018 125.247 72.7018ZM139.366 74.1957C139.366 74.1957 137.539 70.212 133.22 69.88C131.725 69.7141 130.23 69.5481 129.067 68.5522C128.569 68.0542 128.237 67.5562 127.738 66.8923C127.572 66.5603 127.406 66.2284 127.24 65.8964C126.742 65.0665 126.077 64.5685 125.247 64.0705C125.911 63.7386 126.908 63.2406 128.237 63.2406C128.735 63.2406 129.067 63.2406 129.566 63.4066C131.061 63.9046 132.556 64.4025 134.217 64.4025C135.546 64.4025 136.874 64.0705 138.369 63.0746C138.369 63.0746 138.203 64.9005 136.376 65.8964C136.044 66.0624 135.712 66.2284 135.379 66.2284C134.715 66.3943 134.051 66.5603 133.054 66.5603C132.722 66.5603 132.389 66.5603 131.891 66.5603C131.891 66.5603 134.217 67.3903 136.376 68.7181C137.705 69.5481 138.868 70.544 139.366 71.7059C139.698 72.3698 139.698 73.1998 139.366 74.1957ZM147.672 74.8596C145.346 74.8596 143.021 74.0297 141.359 72.2038C140.861 71.7059 140.529 71.3739 140.197 71.0419C139.698 69.88 138.536 68.8841 137.041 67.7222C136.708 67.5562 136.376 67.3903 136.044 67.0583C136.21 67.0583 136.21 67.0583 136.21 67.0583C136.376 67.0583 136.542 66.8923 136.708 66.8923C137.871 66.3943 138.702 66.2284 139.366 66.0624V66.2284L139.2 67.8882L140.861 67.2243C141.027 67.3903 141.027 67.5562 141.193 67.7222C141.692 68.2202 142.19 68.3862 142.688 68.3862C142.522 68.7181 142.356 69.0501 142.19 69.3821C142.024 70.544 142.356 71.7059 143.353 72.7018L144.017 73.5317L144.848 72.8678L145.512 72.2038C145.678 72.2038 145.678 72.2038 145.844 72.2038C146.841 72.2038 147.838 71.3739 148.004 70.544C148.004 70.378 148.004 70.378 148.17 70.212C148.336 70.212 148.336 70.378 148.502 70.378L148.668 71.5399L148.834 72.7018L149.997 72.3698C150.828 72.2038 152.157 71.7059 152.655 70.544C152.987 70.046 152.987 69.3821 152.821 68.5522C155.479 68.2202 157.472 67.5562 157.472 67.5562C155.977 72.3698 151.824 74.8596 147.672 74.8596ZM57.3079 4.81359C55.8129 5.31155 53.8196 4.81359 53.8196 4.81359C54.9823 5.97549 55.3145 6.63943 55.3145 6.63943C56.9756 6.63943 57.3079 5.64352 57.3079 4.81359ZM132.223 4.81359C132.223 5.8095 132.556 6.80542 134.051 6.63943C134.051 6.63943 134.383 5.97549 135.546 4.81359C135.712 4.81359 133.718 5.14556 132.223 4.81359ZM133.22 25.2298C133.552 24.7319 133.718 24.3999 134.051 23.902C134.549 23.238 134.881 22.4081 135.213 21.5782C135.546 20.7482 135.878 19.9183 136.044 19.0884C136.376 18.2584 136.542 17.4285 136.708 16.5986C136.376 17.4285 136.044 18.0925 135.546 18.9224C135.213 19.7523 134.715 20.4163 134.383 21.0802C133.884 21.7441 133.386 22.4081 132.888 23.072C132.389 23.57 131.891 24.2339 131.393 24.7319C132.057 24.8979 132.556 25.0639 133.22 25.2298ZM54.3179 21.5782C54.6501 22.4081 55.1484 23.238 55.4807 23.902C55.8129 24.3999 55.979 24.7319 56.3112 25.2298C56.8095 25.0639 57.474 24.8979 57.9723 24.8979C57.474 24.3999 56.9756 23.736 56.4773 23.238C55.979 22.5741 55.4807 21.9101 54.9823 21.2462C54.484 20.5822 54.1518 19.7523 53.8196 19.0884C53.4873 18.2584 52.989 17.5945 52.6568 16.7646C52.8229 17.5945 53.1551 18.4244 53.3212 19.2544C53.8196 19.9183 53.9857 20.7482 54.3179 21.5782ZM54.1518 26.3917C52.8229 24.5659 51.6601 22.7401 50.6635 20.7482C50.1651 19.7523 49.6668 18.5904 49.1685 17.4285C48.6702 16.2666 48.3379 15.1047 48.1718 13.9428C48.3379 15.1047 48.504 16.4326 48.8363 17.5945C49.1685 18.7564 49.5007 19.9183 49.999 21.0802C50.4974 22.2421 50.9957 23.404 51.494 24.3999C51.9923 25.2298 52.3246 26.0598 52.8229 27.0557C53.1551 26.8897 53.6534 26.7237 54.1518 26.3917ZM136.874 27.0557C137.373 26.2258 137.871 25.3958 138.203 24.3999C138.702 23.238 139.2 22.0761 139.698 21.0802C140.197 19.9183 140.529 18.7564 140.861 17.5945C141.193 16.4326 141.359 15.1047 141.526 13.9428C141.193 15.1047 140.861 16.2666 140.529 17.4285C140.197 18.5904 139.532 19.7523 139.034 20.7482C138.037 22.7401 136.708 24.5659 135.546 26.3917C136.044 26.7237 136.376 26.8897 136.874 27.0557Z" fill="#CE0000"/>
<path d="M112.29 13.6113H77.5733H77.4072L76.9089 14.6072H112.622L112.29 13.6113ZM116.941 19.7528V31.7038C117.274 31.7038 117.606 31.8698 117.938 32.2017V19.9188L116.941 19.7528ZM117.274 41.8289L116.941 43.3228C116.941 43.3228 116.941 43.3228 116.775 43.3228V45.4806C116.775 48.3024 115.945 50.7922 114.284 53.116C113.951 53.6139 113.453 54.1119 112.955 54.6098L73.7528 14.9392C73.5867 14.9392 73.4206 14.7732 73.0883 14.7732V15.7691C73.9189 16.1011 74.2511 16.7651 74.2511 17.595H73.0883C72.9222 16.931 72.2578 16.4331 71.4272 16.2671V17.263C71.7595 17.429 72.0917 17.761 72.0917 18.2589C72.0917 18.7569 71.7595 19.0889 71.4272 19.0889V32.0358C71.7595 31.7038 72.2578 31.5378 72.7561 31.5378C73.2545 31.5378 73.7528 31.7038 74.085 32.0358L73.0883 33.0317C73.7528 33.6956 73.0883 34.8575 72.4239 35.1895C71.7595 35.5215 72.0917 36.1854 72.59 36.1854C72.7561 36.1854 72.9222 36.1854 73.0883 36.0194C73.5867 35.6874 74.085 35.3555 74.5833 35.3555C75.7461 35.3555 76.9089 36.1854 76.7428 38.1772L75.9122 37.6793C75.58 38.6752 74.9156 39.0072 74.2511 39.0072C73.9189 39.0072 73.7528 39.0072 73.4206 38.6752C73.0883 38.5092 72.59 38.1772 72.2578 38.1772C72.0917 38.1772 72.0917 38.1772 71.9256 38.3432C71.5934 38.6752 71.9256 39.0072 72.9222 39.5051C74.5833 40.335 74.9156 42.6588 72.7561 43.1568H72.4239L72.0917 41.6629C71.9256 41.6629 71.9256 41.6629 71.7595 41.6629C71.5934 41.6629 71.5934 41.6629 71.4272 41.6629V45.3146C71.4272 48.8003 72.59 51.7881 74.5833 54.1119C74.5833 54.1119 74.7494 54.2779 74.7494 54.4438C74.9156 54.6098 74.9156 54.6098 75.0817 54.7758C75.2478 54.9418 75.2478 54.9418 75.4139 55.1078C75.58 55.1078 75.58 55.2738 75.7461 55.2738C75.9122 55.4398 76.0783 55.6057 76.2444 55.9377C77.5733 57.0996 79.0683 58.0955 80.5633 58.7595C80.7294 58.9255 80.8955 58.9255 81.0616 59.0914C83.7194 60.4193 87.5399 61.9132 94.3504 61.9132C101.161 61.9132 104.981 60.4193 107.639 59.0914C107.805 58.9255 107.971 58.9255 108.138 58.7595C109.799 57.9296 111.127 57.0996 112.456 55.9377C112.456 55.9377 112.456 55.7717 112.622 55.7717C112.622 55.7717 112.622 55.7717 112.789 55.6057C112.789 55.6057 112.789 55.6057 112.955 55.4398C112.955 55.4398 113.121 55.4398 113.121 55.2738C113.287 55.2738 113.287 55.1078 113.453 55.1078C115.945 52.618 117.44 49.2983 117.44 45.3146L117.274 41.8289C117.274 41.8289 117.274 41.8289 117.107 41.8289C117.606 41.8289 117.44 41.8289 117.274 41.8289Z" fill="#CE0000"/>
<path d="M11.1294 0.664062H0V76.6856H11.1294V0.664062Z" fill="#FFCC00"/>
</svg>
