<svg width="160" height="77" viewBox="0 0 160 77" fill="none" xmlns="http://www.w3.org/2000/svg">
<path d="M11.13 1H0V76.02H11.13V1Z" fill="white"/>
<path d="M111.742 13.5608H111.525H76.7047H76.5539L76.0682 14.5899H112.01L111.742 13.5608Z" fill="white"/>
<path d="M116.499 19.7021V31.7027C116.867 31.7691 117.219 31.9185 117.521 32.1674V19.9013L116.499 19.6855V19.7021Z" fill="white"/>
<path d="M94.1229 12.4985C95.7694 12.4985 97.1042 11.8371 97.1042 11.0212C97.1042 10.2054 95.7694 9.544 94.1229 9.544C92.4765 9.544 91.1417 10.2054 91.1417 11.0212C91.1417 11.8371 92.4765 12.4985 94.1229 12.4985Z" fill="white"/>
<path d="M85.5981 11.0212L82.2484 9.34482L78.882 11.0212L82.2484 12.6811L85.5981 11.0212Z" fill="white"/>
<path d="M109.364 11.0212L106.014 9.34482L102.648 11.0212L106.014 12.6811L109.364 11.0212Z" fill="white"/>
<path d="M156.98 66.9906C156.98 66.9906 154.987 67.638 152.508 67.9201C153.312 67.2396 153.848 66.2769 154.015 65.1814C154.133 64.3515 154.099 62.0277 153.882 58.3097C153.815 56.9819 152.793 55.8864 151.47 55.7204C150.23 55.5544 149.209 55.3884 148.522 55.2391C147.098 54.9237 146.328 54.4091 146.227 54.044C146.093 53.6456 146.11 53.5958 146.16 53.2307C146.177 53.0647 146.211 52.8655 146.244 52.5999C146.278 52.3012 146.294 52.019 146.345 51.7036C146.395 51.3219 146.428 50.9235 146.462 50.5251C146.462 50.5085 146.462 50.4753 146.462 50.4587C146.78 50.5251 147.115 50.5583 147.433 50.5583C148.321 50.5583 149.209 50.326 149.979 49.8446C151.419 48.9649 152.257 47.4545 152.223 45.778C152.156 43.1223 150.666 41.2633 149.343 39.6367C148.74 38.8897 148.154 38.176 147.735 37.4291C146.378 35.0058 146.06 32.3832 146.797 29.6113C147.098 28.466 147.852 27.3208 148.656 26.1257C148.823 25.8767 148.991 25.6111 149.158 25.3622C149.276 25.3788 149.393 25.3954 149.51 25.3954C150.013 25.3954 150.431 25.2294 150.733 25.0468C152.659 23.8683 153.329 20.0175 153.295 17.8597C153.245 13.345 151.453 10.0917 147.852 7.91738L146.613 7.17045L147.082 8.53151C148.17 11.6686 148.756 13.6106 148.07 16.7643C147.852 17.7767 147.417 18.7394 146.998 19.669C146.345 21.1296 145.708 22.5405 146.261 23.6857C146.127 23.8849 145.993 24.1007 145.859 24.2999C144.938 25.6775 143.983 27.105 143.548 28.798C142.61 32.3832 143.045 35.9353 144.804 39.0723C145.357 40.0682 146.06 40.9313 146.73 41.7612C147.852 43.1555 148.84 44.3506 148.874 45.8942C148.874 46.5416 148.472 46.8901 148.237 47.0395C147.768 47.3217 147.216 47.3383 146.73 47.0893C146.345 46.8901 145.976 46.4918 145.742 46.027C145.373 44.9481 144.904 43.8194 144.268 42.5746C143.698 41.4459 143.079 40.3338 142.476 39.2549C141.37 37.2631 140.315 35.3875 139.545 33.3459C138.959 31.7691 138.892 29.9599 138.925 28.798C139.763 28.9474 140.499 28.9806 140.633 28.9806L141.722 29.0138V27.9349C141.705 27.1216 142.342 25.7107 143.079 24.0675C145.105 19.6192 148.17 12.9135 144.234 5.22846C144.201 5.17866 144.184 5.11227 144.151 5.06247C144.318 4.53133 144.368 4.04998 144.352 3.65162C144.335 2.17437 143.598 1.01249 142.928 0.414957L142.459 0L141.873 0.199179C141.488 0.331965 141.119 0.564341 140.751 0.846512C140.499 0.614136 140.181 0.448153 139.813 0.398359C139.712 0.398359 139.612 0.38176 139.478 0.38176C137.853 0.38176 131.941 1.70962 131.171 2.10798L130.769 2.30716L130.635 2.73871L130.35 3.71801C129.044 4.14957 127.854 4.7969 126.967 5.27825C126.85 5.34464 126.732 5.41104 126.615 5.46083L125.945 5.82599L126.096 6.57292C126.113 6.6891 126.699 9.6104 128.407 11.5856L128.491 11.6686C128.106 11.735 127.737 11.7682 127.402 11.7682C126.381 11.7682 125.577 11.4694 125.191 10.8719C124.588 9.94236 125.024 8.94647 125.727 8.43192C125.342 8.26594 124.974 8.16635 124.521 8.16635C124.254 8.16635 123.952 8.19955 123.617 8.28254C122.277 8.58131 121.523 9.69339 121.775 11.0378C122.059 12.6479 123.198 13.6438 125.175 13.6438C125.577 13.6438 125.995 13.6106 126.464 13.5276C127.134 13.4114 127.821 13.2122 128.508 12.9964C128.508 13.0296 128.508 13.0462 128.508 13.0794C128.34 14.0089 128.189 14.8057 128.709 15.453C127.268 15.7186 125.962 16.3161 124.856 17.2124C123.952 16.5319 122.729 15.619 122.545 15.4696C121.825 14.9384 121.155 14.3575 120.435 13.76C120.15 13.511 119.849 13.262 119.547 13.013C118.927 12.4985 118.258 11.9674 117.537 11.4694C117.001 11.1042 116.382 10.8719 115.712 10.7889V7.85098C117.839 6.92148 119.329 4.7803 119.329 2.34036C119.329 1.79261 119.262 1.27807 119.112 0.780119H114.606C114.64 1.07889 114.657 1.37766 114.657 1.69302C114.657 4.34875 113.317 6.6891 111.659 6.6891C110.001 6.6891 108.661 4.34875 108.661 1.69302C108.661 1.37766 108.677 1.07889 108.711 0.780119H103.067C103.1 1.07889 103.117 1.37766 103.117 1.69302C103.117 4.34875 101.777 6.6891 100.119 6.6891C98.4609 6.6891 97.121 4.34875 97.121 1.69302C97.121 1.37766 97.1378 1.07889 97.1713 0.780119H91.3428C91.3763 1.07889 91.393 1.37766 91.393 1.69302C91.393 4.34875 90.0532 6.6891 88.3951 6.6891C86.737 6.6891 85.3971 4.34875 85.3971 1.69302C85.3971 1.37766 85.4138 1.07889 85.4473 0.780119H79.9371C79.9706 1.07889 79.9873 1.37766 79.9873 1.69302C79.9873 4.34875 78.6475 6.6891 76.9894 6.6891C75.3313 6.6891 73.9914 4.34875 73.9914 1.69302C73.9914 1.37766 74.0081 1.07889 74.0416 0.780119H69.4693C69.3353 1.26147 69.2683 1.75942 69.2683 2.27396C69.2683 4.63092 70.6585 6.7389 72.6515 7.73479V10.7889C71.9816 10.8719 71.3284 11.1042 70.7757 11.486C70.0555 11.9674 69.3856 12.5151 68.7659 13.0296C68.4644 13.2786 68.1797 13.5276 67.8782 13.7766C67.158 14.3741 66.4881 14.955 65.7679 15.4862C65.5837 15.619 64.361 16.5319 63.4566 17.229C62.3512 16.3327 61.0616 15.7352 59.6045 15.4696C60.1237 14.8057 59.9729 14.0089 59.8055 13.096C59.8055 13.0794 59.8055 13.0462 59.8055 13.013C60.4921 13.2454 61.1788 13.428 61.8488 13.5442C62.3177 13.6272 62.7364 13.6604 63.1384 13.6604C65.1147 13.6604 66.2536 12.6645 66.5383 11.0544C66.7896 9.70999 66.0359 8.5979 64.696 8.29914C64.361 8.23274 64.0596 8.18295 63.7916 8.18295C63.3394 8.18295 62.9709 8.28254 62.5857 8.44852C63.2891 8.96307 63.7246 9.95896 63.1217 10.8885C62.7364 11.5026 61.9158 11.7848 60.9109 11.7848C60.5591 11.7848 60.1907 11.7516 59.8222 11.6852L59.906 11.6022C61.6143 9.627 62.2005 6.7223 62.2172 6.58951L62.368 5.84259L61.698 5.47743C61.5808 5.41104 61.4636 5.36124 61.3463 5.29485C60.4419 4.8135 59.2695 4.16617 57.9631 3.73461L57.6784 2.75531L57.5444 2.32376L57.1425 2.12458C56.372 1.72622 50.4598 0.398359 48.8352 0.398359C48.718 0.398359 48.6007 0.398358 48.5003 0.414957C48.1318 0.464752 47.8136 0.630734 47.5623 0.86311C47.1939 0.564341 46.8087 0.348564 46.4402 0.215778L45.854 0.0165983L45.385 0.431555C44.7151 1.02909 43.9782 2.19097 43.9614 3.66822C43.9614 4.06658 44.0117 4.54793 44.1624 5.07907C44.1289 5.14546 44.0954 5.19526 44.0787 5.24505C40.1428 12.9301 43.2077 19.6358 45.2343 24.0841C45.9712 25.7107 46.6244 27.1216 46.6077 27.9515V29.0304L47.6796 28.9972C47.7968 28.9972 48.5338 28.964 49.3879 28.8146C49.4214 29.9765 49.3712 31.8023 48.7682 33.3625C47.9978 35.4041 46.9426 37.2797 45.8373 39.2715C45.2343 40.3504 44.6146 41.4625 44.0452 42.5912C43.4255 43.836 42.9398 44.9647 42.5713 46.0436C42.3368 46.5084 41.9851 46.9067 41.5831 47.1059C41.0974 47.3549 40.5447 47.3383 40.0758 47.0561C39.8246 46.9067 39.4226 46.5582 39.4393 45.9108C39.4728 44.3838 40.4442 43.1721 41.5831 41.7778C42.2531 40.9479 42.9398 40.1014 43.5092 39.0889C45.2678 35.9519 45.7033 32.3998 44.7654 28.8146C44.3299 27.1216 43.3752 25.6941 42.4541 24.3165C42.3201 24.1173 42.1861 23.9015 42.0521 23.7023C42.6048 22.5571 41.9851 21.1462 41.3152 19.6856C40.8965 18.756 40.461 17.7933 40.2433 16.7809C39.5566 13.6106 40.1428 11.6852 41.2314 8.54811L41.7004 7.18705L40.461 7.93397C36.8601 10.1083 35.068 13.3616 35.0178 17.8763C34.9843 20.0341 35.6709 23.9015 37.5803 25.0634C37.8817 25.246 38.2837 25.412 38.8029 25.412C38.9201 25.412 39.0206 25.412 39.1546 25.3788C39.3221 25.6277 39.4896 25.8933 39.6571 26.1423C40.461 27.3374 41.2147 28.4826 41.5161 29.6279C42.2363 32.3998 41.9181 35.0389 40.5782 37.4457C40.1595 38.1926 39.5901 38.9063 38.9704 39.6533C37.6473 41.2799 36.1566 43.1223 36.0897 45.7946C36.0562 47.4545 36.8936 48.9815 38.3339 49.8612C39.1044 50.3426 39.992 50.5749 40.8797 50.5749C41.2147 50.5749 41.5329 50.5417 41.8511 50.4753C41.8511 50.4919 41.8511 50.5251 41.8511 50.5417C41.8846 50.9401 41.9181 51.3385 41.9684 51.7202C42.0019 52.0356 42.0354 52.3177 42.0689 52.6165C42.0856 52.8821 42.1191 53.0813 42.1526 53.2473C42.2028 53.5958 42.2196 53.6622 42.0856 54.0606C41.9684 54.4257 41.2147 54.9403 39.7911 55.2556C39.1044 55.405 38.0827 55.571 36.8433 55.737C35.5202 55.9196 34.4986 57.0151 34.4316 58.3263C34.2306 62.0443 34.1803 64.3681 34.2976 65.198C34.4651 66.2935 35.001 67.2562 35.8049 67.9367C33.3262 67.6546 31.3498 67.0072 31.3331 67.0072L29.34 66.3433L30.01 68.3185C30.7971 70.6422 32.2878 72.6008 34.3478 73.9785C36.2571 75.2566 38.5517 75.9537 40.8295 75.9537C43.6097 75.9537 46.1387 74.9246 47.9643 73.049C47.9643 73.5635 48.0815 74.0615 48.2825 74.576L49.2037 76.85L50.2253 74.6258C50.2923 74.493 51.8499 71.2398 55.5681 70.9576C57.1592 70.8414 58.968 70.609 60.3749 69.4472C60.3749 69.8289 60.4084 70.1941 60.5089 70.5593C61.0113 72.6174 62.8034 73.6631 62.8704 73.6963L64.5285 74.6424L64.428 72.7502C64.3945 71.9369 64.3443 71.0074 64.5788 70.2439C64.9975 68.8662 66.4546 68.3517 67.2753 68.1525C67.4762 68.1027 67.6772 68.0529 67.8615 68.0197C69.2181 67.7209 70.3235 67.472 71.4624 66.808C70.9767 67.7541 70.7757 68.7168 70.8762 69.6961C71.1107 72.1361 73.1205 73.6631 73.2042 73.7295L75.4988 75.4391L74.8623 72.6672C74.6278 71.6049 74.4436 69.1816 75.4318 68.5509C76.6544 67.7542 77.5756 67.6546 78.6475 67.5384C79.5351 67.4388 80.4898 67.3226 81.6119 66.8412C80.741 68.75 81.1095 70.3103 81.143 70.3933L81.6789 72.5013L83.0021 70.7584C83.0021 70.7584 85.4976 67.555 89.0148 67.555C91.5605 67.555 93.6206 68.7998 93.6373 68.8164L94.19 69.1484L94.7427 68.8164C94.7427 68.8164 96.8195 67.555 99.3653 67.555C102.882 67.555 105.361 70.7418 105.378 70.7584L106.701 72.5013L107.237 70.3933C107.254 70.3103 107.639 68.75 106.768 66.8412C107.89 67.3226 108.845 67.4388 109.733 67.5384C110.804 67.6546 111.742 67.7707 112.948 68.5509C113.936 69.1982 113.769 71.6049 113.518 72.6672L112.881 75.4391L115.176 73.7295C115.26 73.6631 117.269 72.1361 117.504 69.6961C117.604 68.7168 117.403 67.7541 116.918 66.808C118.057 67.4554 119.162 67.7043 120.519 68.0197C120.703 68.0695 120.904 68.1027 121.105 68.1525C121.925 68.3351 123.383 68.8662 123.801 70.2439C124.036 71.0074 123.986 71.9369 123.952 72.7502L123.852 74.6424L125.51 73.6963C125.51 73.6963 127.385 72.6174 127.871 70.5593C127.955 70.1941 128.005 69.8123 128.005 69.4472C129.412 70.609 131.221 70.8248 132.812 70.9576C136.53 71.2398 138.088 74.493 138.155 74.6258L139.176 76.85L140.098 74.576C140.299 74.0615 140.416 73.5469 140.416 73.049C142.241 74.9246 144.77 75.9537 147.551 75.9537C149.828 75.9537 152.123 75.2566 154.032 73.9785C156.092 72.6008 157.6 70.6422 158.37 68.3185L159.04 66.3433L157.047 67.0072L156.98 66.9906ZM125.124 12.5649C123.718 12.5649 122.981 12.0005 122.763 10.8055C122.612 10.0088 123.014 9.42782 123.801 9.24524C123.835 9.24524 123.868 9.24524 123.902 9.22864C123.718 9.90917 123.801 10.6561 124.253 11.3864C124.588 11.901 125.108 12.2993 125.761 12.5317C125.543 12.5649 125.325 12.5649 125.124 12.5649ZM63.9591 11.3864C64.428 10.6727 64.495 9.90917 64.3108 9.22864C64.3443 9.22864 64.3778 9.22864 64.4113 9.24524C65.1985 9.41122 65.6004 10.0088 65.4497 10.8055C65.232 12.0005 64.4783 12.5649 63.0882 12.5649C62.8872 12.5649 62.6694 12.5649 62.4517 12.5317C63.1049 12.2993 63.6241 11.9176 63.9591 11.3864ZM124.856 18.5071C125.108 18.2581 125.376 18.0257 125.66 17.8099C126.9 16.8638 128.474 16.2829 130.45 16.2829C130.735 16.2829 131.02 16.2829 131.321 16.3161L134.001 15.1044C133.046 15.121 132.276 15.1542 131.656 15.1542C128.977 15.1542 129.194 14.7891 129.546 12.9301C129.546 12.9301 131.807 13.5442 133.532 13.5442C133.7 13.5442 133.867 13.5442 134.018 13.5276C134.855 13.4612 135.224 13.096 135.358 12.6479C135.525 12.0503 135.575 11.1208 135.106 9.95896C134.805 9.19544 134.068 8.53151 133.013 8.53151C132.209 8.53151 131.238 8.91327 130.132 9.90917L129.194 10.8387C128.709 10.2743 128.323 9.627 128.022 8.99626C127.821 8.13315 128.759 7.58541 128.759 7.58541C127.804 7.7016 127.335 6.7223 127.184 6.27415C128.206 5.7264 129.663 4.89649 131.204 4.48153L131.656 2.95449C132.243 2.65572 137.97 1.34446 139.478 1.34446C139.562 1.34446 139.612 1.34446 139.679 1.34446C139.796 1.34446 139.913 1.41085 139.997 1.47725C139.679 1.82581 139.394 2.22417 139.143 2.65572L140.165 2.98769C140.734 2.07478 141.521 1.31126 142.225 1.07889C143.146 1.8756 144.251 4.24916 141.823 6.7389V8.18295L142.241 7.78459C142.828 7.23685 143.246 6.7057 143.564 6.19115C148.204 16.1501 140.583 24.3165 140.633 27.8353C140.633 27.8353 139.042 27.7855 137.954 27.354C137.954 27.354 137.468 30.7898 138.54 33.6115C139.779 36.898 141.739 39.8193 143.313 42.9397C143.849 44.002 144.318 45.0809 144.703 46.193C144.703 46.2262 144.72 46.2594 144.737 46.2926C145.055 46.9731 145.591 47.5706 146.194 47.9026C146.211 47.9026 146.244 47.9192 146.261 47.9358C147.048 48.3342 147.969 48.2844 148.74 47.8196C149.493 47.3715 149.895 46.6079 149.879 45.7614C149.828 43.8692 148.706 42.475 147.5 40.9977C146.864 40.201 146.194 39.3877 145.675 38.4582C144.05 35.5535 143.648 32.267 144.519 28.9474C144.921 27.4203 145.826 26.0759 146.696 24.7646C146.897 24.4659 147.082 24.1837 147.283 23.8849C147.366 23.7687 147.433 23.6525 147.5 23.5363C147.082 23.1546 146.998 22.6898 147.132 22.0757C147.249 21.5114 147.551 20.8308 147.919 19.9843C148.338 19.0548 148.823 17.9925 149.058 16.8804C149.443 15.0878 149.443 13.6438 149.209 12.2163C149.56 12.7807 149.862 13.3782 150.113 13.9923C150.398 14.6895 150.599 15.4198 150.699 16.1833C150.8 16.9468 150.8 17.727 150.683 18.5071C150.951 17.7767 151.118 16.98 151.168 16.1833C151.218 15.37 151.168 14.5567 151.018 13.76C150.884 13.0296 150.683 12.2993 150.415 11.6022C151.57 13.2786 152.156 15.3202 152.19 17.7767C152.223 20.864 151.152 23.4534 150.13 24.0675C149.996 24.1505 149.879 24.2003 149.761 24.2335C149.326 24.3331 148.656 24.0343 148.656 24.0343C148.355 24.5322 148.053 24.9804 147.735 25.4617C146.881 26.7398 146.077 27.9515 145.725 29.2628C144.938 32.3002 145.273 35.1883 146.763 37.8441C147.232 38.674 147.852 39.4541 148.472 40.201C149.745 41.7778 151.068 43.4045 151.118 45.7116C151.152 47.0063 150.498 48.1848 149.376 48.8653C148.773 49.2305 148.07 49.4296 147.366 49.4296C147.048 49.4296 146.713 49.3799 146.395 49.3135C146.11 49.2305 145.826 49.1309 145.558 48.9815C145.474 48.9317 145.39 48.8819 145.306 48.8321C145.357 49.2305 145.373 49.6454 145.357 50.0438C145.357 50.1434 145.357 50.2596 145.34 50.3592C145.29 51.0397 145.189 51.7368 145.139 52.4173C145.055 53.297 144.904 53.3966 145.172 54.2598C145.491 55.2556 146.847 55.8532 148.254 56.1685C149.142 56.3677 150.348 56.5503 151.285 56.6665C152.123 56.7827 152.743 57.4632 152.793 58.2931C152.91 60.3347 153.078 63.9531 152.927 64.9656C152.759 66.0777 152.106 67.0238 151.068 67.5218C151.135 67.6712 151.202 67.8205 151.269 67.9533C151.419 68.3351 151.537 68.6671 151.587 68.9824C151.922 70.7916 150.616 71.356 149.443 71.6381L149.292 70.0115C149.292 70.0115 148.957 69.7957 148.89 69.7625C148.79 69.6961 148.673 69.6298 148.589 69.5468C148.388 69.3642 148.321 69.1484 148.288 68.916C148.288 68.7832 148.271 68.6505 148.271 68.5011C148.271 68.2521 148.221 68.0031 148.087 67.8205C148.02 67.7375 147.953 67.6712 147.835 67.6214C147.735 67.5716 147.634 67.555 147.534 67.555C147.417 67.555 147.316 67.5882 147.216 67.638C146.998 67.7541 146.814 67.9699 146.78 68.2355C146.78 68.3351 146.78 68.4679 146.797 68.6007C146.881 69.082 147.115 69.7459 146.897 70.3269C146.763 70.7086 146.244 71.2232 145.675 71.2232C145.491 71.2232 145.323 71.1734 145.139 71.0572L143.966 72.0863C142.409 70.3933 142.895 68.7666 144.586 68.0695C144.72 68.0197 144.837 67.9533 144.938 67.8869C145.256 67.6712 145.44 67.389 145.256 67.0902C145.122 66.8578 144.971 66.7748 144.77 66.7748C144.469 66.7748 144.084 66.9574 143.497 67.1898C143.464 67.1898 143.43 67.223 143.38 67.2396C143.062 67.3558 142.761 67.4388 142.476 67.4388C141.873 67.4388 141.387 67.0902 141.136 66.1275C141.119 66.0445 141.102 65.9449 141.086 65.8619L140.684 66.0279L139.98 66.3101C139.98 66.1939 140.014 66.0611 140.031 65.9449C140.098 65.5466 140.232 65.2146 140.382 64.9324C140.901 63.9863 141.823 63.6046 142.761 63.6046C143.966 63.6046 145.206 64.2021 145.725 64.9656L147.936 65.2644C148.388 64.7001 148.405 63.0402 148.338 61.7456C148.288 60.7995 147.584 60.0359 146.646 59.8866C145.038 59.6542 142.627 59.3056 141.772 59.2392C140.148 59.123 138.456 58.8409 137.234 57.6624C135.559 56.0192 135.19 54.3095 135.19 51.936C135.19 51.1559 135.224 50.3758 135.291 49.579C135.341 48.8985 135.425 48.218 135.492 47.554C135.542 47.1059 135.609 46.6577 135.676 46.2096C135.743 45.7946 135.743 45.3465 135.709 44.9149C135.709 44.7489 135.676 44.5996 135.642 44.4336C135.559 43.9522 135.425 43.4875 135.24 43.0061C135.039 42.5082 134.755 42.0434 134.42 41.5953C133.884 40.8981 133.18 40.284 132.293 39.7861C131.975 39.6035 131.589 39.3877 131.187 39.1387C130.785 38.8897 130.35 38.6242 129.898 38.3088C128.792 37.5785 127.57 36.6656 126.431 35.6199C126.515 35.5701 126.598 35.5203 126.682 35.4705C127.101 35.2215 128.256 34.375 129.345 33.4787C129.613 33.2629 129.847 33.0638 130.065 32.8646L129.027 32.3168C127.821 33.3293 126.481 34.3252 126.129 34.5244C125.962 34.624 125.794 34.7236 125.627 34.8232C125.309 35.0058 124.99 35.1883 124.689 35.3543C122.93 36.3502 121.674 37.0307 121.708 38.1926C123.885 40.5164 122.696 41.894 121.49 42.309L121.088 41.0309C119.815 40.8151 119.832 39.8856 119.782 39.1719C119.748 38.7902 119.447 38.5744 119.145 38.5744C118.894 38.5744 118.643 38.7404 118.626 39.1221C118.593 39.5371 118.626 39.9686 118.509 40.6492C118.425 41.1139 117.923 41.7447 117.202 41.7447C117.085 41.7447 116.968 41.7447 116.851 41.6949L116.583 43.2053C114.104 42.7405 114.372 40.3006 116.047 39.4707C117.001 38.9893 117.303 38.6408 117.018 38.2756C116.934 38.176 116.834 38.1262 116.717 38.1262C116.365 38.1262 115.846 38.508 115.343 38.8731C115.126 39.0391 114.841 39.1221 114.539 39.1221C113.886 39.1221 113.183 38.7072 112.881 37.7279L111.977 38.2258C111.826 36.3834 112.982 35.4705 114.154 35.4705C114.707 35.4705 115.276 35.6697 115.712 36.068C115.879 36.2174 116.047 36.2838 116.214 36.2838C116.75 36.2838 117.119 35.6199 116.398 35.2381C115.712 34.873 115.059 33.7443 115.695 33.0306L114.657 32.0679C115.126 31.7857 115.628 31.6529 116.097 31.6529C117.135 31.6529 118.09 32.3168 118.392 33.8273C118.459 34.1758 118.609 34.3086 118.81 34.3086C119.38 34.3086 120.385 33.097 121.138 31.9019C121.323 31.6197 121.49 31.3209 121.657 31.0388C121.875 30.657 122.11 30.2918 122.361 29.9267C122.679 29.4619 123.014 29.0138 123.433 28.6154C124.136 27.9183 125.359 26.7066 126.766 25.8933C127.101 25.7107 127.452 25.5281 127.804 25.3788C128.223 24.831 128.642 24.2667 129.01 23.6857C129.998 22.1919 130.819 20.5985 131.288 18.922C130.517 20.4989 129.446 21.8765 128.256 23.1048C127.704 23.6857 127.134 24.2169 126.531 24.748C124.907 25.5779 123.55 26.9224 122.746 27.7025L122.629 27.8187C122.394 28.0511 122.177 28.2835 121.992 28.5324C121.724 26.9058 121.791 24.8974 122.311 22.9886C122.411 22.6234 122.528 22.2417 122.662 21.8931C123.148 20.6151 123.835 19.42 124.789 18.4739L124.856 18.5071ZM131.12 11.9176C131.757 11.7018 132.393 11.5358 132.996 11.5358C133.499 11.5358 133.968 11.652 134.403 11.901C134.403 12.1001 134.353 12.2661 134.336 12.3491V12.3657C134.336 12.3657 134.252 12.4487 133.917 12.4819C133.8 12.4819 133.666 12.4819 133.515 12.4819C132.862 12.4819 132.125 12.3823 131.472 12.2661C130.819 12.1665 129.831 11.9508 129.831 11.9508C129.73 11.4196 129.814 10.8553 130.015 10.8719C130.283 10.9051 130.434 11.4694 131.137 11.8844L131.12 11.9176ZM130.434 11.0876L130.836 10.6727C131.841 9.77638 132.561 9.5772 132.979 9.5772C133.733 9.5772 134.035 10.1581 134.102 10.3407C134.169 10.5067 134.219 10.6727 134.269 10.8221C133.867 10.6395 133.432 10.5731 132.979 10.5731C132.176 10.5731 131.305 10.8221 130.417 11.0876H130.434ZM137.368 62.2601C136.128 63.09 134.973 63.4884 133.75 63.4884C132.611 63.4884 131.506 63.1564 130.333 62.7913C130.015 62.6917 129.697 62.5921 129.362 62.5091C128.843 62.3597 128.29 62.2933 127.737 62.2933C126.397 62.2933 125.242 62.7249 124.488 63.1066C124.572 62.8245 124.84 61.7622 124.84 60.9489C125.828 60.4011 126.515 59.621 126.85 58.6085C127.352 57.0981 127.754 54.4257 127.352 51.5376C128.139 51.438 129.261 51.2721 130.383 51.0895C131.606 50.8903 132.611 50.6911 133.348 50.5085C133.7 50.4255 133.984 50.3426 134.236 50.2596C134.202 50.8405 134.185 51.4214 134.185 52.0024C134.185 53.4464 134.319 54.5253 134.621 55.4714C134.989 56.6001 135.609 57.5794 136.53 58.4757C138.004 59.9198 139.98 60.2351 141.722 60.3513C142.342 60.4011 144.05 60.6169 146.512 60.9821C146.948 61.0484 147.299 61.4136 147.316 61.8618C147.383 63.0568 147.316 63.7706 147.266 64.1689L146.294 64.0361C145.491 63.173 144.117 62.6087 142.777 62.6087C141.086 62.6087 139.813 63.4884 139.243 64.9822C138.942 65.0154 138.607 65.0652 138.272 65.1482C138.908 64.1855 138.959 63.2892 138.975 63.173L139.059 61.0982L137.334 62.2601H137.368ZM120.552 62.4261C120.452 62.3431 120.351 62.2435 120.267 62.1439C120.251 62.1107 120.234 62.0941 120.217 62.0609C119.999 61.7124 120.066 61.3472 120.117 60.9655C120.167 60.5837 120.167 60.2019 119.815 59.953C119.681 59.8534 119.53 59.8036 119.38 59.8036C119.279 59.8036 119.195 59.8202 119.112 59.8534C118.877 59.9364 118.66 60.1355 118.576 60.4011C118.526 60.5339 118.526 60.7165 118.526 60.9323C118.526 61.1148 118.526 61.314 118.526 61.5132C118.526 61.8618 118.492 62.2435 118.341 62.5755C118.341 62.6087 118.308 62.6419 118.291 62.6751C118.09 63.007 117.554 63.422 117.001 63.422C116.75 63.422 116.499 63.339 116.281 63.1232L114.824 64.0029C114.724 63.8535 114.657 63.7042 114.573 63.5714C114.405 63.2228 114.288 62.9075 114.221 62.5921C113.953 61.1978 114.791 60.1853 116.264 59.8534C116.867 59.7206 117.353 59.4052 117.169 58.9239C117.052 58.6085 116.851 58.4923 116.549 58.4923C116.231 58.4923 115.779 58.6085 115.159 58.7413C114.958 58.7745 114.774 58.8077 114.59 58.8409C114.439 58.8575 114.288 58.8741 114.154 58.8741C113.501 58.8741 113.082 58.5587 113.082 57.264L111.826 57.5296C112.396 55.5544 113.551 54.7909 114.757 54.7909C115.963 54.7909 117.303 55.6042 118.107 56.7163L118.609 56.8823L119.497 57.181L121.272 57.7786C122.997 56.3345 122.21 52.5335 122.21 52.5335C122.21 52.5335 118.844 50.6579 119.966 46.4918C119.966 46.4918 120.552 42.5746 127.754 42.5746C128.524 42.5746 129.362 42.6244 130.283 42.7239C130.836 42.7903 131.338 42.8567 131.79 42.9397C131.79 42.9397 131.79 42.9397 131.79 42.9563C131.623 43.3381 131.573 43.7696 131.656 44.1846C131.774 44.8319 132.176 45.3797 132.762 45.6784C133.046 45.8278 133.365 45.9108 133.7 45.9108C134.068 45.9108 134.42 45.8112 134.755 45.6286C134.755 45.8112 134.738 45.9772 134.721 46.1432C134.587 47.0727 134.453 48.0686 134.37 49.1143C132.912 49.8446 126.163 50.6745 126.163 50.6745C126.816 53.8282 126.397 56.8159 125.895 58.3097C125.711 58.8575 125.392 59.289 124.99 59.6376C124.672 59.9198 124.304 60.1355 123.885 60.3015C123.801 61.397 123.718 62.2103 123.517 62.8577C123.466 63.09 123.383 63.2892 123.282 63.4552C122.78 64.3017 121.741 64.5009 120.803 64.5673L120.954 62.8079C120.954 62.8079 120.636 62.5091 120.586 62.4593L120.552 62.4261ZM122.947 37.9436C123.232 37.4955 124.187 36.9809 125.175 36.4166C125.292 36.3502 125.426 36.2838 125.56 36.2008C125.744 36.3668 125.928 36.5328 126.113 36.6988C126.565 37.0971 127.034 37.4789 127.503 37.8441L127.519 37.8607L129.831 40.2508C130.434 40.8815 130.852 41.3629 131.137 41.7612L127.771 41.5289C126.113 41.5289 124.773 41.7281 123.684 42.0434C123.835 41.811 123.952 41.5455 124.019 41.2799C124.32 40.035 123.701 38.84 122.981 37.9602L122.947 37.9436ZM132.51 42.0102C132.31 41.6285 131.991 41.1471 131.455 40.4998C131.589 40.5828 131.74 40.6658 131.857 40.7322C132.661 41.1803 133.264 41.7281 133.716 42.3256C134.068 42.7903 134.303 43.2883 134.487 43.7696C134.554 43.9522 134.604 44.1514 134.638 44.334C134.437 44.6493 134.085 44.8485 133.716 44.8485C133.566 44.8485 133.415 44.8153 133.264 44.7323C132.711 44.4502 132.494 43.7198 132.879 43.1555C132.912 43.1057 132.946 43.0559 132.996 43.0061C132.845 42.7074 132.745 42.392 132.527 41.9936L132.51 42.0102ZM116.901 12.2827C117.571 12.7309 118.207 13.2454 118.827 13.76C119.832 14.5899 120.803 15.4696 121.858 16.2497C122.193 16.4987 123.215 17.2622 124.019 17.8763C123.785 18.1253 123.567 18.3743 123.349 18.6399C122.763 19.4034 122.277 20.2665 121.909 21.1628L120.016 19.3868C120.217 18.8722 120.284 18.2747 120.217 17.6606C120.217 17.6274 120.217 17.5942 120.217 17.5444L119.212 18.0257C119.246 18.7726 118.961 19.5528 118.274 19.9179C118.057 20.0341 117.872 20.0839 117.621 20.0839L117.655 19.171C117.32 19.171 116.867 18.8224 116.867 18.3411C116.867 17.7933 117.219 17.4946 117.655 17.3618V16.2995C116.817 16.4489 116.197 16.9468 115.946 17.6274H114.841C114.791 16.814 115.193 16.0671 116.047 15.785V14.7061C115.327 14.8555 114.858 15.204 114.573 15.5194C114.489 15.6024 114.422 15.702 114.338 15.8016H113.501C113.467 15.0214 113.869 14.3077 114.623 14.0587V12.9798C114.154 13.0794 113.752 13.262 113.4 13.5608H112.613C112.613 13.0462 112.932 12.5483 113.35 12.2495C113.719 11.984 114.188 11.8346 114.657 11.7848C114.807 11.7682 114.958 11.7516 115.109 11.7516C115.31 11.7516 115.511 11.7682 115.695 11.8014C116.13 11.8844 116.549 12.0503 116.918 12.2993L116.901 12.2827ZM114.657 5.64341C115.293 4.56452 115.662 3.18687 115.678 1.75942H118.207C118.224 1.942 118.241 2.10798 118.241 2.29056C118.241 5.02928 116.03 7.25344 113.3 7.25344H113.116C113.702 6.92148 114.238 6.37374 114.657 5.64341ZM103.117 5.64341C103.753 4.56452 104.122 3.18687 104.139 1.75942H107.572C107.589 3.18687 107.957 4.56452 108.594 5.64341C109.029 6.37374 109.548 6.92148 110.135 7.25344H107.84C107.254 6.65591 106.768 5.84259 106.45 4.87989H105.294C104.993 5.84259 104.507 6.65591 103.904 7.25344H101.559C102.146 6.92148 102.665 6.37374 103.1 5.64341H103.117ZM91.393 5.64341C92.0295 4.56452 92.3979 3.18687 92.4147 1.75942H96.0324C96.0491 3.18687 96.4176 4.56452 97.054 5.64341C97.4895 6.37374 98.0087 6.90488 98.5949 7.25344H96.0993C95.5132 6.65591 95.0275 5.84259 94.7092 4.87989H93.5536C93.2521 5.84259 92.7664 6.65591 92.1635 7.25344H89.8187C90.4049 6.92148 90.9408 6.37374 91.3595 5.64341H91.393ZM79.9873 5.64341C80.6238 4.56452 80.9922 3.18687 81.009 1.75942H84.3252C84.3419 3.18687 84.7104 4.56452 85.3469 5.64341C85.7823 6.37374 86.3015 6.92148 86.8877 7.25344H84.5429C83.9567 6.65591 83.471 5.84259 83.1528 4.87989H81.9972C81.6957 5.84259 81.21 6.65591 80.607 7.25344H78.413C78.9992 6.92148 79.5351 6.37374 79.9538 5.64341H79.9873ZM70.29 2.22417C70.29 2.07478 70.29 1.9254 70.3067 1.75942H72.9027C72.9195 3.18687 73.288 4.56452 73.9244 5.64341C74.3599 6.37374 74.8791 6.92148 75.4653 7.25344H75.214C72.5343 7.25344 70.2732 4.94628 70.2732 2.22417H70.29ZM66.3876 16.2497C67.4428 15.4696 68.4142 14.6065 69.4191 13.76C70.0388 13.2454 70.6752 12.7309 71.3451 12.2827C71.7304 12.0171 72.1658 11.8512 72.6348 11.7848C72.8023 11.7516 72.9865 11.735 73.1707 11.735C73.3382 11.735 73.5057 11.735 73.6899 11.7682C74.1421 11.8346 74.5943 11.9674 74.9461 12.2329C75.3648 12.5317 75.6662 13.0296 75.683 13.5608H74.8958C74.5441 13.262 74.1254 13.0628 73.6732 12.9798V14.0587C74.4436 14.3077 74.8456 15.0214 74.7953 15.8182H73.9579C73.8909 15.7186 73.8072 15.619 73.7234 15.536C73.4387 15.2372 72.953 14.8886 72.2496 14.7227V15.8016C73.087 16.0837 73.4889 16.8306 73.4554 17.6606H72.35C72.0988 16.9634 71.4791 16.4655 70.6417 16.3161V17.3784C71.0772 17.5112 71.4289 17.8099 71.4289 18.3577C71.4289 18.839 70.9934 19.1876 70.6417 19.1876L70.6752 20.1005C70.4407 20.1005 70.2397 20.0341 70.022 19.9345C69.3353 19.5694 69.0674 18.7726 69.0841 18.0423L68.0792 17.561C68.0792 17.561 68.0792 17.6274 68.0792 17.6772C67.9954 18.2913 68.0792 18.8888 68.2802 19.4034L66.3876 21.196C66.0191 20.2997 65.5334 19.4532 64.9472 18.6731C64.7295 18.4075 64.5118 18.1419 64.2773 17.9095C65.098 17.2954 66.1029 16.5319 66.4378 16.2829L66.3876 16.2497ZM35.269 65.032C35.1182 64.0195 35.2857 60.4177 35.403 58.3595C35.4532 57.5296 36.0897 56.8491 36.9103 56.7329C37.8482 56.6001 39.0541 56.4175 39.9418 56.2349C41.3487 55.9362 42.7053 55.322 43.0235 54.3261C43.2915 53.463 43.1408 53.3634 43.057 52.4837C42.99 51.8032 42.9063 51.1061 42.856 50.4255C42.856 50.326 42.856 50.2098 42.8393 50.1102C42.8393 49.7118 42.8393 49.2969 42.8895 48.8985C42.8058 48.9483 42.722 48.9981 42.6383 49.0479C42.3703 49.1973 42.0856 49.2969 41.8009 49.3799C41.4827 49.4628 41.1644 49.496 40.8295 49.496C40.126 49.496 39.4393 49.3135 38.8196 48.9317C37.6975 48.2512 37.0443 47.0727 37.0778 45.778C37.1281 43.4709 38.4512 41.8442 39.7241 40.2674C40.327 39.5205 40.9635 38.7404 41.4324 37.9104C42.923 35.2547 43.2747 32.3666 42.4708 29.3291C42.1191 28.0013 41.3152 26.8062 40.461 25.5281C40.1428 25.0468 39.8413 24.5986 39.5398 24.1007C39.5398 24.1007 38.8699 24.3995 38.4344 24.2999C38.3172 24.2667 38.2 24.2169 38.066 24.1339C37.0443 23.5032 35.9557 20.9304 36.0059 17.8431C36.0394 15.3866 36.6256 13.345 37.7812 11.6686C37.53 12.3657 37.3123 13.096 37.1783 13.8264C37.0276 14.6231 36.9773 15.453 37.0276 16.2497C37.0778 17.063 37.2453 17.8431 37.5133 18.5735C37.396 17.7933 37.396 17.0132 37.4965 16.2497C37.597 15.4862 37.798 14.7559 38.0827 14.0587C38.3339 13.4446 38.6354 12.8471 38.9871 12.2827C38.7527 13.7102 38.7527 15.1542 39.1379 16.9468C39.3723 18.0589 39.8581 19.1212 40.2768 20.0507C40.662 20.8972 40.9467 21.5778 41.0639 22.1421C41.1979 22.7562 41.1142 23.221 40.6955 23.6027C40.7625 23.7189 40.8462 23.8351 40.9132 23.9513C41.0974 24.2335 41.2984 24.5322 41.4994 24.831C42.3703 26.1423 43.2747 27.4867 43.6767 29.0138C44.5476 32.3334 44.1457 35.6199 42.5211 38.5246C42.0019 39.4541 41.3319 40.2674 40.6955 41.0641C39.5063 42.5414 38.3674 43.9356 38.3172 45.8278C38.3004 46.6909 38.7192 47.4379 39.4561 47.886C40.2265 48.3508 41.1477 48.384 41.9349 48.0022C41.9516 48.0022 41.9851 47.9856 42.0019 47.969C42.6048 47.6536 43.1407 47.0561 43.459 46.359C43.459 46.3258 43.4757 46.2926 43.4925 46.2594C43.8777 45.1473 44.3466 44.0518 44.8826 43.0061C46.4569 39.8856 48.4165 36.9643 49.6559 33.6779C50.7278 30.8562 50.2421 27.4203 50.2421 27.4203C49.1534 27.8519 47.5623 27.9017 47.5623 27.9017C47.6126 24.3829 39.992 16.2165 44.6314 6.25755C44.9496 6.77209 45.3683 7.30324 45.9545 7.85098L46.3732 8.24934V6.80529C43.9447 4.31555 45.0668 1.942 45.9712 1.14528C46.6579 1.39425 47.4451 2.14118 48.0313 3.05408L49.053 2.72212C48.8017 2.30716 48.517 1.9088 48.1988 1.54364C48.2993 1.47725 48.3998 1.42745 48.517 1.41085C48.5672 1.41085 48.6342 1.41085 48.718 1.41085C50.2421 1.41085 55.9701 2.72212 56.5395 3.02089L56.9917 4.54793C58.5493 4.96288 59.9897 5.7928 61.0114 6.34054C60.8439 6.77209 60.3749 7.75139 59.437 7.6518C59.437 7.6518 60.3582 8.19954 60.1739 9.06266C59.8725 9.69339 59.4872 10.3407 59.0015 10.9051L58.0636 9.97556C56.9582 8.96307 55.9868 8.5979 55.1829 8.5979C54.1277 8.5979 53.3908 9.26184 53.0893 10.0254C52.6204 11.1872 52.6706 12.1167 52.8381 12.7143C52.9721 13.1624 53.3406 13.5276 54.178 13.594C54.3287 13.594 54.4962 13.6106 54.6637 13.6106C56.3888 13.6106 58.6498 12.9964 58.6498 12.9964C59.0015 14.8555 59.2193 15.2206 56.5395 15.2206C55.9198 15.2206 55.1494 15.204 54.1947 15.1708L56.8745 16.3825C57.176 16.3659 57.4607 16.3493 57.7454 16.3493C59.7217 16.3493 61.2961 16.9302 62.5355 17.8763C62.8202 18.0921 63.0882 18.3245 63.3394 18.5735C64.294 19.5362 64.9807 20.7312 65.4664 21.9927C65.6004 22.3579 65.7177 22.723 65.8182 23.0882C66.3374 25.0136 66.4043 27.022 66.1364 28.632C65.9354 28.383 65.7344 28.1507 65.4999 27.9183L65.3827 27.8021C64.5788 27.022 63.2221 25.6775 61.5975 24.8476C60.9946 24.3165 60.4252 23.7853 59.8725 23.2044C58.6833 21.9595 57.6282 20.5819 56.841 19.0216C57.3267 20.698 58.1474 22.3081 59.1188 23.7853C59.504 24.3663 59.906 24.9306 60.3247 25.4783C60.6931 25.6277 61.0281 25.7937 61.3631 25.9929C62.7867 26.7896 63.9926 28.0179 64.696 28.715C65.1147 29.1134 65.4497 29.5615 65.7679 30.0263C66.0191 30.3914 66.2369 30.7566 66.4713 31.1384C66.6388 31.4205 66.8231 31.7193 66.9905 32.0015C67.7442 33.2131 68.7491 34.4082 69.3186 34.4082C69.5196 34.4082 69.6703 34.2588 69.7373 33.9269C70.0388 32.4164 70.9934 31.7525 72.0318 31.7525C72.5175 31.7525 73.02 31.9019 73.4722 32.1674L72.4338 33.1301C73.0535 33.8605 72.4003 34.9726 71.7304 35.3377C71.0102 35.7195 71.3954 36.3834 71.9146 36.3834C72.0821 36.3834 72.2496 36.317 72.417 36.1676C72.8525 35.7693 73.4219 35.5701 73.9746 35.5701C75.147 35.5701 76.3027 36.4664 76.1519 38.3254L75.2475 37.8275C74.9461 38.8068 74.2426 39.2217 73.5894 39.2217C73.288 39.2217 73.0032 39.1387 72.7855 38.9727C72.2831 38.6076 71.7639 38.2258 71.4121 38.2258C71.2949 38.2258 71.1777 38.2756 71.1107 38.3752C70.8427 38.7404 71.1107 39.1055 72.0821 39.5703C73.7737 40.4002 74.0416 42.8401 71.5461 43.3049L71.2781 41.7944C71.1609 41.8276 71.0437 41.8442 70.9264 41.8442C70.2062 41.8442 69.7038 41.2135 69.6201 40.7488C69.5028 40.0682 69.5363 39.6533 69.5028 39.2217C69.4861 38.84 69.2348 38.674 68.9836 38.674C68.6821 38.674 68.3807 38.8897 68.3472 39.2715C68.2969 39.9852 68.3137 40.9147 67.0408 41.1305L66.6388 42.4086C65.4329 41.9936 64.2271 40.616 66.4211 38.2922C66.4546 37.1137 65.1985 36.4332 63.4399 35.4539C63.1384 35.2879 62.8202 35.1053 62.502 34.9228C62.3345 34.8232 62.167 34.7236 61.9995 34.624C61.6478 34.4082 60.2912 33.4289 59.102 32.4164L58.0636 32.9642C58.2813 33.1467 58.5158 33.3459 58.7838 33.5783C59.8557 34.458 61.0113 35.3211 61.4468 35.5701C61.5305 35.6199 61.6143 35.6697 61.698 35.7195C60.5591 36.7652 59.3365 37.6781 58.2311 38.4084C57.7789 38.7072 57.3434 38.9893 56.9415 39.2383C56.5395 39.4873 56.1543 39.7031 55.8361 39.8856C54.9484 40.3836 54.245 40.9977 53.709 41.6949C53.3573 42.143 53.0893 42.6244 52.8883 43.1057C52.6874 43.5705 52.5534 44.0518 52.4864 44.5332C52.4529 44.6991 52.4361 44.8485 52.4194 45.0145C52.3859 45.4627 52.4026 45.8942 52.4529 46.3092C52.5199 46.7573 52.5701 47.2055 52.6371 47.6536C52.7209 48.3342 52.7879 48.9981 52.8381 49.6786C52.9051 50.4753 52.9386 51.2555 52.9386 52.0356C52.9386 54.4257 52.5701 56.1354 50.8953 57.762C49.6894 58.9405 47.9978 59.2226 46.3565 59.3388C45.5023 59.3886 43.1073 59.7372 41.4827 59.9862C40.5447 60.1189 39.8413 60.8991 39.7911 61.8452C39.7241 63.1232 39.7408 64.7997 40.193 65.364L42.4038 65.0652C42.923 64.3017 44.1624 63.7042 45.3683 63.7042C46.3062 63.7042 47.2274 64.0693 47.7466 65.032C47.8973 65.3142 48.0313 65.6462 48.0983 66.0445C48.115 66.1607 48.1318 66.2769 48.1485 66.4097L47.4451 66.1275L47.0431 65.9615C47.0264 66.0611 47.0096 66.1441 46.9929 66.2271C46.7584 67.1898 46.256 67.5384 45.653 67.5384C45.3683 67.5384 45.0668 67.4554 44.7486 67.3392C44.7151 67.3392 44.6816 67.306 44.6314 67.2894C44.0619 67.057 43.66 66.8744 43.3585 66.8744C43.1575 66.8744 43.0068 66.9574 42.8728 67.1898C42.6885 67.5052 42.8728 67.7707 43.191 67.9865C43.2915 68.0529 43.4255 68.1193 43.5427 68.1691C45.2343 68.8662 45.72 70.4929 44.1624 72.1859L42.99 71.1568C42.8058 71.273 42.6215 71.3228 42.4541 71.3228C41.8846 71.3228 41.3654 70.8082 41.2314 70.4265C41.0137 69.8455 41.2482 69.1816 41.3319 68.7002C41.3487 68.5675 41.3654 68.4347 41.3487 68.3351C41.3152 68.0695 41.1309 67.8537 40.9132 67.7375C40.8127 67.6878 40.7122 67.6546 40.595 67.6546C40.4945 67.6546 40.394 67.6712 40.2935 67.721C40.193 67.7707 40.1093 67.8371 40.0423 67.9201C39.8916 68.1027 39.8581 68.3517 39.8581 68.6007C39.8581 68.7334 39.8581 68.8828 39.8413 69.0156C39.8078 69.248 39.7408 69.4638 39.5398 69.6463C39.4393 69.7293 39.3389 69.7957 39.2384 69.8621C39.1714 69.8953 38.8531 70.0447 38.8364 70.1111L38.6857 71.7377C37.5133 71.4556 36.2236 70.8912 36.5419 69.082C36.5921 68.7832 36.6926 68.4347 36.8601 68.0529C36.9103 67.9201 36.9773 67.7707 37.0611 67.6214C36.0394 67.1234 35.3695 66.1773 35.202 65.0652L35.269 65.032ZM55.2331 11.5358C55.8361 11.5358 56.4558 11.6852 57.109 11.9176C57.8124 11.486 57.9631 10.9383 58.2311 10.9051C58.4321 10.8885 58.5158 11.4528 58.4153 11.984C58.4153 11.984 57.4272 12.1997 56.774 12.2993C56.1208 12.4155 55.3839 12.5151 54.7307 12.5151C54.5799 12.5151 54.446 12.5151 54.3287 12.5151C54.0105 12.4819 53.91 12.4155 53.91 12.3989C53.91 12.3989 53.91 12.3989 53.91 12.3823C53.8765 12.2827 53.843 12.1333 53.843 11.9342C54.2785 11.6686 54.7474 11.569 55.2499 11.569L55.2331 11.5358ZM53.9602 10.8221C53.9937 10.6727 54.0607 10.5067 54.1277 10.3407C54.1947 10.1581 54.4962 9.5772 55.2499 9.5772C55.6853 9.5772 56.4055 9.75978 57.3937 10.6727L57.7956 11.0876C56.908 10.8055 56.0371 10.5731 55.2331 10.5731C54.7809 10.5731 54.3622 10.6561 53.9435 10.8221H53.9602ZM66.9738 57.762L68.7491 57.1645L69.6368 56.8657L70.1393 56.6997C70.9432 55.571 72.2496 54.7577 73.4889 54.7577C74.7283 54.7577 75.8505 55.5212 76.4199 57.4964L75.1638 57.2308C75.1638 58.5089 74.7451 58.8409 74.0919 58.8409C73.9579 58.8409 73.8072 58.8409 73.6564 58.8077C73.4722 58.7745 73.288 58.7413 73.087 58.7081C72.4673 58.5919 72.0151 58.4591 71.6969 58.4591C71.3954 58.4591 71.1944 58.5753 71.0772 58.8907C70.9097 59.372 71.3786 59.6708 71.9816 59.8202C73.4554 60.1521 74.2929 61.1812 74.0249 62.5589C73.9579 62.8743 73.8574 63.1896 73.6732 63.5382C73.6062 63.6876 73.5224 63.8204 73.422 63.9697L71.9648 63.09C71.7471 63.3058 71.4959 63.3888 71.2446 63.3888C70.692 63.3888 70.156 62.9904 69.955 62.6419C69.9383 62.6087 69.9215 62.5755 69.9048 62.5423C69.7373 62.2103 69.7205 61.8286 69.7205 61.48C69.7205 61.2808 69.7205 61.0816 69.7205 60.8991C69.7205 60.6833 69.7205 60.5007 69.6703 60.3679C69.5866 60.1023 69.3688 59.9198 69.1343 59.8202C69.0506 59.787 68.9501 59.7704 68.8664 59.7704C68.7156 59.7704 68.5649 59.8202 68.4309 59.9198C68.0792 60.1687 68.0792 60.5505 68.1294 60.9323C68.1797 61.3306 68.2467 61.6958 68.0289 62.0277C68.0289 62.0609 67.9955 62.0775 67.9787 62.1107C67.895 62.2103 67.7945 62.3099 67.694 62.3929C67.627 62.4427 67.3255 62.6585 67.3255 62.7415L67.4762 64.5009C66.5383 64.4345 65.4999 64.2353 64.9975 63.3888C64.897 63.2228 64.8132 63.007 64.763 62.7913C64.5788 62.1439 64.495 61.3472 64.3945 60.2351C63.9758 60.0691 63.6074 59.8534 63.2891 59.5712C62.8872 59.2226 62.569 58.7911 62.3847 58.2433C61.8823 56.7495 61.4468 53.7618 62.1167 50.6081C62.1167 50.6081 55.3671 49.7782 53.91 49.0479C53.8095 48.0022 53.6923 46.9897 53.5583 46.0768C53.5415 45.9108 53.5248 45.7448 53.5248 45.5623C53.843 45.7448 54.2115 45.8444 54.5799 45.8444C54.9149 45.8444 55.2164 45.7614 55.5179 45.612C56.104 45.3133 56.506 44.7655 56.6233 44.1182C56.707 43.7032 56.6568 43.2717 56.4893 42.8899C56.4893 42.8899 56.4893 42.8899 56.4893 42.8733C56.9415 42.7903 57.4439 42.7239 57.9966 42.6576C58.9178 42.558 59.7552 42.5082 60.5256 42.5082C67.7275 42.5082 68.3137 46.4254 68.3137 46.4254C69.4358 50.5915 66.0694 52.4671 66.0694 52.4671C66.0694 52.4671 65.299 56.2681 67.0073 57.7122L66.9738 57.762ZM49.2372 63.1564C49.2372 63.2726 49.3042 64.1689 49.9406 65.1316C49.5889 65.0486 49.2707 64.9988 48.9692 64.9656C48.3998 63.4718 47.1269 62.5921 45.4353 62.5921C44.0954 62.5921 42.722 63.1564 41.9181 64.0195L40.9467 64.1523C40.8797 63.7374 40.8295 63.0236 40.8965 61.8452C40.9132 61.397 41.2649 61.0318 41.7004 60.9655C44.1624 60.6003 45.8707 60.3679 46.4904 60.3347C48.2323 60.2185 50.2086 59.9032 51.6825 58.4591C52.6036 57.5628 53.2401 56.5669 53.5918 55.4548C53.8933 54.5087 54.0272 53.4464 54.0272 51.9858C54.0272 51.4048 54.0105 50.8239 53.977 50.243C54.2282 50.326 54.5297 50.409 54.8647 50.4919C55.6016 50.6745 56.6065 50.8737 57.8291 51.0729C58.9513 51.2555 60.0734 51.4214 60.8606 51.521C60.4587 54.4257 60.8606 57.0815 61.3631 58.5919C61.698 59.5878 62.3847 60.3845 63.3729 60.9323C63.3729 61.9945 63.7078 63.0568 63.7078 63.09C62.9542 62.7083 61.7985 62.2767 60.4586 62.2767C59.906 62.2767 59.3532 62.3597 58.834 62.4925C58.4991 62.5921 58.1809 62.6917 57.8626 62.7747C56.6902 63.1232 55.6016 63.4718 54.446 63.4718C53.2233 63.4718 52.0677 63.09 50.8283 62.2435L49.1032 61.0816L49.1869 63.1564H49.2372ZM55.3839 43.1555C55.7523 43.7198 55.5514 44.4502 54.9987 44.7323C54.8479 44.8153 54.6972 44.8485 54.5464 44.8485C54.178 44.8485 53.8263 44.6493 53.6253 44.334C53.6588 44.1514 53.7258 43.9522 53.776 43.7696C53.9435 43.2717 54.1947 42.7903 54.5464 42.3256C54.9987 41.7281 55.6016 41.1803 56.4055 40.7322C56.5228 40.6658 56.6567 40.5828 56.8075 40.4998C56.2715 41.1471 55.9533 41.6119 55.7523 42.0102C55.5346 42.4086 55.4341 42.7239 55.2834 43.0227C55.3336 43.0725 55.3671 43.1223 55.4006 43.1721L55.3839 43.1555ZM62.1502 36.6988C62.3345 36.5328 62.5187 36.3668 62.7029 36.2008C62.8369 36.2672 62.9542 36.3502 63.0882 36.4166C64.0763 36.9643 65.0142 37.4955 65.3157 37.9436C64.5955 38.8234 63.9591 40.0184 64.2773 41.2633C64.3443 41.5289 64.4615 41.7944 64.6123 42.0268C63.5236 41.7115 62.1837 41.5123 60.5256 41.5123L57.1592 41.7447C57.4439 41.3463 57.8459 40.8649 58.4656 40.2342L60.7769 37.8441H60.7936V37.8275C61.2626 37.4623 61.7148 37.0805 62.1837 36.6822L62.1502 36.6988ZM47.2106 72.2191C45.4855 74.0449 43.1575 74.8914 40.7625 74.8914C36.6591 74.8914 32.4217 72.3851 30.9311 67.9699C30.9311 67.9699 32.9577 68.6505 35.5704 68.9492C35.4532 69.6629 35.5202 70.2937 35.7882 70.858C36.3576 72.0531 37.6138 72.4846 38.5014 72.717L39.6906 73.0158L39.8078 71.8041L39.925 70.6754C40.0255 70.609 40.1428 70.5261 40.2433 70.4431C40.26 70.5427 40.2935 70.6423 40.327 70.7418C40.6117 71.522 41.5161 72.3187 42.5378 72.3187C42.6383 72.3187 42.7388 72.3187 42.8393 72.3021L43.5595 72.9328L44.3299 73.6133L45.0333 72.8498C46.0215 71.7875 46.4234 70.5925 46.1722 69.497C46.0885 69.1484 45.9545 68.8164 45.7535 68.5177C46.3732 68.5177 46.9259 68.2853 47.3446 67.8537C47.4954 67.6878 47.6461 67.5052 47.7466 67.2894H47.8136L49.4382 67.9699L49.2539 66.2437C49.2539 66.2437 49.2539 66.1275 49.2372 66.0611C49.9574 66.1773 50.8283 66.4429 51.9337 66.8578C52.0844 66.9408 52.2519 67.0072 52.4026 67.057C52.4864 67.0902 52.5534 67.1234 52.6371 67.14C52.2854 67.3392 51.9337 67.5384 51.6155 67.7375C50.0244 68.75 48.9357 69.8455 48.3663 70.9908C48.0145 71.356 47.6293 71.7543 47.2106 72.2025V72.2191ZM59.6212 68.6173C58.4656 69.58 56.8577 69.7791 55.4006 69.8787C50.979 70.2107 49.1702 74.1611 49.1702 74.1611C48.8017 73.2482 48.8687 72.3851 49.2204 71.6049C49.7564 70.4099 50.9623 69.3808 52.2352 68.5841C54.3622 67.2562 56.707 66.5093 56.707 66.5093C56.2883 66.5425 55.9031 66.5591 55.5346 66.5591C54.6134 66.5591 53.8598 66.4429 53.2401 66.2603C52.8883 66.1607 52.5701 66.0279 52.3022 65.8951C50.3426 64.8992 50.2756 63.1232 50.2756 63.1232C51.8332 64.1689 53.2066 64.5341 54.4795 64.5341C56.1208 64.5341 57.6114 63.9531 59.1355 63.5216C59.5877 63.3888 60.0399 63.339 60.4754 63.339C61.7315 63.339 62.8202 63.8038 63.4399 64.1357C62.6527 64.6171 61.9828 65.2312 61.4636 66.0113C61.2626 66.3267 61.0783 66.6421 60.9276 66.9408C60.4251 67.6214 60.1069 68.2189 59.6045 68.6173H59.6212ZM66.9738 67.1068C65.4329 67.4554 63.9926 68.3351 63.5069 69.9119C63.2221 70.8248 63.2724 71.8207 63.3226 72.7668C63.3226 72.7668 60.1739 70.9908 61.8488 67.4886C61.9828 67.2064 62.167 66.891 62.368 66.5757C62.7699 65.9615 63.2556 65.53 63.7078 65.198C63.8753 65.0984 64.0428 65.0154 64.2271 64.9158L64.696 64.6835C65.4999 65.364 66.5886 65.53 67.3925 65.5798L68.6151 65.6628L68.5147 64.4511L68.4142 63.1896C68.5481 63.0734 68.6821 62.9406 68.8161 62.7747C68.8161 62.7747 68.8161 62.7581 68.8329 62.7415C68.8831 62.8909 68.9501 63.0402 69.0339 63.173C69.4023 63.8038 70.2732 64.4345 71.2279 64.4345C71.4791 64.4345 71.7136 64.3847 71.9481 64.3017L72.5008 64.6337C72.5008 64.6337 72.417 64.7001 72.3835 64.7333C70.5915 66.3765 69.2516 66.5591 66.9738 67.0736V67.1068ZM114.489 72.8664C114.489 72.8664 115.394 68.8994 113.467 67.638C110.386 65.6462 108.744 67.3558 105.294 64.7499C105.261 64.7001 105.211 64.6669 105.177 64.6171C103.552 62.9904 101.76 61.9613 100.136 61.4136C99.0136 61.5962 97.7742 61.729 96.4008 61.7954C96.6688 61.7954 96.9368 61.8286 97.2215 61.8618C97.7072 61.9116 98.2264 61.9945 98.7624 62.1107C99.583 62.2933 100.454 62.5755 101.325 62.9904C102.38 63.505 103.435 64.3349 104.423 65.3308C104.49 65.3972 104.541 65.447 104.591 65.5134C106.735 67.8205 106.165 70.0779 106.165 70.0779C106.165 70.0779 103.418 66.4595 99.3151 66.4595C97.3555 66.4595 95.6639 67.1068 94.793 67.5384L94.1565 67.8703L93.5201 67.5384C92.6492 67.1234 90.9576 66.4595 88.998 66.4595C84.8946 66.4595 82.1479 70.0779 82.1479 70.0779C82.1479 70.0779 81.5617 67.8205 83.7222 65.5134C83.7725 65.447 83.8395 65.3972 83.8897 65.3308C84.8779 64.3349 85.933 63.4884 86.9882 62.9904C87.8591 62.5755 88.73 62.2933 89.5507 62.1107C90.0867 61.9945 90.6059 61.9116 91.0916 61.8618C91.3763 61.8286 91.661 61.812 91.929 61.7954C90.5556 61.729 89.3162 61.5962 88.1773 61.4136C86.5527 61.9613 84.7607 62.9738 83.1361 64.6171C83.0858 64.6669 83.0523 64.7001 83.0188 64.7499C79.5686 67.3558 77.9273 65.6462 74.8456 67.638C72.9195 68.8828 73.8239 72.8664 73.8239 72.8664C73.8239 72.8664 69.754 69.8123 73.4387 65.779C74.2091 64.9324 75.147 64.2353 75.8337 63.7706C76.4032 63.3888 76.8051 63.173 76.8051 63.173C76.8051 63.173 76.5204 63.1398 76.085 63.0734C75.8505 63.0402 75.5658 62.9738 75.2643 62.9075C75.214 62.9075 75.147 62.8743 75.08 62.8577C75.2308 62.1439 75.1805 61.4468 74.9293 60.8327C74.8288 60.5837 74.6781 60.3347 74.5106 60.1189C76.1017 60.5505 78.0613 60.8825 80.2888 60.8825C81.143 60.8825 82.0306 60.6999 82.9686 60.6003C83.2868 60.5671 83.6385 60.5505 83.9902 60.5505C84.1075 60.5505 84.2247 60.5505 84.3419 60.5505C83.471 60.2849 82.7006 59.9862 81.9972 59.6874C81.4277 59.7704 80.8583 59.8534 80.2888 59.8534C78.5302 59.8534 76.9559 59.6376 75.5993 59.3222C75.8505 59.0732 76.0012 58.7911 76.1017 58.4757L76.2524 58.5089L77.9608 58.8741L77.4751 57.1976C76.5707 54.044 74.4269 53.712 73.5392 53.712C72.1156 53.712 70.5747 54.5253 69.5531 55.8034L67.3758 56.5337C66.8901 55.654 66.9235 54.0938 67.0575 53.1145C67.4427 52.8323 67.9954 52.3509 68.4979 51.6372C69.2683 50.5583 70.0388 48.7491 69.3688 46.2262C69.3018 45.8942 68.9501 44.6161 67.5767 43.4875L67.828 42.6742L68.0457 41.9604C68.3807 41.8276 68.6486 41.6285 68.8496 41.4127C69.1511 42.0268 69.7373 42.5912 70.4742 42.7737L70.5915 43.4045L70.7757 44.5L71.8643 44.3008C73.3717 44.0186 74.3766 43.0891 74.5608 41.8276C74.6446 41.2633 74.5441 40.6824 74.2929 40.1512C74.8623 40.0184 75.3815 39.7031 75.7667 39.2217L77.1904 40.0184L77.3243 38.3254C77.4416 36.8482 76.9056 35.9187 76.4367 35.4207C75.8337 34.7734 74.9628 34.4082 74.0584 34.4082C73.9579 34.4082 73.8742 34.4082 73.7737 34.4082C73.7904 34.3252 73.8239 34.2422 73.8407 34.1592C73.8909 33.8771 73.8909 33.5949 73.8407 33.3127L74.3264 32.8646L75.3983 31.8687L74.1421 31.1218C73.5057 30.74 72.819 30.5408 72.1323 30.5408C70.9934 30.5408 69.687 31.1218 69.0339 32.682C68.7659 32.3666 68.4142 31.9185 68.0289 31.3043C67.8782 31.0554 67.7275 30.8064 67.5767 30.5574C67.4093 30.2752 67.225 29.9765 67.0408 29.6943C67.5935 27.6361 67.5767 24.8144 66.7561 22.1919L68.8161 20.2499C69.0171 20.4657 69.2683 20.6648 69.5363 20.7976C69.9215 20.9968 70.2732 21.0964 70.6752 21.0964H70.692H71.7806V19.7685C71.7806 19.7685 71.8643 19.7021 71.8978 19.669C72.1993 19.3868 72.3835 19.0382 72.4505 18.6399H73.4554L74.4604 18.6565L74.5106 17.6606C74.5106 17.3618 74.5106 17.0796 74.4436 16.7975H74.8121H75.817L75.8672 15.8016C75.884 15.3534 75.817 14.9218 75.6662 14.5401H75.6997H76.7716L76.7381 13.4778C76.7214 12.6479 76.2859 11.8512 75.5825 11.3532C74.9628 10.9051 74.2594 10.7391 73.7067 10.6893V8.26594H114.64V10.6727C114.087 10.7225 113.35 10.8885 112.714 11.3532C112.01 11.8678 111.575 12.6645 111.558 13.4778L111.525 14.5401H112.597H112.63C112.479 14.9218 112.396 15.3534 112.429 15.8016L112.479 16.7975H113.484H113.853C113.786 17.063 113.769 17.3618 113.786 17.6606L113.836 18.6565H114.841L115.846 18.6399C115.913 19.0216 116.097 19.3868 116.398 19.669C116.432 19.7021 116.482 19.7353 116.516 19.7685V21.0964H117.604H117.621C118.023 21.0964 118.375 20.9968 118.76 20.7976C119.028 20.6483 119.279 20.4657 119.48 20.2499L121.54 22.1919C120.72 24.8144 120.686 27.6361 121.256 29.6943C121.071 29.9765 120.887 30.2752 120.72 30.5574C120.569 30.8064 120.418 31.0554 120.267 31.3043C119.899 31.9019 119.53 32.3832 119.262 32.6986C118.609 31.1218 117.303 30.5408 116.164 30.5408C115.477 30.5408 114.791 30.74 114.154 31.1218L112.898 31.8687L113.97 32.8646L114.456 33.3127C114.405 33.5783 114.405 33.8605 114.456 34.1592C114.456 34.2422 114.489 34.3252 114.523 34.4082C114.422 34.4082 114.338 34.4082 114.238 34.4082C113.317 34.4082 112.446 34.7734 111.86 35.4207C111.391 35.9353 110.855 36.8482 110.972 38.3254L111.106 40.0184L112.53 39.2217C112.915 39.6865 113.434 40.0018 114.003 40.1512C113.752 40.6824 113.652 41.2467 113.735 41.8276C113.92 43.1057 114.925 44.0352 116.432 44.3008L117.521 44.5L117.705 43.4045L117.822 42.7737C118.576 42.5746 119.162 42.0268 119.447 41.4127C119.648 41.6285 119.916 41.811 120.251 41.9604L120.435 42.558L120.468 42.6742L120.72 43.4875C119.346 44.6327 118.994 45.8942 118.927 46.2262C118.258 48.7491 119.028 50.5583 119.798 51.6372C120.301 52.3509 120.854 52.8323 121.239 53.1145C121.373 54.0938 121.406 55.654 120.921 56.5337L118.743 55.8034C117.705 54.5253 116.181 53.712 114.757 53.712C113.869 53.712 111.726 54.044 110.821 57.1976L110.336 58.8741L112.044 58.5089L112.195 58.4757C112.295 58.7745 112.446 59.0732 112.697 59.3222C111.34 59.621 109.766 59.8534 108.007 59.8534C107.438 59.8534 106.869 59.7704 106.299 59.6874C105.596 59.9862 104.825 60.2849 103.954 60.5505C104.072 60.5505 104.172 60.5505 104.289 60.5505C104.641 60.5505 104.993 60.5671 105.311 60.6003C106.249 60.7165 107.137 60.8825 107.991 60.8825C110.218 60.8825 112.178 60.5505 113.769 60.1189C113.601 60.3347 113.451 60.5671 113.35 60.8327C113.099 61.4468 113.049 62.1439 113.2 62.8577C113.133 62.8577 113.082 62.8909 113.015 62.9075C112.714 62.9738 112.429 63.0402 112.195 63.0734C111.742 63.1564 111.474 63.173 111.474 63.173C111.474 63.173 111.876 63.3888 112.446 63.7706C113.133 64.2353 114.054 64.9324 114.841 65.779C118.542 69.8123 114.456 72.8664 114.456 72.8664H114.489ZM124.94 72.7668C124.99 71.8207 125.024 70.8248 124.756 69.9119C124.27 68.3351 122.83 67.472 121.289 67.1068C118.994 66.5757 117.671 66.4097 115.879 64.7665C115.846 64.7333 115.796 64.7001 115.762 64.6669L116.315 64.3349C116.532 64.4179 116.784 64.4677 117.035 64.4677C118.006 64.4677 118.877 63.837 119.229 63.2062C119.313 63.0568 119.38 62.924 119.43 62.7747C119.43 62.7747 119.43 62.7913 119.447 62.8079C119.581 62.9738 119.715 63.1066 119.849 63.2228L119.748 64.4843L119.648 65.696L120.87 65.613C121.674 65.5632 122.746 65.3972 123.567 64.7167L124.036 64.949C124.22 65.0486 124.387 65.1316 124.555 65.2312C125.024 65.5632 125.493 65.9947 125.895 66.6089C126.113 66.9242 126.28 67.223 126.414 67.5218C128.089 71.024 124.94 72.8 124.94 72.8V72.7668ZM139.076 74.1611C139.076 74.1611 137.284 70.2107 132.845 69.8787C131.388 69.7625 129.797 69.5634 128.625 68.6173C128.122 68.2023 127.804 67.6048 127.302 66.9408C127.151 66.6255 126.967 66.3267 126.766 66.0113C126.247 65.2312 125.593 64.6005 124.789 64.1357C125.409 63.8038 126.481 63.339 127.754 63.339C128.189 63.339 128.625 63.3888 129.094 63.5216C130.635 63.9531 132.109 64.5341 133.75 64.5341C135.023 64.5341 136.396 64.1855 137.954 63.1232C137.954 63.1232 137.87 64.8992 135.927 65.8951C135.659 66.0279 135.341 66.1607 134.989 66.2603C134.37 66.4429 133.599 66.5591 132.695 66.5591C132.326 66.5591 131.941 66.5425 131.522 66.5093C131.522 66.5093 133.867 67.2562 135.994 68.5841C137.284 69.3974 138.473 70.4099 139.009 71.6049C139.361 72.3851 139.428 73.2316 139.059 74.1611H139.076ZM147.5 74.8914C145.105 74.8914 142.761 74.0449 141.052 72.2191C140.633 71.7875 140.265 71.3726 139.897 71.0074C139.327 69.8455 138.238 68.7666 136.647 67.7541C136.329 67.555 135.994 67.3558 135.626 67.1566C135.709 67.1234 135.776 67.0902 135.86 67.0736C136.028 67.0072 136.178 66.9408 136.329 66.8744C137.435 66.4429 138.305 66.1939 139.026 66.0777C139.026 66.1441 139.009 66.1939 139.009 66.2603L138.825 67.9865L140.449 67.3226H140.516C140.633 67.5218 140.767 67.7043 140.918 67.8703C141.337 68.3019 141.89 68.5343 142.509 68.5343C142.308 68.833 142.174 69.165 142.091 69.5136C141.839 70.609 142.258 71.8041 143.229 72.8664L143.933 73.6299L144.703 72.9494L145.424 72.3187C145.524 72.3187 145.625 72.3353 145.725 72.3353C146.747 72.3353 147.651 71.5386 147.936 70.7584C147.969 70.6588 148.003 70.5592 148.02 70.4597C148.12 70.5427 148.237 70.6256 148.338 70.692L148.455 71.8207L148.572 73.0324L149.761 72.7336C150.649 72.5178 151.905 72.0697 152.475 70.8746C152.743 70.3103 152.81 69.6796 152.692 68.9658C155.288 68.6671 157.332 67.9865 157.332 67.9865C155.841 72.4183 151.604 74.908 147.5 74.908V74.8914ZM56.305 4.7637C54.7809 5.17866 52.8549 4.7803 52.8549 4.7803C54.0272 5.92558 54.4125 6.62271 54.4125 6.62271C55.9701 6.6891 56.305 5.70981 56.305 4.74711V4.7637ZM131.924 4.7637C131.924 5.70981 132.276 6.7057 133.817 6.63931C133.817 6.63931 134.219 5.94218 135.374 4.7969C135.374 4.7969 133.448 5.17866 131.924 4.7803V4.7637ZM132.845 25.2128C133.113 24.7646 133.381 24.3165 133.649 23.8683C134.085 23.138 134.487 22.3579 134.839 21.5612C135.173 20.7644 135.458 19.9677 135.709 19.1544C135.977 18.3577 136.212 17.5444 136.446 16.7311C136.078 17.4946 135.709 18.2415 135.307 18.9884C134.922 19.7353 134.52 20.4657 134.085 21.1628C133.633 21.8599 133.147 22.5073 132.611 23.138C132.142 23.7023 131.64 24.2833 131.154 24.8476C131.707 24.8808 132.259 24.997 132.845 25.1962V25.2128ZM53.3908 21.5612C53.7258 22.3579 54.1445 23.138 54.5799 23.8683C54.8479 24.3165 55.1159 24.7646 55.3839 25.2128C55.9533 25.0136 56.5228 24.8974 57.0755 24.8642C56.5898 24.2999 56.0873 23.7189 55.6183 23.1546C55.0824 22.5073 54.5967 21.8599 54.1445 21.1794C53.709 20.4823 53.3071 19.7519 52.9218 19.005C52.5366 18.2581 52.1682 17.4946 51.783 16.7477C52.0174 17.561 52.2687 18.3577 52.5199 19.171C52.7879 19.9677 53.0558 20.781 53.3908 21.5778V21.5612ZM53.1396 26.3747C51.8499 24.5322 50.6106 22.6566 49.5722 20.6814C49.0027 19.6026 48.5003 18.4905 48.0983 17.3452C47.6796 16.1999 47.3446 15.0214 47.0766 13.8264C47.2106 15.0546 47.3949 16.2663 47.6796 17.478C47.9643 18.6897 48.3495 19.8681 48.8017 21.03C49.2539 22.1919 49.7731 23.3206 50.3091 24.4327C50.7445 25.3124 51.1968 26.1755 51.649 27.0386C52.0677 26.9058 52.5701 26.69 53.1228 26.3747H53.1396ZM136.547 27.0386C137.016 26.1755 137.468 25.3124 137.887 24.4327C138.439 23.3206 138.959 22.1919 139.394 21.03C139.846 19.8681 140.215 18.6731 140.516 17.478C140.801 16.2663 141.002 15.0546 141.119 13.8264C140.851 15.0214 140.516 16.1999 140.098 17.3452C139.679 18.4905 139.176 19.6026 138.624 20.6814C137.585 22.6566 136.346 24.5322 135.056 26.3747C135.609 26.69 136.111 26.9058 136.53 27.0386H136.547Z" fill="white"/>
<path d="M70.7087 41.9438V45.3133C70.7087 48.8487 71.9314 51.8032 73.9244 54.1768C73.9244 54.1768 73.9579 54.21 73.9579 54.2266C74.0249 54.3095 74.1087 54.3925 74.1757 54.4755C74.1757 54.4921 74.2092 54.5087 74.2259 54.5253C74.3097 54.6249 74.3934 54.7079 74.4771 54.8075C74.5609 54.9071 74.6614 54.9901 74.7451 55.0897C74.7451 55.0897 74.7451 55.0897 74.7619 55.1063C74.8791 55.1727 74.9796 55.2556 75.0801 55.3386C75.2811 55.5046 75.4821 55.7038 75.6495 55.9362C76.9392 57.0649 78.4465 58.011 80.0711 58.8077C80.2554 58.9073 80.4396 59.0069 80.6406 59.0898C83.3203 60.4177 87.2395 61.8618 94.0896 61.8618C100.94 61.8618 104.859 60.4177 107.539 59.0898C107.74 58.9903 107.924 58.8907 108.108 58.8077C109.716 58.0276 111.19 57.0815 112.479 55.986C112.513 55.9362 112.546 55.8864 112.58 55.8366C112.58 55.82 112.613 55.8034 112.63 55.7702C112.647 55.7536 112.664 55.7204 112.697 55.7038C112.714 55.6706 112.747 55.654 112.764 55.6208C112.764 55.6208 112.781 55.5876 112.798 55.5876C112.831 55.5544 112.865 55.5212 112.898 55.488C112.898 55.488 112.898 55.488 112.915 55.4714C112.948 55.4382 112.982 55.405 113.015 55.3718C113.049 55.3386 113.099 55.3054 113.133 55.2722C113.216 55.2059 113.3 55.1561 113.384 55.1063C113.384 55.1063 113.417 55.0897 113.434 55.0731C115.93 52.5501 117.487 49.2803 117.487 45.2801L116.449 45.944C116.298 49.1309 115.075 51.9194 112.781 54.2763C112.697 54.3261 112.613 54.3925 112.53 54.4423L112.513 54.4589C112.463 54.4921 112.412 54.5419 112.362 54.5751C112.362 54.5751 112.362 54.5751 112.345 54.5917C112.295 54.6249 112.262 54.6747 112.211 54.7245C112.211 54.7245 112.195 54.7411 112.178 54.7577C112.144 54.7909 112.094 54.8407 112.061 54.8739C112.061 54.8739 112.027 54.9071 112.01 54.9237C112.01 54.9237 111.943 54.9901 111.91 55.0399C111.893 55.0731 111.86 55.0897 111.843 55.1229V55.1561C111.826 55.1727 111.809 55.2059 111.793 55.2224C111.776 55.239 111.759 55.2722 111.742 55.2888C110.62 56.2349 109.331 57.0815 107.907 57.7952H107.89L107.673 57.9114C107.472 58.011 107.287 58.1105 107.12 58.1935C104.608 59.4384 100.873 60.8493 94.1398 60.8493C87.4069 60.8493 83.672 59.4218 81.1598 58.1935C80.9923 58.1105 80.8248 58.0276 80.6071 57.9114L80.3726 57.7952C78.9155 57.0649 77.6091 56.2183 76.4702 55.2556C76.2692 54.9901 76.0348 54.7577 75.7835 54.5585C75.6663 54.4589 75.5658 54.3925 75.4653 54.3261L75.3816 54.2432C75.3816 54.2432 75.3146 54.1602 75.2643 54.127C75.1806 54.044 75.1136 53.961 75.0298 53.878L74.9963 53.8448C74.9294 53.7452 74.8624 53.6622 74.7954 53.5958L74.7786 53.546C72.8023 51.1891 71.7974 48.4338 71.7974 45.3299V43.6867L70.7757 41.9604L70.7087 41.9438Z" fill="white"/>
<path d="M113.467 55.1063C115.963 52.5833 117.521 49.3135 117.521 45.3133V43.5041H116.499V45.3133C116.499 48.1184 115.661 50.6745 114.037 52.8821L113.467 55.1063Z" fill="white"/>
<path d="M70.7087 19.4366V31.1716C71.0772 31.238 71.4289 31.3873 71.7304 31.6363V19.6358L70.7087 19.42V19.4366Z" fill="white"/>
<path d="M75.0298 16.4489L75.3815 15.287L74.7618 14.0753H113.468L112.848 16.4489H114.372V18.0755H116.398L117.018 20.4325V31.1716H115.494L113.953 31.8853L114.992 33.1799L114.941 34.6738L114.154 35.0887L112.278 35.7029L111.458 37.0473L111.508 38.8566L112.58 38.3918L113.267 39.1221L114.606 39.8856L114.255 41.1803L114.606 42.5746L115.494 43.5041L117.018 43.9522V46.6411L116.398 49.2969L114.724 52.6331L113.468 54.4921L112.697 54.4091L74.7618 16.8472L75.0298 16.4489Z" fill="white"/>
</svg>
