<svg width="163" height="100" viewBox="0 0 163 100" fill="none" xmlns="http://www.w3.org/2000/svg">
<path d="M99.2356 14.1202H99.0111H63.1164H62.961L62.4603 15.1917H99.5118L99.2356 14.1202Z" fill="white"/>
<path d="M104.139 20.5148V33.0104C104.519 33.0795 104.881 33.2351 105.192 33.4943V20.7222L104.139 20.4976V20.5148Z" fill="white"/>
<path d="M81.0724 13.014C82.7697 13.014 84.1456 12.3254 84.1456 11.4759C84.1456 10.6264 82.7697 9.93768 81.0724 9.93768C79.3751 9.93768 77.9991 10.6264 77.9991 11.4759C77.9991 12.3254 79.3751 13.014 81.0724 13.014Z" fill="white"/>
<path d="M72.2843 11.4759L68.8312 9.73029L65.3609 11.4759L68.8312 13.2042L72.2843 11.4759Z" fill="white"/>
<path d="M96.7839 11.4759L93.3308 9.73029L89.8605 11.4759L93.3308 13.2042L96.7839 11.4759Z" fill="white"/>
<path d="M145.869 69.7539C145.869 69.7539 143.815 70.428 141.259 70.7218C142.088 70.0132 142.641 69.0108 142.813 67.8701C142.934 67.0059 142.9 64.5863 142.675 60.715C142.606 59.3323 141.553 58.1916 140.189 58.0188C138.911 57.846 137.858 57.6732 137.15 57.5176C135.683 57.1892 134.889 56.6535 134.785 56.2732C134.647 55.8584 134.664 55.8066 134.716 55.4264C134.733 55.2535 134.768 55.0461 134.802 54.7696C134.837 54.4585 134.854 54.1647 134.906 53.8363C134.958 53.4388 134.992 53.024 135.027 52.6093C135.027 52.592 135.027 52.5574 135.027 52.5401C135.355 52.6093 135.7 52.6438 136.028 52.6438C136.943 52.6438 137.858 52.4019 138.652 51.9007C140.137 50.9847 141 49.4119 140.966 47.6663C140.897 44.9011 139.36 42.9654 137.996 41.2716C137.375 40.4939 136.77 39.7508 136.339 38.973C134.94 36.4497 134.612 33.719 135.372 30.8328C135.683 29.6402 136.46 28.4477 137.288 27.2033C137.461 26.9441 137.634 26.6676 137.806 26.4083C137.927 26.4256 138.048 26.4429 138.169 26.4429C138.687 26.4429 139.119 26.2701 139.429 26.08C141.415 24.8529 142.105 20.8432 142.071 18.5964C142.019 13.8955 140.172 10.508 136.46 8.24396L135.182 7.46623L135.665 8.88343C136.788 12.1499 137.392 14.172 136.684 17.4558C136.46 18.51 136.011 19.5124 135.579 20.4803C134.906 22.0012 134.25 23.4702 134.819 24.6628C134.681 24.8701 134.543 25.0948 134.405 25.3022C133.456 26.7367 132.471 28.223 132.022 29.9859C131.056 33.719 131.505 37.4176 133.317 40.684C133.887 41.721 134.612 42.6197 135.303 43.4839C136.46 44.9356 137.478 46.18 137.513 47.7873C137.513 48.4613 137.099 48.8243 136.857 48.9798C136.373 49.2736 135.804 49.2909 135.303 49.0317C134.906 48.8243 134.526 48.4095 134.284 47.9256C133.904 46.8022 133.421 45.6269 132.765 44.3307C132.178 43.1555 131.539 41.9975 130.918 40.8741C129.778 38.8002 128.69 36.8472 127.896 34.7214C127.292 33.0795 127.223 31.1957 127.257 29.9859C128.121 30.1414 128.88 30.176 129.018 30.176L130.141 30.2106V29.0872C130.123 28.2403 130.779 26.7713 131.539 25.0603C133.628 20.4284 136.788 13.4461 132.73 5.44412C132.696 5.39228 132.679 5.32314 132.644 5.2713C132.817 4.71824 132.869 4.21704 132.851 3.80225C132.834 2.26406 132.074 1.05426 131.384 0.432073L130.9 0L130.296 0.207395C129.899 0.345659 129.519 0.58762 129.139 0.88143C128.88 0.639469 128.552 0.466639 128.172 0.41479C128.069 0.41479 127.965 0.397507 127.827 0.397507C126.152 0.397507 120.058 1.78014 119.263 2.19493L118.849 2.40233L118.711 2.85168L118.417 3.87138C117.071 4.32073 115.845 4.99477 114.93 5.49597C114.809 5.56511 114.688 5.63424 114.567 5.68609L113.877 6.06631L114.032 6.84404C114.049 6.96502 114.654 10.0068 116.415 12.0635L116.501 12.1499C116.104 12.219 115.724 12.2536 115.379 12.2536C114.326 12.2536 113.497 11.9425 113.1 11.3203C112.478 10.3525 112.927 9.3155 113.652 8.77973C113.255 8.6069 112.875 8.5032 112.409 8.5032C112.133 8.5032 111.822 8.53777 111.477 8.62418C110.095 8.93528 109.319 10.0932 109.578 11.4932C109.871 13.1696 111.045 14.2066 113.082 14.2066C113.497 14.2066 113.928 14.172 114.412 14.0856C115.102 13.9646 115.81 13.7572 116.518 13.5325C116.518 13.5671 116.518 13.5844 116.518 13.619C116.346 14.5868 116.19 15.4164 116.725 16.0904C115.241 16.3669 113.894 16.9891 112.754 17.9224C111.822 17.2138 110.562 16.2632 110.372 16.1077C109.629 15.5546 108.939 14.9497 108.196 14.3276C107.903 14.0683 107.592 13.8091 107.281 13.5498C106.642 13.014 105.952 12.461 105.209 11.9425C104.657 11.5623 104.018 11.3203 103.327 11.2339V8.17483C105.52 7.20698 107.057 4.97749 107.057 2.43689C107.057 1.86656 106.988 1.33079 106.832 0.812298H102.188C102.222 1.12339 102.24 1.43448 102.24 1.76286C102.24 4.52813 100.859 6.96502 99.1493 6.96502C97.44 6.96502 96.0588 4.52813 96.0588 1.76286C96.0588 1.43448 96.076 1.12339 96.1105 0.812298H90.2921C90.3266 1.12339 90.3439 1.43448 90.3439 1.76286C90.3439 4.52813 88.9627 6.96502 87.2534 6.96502C85.5441 6.96502 84.1629 4.52813 84.1629 1.76286C84.1629 1.43448 84.1802 1.12339 84.2147 0.812298H78.2064C78.2409 1.12339 78.2582 1.43448 78.2582 1.76286C78.2582 4.52813 76.8769 6.96502 75.1677 6.96502C73.4584 6.96502 72.0772 4.52813 72.0772 1.76286C72.0772 1.43448 72.0944 1.12339 72.129 0.812298H66.4487C66.4832 1.12339 66.5004 1.43448 66.5004 1.76286C66.5004 4.52813 65.1192 6.96502 63.4099 6.96502C61.7007 6.96502 60.3194 4.52813 60.3194 1.76286C60.3194 1.43448 60.3367 1.12339 60.3712 0.812298H55.6578C55.5197 1.3135 55.4506 1.83199 55.4506 2.36776C55.4506 4.82194 56.8836 7.01687 58.9382 8.05385V11.2339C58.2476 11.3203 57.5742 11.5623 57.0045 11.9598C56.2621 12.461 55.5715 13.0313 54.9326 13.5671C54.6219 13.8263 54.3284 14.0856 54.0176 14.3448C53.2752 14.967 52.5846 15.5719 51.8422 16.125C51.6522 16.2632 50.3919 17.2138 49.4595 17.9397C48.32 17.0064 46.9906 16.3842 45.4885 16.1077C46.0237 15.4164 45.8683 14.5868 45.6957 13.6362C45.6957 13.619 45.6957 13.5844 45.6957 13.5498C46.4036 13.7918 47.1114 13.9819 47.8021 14.1029C48.2855 14.1893 48.7171 14.2239 49.1315 14.2239C51.1688 14.2239 52.3428 13.1869 52.6364 11.5104C52.8953 10.1105 52.1184 8.95256 50.7372 8.64147C50.3919 8.57234 50.0811 8.52049 49.8048 8.52049C49.3387 8.52049 48.9588 8.62418 48.5617 8.79701C49.2869 9.33278 49.7358 10.3698 49.1142 11.3376C48.7171 11.9771 47.8711 12.2709 46.8352 12.2709C46.4726 12.2709 46.0928 12.2363 45.7129 12.1672L45.7993 12.0808C47.5603 10.0241 48.1646 6.99959 48.1819 6.86133L48.3373 6.08359L47.6467 5.70337C47.5258 5.63424 47.4049 5.58239 47.2841 5.51326C46.3518 5.01205 45.1432 4.33802 43.7965 3.88866L43.503 2.86897L43.3649 2.41961L42.9505 2.21222C42.1563 1.79743 36.0616 0.41479 34.3869 0.41479C34.266 0.41479 34.1452 0.41479 34.0416 0.432073C33.6617 0.483922 33.3337 0.656752 33.0747 0.898713C32.6949 0.58762 32.2978 0.362942 31.9179 0.224678L31.3136 0.0172829L30.8302 0.449356C30.1396 1.07154 29.3799 2.28135 29.3626 3.81953C29.3626 4.23432 29.4144 4.73552 29.5698 5.28858C29.5353 5.35771 29.5008 5.40956 29.4835 5.46141C25.4261 13.4634 28.5857 20.4457 30.6748 25.0775C31.4345 26.7713 32.1078 28.2403 32.0906 29.1045V30.2279L33.1956 30.1933C33.3164 30.1933 34.0761 30.1587 34.9566 30.0032C34.9912 31.213 34.9394 33.1141 34.3178 34.7387C33.5236 36.8645 32.4359 38.8175 31.2964 40.8914C30.6748 42.0148 30.036 43.1728 29.449 44.348C28.8102 45.6442 28.3095 46.8195 27.9296 47.9429C27.6879 48.4268 27.3253 48.8416 26.911 49.049C26.4103 49.3082 25.8405 49.2909 25.3571 48.9971C25.0981 48.8416 24.6837 48.4786 24.701 47.8046C24.7355 46.2146 25.7369 44.9529 26.911 43.5011C27.6016 42.637 28.3095 41.7556 28.8965 40.7013C30.7093 37.4348 31.1582 33.7363 30.1914 30.0032C29.7425 28.2403 28.7584 26.754 27.8088 25.3195C27.6706 25.1121 27.5325 24.8874 27.3944 24.68C27.9641 23.4875 27.3253 22.0185 26.6347 20.4976C26.2031 19.5297 25.7542 18.5273 25.5297 17.473C24.8219 14.172 25.4261 12.1672 26.5484 8.90071L27.0318 7.48351L25.7542 8.26124C22.0421 10.5253 20.1947 13.9128 20.1429 18.6137C20.1084 20.8605 20.8163 24.8874 22.7845 26.0972C23.0953 26.2873 23.5097 26.4602 24.0449 26.4602C24.1658 26.4602 24.2694 26.4602 24.4075 26.4256C24.5801 26.6849 24.7528 26.9614 24.9254 27.2206C25.7542 28.465 26.5311 29.6575 26.8419 30.85C27.5843 33.7363 27.2563 36.4843 25.875 38.9903C25.4434 39.768 24.8564 40.5112 24.2176 41.2889C22.8536 42.9827 21.317 44.9011 21.2479 47.6836C21.2134 49.4119 22.0767 51.0019 23.5615 51.9179C24.3557 52.4191 25.2708 52.6611 26.1858 52.6611C26.5311 52.6611 26.8592 52.6265 27.1872 52.5574C27.1872 52.5747 27.1872 52.6093 27.1872 52.6265C27.2217 53.0413 27.2563 53.4561 27.3081 53.8536C27.3426 54.182 27.3771 54.4758 27.4117 54.7869C27.4289 55.0634 27.4635 55.2708 27.498 55.4437C27.5498 55.8066 27.567 55.8757 27.4289 56.2905C27.3081 56.6707 26.5311 57.2065 25.0636 57.5349C24.3557 57.6904 23.3025 57.8633 22.0249 58.0361C20.6609 58.2262 19.6077 59.3669 19.5387 60.7322C19.3315 64.6036 19.2797 67.0232 19.4005 67.8874C19.5732 69.028 20.1257 70.0305 20.9544 70.7391C18.3991 70.4452 16.3618 69.7712 16.3446 69.7712L14.29 69.0799L14.9806 71.1366C15.7921 73.5562 17.3287 75.5956 19.4523 77.03C21.4206 78.3608 23.7859 79.0867 26.134 79.0867C29.0001 79.0867 31.6071 78.0152 33.4891 76.0622C33.4891 76.598 33.6099 77.1165 33.8171 77.6522L34.7667 80.02L35.8199 77.7041C35.889 77.5658 37.4946 74.1784 41.3275 73.8846C42.9678 73.7636 44.8324 73.5216 46.2827 72.3118C46.2827 72.7093 46.3172 73.0895 46.4208 73.4698C46.9388 75.6128 48.7862 76.7017 48.8552 76.7362L50.5645 77.7214L50.4609 75.7511C50.4264 74.9042 50.3746 73.9364 50.6163 73.1414C51.0479 71.7069 52.55 71.1711 53.396 70.9637C53.6032 70.9119 53.8104 70.86 54.0003 70.8255C55.3988 70.5144 56.5383 70.2551 57.7124 69.5638C57.2117 70.5489 57.0045 71.5514 57.1081 72.571C57.3498 75.1116 59.4216 76.7017 59.508 76.7708L61.8733 78.5509L61.2172 75.6647C60.9755 74.5586 60.7856 72.0353 61.8043 71.3785C63.0646 70.549 64.0142 70.4453 65.1192 70.3243C66.0343 70.2206 67.0184 70.0996 68.1752 69.5984C67.2774 71.5859 67.6572 73.2105 67.6918 73.2969L68.2443 75.4919L69.6082 73.6772C69.6082 73.6772 72.1807 70.3415 75.8065 70.3415C78.4308 70.3415 80.5545 71.6378 80.5717 71.6551L81.1415 72.0007L81.7112 71.6551C81.7112 71.6551 83.8521 70.3415 86.4765 70.3415C90.1022 70.3415 92.6575 73.6599 92.6747 73.6772L94.0387 75.4919L94.5912 73.2969C94.6085 73.2105 95.0056 71.5859 94.1078 69.5984C95.2645 70.0996 96.2487 70.2206 97.1637 70.3243C98.2687 70.4453 99.2356 70.5662 100.479 71.3785C101.497 72.0526 101.325 74.5586 101.066 75.6647L100.41 78.5509L102.775 76.7708C102.861 76.7017 104.933 75.1116 105.175 72.571C105.278 71.5514 105.071 70.5489 104.571 69.5638C105.745 70.2378 106.884 70.4971 108.283 70.8255C108.473 70.8773 108.68 70.9119 108.887 70.9637C109.733 71.1538 111.235 71.7069 111.667 73.1414C111.908 73.9364 111.857 74.9042 111.822 75.7511L111.718 77.7214L113.428 76.7362C113.428 76.7362 115.361 75.6128 115.862 73.4698C115.948 73.0895 116 72.692 116 72.3118C117.451 73.5216 119.315 73.7463 120.955 73.8846C124.788 74.1784 126.394 77.5658 126.463 77.7041L127.516 80.02L128.466 77.6522C128.673 77.1165 128.794 76.5807 128.794 76.0622C130.676 78.0152 133.283 79.0867 136.149 79.0867C138.497 79.0867 140.862 78.3608 142.831 77.03C144.954 75.5956 146.508 73.5562 147.302 71.1366L147.993 69.0799L145.938 69.7712L145.869 69.7539ZM113.031 13.0832C111.58 13.0832 110.821 12.4956 110.596 11.2512C110.441 10.4216 110.855 9.81671 111.667 9.62659C111.701 9.62659 111.736 9.62659 111.77 9.60931C111.58 10.3179 111.667 11.0956 112.133 11.8561C112.478 12.3919 113.013 12.8067 113.687 13.0486C113.462 13.0832 113.238 13.0832 113.031 13.0832ZM49.9775 11.8561C50.4609 11.1129 50.53 10.3179 50.3401 9.60931C50.3746 9.60931 50.4091 9.60931 50.4437 9.62659C51.2551 9.79942 51.6695 10.4216 51.5141 11.2512C51.2897 12.4956 50.5127 13.0832 49.0797 13.0832C48.8725 13.0832 48.6481 13.0832 48.4236 13.0486C49.097 12.8067 49.6322 12.4091 49.9775 11.8561ZM112.754 19.2705C113.013 19.0112 113.29 18.7693 113.583 18.5446C114.861 17.5595 116.484 16.9546 118.521 16.9546C118.814 16.9546 119.108 16.9546 119.419 16.9891L122.181 15.7275C121.197 15.7448 120.403 15.7793 119.764 15.7793C117.002 15.7793 117.226 15.3991 117.589 13.4634C117.589 13.4634 119.919 14.1029 121.698 14.1029C121.87 14.1029 122.043 14.1029 122.199 14.0856C123.062 14.0165 123.442 13.6362 123.58 13.1696C123.752 12.5474 123.804 11.5796 123.321 10.3698C123.01 9.57475 122.25 8.88343 121.163 8.88343C120.334 8.88343 119.332 9.28094 118.193 10.3179L117.226 11.2858C116.725 10.6981 116.328 10.0241 116.018 9.36735C115.81 8.46864 116.777 7.8983 116.777 7.8983C115.793 8.01928 115.31 6.99959 115.154 6.53295C116.207 5.96261 117.71 5.09847 119.298 4.66639L119.764 3.07636C120.368 2.76527 126.273 1.39992 127.827 1.39992C127.913 1.39992 127.965 1.39992 128.034 1.39992C128.155 1.39992 128.276 1.46905 128.362 1.53818C128.034 1.90112 127.741 2.31591 127.482 2.76527L128.535 3.11093C129.122 2.16037 129.933 1.36535 130.659 1.12339C131.608 1.95297 132.748 4.42443 130.244 7.01687V8.52049L130.676 8.1057C131.28 7.53536 131.712 6.98231 132.04 6.44654C136.822 16.8163 128.967 25.3195 129.018 28.9835C129.018 28.9835 127.378 28.9316 126.256 28.4823C126.256 28.4823 125.755 32.0598 126.86 34.9979C128.138 38.42 130.158 41.4618 131.781 44.711C132.333 45.8171 132.817 46.9405 133.214 48.0984C133.214 48.133 133.231 48.1675 133.248 48.2021C133.576 48.9107 134.129 49.5329 134.75 49.8785C134.768 49.8785 134.802 49.8958 134.819 49.9131C135.631 50.3279 136.581 50.2761 137.375 49.7921C138.152 49.3255 138.566 48.5305 138.549 47.6491C138.497 45.6788 137.34 44.227 136.097 42.6888C135.441 41.8593 134.75 41.0124 134.215 40.0446C132.54 37.02 132.126 33.598 133.024 30.1414C133.438 28.5514 134.371 27.1515 135.268 25.7861C135.476 25.475 135.665 25.1812 135.873 24.8701C135.959 24.7492 136.028 24.6282 136.097 24.5072C135.665 24.1097 135.579 23.6258 135.717 22.9863C135.838 22.3987 136.149 21.6901 136.529 20.8087C136.96 19.8408 137.461 18.7347 137.703 17.5767C138.1 15.7102 138.1 14.2066 137.858 12.7202C138.221 13.3079 138.532 13.93 138.791 14.5695C139.084 15.2954 139.291 16.0558 139.395 16.8509C139.498 17.6459 139.498 18.4582 139.378 19.2705C139.654 18.51 139.826 17.6804 139.878 16.8509C139.93 16.004 139.878 15.1571 139.723 14.3276C139.585 13.5671 139.378 12.8067 139.101 12.0808C140.293 13.8263 140.897 15.9521 140.931 18.51C140.966 21.7246 139.861 24.4208 138.808 25.0603C138.67 25.1467 138.549 25.1985 138.428 25.2331C137.979 25.3368 137.288 25.0257 137.288 25.0257C136.978 25.5442 136.667 26.0108 136.339 26.512C135.458 27.8428 134.63 29.1045 134.267 30.4698C133.456 33.6326 133.801 36.6398 135.337 39.4051C135.821 40.2692 136.46 41.0815 137.099 41.8593C138.411 43.5011 139.775 45.1949 139.826 47.5972C139.861 48.9453 139.188 50.1724 138.031 50.881C137.409 51.2612 136.684 51.4686 135.959 51.4686C135.631 51.4686 135.286 51.4167 134.958 51.3476C134.664 51.2612 134.371 51.1575 134.094 51.0019C134.008 50.9501 133.922 50.8982 133.835 50.8464C133.887 51.2612 133.904 51.6933 133.887 52.1081C133.887 52.2117 133.887 52.3327 133.87 52.4364C133.818 53.145 133.715 53.8709 133.663 54.5795C133.576 55.4955 133.421 55.5992 133.697 56.4979C134.025 57.5349 135.424 58.1571 136.874 58.4855C137.789 58.6928 139.032 58.883 139.999 59.0039C140.862 59.1249 141.501 59.8335 141.553 60.6977C141.674 62.8235 141.847 66.5911 141.691 67.6454C141.518 68.8034 140.845 69.7885 139.775 70.307C139.844 70.4625 139.913 70.6181 139.982 70.7563C140.137 71.1538 140.258 71.4995 140.31 71.8279C140.655 73.7117 139.308 74.2993 138.1 74.5931L137.945 72.8994C137.945 72.8994 137.599 72.6748 137.53 72.6402C137.427 72.5711 137.306 72.5019 137.219 72.4155C137.012 72.2254 136.943 72.0007 136.909 71.7588C136.909 71.6205 136.891 71.4822 136.891 71.3267C136.891 71.0674 136.84 70.8082 136.701 70.6181C136.632 70.5317 136.563 70.4625 136.442 70.4107C136.339 70.3588 136.235 70.3415 136.132 70.3415C136.011 70.3415 135.907 70.3761 135.804 70.428C135.579 70.5489 135.389 70.7736 135.355 71.0501C135.355 71.1538 135.355 71.2921 135.372 71.4304C135.458 71.9316 135.7 72.6229 135.476 73.2278C135.337 73.6253 134.802 74.1611 134.215 74.1611C134.025 74.1611 133.853 74.1092 133.663 73.9883L132.454 75.0598C130.848 73.2969 131.349 71.6032 133.093 70.8773C133.231 70.8255 133.352 70.7563 133.456 70.6872C133.784 70.4625 133.973 70.1687 133.784 69.8576C133.645 69.6157 133.49 69.5293 133.283 69.5293C132.972 69.5293 132.575 69.7194 131.971 69.9613C131.936 69.9613 131.902 69.9959 131.85 70.0132C131.522 70.1342 131.211 70.2206 130.918 70.2206C130.296 70.2206 129.795 69.8576 129.536 68.8552C129.519 68.7688 129.502 68.6651 129.485 68.5787L129.07 68.7515L128.345 69.0453C128.345 68.9243 128.38 68.7861 128.397 68.6651C128.466 68.2503 128.604 67.9047 128.759 67.6108C129.295 66.6257 130.244 66.2282 131.211 66.2282C132.454 66.2282 133.732 66.8504 134.267 67.6454L136.546 67.9565C137.012 67.3689 137.029 65.6406 136.96 64.2925C136.909 63.3074 136.183 62.5124 135.217 62.3568C133.559 62.1149 131.073 61.7519 130.192 61.6828C128.518 61.5618 126.774 61.268 125.513 60.0409C123.787 58.3299 123.407 56.5498 123.407 54.0783C123.407 53.266 123.442 52.4537 123.511 51.6241C123.562 50.9155 123.649 50.2069 123.718 49.5156C123.77 49.049 123.839 48.5823 123.908 48.1157C123.977 47.6836 123.977 47.217 123.942 46.7676C123.942 46.5948 123.908 46.4392 123.873 46.2664C123.787 45.7652 123.649 45.2813 123.459 44.7801C123.252 44.2616 122.958 43.7777 122.613 43.311C122.06 42.5852 121.335 41.9457 120.42 41.4272C120.092 41.2371 119.695 41.0124 119.281 40.7532C118.866 40.4939 118.417 40.2174 117.951 39.889C116.812 39.1286 115.551 38.178 114.377 37.0892C114.464 37.0373 114.55 36.9855 114.636 36.9336C115.068 36.6744 116.259 35.793 117.381 34.8597C117.658 34.635 117.899 34.4276 118.124 34.2202L117.053 33.6499C115.81 34.7041 114.429 35.7411 114.067 35.9485C113.894 36.0522 113.721 36.1559 113.549 36.2596C113.221 36.4497 112.892 36.6398 112.582 36.8127C110.769 37.8496 109.474 38.5582 109.508 39.768C111.753 42.1876 110.527 43.6221 109.284 44.0542L108.87 42.7234C107.557 42.4987 107.575 41.5309 107.523 40.7877C107.488 40.3902 107.178 40.1655 106.867 40.1655C106.608 40.1655 106.349 40.3384 106.332 40.7359C106.297 41.1679 106.332 41.6173 106.211 42.3259C106.124 42.8098 105.606 43.4666 104.864 43.4666C104.743 43.4666 104.622 43.4666 104.502 43.4147L104.225 44.9875C101.67 44.5036 101.946 41.963 103.673 41.0988C104.657 40.5976 104.968 40.2347 104.674 39.8544C104.588 39.7508 104.484 39.6989 104.363 39.6989C104.001 39.6989 103.466 40.0964 102.948 40.4766C102.723 40.6495 102.43 40.7359 102.119 40.7359C101.446 40.7359 100.72 40.3038 100.41 39.2841L99.4773 39.8026C99.3219 37.8842 100.513 36.9336 101.722 36.9336C102.292 36.9336 102.879 37.141 103.327 37.5558C103.5 37.7114 103.673 37.7805 103.845 37.7805C104.398 37.7805 104.778 37.0892 104.035 36.6917C103.327 36.3114 102.654 35.1362 103.31 34.393L102.24 33.3906C102.723 33.0968 103.241 32.9586 103.725 32.9586C104.795 32.9586 105.779 33.6499 106.09 35.2226C106.159 35.5856 106.314 35.7238 106.522 35.7238C107.109 35.7238 108.145 34.4622 108.921 33.2178C109.111 32.924 109.284 32.6129 109.457 32.3191C109.681 31.9216 109.923 31.5414 110.182 31.1611C110.51 30.6772 110.855 30.2106 111.287 29.7958C112.012 29.0699 113.272 27.8082 114.723 26.9614C115.068 26.7713 115.43 26.5812 115.793 26.4256C116.225 25.8553 116.656 25.2677 117.036 24.6628C118.055 23.1073 118.901 21.4481 119.384 19.7025C118.59 21.3444 117.485 22.7789 116.259 24.0578C115.689 24.6627 115.102 25.2158 114.481 25.7689C112.806 26.633 111.408 28.0329 110.579 28.8452L110.458 28.9662C110.216 29.2082 109.992 29.4501 109.802 29.7094C109.526 28.0156 109.595 25.9244 110.13 23.9369C110.234 23.5566 110.354 23.1591 110.493 22.7962C110.993 21.4654 111.701 20.221 112.685 19.2359L112.754 19.2705ZM119.212 12.4091C119.868 12.1845 120.524 12.0116 121.145 12.0116C121.663 12.0116 122.147 12.1326 122.596 12.3919C122.596 12.5993 122.544 12.7721 122.527 12.8585V12.8758C122.527 12.8758 122.44 12.9622 122.095 12.9968C121.974 12.9968 121.836 12.9968 121.681 12.9968C121.007 12.9968 120.248 12.8931 119.574 12.7721C118.901 12.6684 117.882 12.4437 117.882 12.4437C117.779 11.8907 117.865 11.303 118.072 11.3203C118.348 11.3549 118.504 11.9425 119.229 12.3746L119.212 12.4091ZM118.504 11.545L118.918 11.1129C119.954 10.1796 120.696 9.97225 121.128 9.97225C121.905 9.97225 122.216 10.5772 122.285 10.7673C122.354 10.9401 122.406 11.1129 122.458 11.2685C122.043 11.0784 121.594 11.0092 121.128 11.0092C120.299 11.0092 119.402 11.2685 118.486 11.545H118.504ZM125.652 64.8283C124.374 65.6924 123.183 66.1072 121.922 66.1072C120.748 66.1072 119.609 65.7616 118.4 65.3813C118.072 65.2776 117.744 65.174 117.399 65.0875C116.864 64.932 116.294 64.8629 115.724 64.8629C114.343 64.8629 113.151 65.3122 112.375 65.7097C112.461 65.4159 112.737 64.3098 112.737 63.4629C113.756 62.8926 114.464 62.0803 114.809 61.026C115.327 59.4533 115.741 56.6707 115.327 53.6635C116.138 53.5598 117.295 53.387 118.452 53.1969C119.712 52.9895 120.748 52.7821 121.508 52.592C121.87 52.5056 122.164 52.4191 122.423 52.3327C122.388 52.9376 122.371 53.5425 122.371 54.1474C122.371 55.6511 122.509 56.7744 122.82 57.7596C123.2 58.9348 123.839 59.9545 124.788 60.8878C126.308 62.3914 128.345 62.7198 130.141 62.8408C130.779 62.8926 132.54 63.1173 135.078 63.4975C135.527 63.5666 135.89 63.9469 135.907 64.4135C135.976 65.6579 135.907 66.401 135.855 66.8158L134.854 66.6776C134.025 65.7789 132.61 65.1912 131.228 65.1912C129.484 65.1912 128.172 66.1072 127.585 67.6627C127.275 67.6973 126.929 67.7491 126.584 67.8355C127.24 66.8331 127.292 65.8998 127.309 65.7789L127.395 63.6185L125.617 64.8283H125.652ZM108.317 65.0011C108.214 64.9147 108.11 64.811 108.024 64.7073C108.006 64.6727 107.989 64.6555 107.972 64.6209C107.747 64.2579 107.816 63.8777 107.868 63.4802C107.92 63.0827 107.92 62.6852 107.557 62.426C107.419 62.3223 107.264 62.2704 107.109 62.2704C107.005 62.2704 106.919 62.2877 106.832 62.3223C106.591 62.4087 106.366 62.6161 106.28 62.8926C106.228 63.0309 106.228 63.221 106.228 63.4457C106.228 63.6358 106.228 63.8432 106.228 64.0506C106.228 64.4135 106.194 64.811 106.038 65.1567C106.038 65.1912 106.004 65.2258 105.986 65.2604C105.779 65.606 105.227 66.0381 104.657 66.0381C104.398 66.0381 104.139 65.9517 103.914 65.727L102.412 66.643C102.309 66.4875 102.24 66.3319 102.153 66.1936C101.981 65.8307 101.86 65.5023 101.791 65.174C101.515 63.7222 102.378 62.6679 103.897 62.3223C104.519 62.184 105.019 61.8556 104.83 61.3544C104.709 61.026 104.502 60.9051 104.191 60.9051C103.863 60.9051 103.397 61.026 102.758 61.1643C102.551 61.1989 102.361 61.2334 102.171 61.268C102.015 61.2853 101.86 61.3026 101.722 61.3026C101.048 61.3026 100.617 60.9742 100.617 59.6261L99.3219 59.9027C99.9089 57.846 101.1 57.051 102.343 57.051C103.586 57.051 104.968 57.8978 105.796 59.0558L106.314 59.2286L107.229 59.5397L109.06 60.1619C110.838 58.6583 110.026 54.7005 110.026 54.7005C110.026 54.7005 106.556 52.7475 107.713 48.4095C107.713 48.4095 108.317 44.3307 115.741 44.3307C116.535 44.3307 117.399 44.3826 118.348 44.4863C118.918 44.5554 119.436 44.6245 119.902 44.711C119.902 44.711 119.902 44.711 119.902 44.7282C119.73 45.1257 119.678 45.5751 119.764 46.0072C119.885 46.6812 120.299 47.2515 120.904 47.5626C121.197 47.7182 121.525 47.8046 121.87 47.8046C122.25 47.8046 122.613 47.7009 122.958 47.5108C122.958 47.7009 122.941 47.8737 122.924 48.0466C122.786 49.0144 122.647 50.0514 122.561 51.1402C121.059 51.9007 114.101 52.7648 114.101 52.7648C114.774 56.0486 114.343 59.1595 113.825 60.715C113.635 61.2853 113.307 61.7346 112.892 62.0976C112.564 62.3914 112.185 62.6161 111.753 62.7889C111.667 63.9296 111.58 64.7764 111.373 65.4505C111.321 65.6924 111.235 65.8998 111.131 66.0727C110.613 66.9541 109.543 67.1615 108.576 67.2306L108.732 65.3986C108.732 65.3986 108.403 65.0875 108.352 65.0357L108.317 65.0011ZM110.786 39.5088C111.08 39.0421 112.064 38.5064 113.082 37.9188C113.203 37.8496 113.341 37.7805 113.479 37.6941C113.669 37.8669 113.859 38.0397 114.049 38.2126C114.515 38.6274 114.999 39.0249 115.482 39.4051L115.5 39.4224L117.882 41.9111C118.504 42.5679 118.935 43.0691 119.229 43.4839L115.759 43.2419C114.049 43.2419 112.668 43.4493 111.546 43.7777C111.701 43.5357 111.822 43.2592 111.891 42.9827C112.202 41.6864 111.563 40.4421 110.821 39.5261L110.786 39.5088ZM120.645 43.7431C120.437 43.3456 120.109 42.8444 119.557 42.1704C119.695 42.2568 119.85 42.3432 119.971 42.4123C120.8 42.879 121.422 43.4493 121.888 44.0715C122.25 44.5554 122.492 45.0739 122.682 45.5751C122.751 45.7652 122.803 45.9726 122.837 46.1627C122.63 46.4911 122.268 46.6985 121.888 46.6985C121.732 46.6985 121.577 46.6639 121.422 46.5775C120.852 46.2837 120.627 45.5233 121.024 44.9356C121.059 44.8838 121.094 44.8319 121.145 44.7801C120.99 44.469 120.886 44.1406 120.662 43.7258L120.645 43.7431ZM104.553 12.7894C105.244 13.256 105.9 13.7918 106.539 14.3276C107.575 15.1917 108.576 16.1077 109.664 16.92C110.009 17.1792 111.062 17.9743 111.891 18.6137C111.649 18.873 111.425 19.1322 111.2 19.4087C110.596 20.2038 110.095 21.1025 109.716 22.0357L107.765 20.1865C107.972 19.6507 108.041 19.0285 107.972 18.389C107.972 18.3545 107.972 18.3199 107.972 18.2681L106.936 18.7693C106.97 19.547 106.677 20.3593 105.969 20.7395C105.745 20.8605 105.555 20.9124 105.296 20.9124L105.33 19.9618C104.985 19.9618 104.519 19.5988 104.519 19.0976C104.519 18.5273 104.881 18.2162 105.33 18.0779V16.9718C104.467 17.1274 103.828 17.6459 103.569 18.3545H102.43C102.378 17.5076 102.792 16.7299 103.673 16.4361V15.3127C102.93 15.4682 102.447 15.8312 102.153 16.1595C102.067 16.246 101.998 16.3497 101.912 16.4534H101.048C101.014 15.6411 101.428 14.8979 102.205 14.6386V13.5153C101.722 13.619 101.307 13.8091 100.945 14.1202H100.133C100.133 13.5844 100.461 13.0659 100.893 12.7548C101.273 12.4783 101.756 12.3227 102.24 12.2709C102.395 12.2536 102.551 12.2363 102.706 12.2363C102.913 12.2363 103.12 12.2536 103.31 12.2882C103.759 12.3746 104.191 12.5474 104.571 12.8067L104.553 12.7894ZM102.24 5.8762C102.896 4.75281 103.276 3.31832 103.293 1.83199H105.9C105.917 2.0221 105.935 2.19493 105.935 2.38505C105.935 5.23673 103.656 7.55264 100.841 7.55264H100.651C101.256 7.20698 101.808 6.63665 102.24 5.8762ZM90.3439 5.8762C91 4.75281 91.3798 3.31832 91.3971 1.83199H94.9365C94.9538 3.31832 95.3336 4.75281 95.9897 5.8762C96.4386 6.63665 96.9738 7.20698 97.5781 7.55264H95.2127C94.6085 6.93046 94.1078 6.08359 93.7797 5.08118H92.5884C92.2776 6.08359 91.7769 6.93046 91.1554 7.55264H88.7382C89.3425 7.20698 89.8778 6.63665 90.3267 5.8762H90.3439ZM78.2582 5.8762C78.9142 4.75281 79.2941 3.31832 79.3114 1.83199H83.0407C83.0579 3.31832 83.4378 4.75281 84.0939 5.8762C84.5428 6.63665 85.078 7.1897 85.6823 7.55264H83.1097C82.5054 6.93046 82.0047 6.08359 81.6767 5.08118H80.4854C80.1746 6.08359 79.6739 6.93046 79.0524 7.55264H76.6352C77.2395 7.20698 77.792 6.63665 78.2236 5.8762H78.2582ZM66.5004 5.8762C67.1565 4.75281 67.5364 3.31832 67.5536 1.83199H70.9722C70.9894 3.31832 71.3693 4.75281 72.0254 5.8762C72.4743 6.63665 73.0095 7.20698 73.6138 7.55264H71.1966C70.5923 6.93046 70.0916 6.08359 69.7636 5.08118H68.5723C68.2615 6.08359 67.7608 6.93046 67.1393 7.55264H64.8775C65.4818 7.20698 66.0343 6.63665 66.4659 5.8762H66.5004ZM56.5038 2.31591C56.5038 2.16037 56.5038 2.00482 56.5211 1.83199H59.1972C59.2145 3.31832 59.5943 4.75281 60.2504 5.8762C60.6993 6.63665 61.2345 7.20698 61.8388 7.55264H61.5798C58.8174 7.55264 56.4865 5.15031 56.4865 2.31591H56.5038ZM52.481 16.92C53.5687 16.1077 54.5701 15.209 55.606 14.3276C56.2448 13.7918 56.9009 13.256 57.5915 12.7894C57.9886 12.5128 58.4375 12.34 58.921 12.2709C59.0936 12.2363 59.2835 12.219 59.4734 12.219C59.6461 12.219 59.8188 12.219 60.0087 12.2536C60.4748 12.3227 60.941 12.461 61.3036 12.7375C61.7352 13.0486 62.046 13.5671 62.0632 14.1202H61.2518C60.8892 13.8091 60.4576 13.6017 59.9914 13.5153V14.6386C60.7856 14.8979 61.2 15.6411 61.1482 16.4706H60.2849C60.2159 16.3669 60.1295 16.2632 60.0432 16.1768C59.7497 15.8657 59.249 15.5028 58.5238 15.33V16.4534C59.3871 16.7472 59.8015 17.5249 59.7669 18.389H58.6274C58.3685 17.6632 57.7296 17.1447 56.8664 16.9891V18.0952C57.3153 18.2335 57.6778 18.5446 57.6778 19.1149C57.6778 19.6161 57.2289 19.9791 56.8664 19.9791L56.9009 20.9296C56.6592 20.9296 56.452 20.8605 56.2276 20.7568C55.5197 20.3766 55.2434 19.547 55.2607 18.7866L54.2248 18.2853C54.2248 18.2853 54.2248 18.3545 54.2248 18.4063C54.1384 19.0458 54.2248 19.668 54.432 20.2038L52.481 22.0703C52.1011 21.137 51.6004 20.2556 50.9961 19.4433C50.7717 19.1668 50.5472 18.8902 50.3055 18.6483C51.1515 18.0088 52.1875 17.2138 52.5328 16.9546L52.481 16.92ZM20.4019 67.7145C20.2465 66.6603 20.4192 62.9099 20.54 60.7668C20.5918 59.9027 21.2479 59.1941 22.0939 59.0731C23.0608 58.9348 24.3039 58.7447 25.219 58.5546C26.6692 58.2435 28.0677 57.604 28.3958 56.567C28.672 55.6683 28.5166 55.5646 28.4303 54.6486C28.3613 53.94 28.2749 53.2142 28.2231 52.5056C28.2231 52.4019 28.2231 52.2809 28.2059 52.1772C28.2059 51.7624 28.2059 51.3303 28.2577 50.9155C28.1713 50.9674 28.085 51.0192 27.9987 51.0711C27.7224 51.2266 27.4289 51.3303 27.1354 51.4167C26.8074 51.5031 26.4793 51.5377 26.134 51.5377C25.4089 51.5377 24.701 51.3476 24.0622 50.9501C22.9054 50.2415 22.232 49.0144 22.2666 47.6663C22.3184 45.264 23.6823 43.5703 24.9945 41.9284C25.6161 41.1507 26.2721 40.3384 26.7556 39.4742C28.2922 36.709 28.6548 33.7017 27.826 30.5389C27.4634 29.1563 26.6347 27.9119 25.7542 26.5812C25.4261 26.08 25.1154 25.6133 24.8046 25.0948C24.8046 25.0948 24.114 25.4059 23.6651 25.3022C23.5442 25.2677 23.4234 25.2158 23.2852 25.1294C22.232 24.4726 21.1098 21.7938 21.1616 18.5792C21.1961 16.0213 21.8004 13.8955 22.9917 12.1499C22.7327 12.8758 22.5083 13.6362 22.3702 14.3967C22.2148 15.2263 22.163 16.0904 22.2148 16.92C22.2666 17.7669 22.4392 18.5792 22.7155 19.3396C22.5946 18.5273 22.5946 17.715 22.6982 16.92C22.8018 16.125 23.009 15.3645 23.3025 14.6386C23.5615 13.9992 23.8723 13.377 24.2348 12.7894C23.9931 14.2757 23.9931 15.7793 24.3902 17.6459C24.6319 18.8038 25.1326 19.9099 25.5643 20.8778C25.9614 21.7592 26.2549 22.4678 26.3757 23.0554C26.5139 23.6949 26.4275 24.1788 25.9959 24.5763C26.065 24.6973 26.1513 24.8183 26.2203 24.9393C26.4103 25.2331 26.6174 25.5442 26.8246 25.8553C27.7224 27.2206 28.6548 28.6205 29.0691 30.2106C29.9669 33.6672 29.5526 37.0892 27.8778 40.1137C27.3426 41.0815 26.652 41.9284 25.9959 42.758C24.7701 44.2962 23.596 45.7479 23.5442 47.7182C23.5269 48.6169 23.9586 49.3946 24.7183 49.8613C25.5125 50.3452 26.4621 50.3798 27.2735 49.9823C27.2908 49.9823 27.3253 49.965 27.3426 49.9477C27.9641 49.6193 28.5166 48.9971 28.8447 48.2712C28.8447 48.2367 28.8619 48.2021 28.8792 48.1675C29.2763 47.0096 29.7597 45.8689 30.3122 44.7801C31.9352 41.5309 33.9552 38.4891 35.2329 35.0671C36.3378 32.129 35.8372 28.5514 35.8372 28.5514C34.7149 29.0008 33.0747 29.0526 33.0747 29.0526C33.1265 25.3886 25.2708 16.8854 30.0533 6.51567C30.3813 7.05144 30.8129 7.60449 31.4172 8.17483L31.8489 8.58962V7.086C29.3454 4.49356 30.5022 2.0221 31.4345 1.19252C32.1424 1.45177 32.9538 2.2295 33.5581 3.18006L34.6113 2.8344C34.3523 2.40233 34.0588 1.98754 33.7308 1.60731C33.8344 1.53818 33.938 1.48633 34.0588 1.46905C34.1106 1.46905 34.1797 1.46905 34.266 1.46905C35.8372 1.46905 41.7419 2.8344 42.3289 3.14549L42.7951 4.73552C44.4008 5.1676 45.8856 6.03174 46.9388 6.60208C46.7661 7.05144 46.2827 8.07113 45.3158 7.96743C45.3158 7.96743 46.2654 8.53777 46.0755 9.43648C45.7647 10.0932 45.3676 10.7673 44.8669 11.3549L43.9001 10.387C42.7606 9.33278 41.7592 8.95256 40.9304 8.95256C39.8427 8.95256 39.083 9.64388 38.7723 10.4389C38.2888 11.6487 38.3406 12.6165 38.5133 13.2387C38.6514 13.7054 39.0312 14.0856 39.8945 14.1547C40.0499 14.1547 40.2226 14.172 40.3952 14.172C42.1735 14.172 44.5044 13.5325 44.5044 13.5325C44.8669 15.4682 45.0914 15.8485 42.3289 15.8485C41.6901 15.8485 40.8959 15.8312 39.9118 15.7966L42.6742 17.0583C42.985 17.041 43.2785 17.0237 43.572 17.0237C45.6094 17.0237 47.2323 17.6286 48.5099 18.6137C48.8034 18.8384 49.0797 19.0804 49.3387 19.3396C50.3228 20.342 51.0307 21.5864 51.5314 22.8999C51.6695 23.2801 51.7904 23.6603 51.8939 24.0406C52.4292 26.0454 52.4982 28.1366 52.222 29.8131C52.0148 29.5538 51.8076 29.3119 51.5659 29.0699L51.445 28.9489C50.6163 28.1366 49.2178 26.7367 47.5431 25.8726C46.9215 25.3195 46.3345 24.7664 45.7647 24.1615C44.5389 22.8653 43.4512 21.4308 42.6397 19.8062C43.1404 21.5518 43.9864 23.2283 44.9878 24.7664C45.3849 25.3713 45.7993 25.959 46.2309 26.5293C46.6107 26.6849 46.9561 26.8577 47.3014 27.0651C48.7689 27.8947 50.012 29.1736 50.7372 29.8995C51.1688 30.3143 51.5141 30.7809 51.8422 31.2648C52.1011 31.6451 52.3256 32.0253 52.5673 32.4228C52.7399 32.7166 52.9299 33.0277 53.1025 33.3215C53.8795 34.5832 54.9154 35.8275 55.5024 35.8275C55.7096 35.8275 55.865 35.672 55.934 35.3263C56.2448 33.7536 57.2289 33.0623 58.2994 33.0623C58.8001 33.0623 59.3181 33.2178 59.7842 33.4943L58.7138 34.4967C59.3526 35.2572 58.6792 36.4151 57.9886 36.7954C57.2462 37.1929 57.6433 37.8842 58.1785 37.8842C58.3512 37.8842 58.5238 37.8151 58.6965 37.6595C59.1454 37.2447 59.7324 37.0373 60.3022 37.0373C61.5108 37.0373 62.7021 37.9706 62.5467 39.9063L61.6143 39.3878C61.3036 40.4075 60.5784 40.8396 59.9051 40.8396C59.5943 40.8396 59.3008 40.7532 59.0763 40.5803C58.5584 40.2001 58.0232 39.8026 57.6606 39.8026C57.5397 39.8026 57.4189 39.8544 57.3498 39.9581C57.0736 40.3384 57.3498 40.7186 58.3512 41.2025C60.095 42.0667 60.3712 44.6073 57.7987 45.0912L57.5225 43.5184C57.4016 43.553 57.2807 43.5703 57.1599 43.5703C56.4175 43.5703 55.8995 42.9135 55.8132 42.4296C55.6923 41.721 55.7269 41.2889 55.6923 40.8396C55.6751 40.4421 55.4161 40.2692 55.1571 40.2692C54.8463 40.2692 54.5355 40.4939 54.501 40.8914C54.4492 41.6346 54.4665 42.6024 53.1543 42.8271L52.7399 44.1579C51.4968 43.7258 50.2537 42.2913 52.5155 39.8717C52.55 38.6446 51.2551 37.936 49.4423 36.9163C49.1315 36.7435 48.8034 36.5534 48.4754 36.3633C48.3028 36.2596 48.1301 36.1559 47.9574 36.0522C47.5949 35.8275 46.1964 34.8078 44.9705 33.7536L43.9001 34.3239C44.1245 34.514 44.3662 34.7214 44.6425 34.9634C45.7475 35.8794 46.9388 36.7781 47.3877 37.0373C47.474 37.0892 47.5603 37.141 47.6467 37.1929C46.4726 38.2817 45.2123 39.2323 44.0727 39.9927C43.6066 40.3038 43.1577 40.5976 42.7433 40.8569C42.3289 41.1161 41.9318 41.3408 41.6038 41.5309C40.6887 42.0494 39.9636 42.6889 39.4111 43.4147C39.0485 43.8814 38.7723 44.3826 38.5651 44.8838C38.3579 45.3677 38.2198 45.8689 38.1507 46.3701C38.1162 46.5429 38.0989 46.6985 38.0817 46.8713C38.0471 47.338 38.0644 47.7873 38.1162 48.2194C38.1852 48.686 38.237 49.1527 38.3061 49.6193C38.3924 50.3279 38.4615 51.0192 38.5133 51.7278C38.5823 52.5574 38.6169 53.3697 38.6169 54.182C38.6169 56.6707 38.237 58.4509 36.5105 60.1446C35.2674 61.3717 33.5236 61.6655 31.8316 61.7865C30.9511 61.8383 28.4821 62.2013 26.8074 62.4605C25.8405 62.5988 25.1154 63.4111 25.0636 64.3962C24.9945 65.727 25.0118 67.4726 25.4779 68.0602L27.757 67.7491C28.2922 66.9541 29.5698 66.3319 30.8129 66.3319C31.7798 66.3319 32.7294 66.7121 33.2646 67.7145C33.42 68.0084 33.5581 68.354 33.6272 68.7688C33.6445 68.8898 33.6617 69.0108 33.679 69.149L32.9538 68.8552L32.5395 68.6824C32.5222 68.7861 32.5049 68.8725 32.4877 68.9589C32.246 69.9613 31.728 70.3243 31.1064 70.3243C30.8129 70.3243 30.5022 70.2378 30.1741 70.1169C30.1396 70.1169 30.1051 70.0823 30.0533 70.065C29.4662 69.8231 29.0519 69.6329 28.7411 69.6329C28.5339 69.6329 28.3785 69.7194 28.2404 69.9613C28.0505 70.2897 28.2404 70.5662 28.5684 70.7909C28.672 70.86 28.8102 70.9292 28.931 70.981C30.6748 71.7069 31.1755 73.4006 29.5698 75.1635L28.3613 74.0919C28.1713 74.2129 27.9814 74.2648 27.8088 74.2648C27.2217 74.2648 26.6865 73.729 26.5484 73.3315C26.3239 72.7266 26.5657 72.0353 26.652 71.5341C26.6692 71.3958 26.6865 71.2575 26.6692 71.1538C26.6347 70.8773 26.4448 70.6526 26.2203 70.5317C26.1168 70.4798 26.0132 70.4453 25.8923 70.4453C25.7887 70.4453 25.6851 70.4625 25.5815 70.5144C25.4779 70.5662 25.3916 70.6354 25.3225 70.7218C25.1672 70.9119 25.1326 71.1711 25.1326 71.4304C25.1326 71.5686 25.1326 71.7242 25.1154 71.8624C25.0808 72.1044 25.0118 72.3291 24.8046 72.5192C24.701 72.6056 24.5974 72.6747 24.4938 72.7439C24.4247 72.7784 24.0967 72.934 24.0794 73.0031L23.9241 74.6968C22.7155 74.403 21.386 73.8154 21.7141 71.9316C21.7659 71.6205 21.8695 71.2575 22.0421 70.86C22.0939 70.7218 22.163 70.5662 22.2493 70.4107C21.1961 69.8922 20.5055 68.9071 20.3329 67.7491L20.4019 67.7145ZM40.9822 12.0116C41.6038 12.0116 42.2426 12.1672 42.916 12.4091C43.6411 11.9598 43.7965 11.3895 44.0727 11.3549C44.2799 11.3376 44.3662 11.9252 44.2627 12.4783C44.2627 12.4783 43.244 12.703 42.5706 12.8067C41.8973 12.9276 41.1376 13.0313 40.4643 13.0313C40.3089 13.0313 40.1708 13.0313 40.0499 13.0313C39.7219 12.9968 39.6183 12.9276 39.6183 12.9104C39.6183 12.9104 39.6183 12.9104 39.6183 12.8931C39.5837 12.7894 39.5492 12.6338 39.5492 12.4264C39.9981 12.1499 40.4815 12.0462 40.9995 12.0462L40.9822 12.0116ZM39.6701 11.2685C39.7046 11.1129 39.7737 10.9401 39.8427 10.7673C39.9118 10.5772 40.2226 9.97225 40.9995 9.97225C41.4484 9.97225 42.1908 10.1624 43.2095 11.1129L43.6238 11.545C42.7088 11.2512 41.811 11.0092 40.9822 11.0092C40.5161 11.0092 40.0844 11.0956 39.6528 11.2685H39.6701ZM53.0853 60.1446L54.9154 59.5224L55.8304 59.2113L56.3484 59.0385C57.1771 57.8633 58.5238 57.0164 59.8015 57.0164C61.0791 57.0164 62.2359 57.8114 62.8229 59.8681L61.528 59.5916C61.528 60.9223 61.0964 61.268 60.423 61.268C60.2849 61.268 60.1295 61.268 59.9741 61.2334C59.7842 61.1989 59.5943 61.1643 59.3871 61.1297C58.7483 61.0088 58.2821 60.8705 57.9541 60.8705C57.6433 60.8705 57.4361 60.9915 57.3153 61.3199C57.1426 61.8211 57.626 62.1322 58.2476 62.2877C59.767 62.6334 60.6302 63.7049 60.354 65.1394C60.2849 65.4678 60.1813 65.7961 59.9914 66.1591C59.9223 66.3146 59.836 66.4529 59.7324 66.6084L58.2303 65.6924C58.0059 65.9171 57.7469 66.0035 57.4879 66.0035C56.9182 66.0035 56.3657 65.5887 56.1585 65.2258C56.1412 65.1912 56.124 65.1567 56.1067 65.1221C55.934 64.7764 55.9168 64.3789 55.9168 64.016C55.9168 63.8086 55.9168 63.6012 55.9168 63.4111C55.9168 63.1864 55.9168 62.9963 55.865 62.858C55.7787 62.5815 55.5542 62.3914 55.3125 62.2877C55.2262 62.2531 55.1226 62.2359 55.0362 62.2359C54.8809 62.2359 54.7255 62.2877 54.5873 62.3914C54.2248 62.6506 54.2248 63.0482 54.2766 63.4457C54.3284 63.8605 54.3974 64.2407 54.173 64.5863C54.173 64.6209 54.1384 64.6382 54.1212 64.6727C54.0349 64.7764 53.9313 64.8801 53.8277 64.9666C53.7586 65.0184 53.4478 65.2431 53.4478 65.3295L53.6032 67.1615C52.6364 67.0924 51.5659 66.885 51.0479 66.0035C50.9443 65.8307 50.858 65.606 50.8062 65.3813C50.6163 64.7073 50.53 63.8777 50.4264 62.7198C49.9948 62.5469 49.6149 62.3223 49.2869 62.0285C48.8725 61.6655 48.5445 61.2162 48.3545 60.6458C47.8366 59.0904 47.3877 55.9794 48.0783 52.6957C48.0783 52.6957 41.1204 51.8315 39.6183 51.0711C39.5147 49.9822 39.3938 48.928 39.2557 47.9774C39.2384 47.8046 39.2212 47.6318 39.2212 47.4417C39.5492 47.6318 39.9291 47.7355 40.3089 47.7355C40.6542 47.7355 40.965 47.6491 41.2757 47.4935C41.88 47.1824 42.2944 46.6121 42.4153 45.938C42.5016 45.506 42.4498 45.0566 42.2771 44.6591C42.2771 44.6591 42.2771 44.6591 42.2771 44.6418C42.7433 44.5554 43.2613 44.4863 43.831 44.4171C44.7806 44.3134 45.6439 44.2616 46.4381 44.2616C53.8622 44.2616 54.4665 48.3404 54.4665 48.3404C55.6233 52.6784 52.1529 54.6314 52.1529 54.6314C52.1529 54.6314 51.3587 58.5892 53.1198 60.0928L53.0853 60.1446ZM34.8012 65.7616C34.8012 65.8826 34.8703 66.8158 35.5264 67.8182C35.1638 67.7318 34.8358 67.68 34.525 67.6454C33.938 66.0899 32.6258 65.174 30.882 65.174C29.5008 65.174 28.085 65.7616 27.2563 66.6603L26.2549 66.7985C26.1858 66.3665 26.134 65.6233 26.2031 64.3962C26.2203 63.9296 26.5829 63.5494 27.0318 63.4802C29.5698 63.1 31.3309 62.858 31.9697 62.8235C33.7653 62.7025 35.8026 62.3741 37.322 60.8705C38.2716 59.9372 38.9277 58.9002 39.2902 57.7423C39.601 56.7572 39.7391 55.6511 39.7391 54.1302C39.7391 53.5252 39.7219 52.9203 39.6873 52.3154C39.9463 52.4019 40.2571 52.4883 40.6024 52.5747C41.3621 52.7648 42.398 52.9722 43.6584 53.1796C44.8151 53.3697 45.9719 53.5425 46.7834 53.6462C46.369 56.6707 46.7834 59.436 47.3014 61.0088C47.6467 62.0457 48.3545 62.8753 49.3732 63.4457C49.3732 64.5518 49.7185 65.6579 49.7185 65.6924C48.9416 65.2949 47.7503 64.8456 46.369 64.8456C45.7993 64.8456 45.2295 64.932 44.6943 65.0703C44.349 65.174 44.0209 65.2776 43.6929 65.3641C42.4843 65.727 41.3621 66.09 40.1708 66.09C38.9104 66.09 37.7191 65.6924 36.4414 64.811L34.6631 63.6012L34.7494 65.7616H34.8012ZM41.1376 44.9356C41.5175 45.5233 41.3103 46.2837 40.7405 46.5775C40.5851 46.6639 40.4297 46.6985 40.2744 46.6985C39.8945 46.6985 39.5319 46.4911 39.3248 46.1627C39.3593 45.9726 39.4283 45.7652 39.4801 45.5751C39.6528 45.0566 39.9118 44.5554 40.2744 44.0715C40.7405 43.4493 41.3621 42.879 42.1908 42.4123C42.3117 42.3432 42.4498 42.2568 42.6052 42.1704C42.0527 42.8444 41.7246 43.3283 41.5175 43.7431C41.293 44.1579 41.1894 44.4863 41.034 44.7974C41.0858 44.8492 41.1204 44.9011 41.1549 44.9529L41.1376 44.9356ZM48.1128 38.2126C48.3027 38.0397 48.4927 37.8669 48.6826 37.6941C48.8207 37.7632 48.9416 37.8496 49.0797 37.9188C50.0983 38.4891 51.0652 39.0421 51.376 39.5088C50.6336 40.4248 49.9775 41.6692 50.3055 42.9654C50.3746 43.2419 50.4954 43.5184 50.6508 43.7604C49.5286 43.432 48.1474 43.2246 46.4381 43.2246L42.9677 43.4666C43.2613 43.0518 43.6756 42.5506 44.3145 41.8938L46.6971 39.4051H46.7143V39.3878C47.1978 39.0076 47.6639 38.6101 48.1474 38.1953L48.1128 38.2126ZM32.7121 75.1981C30.9338 77.0992 28.5339 77.9806 26.065 77.9806C21.8349 77.9806 17.4668 75.3709 15.9302 70.7736C15.9302 70.7736 18.0193 71.4822 20.7127 71.7933C20.5918 72.5365 20.6609 73.1932 20.9371 73.7809C21.5242 75.0252 22.8191 75.4746 23.7341 75.7165L24.96 76.0276L25.0808 74.766L25.2017 73.5907C25.3053 73.5216 25.4261 73.4352 25.5297 73.3488C25.547 73.4525 25.5815 73.5562 25.6161 73.6599C25.9096 74.4722 26.8419 75.3018 27.8951 75.3018C27.9987 75.3018 28.1023 75.3018 28.2059 75.2845L28.9483 75.9412L29.7425 76.6498L30.4676 75.8548C31.4863 74.7487 31.9007 73.5043 31.6417 72.3637C31.5553 72.0007 31.4172 71.6551 31.21 71.344C31.8489 71.344 32.4186 71.102 32.8503 70.6526C33.0056 70.4798 33.161 70.2897 33.2646 70.065H33.3337L35.0084 70.7736L34.8185 68.9762C34.8185 68.9762 34.8185 68.8552 34.8012 68.7861C35.5436 68.9071 36.4414 69.1836 37.581 69.6157C37.7363 69.7021 37.909 69.7712 38.0644 69.8231C38.1507 69.8576 38.2198 69.8922 38.3061 69.9095C37.9435 70.1169 37.581 70.3243 37.2529 70.5317C35.6127 71.5859 34.4905 72.7266 33.9034 73.9191C33.5409 74.2993 33.1438 74.7141 32.7121 75.1808V75.1981ZM45.5058 71.4477C44.3144 72.4501 42.657 72.6575 41.1549 72.7612C36.5968 73.1068 34.7322 77.2202 34.7322 77.2202C34.3523 76.2696 34.4214 75.3709 34.784 74.5586C35.3365 73.3142 36.5796 72.2427 37.8917 71.4131C40.0844 70.0305 42.5016 69.2527 42.5016 69.2527C42.07 69.2873 41.6729 69.3046 41.293 69.3046C40.3434 69.3046 39.5665 69.1836 38.9277 68.9935C38.5651 68.8898 38.237 68.7515 37.9608 68.6133C35.9408 67.5763 35.8717 65.727 35.8717 65.727C37.4774 66.8158 38.8931 67.1961 40.2053 67.1961C41.8973 67.1961 43.4339 66.5911 45.0051 66.1418C45.4712 66.0035 45.9374 65.9517 46.3863 65.9517C47.6812 65.9517 48.8034 66.4356 49.4423 66.7813C48.6308 67.2825 47.9402 67.9219 47.4049 68.7342C47.1978 69.0626 47.0078 69.391 46.8525 69.7021C46.3345 70.4107 46.0065 71.0329 45.4885 71.4477H45.5058ZM53.0853 69.8749C51.4968 70.2378 50.012 71.1538 49.5113 72.7957C49.2178 73.7463 49.2696 74.7833 49.3214 75.7684C49.3214 75.7684 46.0755 73.9191 47.8021 70.2724C47.9402 69.9786 48.1301 69.6502 48.3373 69.3219C48.7516 68.6824 49.2523 68.233 49.7185 67.8874C49.8912 67.7837 50.0638 67.6973 50.2537 67.5936L50.7372 67.3516C51.5659 68.0602 52.6882 68.233 53.5169 68.2849L54.7773 68.3713L54.6737 67.1096L54.5701 65.7961C54.7082 65.6752 54.8463 65.5369 54.9844 65.3641C54.9844 65.3641 54.9844 65.3468 55.0017 65.3295C55.0535 65.485 55.1226 65.6406 55.2089 65.7789C55.5887 66.4356 56.4865 67.0924 57.4707 67.0924C57.7296 67.0924 57.9714 67.0405 58.2131 66.9541L58.7828 67.2998C58.7828 67.2998 58.6965 67.3689 58.662 67.4035C56.8146 69.1145 55.4333 69.3046 53.0853 69.8403V69.8749ZM102.067 75.8721C102.067 75.8721 102.999 71.7415 101.014 70.428C97.8371 68.354 96.1451 70.1342 92.5884 67.4207C92.5539 67.3689 92.5021 67.3343 92.4676 67.2825C90.7928 65.5887 88.9454 64.5172 87.2707 63.9469C86.1139 64.137 84.8363 64.2752 83.4205 64.3444C83.6968 64.3444 83.973 64.3789 84.2665 64.4135C84.7672 64.4653 85.3024 64.5518 85.8549 64.6727C86.7009 64.8629 87.5987 65.1567 88.4965 65.5887C89.5842 66.1245 90.672 66.9887 91.6906 68.0256C91.7597 68.0948 91.8115 68.1466 91.8633 68.2158C94.0732 70.6181 93.4862 72.9686 93.4862 72.9686C93.4862 72.9686 90.6547 69.2009 86.4247 69.2009C84.4046 69.2009 82.6608 69.8749 81.763 70.3243L81.1069 70.6699L80.4509 70.3243C79.5531 69.8922 77.8093 69.2009 75.7892 69.2009C71.5592 69.2009 68.7277 72.9686 68.7277 72.9686C68.7277 72.9686 68.1234 70.6181 70.3506 68.2158C70.4024 68.1466 70.4715 68.0948 70.5233 68.0256C71.5419 66.9887 72.6296 66.1072 73.7174 65.5887C74.6152 65.1567 75.513 64.8629 76.359 64.6727C76.9115 64.5518 77.4467 64.4653 77.9474 64.4135C78.2409 64.3789 78.5344 64.3616 78.8107 64.3444C77.3949 64.2752 76.1172 64.137 74.9432 63.9469C73.2685 64.5172 71.4211 65.5715 69.7463 67.2825C69.6945 67.3343 69.66 67.3689 69.6255 67.4207C66.0688 70.1342 64.3768 68.354 61.2 70.428C59.2145 71.7242 60.1468 75.8721 60.1468 75.8721C60.1468 75.8721 55.9513 72.692 59.7497 68.4923C60.5439 67.6108 61.5108 66.885 62.2186 66.401C62.8057 66.0035 63.22 65.7789 63.22 65.7789C63.22 65.7789 62.9265 65.7443 62.4776 65.6752C62.2359 65.6406 61.9424 65.5715 61.6316 65.5023C61.5798 65.5023 61.5108 65.4678 61.4417 65.4505C61.5971 64.7073 61.5453 63.9814 61.2863 63.342C61.1827 63.0827 61.0273 62.8235 60.8547 62.5988C62.4949 63.0481 64.5149 63.3938 66.8112 63.3938C67.6918 63.3938 68.6068 63.2037 69.5737 63.1C69.9017 63.0654 70.2643 63.0481 70.6269 63.0481C70.7477 63.0481 70.8686 63.0481 70.9894 63.0481C70.0916 62.7716 69.2974 62.4605 68.5723 62.1494C67.9853 62.2359 67.3982 62.3223 66.8112 62.3223C64.9984 62.3223 63.3754 62.0976 61.9769 61.7692C62.2359 61.51 62.3913 61.2162 62.4949 60.8878L62.6503 60.9223L64.4113 61.3026L63.9106 59.557C62.9783 56.2732 60.7683 55.9276 59.8533 55.9276C58.3857 55.9276 56.7973 56.7744 55.7441 58.1052L53.4996 58.8657C52.9989 57.9497 53.0335 56.3251 53.1716 55.3054C53.5687 55.0116 54.1384 54.5104 54.6564 53.7672C55.4506 52.6438 56.2448 50.76 55.5542 48.133C55.4851 47.7873 55.1226 46.4565 53.7068 45.2813L53.9658 44.4344L54.1902 43.6913C54.5355 43.553 54.8118 43.3456 55.019 43.1209C55.3298 43.7604 55.934 44.348 56.6937 44.5381L56.8146 45.1949L57.0045 46.3355L58.1267 46.1282C59.6806 45.8343 60.7166 44.8665 60.9065 43.553C60.9928 42.9654 60.8892 42.3605 60.6302 41.8074C61.2172 41.6692 61.7525 41.3408 62.1496 40.8396L63.6171 41.6692L63.7553 39.9063C63.8761 38.3681 63.3236 37.4003 62.8402 36.8818C62.2186 36.2077 61.3208 35.8275 60.3885 35.8275C60.2849 35.8275 60.1986 35.8275 60.095 35.8275C60.1123 35.7411 60.1468 35.6547 60.1641 35.5683C60.2159 35.2745 60.2159 34.9807 60.1641 34.6869L60.6647 34.2202L61.7697 33.1832L60.4748 32.4055C59.8188 32.008 59.1109 31.8006 58.403 31.8006C57.2289 31.8006 55.8822 32.4055 55.2089 34.0301C54.9326 33.7017 54.5701 33.2351 54.173 32.5956C54.0176 32.3364 53.8622 32.0771 53.7068 31.8179C53.5342 31.5241 53.3442 31.213 53.1543 30.9192C53.7241 28.7761 53.7068 25.838 52.8608 23.1073L54.9844 21.0852C55.1916 21.3099 55.4506 21.5173 55.7269 21.6555C56.124 21.8629 56.4865 21.9666 56.9009 21.9666H56.9182H58.0404V20.584C58.0404 20.584 58.1267 20.5148 58.1613 20.4803C58.4721 20.1865 58.662 19.8235 58.731 19.4087H59.7669L60.8029 19.426L60.8547 18.389C60.8547 18.078 60.8547 17.7841 60.7856 17.4903H61.1654H62.2014L62.2532 16.4534C62.2704 15.9867 62.2014 15.5374 62.046 15.1399H62.0805H63.1855L63.151 14.0337C63.1337 13.1696 62.6848 12.34 61.9597 11.8215C61.3208 11.3549 60.5957 11.1821 60.0259 11.1302V8.6069H102.222V11.1129C101.653 11.1648 100.893 11.3376 100.237 11.8215C99.5118 12.3573 99.0629 13.1869 99.0457 14.0337L99.0111 15.1399H100.116H100.151C99.9952 15.5374 99.9089 15.9867 99.9435 16.4534L99.9953 17.4903H101.031H101.411C101.342 17.7669 101.325 18.078 101.342 18.389L101.394 19.426H102.43L103.466 19.4087C103.535 19.8062 103.725 20.1865 104.035 20.4803C104.07 20.5148 104.122 20.5494 104.156 20.584V21.9666H105.278H105.296C105.71 21.9666 106.073 21.8629 106.47 21.6555C106.746 21.5 107.005 21.3099 107.212 21.0852L109.336 23.1073C108.49 25.838 108.455 28.7761 109.042 30.9192C108.852 31.213 108.662 31.5241 108.49 31.8179C108.334 32.0771 108.179 32.3364 108.024 32.5956C107.644 33.2178 107.264 33.719 106.988 34.0474C106.314 32.4055 104.968 31.8006 103.794 31.8006C103.086 31.8006 102.378 32.008 101.722 32.4055L100.427 33.1832L101.532 34.2202L102.033 34.6869C101.981 34.9634 101.981 35.2572 102.033 35.5683C102.033 35.6547 102.067 35.7411 102.102 35.8275C101.998 35.8275 101.912 35.8275 101.808 35.8275C100.859 35.8275 99.9607 36.2077 99.3564 36.8818C98.873 37.4176 98.3205 38.3681 98.4414 39.9063L98.5795 41.6692L100.047 40.8396C100.444 41.3235 100.979 41.6519 101.566 41.8074C101.307 42.3605 101.204 42.9481 101.29 43.553C101.48 44.8838 102.516 45.8516 104.07 46.1282L105.192 46.3355L105.382 45.1949L105.503 44.5381C106.28 44.3307 106.884 43.7604 107.178 43.1209C107.385 43.3456 107.661 43.5357 108.006 43.6913L108.196 44.3134L108.231 44.4344L108.49 45.2813C107.074 46.4738 106.711 47.7873 106.642 48.133C105.952 50.76 106.746 52.6438 107.54 53.7672C108.058 54.5104 108.628 55.0116 109.025 55.3054C109.163 56.3251 109.198 57.9497 108.697 58.8657L106.452 58.1052C105.382 56.7744 103.811 55.9276 102.343 55.9276C101.428 55.9276 99.2183 56.2732 98.286 59.557L97.7853 61.3026L99.5463 60.9223L99.7017 60.8878C99.8053 61.1989 99.9607 61.51 100.22 61.7692C98.8212 62.0803 97.1983 62.3223 95.3854 62.3223C94.7984 62.3223 94.2114 62.2359 93.6243 62.1494C92.8992 62.4605 92.105 62.7716 91.2072 63.0481C91.328 63.0481 91.4316 63.0481 91.5525 63.0481C91.9151 63.0481 92.2776 63.0654 92.6057 63.1C93.5725 63.221 94.4876 63.3938 95.3681 63.3938C97.6644 63.3938 99.6845 63.0481 101.325 62.5988C101.152 62.8235 100.997 63.0654 100.893 63.342C100.634 63.9814 100.582 64.7073 100.738 65.4505C100.669 65.4505 100.617 65.485 100.548 65.5023C100.237 65.5715 99.9435 65.6406 99.7017 65.6752C99.2356 65.7616 98.9593 65.7789 98.9593 65.7789C98.9593 65.7789 99.3737 66.0035 99.9607 66.401C100.669 66.885 101.618 67.6108 102.43 68.4923C106.245 72.692 102.033 75.8721 102.033 75.8721H102.067ZM112.841 75.7684C112.892 74.7833 112.927 73.7463 112.651 72.7957C112.15 71.1538 110.665 70.2551 109.077 69.8749C106.711 69.3219 105.348 69.149 103.5 67.438C103.466 67.4035 103.414 67.3689 103.379 67.3343L103.949 66.9887C104.173 67.0751 104.432 67.1269 104.691 67.1269C105.693 67.1269 106.591 66.4702 106.953 65.8134C107.04 65.6579 107.109 65.5196 107.16 65.3641C107.16 65.3641 107.16 65.3813 107.178 65.3986C107.316 65.5715 107.454 65.7097 107.592 65.8307L107.488 67.1442L107.385 68.4059L108.645 68.3195C109.474 68.2676 110.579 68.0948 111.425 67.3862L111.908 67.6281C112.098 67.7318 112.271 67.8182 112.444 67.9219C112.927 68.2676 113.41 68.7169 113.825 69.3564C114.049 69.6848 114.222 69.9959 114.36 70.307C116.087 73.9537 112.841 75.803 112.841 75.803V75.7684ZM127.413 77.2202C127.413 77.2202 125.565 73.1068 120.99 72.7612C119.488 72.6402 117.848 72.4328 116.639 71.4477C116.121 71.0156 115.793 70.3934 115.275 69.7021C115.12 69.3737 114.93 69.0626 114.723 68.7342C114.187 67.9219 113.514 67.2652 112.685 66.7813C113.324 66.4356 114.429 65.9517 115.741 65.9517C116.19 65.9517 116.639 66.0035 117.122 66.1418C118.711 66.5911 120.23 67.1961 121.922 67.1961C123.234 67.1961 124.65 66.8331 126.256 65.727C126.256 65.727 126.17 67.5763 124.167 68.6133C123.891 68.7515 123.562 68.8898 123.2 68.9935C122.561 69.1836 121.767 69.3046 120.835 69.3046C120.455 69.3046 120.058 69.2873 119.626 69.2527C119.626 69.2527 122.043 70.0305 124.236 71.4131C125.565 72.2599 126.791 73.3142 127.344 74.5586C127.706 75.3709 127.775 76.2523 127.395 77.2202H127.413ZM136.097 77.9806C133.628 77.9806 131.211 77.0992 129.45 75.1981C129.018 74.7487 128.638 74.3166 128.259 73.9364C127.672 72.7266 126.549 71.6032 124.909 70.5489C124.581 70.3415 124.236 70.1342 123.856 69.9268C123.942 69.8922 124.011 69.8576 124.098 69.8403C124.27 69.7712 124.426 69.7021 124.581 69.6329C125.721 69.1836 126.618 68.9243 127.361 68.8034C127.361 68.8725 127.344 68.9243 127.344 68.9935L127.154 70.7909L128.828 70.0996H128.897C129.018 70.307 129.156 70.4971 129.312 70.6699C129.743 71.1193 130.313 71.3612 130.952 71.3612C130.745 71.6723 130.607 72.018 130.52 72.3809C130.261 73.5216 130.693 74.766 131.694 75.8721L132.42 76.6671L133.214 75.9585L133.956 75.3018C134.06 75.3018 134.163 75.319 134.267 75.319C135.32 75.319 136.253 74.4895 136.546 73.6772C136.581 73.5735 136.615 73.4698 136.632 73.3661C136.736 73.4525 136.857 73.5389 136.96 73.608L137.081 74.7833L137.202 76.0449L138.428 75.7338C139.343 75.5091 140.638 75.0425 141.225 73.7981C141.501 73.2105 141.57 72.5538 141.449 71.8106C144.126 71.4995 146.232 70.7909 146.232 70.7909C144.695 75.4054 140.327 77.9979 136.097 77.9979V77.9806ZM42.0872 4.9602C40.5161 5.39228 38.5306 4.97749 38.5306 4.97749C39.7391 6.17001 40.1362 6.89589 40.1362 6.89589C41.7419 6.96502 42.0872 5.94533 42.0872 4.94292V4.9602ZM120.04 4.9602C120.04 5.94533 120.403 6.98231 121.991 6.91317C121.991 6.91317 122.406 6.18729 123.597 4.99477C123.597 4.99477 121.611 5.39228 120.04 4.97749V4.9602ZM120.99 26.2528C121.266 25.7861 121.542 25.3195 121.819 24.8529C122.268 24.0924 122.682 23.2801 123.045 22.4505C123.39 21.621 123.683 20.7914 123.942 19.9445C124.219 19.1149 124.46 18.2681 124.702 17.4212C124.322 18.2162 123.942 18.9939 123.528 19.7717C123.131 20.5494 122.716 21.3099 122.268 22.0357C121.801 22.7616 121.301 23.4357 120.748 24.0924C120.265 24.68 119.747 25.2849 119.246 25.8726C119.816 25.9071 120.386 26.0281 120.99 26.2355V26.2528ZM39.083 22.4505C39.4283 23.2801 39.86 24.0924 40.3089 24.8529C40.5851 25.3195 40.8614 25.7861 41.1376 26.2528C41.7246 26.0454 42.3117 25.9244 42.8814 25.8898C42.3807 25.3022 41.8628 24.6973 41.3793 24.1097C40.8268 23.4357 40.3261 22.7616 39.86 22.053C39.4111 21.3271 38.9967 20.5667 38.5996 19.789C38.2025 19.0112 37.8227 18.2162 37.4256 17.4385C37.6673 18.2853 37.9263 19.1149 38.1852 19.9618C38.4615 20.7914 38.7377 21.6382 39.083 22.4678V22.4505ZM38.8241 27.4626C37.4946 25.5442 36.217 23.5912 35.1465 21.5345C34.5595 20.4111 34.0416 19.2532 33.6272 18.0607C33.1956 16.8681 32.8502 15.6411 32.574 14.3967C32.7121 15.6756 32.902 16.9373 33.1956 18.1989C33.4891 19.4606 33.8862 20.6877 34.3523 21.8975C34.8185 23.1073 35.3537 24.2825 35.9062 25.4405C36.3551 26.3565 36.8213 27.2552 37.2874 28.1539C37.7191 28.0156 38.237 27.791 38.8068 27.4626H38.8241ZM124.806 28.1539C125.289 27.2552 125.755 26.3565 126.187 25.4405C126.757 24.2825 127.292 23.1073 127.741 21.8975C128.207 20.6877 128.587 19.4433 128.897 18.1989C129.191 16.9373 129.398 15.6756 129.519 14.3967C129.243 15.6411 128.897 16.8681 128.466 18.0607C128.034 19.2532 127.516 20.4111 126.946 21.5345C125.876 23.5912 124.598 25.5442 123.269 27.4626C123.839 27.791 124.357 28.0156 124.788 28.1539H124.806Z" fill="white"/>
<path d="M56.9355 43.674V47.1824C56.9355 50.8637 58.1959 53.94 60.2504 56.4115C60.2504 56.4115 60.285 56.4461 60.285 56.4633C60.354 56.5498 60.4404 56.6362 60.5094 56.7226C60.5094 56.7399 60.544 56.7571 60.5612 56.7744C60.6475 56.8781 60.7339 56.9645 60.8202 57.0682C60.9065 57.1719 61.0101 57.2584 61.0964 57.362C61.0964 57.362 61.0964 57.362 61.1137 57.3793C61.2346 57.4485 61.3382 57.5349 61.4417 57.6213C61.6489 57.7941 61.8561 58.0015 62.0288 58.2435C63.3582 59.4187 64.9121 60.4038 66.5868 61.2334C66.7767 61.3371 66.9667 61.4408 67.1738 61.5272C69.9363 62.9099 73.9764 64.4135 81.0379 64.4135C88.0995 64.4135 92.1396 62.9099 94.902 61.5272C95.1092 61.4235 95.2991 61.3198 95.4891 61.2334C97.1465 60.4211 98.6659 59.436 99.9953 58.2953C100.03 58.2435 100.064 58.1916 100.099 58.1398C100.099 58.1225 100.133 58.1052 100.151 58.0706C100.168 58.0534 100.185 58.0188 100.22 58.0015C100.237 57.9669 100.272 57.9497 100.289 57.9151C100.289 57.9151 100.306 57.8805 100.323 57.8805C100.358 57.846 100.392 57.8114 100.427 57.7768C100.427 57.7768 100.427 57.7768 100.444 57.7596C100.479 57.725 100.513 57.6904 100.548 57.6559C100.582 57.6213 100.634 57.5867 100.669 57.5522C100.755 57.483 100.841 57.4312 100.928 57.3793C100.928 57.3793 100.962 57.362 100.979 57.3448C103.552 54.7178 105.158 51.313 105.158 47.1478L104.087 47.8391C103.932 51.1575 102.671 54.061 100.306 56.5152C100.22 56.567 100.133 56.6362 100.047 56.688L100.03 56.7053C99.978 56.7399 99.9263 56.7917 99.8745 56.8263C99.8745 56.8263 99.8745 56.8263 99.8572 56.8436C99.8054 56.8781 99.7709 56.93 99.7191 56.9818C99.7191 56.9818 99.7018 56.9991 99.6845 57.0164C99.65 57.051 99.5982 57.1028 99.5637 57.1374C99.5637 57.1374 99.5292 57.1719 99.5119 57.1892C99.5119 57.1892 99.4428 57.2583 99.4083 57.3102C99.391 57.3448 99.3565 57.3621 99.3392 57.3966V57.4312C99.322 57.4485 99.3047 57.483 99.2874 57.5003C99.2702 57.5176 99.2529 57.5522 99.2356 57.5694C98.0789 58.5546 96.7494 59.436 95.2819 60.1792H95.2646L95.0401 60.3001C94.833 60.4038 94.643 60.5075 94.4704 60.594C91.8806 61.8902 88.0304 63.3592 81.0897 63.3592C74.1491 63.3592 70.2989 61.8729 67.7091 60.594C67.5364 60.5075 67.3638 60.4211 67.1393 60.3001L66.8976 60.1792C65.3955 59.4187 64.0488 58.5373 62.8748 57.5349C62.6676 57.2583 62.4259 57.0164 62.1669 56.809C62.046 56.7053 61.9424 56.6362 61.8389 56.567L61.7525 56.4806C61.7525 56.4806 61.6835 56.3942 61.6317 56.3596C61.5453 56.2732 61.4763 56.1868 61.39 56.1004L61.3554 56.0658C61.2864 55.9621 61.2173 55.8757 61.1482 55.8066L61.131 55.7547C59.0937 53.3006 58.0577 50.4316 58.0577 47.1997V45.4887L57.0045 43.6912L56.9355 43.674Z" fill="white"/>
<path d="M101.014 57.3793C103.586 54.7523 105.192 51.3476 105.192 47.1824V45.2986H104.139V47.1824C104.139 50.1032 103.276 52.7648 101.601 55.0634L101.014 57.3793Z" fill="white"/>
<path d="M56.9355 20.2383V32.4574C57.3153 32.5265 57.6779 32.682 57.9887 32.9413V20.4457L56.9355 20.221V20.2383Z" fill="white"/>
<path d="M61.3899 17.1274L61.7525 15.9176L61.1136 14.6559H101.014L100.375 17.1274H101.946V18.8211H104.035L104.674 21.2753V32.4574H103.103L101.515 33.2005L102.585 34.5486L102.533 36.1041L101.722 36.5361L99.7881 37.1756L98.9421 38.5755L98.9939 40.4594L100.099 39.9754L100.807 40.7359L102.188 41.5309L101.825 42.879L102.188 44.3307L103.103 45.2986L104.674 45.7652V48.5651L104.035 51.3303L102.309 54.8042L101.014 56.7399L100.22 56.6535L61.1136 17.5422L61.3899 17.1274Z" fill="white"/>
<path d="M37.5651 89.1433C36.2161 89.1433 35.213 89.6622 34.5557 90.6999C33.9504 89.6622 33.0165 89.1433 31.7712 89.1433C30.526 89.1433 29.592 89.6276 28.9694 90.5788V89.4027H26.8421V99.2091H28.9694V93.7092C28.9694 92.8618 29.1769 92.2218 29.5747 91.7722C29.9725 91.3398 30.5087 91.115 31.1486 91.115C31.7366 91.115 32.1863 91.3052 32.5149 91.6684C32.8435 92.0489 32.9992 92.5677 32.9992 93.2423V99.1918H35.1265V93.6919C35.1265 92.8272 35.3167 92.1873 35.6972 91.7549C36.0777 91.3225 36.5966 91.115 37.2538 91.115C37.8418 91.115 38.3088 91.3052 38.6547 91.6684C39.0006 92.0489 39.1736 92.5677 39.1736 93.2423V99.1918H41.3009V93.1039C41.3009 91.8932 40.955 90.9247 40.2805 90.1983C39.5714 89.5065 38.672 89.1433 37.5651 89.1433Z" fill="white"/>
<path d="M151.056 89.1433C149.672 89.1433 148.652 89.6448 148.012 90.648V85.4594H145.885V99.1918H148.012V93.934C148.012 92.9828 148.237 92.2737 148.704 91.8067C149.154 91.3398 149.759 91.1149 150.503 91.1149C151.177 91.1149 151.713 91.3052 152.111 91.703C152.509 92.1008 152.699 92.6542 152.699 93.3979V99.2091H154.826V93.1904C154.826 91.9278 154.48 90.942 153.789 90.2329C153.08 89.5065 152.18 89.1433 151.056 89.1433Z" fill="white"/>
<path d="M7.19479 94.1243H11.7953C11.5878 95.0755 11.1035 95.8365 10.3252 96.4073C9.56423 96.978 8.56111 97.2547 7.35045 97.2547C5.82847 97.2547 4.60051 96.7878 3.66657 95.8538C2.73264 94.9199 2.26567 93.7611 2.26567 92.3429C2.26567 90.9247 2.73264 89.7486 3.66657 88.8147C4.60051 87.8807 5.77659 87.3965 7.21209 87.3965C8.09414 87.3965 8.90701 87.604 9.63341 88.0018C10.3598 88.3996 10.896 88.9358 11.2592 89.5757L12.8157 87.898C12.2623 87.1716 11.5705 86.549 10.723 86.082C9.668 85.494 8.49193 85.2 7.21209 85.2C5.17126 85.2 3.45903 85.8918 2.07542 87.2754C0.691805 88.659 0 90.3367 0 92.3256C0 94.3318 0.691805 96.0095 2.07542 97.3931C3.45903 98.7594 5.20585 99.4512 7.33315 99.4512C9.33939 99.4512 10.9651 98.8459 12.1931 97.6525C13.4383 96.4592 14.061 94.9199 14.061 93.0347V92.1181H7.19479V94.1243Z" fill="white"/>
<path d="M162.229 91.4436V89.4027H159.79V86.6528H157.663V89.4027H155.864V91.4436H157.663V96.1478C157.663 97.4277 158.009 98.3097 158.718 98.794C159.427 99.2783 160.586 99.4166 162.211 99.2091V97.3066C161.675 97.3412 161.226 97.3412 160.862 97.3239C160.499 97.3066 160.222 97.2029 160.049 97.0299C159.859 96.8569 159.773 96.5629 159.773 96.1478V91.4436H162.229Z" fill="white"/>
<path d="M20.4602 89.1433C18.9382 89.1433 17.693 89.6449 16.7244 90.6307C15.7732 91.6165 15.2889 92.8445 15.2889 94.3146C15.2889 95.8019 15.7732 97.0472 16.759 98.0157C17.7449 98.9843 19.0247 99.4858 20.6331 99.4858C22.3281 99.4858 23.6598 98.8978 24.611 97.7563L23.1755 96.3208C22.6048 97.1337 21.7746 97.5315 20.6504 97.5315C19.8376 97.5315 19.1458 97.3239 18.5923 96.9261C18.0216 96.5283 17.6757 95.9576 17.52 95.2139H25.3374C25.3893 94.8507 25.4239 94.5567 25.4239 94.3319C25.4239 92.8964 24.9569 91.6684 24.0403 90.6653C23.0891 89.6449 21.8957 89.1433 20.4602 89.1433ZM17.4854 93.4844C17.6238 92.7407 17.9697 92.1527 18.4885 91.7203C19.0074 91.2879 19.6646 91.0804 20.4429 91.0804C21.1347 91.0804 21.74 91.2879 22.2589 91.6857C22.7777 92.0835 23.1064 92.6888 23.2447 93.4844H17.4854Z" fill="white"/>
<path d="M47.9077 89.1433C46.3857 89.1433 45.1404 89.6449 44.1719 90.6307C43.2034 91.6165 42.7191 92.8445 42.7191 94.3146C42.7191 95.8019 43.2034 97.0472 44.1892 98.0157C45.175 98.9843 46.4549 99.4858 48.0633 99.4858C49.7583 99.4858 51.09 98.8978 52.0412 97.7563L50.6057 96.3208C50.035 97.1337 49.2048 97.5315 48.0806 97.5315C47.2677 97.5315 46.5759 97.3239 46.0225 96.9261C45.4518 96.5283 45.1058 95.9576 44.9502 95.2139H52.7676C52.8195 94.8507 52.8541 94.5567 52.8541 94.3319C52.8541 92.8964 52.3871 91.6684 51.4705 90.6653C50.5192 89.6449 49.3432 89.1433 47.9077 89.1433ZM44.9156 93.4844C45.054 92.7407 45.3999 92.1527 45.9187 91.7203C46.4376 91.2879 47.0948 91.0804 47.8731 91.0804C48.5649 91.0804 49.1702 91.2879 49.6891 91.6857C50.2079 92.0835 50.5365 92.6888 50.6749 93.4844H44.9156Z" fill="white"/>
<path d="M58.9765 89.1433C57.4545 89.1433 56.2093 89.6449 55.2408 90.6307C54.2722 91.6165 53.788 92.8445 53.788 94.3146C53.788 95.8019 54.2722 97.0472 55.2581 98.0157C56.2439 98.9843 57.5237 99.4858 59.1322 99.4858C60.8271 99.4858 62.1588 98.8978 63.1101 97.7563L61.6746 96.3208C61.1038 97.1337 60.2737 97.5315 59.1495 97.5315C58.3366 97.5315 57.6448 97.3239 57.0913 96.9261C56.5206 96.5283 56.1747 95.9576 56.019 95.2139H63.8365C63.8884 94.8507 63.923 94.5567 63.923 94.3319C63.923 92.8964 63.456 91.6684 62.5393 90.6653C61.6054 89.6449 60.4293 89.1433 58.9765 89.1433ZM56.0018 93.4844C56.1401 92.7407 56.486 92.1527 57.0049 91.7203C57.5237 91.2879 58.1809 91.0804 58.9592 91.0804C59.651 91.0804 60.2564 91.2879 60.7752 91.6857C61.2941 92.0835 61.6227 92.6888 61.7611 93.4844H56.0018Z" fill="white"/>
<path d="M87.773 89.1433C86.2511 89.1433 85.0058 89.6449 84.0373 90.6307C83.0687 91.6165 82.5845 92.8445 82.5845 94.3146C82.5845 95.8019 83.0687 97.0472 84.0546 98.0157C85.0404 98.9843 86.3202 99.4858 87.9287 99.4858C89.6236 99.4858 90.9554 98.8978 91.9066 97.7563L90.4711 96.3208C89.9003 97.1337 89.0702 97.5315 87.946 97.5315C87.1331 97.5315 86.4413 97.3239 85.8879 96.9261C85.3171 96.5283 84.9712 95.9576 84.8156 95.2139H92.633C92.6849 94.8507 92.7195 94.5567 92.7195 94.3319C92.7195 92.8964 92.2525 91.6684 91.3358 90.6653C90.4019 89.6449 89.2085 89.1433 87.773 89.1433ZM84.7983 93.4844C84.9366 92.7407 85.2825 92.1527 85.8014 91.7203C86.3202 91.2879 86.9775 91.0804 87.7557 91.0804C88.4475 91.0804 89.0529 91.2879 89.5717 91.6857C90.0906 92.0835 90.4192 92.6888 90.5576 93.4844H84.7983Z" fill="white"/>
<path d="M129.195 89.1433C127.673 89.1433 126.428 89.6449 125.459 90.6307C124.491 91.6165 124.006 92.8445 124.006 94.3146C124.006 95.8019 124.491 97.0472 125.476 98.0157C126.462 98.9843 127.742 99.4858 129.351 99.4858C131.045 99.4858 132.377 98.8978 133.328 97.7563L131.893 96.3208C131.322 97.1337 130.492 97.5315 129.368 97.5315C128.555 97.5315 127.863 97.3239 127.31 96.9261C126.739 96.5283 126.393 95.9576 126.237 95.2139H134.055C134.107 94.8507 134.141 94.5567 134.141 94.3319C134.141 92.8964 133.674 91.6684 132.758 90.6653C131.824 89.6449 130.648 89.1433 129.195 89.1433ZM126.22 93.4844C126.358 92.7407 126.704 92.1527 127.223 91.7203C127.742 91.2879 128.399 91.0804 129.178 91.0804C129.869 91.0804 130.475 91.2879 130.994 91.6857C131.512 92.0835 131.841 92.6888 131.979 93.4844H126.22Z" fill="white"/>
<path d="M79.3329 86.6528H77.2056V89.4027H75.4069V91.4436H77.2056V96.1478C77.2056 97.4277 77.5515 98.3097 78.2606 98.794C78.9697 99.2783 80.1285 99.4166 81.7542 99.2091V97.3066C81.2181 97.3412 80.7684 97.3412 80.4052 97.3239C80.042 97.3066 79.7653 97.2029 79.5923 97.0299C79.4021 96.8569 79.3156 96.5629 79.3156 96.1478V91.4436H81.7542V89.4027H79.3156L79.3329 86.6528C79.3329 86.6528 79.3156 86.6528 79.3329 86.6528Z" fill="white"/>
<path d="M106.815 94.5221C106.815 95.3523 106.573 96.0268 106.071 96.5283C105.587 97.0299 104.843 97.272 103.858 97.272C102.872 97.272 102.145 97.0299 101.644 96.5283C101.159 96.0268 100.9 95.3696 100.9 94.5221V85.4767H98.6344V94.6605C98.6344 96.1306 99.1187 97.2893 100.087 98.1714C101.056 99.0361 102.301 99.4685 103.84 99.4685C105.38 99.4685 106.625 99.0361 107.593 98.1714C108.562 97.3066 109.046 96.1306 109.046 94.6605V85.4767H106.78V94.5221H106.815Z" fill="white"/>
<path d="M114.356 86.6528H112.228V89.4027H110.43V91.4436H112.228V96.1478C112.228 97.4277 112.574 98.3097 113.283 98.794C113.992 99.2783 115.151 99.4166 116.777 99.2091V97.3066C116.241 97.3412 115.791 97.3412 115.428 97.3239C115.065 97.3066 114.788 97.2029 114.615 97.0299C114.425 96.8569 114.338 96.5629 114.338 96.1478V91.4436H116.777V89.4027H114.338V86.6528H114.356Z" fill="white"/>
<path d="M70.5989 89.1433C69.2153 89.1433 68.1948 89.6449 67.5549 90.648V89.3854H65.4276V99.1918H67.5549V93.9341C67.5549 92.9828 67.7798 92.2737 68.2467 91.8068C68.6964 91.3398 69.3017 91.115 70.0454 91.115C70.7199 91.115 71.2561 91.3052 71.6539 91.703C72.0517 92.1008 72.2419 92.6542 72.2419 93.3979V99.2091H74.3692V93.1904C74.3692 91.9278 74.0233 90.942 73.3315 90.2329C72.6224 89.5065 71.7231 89.1433 70.5989 89.1433Z" fill="white"/>
<path d="M120.651 91.0458V89.4027H118.524V99.2091H120.651V94.2627C120.651 93.2595 120.945 92.5331 121.551 92.1008C122.156 91.6684 122.865 91.4781 123.678 91.53V89.2298C122.191 89.2298 121.187 89.8351 120.651 91.0458Z" fill="white"/>
<path d="M143.117 95.802C142.668 96.7359 141.803 97.3585 140.748 97.5142C140.731 97.5142 140.713 97.5142 140.696 97.5142C140.558 97.5315 140.402 97.5488 140.247 97.5488C138.517 97.5488 137.185 96.217 137.185 94.3146C137.185 92.4121 138.517 91.0804 140.247 91.0804C140.402 91.0804 140.541 91.0977 140.679 91.115C140.696 91.115 140.713 91.115 140.731 91.115C141.786 91.2533 142.633 91.876 143.1 92.7753L144.518 91.3571C143.584 90.0081 142.028 89.1606 140.247 89.1606C137.376 89.1606 135.093 91.409 135.093 94.3319C135.093 97.2375 137.376 99.4858 140.247 99.4858C142.045 99.4858 143.602 98.6038 144.536 97.2548L143.117 95.802Z" fill="white"/>
</svg>
