<svg width="108" height="64" viewBox="0 0 108 64" fill="none" xmlns="http://www.w3.org/2000/svg">
<path d="M53.535 10.388C54.8939 10.388 55.9954 9.839 55.9954 9.16177C55.9954 8.48455 54.8939 7.93555 53.535 7.93555C52.1762 7.93555 51.0746 8.48455 51.0746 9.16177C51.0746 9.839 52.1762 10.388 53.535 10.388Z" fill="white"/>
<path d="M46.4993 9.16207L43.7348 7.77051L40.9564 9.16207L43.7348 10.5398L46.4993 9.16207Z" fill="white"/>
<path d="M66.1134 9.16207L63.3351 7.77051L60.5706 9.16207L63.3351 10.5398L66.1134 9.16207Z" fill="white"/>
<path d="M105.411 55.6211C105.384 55.6349 103.766 56.1584 101.721 56.3926C102.384 55.8278 102.826 55.0286 102.965 54.1193C103.061 53.4304 103.034 51.5015 102.854 48.4153C102.799 47.3131 101.956 46.4037 100.864 46.2659C99.8408 46.1282 98.9976 45.9904 98.4309 45.8664C97.2559 45.6046 96.6201 45.1775 96.5372 44.8744C96.4266 44.5437 96.4404 44.5024 96.4819 44.1993C96.4957 44.0615 96.5233 43.8962 96.551 43.6757C96.5786 43.4277 96.5925 43.1935 96.6339 42.9317C96.6754 42.6148 96.703 42.2841 96.7307 41.9535C96.7307 41.9397 96.7307 41.9121 96.7307 41.8984C96.9933 41.9535 97.2698 41.981 97.5324 41.981C98.265 41.981 98.9976 41.7881 99.6334 41.3886C100.822 40.6584 101.513 39.4046 101.486 38.013C101.43 35.8086 100.2 34.2655 99.1082 32.9152C98.6106 32.2952 98.1268 31.7028 97.7812 31.0828C96.6616 29.0712 96.3989 26.8943 97.0071 24.5934C97.2559 23.6427 97.878 22.6921 98.5415 21.7001C98.6797 21.4934 98.8179 21.273 98.9561 21.0663C99.0529 21.0801 99.1496 21.0939 99.2464 21.0939C99.6611 21.0939 100.007 20.9561 100.255 20.8045C101.845 19.8263 102.398 16.6298 102.37 14.8387C102.329 11.0911 100.85 8.3907 97.878 6.5858L96.8551 5.9658L97.2421 7.09558C98.1406 9.69959 98.6244 11.3116 98.0577 13.9294C97.878 14.7698 97.5186 15.5689 97.173 16.3405C96.6339 17.5529 96.1087 18.7241 96.5648 19.6747C96.4542 19.8401 96.3437 20.0192 96.2331 20.1845C95.4728 21.3281 94.6849 22.513 94.3255 23.9183C93.5515 26.8943 93.9109 29.8428 95.3622 32.4468C95.8184 33.2734 96.3989 33.9899 96.9518 34.6788C97.878 35.8361 98.6935 36.8281 98.7211 38.1095C98.735 38.6468 98.3894 38.9361 98.1959 39.0601C97.8089 39.2944 97.3527 39.3081 96.9518 39.1015C96.6339 38.9361 96.3298 38.6055 96.1363 38.2197C95.8322 37.3241 95.4452 36.3872 94.9199 35.3539C94.45 34.417 93.9385 33.4939 93.4409 32.5983C92.5286 30.945 91.6578 29.3881 91.0219 27.6934C90.5382 26.3845 90.4829 24.8828 90.5105 23.9183C91.2016 24.0423 91.8098 24.0699 91.9204 24.0699L92.8189 24.0974L92.8051 23.2019C92.7912 22.5267 93.3303 21.3556 93.9385 19.9916C95.6111 16.2992 98.1406 10.7329 94.8923 4.35379C94.8646 4.31246 94.8508 4.25735 94.8232 4.21601C94.9614 3.77512 95.0029 3.37557 94.989 3.0449C94.9752 1.81867 94.367 0.854225 93.8141 0.358223L93.4271 0.0137778L92.9433 0.179112C92.6254 0.289334 92.3213 0.482224 92.0172 0.716447C91.8098 0.523557 91.5472 0.385779 91.2431 0.344446C91.1602 0.330668 91.0772 0.330668 90.9667 0.330668C89.6259 0.330668 84.7465 1.43289 84.1106 1.76356L83.7789 1.9289L83.6683 2.28712L83.4333 3.10001C82.3552 3.45823 81.3738 3.99557 80.6412 4.39513C80.5444 4.45024 80.4476 4.50535 80.3509 4.54668L79.798 4.84979L79.9224 5.4698C79.9362 5.56624 80.42 7.99114 81.8299 9.6307L81.899 9.69959C81.5535 9.72714 81.2494 9.7547 80.9729 9.7547C80.1297 9.7547 79.4662 9.5067 79.1483 9.0107C78.6507 8.23914 79.0101 7.41247 79.5906 6.98536C79.2727 6.84758 78.9686 6.76491 78.5954 6.76491C78.3742 6.76491 78.1254 6.79247 77.849 6.86136C76.7432 7.10936 76.1212 8.03247 76.3285 9.14848C76.5635 10.4849 77.5034 11.3116 79.1345 11.3116C79.4662 11.3116 79.8118 11.284 80.1988 11.2151C80.7517 11.1187 81.3185 10.9534 81.8852 10.7743C81.8852 10.8018 81.8714 10.8156 81.8714 10.8431C81.7331 11.6147 81.6087 12.276 82.0372 12.8134C80.8485 13.0338 79.7703 13.5298 78.858 14.2738C78.1116 13.7089 77.1026 12.9512 76.9505 12.8272C76.3561 12.3863 75.8032 11.904 75.2089 11.408C74.9739 11.2014 74.7251 10.9947 74.4763 10.788C73.9648 10.3609 73.4119 9.92003 72.8176 9.5067C72.3752 9.20359 71.8638 9.0107 71.3109 8.94181V6.50313C73.0664 5.73158 74.2966 3.95424 74.2966 1.9289C74.2966 1.47423 74.2413 1.04711 74.1169 0.63378H70.3986C70.4262 0.881781 70.4401 1.12978 70.4401 1.39156C70.4401 3.59601 69.3343 5.53869 67.9658 5.53869C66.5974 5.53869 65.4916 3.59601 65.4916 1.39156C65.4916 1.12978 65.5054 0.881781 65.533 0.63378H60.8748C60.9025 0.881781 60.9163 1.12978 60.9163 1.39156C60.9163 3.59601 59.8105 5.53869 58.442 5.53869C57.0736 5.53869 55.9678 3.59601 55.9678 1.39156C55.9678 1.12978 55.9816 0.881781 56.0093 0.63378H51.199C51.2266 0.881781 51.2404 1.12978 51.2404 1.39156C51.2404 3.59601 50.1346 5.53869 48.7662 5.53869C47.3978 5.53869 46.2919 3.59601 46.2919 1.39156C46.2919 1.12978 46.3058 0.881781 46.3334 0.63378H41.7858C41.8134 0.881781 41.8272 1.12978 41.8272 1.39156C41.8272 3.59601 40.7214 5.53869 39.353 5.53869C37.9846 5.53869 36.8787 3.59601 36.8787 1.39156C36.8787 1.12978 36.8926 0.881781 36.9202 0.63378H33.1466C33.0361 1.03334 32.9808 1.44667 32.9808 1.87378C32.9808 3.83024 34.128 5.58002 35.7729 6.40669V8.94181C35.22 9.0107 34.681 9.20359 34.2248 9.52048C33.6304 9.92003 33.0775 10.3747 32.5661 10.8018C32.3173 11.0085 32.0823 11.2152 31.8335 11.4218C31.2391 11.9178 30.6862 12.4 30.0918 12.8409C29.9398 12.9512 28.9307 13.7089 28.1843 14.2876C27.272 13.5436 26.2077 13.0476 25.0051 12.8272C25.4336 12.276 25.3092 11.6147 25.171 10.8569C25.171 10.8431 25.1572 10.8156 25.1572 10.788C25.7239 10.9809 26.2906 11.1325 26.8435 11.2289C27.2306 11.2978 27.5761 11.3254 27.9079 11.3254C29.5389 11.3254 30.4789 10.4987 30.7139 9.16225C30.9212 8.04625 30.2992 7.12314 29.1934 6.87513C28.9169 6.82002 28.6681 6.77869 28.4469 6.77869C28.0737 6.77869 27.7696 6.86136 27.4517 6.99914C28.0323 7.42625 28.3917 8.25292 27.894 9.02448C27.5761 9.53426 26.8988 9.76848 26.0695 9.76848C25.7792 9.76848 25.4751 9.74092 25.171 9.68581L25.2401 9.61692C26.65 7.97736 27.1338 5.56624 27.1476 5.45602L27.272 4.83602L26.7191 4.5329C26.6224 4.47779 26.5256 4.43646 26.4288 4.38135C25.6824 3.98179 24.7148 3.44446 23.6367 3.08623L23.4017 2.27334L23.2911 1.91512L22.9594 1.74978C22.3235 1.41912 17.4441 0.31689 16.1034 0.31689C16.0066 0.31689 15.9098 0.31689 15.8269 0.330668C15.5228 0.372001 15.2602 0.50978 15.0528 0.702669C14.7487 0.454668 14.4308 0.275557 14.1267 0.165334L13.6429 0L13.2421 0.31689C12.6892 0.812892 12.081 1.77734 12.0671 3.00357C12.0671 3.33423 12.1086 3.73379 12.233 4.17468C12.2054 4.22979 12.1777 4.27113 12.1639 4.31246C8.91559 10.6916 11.4451 16.2578 13.1177 19.9503C13.7259 21.3005 14.2649 22.4716 14.2511 23.1605L14.2373 24.0561L15.1358 24.0285C15.2325 24.0285 15.8407 24.001 16.5457 23.877C16.5733 24.8414 16.5319 26.357 16.0342 27.6521C15.3984 29.3468 14.5276 30.9037 13.6153 32.557C13.1177 33.4526 12.6062 34.3757 12.1363 35.3126C11.6248 36.3459 11.224 37.2828 10.9199 38.1784C10.7264 38.5641 10.4361 38.8948 10.1043 39.0601C9.70348 39.2668 9.24733 39.253 8.8603 39.0188C8.65296 38.8948 8.32121 38.6055 8.33504 38.0681C8.36268 36.8006 9.1644 35.7948 10.1043 34.6375C10.6572 33.9486 11.224 33.2459 11.6939 32.4054C13.1453 29.8014 13.5047 26.853 12.7306 23.877C12.3712 22.4716 11.5834 21.2867 10.8231 20.1432C10.7125 19.9778 10.6019 19.7987 10.4914 19.6334C10.9475 18.6827 10.4361 17.5116 9.88317 16.2992C9.53761 15.5276 9.17822 14.7285 8.99853 13.888C8.4318 11.2565 8.91559 9.65826 9.81406 7.05425L10.2011 5.92446L9.17822 6.54447C6.20635 8.34936 4.72733 11.0498 4.68587 14.7974C4.65822 16.5885 5.22495 19.7987 6.80073 20.7632C7.04954 20.9147 7.38128 21.0525 7.80978 21.0525C7.90654 21.0525 7.98947 21.0387 8.10005 21.025C8.23828 21.2316 8.37651 21.4521 8.51473 21.6587C9.17822 22.6507 9.80023 23.6014 10.049 24.5521C10.6434 26.853 10.3808 29.0437 9.27498 31.0414C8.92941 31.6614 8.45944 32.2539 7.94801 32.8739C6.85602 34.2241 5.6258 35.7535 5.57051 37.9717C5.54287 39.3495 6.234 40.617 7.42274 41.3473C8.05859 41.7468 8.79118 41.9397 9.52378 41.9397C9.80024 41.9397 10.0629 41.9121 10.3255 41.857C10.3255 41.8708 10.3255 41.8984 10.3255 41.9121C10.3531 42.2428 10.3808 42.5735 10.4223 42.8904C10.4499 43.1521 10.4775 43.3864 10.5052 43.6344C10.519 43.8548 10.5467 44.0202 10.5743 44.1579C10.6158 44.4473 10.6296 44.5024 10.519 44.833C10.4223 45.1362 9.80024 45.5633 8.62531 45.8251C8.05859 45.9491 7.21541 46.0868 6.19253 46.2246C5.10055 46.3762 4.25737 47.2855 4.20207 48.3739C4.0362 51.4602 3.99474 53.3891 4.09149 54.078C4.22972 54.9873 4.67204 55.7864 5.33553 56.3513C3.28978 56.1171 1.65871 55.5797 1.64489 55.5797L0 55.0286L0.552904 56.6682C1.20257 58.5971 2.43278 60.2229 4.13296 61.3664C5.70874 62.4273 7.60244 63.006 9.48231 63.006C11.7769 63.006 13.8641 62.1518 15.3708 60.5949C15.3846 61.022 15.4675 61.4353 15.6334 61.8624L16.3936 63.75L17.2368 61.9038C17.2921 61.7935 18.5776 59.0931 21.6462 58.8589C22.9594 58.7624 24.4522 58.5695 25.6133 57.6051C25.6133 57.6051 25.6133 57.6051 25.6271 57.6051C25.6271 57.922 25.6548 58.2251 25.7377 58.5282C26.1524 60.2367 27.6314 61.1047 27.6867 61.1322L29.0551 61.9176L28.9722 60.3469C28.9446 59.6718 28.9031 58.9002 29.0966 58.2664C29.4422 57.1229 30.6447 56.6958 31.3221 56.5304C31.4879 56.4891 31.6538 56.4478 31.8058 56.4202C32.9255 56.1722 33.8378 55.9655 34.7777 55.4144C34.3768 56.1998 34.211 56.9989 34.2939 57.8118C34.4874 59.8371 36.1461 61.1047 36.2153 61.1598L38.109 62.5789L37.5837 60.278C37.3902 59.3962 37.2381 57.3846 38.0537 56.8611C39.0627 56.1998 39.823 56.1171 40.7076 56.0206C41.4402 55.938 42.2281 55.8415 43.1542 55.442C42.4354 57.0264 42.7395 58.3215 42.7672 58.3904L43.2095 60.1402L44.3015 58.6935C44.3153 58.666 46.3611 56.0344 49.2638 56.0344C51.3649 56.0344 53.065 57.0678 53.0789 57.0815L53.535 57.3571L53.9911 57.0815C54.005 57.0678 55.7052 56.0344 57.8062 56.0344C60.7089 56.0344 62.7547 58.6798 62.7685 58.6935L63.8605 60.1402L64.3028 58.3904C64.3167 58.3215 64.6346 57.0264 63.9158 55.442C64.8419 55.8415 65.6298 55.938 66.3624 56.0206C67.247 56.1171 68.0211 56.2135 69.0163 56.8611C69.8319 57.3984 69.6936 59.3962 69.4863 60.278L68.961 62.5789L70.8547 61.1598C70.9239 61.1047 72.5826 59.8371 72.7761 57.8118C72.859 56.9989 72.6932 56.1998 72.2923 55.4144C73.2322 55.9518 74.1445 56.1584 75.2642 56.4202C75.4162 56.4615 75.5821 56.4891 75.748 56.5304C76.4253 56.682 77.6278 57.1229 77.9734 58.2664C78.1669 58.9002 78.1254 59.6718 78.0978 60.3469L78.0149 61.9176L79.3833 61.1322C79.4524 61.0909 80.9314 60.2367 81.3323 58.5282C81.4014 58.2251 81.4429 57.9082 81.4429 57.6051C81.4429 57.6051 81.4429 57.6051 81.4567 57.6051C82.6178 58.5695 84.1106 58.7487 85.4238 58.8589C88.4924 59.0931 89.7779 61.7935 89.8332 61.9038L90.6764 63.75L91.4366 61.8624C91.6025 61.4353 91.6993 61.0082 91.6993 60.5949C93.2059 62.1518 95.2931 63.006 97.5877 63.006C99.4676 63.006 101.361 62.4273 102.937 61.3664C104.637 60.2229 105.881 58.5971 106.517 56.6682L107.07 55.0286L105.411 55.6211ZM79.1207 10.4436C77.9596 10.4436 77.3514 9.97515 77.1717 8.98314C77.0473 8.32181 77.379 7.83958 78.0287 7.68803C78.0563 7.68803 78.084 7.67425 78.1116 7.67425C77.9596 8.23914 78.0287 8.85914 78.4019 9.46537C78.6783 9.89248 79.1069 10.2231 79.6459 10.416C79.4662 10.4298 79.2865 10.4436 79.1207 10.4436ZM28.6405 9.46537C29.0275 8.87292 29.0828 8.23914 28.9307 7.67425C28.9584 7.67425 28.986 7.68803 29.0137 7.68803C29.6633 7.8258 29.9951 8.32181 29.8707 8.98314C29.691 9.97515 29.069 10.4436 27.9217 10.4436C27.7558 10.4436 27.5761 10.4298 27.3964 10.416C27.9355 10.2231 28.364 9.90626 28.6405 9.46537ZM78.8995 15.3761C79.1068 15.1694 79.328 14.9765 79.563 14.7974C80.5859 14.012 81.8852 13.5298 83.5163 13.5298C83.7512 13.5298 83.9862 13.5436 84.235 13.5574L86.4467 12.5516C85.6588 12.5654 85.0229 12.5929 84.5115 12.5929C82.2999 12.5929 82.4796 12.2898 82.7698 10.7467C82.7698 10.7467 84.6359 11.2565 86.0596 11.2565C86.1979 11.2565 86.3361 11.2565 86.4605 11.2427C87.1516 11.1876 87.4557 10.8845 87.5663 10.5125C87.7045 10.0165 87.746 9.24492 87.359 8.28047C87.1101 7.64669 86.502 7.09558 85.6311 7.09558C84.9676 7.09558 84.1659 7.41247 83.2536 8.23914L82.4796 9.0107C82.0787 8.54225 81.7608 8.00492 81.512 7.48136C81.3461 6.76491 82.1202 6.31024 82.1202 6.31024C81.3323 6.40669 80.9453 5.5938 80.8209 5.2218C81.664 4.76713 82.8666 4.07824 84.1383 3.73379L84.5115 2.46623C84.9953 2.21823 89.7226 1.12978 90.9667 1.12978C91.0358 1.12978 91.0772 1.12978 91.1325 1.14356C91.2293 1.15734 91.326 1.19867 91.3952 1.25378C91.1325 1.54312 90.8975 1.87378 90.6902 2.23201L91.5334 2.50756C92.0034 1.74978 92.653 1.116 93.2336 0.923114C93.9938 1.58445 94.9061 3.55468 92.9018 5.62135V6.82002L93.2474 6.48936C93.7312 6.03469 94.0767 5.5938 94.3394 5.16668C98.1682 13.4334 91.8789 20.2121 91.9204 23.133C91.9204 23.133 90.6073 23.0916 89.7088 22.7334C89.7088 22.7334 89.3079 25.5854 90.1926 27.9277C91.2155 30.6557 92.8327 33.0806 94.132 35.6708C94.5744 36.5526 94.9614 37.4481 95.2793 38.3712C95.2931 38.3988 95.2931 38.4264 95.307 38.4539C95.5696 39.0188 96.0119 39.5148 96.5095 39.7904C96.5233 39.8041 96.551 39.8041 96.5648 39.8179C97.2145 40.1486 97.9747 40.1073 98.6106 39.7215C99.2326 39.3495 99.5643 38.7157 99.5505 38.013C99.509 36.4423 98.5829 35.285 97.5877 34.0588C97.0624 33.3974 96.5095 32.7223 96.081 31.9508C94.7402 29.5397 94.4085 26.8116 95.1273 24.0561C95.459 22.7885 96.2054 21.6725 96.9242 20.5841C97.0901 20.3361 97.2421 20.1018 97.408 19.8538C97.4771 19.7574 97.5324 19.661 97.5877 19.5645C97.2421 19.2476 97.173 18.8618 97.2836 18.3521C97.3804 17.8836 97.6292 17.3187 97.9333 16.6161C98.2788 15.8445 98.6797 14.9627 98.8732 14.0396C99.1911 12.5516 99.1911 11.3529 98.9976 10.168C99.2879 10.6365 99.5367 11.1325 99.744 11.6423C99.979 12.2209 100.145 12.8272 100.228 13.4609C100.311 14.0947 100.311 14.7423 100.214 15.3898C100.435 14.7836 100.573 14.1223 100.615 13.4609C100.656 12.7858 100.615 12.1107 100.49 11.4494C100.38 10.8431 100.214 10.2369 99.9928 9.65826C100.947 11.0498 101.43 12.7445 101.458 14.7836C101.486 17.3463 100.601 19.4956 99.7578 20.0054C99.6473 20.0743 99.5505 20.1156 99.4537 20.1432C99.0944 20.2258 98.5415 19.9778 98.5415 19.9778C98.2926 20.3912 98.0438 20.7632 97.7812 21.1627C97.0762 22.2236 96.4128 23.2294 96.1225 24.3179C95.4728 26.8392 95.7493 29.2365 96.9795 31.441C97.3665 32.1299 97.878 32.7774 98.3894 33.3974C99.4399 34.7063 100.532 36.0566 100.573 37.9717C100.601 39.0464 100.062 40.0246 99.1358 40.5895C98.6382 40.8926 98.0577 41.0579 97.4771 41.0579C97.2145 41.0579 96.938 41.0166 96.6754 40.9615C96.4404 40.8926 96.2054 40.8099 95.9843 40.6859C95.9152 40.6446 95.846 40.6033 95.7769 40.5619C95.8184 40.8926 95.8322 41.237 95.8184 41.5677C95.8184 41.6504 95.8046 41.7468 95.8046 41.8295C95.7631 42.3944 95.6802 42.973 95.6387 43.5379C95.5696 44.2682 95.4452 44.3508 95.6663 45.0673C95.929 45.8939 97.0486 46.3899 98.2097 46.6517C98.9423 46.8171 99.9375 46.9686 100.712 47.0651C101.403 47.1615 101.914 47.7264 101.956 48.4153C102.052 50.11 102.191 53.1135 102.066 53.954C101.928 54.8771 101.389 55.6624 100.532 56.0758C100.587 56.1998 100.642 56.3238 100.698 56.434C100.822 56.7509 100.919 57.0264 100.96 57.2882C101.237 58.79 100.159 59.2584 99.1911 59.4927L99.0667 58.1424C99.0529 58.0873 98.7903 57.9633 98.735 57.9358C98.652 57.8807 98.5553 57.8255 98.4862 57.7566C98.3203 57.6051 98.265 57.426 98.2374 57.2331C98.2235 57.1229 98.2235 57.0126 98.2235 56.8886C98.2097 56.682 98.1821 56.4753 98.0715 56.3238C98.0162 56.2549 97.9609 56.1998 97.8641 56.1584C97.7812 56.1171 97.6983 56.1033 97.6153 56.1033C97.5186 56.1033 97.4356 56.1309 97.3527 56.1722C97.173 56.2686 97.021 56.4478 96.9933 56.6682C96.9795 56.7509 96.9933 56.8611 97.0071 56.9713C97.0763 57.3709 97.2698 57.922 97.0901 58.4042C96.9795 58.7211 96.551 59.1482 96.081 59.1482C95.929 59.1482 95.7908 59.1069 95.6387 59.0104L94.6711 59.8647C93.3856 58.4593 93.7865 57.1091 95.1826 56.5304C95.2931 56.4891 95.3899 56.434 95.4728 56.3789C95.7355 56.1998 95.8875 55.9655 95.7355 55.7175C95.6249 55.5246 95.5005 55.4557 95.3346 55.4557C95.0858 55.4557 94.7679 55.6073 94.2841 55.8002C94.2564 55.814 94.2288 55.8278 94.1873 55.8415C93.9247 55.938 93.6759 56.0069 93.4409 56.0069C92.9433 56.0069 92.5424 55.7175 92.3351 54.9184C92.3213 54.8495 92.3075 54.7669 92.2936 54.698L91.9619 54.8358L91.3813 55.07C91.3952 54.9735 91.409 54.8633 91.4228 54.7669C91.4781 54.4362 91.5887 54.1606 91.7131 53.9264C92.1416 53.1411 92.9018 52.8242 93.6759 52.8242C94.6711 52.8242 95.694 53.3202 96.1225 53.954L97.9471 54.202C98.3203 53.7335 98.3341 52.3557 98.2788 51.2811C98.2373 50.4957 97.6568 49.862 96.8827 49.738C95.5558 49.5451 93.5653 49.2557 92.8604 49.2006C91.5196 49.1042 90.1235 48.87 89.1144 47.8917C87.7322 46.5277 87.4281 45.1086 87.4281 43.1384C87.4281 42.4908 87.4557 41.8433 87.511 41.1819C87.5525 40.617 87.6216 40.0521 87.6769 39.501C87.7183 39.129 87.7736 38.757 87.8289 38.385C87.8842 38.0406 87.8842 37.6686 87.8566 37.3104C87.8427 37.1726 87.8289 37.0486 87.8013 36.9108C87.7322 36.5112 87.6216 36.1255 87.4695 35.7259C87.3037 35.3126 87.0687 34.9268 86.7922 34.5548C86.3499 33.9761 85.7694 33.4663 85.0368 33.053C84.7741 32.9014 84.4562 32.7223 84.1245 32.5157C83.7927 32.309 83.4333 32.0886 83.0601 31.8268C82.1478 31.2206 81.1388 30.4628 80.1988 29.5948C80.268 29.5534 80.3371 29.5121 80.4062 29.4708C80.7517 29.2641 81.7055 28.5614 82.604 27.8174C82.8251 27.6383 83.0187 27.473 83.1983 27.3077L82.3413 26.853C81.3461 27.6934 80.2403 28.5201 79.95 28.6854C79.8118 28.7681 79.6736 28.8508 79.5353 28.9334C79.2727 29.085 79.0101 29.2365 78.7613 29.3743C77.3099 30.201 76.2732 30.7659 76.3009 31.7303C78.0978 33.6592 77.1164 34.8028 76.1212 35.1472L75.7894 34.0863C74.7389 33.9072 74.7527 33.1357 74.7113 32.5432C74.6836 32.2263 74.4348 32.0472 74.186 32.0472C73.9787 32.0472 73.7713 32.185 73.7575 32.5019C73.7298 32.8463 73.7575 33.2046 73.6607 33.7695C73.5916 34.1552 73.1769 34.6788 72.5826 34.6788C72.4858 34.6788 72.3891 34.665 72.2923 34.6375L72.0711 35.8912C70.0254 35.5055 70.2465 33.4801 71.6288 32.7912C72.4167 32.3917 72.6655 32.1023 72.4305 31.7992C72.3614 31.7166 72.2785 31.6752 72.1817 31.6752C71.8914 31.6752 71.4629 31.9921 71.0483 32.2952C70.8686 32.433 70.6336 32.5019 70.3848 32.5019C69.8457 32.5019 69.2651 32.1574 69.0163 31.3446L68.3114 31.7717C68.187 30.2423 69.1407 29.4845 70.1083 29.4845C70.5645 29.4845 71.0344 29.6499 71.3938 29.9805C71.5321 30.1045 71.6703 30.1597 71.8085 30.1597C72.2508 30.1597 72.5549 29.6085 71.9605 29.2917C71.3938 28.9885 70.8547 28.0517 71.38 27.4592L70.523 26.6601C70.91 26.4259 71.3247 26.3156 71.7118 26.3156C72.5688 26.3156 73.3566 26.8668 73.6054 28.1205C73.6607 28.4099 73.7851 28.5201 73.951 28.5201C74.421 28.5201 75.2503 27.5143 75.8724 26.5223C76.0244 26.2881 76.1626 26.0401 76.3009 25.8059C76.4806 25.489 76.6741 25.1859 76.8814 24.8828C77.144 24.497 77.4205 24.125 77.7661 23.7943C78.3466 23.2156 79.3557 22.2099 80.5168 21.5347C80.7932 21.3832 81.0835 21.2316 81.3738 21.1076C81.7193 20.653 82.0649 20.1845 82.369 19.7023C83.1845 18.4623 83.8618 17.1396 84.2489 15.7481C83.613 17.0569 82.7284 18.2005 81.747 19.2201C81.2908 19.7023 80.8209 20.1432 80.3232 20.5841C78.9824 21.273 77.8628 22.389 77.1993 23.0365L77.1026 23.133C76.909 23.3259 76.7294 23.5187 76.5773 23.7254C76.3561 22.3752 76.4114 20.7081 76.8399 19.1236C76.9229 18.8205 77.0196 18.5036 77.1302 18.2143C77.5311 17.1672 78.1116 16.1752 78.8995 15.3761ZM84.0692 9.90626C84.5944 9.72714 85.1197 9.58937 85.6173 9.58937C86.032 9.58937 86.419 9.68581 86.7784 9.89248C86.7646 10.0578 86.7369 10.1956 86.7231 10.2645C86.7231 10.2783 86.7231 10.2783 86.7231 10.2783C86.7231 10.2783 86.654 10.3471 86.3775 10.3747C86.2808 10.3885 86.1702 10.3885 86.0458 10.3885C85.5067 10.3885 84.8985 10.3058 84.3594 10.2094C83.8204 10.1267 83.0048 9.94759 83.0048 9.94759C82.9219 9.5067 82.991 9.03825 83.1569 9.05203C83.3504 9.09336 83.4886 9.56181 84.0692 9.90626ZM83.5024 9.21736L83.8342 8.87292C84.6635 8.12892 85.2579 7.96358 85.6035 7.96358C86.2255 7.96358 86.4743 8.44581 86.5296 8.59736C86.5849 8.73514 86.6264 8.87292 86.6678 8.99692C86.3361 8.84536 85.9767 8.79025 85.6035 8.79025C84.94 8.79025 84.235 8.99692 83.5024 9.21736ZM89.225 51.6944C88.2021 52.3833 87.2484 52.714 86.2393 52.714C85.2994 52.714 84.3871 52.4384 83.4195 52.1353C83.1569 52.0526 82.8943 51.97 82.6178 51.9011C82.1893 51.7771 81.7331 51.722 81.277 51.722C80.1712 51.722 79.2174 52.0802 78.5954 52.3971C78.6645 52.1629 78.8857 51.2811 78.8857 50.606C79.7012 50.1513 80.268 49.5037 80.5444 48.6633C80.9591 47.4095 81.2908 45.1913 80.9591 42.7939C81.6087 42.7113 82.5349 42.5735 83.461 42.4219C84.47 42.2566 85.2994 42.0913 85.9076 41.9397C86.1979 41.8708 86.4328 41.8019 86.6402 41.733C86.6125 42.2153 86.5987 42.6975 86.5987 43.1797C86.5987 44.3784 86.7093 45.2739 86.9581 46.0593C87.2622 46.9962 87.7736 47.8091 88.5339 48.5531C89.7503 49.7517 91.3813 50.0135 92.8189 50.11C93.3303 50.1513 94.7402 50.3304 96.7722 50.6335C97.1315 50.6886 97.4218 50.9917 97.4356 51.3637C97.4909 52.3557 97.4495 52.9482 97.3942 53.2789L96.5925 53.1686C95.929 52.4522 94.7955 51.9837 93.6897 51.9837C92.2936 51.9837 91.2431 52.714 90.7731 53.954C90.5243 53.9815 90.2479 54.0229 89.9714 54.0917C90.4967 53.2926 90.5382 52.5486 90.552 52.4522L90.6211 50.73L89.225 51.6944ZM75.3333 51.846C75.2503 51.7771 75.1674 51.6944 75.0983 51.6117C75.0845 51.5842 75.0706 51.5704 75.0568 51.5428C74.8771 51.2535 74.9324 50.9504 74.9739 50.6335C75.0153 50.3166 75.0153 49.9997 74.7251 49.7931C74.6145 49.7104 74.4901 49.6691 74.3657 49.6691C74.2828 49.6691 74.2136 49.6828 74.1445 49.7104C73.951 49.7793 73.7713 49.9446 73.7022 50.1651C73.6607 50.2753 73.6607 50.4268 73.6607 50.606C73.6607 50.7575 73.6746 50.9228 73.6746 51.0882C73.6746 51.3775 73.6469 51.6944 73.5225 51.97C73.5087 51.9975 73.4949 52.0251 73.481 52.0526C73.3152 52.3282 72.8728 52.6726 72.4167 52.6726C72.2094 52.6726 72.002 52.6037 71.8223 52.4246L70.6198 53.1549C70.6198 53.1549 70.6059 53.1549 70.6059 53.1411C70.523 53.0171 70.4677 52.8931 70.3986 52.7829C70.2604 52.4935 70.1636 52.2317 70.1083 51.97C69.8872 50.8126 70.5783 49.9722 71.7947 49.6966C72.2923 49.5864 72.6932 49.3246 72.5411 48.9251C72.4443 48.6633 72.2785 48.5668 72.0297 48.5668C71.767 48.5668 71.3938 48.6633 70.8824 48.7735C70.7165 48.8011 70.5645 48.8286 70.4124 48.8562C70.288 48.87 70.1636 48.8837 70.053 48.8837C69.5139 48.8837 69.1684 48.622 69.1684 47.5473L68.1317 47.7677C68.6017 46.1282 69.5554 45.4944 70.5506 45.4944C71.5735 45.4944 72.6517 46.1695 73.3152 47.0926L73.7299 47.2304L74.4625 47.4784L75.9276 47.9744C77.3514 46.7757 76.7017 43.6206 76.7017 43.6206C76.7017 43.6206 73.9234 42.0637 74.8495 38.6055C74.8495 38.6055 75.3333 35.3539 81.277 35.3539C81.9128 35.3539 82.604 35.3952 83.3642 35.4779C83.8204 35.533 84.235 35.5881 84.6082 35.657C84.6082 35.657 84.6083 35.6708 84.6221 35.6708C84.4838 35.9877 84.4424 36.3459 84.5115 36.6903C84.6082 37.2277 84.94 37.6824 85.4238 37.9304C85.6588 38.0544 85.9214 38.1232 86.1979 38.1232C86.5019 38.1232 86.7922 38.0406 87.0687 37.889C87.0687 38.0406 87.0549 38.1784 87.041 38.3161C86.9305 39.0877 86.8199 39.9144 86.7508 40.7824C85.5482 41.3886 79.9777 42.0775 79.9777 42.0775C80.5168 44.6953 80.1712 47.1753 79.7565 48.4153C79.6045 48.87 79.3418 49.2282 79.0101 49.5175C78.7475 49.7517 78.4434 49.9308 78.0978 50.0686C78.0287 50.978 77.9596 51.6531 77.7937 52.1904C77.7522 52.3833 77.6831 52.5486 77.6002 52.6864C77.1855 53.3891 76.3285 53.5544 75.5544 53.6095L75.6788 52.1491C75.6374 52.0664 75.3886 51.8873 75.3333 51.846ZM77.3099 31.5099C77.5449 31.1379 78.3328 30.7108 79.1483 30.2423C79.2451 30.1872 79.3557 30.1321 79.4662 30.0632C79.6183 30.201 79.7703 30.3388 79.9224 30.4765C80.2956 30.8072 80.6826 31.1241 81.0697 31.4272L81.0835 31.441L82.991 33.425C83.4886 33.9486 83.8342 34.3481 84.0692 34.6788L81.2908 34.4859C79.9224 34.4859 78.8166 34.6512 77.9181 34.913C78.0425 34.7201 78.1393 34.4997 78.1946 34.2792C78.4157 33.2321 77.9043 32.2539 77.3099 31.5099ZM85.2026 34.8855C85.0367 34.5686 84.7741 34.169 84.3318 33.6317C84.4424 33.7006 84.5668 33.7695 84.6635 33.8246C85.327 34.1966 85.8246 34.6512 86.1979 35.1472C86.4881 35.533 86.6816 35.9463 86.8337 36.3459C86.889 36.4975 86.9305 36.6628 86.9581 36.8143C86.7922 37.0761 86.5019 37.2415 86.1979 37.2415C86.0734 37.2415 85.949 37.2139 85.8246 37.145C85.3685 36.9108 85.1888 36.3046 85.5067 35.8361C85.5344 35.7948 85.562 35.7535 85.6035 35.7121C85.4653 35.4779 85.3685 35.2161 85.2026 34.8855ZM72.3199 10.2231C72.8728 10.5951 73.3981 11.0223 73.9095 11.4494C74.7389 12.1383 75.5406 12.8685 76.4114 13.516C76.6879 13.7227 77.5311 14.3565 78.1946 14.8663C78.001 15.0729 77.8213 15.2796 77.6416 15.5001C77.1579 16.1338 76.757 16.8503 76.4529 17.5943L74.8909 16.1201C75.0568 15.6929 75.1121 15.1969 75.0568 14.6872C75.0568 14.6596 75.043 14.6321 75.043 14.5907L74.2136 14.9903C74.2413 15.6103 74.0063 16.2578 73.4396 16.5609C73.2599 16.6574 73.1078 16.6987 72.9005 16.6987C72.9005 16.6987 72.9005 16.6987 72.8867 16.6987L72.9143 15.9409C72.6379 15.9409 72.2646 15.6516 72.2646 15.2521C72.2646 14.7974 72.5549 14.5494 72.9143 14.4392V13.5574C72.2232 13.6814 71.7118 14.0947 71.5044 14.6596L70.5921 14.6734C70.5506 13.9845 70.8824 13.3645 71.5873 13.1303V12.2347C70.993 12.3587 70.6059 12.648 70.371 12.9098C70.3018 12.9787 70.2466 13.0614 70.1774 13.144L69.4863 13.1578C69.4587 12.4965 69.7904 11.904 70.4124 11.6974V10.8018C70.0254 10.8845 69.6936 11.036 69.4034 11.284H68.7537C68.7675 10.8569 69.0163 10.4436 69.3619 10.1818C69.666 9.96137 70.053 9.83737 70.4401 9.79603C70.5645 9.78226 70.6889 9.76848 70.8133 9.76848C70.9792 9.76848 71.145 9.78226 71.2971 9.80981C71.6703 9.8787 72.0158 10.0165 72.3199 10.2231ZM70.4677 4.71202C70.993 3.81646 71.2971 2.6729 71.3109 1.48801H73.3981C73.4119 1.63956 73.4258 1.77734 73.4258 1.9289C73.4258 4.20224 71.6012 6.04847 69.3481 6.04847H69.196C69.6798 5.75913 70.1083 5.31824 70.4677 4.71202ZM60.9439 4.71202C61.4692 3.81646 61.7733 2.6729 61.7871 1.48801H64.6207C64.6346 2.6729 64.9387 3.81646 65.4639 4.71202C65.8233 5.31824 66.2518 5.77291 66.7356 6.04847H64.8419C64.3581 5.55246 63.9573 4.87735 63.6946 4.07824H62.7409C62.4921 4.87735 62.0912 5.55246 61.5936 6.04847H59.6584C60.156 5.75913 60.5984 5.31824 60.9439 4.71202ZM51.2819 4.71202C51.8072 3.81646 52.1113 2.6729 52.1251 1.48801H55.1108C55.1246 2.6729 55.4287 3.81646 55.954 4.71202C56.3134 5.31824 56.7419 5.75913 57.2256 6.04847H55.1661C54.6823 5.55246 54.2814 4.87735 54.0188 4.07824H53.065C52.8162 4.87735 52.4154 5.55246 51.9178 6.04847H49.9826C50.4802 5.75913 50.9225 5.31824 51.2819 4.71202ZM41.8549 4.71202C42.3801 3.81646 42.6842 2.6729 42.6981 1.48801H45.435C45.4488 2.6729 45.7529 3.81646 46.2781 4.71202C46.6375 5.31824 47.066 5.77291 47.5498 6.04847H45.6146C45.1309 5.55246 44.73 4.87735 44.4674 4.07824H43.5136C43.2648 4.87735 42.8639 5.55246 42.3663 6.04847H40.5556C41.067 5.75913 41.5093 5.31824 41.8549 4.71202ZM33.8516 1.86001C33.8516 1.73601 33.8516 1.61201 33.8654 1.47423H36.0079C36.0217 2.65912 36.3258 3.80268 36.8511 4.69824C37.2105 5.30446 37.639 5.75913 38.1228 6.03469H37.9154C35.7315 6.04847 33.8516 4.13335 33.8516 1.86001ZM30.6309 13.5023C31.5017 12.8547 32.3035 12.1383 33.1328 11.4356C33.6443 11.0085 34.1695 10.5814 34.7224 10.2094C35.0403 9.98892 35.3997 9.85114 35.7868 9.79603C35.925 9.76848 36.077 9.7547 36.2291 9.7547C36.3673 9.7547 36.5055 9.76848 36.6576 9.78226C37.0308 9.83737 37.404 9.94759 37.6943 10.168C38.0398 10.416 38.2887 10.8294 38.3025 11.2703H37.6528C37.3625 11.036 37.017 10.8707 36.6438 10.788V11.6836C37.2796 11.8903 37.6113 12.4827 37.5699 13.144L36.8787 13.1303C36.8235 13.0476 36.7543 12.9787 36.6852 12.896C36.4502 12.648 36.0494 12.3587 35.4688 12.2209V13.1165C36.16 13.3507 36.4917 13.9707 36.4641 14.6596L35.5518 14.6458C35.3444 14.0672 34.833 13.6676 34.1419 13.5436V14.4254C34.5013 14.5356 34.7915 14.7836 34.7915 15.2383C34.7915 15.6378 34.4321 15.9272 34.1419 15.9272L34.1695 16.6849C34.1695 16.6849 34.1695 16.6849 34.1557 16.6849C33.9622 16.6849 33.7963 16.6298 33.6166 16.5472C33.0499 16.2441 32.8287 15.5827 32.8425 14.9765L32.0132 14.5769C32.0132 14.6045 31.9994 14.6321 31.9994 14.6734C31.9302 15.1832 31.9994 15.6792 32.1652 16.1063L30.6033 17.5943C30.2992 16.8503 29.8983 16.1476 29.4145 15.5001C29.2348 15.2796 29.0551 15.0592 28.8616 14.8663C29.5113 14.3427 30.3545 13.7089 30.6309 13.5023ZM4.9485 53.9953C4.82409 53.1549 4.96232 50.1651 5.05908 48.4566C5.10055 47.7677 5.62581 47.2028 6.30311 47.1064C7.07718 46.9962 8.07241 46.8446 8.80501 46.6931C9.96611 46.4451 11.0857 45.9353 11.3484 45.1086C11.5695 44.3922 11.4451 44.3095 11.376 43.5793C11.3207 43.0144 11.2516 42.4357 11.2101 41.8708C11.2101 41.7881 11.1963 41.6917 11.1963 41.609C11.1825 41.2784 11.1963 40.9339 11.2378 40.6033C11.1687 40.6446 11.0996 40.6859 11.0304 40.7273C10.8093 40.8513 10.5743 40.9339 10.3393 41.0028C10.0767 41.0717 9.81406 41.0993 9.53761 41.0993C8.95706 41.0993 8.39033 40.9477 7.87889 40.6308C6.95278 40.0659 6.41369 39.0877 6.44134 38.013C6.48281 36.0979 7.57479 34.7477 8.62531 33.4388C9.12293 32.8188 9.64819 32.1712 10.0352 31.4823C11.2654 29.2779 11.5557 26.8805 10.8922 24.3592C10.6019 23.257 9.93846 22.265 9.23351 21.2041C8.97088 20.8045 8.72207 20.4325 8.47326 20.0192C8.47326 20.0192 7.92036 20.2672 7.56097 20.1845C7.46421 20.157 7.36746 20.1156 7.25687 20.0467C6.4137 19.5232 5.51522 17.3876 5.55669 14.8249C5.58434 12.7858 6.06813 11.0911 7.02189 9.69959C6.81455 10.2783 6.63486 10.8845 6.52428 11.4907C6.39987 12.152 6.3584 12.8409 6.39987 13.5023C6.44134 14.1774 6.57957 14.8249 6.80073 15.4312C6.70397 14.7836 6.70397 14.136 6.78691 13.5023C6.86984 12.8685 7.03571 12.2623 7.2707 11.6836C7.47804 11.1738 7.72684 10.6778 8.01712 10.2094C7.8236 11.3943 7.8236 12.5929 8.14152 14.0809C8.33504 15.0041 8.73589 15.8858 9.08146 16.6574C9.39938 17.3601 9.63436 17.925 9.73112 18.3934C9.8417 18.9032 9.77259 19.289 9.42703 19.6058C9.48232 19.7023 9.55143 19.7987 9.60672 19.8952C9.75877 20.1294 9.92464 20.3774 10.0905 20.6254C10.8093 21.7139 11.5557 22.8299 11.8875 24.0974C12.6062 26.853 12.2745 29.581 10.9337 31.9921C10.5052 32.7637 9.95229 33.4388 9.42703 34.1001C8.44562 35.3263 7.50568 36.4837 7.46421 38.0544C7.45039 38.7708 7.79596 39.3908 8.40415 39.7628C9.03999 40.1486 9.80024 40.1761 10.4499 39.8593C10.4637 39.8455 10.4914 39.8455 10.5052 39.8317C11.0028 39.5699 11.4451 39.0739 11.7078 38.4952C11.7216 38.4677 11.7216 38.4401 11.7354 38.4126C12.0533 37.4895 12.4404 36.5801 12.8827 35.7121C14.182 33.1219 15.7993 30.697 16.8221 27.969C17.7068 25.6268 17.3059 22.7747 17.3059 22.7747C16.4074 23.133 15.0943 23.1743 15.0943 23.1743C15.1358 20.2534 8.84648 13.4747 12.6753 5.20802C12.938 5.63513 13.2835 6.07602 13.7673 6.53069L14.1129 6.86136V5.66269C12.1086 3.59601 13.0347 1.62578 13.7811 0.964448C14.3479 1.17112 14.9975 1.79112 15.4813 2.5489L16.3245 2.27334C16.1172 1.9289 15.8822 1.59823 15.6196 1.29512C15.7025 1.24 15.7854 1.19867 15.8822 1.18489C15.9237 1.18489 15.9789 1.17112 16.0481 1.17112C17.3059 1.17112 22.0333 2.25956 22.5032 2.50756L22.9179 3.76135C24.2034 4.10579 25.3921 4.79468 26.2353 5.24935C26.0971 5.60758 25.7101 6.42047 24.936 6.3378C24.936 6.3378 25.6962 6.79247 25.5442 7.50891C25.2954 8.03247 24.9775 8.56981 24.5766 9.03825L23.8025 8.2667C22.8903 7.42625 22.0885 7.12314 21.4251 7.12314C20.5542 7.12314 19.946 7.67425 19.6972 8.30803C19.3102 9.27248 19.3517 10.044 19.4899 10.54C19.6005 10.912 19.9046 11.2151 20.5957 11.2703C20.7201 11.284 20.8583 11.284 20.9966 11.284C22.4203 11.284 24.2863 10.7743 24.2863 10.7743C24.5766 12.3174 24.7563 12.6205 22.5447 12.6205C22.0333 12.6205 21.3974 12.6067 20.6095 12.5792L22.8211 13.5849C23.07 13.5712 23.3049 13.5574 23.5399 13.5574C25.171 13.5574 26.4703 14.0396 27.4932 14.8249C27.7282 15.0041 27.9493 15.1969 28.1567 15.4036C28.9446 16.2027 29.5113 17.1947 29.9121 18.2418C30.0227 18.545 30.1195 18.8481 30.2024 19.1512C30.6309 20.7494 30.6862 22.4165 30.4651 23.753C30.2992 23.5463 30.1333 23.3534 29.9398 23.1605L29.843 23.0641C29.1795 22.4165 28.0599 21.3005 26.7191 20.6116C26.2215 20.1707 25.7515 19.7298 25.2954 19.2476C24.314 18.2143 23.4432 17.0707 22.7935 15.7756C23.1944 17.1672 23.8717 18.5036 24.6734 19.7298C24.9913 20.2121 25.323 20.6805 25.6686 21.1352C25.9727 21.2592 26.2492 21.397 26.5256 21.5623C27.7005 22.2236 28.6958 23.2432 29.2763 23.8219C29.6219 24.1525 29.8983 24.5245 30.161 24.9103C30.3683 25.2134 30.548 25.5165 30.7415 25.8334C30.8797 26.0676 31.0318 26.3156 31.17 26.5499C31.792 27.5557 32.6214 28.5477 33.0913 28.5477C33.2572 28.5477 33.3816 28.4237 33.4369 28.1481C33.6857 26.8943 34.4736 26.3432 35.3306 26.3432C35.7315 26.3432 36.1461 26.4672 36.5194 26.6876L35.6624 27.4868C36.1738 28.093 35.6347 29.0161 35.0818 29.3192C34.4874 29.6361 34.8054 30.1872 35.2339 30.1872C35.3721 30.1872 35.5103 30.1321 35.6485 30.0081C36.0079 29.6774 36.4779 29.5121 36.934 29.5121C37.9016 29.5121 38.8554 30.2561 38.731 31.7992L37.9846 31.3859C37.7357 32.1988 37.1552 32.5432 36.6161 32.5432C36.3673 32.5432 36.1323 32.4743 35.9526 32.3366C35.538 32.0334 35.1095 31.7166 34.8192 31.7166C34.7224 31.7166 34.6257 31.7579 34.5704 31.8406C34.3492 32.1437 34.5842 32.4468 35.3721 32.8326C36.7682 33.5215 36.9893 35.5468 34.9298 35.9326L34.7086 34.6788C34.6118 34.7063 34.5151 34.7201 34.4183 34.7201C33.8239 34.7201 33.4093 34.1966 33.3402 33.8108C33.2434 33.2459 33.271 32.9014 33.2434 32.5432C33.2296 32.2263 33.0222 32.0886 32.8149 32.0886C32.5661 32.0886 32.3173 32.2677 32.2896 32.5846C32.2482 33.177 32.262 33.9486 31.2115 34.1277L30.8797 35.1886C29.8845 34.8441 28.8893 33.7006 30.7 31.7717C30.7277 30.7934 29.691 30.2286 28.2396 29.4157C27.9908 29.2779 27.7282 29.1263 27.4655 28.9748C27.3273 28.8921 27.1891 28.8094 27.0509 28.7268C26.7606 28.5477 25.641 27.7348 24.6595 26.8943L23.8025 27.349C23.9822 27.5005 24.1758 27.6659 24.3969 27.8588C25.2816 28.589 26.2353 29.3054 26.5947 29.5121C26.6638 29.5534 26.7329 29.5948 26.8021 29.6361C25.8621 30.5041 24.8531 31.2619 23.9408 31.8681C23.5676 32.1161 23.2082 32.3503 22.8764 32.557C22.5447 32.7637 22.2268 32.9428 21.9641 33.0943C21.2315 33.5077 20.651 34.0175 20.2087 34.5961C19.9184 34.9681 19.6972 35.3677 19.5314 35.7672C19.3655 36.153 19.2549 36.5526 19.1996 36.9521C19.172 37.0899 19.1582 37.2139 19.1443 37.3517C19.1167 37.7237 19.1305 38.0819 19.172 38.4264C19.2273 38.7984 19.2687 39.1704 19.324 39.5424C19.3931 40.1072 19.4484 40.6584 19.4899 41.2233C19.5452 41.8846 19.5728 42.5321 19.5728 43.1797C19.5728 45.1637 19.2687 46.5828 17.8865 47.9331C16.8912 48.9113 15.4952 49.1455 14.1405 49.242C13.4356 49.2833 11.4589 49.5726 10.1182 49.7793C9.34409 49.8895 8.76354 50.5371 8.72207 51.3224C8.66678 52.3833 8.6806 53.7749 9.05381 54.2433L10.8784 53.9953C11.3069 53.3615 12.3298 52.8655 13.325 52.8655C14.0991 52.8655 14.8593 53.1686 15.2878 53.9677C15.4122 54.202 15.5228 54.4775 15.5781 54.8082C15.5919 54.9046 15.6057 55.0011 15.6196 55.1113L15.039 54.8771L14.7073 54.7393C14.6934 54.822 14.6796 54.8909 14.6658 54.9598C14.4723 55.7589 14.0576 56.0482 13.56 56.0482C13.325 56.0482 13.0762 55.9793 12.8136 55.8829C12.7859 55.8691 12.7583 55.8553 12.7168 55.8415C12.2468 55.6486 11.9151 55.4971 11.6663 55.4971C11.5004 55.4971 11.376 55.566 11.2654 55.7589C11.1134 56.0206 11.2654 56.2411 11.5281 56.4202C11.611 56.4753 11.7216 56.5304 11.8183 56.5718C13.2144 57.1504 13.6153 58.5007 12.3298 59.906L11.3622 59.0518C11.2101 59.1482 11.0581 59.1895 10.9199 59.1895C10.4499 59.1895 10.0214 58.7624 9.91082 58.4455C9.73112 57.9633 9.92464 57.4122 9.99375 57.0126C10.0076 56.9024 10.0214 56.7922 10.0076 56.7095C9.97993 56.4891 9.82788 56.31 9.64818 56.2135C9.56525 56.1722 9.48232 56.1446 9.38556 56.1446C9.30262 56.1446 9.21968 56.1584 9.13675 56.1998C9.05381 56.2411 8.9847 56.2962 8.92941 56.3651C8.80501 56.5166 8.77736 56.7233 8.77736 56.93C8.77736 57.0402 8.77736 57.1642 8.76354 57.2744C8.7359 57.4673 8.6806 57.6464 8.51473 57.798C8.4318 57.8669 8.34886 57.922 8.26593 57.9771C8.21063 58.0046 7.94801 58.1287 7.93418 58.1838L7.80978 59.534C6.8422 59.2998 5.77785 58.8313 6.04048 57.3295C6.08195 57.0815 6.16489 56.7922 6.30311 56.4753C6.34458 56.3651 6.39987 56.2411 6.46898 56.1171C5.63963 55.7038 5.08672 54.9184 4.9485 53.9953ZM21.4389 9.58937C21.9365 9.58937 22.4479 9.71337 22.987 9.90626C23.5676 9.54803 23.692 9.09336 23.9131 9.06581C24.079 9.05203 24.1481 9.52048 24.0652 9.96137C24.0652 9.96137 23.2496 10.1405 22.7106 10.2231C22.1715 10.3196 21.5633 10.4023 21.0242 10.4023C20.8998 10.4023 20.7892 10.4023 20.6925 10.3885C20.4298 10.3609 20.3469 10.3058 20.3469 10.292C20.3469 10.292 20.3469 10.292 20.3469 10.2783C20.3192 10.1956 20.2916 10.0716 20.2916 9.90626C20.6372 9.68581 21.0242 9.58937 21.4389 9.58937ZM20.3745 8.99692C20.4022 8.87292 20.4575 8.73514 20.5128 8.59736C20.5681 8.44581 20.8169 7.96358 21.4389 7.96358C21.7983 7.96358 22.3926 8.11514 23.2082 8.87292L23.5399 9.21736C22.8073 8.98314 22.0885 8.79025 21.4251 8.79025C21.0657 8.79025 20.7201 8.85914 20.3745 8.99692ZM31.1147 47.9744L32.5937 47.4784L33.3263 47.2304L33.741 47.0926C34.4045 46.1557 35.4827 45.4944 36.5055 45.4944C37.5008 45.4944 38.4545 46.1282 38.9245 47.7677L37.8878 47.5473C37.8878 48.6082 37.5422 48.8837 37.0031 48.8837C36.8926 48.8837 36.7682 48.87 36.6438 48.8562C36.4917 48.8286 36.3397 48.8011 36.1738 48.7735C35.6624 48.6771 35.2891 48.5668 35.0265 48.5668C34.7777 48.5668 34.6118 48.6633 34.5151 48.9251C34.3769 49.3246 34.7639 49.5726 35.2615 49.6966C36.4779 49.9722 37.169 50.8264 36.9479 51.97C36.8926 52.2317 36.8096 52.4935 36.6576 52.7829C36.6023 52.9069 36.5332 53.0171 36.4502 53.1411C36.4502 53.1411 36.4364 53.1411 36.4364 53.1549L35.2339 52.4246C35.0542 52.6037 34.8468 52.6726 34.6395 52.6726C34.1833 52.6726 33.741 52.342 33.5751 52.0526C33.5613 52.0251 33.5475 51.9975 33.5337 51.97C33.3954 51.6944 33.3816 51.3775 33.3816 51.0882C33.3816 50.9228 33.3954 50.7575 33.3954 50.606C33.3954 50.4268 33.3954 50.2753 33.354 50.1651C33.2849 49.9446 33.1052 49.7931 32.9117 49.7104C32.8425 49.6828 32.7596 49.6691 32.6905 49.6691C32.5661 49.6691 32.4417 49.7104 32.3311 49.7931C32.0408 49.9997 32.0408 50.3166 32.0823 50.6335C32.1238 50.9642 32.1791 51.2673 31.9994 51.5428C31.9855 51.5704 31.9717 51.5842 31.9579 51.6117C31.8888 51.6944 31.8058 51.7771 31.7229 51.846C31.6676 51.8873 31.4188 52.0664 31.4188 52.1353L31.5432 53.5957C30.7691 53.5406 29.9121 53.3753 29.4975 52.6726C29.4145 52.5349 29.3454 52.3557 29.304 52.1766C29.1519 51.6393 29.0828 50.978 28.9999 50.0548C28.6543 49.9171 28.3502 49.738 28.0876 49.5037C27.7558 49.2144 27.4932 48.8562 27.3411 48.4015C26.9265 47.1615 26.5671 44.6815 27.12 42.0637C27.12 42.0637 21.5495 41.3748 20.3469 40.7686C20.264 39.9006 20.1672 39.0601 20.0566 38.3024C20.0428 38.1646 20.029 38.0268 20.029 37.8752C20.2916 38.0268 20.5957 38.1095 20.8998 38.1095C21.1763 38.1095 21.4251 38.0406 21.6739 37.9166C22.1577 37.6686 22.4894 37.2139 22.5862 36.6766C22.6553 36.3321 22.6138 35.9739 22.4756 35.657C22.4756 35.657 22.4756 35.6432 22.4894 35.6432C22.8626 35.5743 23.2773 35.5192 23.7334 35.4641C24.4937 35.3815 25.1848 35.3401 25.8206 35.3401C31.7644 35.3401 32.2482 38.5917 32.2482 38.5917C33.1743 42.0499 30.3959 43.6068 30.3959 43.6068C30.3959 43.6068 29.7048 46.7757 31.1147 47.9744ZM16.4766 52.4522C16.4766 52.5486 16.5318 53.2926 17.0571 54.0917C16.7668 54.0229 16.5042 53.9815 16.2554 53.954C15.7854 52.714 14.7349 51.9837 13.3388 51.9837C12.233 51.9837 11.0996 52.4522 10.4361 53.1686L9.63436 53.2789C9.57907 52.9344 9.53761 52.342 9.5929 51.3637C9.60672 50.9917 9.897 50.6886 10.2564 50.6335C12.2883 50.3304 13.6982 50.1375 14.2097 50.11C15.6472 50.0135 17.2783 49.7517 18.4947 48.5531C19.2549 47.8091 19.7802 46.9824 20.0704 46.0593C20.3192 45.2739 20.4298 44.3922 20.4298 43.1797C20.4298 42.6975 20.416 42.2153 20.3884 41.733C20.5957 41.8019 20.8445 41.8708 21.121 41.9397C21.7292 42.0913 22.5585 42.2566 23.5676 42.4219C24.4937 42.5735 25.4198 42.7113 26.0695 42.7939C25.7377 45.205 26.0556 47.4095 26.4841 48.6633C26.7606 49.49 27.3273 50.1513 28.1428 50.606C28.1428 51.4877 28.4193 52.3695 28.4193 52.3971C27.7973 52.0802 26.8435 51.722 25.7377 51.722C25.2816 51.722 24.8254 51.7909 24.3969 51.9011C24.1205 51.9837 23.8578 52.0664 23.5952 52.1353C22.6276 52.4246 21.7292 52.714 20.7754 52.714C19.7663 52.714 18.8126 52.3971 17.7897 51.6944L16.366 50.73L16.4766 52.4522ZM21.5633 35.8499C21.8674 36.3183 21.7015 36.9246 21.2454 37.1588C21.121 37.2277 20.9966 37.2552 20.8722 37.2552C20.5681 37.2552 20.2778 37.0899 20.1119 36.8281C20.1396 36.6766 20.1948 36.5112 20.2363 36.3597C20.3745 35.9463 20.5819 35.5468 20.8722 35.161C21.2454 34.665 21.743 34.2103 22.4065 33.8383C22.5032 33.7832 22.6138 33.7143 22.7382 33.6455C22.2959 34.1828 22.0333 34.5686 21.8674 34.8992C21.6877 35.2299 21.6048 35.4917 21.4803 35.7397C21.4942 35.7672 21.5356 35.8086 21.5633 35.8499ZM27.1338 30.4903C27.2858 30.3525 27.4379 30.2148 27.5899 30.077C27.7005 30.1321 27.7973 30.201 27.9079 30.2561C28.7234 30.7108 29.4975 31.1517 29.7463 31.5237C29.1519 32.2539 28.6266 33.2459 28.8893 34.2792C28.9446 34.4997 29.0413 34.7201 29.1657 34.913C28.2673 34.6512 27.1614 34.4859 25.793 34.4859L23.0147 34.6788C23.2496 34.3481 23.5814 33.9486 24.0928 33.425L26.0003 31.441L26.0142 31.4272C26.3736 31.1379 26.7606 30.821 27.1338 30.4903ZM14.804 59.9611C13.3803 61.4767 11.4589 62.1793 9.48231 62.1793C6.09577 62.1793 2.59865 60.0989 1.36844 56.434C1.36844 56.434 3.04098 56.9989 5.1973 57.2469C5.10055 57.8393 5.15584 58.3629 5.377 58.8313C5.84697 59.8233 6.88366 60.1815 7.61626 60.3744L8.59767 60.6224L8.69443 59.6167L8.79118 58.6798C8.87412 58.6246 8.97088 58.5558 9.05381 58.4869C9.06764 58.5695 9.09528 58.6522 9.12293 58.7349C9.35791 59.3824 10.1043 60.0438 10.9475 60.0438C11.0304 60.0438 11.1134 60.0438 11.1963 60.03L11.7907 60.5535L12.4265 61.1184L13.0071 60.4847C13.8226 59.6029 14.1544 58.6109 13.947 57.7015C13.8779 57.4122 13.7673 57.1366 13.6015 56.8886C14.1129 56.8886 14.569 56.6958 14.9146 56.3375C15.039 56.1998 15.1634 56.0482 15.2463 55.8691L15.3016 55.8829L16.6424 56.434L16.4904 55.0011C16.4904 54.946 16.4766 54.9046 16.4766 54.8495C17.0709 54.946 17.7897 55.1664 18.702 55.5109C18.8264 55.5798 18.9646 55.6349 19.089 55.6762C19.1581 55.7037 19.2134 55.7313 19.2826 55.7451C18.9923 55.9104 18.702 56.0758 18.4394 56.2411C17.1262 57.0815 16.2278 57.9909 15.7578 58.9415C15.4675 59.2722 15.1496 59.6029 14.804 59.9611ZM25.0466 56.9713C24.0928 57.7704 22.7659 57.9358 21.5633 58.0184C17.9141 58.294 16.4213 61.5731 16.4213 61.5731C16.1172 60.8153 16.1725 60.0989 16.4627 59.4513C16.9051 58.4593 17.9003 57.6051 18.9508 56.9438C20.7063 55.8415 22.6414 55.2215 22.6414 55.2215C22.2959 55.2491 21.978 55.2629 21.6739 55.2629C20.9136 55.2629 20.2916 55.1664 19.7802 55.0149C19.4899 54.9322 19.2273 54.822 19.0061 54.7118C17.3889 53.8851 17.3336 52.4109 17.3336 52.4109C18.6191 53.2789 19.7525 53.582 20.803 53.582C22.1577 53.582 23.3879 53.0997 24.6457 52.7415C25.0189 52.6313 25.3921 52.59 25.7515 52.59C26.7882 52.59 27.6867 52.9757 28.1981 53.2513C27.5485 53.6509 26.9956 54.1606 26.5671 54.8082C26.4012 55.07 26.2492 55.3317 26.1247 55.5797C25.7239 56.1446 25.4613 56.6406 25.0466 56.9713ZM31.1147 55.7175C29.843 56.0069 28.6543 56.7371 28.2534 58.046C28.0184 58.8038 28.0599 59.6304 28.1014 60.4158C28.1014 60.4158 25.5027 58.9415 26.885 56.0344C26.9956 55.8002 27.1476 55.5384 27.3135 55.2766C27.6452 54.7669 28.0461 54.4086 28.4193 54.1331C28.5575 54.0504 28.6958 53.9815 28.8478 53.8989L29.2348 53.706C29.8983 54.2709 30.7968 54.4086 31.4603 54.45L32.4693 54.5189L32.3864 53.5131L32.3035 52.466C32.414 52.3695 32.5246 52.2593 32.6352 52.1215C32.6352 52.1077 32.649 52.1077 32.649 52.094C32.6905 52.218 32.7458 52.342 32.8149 52.4522C33.119 52.9757 33.8378 53.4993 34.6257 53.4993C34.833 53.4993 35.0265 53.458 35.22 53.3891L35.6762 53.6646C35.6485 53.6922 35.6071 53.7197 35.5794 53.7473C34.1004 55.1389 33.0084 55.2904 31.1147 55.7175ZM70.3295 60.5122C70.3295 60.5122 71.0759 57.2193 69.4863 56.1722C66.9429 54.5189 65.5883 55.938 62.7409 53.7749C62.7132 53.7335 62.6718 53.706 62.6441 53.6646C61.3033 52.3144 59.8243 51.4602 58.4835 51.0055C57.5574 51.1571 56.5345 51.2673 55.4011 51.3224C55.6222 51.3362 55.8434 51.35 56.0784 51.3775C56.4792 51.4188 56.9077 51.4877 57.35 51.5842C58.0274 51.7357 58.7461 51.97 59.4649 52.3144C60.3357 52.7415 61.2066 53.4304 62.0221 54.2571C62.0774 54.3122 62.1189 54.3535 62.1603 54.4086C63.9296 56.3238 63.4596 58.1975 63.4596 58.1975C63.4596 58.1975 61.1927 55.194 57.8062 55.194C56.1889 55.194 54.7929 55.7313 54.0741 56.0895L53.5488 56.3651L53.0236 56.0895C52.3048 55.7451 50.9087 55.194 49.2915 55.194C45.9049 55.194 43.638 58.1975 43.638 58.1975C43.638 58.1975 43.1542 56.3238 44.9373 54.4086C44.9788 54.3535 45.0341 54.3122 45.0756 54.2571C45.8911 53.4304 46.7619 52.7277 47.6327 52.3144C48.3515 51.97 49.0703 51.7357 49.7476 51.5842C50.1899 51.4877 50.6184 51.4188 51.0193 51.3775C51.2543 51.35 51.4892 51.3362 51.7104 51.3224C50.577 51.2673 49.5541 51.1571 48.6141 51.0055C47.2734 51.4602 45.7943 52.3006 44.4535 53.6646C44.4121 53.706 44.3844 53.7335 44.3568 53.7749C41.5093 55.938 40.1547 54.5189 37.6113 56.1722C36.0217 57.2055 36.7682 60.5122 36.7682 60.5122C36.7682 60.5122 33.4093 57.9771 36.4502 54.6291C37.0861 53.9264 37.8602 53.3477 38.4269 52.962C38.8969 52.6451 39.2286 52.466 39.2286 52.466C39.2286 52.466 38.9521 52.4384 38.5928 52.3695C38.3992 52.342 38.1642 52.2868 37.9154 52.2317C37.874 52.218 37.8187 52.2042 37.7634 52.1904C37.8878 51.598 37.8463 51.0193 37.639 50.5095C37.5561 50.3028 37.4316 50.0962 37.2934 49.9171C38.6066 50.2753 40.2238 50.5508 42.0622 50.5508C42.7672 50.5508 43.4998 50.3993 44.2738 50.3166C44.5365 50.2891 44.8268 50.2753 45.117 50.2753C45.2138 50.2753 45.3105 50.2753 45.4073 50.2891C44.6885 50.0686 44.0527 49.8206 43.4721 49.5726C43.0022 49.6415 42.5322 49.7104 42.0622 49.7104C40.6109 49.7104 39.3115 49.5313 38.1919 49.2695C38.3992 49.0628 38.5236 48.8286 38.6066 48.5668L38.731 48.5944L40.1409 48.8975L39.74 47.5059C38.9936 44.8882 37.2243 44.6126 36.4917 44.6126C35.3168 44.6126 34.0451 45.2877 33.2019 46.3486L31.405 46.9548C31.0041 46.2246 31.0318 44.9295 31.1424 44.1166C31.4603 43.8824 31.9164 43.4828 32.3311 42.8904C32.9669 41.9948 33.6028 40.493 33.0499 38.3988C32.9946 38.1232 32.7043 37.0624 31.5709 36.1255L31.7782 35.4503L31.9579 34.8579C32.2343 34.7477 32.4555 34.5823 32.6214 34.4032C32.8702 34.913 33.354 35.3815 33.9622 35.533L34.0589 36.0566L34.211 36.9659L35.1095 36.8006C36.3535 36.5663 37.1828 35.7948 37.3349 34.7477C37.404 34.2792 37.3211 33.797 37.1137 33.3561C37.5837 33.2459 38.0122 32.9841 38.3301 32.5846L39.505 33.2459L39.6156 31.8406C39.7124 30.6143 39.2701 29.8428 38.883 29.4294C38.3854 28.8921 37.6666 28.589 36.9202 28.589C36.8373 28.589 36.7682 28.589 36.6852 28.6028C36.6991 28.5339 36.7267 28.465 36.7405 28.3961C36.782 28.1619 36.782 27.9277 36.7405 27.6934L37.1414 27.3214L38.026 26.4948L36.9893 25.8748C36.4641 25.5579 35.8973 25.3925 35.3306 25.3925C34.3907 25.3925 33.3125 25.8748 32.7734 27.1699C32.5523 26.9081 32.262 26.5361 31.9441 26.0263C31.8197 25.8196 31.6953 25.613 31.5709 25.4063C31.4326 25.1721 31.2806 24.9241 31.1285 24.6899V24.6761C31.5847 22.9676 31.5709 20.6254 30.8936 18.4485L32.5937 16.8365C32.7596 17.0294 32.9669 17.1809 33.1881 17.2912C33.506 17.4565 33.7963 17.5392 34.128 17.5392H34.1419L35.0403 17.5254V16.4232C35.068 16.3956 35.1095 16.3681 35.1371 16.3405C35.3859 16.1063 35.538 15.8169 35.5932 15.4863L36.4226 15.5001L37.252 15.5138L37.2934 14.6872C37.3072 14.4392 37.2796 14.2049 37.2381 13.9707H37.5422L38.3716 13.9845L38.4131 13.1578C38.4269 12.7858 38.3716 12.4276 38.2472 12.1107H38.2748H39.1595L39.1318 11.2289C39.118 10.54 38.7586 9.8787 38.1781 9.46537C37.6666 9.09336 37.0861 8.95559 36.6299 8.91425V6.90269H70.4124V8.90047C69.9563 8.94181 69.3481 9.07959 68.8228 9.46537C68.2423 9.89248 67.8829 10.5538 67.8691 11.2289L67.8414 12.1107H68.7261H68.7537C68.6293 12.4276 68.5602 12.7858 68.5878 13.1578L68.6293 13.9845L69.4587 13.9707H69.7628C69.7075 14.1912 69.6936 14.4392 69.7075 14.6872L69.7489 15.5138L70.5783 15.5001L71.4077 15.4863C71.4629 15.8032 71.615 16.1063 71.8638 16.3405C71.8914 16.3681 71.9329 16.3956 71.9605 16.4232V17.5254L72.859 17.5392H72.8728C73.2046 17.5392 73.4949 17.4565 73.8128 17.2912C74.0339 17.1672 74.2413 17.0156 74.4072 16.8365L76.1073 18.4485C75.43 20.6254 75.4024 22.9676 75.8724 24.6761V24.6899C75.7203 24.9241 75.5683 25.1721 75.43 25.4063C75.3056 25.613 75.1812 25.8196 75.0568 26.0263C74.7527 26.5223 74.4486 26.9219 74.2275 27.1836C73.6884 25.8885 72.6102 25.4063 71.6703 25.4063C71.1035 25.4063 70.5368 25.5716 70.0116 25.8885L68.9749 26.5085L69.8595 27.3352L70.2604 27.7072C70.2189 27.9277 70.2189 28.1619 70.2604 28.4099C70.2742 28.4788 70.288 28.5477 70.3157 28.6165C70.2327 28.6165 70.1636 28.6028 70.0807 28.6028C69.3204 28.6028 68.6017 28.9059 68.1179 29.4432C67.7308 29.8703 67.2885 30.6281 67.3853 31.8543L67.4958 33.2597L68.6708 32.5983C68.9887 32.9841 69.4172 33.2459 69.8872 33.3699C69.6798 33.8108 69.5969 34.2792 69.666 34.7615C69.818 35.8223 70.6474 36.5939 71.8914 36.8143L72.7899 36.9797L72.942 36.0703L73.0387 35.5468C73.6607 35.3815 74.1445 34.9268 74.3795 34.417C74.5454 34.5961 74.7665 34.7477 75.043 34.8717L75.195 35.3677L75.2227 35.4641L75.43 36.1392C74.2966 37.0899 74.0063 38.137 73.951 38.4126C73.3981 40.5068 74.034 42.0086 74.6698 42.9041C75.0845 43.4966 75.5406 43.8962 75.8585 44.1304C75.9691 44.9433 75.9968 46.2384 75.5959 46.9686L73.799 46.3624C72.942 45.3015 71.6841 44.6264 70.5092 44.6264C69.7766 44.6264 68.0073 44.9019 67.2609 47.5197L66.86 48.9113L68.2699 48.6082L68.3943 48.5806C68.4773 48.8286 68.6017 49.0766 68.809 49.2833C67.6894 49.5313 66.39 49.7242 64.9387 49.7242C64.4687 49.7242 63.9987 49.6553 63.5288 49.5864C62.9482 49.8344 62.3124 50.0824 61.5936 50.3028C61.6903 50.3028 61.7733 50.3028 61.87 50.3028C62.1603 50.3028 62.4506 50.3166 62.7132 50.3442C63.4873 50.4406 64.2199 50.5784 64.9248 50.5784C66.7633 50.5784 68.3805 50.3028 69.6936 49.9446C69.5554 50.1237 69.431 50.3166 69.3481 50.5371C69.1407 51.0468 69.0993 51.6255 69.2237 52.218C69.1684 52.2317 69.1269 52.2455 69.0716 52.2593C68.8228 52.3144 68.5878 52.3695 68.3943 52.3971C68.0211 52.466 67.7999 52.4797 67.7999 52.4797C67.7999 52.4797 68.1317 52.6589 68.6017 52.9757C69.1684 53.3615 69.9286 53.9402 70.5783 54.6429C73.6884 57.9771 70.3295 60.5122 70.3295 60.5122ZM78.9548 60.4158C78.9963 59.6304 79.0239 58.8038 78.8028 58.046C78.4019 56.7371 77.2132 56.0206 75.9415 55.7175C74.0478 55.2766 72.9558 55.1389 71.4768 53.7749C71.4491 53.7473 71.4076 53.7197 71.38 53.6922L71.8362 53.4166C72.0158 53.4855 72.2232 53.5269 72.4305 53.5269C73.2322 53.5269 73.951 53.0033 74.2413 52.4797C74.3104 52.3557 74.3657 52.2455 74.4072 52.1215C74.4072 52.1353 74.421 52.1353 74.421 52.1491C74.5316 52.2869 74.6421 52.3971 74.7527 52.4935L74.6698 53.5406L74.5868 54.5464L75.5959 54.4775C76.2594 54.4362 77.144 54.2984 77.8213 53.7335L78.2084 53.9264C78.3604 54.0091 78.4987 54.078 78.6369 54.1606C79.0239 54.4362 79.4109 54.7944 79.7427 55.3042C79.9224 55.566 80.0606 55.814 80.1712 56.062C81.5535 58.9415 78.9548 60.4158 78.9548 60.4158ZM90.6073 61.5869C90.6073 61.5869 89.1282 58.3078 85.4653 58.0322C84.2627 57.9358 82.9495 57.7704 81.9819 56.9851C81.5673 56.6406 81.3046 56.1446 80.89 55.5935C80.7656 55.3318 80.6135 55.0837 80.4476 54.822C80.0191 54.1744 79.4801 53.6509 78.8166 53.2651C79.328 52.9895 80.2127 52.6037 81.2632 52.6037C81.6226 52.6037 81.982 52.6451 82.369 52.7553C83.6407 53.1135 84.8571 53.5957 86.2117 53.5957C87.2622 53.5957 88.3957 53.3064 89.6812 52.4246C89.6812 52.4246 89.612 53.8989 88.0086 54.7255C87.7874 54.8357 87.5248 54.946 87.2345 55.0286C86.7231 55.1802 86.0873 55.2766 85.3408 55.2766C85.0367 55.2766 84.7188 55.2629 84.3733 55.2353C84.3733 55.2353 86.3084 55.8553 88.0639 56.9575C89.1282 57.6326 90.1097 58.4731 90.552 59.4651C90.8561 60.1127 90.9252 60.8153 90.6073 61.5869ZM97.5739 62.1793C95.5972 62.1793 93.6621 61.4767 92.2522 59.9611C91.9066 59.6029 91.6025 59.2584 91.2984 58.9553C90.8284 57.9909 89.93 57.0953 88.6168 56.2549C88.3542 56.0895 88.0777 55.9242 87.7736 55.7589C87.8427 55.7313 87.898 55.7038 87.9671 55.69C88.1054 55.6349 88.2298 55.5798 88.3542 55.5246C89.2665 55.1664 89.9852 54.9598 90.5796 54.8633C90.5796 54.9184 90.5658 54.9597 90.5658 55.0149L90.4138 56.4478L91.7545 55.8966L91.8098 55.8829C91.9066 56.062 92.0172 56.2135 92.1416 56.3513C92.4871 56.7095 92.9433 56.9024 93.4547 56.9024C93.2889 57.1504 93.1783 57.426 93.1092 57.7153C92.9018 58.6247 93.2474 59.6167 94.0491 60.4984L94.6296 61.1322L95.2655 60.5673L95.8599 60.0438C95.9428 60.0575 96.0257 60.0575 96.1087 60.0575C96.9518 60.0575 97.6983 59.3962 97.9333 58.7487C97.9609 58.666 97.9885 58.5833 98.0024 58.5007C98.0991 58.5695 98.1821 58.6384 98.265 58.6935L98.3618 59.6304L98.4585 60.6362L99.4399 60.3882C100.173 60.2091 101.209 59.8371 101.679 58.8451C101.9 58.3767 101.956 57.8531 101.859 57.2606C104.001 57.0126 105.688 56.4478 105.688 56.4478C104.444 60.1127 100.947 62.1793 97.5739 62.1793ZM22.3235 3.96801C21.0657 4.31246 19.4761 3.98179 19.4761 3.98179C20.4437 4.93246 20.7616 5.51113 20.7616 5.51113C22.0333 5.58002 22.3235 4.75335 22.3235 3.96801ZM84.7327 3.96801C84.7327 4.75335 85.0229 5.58002 86.2946 5.52491C86.2946 5.52491 86.6264 4.94624 87.5801 3.99557C87.5801 3.99557 85.9905 4.31246 84.7327 3.96801ZM85.4929 20.9423C85.7141 20.5703 85.9352 20.1983 86.1564 19.8263C86.5158 19.2201 86.8475 18.5725 87.1378 17.9112C87.4142 17.2498 87.6492 16.5885 87.8566 15.9134C88.0777 15.2521 88.2712 14.5769 88.4648 13.9018C88.1607 14.5356 87.8566 15.1556 87.5248 15.7756C87.2069 16.3956 86.8752 17.0018 86.5158 17.5805C86.1426 18.1592 85.7417 18.6965 85.2994 19.2201C84.9123 19.6885 84.4977 20.1707 84.0968 20.6392C84.553 20.6943 85.0229 20.777 85.4929 20.9423ZM19.9184 17.9112C20.1948 18.5725 20.5404 19.2201 20.8998 19.8263C21.121 20.1983 21.3421 20.5703 21.5633 20.9423C22.0333 20.777 22.5032 20.6805 22.9594 20.653C22.5585 20.1845 22.1438 19.7023 21.7568 19.2338C21.3145 18.6965 20.9136 18.1592 20.5404 17.5943C20.181 17.0156 19.8493 16.4094 19.5314 15.7894C19.2134 15.1694 18.9093 14.5356 18.5914 13.9156C18.7849 14.5907 18.9923 15.2521 19.1996 15.9272C19.407 16.5885 19.6419 17.2498 19.9184 17.9112ZM19.7111 21.9067C18.6467 20.3774 17.6238 18.8205 16.7668 17.1809C16.2969 16.2854 15.8822 15.3623 15.5504 14.4116C15.2049 13.4609 14.9284 12.4827 14.7073 11.4907C14.8178 12.5103 14.9699 13.516 15.2049 14.5218C15.4399 15.5276 15.7578 16.5058 16.131 17.4703C16.5042 18.4347 16.9327 19.3716 17.375 20.2947C17.7344 21.025 18.1076 21.7414 18.4808 22.4579C18.8402 22.3476 19.2549 22.1685 19.7111 21.9067ZM88.5477 22.4579C88.9347 21.7414 89.3079 21.025 89.6535 20.2947C90.1097 19.3716 90.5382 18.4347 90.8975 17.4703C91.2708 16.5058 91.5748 15.5138 91.8237 14.5218C92.0586 13.516 92.2245 12.5103 92.3213 11.4907C92.1001 12.4827 91.8237 13.4609 91.4781 14.4116C91.1325 15.3623 90.7179 16.2854 90.2617 17.1809C89.4047 18.8205 88.3818 20.3774 87.3175 21.9067C87.8013 22.1685 88.2021 22.3476 88.5477 22.4579Z" fill="white"/>
<path d="M68.0764 11.2705H67.8967H39.1595H39.0351L38.6342 12.111H68.2976L68.0764 11.2705ZM72.002 16.3683V26.3297C72.3061 26.3848 72.5964 26.5088 72.8452 26.7154V16.5336L72.002 16.3683ZM72.3061 34.6653L72.085 35.919C72.0573 35.919 72.0297 35.9053 72.002 35.9053V37.6413C72.002 39.9697 71.3109 42.0915 69.9701 43.924C69.6384 44.3648 69.279 44.792 68.8781 45.2053L35.9941 12.4003C35.8421 12.3314 35.6624 12.2625 35.455 12.2212V13.1167C36.1462 13.351 36.4779 13.971 36.4503 14.6599L35.538 14.6461C35.3445 14.095 34.8607 13.7092 34.211 13.5576V14.4532C34.5289 14.5772 34.7639 14.8252 34.7639 15.2385C34.7639 15.5967 34.4736 15.8723 34.211 15.9274V26.6466C34.5427 26.371 34.9436 26.2746 35.3583 26.2746C35.7591 26.2746 36.16 26.4261 36.5332 26.6466L35.6762 27.4457C36.1876 28.0519 35.6485 28.975 35.0956 29.2781C34.5013 29.595 34.8192 30.1461 35.2477 30.1461C35.3859 30.1461 35.5241 30.091 35.6624 29.967C36.0218 29.6363 36.4917 29.471 36.9479 29.471C37.9155 29.471 38.8692 30.215 38.7448 31.7581L37.9984 31.3448C37.7496 32.1577 37.169 32.5021 36.63 32.5021C36.3811 32.5021 36.1462 32.4332 35.9665 32.2955C35.5518 31.9924 35.1233 31.6755 34.833 31.6755C34.7363 31.6755 34.6395 31.7168 34.5842 31.7995C34.363 32.1026 34.598 32.4057 35.3859 32.7915C36.7129 33.4528 36.9755 35.3541 35.2339 35.8639L34.9436 35.8915L34.7224 34.6377C34.6257 34.6653 34.5289 34.679 34.4322 34.679C34.3492 34.679 34.2663 34.6653 34.1833 34.6515V37.6137C34.1833 40.5484 35.1924 43.0008 36.8373 44.9711C36.8511 44.9848 36.8649 44.9986 36.8649 45.0124C36.9202 45.0813 36.9893 45.1502 37.0446 45.2191C37.0585 45.2328 37.0723 45.2466 37.0861 45.2604C37.1552 45.3431 37.2243 45.412 37.2934 45.4946C37.2934 45.4946 37.2934 45.5084 37.3073 45.5084C37.3764 45.5911 37.4593 45.66 37.5284 45.7426L37.5422 45.7564C37.639 45.8115 37.7219 45.8804 37.8049 45.9493C37.9708 46.0871 38.1366 46.2524 38.2748 46.4453C39.3392 47.3822 40.5832 48.1675 41.924 48.8289C42.0761 48.9115 42.2281 48.9942 42.394 49.0631C44.6056 50.1653 47.8401 51.364 53.4935 51.364C59.147 51.364 62.3815 50.1653 64.5931 49.0631C64.759 48.9804 64.911 48.8977 65.0631 48.8289C66.39 48.1813 67.6064 47.396 68.6708 46.4866C68.6984 46.4453 68.7261 46.404 68.7537 46.3626C68.7675 46.3489 68.7814 46.3351 68.7952 46.3075C68.809 46.2937 68.8228 46.2662 68.8505 46.2524C68.8643 46.2249 68.8919 46.2111 68.9058 46.1835C68.9196 46.1697 68.9196 46.156 68.9334 46.156C68.9611 46.1284 68.9887 46.1009 69.0163 46.0733L69.0302 46.0595C69.0578 46.032 69.0855 46.0044 69.1131 45.9769C69.1131 45.9769 69.1131 45.9768 69.1269 45.9631C69.1546 45.9355 69.196 45.908 69.2237 45.8804C69.2928 45.8253 69.3619 45.784 69.431 45.7426C69.4448 45.7288 69.4587 45.7288 69.4725 45.7151C71.5321 43.6208 72.8176 40.9066 72.8176 37.5862V34.6653C72.7346 34.6928 72.6517 34.7066 72.5549 34.7066C72.4996 34.7066 72.4029 34.6928 72.3061 34.6653Z" fill="white"/>
</svg>
