<svg width="160" height="77" viewBox="0 0 160 77" fill="none" xmlns="http://www.w3.org/2000/svg">
<g clip-path="url(#clip0_910_7409)">
<path d="M11.1294 0.664062H0V76.6856H11.1294V0.664062Z" fill="#FFCC00"/>
<path d="M109.205 58.8797C110.812 58.0991 112.286 57.1524 113.575 56.0562C113.86 55.6576 114.178 55.3586 114.546 55.1593C117.041 52.6348 118.598 49.3628 118.598 45.36C118.598 45.36 118.598 42.5032 118.598 41.7891C118.498 41.8223 118.397 41.8389 118.28 41.8389C118.163 41.8389 118.046 41.8223 117.929 41.7891L117.661 43.3005C115.183 42.8354 115.45 40.3939 117.125 39.5634C118.079 39.0818 118.381 38.733 118.096 38.3676C118.012 38.2679 117.912 38.2181 117.795 38.2181C117.443 38.2181 116.924 38.6001 116.422 38.9655C116.204 39.1316 115.919 39.2147 115.618 39.2147C114.965 39.2147 114.262 38.7994 113.96 37.8195L113.09 38.3012C112.939 36.4576 114.094 35.5441 115.266 35.5441C115.819 35.5441 116.388 35.7434 116.823 36.142C116.991 36.2915 117.158 36.3579 117.326 36.3579C117.862 36.3579 118.23 35.6935 117.51 35.3115C116.823 34.9461 116.17 33.8167 116.807 33.1025L115.769 32.1392C116.237 31.8569 116.74 31.724 117.209 31.724C117.711 31.724 118.196 31.8901 118.598 32.2222V19.2008C118.28 19.1343 117.912 18.8188 117.912 18.3703C117.912 17.872 118.213 17.5731 118.598 17.4236V16.344C117.811 16.5101 117.225 16.9918 116.991 17.6561L115.886 17.6727C115.836 16.8423 116.237 16.0949 117.091 15.8125V14.7329C116.371 14.8824 115.903 15.2312 115.618 15.5468C115.534 15.6298 115.467 15.7295 115.383 15.8291L114.546 15.8457C114.513 15.0485 114.915 14.3343 115.668 14.0852V13.5869H112.604H77.7762H74.712V14.0852C75.4822 14.3343 75.8841 15.0485 75.8339 15.8457L74.9967 15.8291C74.9297 15.7295 74.846 15.6464 74.7622 15.5468C74.4776 15.2478 73.992 14.899 73.2888 14.7329V15.8125C74.126 16.0949 74.5278 16.8423 74.4943 17.6727L73.3892 17.6561C73.1548 16.9918 72.5688 16.5267 71.7818 16.344V17.4236C72.1669 17.5731 72.4515 17.872 72.4515 18.3703C72.4515 18.8022 72.0999 19.1343 71.7818 19.2008V32.2056C72.1836 31.8735 72.6525 31.724 73.1548 31.724C73.6404 31.724 74.1427 31.8735 74.5948 32.1392L73.5567 33.1025C74.1762 33.8333 73.5232 34.9461 72.8534 35.3115C72.1334 35.6935 72.5185 36.3579 73.0376 36.3579C73.205 36.3579 73.3725 36.2915 73.5399 36.142C73.9753 35.7434 74.5446 35.5441 75.0971 35.5441C76.2692 35.5441 77.4246 36.4409 77.2739 38.3012L76.3697 37.8029C76.0683 38.7828 75.365 39.198 74.712 39.198C74.4106 39.198 74.126 39.115 73.9083 38.9489C73.406 38.5835 72.8869 38.2015 72.5353 38.2015C72.4181 38.2015 72.3008 38.2513 72.2339 38.351C71.966 38.7164 72.2506 39.0818 73.205 39.5468C74.8962 40.3773 75.1641 42.8188 72.6692 43.2839L72.4013 41.7724C72.2841 41.8057 72.1669 41.8223 72.0497 41.8223C71.9492 41.8223 71.8488 41.8057 71.7483 41.7891V45.36C71.7483 49.3794 73.3222 52.6514 75.8339 55.1759C76.152 55.3586 76.4534 55.641 76.7213 56.0064C78.0106 57.1358 79.5176 58.0825 81.1417 58.8797C81.1417 58.8797 109.205 58.8797 109.205 58.8797Z" fill="white"/>
<path d="M119.285 2.30912C119.285 2.12642 119.268 1.96033 119.251 1.77763H116.723C116.706 3.206 116.338 4.58455 115.702 5.66414C115.266 6.39494 114.747 6.94304 114.161 7.27522H114.345C117.075 7.29183 119.285 5.06622 119.285 2.30912ZM116.723 11.8261C116.522 11.7929 116.338 11.7763 116.137 11.7763C115.986 11.7763 115.836 11.7929 115.685 11.8095C115.216 11.8593 114.747 12.0088 114.379 12.2745C113.96 12.5735 113.659 13.0718 113.642 13.6033H114.429C114.781 13.3209 115.199 13.1216 115.651 13.0219V14.1015C114.881 14.3507 114.479 15.0649 114.529 15.8621L115.367 15.8455C115.434 15.7458 115.517 15.6628 115.601 15.5631C115.886 15.2642 116.371 14.9154 117.075 14.7493V15.8289C116.237 16.1112 115.836 16.8586 115.869 17.6891L116.974 17.6725C117.225 16.9749 117.845 16.4932 118.682 16.3438V17.4067C118.247 17.5396 117.895 17.8386 117.895 18.3867C117.895 18.8683 118.33 19.2171 118.682 19.2171L118.649 20.1306C118.649 20.1306 118.649 20.1306 118.665 20.1306C118.9 20.1306 119.101 20.0642 119.318 19.9645C120.005 19.5991 120.273 18.8019 120.256 18.0711L121.261 17.5894C121.261 17.6226 121.277 17.6559 121.277 17.7057C121.361 18.3202 121.277 18.9182 121.076 19.433L122.969 21.2102C123.337 20.3133 123.822 19.4662 124.409 18.6856C124.626 18.4199 124.844 18.1541 125.078 17.9216C124.258 17.3071 123.253 16.5431 122.918 16.2939C121.863 15.5133 120.892 14.6496 119.888 13.8026C119.268 13.2877 118.632 12.7728 117.962 12.3244C117.577 12.0752 117.158 11.9091 116.723 11.8261ZM134.288 44.795C134.438 44.8781 134.589 44.9113 134.74 44.9113C135.108 44.9113 135.46 44.712 135.661 44.3964C135.627 44.2137 135.56 44.0144 135.51 43.8317C135.342 43.3334 135.091 42.8518 134.74 42.3867C134.288 41.7888 133.685 41.2407 132.881 40.7922C132.764 40.7258 132.63 40.6428 132.479 40.5597C133.015 41.2075 133.333 41.6725 133.534 42.0711C133.752 42.4698 133.852 42.7853 134.003 43.0843C133.953 43.1341 133.919 43.1839 133.886 43.2338C133.517 43.7819 133.735 44.5127 134.288 44.795ZM56.8125 42.0545C57.0134 41.6725 57.3315 41.1909 57.8674 40.5431C57.7334 40.6262 57.5827 40.7092 57.4655 40.7756C56.6618 41.2241 56.059 41.7722 55.6069 42.3701C55.2553 42.8352 55.0209 43.3334 54.8367 43.8151C54.7697 43.9978 54.7195 44.1971 54.686 44.3798C54.8869 44.6954 55.2385 44.8947 55.6069 44.8947C55.7576 44.8947 55.9083 44.8615 56.059 44.7784C56.6115 44.4961 56.8292 43.7653 56.4441 43.2006C56.4106 43.1507 56.3771 43.1009 56.3269 43.0511C56.4943 42.7687 56.5948 42.4531 56.8125 42.0545ZM126.183 12.5901C126.384 12.5901 126.602 12.5735 126.82 12.5569C126.167 12.3244 125.648 11.9424 125.313 11.4109C124.844 10.6967 124.777 9.93266 124.961 9.25169C124.928 9.25169 124.894 9.2683 124.861 9.2683C124.074 9.43439 123.672 10.0323 123.822 10.8296C124.04 12.0254 124.794 12.5901 126.183 12.5901ZM135.744 46.157C135.761 45.9909 135.778 45.8248 135.778 45.6421C135.46 45.8248 135.091 45.9244 134.723 45.9244C134.388 45.9244 134.087 45.8414 133.785 45.6919C133.199 45.3929 132.797 44.8449 132.68 44.1971C132.596 43.7819 132.647 43.35 132.814 42.968C132.814 42.968 132.814 42.9514 132.797 42.9514C132.345 42.8684 131.843 42.8019 131.29 42.7355C130.369 42.6358 129.532 42.586 128.762 42.586C121.562 42.586 120.976 46.5058 120.976 46.5058C119.854 50.6746 123.22 52.5514 123.22 52.5514C123.22 52.5514 123.99 56.3549 122.282 57.7999L120.507 57.202L119.62 56.903L119.117 56.7369C118.314 55.6075 117.008 54.8103 115.769 54.8103C114.563 54.8103 113.408 55.5743 112.838 57.5508L114.094 57.285C114.094 58.5639 114.513 58.8961 115.166 58.8961C115.3 58.8961 115.45 58.8795 115.601 58.8629C115.785 58.8297 115.969 58.7964 116.17 58.7632C116.79 58.647 117.242 58.5141 117.56 58.5141C117.862 58.5141 118.062 58.6303 118.18 58.9459C118.347 59.4276 117.878 59.7265 117.276 59.876C115.802 60.2082 114.965 61.238 115.233 62.6165C115.3 62.9321 115.4 63.2477 115.584 63.5964C115.651 63.7459 115.735 63.8788 115.836 64.0283C115.836 64.0283 115.852 64.0283 115.852 64.0449L117.309 63.1646C117.527 63.3805 117.778 63.4636 118.029 63.4636C118.582 63.4636 119.117 63.065 119.318 62.7162C119.335 62.683 119.352 62.6497 119.369 62.6165C119.536 62.2843 119.553 61.9023 119.553 61.5535C119.553 61.3542 119.536 61.1549 119.536 60.9722C119.536 60.7563 119.536 60.5736 119.586 60.4407C119.67 60.175 119.888 59.9923 120.122 59.8926C120.206 59.8594 120.306 59.8428 120.39 59.8428C120.541 59.8428 120.691 59.8926 120.825 59.9923C121.177 60.2414 121.177 60.6234 121.127 61.0054C121.076 61.4041 121.009 61.7695 121.227 62.1016C121.244 62.1349 121.261 62.1515 121.277 62.1847C121.361 62.2843 121.462 62.384 121.562 62.467C121.629 62.5169 121.93 62.7328 121.93 62.8158L121.78 64.5764C122.717 64.5099 123.755 64.3106 124.258 63.4636C124.358 63.2975 124.442 63.0816 124.492 62.8657C124.676 62.2179 124.76 61.4207 124.861 60.3079C125.279 60.1418 125.648 59.9258 125.966 59.6435C126.368 59.2947 126.686 58.8629 126.87 58.3148C127.372 56.82 127.808 53.8303 127.138 50.6746C127.138 50.6746 133.886 49.8442 135.342 49.1134C135.476 48.1002 135.61 47.0871 135.744 46.157ZM129.8 7.62401C129.8 7.62401 128.879 8.17211 129.063 9.03578C129.365 9.66692 129.75 10.3147 130.235 10.8794L131.173 9.94927C132.278 8.93612 133.249 8.57072 134.053 8.57072C135.108 8.57072 135.845 9.23508 136.146 9.9991C136.615 11.1617 136.565 12.0918 136.397 12.6898C136.263 13.1382 135.895 13.5036 135.058 13.57C134.907 13.5867 134.74 13.5866 134.572 13.5866C132.848 13.5866 130.587 12.9721 130.587 12.9721C130.235 14.8323 130.018 15.1977 132.697 15.1977C133.316 15.1977 134.087 15.1811 135.041 15.1479L132.362 16.3604C132.061 16.3437 131.776 16.3271 131.491 16.3271C129.515 16.3271 127.942 16.9085 126.702 17.8552C126.418 18.0711 126.15 18.3036 125.899 18.5528C124.944 19.5161 124.258 20.7119 123.772 21.9742C123.638 22.3396 123.521 22.705 123.421 23.0704C122.902 24.9971 122.835 27.0067 123.102 28.6178C123.303 28.3687 123.504 28.1362 123.739 27.9036L123.856 27.7874C124.66 27.0067 126.016 25.6614 127.64 24.831C128.243 24.2995 128.812 23.768 129.365 23.1867C130.554 21.941 131.608 20.5624 132.395 19.0012C131.91 20.6787 131.089 22.2898 130.118 23.768C129.733 24.3493 129.331 24.914 128.913 25.4621C128.544 25.6116 128.209 25.7777 127.875 25.977C126.451 26.7742 125.246 28.0033 124.542 28.7009C124.124 29.0995 123.789 29.5479 123.471 30.013C123.22 30.3784 123.002 30.7438 122.768 31.1258C122.6 31.4081 122.416 31.7071 122.249 31.9895C121.495 33.2019 120.49 34.3978 119.921 34.3978C119.72 34.3978 119.569 34.2483 119.502 33.9161C119.201 32.4047 118.247 31.7403 117.209 31.7403C116.723 31.7403 116.221 31.8898 115.769 32.1555L116.807 33.1189C116.187 33.8497 116.84 34.9625 117.51 35.3279C118.23 35.7099 117.845 36.3742 117.326 36.3742C117.158 36.3742 116.991 36.3078 116.823 36.1583C116.388 35.7597 115.819 35.5604 115.266 35.5604C114.094 35.5604 112.939 36.4573 113.089 38.3175L113.994 37.8192C114.295 38.7992 114.998 39.2144 115.651 39.2144C115.953 39.2144 116.237 39.1313 116.455 38.9653C116.957 38.5999 117.476 38.2178 117.828 38.2178C117.945 38.2178 118.062 38.2677 118.129 38.3673C118.397 38.7327 118.113 39.0981 117.158 39.5632C115.467 40.3936 115.199 42.8352 117.694 43.3002L117.962 41.7888C118.079 41.822 118.196 41.8386 118.314 41.8386C119.034 41.8386 119.536 41.2075 119.62 40.7424C119.737 40.0614 119.703 39.6462 119.737 39.2144C119.754 38.8324 120.005 38.6663 120.256 38.6663C120.557 38.6663 120.859 38.8822 120.892 39.2642C120.942 39.9784 120.926 40.9085 122.198 41.1244L122.6 42.4033C123.806 41.9881 125.011 40.6095 122.818 38.2843C122.784 37.105 124.04 36.4241 125.798 35.4441C126.1 35.278 126.418 35.0953 126.736 34.9126C126.903 34.813 127.071 34.7133 127.238 34.6137C127.59 34.3978 128.946 33.4178 130.135 32.4047L131.173 32.9528C130.955 33.1355 130.721 33.3348 130.453 33.5673C129.382 34.4476 128.226 35.3113 127.791 35.5604C127.707 35.6102 127.623 35.6601 127.54 35.7099C128.678 36.7563 129.901 37.6697 131.006 38.4005C131.458 38.6995 131.893 38.9819 132.295 39.231C132.697 39.4801 133.082 39.6961 133.4 39.8787C134.288 40.377 134.991 40.9916 135.527 41.6891C135.878 42.1376 136.146 42.6192 136.347 43.1009C136.548 43.566 136.682 44.0476 136.749 44.5293C136.782 44.6954 136.799 44.8449 136.816 45.0109C136.849 45.4594 136.833 45.8912 136.782 46.3064C136.715 46.7549 136.665 47.2033 136.598 47.6518C136.515 48.3327 136.448 48.9971 136.397 49.6781C136.33 50.4753 136.297 51.2559 136.297 52.0366C136.297 54.4283 136.665 56.139 138.34 57.7667C139.545 58.9459 141.236 59.2283 142.877 59.3445C143.731 59.3944 146.126 59.7432 147.75 59.9923C148.688 60.1252 149.391 60.9058 149.441 61.8525C149.508 63.1314 149.491 64.8089 149.039 65.3736L146.829 65.0747C146.31 64.3106 145.071 63.7127 143.865 63.7127C142.928 63.7127 142.007 64.0781 141.488 65.0414C141.337 65.3238 141.203 65.656 141.136 66.0546C141.119 66.1708 141.102 66.2871 141.086 66.42L141.789 66.1376L142.191 65.9715C142.208 66.0712 142.224 66.1542 142.241 66.2373C142.475 67.2006 142.978 67.5494 143.581 67.5494C143.865 67.5494 144.167 67.4664 144.485 67.3501C144.518 67.3335 144.552 67.3169 144.602 67.3003C145.171 67.0677 145.573 66.885 145.874 66.885C146.075 66.885 146.226 66.9681 146.36 67.2006C146.544 67.5162 146.36 67.7819 146.042 67.9978C145.941 68.0643 145.807 68.1307 145.69 68.1805C143.999 68.8781 143.514 70.5058 145.071 72.1999L146.243 71.1702C146.427 71.2864 146.611 71.3363 146.779 71.3363C147.348 71.3363 147.867 70.8214 148.001 70.4394C148.219 69.8581 147.984 69.1937 147.901 68.712C147.884 68.5792 147.867 68.4463 147.884 68.3466C147.917 68.0809 148.101 67.865 148.319 67.7487C148.42 67.6989 148.52 67.6657 148.637 67.6657C148.738 67.6657 148.838 67.6823 148.939 67.7321C149.039 67.7819 149.123 67.8484 149.19 67.9314C149.341 68.1141 149.374 68.3632 149.374 68.6124C149.374 68.7452 149.374 68.8947 149.391 69.0276C149.424 69.2601 149.491 69.476 149.692 69.6587C149.793 69.7418 149.893 69.8082 149.994 69.8747C150.061 69.9079 150.379 70.0574 150.395 70.1238L150.546 71.7515C151.718 71.4691 153.007 70.9044 152.689 69.094C152.639 68.7951 152.539 68.4463 152.371 68.0643C152.321 67.9314 152.254 67.7819 152.17 67.6324C153.192 67.1342 153.861 66.1875 154.029 65.0747C154.18 64.0615 154.012 60.4573 153.895 58.3978C153.845 57.5674 153.208 56.8864 152.388 56.7701C151.45 56.6373 150.245 56.4546 149.357 56.2719C147.951 55.9729 146.594 55.3584 146.276 54.3618C146.008 53.4982 146.159 53.3985 146.243 52.5182C146.31 51.8373 146.394 51.1397 146.444 50.4587C146.444 50.359 146.461 50.2428 146.461 50.1431C146.477 49.7445 146.461 49.3293 146.41 48.9307C146.494 48.9805 146.578 49.0303 146.661 49.0802C146.929 49.2296 147.214 49.3293 147.499 49.4123C147.817 49.4954 148.135 49.5286 148.47 49.5286C149.173 49.5286 149.86 49.3459 150.479 48.9639C151.601 48.2829 152.254 47.1037 152.221 45.8082C152.17 43.4995 150.847 41.8718 149.575 40.294C148.972 39.5466 148.336 38.7659 147.867 37.9355C146.377 35.278 146.025 32.3881 146.829 29.3486C147.181 28.0199 147.984 26.8241 148.838 25.5452C149.156 25.0635 149.458 24.615 149.759 24.1168C149.759 24.1168 150.429 24.4157 150.864 24.3161C150.981 24.2829 151.099 24.233 151.233 24.15C152.254 23.5189 153.342 20.9445 153.292 17.8552C153.259 15.397 152.673 13.3541 151.517 11.6766C151.768 12.3742 151.986 13.105 152.12 13.8358C152.271 14.633 152.321 15.4635 152.271 16.2607C152.221 17.0745 152.053 17.8552 151.785 18.586C151.902 17.8053 151.902 17.0247 151.802 16.2607C151.701 15.4967 151.501 14.7659 151.216 14.0683C150.965 13.4538 150.663 12.8559 150.312 12.2911C150.546 13.7195 150.546 15.1645 150.161 16.9583C149.927 18.0711 149.441 19.1341 149.022 20.0642C148.637 20.9112 148.353 21.5922 148.235 22.1569C148.101 22.7714 148.185 23.2365 148.604 23.6185C148.537 23.7348 148.453 23.851 148.386 23.9673C148.202 24.2496 148.001 24.5486 147.8 24.8476C146.929 26.1597 146.025 27.505 145.623 29.033C144.753 32.3549 145.154 35.6434 146.779 38.55C147.298 39.4801 147.967 40.294 148.604 41.0912C149.793 42.5694 150.931 43.9646 150.981 45.858C150.998 46.7217 150.58 47.4691 149.843 47.9175C149.073 48.3826 148.152 48.4158 147.365 48.0338C147.348 48.0172 147.314 48.0172 147.298 48.0006C146.695 47.685 146.159 47.0871 145.841 46.3895C145.824 46.3563 145.824 46.3231 145.808 46.2898C145.422 45.177 144.954 44.0808 144.418 43.0345C142.844 39.912 140.885 36.9888 139.646 33.7002C138.574 30.8767 139.06 27.4386 139.06 27.4386C140.148 27.8704 141.739 27.9202 141.739 27.9202C141.688 24.3991 149.307 16.2275 144.669 6.26207C144.351 6.77695 143.932 7.30844 143.346 7.85653L142.928 8.25515V6.81016C145.355 4.31881 144.234 1.94372 143.329 1.14648C142.643 1.39562 141.856 2.14303 141.27 3.05652L140.248 2.72434C140.5 2.30912 140.784 1.9105 141.102 1.5451C141.002 1.47867 140.901 1.42884 140.784 1.41223C140.734 1.41223 140.667 1.39562 140.583 1.39562C139.06 1.39562 133.333 2.70773 132.764 3.0067L132.312 4.53473C130.755 4.94995 129.315 5.7804 128.293 6.3285C128.377 6.76034 128.846 7.74027 129.8 7.62401ZM141.169 17.3735C141.588 16.2275 141.923 15.0482 142.191 13.8524C142.057 15.0815 141.873 16.2939 141.588 17.5064C141.303 18.7188 140.918 19.8981 140.466 21.0607C140.014 22.2233 139.495 23.3528 138.959 24.4656C138.524 25.3458 138.072 26.2095 137.62 27.0732C137.201 26.9403 136.699 26.7244 136.146 26.4088C137.435 24.5652 138.675 22.6884 139.713 20.7119C140.265 19.6323 140.768 18.5195 141.169 17.3735ZM136.766 19.1839C136.498 19.9811 136.23 20.795 135.895 21.5922C135.56 22.3894 135.141 23.1701 134.706 23.9009C134.438 24.3493 134.17 24.7977 133.902 25.2462C133.333 25.0469 132.764 24.9306 132.211 24.8974C132.697 24.3327 133.199 23.7514 133.668 23.1867C134.204 22.5389 134.689 21.8912 135.142 21.2102C135.577 20.5126 135.979 19.7818 136.364 19.0344C136.749 18.287 137.117 17.523 137.502 16.7756C137.268 17.5728 137.017 18.3867 136.766 19.1839ZM136.431 4.81708C135.259 5.9631 134.874 6.66068 134.874 6.66068C133.316 6.72712 132.982 5.74719 132.982 4.78386C134.505 5.19909 136.431 4.81708 136.431 4.81708ZM115.668 8.3382H74.7454V10.7631C75.298 10.8129 76.0012 10.9956 76.6208 11.4275C77.324 11.9424 77.7594 12.7396 77.7761 13.5534V13.5866H112.587V13.5534C112.604 12.7396 113.039 11.9424 113.742 11.4275C114.379 10.9624 115.116 10.7963 115.668 10.7465V8.3382ZM83.3184 12.7064L79.9529 11.0455L83.3184 9.38456L86.684 11.0455L83.3184 12.7064ZM95.19 12.5237C93.5491 12.5237 92.2096 11.8593 92.2096 11.0455C92.2096 10.2316 93.5491 9.56726 95.19 9.56726C96.8309 9.56726 98.1705 10.2316 98.1705 11.0455C98.1705 11.8593 96.8309 12.5237 95.19 12.5237ZM107.062 12.7064L103.696 11.0455L107.062 9.38456L110.427 11.0455L107.062 12.7064ZM72.1166 58.9459C72.2338 58.6303 72.4347 58.5141 72.7361 58.5141C73.0543 58.5141 73.5064 58.6303 74.1259 58.7632C74.3268 58.7964 74.511 58.8297 74.6952 58.8629C74.8459 58.8795 74.9966 58.8961 75.1305 58.8961C75.7836 58.8961 76.2022 58.5805 76.2022 57.285L77.458 57.5508C76.8887 55.5743 75.7333 54.8103 74.5278 54.8103C73.2887 54.8103 71.9826 55.6241 71.1789 56.7369L70.6766 56.903L69.8227 57.2352L68.0478 57.8331C66.3231 56.3881 67.1101 52.5847 67.1101 52.5847C67.1101 52.5847 70.4757 50.7078 69.3538 46.539C69.3538 46.539 68.7678 42.6192 61.5678 42.6192C60.7976 42.6192 59.9604 42.6691 59.0394 42.7687C58.4869 42.8352 57.9846 42.9016 57.5325 42.9846C57.5325 42.9846 57.5325 43.0012 57.5157 43.0012C57.6832 43.3833 57.7334 43.8151 57.6497 44.2303C57.5325 44.8781 57.1306 45.4262 56.5446 45.7251C56.2599 45.8746 55.9418 45.9577 55.6069 45.9577C55.2385 45.9577 54.8869 45.858 54.552 45.6753C54.552 45.858 54.5688 46.0241 54.5855 46.1902C54.7195 47.1203 54.8534 48.1168 54.9371 49.1632C56.3939 49.894 63.1418 50.7244 63.1418 50.7244C62.4887 53.8802 62.9073 56.8698 63.4097 58.3646C63.5938 58.9127 63.912 59.3445 64.3138 59.6933C64.632 59.9757 65.0004 60.1916 65.419 60.3577C65.5027 61.4539 65.5864 62.2677 65.7873 62.9155C65.8376 63.148 65.9213 63.3473 66.0217 63.5134C66.5241 64.3605 67.5622 64.5598 68.4999 64.6262L68.3492 62.8657C68.3492 62.7826 68.6673 62.5667 68.7175 62.5169C68.818 62.4338 68.9185 62.3342 69.0022 62.2345C69.0189 62.2013 69.0357 62.1847 69.0524 62.1515C69.2701 61.8027 69.2031 61.4373 69.1529 61.0553C69.1027 60.6733 69.1027 60.2913 69.4543 60.0421C69.5882 59.9425 69.7389 59.8926 69.8896 59.8926C69.9901 59.8926 70.0738 59.9092 70.1575 59.9425C70.392 60.0255 70.6096 60.2248 70.6934 60.4906C70.7436 60.6234 70.7436 60.8061 70.7436 61.022C70.7436 61.2047 70.7268 61.4041 70.7268 61.6034C70.7268 61.9522 70.7603 62.3342 70.911 62.6663C70.9278 62.6996 70.9445 62.7328 70.9613 62.766C71.1622 63.0982 71.698 63.5134 72.2506 63.5134C72.5017 63.5134 72.7529 63.4304 72.9706 63.2144L74.4273 64.0947C74.4273 64.0947 74.444 64.0947 74.444 64.0781C74.5445 63.9286 74.6115 63.7792 74.6952 63.6463C74.8626 63.2975 74.9799 62.9819 75.0468 62.6663C75.3147 61.2712 74.4775 60.258 73.004 59.9259C72.4347 59.7432 71.9492 59.4442 72.1166 58.9459ZM126.937 66.6359C126.535 66.0214 126.049 65.5895 125.597 65.2574C125.43 65.1577 125.262 65.0747 125.078 64.975L124.609 64.7425C123.806 65.4234 122.717 65.5895 121.914 65.6394L120.691 65.7224L120.792 64.5099L120.892 63.2477C120.758 63.1314 120.624 62.9985 120.49 62.8324C120.49 62.8158 120.474 62.8158 120.474 62.7992C120.423 62.9487 120.356 63.0982 120.273 63.2311C119.904 63.8622 119.034 64.4933 118.079 64.4933C117.828 64.4933 117.594 64.4435 117.359 64.3605L116.807 64.6926C116.84 64.7259 116.89 64.7591 116.924 64.7923C118.716 66.4366 120.055 66.6193 122.332 67.1342C123.873 67.483 125.313 68.3632 125.798 69.9411C126.083 70.8546 126.033 71.8511 125.982 72.7979C125.982 72.7979 129.13 71.0207 127.456 67.5162C127.322 67.267 127.138 66.9515 126.937 66.6359ZM105.454 65.4234C104.466 64.4269 103.411 63.5798 102.356 63.0816C101.486 62.6663 100.615 62.384 99.7946 62.2013C99.2588 62.085 98.7398 62.002 98.2542 61.9522C97.9695 61.9189 97.7016 61.9023 97.4337 61.8857C96.7305 61.9189 95.977 61.9355 95.19 61.9355C94.403 61.9355 93.6495 61.9189 92.9463 61.8857C92.6784 61.9023 92.4105 61.9189 92.1091 61.9522C91.6235 62.002 91.1044 62.085 90.5686 62.2013C89.7482 62.384 88.8775 62.6663 88.0068 63.0816C86.9519 63.5965 85.897 64.4269 84.9091 65.4234C84.8421 65.4899 84.7919 65.5397 84.7417 65.6061C82.5984 67.9148 83.1677 70.1736 83.1677 70.1736C83.1677 70.1736 85.9138 66.5529 90.0161 66.5529C91.9751 66.5529 93.6663 67.2006 94.537 67.6324L95.1733 67.9646L95.8095 67.6324C96.6802 67.2172 98.3714 66.5529 100.33 66.5529C104.433 66.5529 107.179 70.1736 107.179 70.1736C107.179 70.1736 107.765 67.9148 105.605 65.6061C105.571 65.5563 105.521 65.4899 105.454 65.4234ZM84.1556 64.6926C85.7798 63.065 87.5714 62.0352 89.1956 61.4871C87.7221 61.2546 86.4663 60.9556 85.3445 60.6068C85.2273 60.6068 85.11 60.5902 84.9928 60.5902C84.6412 60.5902 84.2896 60.6068 83.9714 60.64C83.0338 60.7563 82.1463 60.9224 81.2924 60.9224C79.0654 60.9224 77.1064 60.5902 75.5157 60.1584C75.6831 60.3743 75.8338 60.6068 75.9343 60.8726C76.1854 61.4871 76.2357 62.1847 76.085 62.8989C76.1519 62.9155 76.2022 62.9321 76.2691 62.9487C76.5705 63.0151 76.8552 63.0816 77.0896 63.1148C77.5417 63.1978 77.8096 63.2144 77.8096 63.2144C77.8096 63.2144 77.4077 63.4304 76.8384 63.8124C76.1519 64.2774 75.231 64.975 74.444 65.8221C70.7436 69.8581 74.8292 72.9141 74.8292 72.9141C74.8292 72.9141 73.925 68.9446 75.8505 67.6823C78.9315 65.6892 80.5724 67.3999 84.0217 64.7923C84.0719 64.7923 84.1054 64.7425 84.1556 64.6926ZM73.5566 64.7259L73.004 64.3937C72.7864 64.4767 72.5352 64.5266 72.2841 64.5266C71.3129 64.5266 70.4422 63.8954 70.0906 63.2643C70.0068 63.1148 69.9399 62.9819 69.8896 62.8324C69.8896 62.849 69.8729 62.849 69.8729 62.8657C69.7389 63.0317 69.605 63.1646 69.471 63.2809L69.5715 64.5432L69.672 65.7556L68.4496 65.6726C67.6459 65.6227 66.5743 65.4567 65.7538 64.7757L65.285 65.0082C65.1008 65.1079 64.9334 65.1909 64.7659 65.2906C64.2971 65.6228 63.8283 66.0546 63.4264 66.6691C63.2087 66.9847 63.0413 67.2837 62.9073 67.5826C61.2329 71.0871 64.3808 72.8643 64.3808 72.8643C64.3306 71.9176 64.2971 70.921 64.565 70.0075C65.0506 68.4297 66.4906 67.566 68.031 67.2006C70.325 66.6691 71.6478 66.503 73.4394 64.8587C73.4896 64.7923 73.5231 64.7591 73.5566 64.7259ZM113.525 63.8456C112.956 63.4636 112.554 63.2477 112.554 63.2477C112.554 63.2477 112.838 63.2144 113.274 63.148C113.508 63.1148 113.793 63.0484 114.094 62.9819C114.144 62.9653 114.211 62.9487 114.278 62.9321C114.128 62.2179 114.178 61.5203 114.429 60.9058C114.529 60.6567 114.68 60.4075 114.848 60.1916C113.257 60.6234 111.298 60.9556 109.071 60.9556C108.217 60.9556 107.329 60.7729 106.392 60.6733C106.074 60.64 105.722 60.6234 105.37 60.6234C105.253 60.6234 105.153 60.6234 105.036 60.6234C103.914 60.9722 102.641 61.2712 101.184 61.5037C102.809 62.0518 104.6 63.065 106.224 64.7093C106.275 64.7591 106.308 64.7923 106.342 64.8421C109.791 67.4497 111.432 65.739 114.513 67.7321C116.438 68.9778 115.534 72.9639 115.534 72.9639C115.534 72.9639 119.603 69.9079 115.919 65.8719C115.132 65.0082 114.195 64.294 113.525 63.8456ZM153.727 69.011C153.845 69.7252 153.778 70.3563 153.51 70.921C152.94 72.1169 151.685 72.5487 150.797 72.7812L149.608 73.0802L149.491 71.8677L149.374 70.7383C149.274 70.6719 149.156 70.5889 149.056 70.5058C149.039 70.6055 149.006 70.7051 148.972 70.8048C148.687 71.5854 147.783 72.3826 146.762 72.3826C146.661 72.3826 146.561 72.3826 146.461 72.366L145.741 72.9972L144.97 73.6781L144.267 72.9141C143.279 71.8511 142.877 70.6553 143.128 69.5591C143.212 69.2103 143.346 68.8781 143.547 68.5792C142.928 68.5792 142.375 68.3466 141.956 67.9148C141.806 67.7487 141.655 67.566 141.554 67.3501L141.488 67.3667L139.863 68.0311L140.048 66.3037C140.048 66.2373 140.064 66.1875 140.064 66.121C139.344 66.2373 138.474 66.503 137.368 66.9183C137.218 67.0013 137.05 67.0677 136.9 67.1176C136.816 67.1508 136.749 67.184 136.665 67.2006C137.017 67.3999 137.368 67.5992 137.687 67.7985C139.277 68.8117 140.366 69.9079 140.935 71.0539C141.287 71.4193 141.672 71.8179 142.09 72.2664C143.815 74.0934 146.142 74.9404 148.537 74.9404C152.639 74.9404 156.875 72.4325 158.366 68.0144C158.349 68.0311 156.323 68.712 153.727 69.011ZM137.034 68.6456C134.907 67.3169 132.563 66.5695 132.563 66.5695C132.982 66.6027 133.367 66.6193 133.735 66.6193C134.656 66.6193 135.409 66.503 136.029 66.3203C136.381 66.2207 136.699 66.0878 136.967 65.9549C138.926 64.9584 138.993 63.1812 138.993 63.1812C137.435 64.2276 136.062 64.593 134.79 64.593C133.149 64.593 131.659 64.0117 130.135 63.5798C129.683 63.447 129.231 63.3971 128.795 63.3971C127.54 63.3971 126.451 63.8622 125.832 64.1944C126.619 64.676 127.288 65.2906 127.808 66.0712C128.008 66.3868 128.193 66.7023 128.343 67.0013C128.846 67.6823 129.164 68.2802 129.666 68.6788C130.822 69.6421 132.429 69.8414 133.886 69.9411C138.306 70.2733 140.114 74.2262 140.114 74.2262C140.483 73.3127 140.416 72.4491 140.064 71.6684C139.512 70.4726 138.323 69.4594 137.034 68.6456ZM64.5148 64.1944C63.8952 63.8622 62.8236 63.3971 61.5511 63.3971C61.1157 63.3971 60.6804 63.447 60.2115 63.5798C58.6711 64.0117 57.1976 64.593 55.5567 64.593C54.2841 64.593 52.9111 64.2442 51.3539 63.1812C51.3539 63.1812 51.4376 64.9584 53.3799 65.9549C53.6478 66.0878 53.966 66.2207 54.3176 66.3203C54.9371 66.503 55.7074 66.6193 56.6115 66.6193C56.9799 66.6193 57.365 66.6027 57.7836 66.5695C57.7836 66.5695 55.4395 67.3169 53.313 68.6456C52.0237 69.4594 50.8348 70.4726 50.299 71.6684C49.9474 72.4491 49.8804 73.2961 50.2488 74.2262C50.2488 74.2262 52.0404 70.2733 56.4776 69.9411C57.9343 69.8248 59.525 69.6255 60.6971 68.6788C61.1994 68.2636 61.5176 67.6657 62.0199 67.0013C62.1706 66.6857 62.3548 66.3868 62.5557 66.0712C63.058 65.2906 63.7278 64.6594 64.5148 64.1944ZM38.193 67.6491C38.126 67.7985 38.0591 67.948 37.9921 68.0809C37.8414 68.4629 37.7242 68.7951 37.6739 69.1106C37.3391 70.921 38.6451 71.4857 39.8172 71.7681L39.9679 70.1404C39.9846 70.074 40.3028 69.9245 40.3697 69.8913C40.4702 69.8248 40.5874 69.7584 40.6711 69.6754C40.8721 69.4927 40.939 69.2767 40.9725 69.0442C40.9893 68.9113 40.9893 68.7785 40.9893 68.629C41.006 68.3799 41.0395 68.1307 41.1735 67.948C41.2404 67.865 41.3074 67.7985 41.4246 67.7487C41.5251 67.6989 41.6256 67.6823 41.726 67.6823C41.8432 67.6823 41.9437 67.7155 42.0442 67.7653C42.2618 67.8816 42.446 68.0975 42.4795 68.3632C42.4962 68.4629 42.4795 68.5958 42.4628 68.7286C42.379 69.2103 42.1446 69.8747 42.3623 70.456C42.4962 70.838 43.0153 71.3529 43.5846 71.3529C43.7688 71.3529 43.9362 71.303 44.1204 71.1868L45.2925 72.2165C46.8497 70.5224 46.3641 68.8947 44.673 68.1972C44.539 68.1473 44.4218 68.0809 44.3214 68.0144C44.0032 67.7985 43.819 67.5162 44.0032 67.2172C44.1372 66.9847 44.2879 66.9016 44.4888 66.9016C44.7902 66.9016 45.1753 67.0843 45.7614 67.3169C45.7948 67.3335 45.8283 67.3501 45.8786 67.3667C46.1967 67.483 46.4981 67.566 46.7827 67.566C47.3855 67.566 47.8711 67.2172 48.1223 66.2539C48.139 66.1709 48.1558 66.0712 48.1725 65.9882L48.5744 66.1542L49.2776 66.4366C49.2609 66.3203 49.2441 66.1875 49.2274 66.0712C49.1604 65.6726 49.0265 65.3404 48.8758 65.058C48.3567 64.1113 47.4358 63.7293 46.4981 63.7293C45.2925 63.7293 44.0535 64.3272 43.5344 65.0913L41.3242 65.3902C40.8721 64.8255 40.8553 63.1646 40.9223 61.8691C40.9725 60.9224 41.6758 60.1584 42.6135 60.0089C44.2209 59.7764 46.632 59.4276 47.486 59.3611C49.1102 59.2449 50.8013 58.9625 52.0237 57.7833C53.6981 56.139 54.0664 54.4283 54.0664 52.0532C54.0664 51.2725 54.0329 50.4919 53.966 49.6947C53.9157 49.0137 53.832 48.3327 53.765 47.6684C53.7148 47.2199 53.6478 46.7715 53.5809 46.3231C53.5139 45.9078 53.5139 45.4594 53.5474 45.0276C53.5641 44.8615 53.5809 44.712 53.6143 44.5459C53.6981 44.0642 53.832 43.5992 54.0162 43.1175C54.2171 42.6192 54.5018 42.1542 54.8367 41.7057C55.3725 41.0082 56.0757 40.3936 56.9632 39.8954C57.2813 39.7127 57.6664 39.4967 58.0683 39.2476C58.4701 38.9985 58.9055 38.7327 59.3576 38.4172C60.4627 37.6864 61.685 36.7729 62.8236 35.7265C62.7399 35.6767 62.6562 35.6268 62.5725 35.577C62.1538 35.3279 60.9985 34.4808 59.9101 33.5839C59.6422 33.368 59.4078 33.1687 59.1901 32.9694L60.2283 32.4213C61.4339 33.4344 62.7734 34.431 63.125 34.6303C63.2925 34.7299 63.4599 34.8296 63.6273 34.9293C63.9455 35.112 64.2636 35.2947 64.565 35.4607C66.3231 36.4573 67.5789 37.1383 67.5455 38.3009C65.3687 40.6262 66.5576 42.0047 67.7631 42.4199L68.165 41.141C69.4375 40.9251 69.4208 39.995 69.471 39.2808C69.5045 38.8988 69.8059 38.6829 70.1073 38.6829C70.3585 38.6829 70.6096 38.849 70.6264 39.231C70.6599 39.6462 70.6264 40.0781 70.7436 40.759C70.8273 41.2241 71.3296 41.8552 72.0496 41.8552C72.1668 41.8552 72.284 41.8386 72.4013 41.8054L72.6692 43.3168C75.1473 42.8518 74.8794 40.4102 73.205 39.5798C72.2506 39.0981 71.9492 38.7493 72.2338 38.3839C72.3175 38.2677 72.418 38.2345 72.5352 38.2345C72.8868 38.2345 73.4059 38.6165 73.9082 38.9819C74.1259 39.148 74.4105 39.231 74.7119 39.231C75.365 39.231 76.0682 38.8158 76.3696 37.8358L77.2738 38.3341C77.4245 36.4905 76.2691 35.577 75.0971 35.577C74.5445 35.577 73.9752 35.7763 73.5399 36.1749C73.3724 36.3244 73.205 36.3909 73.0375 36.3909C72.5017 36.3909 72.1333 35.7265 72.8533 35.3445C73.5399 34.9791 74.1929 33.8497 73.5566 33.1355L74.5947 32.1722C74.1259 31.8898 73.6236 31.7569 73.1547 31.7569C72.1166 31.7569 71.1622 32.4213 70.8608 33.9327C70.7938 34.2815 70.6431 34.4144 70.4422 34.4144C69.8729 34.4144 68.8682 33.2019 68.1148 32.0061C67.9306 31.7237 67.7631 31.4248 67.5957 31.1424C67.378 30.7604 67.1436 30.395 66.8924 30.0296C66.5743 29.5645 66.2394 29.1161 65.8208 28.7175C65.1176 28.0199 63.8952 26.8074 62.4887 25.9936C62.1539 25.8109 61.8022 25.6282 61.4506 25.4787C61.032 24.9306 60.6134 24.3659 60.245 23.7846C59.2571 22.2898 58.4367 20.6953 57.9678 19.0178C58.738 20.5957 59.8097 21.9742 60.9985 23.2033C61.5511 23.7846 62.1204 24.3161 62.7231 24.8476C64.3473 25.678 65.7036 27.0234 66.5073 27.804L66.6245 27.9202C66.859 28.1528 67.0766 28.3853 67.2608 28.6344C67.5287 27.0067 67.4617 24.9971 66.9427 23.087C66.8422 22.7216 66.725 22.3396 66.591 21.9908C66.1055 20.7119 65.419 19.5161 64.4645 18.5694C64.2134 18.3202 63.9455 18.0877 63.6608 17.8718C62.4218 16.9251 60.8478 16.3438 58.872 16.3438C58.5874 16.3438 58.3027 16.3604 58.0013 16.377L55.3222 15.1645C56.2767 15.1811 57.0469 15.2143 57.6664 15.2143C60.3455 15.2143 60.1278 14.8489 59.7762 12.9887C59.7762 12.9887 57.5157 13.6033 55.7911 13.6033C55.6236 13.6033 55.4562 13.6033 55.3055 13.5866C54.4683 13.5202 54.0999 13.1548 53.966 12.7064C53.7985 12.1084 53.7483 11.1783 54.2171 10.0157C54.5185 9.25169 55.2553 8.58733 56.3102 8.58733C57.1139 8.58733 58.085 8.96934 59.1901 9.96588L60.1278 10.896C60.6134 10.3313 60.9985 9.68353 61.2999 9.05238C61.5008 8.18871 60.5632 7.64062 60.5632 7.64062C61.5176 7.75688 61.9864 6.77695 62.1371 6.3285C61.1157 5.7804 59.659 4.94995 58.1185 4.53473L57.6664 3.0067C57.0804 2.70773 51.3539 1.39562 49.8469 1.39562C49.7632 1.39562 49.713 1.39562 49.646 1.41223C49.5288 1.42884 49.4116 1.47867 49.3278 1.5451C49.646 1.89389 49.9306 2.29251 50.1818 2.72434L49.1604 3.05652C48.5911 2.14303 47.8041 1.37901 47.1009 1.14648C46.18 1.94372 45.0748 4.31881 47.5027 6.81016V8.25515L47.0841 7.85653C46.4981 7.30844 46.0795 6.77695 45.7614 6.26207C41.1232 16.2275 48.7418 24.3991 48.6916 27.9202C48.6916 27.9202 50.2823 27.8704 51.3706 27.4386C51.3706 27.4386 51.8562 30.8767 50.7846 33.7002C49.5455 36.9888 47.5865 39.912 46.0125 43.0345C45.4767 44.0974 45.0079 45.177 44.6228 46.2898C44.606 46.3231 44.606 46.3563 44.5893 46.3895C44.2711 47.0705 43.7353 47.6684 43.1325 48.0006C43.1158 48.0172 43.0823 48.0172 43.0655 48.0338C42.2786 48.4324 41.3576 48.3826 40.5874 47.9175C39.8339 47.4691 39.4321 46.7051 39.4488 45.858C39.499 43.9646 40.6209 42.5694 41.8265 41.0912C42.4628 40.294 43.1325 39.4801 43.6516 38.55C45.2758 35.6434 45.6776 32.3549 44.8069 29.033C44.4051 27.505 43.5009 26.1597 42.6302 24.8476C42.4293 24.5486 42.2451 24.2663 42.0442 23.9673C41.9604 23.851 41.8935 23.7348 41.8265 23.6185C42.2451 23.2365 42.3288 22.7714 42.1949 22.1569C42.0776 21.5922 41.7762 20.9112 41.4079 20.0642C40.9893 19.1341 40.5037 18.0711 40.2693 16.9583C39.8842 15.1645 39.8842 13.7195 40.1186 12.2911C39.767 12.8559 39.4656 13.4538 39.2144 14.0683C38.9297 14.7659 38.7288 15.4967 38.6284 16.2607C38.5279 17.0247 38.5279 17.8053 38.6451 18.586C38.3772 17.8552 38.2098 17.0579 38.1595 16.2607C38.1093 15.4469 38.1595 14.633 38.3102 13.8358C38.4442 13.105 38.6451 12.3742 38.913 11.6766C37.7577 13.3541 37.1716 15.397 37.1381 17.8552C37.1046 20.9445 38.1763 23.5355 39.1977 24.15C39.3316 24.233 39.4488 24.2829 39.566 24.3161C40.0014 24.4157 40.6711 24.1168 40.6711 24.1168C40.9725 24.615 41.2739 25.0635 41.5921 25.5452C42.446 26.8241 43.2497 28.0365 43.6014 29.3486C44.3883 32.3881 44.0535 35.278 42.5632 37.9355C42.0944 38.7659 41.4749 39.5466 40.8553 40.294C39.5828 41.8718 38.26 43.4995 38.2097 45.8082C38.1763 47.1037 38.8293 48.2829 39.9511 48.9639C40.5539 49.3293 41.2572 49.5286 41.9604 49.5286C42.2786 49.5286 42.6135 49.4788 42.9316 49.4123C43.2162 49.3293 43.5009 49.2296 43.7688 49.0802C43.8525 49.0303 43.9362 48.9805 44.02 48.9307C43.9697 49.3293 43.953 49.7445 43.9697 50.1431C43.9697 50.2428 43.9865 50.359 43.9865 50.4587C44.0367 51.1397 44.1372 51.8373 44.1874 52.5182C44.2711 53.3985 44.4218 53.4982 44.1539 54.3618C43.8358 55.3584 42.4795 55.9563 41.073 56.2719C40.1856 56.4712 38.98 56.6539 38.0423 56.7701C37.2051 56.8864 36.5856 57.5674 36.5353 58.3978C36.4181 60.4407 36.2507 64.0615 36.4014 65.0747C36.5018 66.2041 37.1716 67.1508 38.193 67.6491ZM57.3818 4.78386C57.3818 5.73058 57.0301 6.72712 55.4897 6.66068C55.4897 6.66068 55.0878 5.9631 53.9325 4.81708C53.9157 4.81708 55.8413 5.19909 57.3818 4.78386ZM53.9827 19.0344C54.3678 19.7818 54.7697 20.5126 55.205 21.2102C55.6571 21.9078 56.1427 22.5555 56.6785 23.1867C57.1474 23.7514 57.6497 24.3327 58.1353 24.8974C57.5827 24.9306 57.0301 25.0469 56.4441 25.2462C56.1762 24.7977 55.9083 24.3493 55.6404 23.9009C55.205 23.1701 54.8032 22.3894 54.4516 21.5922C54.1167 20.795 53.832 19.9977 53.5809 19.1839C53.313 18.3867 53.0785 17.5728 52.8441 16.759C53.2292 17.523 53.5976 18.287 53.9827 19.0344ZM51.4041 24.4656C50.8516 23.3528 50.3325 22.2233 49.8971 21.0607C49.4451 19.8981 49.0767 18.7022 48.7753 17.5064C48.4906 16.2939 48.2897 15.0815 48.1725 13.8524C48.4404 15.0482 48.7753 16.2275 49.1939 17.3735C49.6125 18.5195 50.1148 19.6323 50.6674 20.7119C51.7055 22.6884 52.9446 24.5652 54.2339 26.4088C53.6813 26.7244 53.179 26.9403 52.7604 27.0732C52.2916 26.2095 51.8395 25.3458 51.4041 24.4656ZM83.0673 4.91673H84.2226C84.524 5.88006 85.0096 6.6939 85.6124 7.29183H87.9565C87.3705 6.95965 86.8347 6.41155 86.4161 5.68075C85.7798 4.60116 85.4114 3.22261 85.3947 1.79424H82.0794C82.0626 3.22261 81.6942 4.60116 81.058 5.68075C80.6226 6.41155 80.1036 6.95965 79.5175 7.29183H81.711C82.2803 6.6939 82.7659 5.88006 83.0673 4.91673ZM76.3026 7.29183H76.5538C75.9678 6.95965 75.4319 6.41155 75.0133 5.68075C74.3771 4.60116 74.0087 3.22261 73.9919 1.79424H71.3966C71.3799 1.94372 71.3799 2.0932 71.3799 2.25929C71.3464 4.98317 73.6236 7.29183 76.3026 7.29183ZM94.6207 4.91673H95.7761C96.0775 5.88006 96.563 6.6939 97.1658 7.29183H99.6607C99.0746 6.95965 98.5556 6.41155 98.1202 5.68075C97.484 4.60116 97.1156 3.22261 97.0988 1.79424H93.4821C93.4654 3.22261 93.097 4.60116 92.4607 5.68075C92.0254 6.41155 91.5063 6.95965 90.9203 7.29183H93.2644C93.8337 6.6939 94.3193 5.88006 94.6207 4.91673ZM52.6767 67.8151C52.9948 67.6158 53.3297 67.4165 53.6981 67.2172C53.6143 67.184 53.5474 67.1508 53.4636 67.1342C53.2962 67.0677 53.1455 67.0013 52.9948 66.9349C51.8897 66.503 51.019 66.2539 50.299 66.1376C50.299 66.2041 50.3158 66.2539 50.3158 66.3203L50.4999 68.0477L48.8758 67.3833L48.8088 67.3667C48.6916 67.5826 48.5576 67.7653 48.4069 67.9314C47.9883 68.3632 47.4358 68.5958 46.8162 68.5958C47.0172 68.8947 47.1511 69.2269 47.2348 69.5757C47.486 70.6719 47.0674 71.8677 46.0962 72.9307L45.393 73.6947L44.6228 73.0138L43.9028 72.3826C43.8023 72.3992 43.7018 72.3992 43.6014 72.3992C42.58 72.3992 41.6758 71.602 41.3911 70.8214C41.3576 70.7217 41.3242 70.6221 41.3074 70.5224C41.2069 70.6055 41.0897 70.6885 40.9893 70.7549L40.8721 71.8844L40.7549 73.0968L39.566 72.7979C38.6786 72.5819 37.4228 72.1335 36.8535 70.9376C36.5856 70.3729 36.5186 69.7418 36.6358 69.0276C34.0405 68.7286 31.9977 68.0477 31.9977 68.0477C33.4879 72.4823 37.7242 74.9736 41.8265 74.9736C44.2209 74.9736 46.5651 74.1266 48.273 72.2996C48.6916 71.8677 49.0599 71.4525 49.4283 71.0871C49.9976 69.9245 51.086 68.8283 52.6767 67.8151ZM106.358 4.91673H107.514C107.815 5.88006 108.301 6.6939 108.903 7.29183H111.197C110.611 6.95965 110.076 6.41155 109.657 5.68075C109.021 4.60116 108.652 3.22261 108.636 1.79424H105.203C105.186 3.22261 104.818 4.60116 104.182 5.68075C103.746 6.41155 103.227 6.94304 102.641 7.29183H104.985C105.571 6.6939 106.057 5.88006 106.358 4.91673ZM65.9548 18.669C66.5408 19.433 67.0264 20.2967 67.3948 21.1936L69.2869 19.3998C69.0859 18.8849 69.0189 18.287 69.0859 17.6725C69.0859 17.6393 69.1027 17.606 69.1027 17.5562L70.1073 18.0379C70.0738 18.7853 70.3585 19.5659 71.045 19.9313C71.2627 20.0476 71.4468 20.0974 71.698 20.0974C71.698 20.0974 71.698 20.0974 71.7147 20.0974L71.6813 19.1839C72.0161 19.1839 72.4682 18.8351 72.4682 18.3534C72.4682 17.8053 72.1166 17.5064 71.6813 17.3735V16.3105C72.5185 16.46 73.138 16.9583 73.3892 17.6393L74.4943 17.6559C74.5445 16.8254 74.1426 16.078 73.2887 15.7957V14.7161C74.0087 14.8655 74.4775 15.2143 74.7622 15.5299C74.8459 15.613 74.9129 15.7126 74.9966 15.8123L75.8338 15.8289C75.8673 15.0316 75.4654 14.3174 74.7119 14.0683V12.9887C75.1808 13.0884 75.5826 13.2711 75.9343 13.57H76.7212C76.7045 13.0552 76.4031 12.5569 75.9845 12.2413C75.6329 11.9922 75.1808 11.8427 74.7287 11.7763C74.5612 11.7597 74.3771 11.743 74.2096 11.743C74.0254 11.743 73.858 11.7597 73.6738 11.7929C73.2217 11.8593 72.7696 12.042 72.3845 12.2911C71.7147 12.7396 71.0785 13.2545 70.4589 13.7694C69.4543 14.5998 68.4831 15.4801 67.4283 16.2607C67.0934 16.5098 66.072 17.2739 65.2683 17.8884C65.5194 18.1541 65.7371 18.4033 65.9548 18.669ZM66.5408 10.8296C66.6915 10.0323 66.2896 9.451 65.5027 9.2683C65.4692 9.2683 65.4357 9.25169 65.4022 9.25169C65.5864 9.93266 65.5027 10.6801 65.0506 11.4109C64.7157 11.9257 64.1966 12.3244 63.5436 12.5569C63.7613 12.5901 63.979 12.5901 64.1799 12.5901C65.5697 12.5901 66.3231 12.0254 66.5408 10.8296Z" fill="white"/>
<path d="M95.19 12.5228C96.836 12.5228 98.1704 11.861 98.1704 11.0446C98.1704 10.2282 96.836 9.56641 95.19 9.56641C93.5439 9.56641 92.2095 10.2282 92.2095 11.0446C92.2095 11.861 93.5439 12.5228 95.19 12.5228Z" fill="#CC0000"/>
<path d="M86.6672 11.0447L83.3184 9.36719L79.9528 11.0447L83.3184 12.7056L86.6672 11.0447Z" fill="#CC0000"/>
<path d="M110.427 11.0447L107.061 9.36719L103.713 11.0447L107.061 12.7056L110.427 11.0447Z" fill="#CC0000"/>
<path d="M158.031 67.0507C157.997 67.0673 156.038 67.6984 153.56 67.9808C154.364 67.2998 154.9 66.3365 155.067 65.2403C155.184 64.4098 155.151 62.0846 154.933 58.3641C154.866 57.0354 153.845 55.9392 152.522 55.7731C151.283 55.607 150.261 55.441 149.575 55.2915C148.152 54.9759 147.381 54.461 147.281 54.0956C147.147 53.697 147.164 53.6472 147.214 53.2818C147.231 53.1157 147.264 52.9164 147.298 52.6506C147.331 52.3517 147.348 52.0693 147.398 51.7537C147.448 51.3717 147.482 50.9731 147.515 50.5745C147.515 50.5579 147.515 50.5247 147.515 50.5081C147.834 50.5745 148.168 50.6077 148.487 50.6077C149.374 50.6077 150.261 50.3752 151.032 49.8935C152.472 49.0133 153.309 47.5018 153.275 45.8243C153.208 43.1669 151.718 41.3067 150.395 39.679C149.793 38.9316 149.207 38.2174 148.788 37.47C147.432 35.0451 147.114 32.4208 147.85 29.6471C148.152 28.5011 148.905 27.3551 149.709 26.1592C149.876 25.9101 150.044 25.6443 150.211 25.3952C150.328 25.4118 150.446 25.4284 150.563 25.4284C151.065 25.4284 151.484 25.2623 151.785 25.0796C153.711 23.9004 154.38 20.0471 154.347 17.8879C154.297 13.3703 152.505 10.1149 148.905 7.93912L147.666 7.19171L148.135 8.55365C149.223 11.6928 149.809 13.636 149.123 16.7917C148.905 17.8049 148.47 18.7682 148.051 19.6983C147.398 21.1599 146.762 22.5717 147.314 23.7177C147.18 23.917 147.047 24.1329 146.913 24.3322C145.992 25.7108 145.037 27.1392 144.602 28.8333C143.664 32.4208 144.1 35.9752 145.858 39.1143C146.41 40.1108 147.114 40.9745 147.783 41.8049C148.905 43.2001 149.893 44.3959 149.927 45.9406C149.943 46.5883 149.525 46.9371 149.29 47.0866C148.821 47.369 148.269 47.3856 147.783 47.1364C147.398 46.9371 147.03 46.5385 146.795 46.0735C146.427 44.9939 145.958 43.8645 145.322 42.6188C144.753 41.4894 144.133 40.3766 143.53 39.297C142.425 37.3039 141.37 35.4271 140.6 33.3842C140.014 31.8063 139.947 29.9959 139.981 28.8333C140.818 28.9828 141.554 29.016 141.688 29.016L142.777 29.0492L142.76 27.9696C142.743 27.1558 143.396 25.744 144.133 24.0997C146.159 19.6485 149.223 12.9384 145.288 5.24845C145.255 5.19863 145.238 5.13219 145.205 5.08236C145.372 4.55088 145.422 4.06921 145.406 3.6706C145.389 2.19239 144.652 1.02976 143.982 0.431835L143.514 0.016609L142.927 0.215917C142.542 0.34879 142.174 0.581316 141.806 0.86367C141.554 0.631143 141.236 0.465053 140.868 0.415226C140.767 0.398617 140.667 0.398617 140.533 0.398617C138.909 0.398617 132.998 1.72734 132.228 2.12596L131.826 2.32526L131.692 2.7571L131.408 3.73703C130.101 4.16887 128.913 4.81662 128.025 5.29828C127.908 5.36472 127.791 5.43115 127.674 5.48098L127.004 5.84638L127.155 6.59379C127.171 6.71005 127.757 9.63324 129.465 11.6097L129.549 11.6928C129.13 11.726 128.762 11.7592 128.427 11.7592C127.406 11.7592 126.602 11.4602 126.217 10.8623C125.614 9.9322 126.049 8.93566 126.753 8.42078C126.368 8.25469 125.999 8.15504 125.547 8.15504C125.279 8.15504 124.978 8.18825 124.643 8.2713C123.303 8.57026 122.55 9.68307 122.801 11.0284C123.086 12.6395 124.224 13.636 126.2 13.636C126.602 13.636 127.021 13.6028 127.489 13.5198C128.159 13.4035 128.846 13.2042 129.532 12.9883C129.532 13.0215 129.515 13.0381 129.515 13.0713C129.348 14.0014 129.197 14.7986 129.716 15.4464C128.276 15.7121 126.97 16.3101 125.865 17.207C124.961 16.526 123.739 15.6125 123.555 15.463C122.835 14.9315 122.165 14.3502 121.445 13.7523C121.16 13.5031 120.859 13.254 120.557 13.0049C119.938 12.49 119.268 11.9585 118.548 11.4602C118.012 11.0948 117.393 10.8623 116.723 10.7793V7.83946C118.849 6.90936 120.34 4.76679 120.34 2.32526C120.34 1.77717 120.273 1.26229 120.122 0.764016H115.618C115.651 1.06298 115.668 1.36194 115.668 1.67751C115.668 4.33496 114.328 6.67683 112.671 6.67683C111.013 6.67683 109.674 4.33496 109.674 1.67751C109.674 1.36194 109.69 1.06298 109.724 0.764016H104.081C104.115 1.06298 104.131 1.36194 104.131 1.67751C104.131 4.33496 102.792 6.67683 101.134 6.67683C99.4765 6.67683 98.1369 4.33496 98.1369 1.67751C98.1369 1.36194 98.1537 1.06298 98.1872 0.764016H92.3602C92.3937 1.06298 92.4104 1.36194 92.4104 1.67751C92.4104 4.33496 91.0709 6.67683 89.4132 6.67683C87.7556 6.67683 86.416 4.33496 86.416 1.67751C86.416 1.36194 86.4328 1.06298 86.4663 0.764016H80.9575C80.9909 1.06298 81.0077 1.36194 81.0077 1.67751C81.0077 4.33496 79.6682 6.67683 78.0105 6.67683C76.3528 6.67683 75.0133 4.33496 75.0133 1.67751C75.0133 1.36194 75.03 1.06298 75.0635 0.764016H70.4924C70.3584 1.24568 70.2914 1.74395 70.2914 2.25883C70.2914 4.61731 71.6812 6.72666 73.6738 7.7232V10.7793C73.004 10.8623 72.351 11.0948 71.7984 11.4768C71.0784 11.9585 70.4087 12.5066 69.7891 13.0215C69.4877 13.2706 69.2031 13.5198 68.9017 13.7689C68.1817 14.3668 67.5119 14.9481 66.7919 15.4796C66.6077 15.6125 65.3854 16.526 64.4812 17.2236C63.3761 16.3267 62.0868 15.7288 60.6301 15.463C61.1492 14.7986 60.9985 14.0014 60.831 13.0879C60.831 13.0713 60.8143 13.0381 60.8143 13.0049C61.5008 13.2374 62.1873 13.4201 62.8571 13.5364C63.3259 13.6194 63.7445 13.6526 64.1464 13.6526C66.1222 13.6526 67.2608 12.6561 67.5454 11.045C67.7966 9.69967 67.0431 8.58687 65.7036 8.28791C65.3687 8.22147 65.0673 8.17164 64.7994 8.17164C64.3473 8.17164 63.9789 8.2713 63.5938 8.43739C64.2971 8.95227 64.7324 9.94881 64.1296 10.8789C63.7445 11.4935 62.924 11.7758 61.9194 11.7758C61.5678 11.7758 61.1994 11.7426 60.831 11.6761L60.9147 11.5931C62.6226 9.61663 63.2087 6.71005 63.2254 6.57718L63.3761 5.82977L62.7064 5.46437C62.5892 5.39794 62.4719 5.34811 62.3547 5.28167C61.4506 4.80001 60.2785 4.15226 58.9724 3.72042L58.6878 2.74049L58.5538 2.30866L58.152 2.10935C57.3817 1.71073 51.4711 0.382008 49.8469 0.382008C49.7297 0.382008 49.6125 0.382008 49.512 0.398617C49.1436 0.448444 48.8255 0.614534 48.5743 0.847061C48.2059 0.548098 47.8208 0.332181 47.4525 0.199308L46.8664 0L46.3808 0.382008C45.7111 0.979933 44.9743 2.14257 44.9576 3.62077C44.9576 4.01939 45.0078 4.50105 45.1585 5.03254C45.125 5.09897 45.0915 5.1488 45.0748 5.19863C41.1399 12.8886 44.2041 19.5987 46.2301 24.0499C46.9669 25.6776 47.6199 27.0893 47.6032 27.9198L47.5864 28.9994L48.6748 28.9662C48.792 28.9662 49.5287 28.9329 50.3827 28.7835C50.4162 29.9461 50.3659 31.7731 49.7632 33.3343C48.9929 35.3772 47.938 37.2541 46.8329 39.2471C46.2301 40.3267 45.6106 41.4395 45.0413 42.569C44.4218 43.8146 43.9362 44.944 43.5678 46.0236C43.3334 46.4887 42.9818 46.8873 42.5799 47.0866C42.0943 47.3357 41.5418 47.3191 41.073 47.0368C40.8218 46.8873 40.4199 46.5385 40.4367 45.8908C40.4702 44.3627 41.4413 43.1503 42.5799 41.7551C43.2497 40.9247 43.9362 40.0776 44.5055 39.0644C46.2636 35.9253 46.699 32.371 45.7613 28.7835C45.326 27.0893 44.3715 25.661 43.4506 24.2824C43.3167 24.0831 43.1827 23.8672 43.0488 23.6679C43.6013 22.5218 42.9818 21.1101 42.312 19.6485C41.8934 18.7184 41.4581 17.7551 41.2404 16.7419C40.5539 13.5696 41.1399 11.6429 42.2283 8.50382L42.6971 7.14188L41.4581 7.88929C37.8581 10.0651 36.0665 13.3204 36.0162 17.8381C35.9827 19.9973 36.6692 23.8672 38.5781 25.0298C38.8795 25.2125 39.2813 25.3786 39.8004 25.3786C39.9176 25.3786 40.0181 25.362 40.152 25.3454C40.3195 25.5945 40.4869 25.8603 40.6543 26.1094C41.4581 27.3052 42.2115 28.4513 42.5129 29.5973C43.2329 32.371 42.9148 35.0118 41.5753 37.4202C41.1567 38.1676 40.5874 38.8817 39.9678 39.6292C38.6451 41.2568 37.1548 43.1004 37.0878 45.7745C37.0544 47.4354 37.8916 48.9634 39.3316 49.8437C40.1018 50.3254 40.9892 50.5579 41.8767 50.5579C42.2116 50.5579 42.5297 50.5247 42.8478 50.4582C42.8478 50.4749 42.8478 50.5081 42.8478 50.5247C42.8813 50.9233 42.9148 51.3219 42.965 51.7039C42.9985 52.0195 43.032 52.3018 43.0655 52.6008C43.0822 52.8666 43.1157 53.0659 43.1492 53.232C43.1995 53.5807 43.2162 53.6472 43.0822 54.0458C42.965 54.4112 42.2116 54.9261 40.7883 55.2416C40.1018 55.3911 39.0804 55.5572 37.8413 55.7233C36.5185 55.906 35.4972 57.0022 35.4302 58.3143C35.2292 62.0347 35.179 64.36 35.2962 65.1905C35.4637 66.2867 35.9995 67.25 36.8032 67.9309C34.3251 67.6486 32.3493 67.0008 32.3325 67.0008L30.34 66.3365L31.0097 68.313C31.7967 70.6382 33.2869 72.5981 35.3465 73.9766C37.2553 75.2555 39.5492 75.9531 41.8264 75.9531C44.606 75.9531 47.1343 74.9234 48.9594 73.0465C48.9762 73.5614 49.0766 74.0597 49.2776 74.5746L50.1985 76.85L51.2199 74.6244C51.2869 74.4915 52.8441 71.2361 56.5613 70.9538C58.152 70.8375 59.9603 70.605 61.3668 69.4424C61.3668 69.4424 61.3668 69.4424 61.3836 69.4424C61.3836 69.8244 61.4171 70.1898 61.5175 70.5552C62.0199 72.6147 63.8115 73.6611 63.8785 73.6943L65.5361 74.641L65.4357 72.7476C65.4022 71.9337 65.3519 71.0036 65.5864 70.2396C66.005 68.8611 67.4617 68.3462 68.2822 68.1469C68.4831 68.097 68.684 68.0472 68.8682 68.014C70.2245 67.715 71.3296 67.4659 72.4682 66.8015C71.9826 67.7482 71.7817 68.7116 71.8821 69.6915C72.1166 72.133 74.1259 73.6611 74.2096 73.7275L76.5035 75.4382L75.8672 72.6645C75.6328 71.6015 75.4486 69.1766 76.4365 68.5455C77.6589 67.7482 78.5798 67.6486 79.6514 67.5323C80.5389 67.4327 81.4933 67.3164 82.6151 66.8348C81.7444 68.7448 82.1128 70.306 82.1463 70.3891L82.6821 72.4984L84.0049 70.7545C84.0216 70.7213 86.4998 67.5489 90.016 67.5489C92.5611 67.5489 94.6207 68.7946 94.6374 68.8112L95.19 69.1434L95.7425 68.8112C95.7593 68.7946 97.8188 67.5489 100.364 67.5489C103.88 67.5489 106.358 70.7379 106.375 70.7545L107.698 72.4984L108.234 70.3891C108.25 70.306 108.635 68.7448 107.765 66.8348C108.887 67.3164 109.841 67.4327 110.729 67.5323C111.8 67.6486 112.738 67.7649 113.943 68.5455C114.931 69.1932 114.764 71.6015 114.513 72.6645L113.876 75.4382L116.17 73.7275C116.254 73.6611 118.263 72.133 118.498 69.6915C118.598 68.7116 118.397 67.7482 117.912 66.8015C119.05 67.4493 120.155 67.6984 121.512 68.014C121.696 68.0638 121.897 68.097 122.098 68.1469C122.918 68.3296 124.375 68.8611 124.794 70.2396C125.028 71.0036 124.978 71.9337 124.944 72.7476L124.844 74.641L126.501 73.6943C126.585 73.6445 128.377 72.6147 128.862 70.5552C128.946 70.1898 128.996 69.8078 128.996 69.4424C128.996 69.4424 128.996 69.4424 129.013 69.4424C130.42 70.605 132.228 70.8209 133.819 70.9538C137.536 71.2361 139.093 74.4915 139.16 74.6244L140.181 76.85L141.102 74.5746C141.303 74.0597 141.421 73.5448 141.421 73.0465C143.246 74.9234 145.774 75.9531 148.553 75.9531C150.831 75.9531 153.125 75.2555 155.033 73.9766C157.093 72.5981 158.6 70.6382 159.37 68.313L160.04 66.3365L158.031 67.0507ZM126.183 12.5896C124.777 12.5896 124.04 12.0249 123.822 10.8291C123.672 10.0319 124.074 9.45054 124.861 9.26784C124.894 9.26784 124.928 9.25123 124.961 9.25123C124.777 9.9322 124.861 10.6796 125.313 11.4104C125.648 11.9253 126.167 12.3239 126.82 12.5564C126.602 12.573 126.384 12.5896 126.183 12.5896ZM65.0338 11.4104C65.5026 10.6962 65.5696 9.9322 65.3854 9.25123C65.4189 9.25123 65.4524 9.26784 65.4859 9.26784C66.2729 9.43393 66.6747 10.0319 66.524 10.8291C66.3063 12.0249 65.5529 12.5896 64.1631 12.5896C63.9622 12.5896 63.7445 12.573 63.5268 12.5564C64.1798 12.3239 64.6989 11.9419 65.0338 11.4104ZM125.915 18.5357C126.167 18.2865 126.435 18.054 126.719 17.8381C127.958 16.8914 129.532 16.3101 131.508 16.3101C131.793 16.3101 132.077 16.3267 132.379 16.3433L135.058 15.1308C134.103 15.1474 133.333 15.1807 132.714 15.1807C130.034 15.1807 130.252 14.8153 130.604 12.955C130.604 12.955 132.864 13.5696 134.589 13.5696C134.756 13.5696 134.924 13.5696 135.074 13.553C135.912 13.4865 136.28 13.1211 136.414 12.6727C136.581 12.0748 136.632 11.1447 136.163 9.98203C135.861 9.21801 135.125 8.55365 134.07 8.55365C133.266 8.55365 132.295 8.93566 131.19 9.9322L130.252 10.8623C129.767 10.2976 129.381 9.64985 129.08 9.0187C128.879 8.15504 129.817 7.60694 129.817 7.60694C128.862 7.7232 128.394 6.74327 128.243 6.29482C129.264 5.74673 130.721 4.91627 132.261 4.50105L132.714 2.97302C133.3 2.67405 139.026 1.36194 140.533 1.36194C140.617 1.36194 140.667 1.36194 140.734 1.37855C140.851 1.39516 140.968 1.44499 141.052 1.51142C140.734 1.86021 140.449 2.25883 140.198 2.69066L141.22 3.02284C141.789 2.10935 142.576 1.34533 143.279 1.11281C144.2 1.91004 145.305 4.28513 142.877 6.77649V8.22147L143.296 7.82285C143.882 7.27476 144.3 6.74327 144.619 6.22839C149.257 16.1938 141.638 24.3655 141.688 27.8866C141.688 27.8866 140.098 27.8367 139.009 27.4049C139.009 27.4049 138.524 30.843 139.595 33.6665C140.834 36.9551 142.794 39.8783 144.367 43.0008C144.903 44.0638 145.372 45.1434 145.757 46.2562C145.774 46.2894 145.774 46.3226 145.791 46.3558C146.109 47.0368 146.645 47.6347 147.247 47.9669C147.264 47.9835 147.298 47.9835 147.314 48.0001C148.101 48.3987 149.022 48.3489 149.793 47.8838C150.546 47.4354 150.948 46.6714 150.931 45.8243C150.881 43.9309 149.759 42.5357 148.553 41.0575C147.917 40.2603 147.247 39.4465 146.728 38.5163C145.104 35.6098 144.702 32.3212 145.573 28.9994C145.975 27.4713 146.879 26.126 147.75 24.8139C147.951 24.5149 148.135 24.2326 148.336 23.9336C148.42 23.8174 148.487 23.7011 148.553 23.5848C148.135 23.2028 148.051 22.7378 148.185 22.1232C148.302 21.5585 148.604 20.8776 148.972 20.0305C149.391 19.1004 149.876 18.0374 150.111 16.9246C150.496 15.1308 150.496 13.6858 150.261 12.2575C150.613 12.8222 150.914 13.4201 151.166 14.0346C151.45 14.7322 151.651 15.463 151.752 16.227C151.852 16.991 151.852 17.7717 151.735 18.5523C152.003 17.8215 152.17 17.0243 152.22 16.227C152.271 15.4132 152.22 14.5993 152.07 13.8021C151.936 13.0713 151.735 12.3405 151.467 11.6429C152.622 13.3204 153.208 15.3634 153.242 17.8215C153.275 20.9108 152.204 23.5018 151.182 24.1163C151.048 24.1994 150.931 24.2492 150.814 24.2824C150.379 24.3821 149.709 24.0831 149.709 24.0831C149.407 24.5814 149.106 25.0298 148.788 25.5115C147.934 26.7904 147.13 28.0028 146.779 29.3149C145.992 32.3544 146.327 35.2444 147.817 37.9018C148.286 38.7323 148.905 39.5129 149.525 40.2603C150.797 41.8382 152.12 43.4658 152.17 45.7745C152.204 47.07 151.551 48.2492 150.429 48.9302C149.826 49.2956 149.123 49.4949 148.42 49.4949C148.101 49.4949 147.767 49.4451 147.448 49.3787C147.164 49.2956 146.879 49.196 146.611 49.0465C146.527 48.9966 146.444 48.9468 146.36 48.897C146.41 49.2956 146.427 49.7108 146.41 50.1095C146.41 50.2091 146.393 50.3254 146.393 50.425C146.343 51.106 146.243 51.8036 146.193 52.4845C146.109 53.3648 145.958 53.4645 146.226 54.3282C146.544 55.3247 147.9 55.9226 149.307 56.2382C150.194 56.4375 151.4 56.6202 152.338 56.7365C153.175 56.8527 153.794 57.5337 153.845 58.3641C153.962 60.4071 154.129 64.0278 153.979 65.041C153.811 66.1538 153.158 67.1005 152.12 67.5988C152.187 67.7482 152.254 67.8977 152.321 68.0306C152.472 68.4126 152.589 68.7448 152.639 69.0604C152.974 70.8707 151.668 71.4355 150.496 71.7178L150.345 70.0901C150.328 70.0237 150.01 69.8742 149.943 69.841C149.843 69.7746 149.726 69.7081 149.642 69.6251C149.441 69.4424 149.374 69.2265 149.34 68.9939C149.324 68.8611 149.324 68.7282 149.324 68.5787C149.307 68.3296 149.274 68.0804 149.14 67.8977C149.073 67.8147 149.006 67.7483 148.888 67.6984C148.788 67.6486 148.687 67.632 148.587 67.632C148.47 67.632 148.369 67.6652 148.269 67.715C148.051 67.8313 147.867 68.0472 147.833 68.313C147.817 68.4126 147.833 68.5455 147.85 68.6784C147.934 69.16 148.168 69.8244 147.951 70.4057C147.817 70.7877 147.298 71.3026 146.728 71.3026C146.544 71.3026 146.377 71.2528 146.193 71.1365L145.02 72.1663C143.463 70.4721 143.949 68.8444 145.64 68.1469C145.774 68.097 145.891 68.0306 145.992 67.9642C146.31 67.7483 146.494 67.4659 146.31 67.1669C146.176 66.9344 146.025 66.8514 145.824 66.8514C145.523 66.8514 145.138 67.0341 144.552 67.2666C144.518 67.2832 144.485 67.2998 144.434 67.3164C144.116 67.4327 143.815 67.5157 143.53 67.5157C142.927 67.5157 142.442 67.1669 142.191 66.2036C142.174 66.1206 142.157 66.0209 142.141 65.9379L141.739 66.104L141.035 66.3863C141.052 66.27 141.069 66.1372 141.086 66.0209C141.153 65.6223 141.287 65.2901 141.437 65.0078C141.956 64.061 142.877 63.679 143.815 63.679C145.02 63.679 146.26 64.277 146.779 65.041L148.989 65.3399C149.441 64.7752 149.458 63.1143 149.391 61.8188C149.34 60.8721 148.637 60.1081 147.7 59.9586C146.092 59.7261 143.681 59.3773 142.827 59.3109C141.203 59.1946 139.512 58.9122 138.289 57.733C136.615 56.0887 136.247 54.378 136.247 52.0029C136.247 51.2223 136.28 50.4416 136.347 49.6444C136.397 48.9634 136.481 48.2825 136.548 47.6181C136.598 47.1697 136.665 46.7212 136.732 46.2728C136.799 45.8575 136.799 45.4091 136.766 44.9773C136.749 44.8112 136.732 44.6617 136.699 44.4956C136.615 44.0139 136.481 43.5489 136.297 43.0672C136.096 42.569 135.811 42.1039 135.476 41.6555C134.941 40.9579 134.237 40.3433 133.35 39.8451C133.032 39.6624 132.647 39.4465 132.245 39.1973C131.843 38.9482 131.408 38.6824 130.955 38.3669C129.85 37.6361 128.628 36.7226 127.489 35.6762C127.573 35.6264 127.657 35.5765 127.741 35.5267C128.159 35.2776 129.314 34.4305 130.403 33.5336C130.671 33.3177 130.905 33.1184 131.123 32.9191L130.085 32.371C128.879 33.3842 127.54 34.3807 127.188 34.58C127.021 34.6797 126.853 34.7793 126.686 34.879C126.368 35.0617 126.049 35.2444 125.748 35.4105C123.99 36.407 122.734 37.088 122.768 38.2506C124.944 40.5759 123.755 41.9544 122.55 42.3696L122.148 41.0907C120.875 40.8748 120.892 39.9447 120.842 39.2305C120.808 38.8485 120.507 38.6326 120.206 38.6326C119.955 38.6326 119.703 38.7987 119.687 39.1807C119.653 39.5959 119.687 40.0278 119.569 40.7087C119.486 41.1738 118.983 41.8049 118.263 41.8049C118.146 41.8049 118.029 41.7883 117.912 41.7551L117.644 43.2665C115.166 42.8015 115.434 40.3599 117.108 39.5295C118.062 39.0478 118.364 38.699 118.079 38.3336C117.995 38.234 117.895 38.1842 117.778 38.1842C117.426 38.1842 116.907 38.5662 116.405 38.9316C116.187 39.0977 115.902 39.1807 115.601 39.1807C114.948 39.1807 114.245 38.7655 113.943 37.7856L113.089 38.3004C112.939 36.4568 114.094 35.5433 115.266 35.5433C115.819 35.5433 116.388 35.7426 116.823 36.1413C116.991 36.2907 117.158 36.3572 117.326 36.3572C117.862 36.3572 118.23 35.6928 117.51 35.3108C116.823 34.9454 116.17 33.816 116.807 33.1018L115.769 32.1385C116.237 31.8561 116.74 31.7233 117.209 31.7233C118.247 31.7233 119.201 32.3876 119.502 33.899C119.569 34.2478 119.72 34.3807 119.921 34.3807C120.49 34.3807 121.495 33.1682 122.248 31.9724C122.433 31.69 122.6 31.3911 122.768 31.1087C122.985 30.7267 123.22 30.3613 123.471 29.9959C123.789 29.5309 124.124 29.0824 124.542 28.6838C125.246 27.9862 126.468 26.7738 127.875 25.9599C128.209 25.7772 128.561 25.5945 128.913 25.445C129.331 24.8969 129.75 24.3322 130.118 23.7509C131.106 22.2561 131.927 20.6616 132.395 18.9841C131.625 20.562 130.554 21.9405 129.365 23.1696C128.812 23.7509 128.243 24.2824 127.64 24.8139C126.016 25.6443 124.66 26.9897 123.856 27.7703L123.739 27.8866C123.504 28.1191 123.287 28.3516 123.102 28.6008C122.835 26.9731 122.902 24.9634 123.421 23.0533C123.521 22.6879 123.638 22.3059 123.772 21.9571C124.258 20.6949 124.961 19.499 125.915 18.5357ZM132.178 11.9419C132.814 11.726 133.45 11.5599 134.053 11.5599C134.555 11.5599 135.024 11.6762 135.46 11.9253C135.443 12.1246 135.409 12.2907 135.393 12.3737C135.393 12.3903 135.393 12.3903 135.393 12.3903C135.393 12.3903 135.309 12.4734 134.974 12.5066C134.857 12.5232 134.723 12.5232 134.572 12.5232C133.919 12.5232 133.182 12.4236 132.529 12.3073C131.876 12.2076 130.888 11.9917 130.888 11.9917C130.788 11.4602 130.872 10.8955 131.073 10.9121C131.307 10.962 131.474 11.5267 132.178 11.9419ZM131.491 11.1114L131.893 10.6962C132.898 9.79933 133.618 9.60002 134.036 9.60002C134.79 9.60002 135.091 10.1813 135.158 10.364C135.225 10.5301 135.275 10.6962 135.326 10.8457C134.924 10.663 134.488 10.5966 134.036 10.5966C133.233 10.5966 132.379 10.8457 131.491 11.1114ZM138.423 62.3171C137.184 63.1475 136.029 63.5462 134.807 63.5462C133.668 63.5462 132.563 63.214 131.391 62.8486C131.073 62.7489 130.754 62.6493 130.42 62.5662C129.901 62.4168 129.348 62.3503 128.795 62.3503C127.456 62.3503 126.301 62.7822 125.547 63.1642C125.631 62.8818 125.899 61.8188 125.899 61.005C126.887 60.4569 127.573 59.6763 127.908 58.6631C128.41 57.1517 128.812 54.4776 128.41 51.5877C129.197 51.488 130.319 51.3219 131.441 51.1392C132.663 50.9399 133.668 50.7406 134.405 50.5579C134.756 50.4749 135.041 50.3918 135.292 50.3088C135.259 50.8901 135.242 51.4714 135.242 52.0527C135.242 53.4977 135.376 54.5773 135.677 55.524C136.046 56.6534 136.665 57.6333 137.586 58.5302C139.06 59.9752 141.035 60.2908 142.777 60.4071C143.396 60.4569 145.104 60.6728 147.566 61.0382C148.001 61.1046 148.353 61.47 148.369 61.9185C148.436 63.1143 148.386 63.8285 148.319 64.2271L147.348 64.0943C146.544 63.2306 145.171 62.6659 143.832 62.6659C142.14 62.6659 140.868 63.5462 140.299 65.041C139.997 65.0742 139.662 65.124 139.327 65.2071C139.964 64.2437 140.014 63.3469 140.031 63.2306L140.114 61.1545L138.423 62.3171ZM121.595 62.4998C121.495 62.4167 121.395 62.3171 121.311 62.2174C121.294 62.1842 121.277 62.1676 121.261 62.1344C121.043 61.7856 121.11 61.4202 121.16 61.0382C121.21 60.6562 121.21 60.2742 120.859 60.0251C120.725 59.9254 120.574 59.8756 120.423 59.8756C120.323 59.8756 120.239 59.8922 120.155 59.9254C119.921 60.0084 119.703 60.2077 119.62 60.4735C119.569 60.6064 119.569 60.7891 119.569 61.005C119.569 61.1877 119.586 61.387 119.586 61.5863C119.586 61.9351 119.553 62.3171 119.402 62.6493C119.385 62.6825 119.368 62.7157 119.352 62.7489C119.151 63.0811 118.615 63.4963 118.062 63.4963C117.811 63.4963 117.56 63.4133 117.342 63.1974L115.886 64.0777C115.886 64.0777 115.869 64.0777 115.869 64.061C115.769 63.9116 115.702 63.7621 115.618 63.6292C115.45 63.2804 115.333 62.9648 115.266 62.6493C114.998 61.2541 115.835 60.241 117.309 59.9088C117.912 59.7759 118.397 59.4603 118.213 58.9787C118.096 58.6631 117.895 58.5468 117.594 58.5468C117.275 58.5468 116.823 58.6631 116.204 58.796C116.003 58.8292 115.819 58.8624 115.635 58.8956C115.484 58.9122 115.333 58.9289 115.199 58.9289C114.546 58.9289 114.128 58.6133 114.128 57.3178L112.872 57.5835C113.441 55.607 114.596 54.843 115.802 54.843C117.041 54.843 118.347 55.6569 119.151 56.7697L119.653 56.9358L120.541 57.2347L122.315 57.8327C124.04 56.3877 123.253 52.5842 123.253 52.5842C123.253 52.5842 119.888 50.7074 121.009 46.5385C121.009 46.5385 121.595 42.6188 128.795 42.6188C129.566 42.6188 130.403 42.6686 131.324 42.7683C131.876 42.8347 132.379 42.9011 132.831 42.9842C132.831 42.9842 132.831 43.0008 132.848 43.0008C132.68 43.3828 132.63 43.8146 132.714 44.2299C132.831 44.8776 133.233 45.4257 133.819 45.7247C134.103 45.8742 134.421 45.9572 134.756 45.9572C135.125 45.9572 135.476 45.8575 135.811 45.6748C135.811 45.8575 135.794 46.0236 135.778 46.1897C135.644 47.1198 135.51 48.1164 135.426 49.1627C133.969 49.8935 127.221 50.724 127.221 50.724C127.875 53.8797 127.456 56.8693 126.954 58.3641C126.769 58.9122 126.451 59.3441 126.049 59.6929C125.731 59.9752 125.363 60.1911 124.944 60.3572C124.861 61.4534 124.777 62.2673 124.576 62.915C124.526 63.1475 124.442 63.3469 124.341 63.5129C123.839 64.36 122.801 64.5593 121.863 64.6257L122.014 62.8652C121.964 62.7655 121.662 62.5496 121.595 62.4998ZM123.99 37.9849C124.275 37.5364 125.229 37.0215 126.217 36.4568C126.334 36.3904 126.468 36.324 126.602 36.2409C126.786 36.407 126.97 36.5731 127.155 36.7392C127.607 37.1378 128.075 37.5198 128.544 37.8852L128.561 37.9018L130.872 40.2935C131.474 40.9247 131.893 41.4063 132.178 41.8049L128.812 41.5724C127.154 41.5724 125.815 41.7717 124.727 42.0873C124.877 41.8548 124.995 41.589 125.061 41.3233C125.329 40.061 124.71 38.8817 123.99 37.9849ZM133.551 42.0541C133.35 41.6721 133.032 41.1904 132.496 40.5427C132.63 40.6257 132.781 40.7087 132.898 40.7752C133.701 41.2236 134.304 41.7717 134.756 42.3696C135.108 42.8347 135.342 43.333 135.527 43.8146C135.594 43.9973 135.644 44.1966 135.677 44.3793C135.476 44.6949 135.125 44.8942 134.756 44.8942C134.606 44.8942 134.455 44.861 134.304 44.778C133.752 44.4956 133.534 43.7648 133.919 43.2001C133.953 43.1503 133.986 43.1004 134.036 43.0506C133.869 42.7683 133.752 42.4527 133.551 42.0541ZM117.945 12.3239C118.615 12.7723 119.251 13.2872 119.871 13.8021C120.875 14.6326 121.847 15.5128 122.901 16.2935C123.236 16.5426 124.258 17.3066 125.061 17.9211C124.827 18.1703 124.609 18.4194 124.392 18.6852C123.806 19.4492 123.32 20.3128 122.952 21.2097L121.06 19.4326C121.261 18.9177 121.328 18.3198 121.261 17.7052C121.261 17.672 121.244 17.6388 121.244 17.589L120.239 18.0706C120.273 18.818 119.988 19.5987 119.302 19.9641C119.084 20.0803 118.9 20.1301 118.648 20.1301C118.648 20.1301 118.648 20.1301 118.632 20.1301L118.665 19.2167C118.33 19.2167 117.878 18.8679 117.878 18.3862C117.878 17.8381 118.23 17.5391 118.665 17.4063V16.3433C117.828 16.4928 117.208 16.991 116.957 17.672L115.852 17.6886C115.802 16.8582 116.204 16.1108 117.058 15.8284V14.7488C116.338 14.8983 115.869 15.2471 115.584 15.5627C115.501 15.6457 115.434 15.7454 115.35 15.845L114.513 15.8616C114.479 15.0644 114.881 14.3502 115.635 14.1011V13.0215C115.166 13.1211 114.764 13.3038 114.412 13.6028H113.625C113.642 13.0879 113.943 12.5896 114.362 12.2741C114.73 12.0083 115.199 11.8588 115.668 11.809C115.819 11.7924 115.969 11.7758 116.12 11.7758C116.321 11.7758 116.522 11.7924 116.706 11.8256C117.158 11.9087 117.577 12.0748 117.945 12.3239ZM115.702 5.68029C116.338 4.6007 116.706 3.22215 116.723 1.79378H119.251C119.268 1.97648 119.285 2.14257 119.285 2.32526C119.285 5.06576 117.075 7.29137 114.345 7.29137H114.161C114.747 6.94258 115.266 6.41109 115.702 5.68029ZM104.165 5.68029C104.801 4.6007 105.169 3.22215 105.186 1.79378H108.619C108.635 3.22215 109.004 4.6007 109.64 5.68029C110.075 6.41109 110.595 6.95918 111.181 7.29137H108.887C108.301 6.69344 107.815 5.8796 107.497 4.91627H106.342C106.04 5.8796 105.555 6.69344 104.952 7.29137H102.608C103.21 6.94258 103.746 6.41109 104.165 5.68029ZM92.4607 5.68029C93.0969 4.6007 93.4653 3.22215 93.4821 1.79378H97.0988C97.1155 3.22215 97.4839 4.6007 98.1202 5.68029C98.5555 6.41109 99.0746 6.94258 99.6607 7.29137H97.1658C96.5797 6.69344 96.0942 5.8796 95.776 4.91627H94.6207C94.3193 5.8796 93.8337 6.69344 93.2309 7.29137H90.8867C91.4895 6.94258 92.0253 6.41109 92.4607 5.68029ZM81.0412 5.68029C81.6775 4.6007 82.0458 3.22215 82.0626 1.79378H85.3779C85.3947 3.22215 85.763 4.6007 86.3993 5.68029C86.8346 6.41109 87.3537 6.95918 87.9398 7.29137H85.5956C85.0095 6.69344 84.524 5.8796 84.2058 4.91627H83.0505C82.7491 5.8796 82.2635 6.69344 81.6607 7.29137H79.4672C80.0868 6.94258 80.6226 6.41109 81.0412 5.68029ZM71.3463 2.24222C71.3463 2.09274 71.3463 1.94326 71.3631 1.77717H73.9584C73.9752 3.20554 74.3435 4.58409 74.9798 5.66368C75.4151 6.39448 75.9342 6.94258 76.5203 7.27476H76.2691C73.6235 7.29137 71.3463 4.98271 71.3463 2.24222ZM67.4449 16.2769C68.4998 15.4962 69.471 14.6326 70.4756 13.7855C71.0952 13.2706 71.7314 12.7557 72.4012 12.3073C72.7863 12.0415 73.2217 11.8755 73.6905 11.809C73.8579 11.7758 74.0421 11.7592 74.2263 11.7592C74.3938 11.7592 74.5612 11.7758 74.7454 11.7924C75.1975 11.8588 75.6496 11.9917 76.0012 12.2575C76.4198 12.5564 76.7212 13.0547 76.7379 13.5862H75.951C75.5993 13.3038 75.1807 13.1045 74.7286 13.0049V14.0845C75.4989 14.3336 75.9007 15.0478 75.8505 15.845L75.0133 15.8284C74.9463 15.7288 74.8626 15.6457 74.7789 15.5461C74.4942 15.2471 74.0086 14.8983 73.3054 14.7322V15.8118C74.1426 16.0942 74.5445 16.8416 74.511 17.672L73.4059 17.6554C73.1547 16.9578 72.5352 16.4762 71.698 16.3267V17.3897C72.1333 17.5225 72.4849 17.8215 72.4849 18.3696C72.4849 18.8513 72.0496 19.2 71.698 19.2L71.7314 20.1135C71.7314 20.1135 71.7314 20.1135 71.7147 20.1135C71.4803 20.1135 71.2794 20.0471 71.0617 19.9474C70.3752 19.5821 70.1073 18.7848 70.124 18.054L69.1194 17.5724C69.1194 17.6056 69.1026 17.6388 69.1026 17.6886C69.0189 18.3032 69.1026 18.9011 69.3035 19.416L67.4115 21.2097C67.0431 20.3128 66.5575 19.4658 65.9715 18.6852C65.7538 18.4194 65.5361 18.1537 65.3017 17.9211C66.0887 17.29 67.1101 16.526 67.4449 16.2769ZM36.3344 65.0908C36.1837 64.0777 36.3511 60.4735 36.4683 58.414C36.5185 57.5835 37.1548 56.9026 37.9753 56.7863C38.913 56.6534 40.1185 56.4707 41.006 56.288C42.4125 55.9891 43.7688 55.3745 44.0869 54.378C44.3548 53.5143 44.2041 53.4146 44.1204 52.5344C44.0534 51.8534 43.9697 51.1558 43.9194 50.4749C43.9194 50.3752 43.9027 50.2589 43.9027 50.1593C43.886 49.7607 43.9027 49.3454 43.9529 48.9468C43.8692 48.9966 43.7855 49.0465 43.7018 49.0963C43.4339 49.2458 43.1492 49.3454 42.8646 49.4285C42.5464 49.5115 42.2283 49.5447 41.8934 49.5447C41.1902 49.5447 40.5036 49.362 39.8841 48.98C38.7623 48.2991 38.1092 47.1198 38.1427 45.8243C38.193 43.5157 39.5157 41.888 40.7883 40.3101C41.3911 39.5627 42.0274 38.7821 42.4962 37.9516C43.9864 35.2942 44.3381 32.4042 43.5343 29.3648C43.1827 28.036 42.379 26.8402 41.525 25.5613C41.2069 25.0796 40.9055 24.6312 40.6041 24.1329C40.6041 24.1329 39.9343 24.4319 39.499 24.3322C39.3818 24.299 39.2646 24.2492 39.1306 24.1661C38.1092 23.535 37.0209 20.9606 37.0711 17.8713C37.1046 15.4132 37.6906 13.3703 38.846 11.6928C38.5948 12.3903 38.3771 13.1211 38.2432 13.8519C38.0925 14.6492 38.0423 15.4796 38.0925 16.2769C38.1427 17.0907 38.3102 17.8713 38.5781 18.6021C38.4609 17.8215 38.4609 17.0409 38.5613 16.2769C38.6618 15.5128 38.8627 14.782 39.1474 14.0845C39.3985 13.4699 39.6999 12.872 40.0516 12.3073C39.8171 13.7357 39.8171 15.1807 40.2023 16.9744C40.4367 18.0872 40.9223 19.1502 41.3409 20.0803C41.726 20.9274 42.0106 21.6084 42.1278 22.1731C42.2618 22.7876 42.1781 23.2526 41.7595 23.6347C41.8264 23.7509 41.9102 23.8672 41.9771 23.9834C42.1613 24.2658 42.3623 24.5648 42.5632 24.8637C43.4339 26.1758 44.3381 27.5212 44.7399 29.0492C45.6106 32.371 45.2087 35.6596 43.5846 38.5662C43.0655 39.4963 42.3957 40.3101 41.7595 41.1074C40.5706 42.5856 39.432 43.9807 39.3818 45.8741C39.365 46.7378 39.7837 47.4852 40.5204 47.9337C41.2906 48.3987 42.2116 48.4319 42.9985 48.0499C43.0153 48.0333 43.0488 48.0333 43.0655 48.0167C43.6683 47.7011 44.2041 47.1032 44.5222 46.4056C44.539 46.3724 44.539 46.3392 44.5557 46.306C44.9408 45.1932 45.4097 44.097 45.9455 43.0506C47.5194 39.9281 49.4785 37.0049 50.7176 33.7163C51.7892 30.8928 51.3036 27.4547 51.3036 27.4547C50.2152 27.8866 48.6246 27.9364 48.6246 27.9364C48.6748 24.4153 41.0562 16.2436 45.6943 6.27821C46.0125 6.79309 46.4311 7.32458 47.0171 7.87268L47.4357 8.2713V6.82631C45.0078 4.33496 46.1297 1.95987 47.0339 1.16263C47.7204 1.41177 48.5073 2.15917 49.0934 3.07267L50.1148 2.74049C49.8636 2.32526 49.579 1.92665 49.2608 1.56125C49.3613 1.49481 49.4618 1.44499 49.579 1.42838C49.6292 1.42838 49.6962 1.41177 49.7799 1.41177C51.3036 1.41177 57.0301 2.72388 57.5994 3.02284L58.1017 4.53427C59.6589 4.94949 61.0989 5.77994 62.1203 6.32804C61.9529 6.75988 61.484 7.73981 60.5464 7.64016C60.5464 7.64016 61.4673 8.18825 61.2831 9.05192C60.9817 9.68307 60.5966 10.3308 60.111 10.8955L59.1733 9.96542C58.0682 8.95227 57.0971 8.58687 56.2934 8.58687C55.2385 8.58687 54.5017 9.25123 54.2003 10.0152C53.7315 11.1779 53.7817 12.108 53.9492 12.7059C54.0831 13.1544 54.4515 13.5198 55.2887 13.5862C55.4394 13.6028 55.6069 13.6028 55.7743 13.6028C57.4989 13.6028 59.7594 12.9883 59.7594 12.9883C60.111 14.8485 60.3287 15.2139 57.6496 15.2139C57.0301 15.2139 56.2599 15.1973 55.3055 15.164L57.9845 16.3765C58.2859 16.3599 58.5706 16.3433 58.8552 16.3433C60.831 16.3433 62.405 16.9246 63.644 17.8713C63.9287 18.0872 64.1966 18.3198 64.4478 18.5689C65.4022 19.5322 66.0887 20.7281 66.5743 21.9904C66.7082 22.3558 66.8254 22.7212 66.9259 23.0866C67.4449 25.0132 67.5119 27.0229 67.244 28.634C67.0431 28.3848 66.8422 28.1523 66.6077 27.9198L66.4905 27.8035C65.6868 27.0229 64.3305 25.6776 62.7064 24.8471C62.1036 24.3156 61.5343 23.7841 60.9817 23.2028C59.7929 21.9571 58.738 20.5786 57.951 19.0173C58.4366 20.6949 59.2571 22.3059 60.2282 23.7841C60.6133 24.3655 61.0152 24.9302 61.4338 25.4783C61.8022 25.6277 62.1371 25.7938 62.4719 25.9931C63.8952 26.7904 65.1008 28.0194 65.804 28.717C66.2226 29.1156 66.5575 29.5641 66.8756 30.0291C67.1268 30.3945 67.3445 30.7599 67.5789 31.1419C67.7463 31.4243 67.9305 31.7233 68.098 32.0056C68.8515 33.2181 69.8561 34.4139 70.4254 34.4139C70.6263 34.4139 70.777 34.2644 70.844 33.9323C71.1454 32.4208 72.0998 31.7565 73.138 31.7565C73.6235 31.7565 74.1259 31.906 74.5779 32.1717L73.5398 33.135C74.1593 33.8658 73.5063 34.9786 72.8366 35.344C72.1166 35.726 72.5017 36.3904 73.0207 36.3904C73.1882 36.3904 73.3556 36.324 73.5231 36.1745C73.9584 35.7759 74.5277 35.5765 75.0803 35.5765C76.2524 35.5765 77.4077 36.4734 77.257 38.3336L76.3528 37.8354C76.0514 38.8153 75.3482 39.2305 74.6952 39.2305C74.3938 39.2305 74.1091 39.1475 73.8914 38.9814C73.3891 38.616 72.87 38.234 72.5184 38.234C72.4012 38.234 72.284 38.2838 72.217 38.3835C71.9491 38.7489 72.2338 39.1143 73.1882 39.5793C74.8793 40.4098 75.1472 42.8513 72.6524 43.3164L72.3845 41.8049C72.2673 41.8382 72.15 41.8548 72.0328 41.8548C71.3128 41.8548 70.8105 41.2236 70.7268 40.7586C70.6096 40.0776 70.6431 39.6624 70.6096 39.2305C70.5928 38.8485 70.3417 38.6824 70.0905 38.6824C69.7891 38.6824 69.4877 38.8984 69.4542 39.2804C69.404 39.9946 69.4208 40.9247 68.1482 41.1406L67.7463 42.4195C66.5408 42.0042 65.3352 40.6257 67.5287 38.3004C67.5622 37.1212 66.3063 36.4402 64.5482 35.4603C64.2468 35.2942 63.9287 35.1115 63.6105 34.9288C63.4431 34.8291 63.2757 34.7295 63.1082 34.6298C62.7566 34.4139 61.4003 33.434 60.2115 32.4208L59.1733 32.9689C59.391 33.1516 59.6254 33.3509 59.8933 33.5835C60.965 34.4637 62.1203 35.3274 62.5557 35.5765C62.6394 35.6264 62.7231 35.6762 62.8068 35.726C61.6682 36.7724 60.4459 37.6859 59.3408 38.4167C58.8887 38.7157 58.4534 38.998 58.0515 39.2471C57.6496 39.4963 57.2645 39.7122 56.9464 39.8949C56.0589 40.3932 55.3557 41.0077 54.8199 41.7053C54.4683 42.1537 54.2003 42.6354 53.9994 43.117C53.7985 43.5821 53.6645 44.0638 53.5976 44.5454C53.5641 44.7115 53.5473 44.861 53.5306 45.0271C53.4971 45.4755 53.5138 45.9074 53.5641 46.3226C53.631 46.771 53.6813 47.2195 53.7483 47.6679C53.832 48.3489 53.899 49.0133 53.9492 49.6942C54.0162 50.4915 54.0496 51.2721 54.0496 52.0527C54.0496 54.4444 53.6813 56.1551 52.0069 57.7828C50.8013 58.9621 49.1101 59.2444 47.4692 59.3607C46.6153 59.4105 44.2208 59.7593 42.5967 60.0084C41.659 60.1413 40.9557 60.9219 40.9055 61.8686C40.8385 63.1475 40.8553 64.8251 41.3074 65.3898L43.5176 65.0908C44.0367 64.3268 45.2757 63.7289 46.4813 63.7289C47.419 63.7289 48.3399 64.0943 48.859 65.0576C49.0097 65.3399 49.1436 65.6721 49.2106 66.0707C49.2273 66.187 49.2441 66.3033 49.2608 66.4361L48.5576 66.1538L48.1557 65.9877C48.139 66.0873 48.1222 66.1704 48.1055 66.2534C47.8711 67.2168 47.3687 67.5655 46.766 67.5655C46.4813 67.5655 46.1799 67.4825 45.8618 67.3662C45.8283 67.3496 45.7948 67.333 45.7446 67.3164C45.1753 67.0839 44.7734 66.9012 44.472 66.9012C44.2711 66.9012 44.1204 66.9842 43.9864 67.2168C43.8022 67.5323 43.9864 67.7981 44.3046 68.014C44.405 68.0804 44.539 68.1469 44.6562 68.1967C46.3474 68.8943 46.8329 70.522 45.2757 72.2161L44.1036 71.1863C43.9195 71.3026 43.7353 71.3524 43.5678 71.3524C42.9985 71.3524 42.4795 70.8375 42.3455 70.4555C42.1278 69.8742 42.3622 69.2098 42.446 68.7282C42.4627 68.5953 42.4795 68.4624 42.4627 68.3628C42.4292 68.097 42.245 67.8811 42.0274 67.7649C41.9269 67.715 41.8264 67.6818 41.7092 67.6818C41.6088 67.6818 41.5083 67.6984 41.4078 67.7482C41.3074 67.7981 41.2236 67.8645 41.1567 67.9476C41.006 68.1303 40.9725 68.3794 40.9725 68.6285C40.9725 68.7614 40.9725 68.9109 40.9557 69.0438C40.9223 69.2763 40.8553 69.4922 40.6543 69.6749C40.5539 69.7579 40.4534 69.8244 40.353 69.8908C40.286 69.924 39.9678 70.0735 39.9511 70.14L39.8004 71.7676C38.6283 71.4853 37.339 70.9206 37.6571 69.1102C37.7074 68.8112 37.8078 68.4624 37.9753 68.0804C38.0255 67.9476 38.0925 67.7981 38.1762 67.6486C37.1716 67.1503 36.5018 66.2036 36.3344 65.0908ZM56.3101 11.5599C56.9129 11.5599 57.5324 11.7094 58.1854 11.9419C58.8887 11.5101 59.0394 10.962 59.3073 10.9287C59.5082 10.9121 59.592 11.4768 59.4915 12.0083C59.4915 12.0083 58.5036 12.2242 57.8506 12.3239C57.1975 12.4402 56.4608 12.5398 55.8078 12.5398C55.6571 12.5398 55.5231 12.5398 55.4059 12.5232C55.0878 12.49 54.9873 12.4236 54.9873 12.4069C54.9873 12.4069 54.9873 12.4069 54.9873 12.3903C54.9538 12.2907 54.9203 12.1412 54.9203 11.9419C55.3389 11.6761 55.8078 11.5599 56.3101 11.5599ZM55.0208 10.8457C55.0543 10.6962 55.1213 10.5301 55.1882 10.364C55.2552 10.1813 55.5566 9.60002 56.3101 9.60002C56.7455 9.60002 57.4654 9.78272 58.4534 10.6962L58.8552 11.1114C57.9678 10.8291 57.0971 10.5966 56.2934 10.5966C55.858 10.5966 55.4394 10.6796 55.0208 10.8457ZM68.031 57.8327L69.8226 57.2347L70.7101 56.9358L71.2124 56.7697C72.0161 55.6403 73.3221 54.843 74.5612 54.843C75.7668 54.843 76.9221 55.607 77.4914 57.5835L76.2356 57.3178C76.2356 58.5967 75.817 58.9289 75.164 58.9289C75.03 58.9289 74.8793 58.9122 74.7286 58.8956C74.5445 58.8624 74.3603 58.8292 74.1593 58.796C73.5398 58.6797 73.0877 58.5468 72.7696 58.5468C72.4682 58.5468 72.2673 58.6631 72.15 58.9787C71.9826 59.4603 72.4514 59.7593 73.0542 59.9088C74.5277 60.241 75.3649 61.2707 75.097 62.6493C75.03 62.9648 74.9296 63.2804 74.7454 63.6292C74.6784 63.7787 74.5947 63.9116 74.4942 64.061C74.4942 64.061 74.4775 64.061 74.4775 64.0777L73.0207 63.1974C72.8031 63.4133 72.5519 63.4963 72.3007 63.4963C71.7482 63.4963 71.2124 63.0977 71.0114 62.7489C70.9947 62.7157 70.978 62.6825 70.9612 62.6493C70.7938 62.3171 70.777 61.9351 70.777 61.5863C70.777 61.387 70.7938 61.1877 70.7938 61.005C70.7938 60.7891 70.7938 60.6064 70.7435 60.4735C70.6598 60.2077 70.4421 60.025 70.2077 59.9254C70.124 59.8922 70.0235 59.8756 69.9398 59.8756C69.7891 59.8756 69.6384 59.9254 69.5045 60.0251C69.1528 60.2742 69.1529 60.6562 69.2031 61.0382C69.2533 61.4368 69.3203 61.8022 69.1026 62.1344C69.0859 62.1676 69.0691 62.1842 69.0524 62.2174C68.9687 62.3171 68.8682 62.4167 68.7677 62.4998C68.7008 62.5496 68.3994 62.7655 68.3994 62.8486L68.5501 64.6091C67.6124 64.5427 66.5743 64.3434 66.0719 63.4963C65.9715 63.3302 65.8877 63.1143 65.8375 62.8984C65.6533 62.2507 65.5696 61.4534 65.4691 60.3406C65.0505 60.1745 64.6822 59.9586 64.364 59.6763C63.9622 59.3275 63.644 58.8956 63.4598 58.3475C62.9575 56.8527 62.5222 53.8631 63.1919 50.7074C63.1919 50.7074 56.4441 49.8769 54.9873 49.1461C54.8869 48.0998 54.7696 47.0866 54.6357 46.1731C54.6189 46.007 54.6022 45.8409 54.6022 45.6582C54.9203 45.8409 55.2887 45.9406 55.6571 45.9406C55.992 45.9406 56.2934 45.8575 56.5948 45.7081C57.1808 45.4091 57.5827 44.861 57.6999 44.2132C57.7836 43.798 57.7334 43.3662 57.5659 42.9842C57.5659 42.9842 57.5659 42.9676 57.5827 42.9676C58.0347 42.8845 58.5371 42.8181 59.0896 42.7517C60.0106 42.652 60.8478 42.6022 61.618 42.6022C68.818 42.6022 69.404 46.5219 69.404 46.5219C70.5259 50.6908 67.1603 52.5676 67.1603 52.5676C67.1603 52.5676 66.3231 56.3877 68.031 57.8327ZM50.299 63.2306C50.299 63.3469 50.3659 64.2437 51.0022 65.2071C50.6506 65.124 50.3325 65.0742 50.0311 65.041C49.4618 63.5462 48.1892 62.6659 46.498 62.6659C45.1585 62.6659 43.7855 63.2306 42.9818 64.0943L42.0106 64.2271C41.9436 63.8119 41.8934 63.0977 41.9604 61.9185C41.9771 61.47 42.3288 61.1046 42.7641 61.0382C45.2255 60.6728 46.9334 60.4403 47.5529 60.4071C49.2943 60.2908 51.2701 59.9752 52.7436 58.5302C53.6645 57.6333 54.3008 56.6368 54.6524 55.524C54.9538 54.5773 55.0878 53.5143 55.0878 52.0527C55.0878 51.4714 55.071 50.8901 55.0375 50.3088C55.2887 50.3918 55.5901 50.4749 55.925 50.5579C56.6617 50.7406 57.6664 50.9399 58.8887 51.1392C60.0106 51.3219 61.1324 51.488 61.9194 51.5877C61.5175 54.4942 61.9026 57.1517 62.4217 58.6631C62.7566 59.6597 63.4431 60.4569 64.431 61.005C64.431 62.068 64.7659 63.1309 64.7659 63.1642C64.0124 62.7822 62.8571 62.3503 61.5175 62.3503C60.965 62.3503 60.4124 62.4334 59.8933 62.5662C59.5585 62.6659 59.2403 62.7655 58.9222 62.8486C57.7501 63.1974 56.6617 63.5462 55.5064 63.5462C54.2841 63.5462 53.1287 63.1642 51.8897 62.3171L50.165 61.1545L50.299 63.2306ZM56.4608 43.2167C56.8292 43.7814 56.6282 44.5122 56.0757 44.7946C55.925 44.8776 55.7743 44.9108 55.6236 44.9108C55.2552 44.9108 54.9036 44.7115 54.7027 44.3959C54.7362 44.2132 54.8031 44.0139 54.8534 43.8312C55.0208 43.333 55.272 42.8513 55.6236 42.3863C56.0757 41.7883 56.6785 41.2402 57.4822 40.7918C57.5994 40.7253 57.7334 40.6423 57.8841 40.5593C57.3482 41.207 57.0301 41.6721 56.8292 42.0707C56.6115 42.4693 56.511 42.7849 56.3603 43.0838C56.3771 43.1171 56.4273 43.1669 56.4608 43.2167ZM63.2087 36.7558C63.3929 36.5897 63.5771 36.4236 63.7612 36.2575C63.8952 36.324 64.0124 36.407 64.1464 36.4734C65.1343 37.0215 66.0719 37.553 66.3733 38.0015C65.6533 38.8817 65.0171 40.0776 65.3352 41.3233C65.4022 41.589 65.5194 41.8548 65.6701 42.0873C64.5817 41.7717 63.2422 41.5724 61.5845 41.5724L58.2189 41.8049C58.5036 41.4063 58.9054 40.9247 59.525 40.2935L61.8357 37.9018L61.8524 37.8852C62.2878 37.5364 62.7566 37.1544 63.2087 36.7558ZM48.2729 72.2825C46.5483 74.1095 44.2208 74.9566 41.8264 74.9566C37.7241 74.9566 33.4879 72.4486 31.9976 68.0306C31.9976 68.0306 34.0237 68.7116 36.6358 69.0105C36.5185 69.7247 36.5855 70.3559 36.8534 70.9206C37.4227 72.1164 38.6785 72.5483 39.566 72.7808L40.7548 73.0797L40.872 71.8673L40.9892 70.7379C41.0897 70.6714 41.2069 70.5884 41.3074 70.5053C41.3241 70.605 41.3576 70.7047 41.3911 70.8043C41.6757 71.5849 42.5799 72.3822 43.6013 72.3822C43.7018 72.3822 43.8022 72.3822 43.9027 72.3656L44.6227 72.9967L45.3929 73.6777L46.0962 72.9137C47.0841 71.8507 47.4859 70.6548 47.2348 69.5586C47.1511 69.2098 47.0171 68.8777 46.8162 68.5787C47.4357 68.5787 47.9883 68.3462 48.4069 67.9143C48.5576 67.7483 48.7083 67.5656 48.8087 67.3496L48.8757 67.3662L50.4999 68.0306L50.3157 66.3033C50.3157 66.2368 50.299 66.187 50.299 66.1206C51.019 66.2368 51.8897 66.5026 52.9948 66.9178C53.1455 67.0008 53.3129 67.0673 53.4636 67.1171C53.5473 67.1503 53.6143 67.1835 53.698 67.2002C53.3464 67.3995 52.9948 67.5988 52.6766 67.7981C51.0859 68.8112 49.9976 69.9074 49.4283 71.0534C49.0766 71.4521 48.6915 71.8507 48.2729 72.2825ZM60.6803 68.6784C59.525 69.6417 57.9175 69.841 56.4608 69.9406C52.0404 70.2728 50.232 74.2258 50.232 74.2258C49.8636 73.3123 49.9306 72.4486 50.2822 71.668C50.818 70.4721 52.0236 69.4424 53.2962 68.6451C55.4227 67.3164 57.7668 66.569 57.7668 66.569C57.3482 66.6022 56.9631 66.6188 56.5948 66.6188C55.6738 66.6188 54.9203 66.5026 54.3008 66.3199C53.9492 66.2202 53.631 66.0873 53.3631 65.9545C51.4041 64.9579 51.3371 63.1808 51.3371 63.1808C52.8943 64.2271 54.2673 64.5925 55.5399 64.5925C57.1808 64.5925 58.671 64.0112 60.1947 63.5794C60.6468 63.4465 61.0989 63.3967 61.5343 63.3967C62.7901 63.3967 63.8784 63.8617 64.498 64.1939C63.711 64.6756 63.0412 65.2901 62.5222 66.0707C62.3212 66.3863 62.1371 66.7019 61.9864 67.0008C61.5008 67.6818 61.1826 68.2797 60.6803 68.6784ZM68.031 67.1669C66.4905 67.5157 65.0505 68.396 64.565 69.9739C64.2803 70.8874 64.3305 71.8839 64.3808 72.8306C64.3808 72.8306 61.2329 71.0534 62.9073 67.5489C63.0412 67.2666 63.2254 66.951 63.4264 66.6354C63.8282 66.0209 64.3138 65.5891 64.7659 65.2569C64.9333 65.1572 65.1008 65.0742 65.285 64.9745L65.7538 64.742C66.5575 65.423 67.6459 65.5891 68.4496 65.6389L69.6719 65.722L69.5715 64.5095L69.471 63.2472C69.6049 63.1309 69.7389 62.9981 69.8728 62.832C69.8728 62.8154 69.8896 62.8154 69.8896 62.7988C69.9398 62.9482 70.0068 63.0977 70.0905 63.2306C70.4589 63.8617 71.3296 64.4929 72.284 64.4929C72.5352 64.4929 72.7696 64.443 73.004 64.36L73.5566 64.6922C73.5231 64.7254 73.4728 64.7586 73.4393 64.7918C71.6477 66.4694 70.3249 66.6521 68.031 67.1669ZM115.534 72.9469C115.534 72.9469 116.438 68.9773 114.513 67.715C111.432 65.7219 109.791 67.4327 106.342 64.8251C106.308 64.7752 106.258 64.742 106.224 64.6922C104.6 63.0645 102.809 62.0347 101.184 61.4866C100.063 61.6693 98.8234 61.8022 97.4504 61.8686C97.7183 61.8853 97.9862 61.9019 98.2709 61.9351C98.7565 61.9849 99.2755 62.068 99.8113 62.1842C100.632 62.3669 101.503 62.6493 102.373 63.0645C103.428 63.5794 104.483 64.4098 105.471 65.4064C105.538 65.4728 105.588 65.5226 105.638 65.5891C107.782 67.8977 107.212 70.1566 107.212 70.1566C107.212 70.1566 104.466 66.5358 100.364 66.5358C98.4048 66.5358 96.7137 67.1835 95.843 67.6154L95.2067 67.9476L94.5704 67.6154C93.6997 67.2002 92.0086 66.5358 90.0495 66.5358C85.9472 66.5358 83.2012 70.1566 83.2012 70.1566C83.2012 70.1566 82.6151 67.8977 84.7751 65.5891C84.8254 65.5226 84.8923 65.4728 84.9426 65.4064C85.9305 64.4098 86.9853 63.5628 88.0402 63.0645C88.9109 62.6493 89.7816 62.3669 90.6021 62.1842C91.1379 62.068 91.6569 61.9849 92.1425 61.9351C92.4272 61.9019 92.7118 61.8853 92.9797 61.8686C91.6067 61.8022 90.3677 61.6693 89.2291 61.4866C87.6049 62.0347 85.8132 63.0479 84.1891 64.6922C84.1388 64.742 84.1053 64.7752 84.0719 64.8251C80.6226 67.4327 78.9817 65.7219 75.9007 67.715C73.9752 68.9607 74.8793 72.9469 74.8793 72.9469C74.8793 72.9469 70.8105 69.8908 74.4942 65.8548C75.2645 65.0078 76.2021 64.3102 76.8886 63.8451C77.4579 63.4631 77.8598 63.2472 77.8598 63.2472C77.8598 63.2472 77.5249 63.214 77.0896 63.1309C76.8551 63.0977 76.5705 63.0313 76.2691 62.9648C76.2189 62.9482 76.1519 62.9316 76.0849 62.915C76.2356 62.2008 76.1854 61.5033 75.9342 60.8887C75.8338 60.6396 75.6831 60.3905 75.5156 60.1745C77.1063 60.6064 79.0654 60.9385 81.2923 60.9385C82.1463 60.9385 83.0337 60.7558 83.9714 60.6562C84.2895 60.623 84.6412 60.6064 84.9928 60.6064C85.11 60.6064 85.2272 60.6064 85.3444 60.623C84.4737 60.3572 83.7035 60.0583 83.0002 59.7593C82.4309 59.8424 81.8616 59.9254 81.2923 59.9254C79.5342 59.9254 77.9603 59.7095 76.604 59.3939C76.8551 59.1448 77.0058 58.8624 77.1063 58.5468L77.257 58.5801L78.9649 58.9455L78.4793 57.268C77.5751 54.1122 75.4319 53.7801 74.5445 53.7801C73.1212 53.7801 71.5807 54.5939 70.5594 55.8728L68.3826 56.6036C67.897 55.7233 67.9305 54.1621 68.0645 53.1821C68.4496 52.8998 69.0021 52.4181 69.5045 51.7039C70.2747 50.6243 71.0449 48.8139 70.3752 46.2894C70.3082 45.9572 69.9566 44.6783 68.5835 43.5489L68.8347 42.735L69.0524 42.0209C69.3873 41.888 69.6552 41.6887 69.8561 41.4728C70.1575 42.0873 70.7435 42.652 71.4803 42.8347L71.5975 43.4658L71.7817 44.562L72.87 44.3627C74.377 44.0804 75.3817 43.1503 75.5659 41.888C75.6496 41.3233 75.5491 40.742 75.2979 40.2105C75.8672 40.0776 76.3863 39.762 76.7714 39.2804L78.1947 40.0776L78.3286 38.3835C78.4458 36.9053 77.91 35.9752 77.4412 35.4769C76.8384 34.8291 75.9677 34.4637 75.0635 34.4637C74.9631 34.4637 74.8793 34.4637 74.7789 34.4804C74.7956 34.3973 74.8291 34.3143 74.8459 34.2312C74.8961 33.9489 74.8961 33.6665 74.8459 33.3842L75.3314 32.9357L76.4031 31.9392L75.1472 31.1918C74.511 30.8098 73.8245 30.6104 73.138 30.6104C71.9994 30.6104 70.6933 31.1918 70.0403 32.753C69.7724 32.4374 69.4208 31.989 69.0356 31.3745C68.8849 31.1253 68.7342 30.8762 68.5835 30.6271C68.4161 30.3447 68.2319 30.0457 68.0477 29.7634V29.7468C68.6003 27.6873 68.5836 24.8637 67.7631 22.2395L69.8226 20.2962C70.0235 20.5288 70.2747 20.7115 70.5426 20.8443C70.9277 21.0436 71.2794 21.1433 71.6812 21.1433H71.698L72.7863 21.1267V19.798C72.8198 19.7647 72.87 19.7315 72.9035 19.6983C73.2049 19.416 73.3891 19.0672 73.4561 18.6686L74.4607 18.6852L75.4654 18.7018L75.5156 17.7052C75.5324 17.4063 75.4989 17.1239 75.4486 16.8416H75.817L76.8217 16.8582L76.8719 15.8616C76.8886 15.4132 76.8217 14.9813 76.671 14.5993H76.7045H77.7761L77.7426 13.5364C77.7258 12.7059 77.2905 11.9087 76.5872 11.4104C75.9677 10.962 75.2645 10.7959 74.7119 10.746V8.32113H115.635V10.7294C115.082 10.7793 114.345 10.9454 113.709 11.4104C113.006 11.9253 112.57 12.7225 112.554 13.5364L112.52 14.5993H113.592H113.625C113.475 14.9813 113.391 15.4132 113.424 15.8616L113.475 16.8582L114.479 16.8416H114.848C114.781 17.1073 114.764 17.4063 114.781 17.7052L114.831 18.7018L115.835 18.6852L116.84 18.6686C116.907 19.0506 117.091 19.416 117.393 19.6983C117.426 19.7315 117.476 19.7647 117.51 19.798V21.1267L118.598 21.1433H118.615C119.017 21.1433 119.368 21.0436 119.754 20.8443C120.022 20.6949 120.273 20.5122 120.474 20.2962L122.533 22.2395C121.713 24.8637 121.679 27.6873 122.248 29.7468V29.7634C122.064 30.0457 121.88 30.3447 121.713 30.6271C121.562 30.8762 121.411 31.1253 121.261 31.3745C120.892 31.9724 120.524 32.4541 120.256 32.7696C119.603 31.2084 118.297 30.6271 117.158 30.6271C116.472 30.6271 115.785 30.8264 115.149 31.2084L113.893 31.9558L114.965 32.9523L115.45 33.4008C115.4 33.6665 115.4 33.9489 115.45 34.2478C115.467 34.3309 115.484 34.4139 115.517 34.497C115.417 34.497 115.333 34.4804 115.233 34.4804C114.312 34.4804 113.441 34.8458 112.855 35.4935C112.386 36.0084 111.85 36.9219 111.968 38.4001L112.102 40.0942L113.525 39.297C113.91 39.762 114.429 40.0776 114.998 40.2271C114.747 40.7586 114.647 41.3233 114.73 41.9046C114.915 43.1835 115.919 44.1136 117.426 44.3793L118.515 44.5786L118.699 43.4824L118.816 42.8513C119.569 42.652 120.155 42.1039 120.44 41.4894C120.641 41.7053 120.909 41.888 121.244 42.0375L121.428 42.6354L121.461 42.7517L121.713 43.5655C120.34 44.7115 119.988 45.9738 119.921 46.306C119.251 48.8306 120.022 50.6409 120.792 51.7205C121.294 52.4347 121.847 52.9164 122.232 53.1987C122.366 54.1787 122.399 55.7399 121.914 56.6202L119.737 55.8894C118.699 54.6105 117.175 53.7967 115.752 53.7967C114.864 53.7967 112.721 54.1288 111.817 57.2846L111.331 58.9621L113.039 58.5967L113.19 58.5635C113.29 58.8624 113.441 59.1614 113.692 59.4105C112.336 59.7095 110.762 59.942 109.004 59.942C108.435 59.942 107.865 59.859 107.296 59.7759C106.593 60.0749 105.822 60.3738 104.952 60.6396C105.069 60.6396 105.169 60.6396 105.287 60.6396C105.638 60.6396 105.99 60.6562 106.308 60.6894C107.246 60.8057 108.133 60.9718 108.987 60.9718C111.214 60.9718 113.173 60.6396 114.764 60.2077C114.596 60.4237 114.446 60.6562 114.345 60.9219C114.094 61.5365 114.044 62.2341 114.195 62.9482C114.128 62.9648 114.077 62.9815 114.01 62.9981C113.709 63.0645 113.424 63.1309 113.19 63.1642C112.738 63.2472 112.47 63.2638 112.47 63.2638C112.47 63.2638 112.872 63.4797 113.441 63.8617C114.128 64.3268 115.048 65.0244 115.835 65.8714C119.603 69.8908 115.534 72.9469 115.534 72.9469ZM125.982 72.8306C126.033 71.8839 126.066 70.8874 125.798 69.9739C125.313 68.396 123.873 67.5323 122.332 67.1669C120.038 66.6354 118.715 66.4694 116.924 64.8251C116.89 64.7918 116.84 64.7586 116.807 64.7254L117.359 64.3932C117.577 64.4763 117.828 64.5261 118.079 64.5261C119.05 64.5261 119.921 63.895 120.273 63.2638C120.356 63.1143 120.423 62.9815 120.474 62.832C120.474 62.8486 120.49 62.8486 120.49 62.8652C120.624 63.0313 120.758 63.1642 120.892 63.2804L120.792 64.5427L120.691 65.7552L121.914 65.6721C122.717 65.6223 123.789 65.4562 124.609 64.7752L125.078 65.0078C125.262 65.1074 125.43 65.1905 125.597 65.2901C126.066 65.6223 126.535 66.0541 126.937 66.6687C127.155 66.9842 127.322 67.2832 127.456 67.5822C129.13 71.0534 125.982 72.8306 125.982 72.8306ZM140.098 74.2424C140.098 74.2424 138.306 70.2894 133.869 69.9573C132.412 69.841 130.821 69.6417 129.649 68.695C129.147 68.2797 128.829 67.6818 128.327 67.0175C128.176 66.7019 127.992 66.4029 127.791 66.0873C127.272 65.3067 126.619 64.6756 125.815 64.2105C126.435 63.8783 127.506 63.4133 128.779 63.4133C129.214 63.4133 129.649 63.4631 130.118 63.596C131.659 64.0278 133.132 64.6091 134.773 64.6091C136.046 64.6091 137.419 64.2604 138.976 63.1974C138.976 63.1974 138.892 64.9745 136.95 65.9711C136.682 66.104 136.364 66.2368 136.012 66.3365C135.393 66.5192 134.622 66.6354 133.718 66.6354C133.35 66.6354 132.965 66.6188 132.546 66.5856C132.546 66.5856 134.89 67.333 137.017 68.6617C138.306 69.4756 139.495 70.4887 140.031 71.6846C140.399 72.4652 140.483 73.3123 140.098 74.2424ZM148.537 74.9566C146.142 74.9566 143.798 74.1095 142.09 72.2825C141.672 71.8507 141.303 71.4355 140.935 71.0701C140.366 69.9074 139.277 68.8278 137.687 67.8147C137.368 67.6154 137.034 67.4161 136.665 67.2168C136.749 67.1835 136.816 67.1503 136.9 67.1337C137.067 67.0673 137.218 67.0008 137.368 66.9344C138.474 66.5026 139.344 66.2534 140.064 66.1372C140.064 66.2036 140.047 66.2534 140.047 66.3199L139.863 68.0472L141.487 67.3829L141.554 67.3662C141.672 67.5822 141.806 67.7649 141.956 67.9309C142.375 68.3628 142.927 68.5953 143.547 68.5953C143.346 68.8943 143.212 69.2265 143.128 69.5752C142.877 70.6714 143.296 71.8673 144.267 72.9303L144.97 73.6943L145.74 73.0133L146.46 72.3822C146.561 72.3988 146.661 72.3988 146.762 72.3988C147.783 72.3988 148.687 71.6015 148.972 70.8209C149.006 70.7213 149.039 70.6216 149.056 70.522C149.173 70.605 149.274 70.688 149.374 70.7545L149.491 71.8839L149.608 73.0964L150.797 72.7974C151.685 72.5815 152.94 72.133 153.51 70.9372C153.778 70.3725 153.845 69.7413 153.727 69.0271C156.323 68.7282 158.366 68.0472 158.366 68.0472C156.859 72.4652 152.622 74.9566 148.537 74.9566ZM57.3817 4.7834C55.858 5.19863 53.9324 4.80001 53.9324 4.80001C55.1045 5.94603 55.4896 6.64361 55.4896 6.64361C57.0301 6.72666 57.3817 5.73012 57.3817 4.7834ZM132.981 4.7834C132.981 5.73012 133.333 6.72666 134.874 6.66022C134.874 6.66022 135.275 5.96264 136.431 4.81662C136.431 4.81662 134.505 5.19863 132.981 4.7834ZM133.902 25.2457C134.17 24.7973 134.438 24.3488 134.706 23.9004C135.141 23.1696 135.543 22.389 135.895 21.5917C136.23 20.7945 136.514 19.9973 136.766 19.1834C137.034 18.3862 137.268 17.5724 137.502 16.7585C137.134 17.5225 136.766 18.2699 136.364 19.0173C135.979 19.7647 135.577 20.4955 135.141 21.1931C134.689 21.8907 134.204 22.5385 133.668 23.1696C133.199 23.7343 132.697 24.3156 132.211 24.8803C132.764 24.9468 133.333 25.0464 133.902 25.2457ZM54.4682 21.5917C54.8031 22.389 55.2217 23.1696 55.6571 23.9004C55.925 24.3488 56.1929 24.7973 56.4608 25.2457C57.0301 25.0464 57.5994 24.9302 58.152 24.8969C57.6664 24.3322 57.1641 23.7509 56.6952 23.1862C56.1594 22.5385 55.6738 21.8907 55.2217 21.2097C54.7864 20.5122 54.3845 19.7814 53.9994 19.034C53.6143 18.2865 53.2459 17.5225 52.8608 16.7751C53.0952 17.589 53.3464 18.3862 53.5976 19.2C53.8487 19.9973 54.1334 20.7945 54.4682 21.5917ZM54.2171 26.4084C52.9278 24.5648 51.6887 22.6879 50.6506 20.7115C50.0813 19.6319 49.579 18.5191 49.1771 17.373C48.7585 16.227 48.4236 15.0478 48.1557 13.8519C48.2897 15.081 48.4739 16.2935 48.7585 17.5059C49.0432 18.7184 49.4283 19.8976 49.8804 21.0603C50.3325 22.2229 50.8515 23.3523 51.3873 24.4651C51.8227 25.3454 52.2748 26.2091 52.7269 27.0727C53.1622 26.9399 53.6645 26.7239 54.2171 26.4084ZM137.603 27.0727C138.072 26.2091 138.524 25.3454 138.942 24.4651C139.495 23.3523 140.014 22.2229 140.449 21.0603C140.901 19.8976 141.27 18.7018 141.571 17.5059C141.856 16.2935 142.057 15.081 142.174 13.8519C141.906 15.0478 141.571 16.227 141.153 17.373C140.734 18.5191 140.232 19.6319 139.679 20.7115C138.641 22.6879 137.402 24.5648 136.113 26.4084C136.699 26.7239 137.184 26.9399 137.603 27.0727Z" fill="#CC0000"/>
<path d="M112.805 13.5859H112.587H77.7761H77.6254L77.1398 14.5991H113.073L112.805 13.5859ZM117.56 19.7313V31.7396C117.928 31.806 118.28 31.9555 118.581 32.2047V19.9306L117.56 19.7313ZM117.928 41.7881L117.661 43.2995C117.627 43.2995 117.594 43.2829 117.56 43.2829V45.3756C117.56 48.1826 116.723 50.7403 115.099 52.9493C114.697 53.4808 114.261 53.9957 113.776 54.494L73.9417 14.9479C73.7575 14.8648 73.5398 14.7818 73.2886 14.732V15.8115C74.1258 16.0939 74.5277 16.8413 74.4942 17.6718L73.3891 17.6552C73.1547 16.9908 72.5686 16.5257 71.7817 16.343V17.4226C72.1668 17.5721 72.4514 17.8711 72.4514 18.3693C72.4514 18.8012 72.0998 19.1334 71.7817 19.1998V32.1216C72.1835 31.7894 72.6691 31.6732 73.1714 31.6732C73.657 31.6732 74.1426 31.8559 74.5947 32.1216L73.5565 33.0849C74.1761 33.8157 73.523 34.9285 72.8533 35.2939C72.1333 35.676 72.5184 36.3403 73.0375 36.3403C73.2049 36.3403 73.3724 36.2739 73.5398 36.1244C73.9751 35.7258 74.5444 35.5265 75.097 35.5265C76.2691 35.5265 77.4244 36.4234 77.2737 38.2836L76.3696 37.7853C76.0682 38.7652 75.3649 39.1805 74.7119 39.1805C74.4105 39.1805 74.1258 39.0974 73.9082 38.9313C73.4058 38.5659 72.8868 38.1839 72.5351 38.1839C72.4179 38.1839 72.3007 38.2337 72.2338 38.3334C71.9658 38.6988 72.2505 39.0642 73.2049 39.5292C74.8123 40.3265 75.1305 42.6185 73.0207 43.2331L72.6691 43.2663L72.4012 41.7549C72.284 41.7881 72.1668 41.8047 72.0496 41.8047C71.9491 41.8047 71.8486 41.7881 71.7482 41.7715V45.3424C71.7482 48.8801 72.9705 51.8365 74.963 54.2116C74.9798 54.2282 74.9965 54.2449 74.9965 54.2615C75.0635 54.3445 75.1472 54.4276 75.2142 54.5106C75.231 54.5272 75.2477 54.5438 75.2644 54.5604C75.3482 54.6601 75.4319 54.7431 75.5156 54.8428C75.5156 54.8428 75.5156 54.8594 75.5323 54.8594C75.6161 54.959 75.7165 55.0421 75.8002 55.1417L75.817 55.1583C75.9342 55.2248 76.0347 55.3078 76.1351 55.3909C76.3361 55.557 76.537 55.7563 76.7044 55.9888C77.9937 57.1182 79.5007 58.0649 81.1249 58.8622C81.3091 58.9618 81.4933 59.0615 81.6942 59.1445C84.3732 60.4732 88.2914 61.9182 95.1397 61.9182C101.988 61.9182 105.906 60.4732 108.585 59.1445C108.786 59.0449 108.97 58.9452 109.155 58.8622C110.762 58.0815 112.235 57.1348 113.525 56.0386C113.558 55.9888 113.592 55.939 113.625 55.8891C113.642 55.8725 113.659 55.8559 113.675 55.8227C113.692 55.8061 113.709 55.7729 113.742 55.7563C113.759 55.7231 113.793 55.7064 113.809 55.6732C113.826 55.6566 113.826 55.64 113.843 55.64C113.876 55.6068 113.91 55.5736 113.943 55.5404L113.96 55.5237C113.994 55.4905 114.027 55.4573 114.061 55.4241C114.061 55.4241 114.061 55.4241 114.077 55.4075C114.111 55.3743 114.161 55.341 114.195 55.3078C114.278 55.2414 114.362 55.1916 114.446 55.1417C114.462 55.1251 114.479 55.1251 114.496 55.1085C116.991 52.5839 118.548 49.312 118.548 45.3092V41.7881C118.448 41.8213 118.347 41.8379 118.23 41.8379C118.163 41.8379 118.046 41.8213 117.928 41.7881Z" fill="#CC0000"/>
</g>
<defs>
<clipPath id="clip0_910_7409">
<rect width="160" height="77" fill="white"/>
</clipPath>
</defs>
</svg>
