<svg xmlns="http://www.w3.org/2000/svg"  viewBox="-7 -7 42 42" xmlns:xlink="http://www.w3.org/1999/xlink" version="1.1" >
<title>Instagram</title>
<g>
<path xmlns="http://www.w3.org/2000/svg" fill-rule="nonzero" fill="#fff" d="M13.4773109,2.42977292 C17.0848739,2.42977292 17.5159664,2.45248108 18.9226891,2.49789739 C20.2386555,2.56602187 20.9420168,2.77039529 21.4184874,2.95206056 C22.0537815,3.20185029 22.507563,3.49705635 22.9613445,3.95121951 C23.4378151,4.42809083 23.7327731,4.88225399 23.9596639,5.49537426 C24.1411765,5.97224558 24.3680672,6.67619849 24.4134454,7.99327166 C24.4815126,9.42388562 24.4815126,9.83263246 24.4815126,13.4432296 C24.4815126,17.0538267 24.4588235,17.4852817 24.4134454,18.8931876 C24.3453782,20.2102607 24.1411765,20.9142136 23.9596639,21.3910849 C23.710084,22.0269134 23.4151261,22.4810765 22.9613445,22.9352397 C22.4848739,23.412111 22.0310924,23.7073171 21.4184874,23.9343987 C20.9420168,24.1160639 20.2386555,24.3431455 18.9226891,24.3885618 C17.4932773,24.4566863 17.0848739,24.4566863 13.4773109,24.4566863 C9.8697479,24.4566863 9.43865546,24.4339781 8.03193277,24.3885618 C6.71596639,24.3204373 6.01260504,24.1160639 5.53613445,23.9343987 C4.90084034,23.6846089 4.44705882,23.3894029 3.99327731,22.9352397 C3.51680672,22.4583684 3.22184874,22.0042052 2.99495798,21.3910849 C2.81344538,20.9142136 2.58655462,20.2102607 2.54117647,18.8931876 C2.47310924,17.4625736 2.47310924,17.0538267 2.47310924,13.4432296 C2.47310924,9.83263246 2.49579832,9.40117746 2.54117647,7.99327166 C2.6092437,6.67619849 2.81344538,5.97224558 2.99495798,5.49537426 C3.19915966,4.90496215 3.49411765,4.45079899 3.97058824,3.97392767 C4.44705882,3.49705635 4.90084034,3.20185029 5.51344538,2.97476871 C5.98991597,2.79310345 6.69327731,2.56602187 8.0092437,2.52060555 C9.43865546,2.42977292 9.8697479,2.42977292 13.4773109,2.42977292 Z M13.4773109,0 C9.82436975,0 9.34789916,0.0227081581 7.91848739,0.0908326325 C6.48907563,0.136248949 5.4907563,0.36333053 4.6512605,0.703952902 C3.76638655,1.04457527 2.99495798,1.49873844 2.24621849,2.24810765 C1.49747899,2.99747687 1.04369748,3.76955425 0.703361345,4.65517241 C0.36302521,5.49537426 0.136134454,6.49453322 0.0680672269,7.92514718 C0,9.35576114 0,9.83263246 0,13.4886459 C0,17.1446594 0.0226890756,17.6215307 0.0907563025,19.0521447 C0.158823529,20.4827586 0.385714286,21.4592094 0.72605042,22.3221194 C1.06638655,23.2077376 1.54285714,23.9571068 2.29159664,24.706476 C3.04033613,25.4558452 3.78907563,25.9100084 4.67394958,26.2733389 C5.53613445,26.6139613 6.51176471,26.8410429 7.94117647,26.9091674 C9.37058824,26.9772918 9.84705882,27 13.5,27 C17.1529412,27 17.6294118,26.9772918 19.0588235,26.9091674 C20.4882353,26.8410429 21.4638655,26.6139613 22.3260504,26.2733389 C23.2109244,25.9327166 23.9596639,25.4558452 24.7084034,24.706476 C25.4571429,23.9571068 25.9109244,23.2077376 26.2739496,22.3221194 C26.6142857,21.4592094 26.8411765,20.4827586 26.9092437,19.0521447 C26.9773109,17.6215307 27,17.1446594 27,13.4886459 C27,9.83263246 26.9773109,9.35576114 26.9092437,7.92514718 C26.8411765,6.49453322 26.6142857,5.51808242 26.2739496,4.65517241 C25.9336134,3.76955425 25.4571429,3.02018503 24.7084034,2.27081581 C23.9596639,1.52144659 23.2109244,1.06728343 22.3260504,0.703952902 C21.4638655,0.36333053 20.4882353,0.136248949 19.0588235,0.0681244743 C17.6067227,0 17.1302521,0 13.4773109,0 Z"/>
<path xmlns="http://www.w3.org/2000/svg" fill-rule="nonzero" fill="#fff" d="M14,7 C10.1213115,7 7,10.1442623 7,14 C7,17.8786885 10.1442623,21 14,21 C17.8557377,21 21,17.8557377 21,14 C21,10.1213115 17.8786885,7 14,7 Z M14,18.5442623 C11.4983607,18.5442623 9.4557377,16.5016393 9.4557377,14 C9.4557377,11.4983607 11.4983607,9.4557377 14,9.4557377 C16.5016393,9.4557377 18.5442623,11.4983607 18.5442623,14 C18.5442623,16.5016393 16.5016393,18.5442623 14,18.5442623 Z"/>
<circle xmlns="http://www.w3.org/2000/svg" fill="#fff" cx="21" cy="6" r="2"/>
</g>
</svg>