<svg xmlns="http://www.w3.org/2000/svg" version="1.1" viewBox="-8 -8 38 38">
  <title>Error</title>
  <g>
    <path
      fill="currentColor"
      d="M7.33946 3.24242C7.49556 3.08683 7.70708 2.99963 7.92747 3L15.1042 3.01196C15.3245 3.01232 15.5358 3.10023 15.6914 3.25633L20.7576 8.33946C20.9132 8.49556 21.0004 8.70708 21 8.92747L20.988 16.1042C20.9877 16.3245 20.8998 16.5358 20.7437 16.6914L15.6605 21.7576C15.5044 21.9132 15.2929 22.0004 15.0725 22L7.89585 21.988C7.67545 21.9877 7.46423 21.8998 7.30865 21.7437L2.24242 16.6605C2.08683 16.5044 1.99963 16.2929 2 16.0725L2.01195 8.89585C2.01232 8.67545 2.10023 8.46423 2.25633 8.30865L7.33946 3.24242Z"
    />
    <path
      fill="white"
      fill-rule="evenodd"
      clip-rule="evenodd"
      d="M7.35206 8.82756C7.18099 8.99863 7.18099 9.27599 7.35206 9.44706L9.97629 12.0713C10.1441 12.2416 10.1442 12.5153 9.97651 12.6858L7.35206 15.3102C7.18099 15.4813 7.18099 15.7587 7.35206 15.9297L7.82768 16.4053C7.90254 16.4802 7.99776 16.5223 8.09552 16.5316C8.1187 16.5339 8.14202 16.5342 8.16524 16.5328C8.26793 16.5263 8.36878 16.4838 8.44725 16.4053L11.0717 13.7808C11.2423 13.6132 11.5159 13.6134 11.6863 13.7813L14.3103 16.4053C14.3883 16.4834 14.4884 16.5258 14.5905 16.5327C14.7122 16.5408 14.8368 16.4984 14.9298 16.4054L15.4055 15.9297C15.5765 15.7587 15.5765 15.4813 15.4055 15.3102L12.7812 12.686C12.6134 12.5156 12.6133 12.2419 12.781 12.0715C12.7819 12.0706 12.7827 12.0697 12.7836 12.0689L15.4055 9.44706C15.5765 9.27599 15.5765 8.99863 15.4055 8.82756L14.9298 8.35194C14.8463 8.2684 14.7374 8.22565 14.6279 8.2237C14.5132 8.22164 14.3978 8.26439 14.3103 8.35193L11.6858 10.9764C11.5153 11.1441 11.2416 11.1439 11.0713 10.976L8.44725 8.35194C8.36923 8.27392 8.2691 8.23148 8.16703 8.22463C8.04528 8.21643 7.92076 8.25887 7.82769 8.35193L7.35206 8.82756Z"
    />
  </g>
</svg>
