<svg xmlns="http://www.w3.org/2000/svg" version="1.1" viewBox="0 -1 24 24">
  <title>Loupe</title>
  <g>
    <path
      fill="currentColor"
      fill-rule="evenodd"
      clip-rule="evenodd"
      d="M14.5028 16.2982C11.5839 18.3961 7.51217 18.1416 4.90662 15.5261C2.00474 12.613 2.02036 7.87451 4.94151 4.94223C7.86266 2.00995 12.5832 1.99433 15.485 4.90734C18.0906 7.52288 18.3441 11.6102 16.2541 14.5402C16.2813 14.5597 16.3073 14.5818 16.3317 14.6063L21.1481 19.4412C21.39 19.6839 21.3887 20.0788 21.1452 20.3232L20.2637 21.2081C20.0203 21.4524 19.6269 21.4537 19.3851 21.211L14.5686 16.3761C14.5442 16.3515 14.5223 16.3255 14.5028 16.2982ZM13.6987 13.733C11.7513 15.6879 8.60428 15.6983 6.66969 13.7563C4.7351 11.8143 4.74552 8.65523 6.69295 6.70038C8.64039 4.74553 11.7874 4.73512 13.722 6.67712C15.6566 8.61913 15.6461 11.7782 13.6987 13.733Z"
    />
  </g>
</svg>
