<svg width="35" height="37" viewBox="0 0 35 37" fill="none" xmlns="http://www.w3.org/2000/svg">
<path fill-rule="evenodd" clip-rule="evenodd" d="M30.06 0H14.91C13.8492 0 12.8317 0.421424 12.0816 1.17157C11.3315 1.92172 10.91 2.93913 10.91 4V11.34C10.91 12.4009 11.3315 13.4183 12.0816 14.1684C12.8317 14.9186 13.8492 15.34 14.91 15.34H15.45V18.59L18.69 15.34H30.06C31.1209 15.34 32.1383 14.9186 32.8884 14.1684C33.6386 13.4183 34.06 12.4009 34.06 11.34V4C34.06 2.93913 33.6386 1.92172 32.8884 1.17157C32.1383 0.421424 31.1209 0 30.06 0ZM23.33 2.83L23.02 9.2H21.42L21.11 2.83H23.33ZM22.22 12.46C21.9669 12.46 21.7194 12.3849 21.5089 12.2443C21.2984 12.1036 21.1344 11.9037 21.0375 11.6698C20.9406 11.4359 20.9152 11.1786 20.9646 10.9303C21.014 10.682 21.1359 10.4539 21.3149 10.2749C21.494 10.0959 21.722 9.97398 21.9703 9.92459C22.2186 9.8752 22.4759 9.90056 22.7098 9.99744C22.9437 10.0943 23.1437 10.2584 23.2843 10.4689C23.4249 10.6794 23.5 10.9268 23.5 11.18C23.509 11.353 23.4811 11.526 23.418 11.6874C23.355 11.8488 23.2582 11.9949 23.1343 12.116C23.0103 12.2371 22.862 12.3305 22.6992 12.3898C22.5364 12.4491 22.3628 12.473 22.19 12.46H22.22Z" fill="black"/>
<path d="M15.67 36.73V29.29C15.67 27.08 13.2 25.29 10.14 25.29H5.53003C2.47003 25.29 0 27.08 0 29.29V36.73H15.67Z" fill="black"/>
<path d="M12.15 20.54C12.1739 21.3991 11.941 22.2459 11.481 22.9719C11.0211 23.6979 10.355 24.2703 9.56807 24.6157C8.78109 24.9612 7.90893 25.064 7.06319 24.9111C6.21744 24.7582 5.43655 24.3566 4.82033 23.7574C4.2041 23.1583 3.7806 22.389 3.60396 21.5479C3.42731 20.7068 3.50554 19.8321 3.82869 19.0358C4.15184 18.2394 4.7052 17.5575 5.41798 17.0773C6.13077 16.597 6.97058 16.3404 7.83003 16.34C8.38948 16.3321 8.94503 16.4344 9.46492 16.6412C9.98481 16.848 10.4588 17.1552 10.86 17.5452C11.2612 17.9352 11.5816 18.4004 11.8029 18.9143C12.0243 19.4281 12.1422 19.9806 12.15 20.54V20.54Z" fill="black"/>
</svg>
