<svg width="35" height="26" viewBox="0 0 35 26" fill="none" xmlns="http://www.w3.org/2000/svg">
<path d="M9.59002 9.80005H6.72002C4.81002 9.80005 3.27002 10.91 3.27002 12.29V13H13.03V12.29C13.03 10.91 11.49 9.80005 9.59002 9.80005Z" fill="black"/>
<path d="M33.66 7.06621e-10H1.21C0.890812 -1.08999e-05 0.584552 0.1261 0.357918 0.350861C0.131284 0.575621 0.00263791 0.880836 0 1.20001V24.07C0 24.3909 0.127482 24.6987 0.354401 24.9256C0.58132 25.1525 0.889087 25.28 1.21 25.28H33.66C33.9792 25.2774 34.2844 25.1487 34.5091 24.9221C34.7339 24.6955 34.86 24.3892 34.86 24.07V1.20001C34.86 0.881752 34.7336 0.576515 34.5085 0.351471C34.2835 0.126427 33.9783 7.06677e-10 33.66 7.06621e-10V7.06621e-10ZM14.11 14.12C14.1022 14.3632 13.9994 14.5936 13.8236 14.7618C13.6479 14.9301 13.4133 15.0228 13.17 15.02H3.26C3.02131 15.02 2.79239 14.9252 2.6236 14.7564C2.45482 14.5876 2.36 14.3587 2.36 14.12V3.31C2.35868 3.19097 2.38098 3.07287 2.42562 2.96252C2.47026 2.85217 2.53634 2.75178 2.62004 2.66714C2.70375 2.58251 2.80341 2.51531 2.91326 2.46945C3.02311 2.4236 3.14097 2.40002 3.26 2.40002H13.17C13.4142 2.3999 13.6488 2.4948 13.8243 2.66464C13.9997 2.83449 14.1022 3.06593 14.11 3.31V14.12ZM30.11 20.68H29.24L29.18 20.75V21.95C29.1807 22.0506 29.1492 22.1487 29.09 22.23C29.039 22.3194 28.9669 22.3949 28.88 22.45C28.7922 22.5156 28.6942 22.5662 28.59 22.6C28.4931 22.6319 28.392 22.6488 28.29 22.65C28.0748 22.6421 27.8678 22.565 27.7 22.43C27.6125 22.3654 27.5415 22.2809 27.4928 22.1836C27.4442 22.0863 27.4192 21.9788 27.42 21.87V20.71H21.16C21.16 20.89 21.16 21.1 21.16 21.32C21.1637 21.5321 21.1402 21.7439 21.09 21.95C21.0368 22.1341 20.9447 22.3046 20.82 22.45C20.7397 22.5206 20.6463 22.5747 20.545 22.609C20.4437 22.6433 20.3367 22.6573 20.23 22.65C20.0519 22.6517 19.8788 22.5916 19.74 22.48C19.5981 22.3658 19.4822 22.2226 19.4 22.06C19.3962 22.0234 19.3962 21.9866 19.4 21.95V20.68H18.51V17.25C18.5213 17.071 18.5877 16.8999 18.7 16.76C18.8023 16.6173 18.9273 16.4923 19.07 16.39H19.19L19.33 16.33L19.4 16.2C19.4169 16.1914 19.4313 16.1787 19.4418 16.1629C19.4523 16.1471 19.4586 16.1289 19.46 16.11L20.39 13.75C20.4907 13.5281 20.6333 13.3278 20.81 13.16C20.895 13.0706 20.9974 12.9996 21.1109 12.9514C21.2245 12.9033 21.3467 12.879 21.47 12.88H27.03C27.264 12.8902 27.4869 12.9823 27.66 13.14C27.8348 13.2876 27.9749 13.472 28.07 13.68L28.98 16.03C28.9931 16.0801 29.0181 16.1263 29.0529 16.1646C29.0877 16.203 29.1313 16.2323 29.18 16.25L29.47 16.36C29.6497 16.4748 29.7976 16.633 29.9 16.82C30.0077 16.9982 30.0664 17.2018 30.07 17.41L30.11 20.68ZM30.93 9.31H17.65V7.72H30.93V9.31ZM30.93 5.62003H17.65V4.03H30.93V5.62003Z" fill="black"/>
<path d="M20.29 16.87C20.1797 16.8645 20.0696 16.8852 19.9688 16.9304C19.868 16.9756 19.7793 17.044 19.71 17.13C19.5735 17.2963 19.4989 17.5048 19.4989 17.72C19.4989 17.9352 19.5735 18.1437 19.71 18.31C19.7818 18.3924 19.8712 18.4577 19.9716 18.501C20.072 18.5442 20.1808 18.5644 20.29 18.56C20.396 18.5621 20.5012 18.5408 20.598 18.4976C20.6948 18.4544 20.7808 18.3903 20.85 18.31C21.0034 18.1499 21.0891 17.9367 21.0891 17.715C21.0891 17.4933 21.0034 17.2801 20.85 17.12C20.7808 17.0397 20.6948 16.9756 20.598 16.9324C20.5012 16.8892 20.396 16.8679 20.29 16.87Z" fill="black"/>
<path d="M27.33 13.93C27.2912 13.8322 27.2372 13.741 27.17 13.66C27.1375 13.6133 27.0941 13.5753 27.0436 13.5491C26.993 13.523 26.9369 13.5096 26.88 13.51H21.68C21.6292 13.5104 21.579 13.5213 21.5325 13.5419C21.486 13.5626 21.4444 13.5925 21.41 13.63C21.3413 13.6967 21.2898 13.7791 21.26 13.87L20.5 15.94H28.08L27.33 13.93Z" fill="black"/>
<path d="M28.29 16.87C28.1811 16.8677 28.0729 16.8888 27.9728 16.9319C27.8727 16.9751 27.7831 17.0392 27.71 17.12C27.5566 17.2801 27.4709 17.4933 27.4709 17.7151C27.4709 17.9368 27.5566 18.1499 27.71 18.31C27.7831 18.3908 27.8727 18.455 27.9728 18.4981C28.0729 18.5413 28.1811 18.5624 28.29 18.56C28.3987 18.5639 28.5068 18.5425 28.6057 18.4974C28.7047 18.4522 28.7917 18.3847 28.86 18.3C28.9348 18.2234 28.9936 18.1326 29.0331 18.0331C29.0726 17.9335 29.0919 17.8271 29.09 17.72C29.0943 17.5007 29.0116 17.2886 28.86 17.13C28.7902 17.0471 28.7029 16.9808 28.6043 16.9358C28.5057 16.8908 28.3984 16.8684 28.29 16.87V16.87Z" fill="black"/>
<path d="M8.14998 9.47002C8.66539 9.45624 9.16527 9.29071 9.58703 8.99413C10.0088 8.69756 10.3337 8.28312 10.521 7.80276C10.7083 7.32239 10.7497 6.79745 10.64 6.29366C10.5303 5.78987 10.2745 5.32964 9.90441 4.9706C9.53437 4.61157 9.06663 4.36968 8.55975 4.27526C8.05288 4.18084 7.52942 4.23809 7.05492 4.43981C6.58043 4.64153 6.176 4.97875 5.89229 5.40926C5.60858 5.83978 5.45819 6.34445 5.45998 6.86004C5.46519 7.20805 5.53891 7.55163 5.67693 7.87115C5.81494 8.19067 6.01455 8.47988 6.26434 8.72225C6.51414 8.96462 6.80923 9.15541 7.13277 9.28371C7.45632 9.41202 7.80197 9.47532 8.14998 9.47002V9.47002Z" fill="black"/>
</svg>
